<?xml version="1.0" encoding="utf-8" standalone="no"?>
<!DOCTYPE svg PUBLIC "-//W3C//DTD SVG 1.1//EN"
  "http://www.w3.org/Graphics/SVG/1.1/DTD/svg11.dtd">
<!-- Created with matplotlib (https://matplotlib.org/) -->
<svg height="345.6pt" version="1.1" viewBox="0 0 460.8 345.6" width="460.8pt" xmlns="http://www.w3.org/2000/svg" xmlns:xlink="http://www.w3.org/1999/xlink">
 <metadata>
  <rdf:RDF xmlns:cc="http://creativecommons.org/ns#" xmlns:dc="http://purl.org/dc/elements/1.1/" xmlns:rdf="http://www.w3.org/1999/02/22-rdf-syntax-ns#">
   <cc:Work>
    <dc:type rdf:resource="http://purl.org/dc/dcmitype/StillImage"/>
    <dc:date>2022-07-31T12:24:55.921782</dc:date>
    <dc:format>image/svg+xml</dc:format>
    <dc:creator>
     <cc:Agent>
      <dc:title>Matplotlib v3.3.4, https://matplotlib.org/</dc:title>
     </cc:Agent>
    </dc:creator>
   </cc:Work>
  </rdf:RDF>
 </metadata>
 <defs>
  <style type="text/css">*{stroke-linecap:butt;stroke-linejoin:round;}</style>
 </defs>
 <g id="figure_1">
  <g id="patch_1">
   <path d="M 0 345.6 
L 460.8 345.6 
L 460.8 0 
L 0 0 
z
" style="fill:#ffffff;"/>
  </g>
  <g id="axes_1">
   <g id="patch_2">
    <path d="M 57.6 307.584 
L 414.72 307.584 
L 414.72 41.472 
L 57.6 41.472 
z
" style="fill:#ffffff;"/>
   </g>
   <g id="matplotlib.axis_1">
    <g id="xtick_1">
     <g id="line2d_1">
      <defs>
       <path d="M 0 0 
L 0 3.5 
" id="m5a669703e2" style="stroke:#000000;stroke-width:0.8;"/>
      </defs>
      <g>
       <use style="stroke:#000000;stroke-width:0.8;" x="73.832727" xlink:href="#m5a669703e2" y="307.584"/>
      </g>
     </g>
     <g id="text_1">
      <!-- 0 -->
      <g transform="translate(70.651477 322.182437)scale(0.1 -0.1)">
       <defs>
        <path d="M 31.78125 66.40625 
Q 24.171875 66.40625 20.328125 58.90625 
Q 16.5 51.421875 16.5 36.375 
Q 16.5 21.390625 20.328125 13.890625 
Q 24.171875 6.390625 31.78125 6.390625 
Q 39.453125 6.390625 43.28125 13.890625 
Q 47.125 21.390625 47.125 36.375 
Q 47.125 51.421875 43.28125 58.90625 
Q 39.453125 66.40625 31.78125 66.40625 
z
M 31.78125 74.21875 
Q 44.046875 74.21875 50.515625 64.515625 
Q 56.984375 54.828125 56.984375 36.375 
Q 56.984375 17.96875 50.515625 8.265625 
Q 44.046875 -1.421875 31.78125 -1.421875 
Q 19.53125 -1.421875 13.0625 8.265625 
Q 6.59375 17.96875 6.59375 36.375 
Q 6.59375 54.828125 13.0625 64.515625 
Q 19.53125 74.21875 31.78125 74.21875 
z
" id="DejaVuSans-48"/>
       </defs>
       <use xlink:href="#DejaVuSans-48"/>
      </g>
     </g>
    </g>
    <g id="xtick_2">
     <g id="line2d_2">
      <g>
       <use style="stroke:#000000;stroke-width:0.8;" x="138.763636" xlink:href="#m5a669703e2" y="307.584"/>
      </g>
     </g>
     <g id="text_2">
      <!-- 2000 -->
      <g transform="translate(126.038636 322.182437)scale(0.1 -0.1)">
       <defs>
        <path d="M 19.1875 8.296875 
L 53.609375 8.296875 
L 53.609375 0 
L 7.328125 0 
L 7.328125 8.296875 
Q 12.9375 14.109375 22.625 23.890625 
Q 32.328125 33.6875 34.8125 36.53125 
Q 39.546875 41.84375 41.421875 45.53125 
Q 43.3125 49.21875 43.3125 52.78125 
Q 43.3125 58.59375 39.234375 62.25 
Q 35.15625 65.921875 28.609375 65.921875 
Q 23.96875 65.921875 18.8125 64.3125 
Q 13.671875 62.703125 7.8125 59.421875 
L 7.8125 69.390625 
Q 13.765625 71.78125 18.9375 73 
Q 24.125 74.21875 28.421875 74.21875 
Q 39.75 74.21875 46.484375 68.546875 
Q 53.21875 62.890625 53.21875 53.421875 
Q 53.21875 48.921875 51.53125 44.890625 
Q 49.859375 40.875 45.40625 35.40625 
Q 44.1875 33.984375 37.640625 27.21875 
Q 31.109375 20.453125 19.1875 8.296875 
z
" id="DejaVuSans-50"/>
       </defs>
       <use xlink:href="#DejaVuSans-50"/>
       <use x="63.623047" xlink:href="#DejaVuSans-48"/>
       <use x="127.246094" xlink:href="#DejaVuSans-48"/>
       <use x="190.869141" xlink:href="#DejaVuSans-48"/>
      </g>
     </g>
    </g>
    <g id="xtick_3">
     <g id="line2d_3">
      <g>
       <use style="stroke:#000000;stroke-width:0.8;" x="203.694545" xlink:href="#m5a669703e2" y="307.584"/>
      </g>
     </g>
     <g id="text_3">
      <!-- 4000 -->
      <g transform="translate(190.969545 322.182437)scale(0.1 -0.1)">
       <defs>
        <path d="M 37.796875 64.3125 
L 12.890625 25.390625 
L 37.796875 25.390625 
z
M 35.203125 72.90625 
L 47.609375 72.90625 
L 47.609375 25.390625 
L 58.015625 25.390625 
L 58.015625 17.1875 
L 47.609375 17.1875 
L 47.609375 0 
L 37.796875 0 
L 37.796875 17.1875 
L 4.890625 17.1875 
L 4.890625 26.703125 
z
" id="DejaVuSans-52"/>
       </defs>
       <use xlink:href="#DejaVuSans-52"/>
       <use x="63.623047" xlink:href="#DejaVuSans-48"/>
       <use x="127.246094" xlink:href="#DejaVuSans-48"/>
       <use x="190.869141" xlink:href="#DejaVuSans-48"/>
      </g>
     </g>
    </g>
    <g id="xtick_4">
     <g id="line2d_4">
      <g>
       <use style="stroke:#000000;stroke-width:0.8;" x="268.625455" xlink:href="#m5a669703e2" y="307.584"/>
      </g>
     </g>
     <g id="text_4">
      <!-- 6000 -->
      <g transform="translate(255.900455 322.182437)scale(0.1 -0.1)">
       <defs>
        <path d="M 33.015625 40.375 
Q 26.375 40.375 22.484375 35.828125 
Q 18.609375 31.296875 18.609375 23.390625 
Q 18.609375 15.53125 22.484375 10.953125 
Q 26.375 6.390625 33.015625 6.390625 
Q 39.65625 6.390625 43.53125 10.953125 
Q 47.40625 15.53125 47.40625 23.390625 
Q 47.40625 31.296875 43.53125 35.828125 
Q 39.65625 40.375 33.015625 40.375 
z
M 52.59375 71.296875 
L 52.59375 62.3125 
Q 48.875 64.0625 45.09375 64.984375 
Q 41.3125 65.921875 37.59375 65.921875 
Q 27.828125 65.921875 22.671875 59.328125 
Q 17.53125 52.734375 16.796875 39.40625 
Q 19.671875 43.65625 24.015625 45.921875 
Q 28.375 48.1875 33.59375 48.1875 
Q 44.578125 48.1875 50.953125 41.515625 
Q 57.328125 34.859375 57.328125 23.390625 
Q 57.328125 12.15625 50.6875 5.359375 
Q 44.046875 -1.421875 33.015625 -1.421875 
Q 20.359375 -1.421875 13.671875 8.265625 
Q 6.984375 17.96875 6.984375 36.375 
Q 6.984375 53.65625 15.1875 63.9375 
Q 23.390625 74.21875 37.203125 74.21875 
Q 40.921875 74.21875 44.703125 73.484375 
Q 48.484375 72.75 52.59375 71.296875 
z
" id="DejaVuSans-54"/>
       </defs>
       <use xlink:href="#DejaVuSans-54"/>
       <use x="63.623047" xlink:href="#DejaVuSans-48"/>
       <use x="127.246094" xlink:href="#DejaVuSans-48"/>
       <use x="190.869141" xlink:href="#DejaVuSans-48"/>
      </g>
     </g>
    </g>
    <g id="xtick_5">
     <g id="line2d_5">
      <g>
       <use style="stroke:#000000;stroke-width:0.8;" x="333.556364" xlink:href="#m5a669703e2" y="307.584"/>
      </g>
     </g>
     <g id="text_5">
      <!-- 8000 -->
      <g transform="translate(320.831364 322.182437)scale(0.1 -0.1)">
       <defs>
        <path d="M 31.78125 34.625 
Q 24.75 34.625 20.71875 30.859375 
Q 16.703125 27.09375 16.703125 20.515625 
Q 16.703125 13.921875 20.71875 10.15625 
Q 24.75 6.390625 31.78125 6.390625 
Q 38.8125 6.390625 42.859375 10.171875 
Q 46.921875 13.96875 46.921875 20.515625 
Q 46.921875 27.09375 42.890625 30.859375 
Q 38.875 34.625 31.78125 34.625 
z
M 21.921875 38.8125 
Q 15.578125 40.375 12.03125 44.71875 
Q 8.5 49.078125 8.5 55.328125 
Q 8.5 64.0625 14.71875 69.140625 
Q 20.953125 74.21875 31.78125 74.21875 
Q 42.671875 74.21875 48.875 69.140625 
Q 55.078125 64.0625 55.078125 55.328125 
Q 55.078125 49.078125 51.53125 44.71875 
Q 48 40.375 41.703125 38.8125 
Q 48.828125 37.15625 52.796875 32.3125 
Q 56.78125 27.484375 56.78125 20.515625 
Q 56.78125 9.90625 50.3125 4.234375 
Q 43.84375 -1.421875 31.78125 -1.421875 
Q 19.734375 -1.421875 13.25 4.234375 
Q 6.78125 9.90625 6.78125 20.515625 
Q 6.78125 27.484375 10.78125 32.3125 
Q 14.796875 37.15625 21.921875 38.8125 
z
M 18.3125 54.390625 
Q 18.3125 48.734375 21.84375 45.5625 
Q 25.390625 42.390625 31.78125 42.390625 
Q 38.140625 42.390625 41.71875 45.5625 
Q 45.3125 48.734375 45.3125 54.390625 
Q 45.3125 60.0625 41.71875 63.234375 
Q 38.140625 66.40625 31.78125 66.40625 
Q 25.390625 66.40625 21.84375 63.234375 
Q 18.3125 60.0625 18.3125 54.390625 
z
" id="DejaVuSans-56"/>
       </defs>
       <use xlink:href="#DejaVuSans-56"/>
       <use x="63.623047" xlink:href="#DejaVuSans-48"/>
       <use x="127.246094" xlink:href="#DejaVuSans-48"/>
       <use x="190.869141" xlink:href="#DejaVuSans-48"/>
      </g>
     </g>
    </g>
    <g id="xtick_6">
     <g id="line2d_6">
      <g>
       <use style="stroke:#000000;stroke-width:0.8;" x="398.487273" xlink:href="#m5a669703e2" y="307.584"/>
      </g>
     </g>
     <g id="text_6">
      <!-- 10000 -->
      <g transform="translate(382.581023 322.182437)scale(0.1 -0.1)">
       <defs>
        <path d="M 12.40625 8.296875 
L 28.515625 8.296875 
L 28.515625 63.921875 
L 10.984375 60.40625 
L 10.984375 69.390625 
L 28.421875 72.90625 
L 38.28125 72.90625 
L 38.28125 8.296875 
L 54.390625 8.296875 
L 54.390625 0 
L 12.40625 0 
z
" id="DejaVuSans-49"/>
       </defs>
       <use xlink:href="#DejaVuSans-49"/>
       <use x="63.623047" xlink:href="#DejaVuSans-48"/>
       <use x="127.246094" xlink:href="#DejaVuSans-48"/>
       <use x="190.869141" xlink:href="#DejaVuSans-48"/>
       <use x="254.492188" xlink:href="#DejaVuSans-48"/>
      </g>
     </g>
    </g>
    <g id="text_7">
     <!-- Num-time-steps -->
     <g transform="translate(196.056094 335.860562)scale(0.1 -0.1)">
      <defs>
       <path d="M 9.8125 72.90625 
L 23.09375 72.90625 
L 55.421875 11.921875 
L 55.421875 72.90625 
L 64.984375 72.90625 
L 64.984375 0 
L 51.703125 0 
L 19.390625 60.984375 
L 19.390625 0 
L 9.8125 0 
z
" id="DejaVuSans-78"/>
       <path d="M 8.5 21.578125 
L 8.5 54.6875 
L 17.484375 54.6875 
L 17.484375 21.921875 
Q 17.484375 14.15625 20.5 10.265625 
Q 23.53125 6.390625 29.59375 6.390625 
Q 36.859375 6.390625 41.078125 11.03125 
Q 45.3125 15.671875 45.3125 23.6875 
L 45.3125 54.6875 
L 54.296875 54.6875 
L 54.296875 0 
L 45.3125 0 
L 45.3125 8.40625 
Q 42.046875 3.421875 37.71875 1 
Q 33.40625 -1.421875 27.6875 -1.421875 
Q 18.265625 -1.421875 13.375 4.4375 
Q 8.5 10.296875 8.5 21.578125 
z
M 31.109375 56 
z
" id="DejaVuSans-117"/>
       <path d="M 52 44.1875 
Q 55.375 50.25 60.0625 53.125 
Q 64.75 56 71.09375 56 
Q 79.640625 56 84.28125 50.015625 
Q 88.921875 44.046875 88.921875 33.015625 
L 88.921875 0 
L 79.890625 0 
L 79.890625 32.71875 
Q 79.890625 40.578125 77.09375 44.375 
Q 74.3125 48.1875 68.609375 48.1875 
Q 61.625 48.1875 57.5625 43.546875 
Q 53.515625 38.921875 53.515625 30.90625 
L 53.515625 0 
L 44.484375 0 
L 44.484375 32.71875 
Q 44.484375 40.625 41.703125 44.40625 
Q 38.921875 48.1875 33.109375 48.1875 
Q 26.21875 48.1875 22.15625 43.53125 
Q 18.109375 38.875 18.109375 30.90625 
L 18.109375 0 
L 9.078125 0 
L 9.078125 54.6875 
L 18.109375 54.6875 
L 18.109375 46.1875 
Q 21.1875 51.21875 25.484375 53.609375 
Q 29.78125 56 35.6875 56 
Q 41.65625 56 45.828125 52.96875 
Q 50 49.953125 52 44.1875 
z
" id="DejaVuSans-109"/>
       <path d="M 4.890625 31.390625 
L 31.203125 31.390625 
L 31.203125 23.390625 
L 4.890625 23.390625 
z
" id="DejaVuSans-45"/>
       <path d="M 18.3125 70.21875 
L 18.3125 54.6875 
L 36.8125 54.6875 
L 36.8125 47.703125 
L 18.3125 47.703125 
L 18.3125 18.015625 
Q 18.3125 11.328125 20.140625 9.421875 
Q 21.96875 7.515625 27.59375 7.515625 
L 36.8125 7.515625 
L 36.8125 0 
L 27.59375 0 
Q 17.1875 0 13.234375 3.875 
Q 9.28125 7.765625 9.28125 18.015625 
L 9.28125 47.703125 
L 2.6875 47.703125 
L 2.6875 54.6875 
L 9.28125 54.6875 
L 9.28125 70.21875 
z
" id="DejaVuSans-116"/>
       <path d="M 9.421875 54.6875 
L 18.40625 54.6875 
L 18.40625 0 
L 9.421875 0 
z
M 9.421875 75.984375 
L 18.40625 75.984375 
L 18.40625 64.59375 
L 9.421875 64.59375 
z
" id="DejaVuSans-105"/>
       <path d="M 56.203125 29.59375 
L 56.203125 25.203125 
L 14.890625 25.203125 
Q 15.484375 15.921875 20.484375 11.0625 
Q 25.484375 6.203125 34.421875 6.203125 
Q 39.59375 6.203125 44.453125 7.46875 
Q 49.3125 8.734375 54.109375 11.28125 
L 54.109375 2.78125 
Q 49.265625 0.734375 44.1875 -0.34375 
Q 39.109375 -1.421875 33.890625 -1.421875 
Q 20.796875 -1.421875 13.15625 6.1875 
Q 5.515625 13.8125 5.515625 26.8125 
Q 5.515625 40.234375 12.765625 48.109375 
Q 20.015625 56 32.328125 56 
Q 43.359375 56 49.78125 48.890625 
Q 56.203125 41.796875 56.203125 29.59375 
z
M 47.21875 32.234375 
Q 47.125 39.59375 43.09375 43.984375 
Q 39.0625 48.390625 32.421875 48.390625 
Q 24.90625 48.390625 20.390625 44.140625 
Q 15.875 39.890625 15.1875 32.171875 
z
" id="DejaVuSans-101"/>
       <path d="M 44.28125 53.078125 
L 44.28125 44.578125 
Q 40.484375 46.53125 36.375 47.5 
Q 32.28125 48.484375 27.875 48.484375 
Q 21.1875 48.484375 17.84375 46.4375 
Q 14.5 44.390625 14.5 40.28125 
Q 14.5 37.15625 16.890625 35.375 
Q 19.28125 33.59375 26.515625 31.984375 
L 29.59375 31.296875 
Q 39.15625 29.25 43.1875 25.515625 
Q 47.21875 21.78125 47.21875 15.09375 
Q 47.21875 7.46875 41.1875 3.015625 
Q 35.15625 -1.421875 24.609375 -1.421875 
Q 20.21875 -1.421875 15.453125 -0.5625 
Q 10.6875 0.296875 5.421875 2 
L 5.421875 11.28125 
Q 10.40625 8.6875 15.234375 7.390625 
Q 20.0625 6.109375 24.8125 6.109375 
Q 31.15625 6.109375 34.5625 8.28125 
Q 37.984375 10.453125 37.984375 14.40625 
Q 37.984375 18.0625 35.515625 20.015625 
Q 33.0625 21.96875 24.703125 23.78125 
L 21.578125 24.515625 
Q 13.234375 26.265625 9.515625 29.90625 
Q 5.8125 33.546875 5.8125 39.890625 
Q 5.8125 47.609375 11.28125 51.796875 
Q 16.75 56 26.8125 56 
Q 31.78125 56 36.171875 55.265625 
Q 40.578125 54.546875 44.28125 53.078125 
z
" id="DejaVuSans-115"/>
       <path d="M 18.109375 8.203125 
L 18.109375 -20.796875 
L 9.078125 -20.796875 
L 9.078125 54.6875 
L 18.109375 54.6875 
L 18.109375 46.390625 
Q 20.953125 51.265625 25.265625 53.625 
Q 29.59375 56 35.59375 56 
Q 45.5625 56 51.78125 48.09375 
Q 58.015625 40.1875 58.015625 27.296875 
Q 58.015625 14.40625 51.78125 6.484375 
Q 45.5625 -1.421875 35.59375 -1.421875 
Q 29.59375 -1.421875 25.265625 0.953125 
Q 20.953125 3.328125 18.109375 8.203125 
z
M 48.6875 27.296875 
Q 48.6875 37.203125 44.609375 42.84375 
Q 40.53125 48.484375 33.40625 48.484375 
Q 26.265625 48.484375 22.1875 42.84375 
Q 18.109375 37.203125 18.109375 27.296875 
Q 18.109375 17.390625 22.1875 11.75 
Q 26.265625 6.109375 33.40625 6.109375 
Q 40.53125 6.109375 44.609375 11.75 
Q 48.6875 17.390625 48.6875 27.296875 
z
" id="DejaVuSans-112"/>
      </defs>
      <use xlink:href="#DejaVuSans-78"/>
      <use x="74.804688" xlink:href="#DejaVuSans-117"/>
      <use x="138.183594" xlink:href="#DejaVuSans-109"/>
      <use x="235.595703" xlink:href="#DejaVuSans-45"/>
      <use x="271.679688" xlink:href="#DejaVuSans-116"/>
      <use x="310.888672" xlink:href="#DejaVuSans-105"/>
      <use x="338.671875" xlink:href="#DejaVuSans-109"/>
      <use x="436.083984" xlink:href="#DejaVuSans-101"/>
      <use x="497.607422" xlink:href="#DejaVuSans-45"/>
      <use x="533.691406" xlink:href="#DejaVuSans-115"/>
      <use x="585.791016" xlink:href="#DejaVuSans-116"/>
      <use x="625" xlink:href="#DejaVuSans-101"/>
      <use x="686.523438" xlink:href="#DejaVuSans-112"/>
      <use x="750" xlink:href="#DejaVuSans-115"/>
     </g>
    </g>
   </g>
   <g id="matplotlib.axis_2">
    <g id="ytick_1">
     <g id="line2d_7">
      <defs>
       <path d="M 0 0 
L -3.5 0 
" id="m1f393c3ca5" style="stroke:#000000;stroke-width:0.8;"/>
      </defs>
      <g>
       <use style="stroke:#000000;stroke-width:0.8;" x="57.6" xlink:href="#m1f393c3ca5" y="300.767406"/>
      </g>
     </g>
     <g id="text_8">
      <!-- 0.0 -->
      <g transform="translate(34.696875 304.566625)scale(0.1 -0.1)">
       <defs>
        <path d="M 10.6875 12.40625 
L 21 12.40625 
L 21 0 
L 10.6875 0 
z
" id="DejaVuSans-46"/>
       </defs>
       <use xlink:href="#DejaVuSans-48"/>
       <use x="63.623047" xlink:href="#DejaVuSans-46"/>
       <use x="95.410156" xlink:href="#DejaVuSans-48"/>
      </g>
     </g>
    </g>
    <g id="ytick_2">
     <g id="line2d_8">
      <g>
       <use style="stroke:#000000;stroke-width:0.8;" x="57.6" xlink:href="#m1f393c3ca5" y="248.083419"/>
      </g>
     </g>
     <g id="text_9">
      <!-- 0.2 -->
      <g transform="translate(34.696875 251.882638)scale(0.1 -0.1)">
       <use xlink:href="#DejaVuSans-48"/>
       <use x="63.623047" xlink:href="#DejaVuSans-46"/>
       <use x="95.410156" xlink:href="#DejaVuSans-50"/>
      </g>
     </g>
    </g>
    <g id="ytick_3">
     <g id="line2d_9">
      <g>
       <use style="stroke:#000000;stroke-width:0.8;" x="57.6" xlink:href="#m1f393c3ca5" y="195.399432"/>
      </g>
     </g>
     <g id="text_10">
      <!-- 0.4 -->
      <g transform="translate(34.696875 199.198651)scale(0.1 -0.1)">
       <use xlink:href="#DejaVuSans-48"/>
       <use x="63.623047" xlink:href="#DejaVuSans-46"/>
       <use x="95.410156" xlink:href="#DejaVuSans-52"/>
      </g>
     </g>
    </g>
    <g id="ytick_4">
     <g id="line2d_10">
      <g>
       <use style="stroke:#000000;stroke-width:0.8;" x="57.6" xlink:href="#m1f393c3ca5" y="142.715445"/>
      </g>
     </g>
     <g id="text_11">
      <!-- 0.6 -->
      <g transform="translate(34.696875 146.514664)scale(0.1 -0.1)">
       <use xlink:href="#DejaVuSans-48"/>
       <use x="63.623047" xlink:href="#DejaVuSans-46"/>
       <use x="95.410156" xlink:href="#DejaVuSans-54"/>
      </g>
     </g>
    </g>
    <g id="ytick_5">
     <g id="line2d_11">
      <g>
       <use style="stroke:#000000;stroke-width:0.8;" x="57.6" xlink:href="#m1f393c3ca5" y="90.031458"/>
      </g>
     </g>
     <g id="text_12">
      <!-- 0.8 -->
      <g transform="translate(34.696875 93.830677)scale(0.1 -0.1)">
       <use xlink:href="#DejaVuSans-48"/>
       <use x="63.623047" xlink:href="#DejaVuSans-46"/>
       <use x="95.410156" xlink:href="#DejaVuSans-56"/>
      </g>
     </g>
    </g>
    <g id="text_13">
     <!-- Obj-pose-error-norm -->
     <g transform="translate(28.617187 225.203781)rotate(-90)scale(0.1 -0.1)">
      <defs>
       <path d="M 39.40625 66.21875 
Q 28.65625 66.21875 22.328125 58.203125 
Q 16.015625 50.203125 16.015625 36.375 
Q 16.015625 22.609375 22.328125 14.59375 
Q 28.65625 6.59375 39.40625 6.59375 
Q 50.140625 6.59375 56.421875 14.59375 
Q 62.703125 22.609375 62.703125 36.375 
Q 62.703125 50.203125 56.421875 58.203125 
Q 50.140625 66.21875 39.40625 66.21875 
z
M 39.40625 74.21875 
Q 54.734375 74.21875 63.90625 63.9375 
Q 73.09375 53.65625 73.09375 36.375 
Q 73.09375 19.140625 63.90625 8.859375 
Q 54.734375 -1.421875 39.40625 -1.421875 
Q 24.03125 -1.421875 14.8125 8.828125 
Q 5.609375 19.09375 5.609375 36.375 
Q 5.609375 53.65625 14.8125 63.9375 
Q 24.03125 74.21875 39.40625 74.21875 
z
" id="DejaVuSans-79"/>
       <path d="M 48.6875 27.296875 
Q 48.6875 37.203125 44.609375 42.84375 
Q 40.53125 48.484375 33.40625 48.484375 
Q 26.265625 48.484375 22.1875 42.84375 
Q 18.109375 37.203125 18.109375 27.296875 
Q 18.109375 17.390625 22.1875 11.75 
Q 26.265625 6.109375 33.40625 6.109375 
Q 40.53125 6.109375 44.609375 11.75 
Q 48.6875 17.390625 48.6875 27.296875 
z
M 18.109375 46.390625 
Q 20.953125 51.265625 25.265625 53.625 
Q 29.59375 56 35.59375 56 
Q 45.5625 56 51.78125 48.09375 
Q 58.015625 40.1875 58.015625 27.296875 
Q 58.015625 14.40625 51.78125 6.484375 
Q 45.5625 -1.421875 35.59375 -1.421875 
Q 29.59375 -1.421875 25.265625 0.953125 
Q 20.953125 3.328125 18.109375 8.203125 
L 18.109375 0 
L 9.078125 0 
L 9.078125 75.984375 
L 18.109375 75.984375 
z
" id="DejaVuSans-98"/>
       <path d="M 9.421875 54.6875 
L 18.40625 54.6875 
L 18.40625 -0.984375 
Q 18.40625 -11.421875 14.421875 -16.109375 
Q 10.453125 -20.796875 1.609375 -20.796875 
L -1.8125 -20.796875 
L -1.8125 -13.1875 
L 0.59375 -13.1875 
Q 5.71875 -13.1875 7.5625 -10.8125 
Q 9.421875 -8.453125 9.421875 -0.984375 
z
M 9.421875 75.984375 
L 18.40625 75.984375 
L 18.40625 64.59375 
L 9.421875 64.59375 
z
" id="DejaVuSans-106"/>
       <path d="M 30.609375 48.390625 
Q 23.390625 48.390625 19.1875 42.75 
Q 14.984375 37.109375 14.984375 27.296875 
Q 14.984375 17.484375 19.15625 11.84375 
Q 23.34375 6.203125 30.609375 6.203125 
Q 37.796875 6.203125 41.984375 11.859375 
Q 46.1875 17.53125 46.1875 27.296875 
Q 46.1875 37.015625 41.984375 42.703125 
Q 37.796875 48.390625 30.609375 48.390625 
z
M 30.609375 56 
Q 42.328125 56 49.015625 48.375 
Q 55.71875 40.765625 55.71875 27.296875 
Q 55.71875 13.875 49.015625 6.21875 
Q 42.328125 -1.421875 30.609375 -1.421875 
Q 18.84375 -1.421875 12.171875 6.21875 
Q 5.515625 13.875 5.515625 27.296875 
Q 5.515625 40.765625 12.171875 48.375 
Q 18.84375 56 30.609375 56 
z
" id="DejaVuSans-111"/>
       <path d="M 41.109375 46.296875 
Q 39.59375 47.171875 37.8125 47.578125 
Q 36.03125 48 33.890625 48 
Q 26.265625 48 22.1875 43.046875 
Q 18.109375 38.09375 18.109375 28.8125 
L 18.109375 0 
L 9.078125 0 
L 9.078125 54.6875 
L 18.109375 54.6875 
L 18.109375 46.1875 
Q 20.953125 51.171875 25.484375 53.578125 
Q 30.03125 56 36.53125 56 
Q 37.453125 56 38.578125 55.875 
Q 39.703125 55.765625 41.0625 55.515625 
z
" id="DejaVuSans-114"/>
       <path d="M 54.890625 33.015625 
L 54.890625 0 
L 45.90625 0 
L 45.90625 32.71875 
Q 45.90625 40.484375 42.875 44.328125 
Q 39.84375 48.1875 33.796875 48.1875 
Q 26.515625 48.1875 22.3125 43.546875 
Q 18.109375 38.921875 18.109375 30.90625 
L 18.109375 0 
L 9.078125 0 
L 9.078125 54.6875 
L 18.109375 54.6875 
L 18.109375 46.1875 
Q 21.34375 51.125 25.703125 53.5625 
Q 30.078125 56 35.796875 56 
Q 45.21875 56 50.046875 50.171875 
Q 54.890625 44.34375 54.890625 33.015625 
z
" id="DejaVuSans-110"/>
      </defs>
      <use xlink:href="#DejaVuSans-79"/>
      <use x="78.710938" xlink:href="#DejaVuSans-98"/>
      <use x="142.1875" xlink:href="#DejaVuSans-106"/>
      <use x="169.970703" xlink:href="#DejaVuSans-45"/>
      <use x="206.054688" xlink:href="#DejaVuSans-112"/>
      <use x="269.53125" xlink:href="#DejaVuSans-111"/>
      <use x="330.712891" xlink:href="#DejaVuSans-115"/>
      <use x="382.8125" xlink:href="#DejaVuSans-101"/>
      <use x="444.335938" xlink:href="#DejaVuSans-45"/>
      <use x="480.419922" xlink:href="#DejaVuSans-101"/>
      <use x="541.943359" xlink:href="#DejaVuSans-114"/>
      <use x="581.306641" xlink:href="#DejaVuSans-114"/>
      <use x="620.169922" xlink:href="#DejaVuSans-111"/>
      <use x="681.351562" xlink:href="#DejaVuSans-114"/>
      <use x="716.089844" xlink:href="#DejaVuSans-45"/>
      <use x="752.173828" xlink:href="#DejaVuSans-110"/>
      <use x="815.552734" xlink:href="#DejaVuSans-111"/>
      <use x="876.734375" xlink:href="#DejaVuSans-114"/>
      <use x="916.097656" xlink:href="#DejaVuSans-109"/>
     </g>
    </g>
   </g>
   <g id="line2d_12">
    <path clip-path="url(#p83747c1593)" d="M 73.832727 295.33378 
L 73.865193 295.488 
L 74.02752 285.448563 
L 74.287244 270.058585 
L 74.546967 293.966897 
L 74.611898 291.897462 
L 74.676829 284.977775 
L 74.74176 289.846209 
L 74.936553 292.72323 
L 75.001484 292.609833 
L 75.163811 290.942494 
L 77.793513 256.78828 
L 79.611578 238.579439 
L 80.747869 230.89782 
L 82.143884 224.79724 
L 82.5984 223.936045 
L 83.085382 222.886889 
L 83.604829 221.86708 
L 84.806051 220.835828 
L 85.293033 221.126076 
L 85.585222 221.116847 
L 85.747549 221.112862 
L 86.007273 221.541309 
L 86.656582 222.656389 
L 87.338356 222.797651 
L 88.247389 223.693943 
L 88.636975 223.636437 
L 88.961629 223.673324 
L 89.188887 224.006127 
L 89.643404 224.810261 
L 89.935593 224.813849 
L 90.422575 224.746561 
L 90.909556 224.965034 
L 91.753658 225.061742 
L 92.922415 224.414444 
L 93.798982 224.208492 
L 94.38336 224.186218 
L 94.643084 223.95761 
L 95.779375 222.623741 
L 96.591011 222.02239 
L 98.344145 220.180307 
L 99.058385 220.153089 
L 100.779055 219.588914 
L 101.558225 220.020656 
L 102.110138 220.373532 
L 102.369862 220.300902 
L 102.662051 220.331775 
L 102.921775 220.334624 
L 103.863273 220.292398 
L 104.38272 220.264378 
L 105.226822 220.601274 
L 106.005993 220.50231 
L 107.012422 220.810701 
L 107.304611 220.974461 
L 107.921455 221.129986 
L 108.181178 221.293015 
L 108.570764 221.301724 
L 108.927884 221.356734 
L 109.220073 221.103043 
L 109.642124 220.617472 
L 110.09664 220.569097 
L 110.486225 220.612946 
L 111.103069 220.286444 
L 111.492655 219.61406 
L 112.693876 217.270119 
L 112.823738 217.312365 
L 113.343185 218.090551 
L 113.408116 218.021354 
L 113.570444 217.810714 
L 114.317149 216.431186 
L 114.609338 216.441862 
L 114.998924 216.300138 
L 115.550836 215.806105 
L 115.940422 215.952975 
L 116.265076 215.655913 
L 117.336436 213.695262 
L 118.440262 213.006409 
L 119.544087 211.109282 
L 120.258327 211.191911 
L 120.647913 210.771762 
L 121.102429 210.281131 
L 121.686807 210.037269 
L 122.563375 208.707353 
L 123.991855 206.981708 
L 124.089251 206.929382 
L 124.576233 206.392587 
L 125.063215 206.1436 
L 126.102109 206.944509 
L 126.231971 206.915945 
L 127.498124 206.104272 
L 128.050036 206.637058 
L 128.277295 206.602465 
L 128.537018 206.329652 
L 128.764276 206.177892 
L 129.056465 206.185449 
L 129.543447 206.340095 
L 129.965498 206.337181 
L 130.614807 206.411885 
L 130.939462 206.214126 
L 131.329047 205.831527 
L 131.361513 205.8619 
L 131.653702 206.237806 
L 132.108218 206.879431 
L 132.335476 206.66168 
L 133.276975 205.593917 
L 133.439302 205.672639 
L 133.828887 206.633346 
L 134.153542 207.116552 
L 134.283404 207.076178 
L 134.73792 206.585364 
L 135.582022 206.27385 
L 135.874211 206.167212 
L 137.107898 206.670779 
L 137.692276 207.123945 
L 138.049396 207.185896 
L 138.374051 206.798569 
L 138.601309 206.644119 
L 138.893498 206.539238 
L 139.185687 206.684731 
L 139.542807 206.75043 
L 139.770065 206.772752 
L 140.257047 206.760489 
L 140.614167 206.976342 
L 140.938822 207.205311 
L 141.360873 207.499072 
L 141.588131 207.502426 
L 141.912785 207.259698 
L 142.140044 207.130549 
L 142.562095 207.274082 
L 143.146473 207.360323 
L 144.185367 208.345324 
L 144.867142 208.167678 
L 145.386589 208.278039 
L 145.646313 208.755765 
L 146.16576 209.837793 
L 146.457949 210.007459 
L 146.587811 210.016708 
L 147.399447 210.601566 
L 147.983825 210.630692 
L 148.925324 211.92134 
L 149.152582 211.959413 
L 149.282444 211.994644 
L 149.509702 212.365486 
L 150.061615 213.147556 
L 150.775855 213.198242 
L 150.938182 213.181149 
L 151.295302 213.715334 
L 151.684887 214.445873 
L 151.912145 214.506848 
L 152.334196 214.385749 
L 152.691316 214.213789 
L 153.015971 214.706584 
L 154.054865 216.468156 
L 154.801571 217.263139 
L 155.353484 217.202937 
L 156.230051 217.948339 
L 156.489775 218.238694 
L 157.041687 218.902916 
L 157.23648 218.830186 
L 157.463738 218.777951 
L 157.723462 219.042363 
L 158.080582 219.916655 
L 158.372771 220.541623 
L 158.567564 220.626443 
L 158.762356 220.728676 
L 159.184407 221.237642 
L 159.3792 221.439483 
L 160.028509 221.930368 
L 160.483025 222.638192 
L 161.392058 224.030245 
L 161.651782 224.041664 
L 161.781644 224.102457 
L 162.203695 224.618454 
L 162.755607 225.253526 
L 163.015331 225.25982 
L 163.242589 225.641075 
L 163.956829 227.415821 
L 164.281484 227.599314 
L 164.573673 227.584301 
L 164.865862 227.894706 
L 165.255447 228.415233 
L 166.326807 229.343944 
L 167.008582 229.865049 
L 167.268305 230.683173 
L 167.690356 232.009973 
L 167.95008 232.23764 
L 168.3072 232.227496 
L 168.501993 232.36498 
L 169.313629 233.648572 
L 169.670749 234.10239 
L 170.287593 235.134519 
L 170.871971 235.784169 
L 171.131695 235.962668 
L 171.716073 236.156566 
L 172.040727 236.496212 
L 173.274415 237.684615 
L 173.728931 238.093717 
L 173.923724 238.192931 
L 174.767825 238.747549 
L 175.027549 238.919303 
L 175.482065 239.385939 
L 175.839185 239.606421 
L 176.715753 240.571723 
L 176.87808 240.458187 
L 177.332596 239.954041 
L 177.916975 240.088752 
L 178.274095 240.591753 
L 178.66368 241.336729 
L 179.053265 242.110449 
L 179.410385 242.302352 
L 179.767505 242.010472 
L 180.514211 241.299991 
L 180.676538 241.303663 
L 180.968727 241.804071 
L 181.488175 242.692403 
L 181.780364 242.751225 
L 183.436102 242.217396 
L 183.923084 243.043461 
L 184.507462 243.972552 
L 184.73472 244.024011 
L 184.961978 243.814016 
L 185.481425 243.144077 
L 185.676218 243.424949 
L 186.065804 244.463805 
L 186.52032 245.722846 
L 186.715113 245.82747 
L 186.909905 245.547113 
L 187.299491 244.708725 
L 187.331956 244.722643 
L 187.526749 244.971978 
L 188.078662 245.992124 
L 188.273455 246.020827 
L 188.66304 245.939194 
L 189.572073 246.166139 
L 190.026589 246.542318 
L 190.546036 247.3561 
L 190.773295 247.599919 
L 190.903156 247.527689 
L 191.584931 247.206769 
L 191.87712 247.159365 
L 192.656291 248.163004 
L 192.721222 248.09929 
L 193.143273 247.464099 
L 193.370531 247.208179 
L 194.247098 248.06394 
L 194.669149 248.142191 
L 195.026269 247.607812 
L 195.253527 247.320645 
L 195.740509 247.923265 
L 195.870371 248.307785 
L 196.292422 249.510574 
L 196.844335 249.323908 
L 197.266385 248.806333 
L 197.883229 249.865666 
L 198.272815 250.454189 
L 198.597469 250.278227 
L 198.857193 249.915929 
L 199.181847 249.680645 
L 199.474036 249.856918 
L 199.798691 250.347988 
L 200.220742 251.306758 
L 200.350604 251.226111 
L 200.577862 250.660222 
L 200.934982 249.795136 
L 201.097309 249.751882 
L 202.071273 250.839553 
L 202.2336 250.718176 
L 202.395927 250.482315 
L 203.012771 248.877648 
L 203.175098 248.956647 
L 203.369891 249.096774 
L 203.564684 249.287103 
L 204.051665 250.143337 
L 204.116596 250.10482 
L 204.473716 249.689077 
L 204.73344 248.984814 
L 205.09056 248.163356 
L 205.123025 248.183122 
L 205.610007 248.993982 
L 205.8048 249.039132 
L 206.16192 249.014468 
L 206.421644 248.740033 
L 207.103418 247.962363 
L 207.5904 247.74262 
L 207.915055 247.667379 
L 208.337105 247.535001 
L 208.791622 247.055793 
L 209.376 246.390632 
L 209.895447 246.072817 
L 210.414895 245.724943 
L 210.966807 245.137441 
L 211.258996 244.969684 
L 212.103098 245.037268 
L 212.492684 244.716184 
L 213.434182 243.806727 
L 214.115956 243.245242 
L 214.797731 242.642735 
L 215.869091 242.193788 
L 216.713193 241.415337 
L 219.635084 239.842261 
L 220.057135 239.5045 
L 221.615476 238.750056 
L 222.069993 238.43708 
L 223.952989 237.833405 
L 226.387898 236.424813 
L 226.745018 236.363527 
L 227.394327 236.262655 
L 228.368291 236.290622 
L 229.212393 236.18361 
L 229.504582 236.225717 
L 230.024029 236.279081 
L 230.575942 236.09204 
L 231.51744 235.844803 
L 231.907025 235.904924 
L 232.426473 235.875276 
L 232.913455 235.892132 
L 233.140713 235.883982 
L 234.01728 235.707423 
L 235.023709 235.595555 
L 235.283433 235.576585 
L 236.030138 235.231503 
L 236.51712 235.209302 
L 236.679447 235.193359 
L 237.004102 235.298696 
L 237.393687 235.225579 
L 238.367651 234.669322 
L 238.919564 235.053944 
L 239.179287 234.974193 
L 239.828596 234.490301 
L 239.990924 234.587094 
L 240.218182 234.589378 
L 240.705164 234.472414 
L 240.964887 234.311058 
L 241.354473 234.271906 
L 241.679127 234.346689 
L 241.841455 234.356792 
L 242.328436 234.472361 
L 242.718022 234.374019 
L 243.432262 234.186625 
L 243.789382 234.679745 
L 243.919244 234.676167 
L 244.211433 234.514137 
L 245.315258 234.557828 
L 245.574982 234.499088 
L 245.834705 234.766864 
L 246.126895 235.039357 
L 246.51648 234.895212 
L 246.743738 234.789615 
L 247.035927 234.537929 
L 247.23072 234.254043 
L 247.263185 234.27673 
L 247.522909 234.46286 
L 248.074822 234.968566 
L 248.431942 234.618416 
L 248.756596 234.512498 
L 248.951389 234.452146 
L 249.438371 234.524651 
L 249.600698 234.737306 
L 250.120145 235.032878 
L 250.4448 234.895325 
L 250.639593 234.811012 
L 250.866851 234.862964 
L 251.061644 235.0989 
L 251.191505 235.133815 
L 251.418764 235.246647 
L 251.775884 235.259265 
L 251.938211 235.276992 
L 252.814778 235.882951 
L 253.042036 235.927532 
L 253.399156 235.937257 
L 253.691345 235.964364 
L 253.918604 235.994519 
L 254.016 236.036991 
L 254.048465 235.984393 
L 254.827636 236.179028 
L 254.925033 236.255125 
L 254.957498 236.224777 
L 255.44448 236.034605 
L 255.8016 236.098604 
L 255.996393 236.183999 
L 256.256116 236.168377 
L 257.457338 236.014668 
L 257.749527 236.061957 
L 258.106647 236.028812 
L 258.268975 236.030778 
L 258.463767 235.96965 
L 258.755956 236.010467 
L 258.820887 235.986382 
L 258.853353 236.024895 
L 258.983215 236.01992 
L 260.541556 235.887757 
L 260.963607 235.827948 
L 261.1584 235.797927 
L 262.197295 235.537502 
L 262.521949 235.421361 
L 262.716742 235.468291 
L 262.911535 235.456409 
L 263.268655 235.375872 
L 263.398516 235.382848 
L 263.788102 235.335539 
L 264.210153 235.231399 
L 264.340015 235.187227 
L 264.826996 234.954786 
L 265.021789 234.85513 
L 268.203404 235.839901 
L 268.722851 235.818325 
L 269.37216 235.724517 
L 269.631884 235.578621 
L 271.060364 235.296845 
L 271.222691 235.284503 
L 271.352553 235.308296 
L 271.579811 235.33601 
L 272.391447 235.330149 
L 272.58624 235.274639 
L 274.047185 235.019488 
L 274.241978 235.016653 
L 274.404305 234.947737 
L 274.534167 234.892012 
L 274.631564 234.875985 
L 274.858822 234.848448 
L 275.08608 234.796768 
L 275.313338 234.635988 
L 275.897716 234.784151 
L 276.15744 234.704631 
L 276.352233 234.689235 
L 276.87168 234.754489 
L 277.066473 234.678413 
L 277.293731 234.654118 
L 277.423593 234.582948 
L 278.754676 234.061103 
L 279.274124 233.717819 
L 279.988364 233.29868 
L 280.150691 233.272535 
L 280.8 232.924123 
L 280.929862 232.884179 
L 281.15712 232.820463 
L 281.286982 232.784433 
L 281.51424 232.836168 
L 281.773964 232.58352 
L 282.131084 232.678204 
L 282.196015 232.709793 
L 282.22848 232.650288 
L 282.520669 232.504584 
L 282.747927 232.516221 
L 283.072582 232.448451 
L 283.202444 232.546848 
L 283.234909 232.520996 
L 283.527098 232.375356 
L 283.786822 232.23097 
L 284.01408 232.099352 
L 284.3712 232.147522 
L 284.955578 231.89026 
L 285.117905 231.925687 
L 285.312698 231.81968 
L 285.507491 231.776219 
L 286.059404 231.824425 
L 286.384058 231.973537 
L 286.773644 231.766279 
L 287.163229 231.684223 
L 287.325556 231.679958 
L 287.877469 231.551573 
L 288.169658 231.511109 
L 288.396916 231.457174 
L 288.591709 231.449404 
L 288.883898 231.361352 
L 289.176087 231.21097 
L 289.305949 231.23445 
L 289.857862 230.960352 
L 290.734429 229.744632 
L 291.059084 229.513299 
L 291.221411 229.50038 
L 291.740858 229.571246 
L 292.390167 229.981873 
L 293.721251 231.482764 
L 294.240698 231.710654 
L 294.338095 231.823483 
L 294.532887 232.080044 
L 294.922473 232.780224 
L 295.539316 234.310506 
L 295.734109 234.595717 
L 295.79904 234.760144 
L 295.928902 235.453548 
L 296.091229 235.780794 
L 296.318487 235.420169 
L 296.350953 235.455431 
L 296.610676 235.386999 
L 296.740538 235.367859 
L 297.000262 235.5516 
L 297.292451 235.813961 
L 297.422313 235.856695 
L 297.454778 235.817804 
L 299.142982 236.306147 
L 299.207913 236.34885 
L 299.240378 236.292591 
L 299.500102 236.239517 
L 300.214342 236.467269 
L 300.409135 236.412349 
L 300.538996 236.355881 
L 301.025978 236.588911 
L 301.058444 236.466497 
L 301.123375 236.552357 
L 301.902545 236.992023 
L 302.649251 237.611742 
L 302.876509 237.680045 
L 303.363491 237.86388 
L 303.493353 237.92585 
L 303.818007 238.219008 
L 304.434851 238.49331 
L 304.791971 238.62259 
L 305.08416 238.685433 
L 305.214022 238.691919 
L 305.603607 238.880054 
L 306.317847 238.891915 
L 307.454138 239.287033 
L 307.843724 239.554221 
L 308.070982 239.582916 
L 308.817687 239.816353 
L 309.077411 239.265194 
L 309.207273 239.277344 
L 309.759185 239.580898 
L 310.018909 239.654304 
L 310.116305 239.52606 
L 310.343564 239.361341 
L 310.603287 239.280485 
L 310.830545 239.021819 
L 311.025338 239.085914 
L 311.609716 238.913365 
L 312.843404 238.44898 
L 313.005731 238.376102 
L 313.427782 238.275558 
L 314.271884 237.920818 
L 314.434211 237.927939 
L 314.758865 238.053488 
L 314.986124 238.321679 
L 315.213382 238.247154 
L 315.505571 238.096419 
L 315.830225 237.978026 
L 316.349673 237.729212 
L 316.706793 237.826447 
L 316.771724 237.880781 
L 316.804189 237.841652 
L 317.096378 237.58946 
L 317.128844 237.64221 
L 317.258705 237.759764 
L 317.291171 237.570537 
L 317.356102 237.661944 
L 317.648291 237.819684 
L 317.810618 237.839362 
L 318.102807 237.720977 
L 318.622255 236.68377 
L 321.316887 230.688001 
L 321.51168 230.688767 
L 321.8688 230.99358 
L 322.160989 231.112983 
L 322.58304 230.994444 
L 323.264815 230.145637 
L 323.459607 229.949719 
L 323.492073 229.972336 
L 324.01152 230.311538 
L 324.498502 230.591411 
L 325.017949 230.612135 
L 325.342604 230.650916 
L 325.602327 230.745833 
L 325.862051 230.239729 
L 326.121775 229.910987 
L 327.2256 227.656889 
L 327.322996 227.592123 
L 327.972305 226.409154 
L 328.102167 226.34829 
L 328.329425 225.804532 
L 328.394356 225.679484 
L 328.556684 225.186904 
L 329.205993 223.761613 
L 329.660509 221.991564 
L 330.472145 217.094017 
L 331.575971 209.282943 
L 331.803229 207.156919 
L 332.127884 202.234762 
L 332.744727 191.649 
L 333.264175 180.805735 
L 333.945949 167.063411 
L 334.595258 156.125971 
L 335.634153 142.177274 
L 336.478255 136.659154 
L 336.770444 135.615367 
L 338.101527 128.403529 
L 338.523578 124.832756 
L 339.36768 118.434044 
L 340.114385 114.115038 
L 341.15328 108.926142 
L 342.841484 101.127449 
L 344.075171 97.699242 
L 344.984204 95.24843 
L 345.828305 92.474917 
L 346.185425 91.749488 
L 346.217891 91.925988 
L 346.282822 91.892406 
L 346.445149 91.608784 
L 346.477615 91.718496 
L 346.51008 91.584054 
L 346.737338 91.057694 
L 346.834735 91.225008 
L 346.8672 91.125427 
L 346.932131 91.306441 
L 346.964596 91.108929 
L 348.6528 84.197448 
L 349.074851 83.543598 
L 349.464436 82.751332 
L 351.185105 78.944589 
L 351.379898 78.554259 
L 352.061673 75.883269 
L 353.068102 71.580975 
L 353.392756 71.041122 
L 353.65248 70.56946 
L 354.139462 69.508308 
L 354.529047 68.099722 
L 355.470545 64.239883 
L 356.379578 61.55434 
L 356.899025 59.922116 
L 357.645731 57.647281 
L 358.100247 56.57279 
L 358.554764 55.907035 
L 359.171607 54.85863 
L 359.398865 54.626112 
L 359.885847 54.18641 
L 360.340364 54.249835 
L 360.43776 54.284775 
L 360.567622 54.134617 
L 360.665018 54.085703 
L 360.859811 53.877238 
L 361.152 53.64299 
L 361.379258 53.637731 
L 361.931171 53.614143 
L 362.158429 53.591826 
L 362.288291 53.715911 
L 362.872669 54.625918 
L 363.814167 56.12671 
L 364.00896 56.275981 
L 364.593338 57.361666 
L 365.762095 61.970412 
L 366.833455 68.931187 
L 367.385367 71.972209 
L 368.197004 75.399738 
L 368.326865 75.409234 
L 368.456727 75.128991 
L 368.619055 74.260856 
L 368.683985 74.433907 
L 368.911244 75.579884 
L 369.852742 80.724459 
L 370.664378 84.937981 
L 371.183825 89.501944 
L 373.131753 109.407029 
L 374.657629 127.512109 
L 376.475695 156.892631 
L 376.735418 159.450875 
L 378.456087 182.25327 
L 378.845673 188.15879 
L 380.663738 207.063205 
L 380.988393 209.760706 
L 381.410444 212.556594 
L 381.637702 212.861703 
L 381.929891 212.973949 
L 382.157149 212.870979 
L 382.416873 213.217385 
L 382.546735 213.269443 
L 382.644131 213.330536 
L 382.676596 213.303076 
L 383.033716 213.282555 
L 383.163578 213.34876 
L 383.29344 213.21145 
L 384.624524 210.099431 
L 385.014109 209.177797 
L 385.955607 208.10156 
L 386.117935 208.224716 
L 386.475055 208.893855 
L 386.604916 208.030495 
L 387.546415 201.487631 
L 388.130793 198.97625 
L 388.780102 197.261032 
L 389.202153 196.631879 
L 389.754065 196.323959 
L 390.013789 196.383969 
L 390.241047 196.376871 
L 390.370909 196.384396 
L 391.377338 197.651441 
L 391.766924 197.930703 
L 392.22144 198.820108 
L 392.805818 200.23749 
L 393.2928 200.949445 
L 393.779782 201.170163 
L 394.429091 201.026504 
L 395.467985 199.791409 
L 396.377018 197.991789 
L 396.928931 196.829629 
L 397.123724 196.669955 
L 398.357411 194.48 
L 398.487273 194.345746 
L 398.487273 194.345746 
" style="fill:none;stroke:#1f77b4;stroke-linecap:square;stroke-width:1.5;"/>
   </g>
   <g id="line2d_13">
    <path clip-path="url(#p83747c1593)" d="M 73.832727 289.559059 
L 73.930124 287.60445 
L 73.995055 288.590664 
L 74.02752 288.771731 
L 74.059985 288.55097 
L 74.092451 287.491135 
L 74.157382 287.901314 
L 74.482036 288.990174 
L 74.579433 288.916706 
L 74.709295 288.224218 
L 74.904087 285.657142 
L 75.81312 270.448131 
L 75.942982 269.919013 
L 76.007913 270.147561 
L 76.300102 273.113565 
L 76.559825 277.580022 
L 76.624756 277.088512 
L 78.507753 269.212944 
L 83.085382 245.45935 
L 83.31264 244.693 
L 84.351535 241.387716 
L 84.513862 241.045288 
L 84.870982 240.393396 
L 85.585222 239.540611 
L 86.104669 238.197298 
L 86.429324 237.221995 
L 86.721513 236.85091 
L 87.24096 236.665737 
L 87.792873 235.633307 
L 87.922735 235.644603 
L 88.507113 234.753652 
L 88.799302 234.314743 
L 89.318749 233.718136 
L 89.38368 233.757214 
L 89.416145 233.702194 
L 89.546007 233.510848 
L 89.903127 232.954171 
L 90.552436 232.215688 
L 90.649833 232.135778 
L 90.81216 231.966866 
L 91.461469 231.805281 
L 92.402967 232.12306 
L 92.727622 232.033153 
L 93.052276 231.927394 
L 93.441862 231.831951 
L 93.604189 231.86561 
L 93.734051 231.836013 
L 93.928844 231.740364 
L 94.123636 231.702021 
L 94.350895 231.49778 
L 94.480756 231.429 
L 94.708015 231.378293 
L 94.805411 231.416574 
L 94.967738 231.491108 
L 95.227462 231.366399 
L 95.389789 231.302294 
L 95.584582 231.146751 
L 95.617047 231.202747 
L 95.779375 231.295768 
L 96.493615 231.120765 
L 96.720873 231.356909 
L 97.110458 231.556284 
L 98.051956 231.382844 
L 98.214284 231.475968 
L 98.376611 231.428893 
L 99.090851 231.558352 
L 99.415505 231.432213 
L 99.675229 231.479667 
L 99.934953 231.308038 
L 100.292073 230.866319 
L 100.421935 230.750313 
L 100.551796 230.640052 
L 100.584262 230.667865 
L 100.681658 230.729646 
L 101.395898 231.096192 
L 101.915345 230.965391 
L 102.012742 231.0708 
L 102.045207 231.050306 
L 102.337396 231.209309 
L 102.629585 231.342329 
L 102.856844 231.278509 
L 102.95424 231.289201 
L 102.986705 231.2336 
L 103.246429 231.013531 
L 103.571084 230.774306 
L 103.765876 230.729163 
L 103.895738 230.746096 
L 104.155462 230.855602 
L 104.350255 230.882986 
L 104.577513 231.031353 
L 104.609978 230.997506 
L 104.804771 230.982804 
L 105.161891 231.077243 
L 105.551476 231.275766 
L 105.8112 231.305904 
L 105.973527 231.330098 
L 106.298182 231.048859 
L 106.850095 230.036097 
L 107.174749 229.807863 
L 107.402007 229.855361 
L 107.726662 230.106025 
L 107.888989 230.13563 
L 108.018851 230.09125 
L 108.181178 230.157815 
L 108.343505 230.110995 
L 108.538298 229.903854 
L 108.960349 229.138276 
L 109.187607 228.891632 
L 109.285004 228.881666 
L 109.609658 229.336064 
L 110.486225 230.81539 
L 110.648553 230.769342 
L 110.81088 230.553099 
L 111.427724 229.423014 
L 111.784844 229.723914 
L 112.59648 231.136105 
L 112.758807 231.052142 
L 113.115927 230.360031 
L 113.602909 229.070812 
L 113.765236 229.012552 
L 114.187287 229.902587 
L 114.609338 230.924544 
L 114.771665 230.949606 
L 114.966458 230.869882 
L 115.193716 230.741952 
L 115.323578 230.531434 
L 116.037818 228.972869 
L 116.102749 229.007511 
L 116.297542 229.206173 
L 116.784524 230.23989 
L 117.076713 230.784732 
L 117.368902 230.747787 
L 118.083142 229.945969 
L 118.245469 229.986443 
L 118.505193 230.166572 
L 118.862313 230.547693 
L 119.251898 230.860763 
L 119.576553 230.722803 
L 119.836276 229.944511 
L 120.258327 228.811223 
L 120.485585 228.7067 
L 120.81024 228.893624 
L 121.297222 229.061531 
L 121.556945 228.940981 
L 121.946531 228.342602 
L 122.368582 227.785915 
L 122.660771 227.723627 
L 123.439942 227.942918 
L 123.991855 227.814171 
L 124.284044 227.853636 
L 124.803491 227.672876 
L 125.225542 227.545574 
L 125.777455 226.929023 
L 126.102109 226.68517 
L 126.556625 226.884194 
L 127.205935 227.573128 
L 127.2384 227.544193 
L 127.465658 227.263685 
L 128.342225 225.80651 
L 128.731811 225.682507 
L 129.056465 225.648605 
L 129.316189 225.52861 
L 131.329047 224.548222 
L 132.562735 223.772938 
L 133.731491 223.282737 
L 134.121076 222.910617 
L 134.608058 222.329436 
L 134.835316 222.327567 
L 135.127505 222.290369 
L 136.1664 221.945956 
L 136.653382 221.217107 
L 137.172829 220.530166 
L 137.432553 220.45307 
L 138.471447 220.313954 
L 138.925964 219.966709 
L 139.348015 219.711065 
L 140.906356 219.174875 
L 142.919215 218.401421 
L 143.341265 218.131664 
L 143.828247 218.122766 
L 144.250298 218.223589 
L 144.574953 218.001139 
L 145.061935 217.622789 
L 145.80864 217.569307 
L 146.393018 217.70161 
L 147.269585 218.120752 
L 148.113687 217.761619 
L 148.503273 217.538243 
L 149.120116 217.035727 
L 149.412305 217.046448 
L 149.996684 217.131145 
L 150.905716 216.878623 
L 151.327767 216.985989 
L 151.977076 217.244386 
L 152.983505 217.17389 
L 153.600349 217.266342 
L 154.541847 217.602881 
L 155.158691 217.919258 
L 155.418415 217.998904 
L 156.424844 217.831724 
L 156.717033 217.90373 
L 157.788393 218.86844 
L 159.996044 219.431934 
L 160.742749 219.34892 
L 161.781644 219.820601 
L 162.398487 219.912339 
L 163.047796 219.899145 
L 163.567244 219.846073 
L 164.995724 219.919348 
L 165.677498 220.178594 
L 166.326807 220.089593 
L 167.105978 220.41663 
L 167.463098 220.680584 
L 168.209804 220.749815 
L 168.501993 220.972575 
L 169.118836 221.47377 
L 169.443491 221.590227 
L 169.898007 221.827653 
L 170.677178 221.803734 
L 171.651142 221.520483 
L 171.943331 221.60258 
L 172.267985 221.878621 
L 172.884829 222.561825 
L 175.189876 223.195277 
L 175.80672 223.595084 
L 176.845615 223.630388 
L 177.494924 223.881552 
L 177.884509 223.934651 
L 178.30656 224.380952 
L 178.631215 224.656974 
L 179.475316 224.856463 
L 180.286953 225.732989 
L 180.838865 225.821673 
L 181.423244 226.423604 
L 182.105018 227.118855 
L 183.241309 227.686388 
L 183.858153 228.067805 
L 184.280204 228.127121 
L 185.059375 228.79747 
L 185.546356 229.056641 
L 185.968407 229.314154 
L 187.364422 229.856149 
L 188.565644 230.799739 
L 189.539607 230.692201 
L 190.156451 230.932672 
L 190.610967 231.024171 
L 191.682327 230.937906 
L 192.039447 230.904827 
L 192.623825 231.533513 
L 193.110807 232.022094 
L 193.402996 232.076404 
L 193.695185 231.897112 
L 194.084771 231.570185 
L 194.279564 231.613053 
L 194.799011 231.959826 
L 195.123665 232.174373 
L 195.350924 232.095223 
L 196.097629 231.656622 
L 196.682007 231.52688 
L 196.909265 231.521042 
L 197.396247 231.779375 
L 197.720902 231.828102 
L 198.110487 231.764748 
L 198.759796 231.624485 
L 199.149382 231.611666 
L 199.798691 231.836423 
L 200.480465 231.829073 
L 200.934982 232.00735 
L 201.324567 232.205283 
L 202.006342 232.191842 
L 202.623185 232.107237 
L 203.337425 232.525639 
L 203.889338 232.627748 
L 204.571113 232.847099 
L 205.285353 233.223943 
L 206.389178 233.767512 
L 206.713833 233.813796 
L 207.135884 233.854552 
L 207.687796 233.793174 
L 208.207244 233.841846 
L 208.856553 234.034253 
L 209.376 233.843951 
L 211.129135 234.185268 
L 211.908305 234.3064 
L 212.492684 234.386762 
L 212.719942 234.438767 
L 213.044596 234.67293 
L 213.466647 234.967174 
L 214.115956 235.151036 
L 214.505542 235.515788 
L 214.667869 235.520774 
L 215.122385 235.412661 
L 215.349644 235.706803 
L 215.674298 236.371436 
L 216.063884 236.957255 
L 216.388538 237.148868 
L 216.810589 237.218026 
L 217.135244 237.785567 
L 217.492364 238.167632 
L 217.817018 238.234914 
L 218.271535 238.283401 
L 218.628655 238.2745 
L 218.790982 238.369313 
L 219.797411 239.561546 
L 220.251927 239.643416 
L 220.706444 239.869814 
L 221.355753 240.013548 
L 221.972596 240.57915 
L 222.329716 240.431467 
L 222.556975 240.333354 
L 222.881629 240.318102 
L 223.6608 240.633633 
L 224.082851 240.892144 
L 224.537367 240.842319 
L 225.121745 240.739855 
L 227.264465 241.01905 
L 227.881309 240.819421 
L 228.563084 240.844476 
L 228.887738 240.858711 
L 229.666909 241.039729 
L 229.991564 241.161426 
L 231.16032 241.171033 
L 231.907025 241.017144 
L 232.783593 241.269581 
L 233.173178 241.144233 
L 233.595229 240.69798 
L 233.790022 240.849902 
L 234.601658 242.092877 
L 234.763985 242.018745 
L 235.023709 241.582963 
L 235.315898 241.124204 
L 235.640553 241.115182 
L 235.965207 241.41979 
L 236.322327 241.682509 
L 236.582051 241.65351 
L 237.198895 241.372236 
L 237.815738 241.140606 
L 238.172858 241.140015 
L 238.822167 241.268228 
L 239.211753 241.53844 
L 239.503942 241.6917 
L 240.055855 241.660678 
L 240.315578 241.664972 
L 241.029818 241.974925 
L 241.451869 242.312825 
L 241.808989 242.398732 
L 242.94528 242.595129 
L 243.821847 243.087961 
L 245.80224 242.946463 
L 246.224291 243.045503 
L 246.808669 242.967798 
L 247.068393 242.94142 
L 247.360582 243.162863 
L 248.204684 243.82563 
L 248.983855 243.812362 
L 249.957818 244.691556 
L 250.217542 244.451166 
L 250.607127 244.237458 
L 250.899316 244.627063 
L 251.581091 245.697761 
L 251.87328 245.764555 
L 252.327796 245.733626 
L 252.977105 245.782223 
L 253.496553 245.757969 
L 254.178327 245.433056 
L 255.476945 244.376074 
L 255.704204 244.329281 
L 257.23008 244.703901 
L 257.619665 244.504638 
L 258.204044 244.172958 
L 259.145542 244.03902 
L 259.470196 244.026607 
L 259.827316 244.016641 
L 260.346764 244.07098 
L 260.541556 244.072426 
L 261.645382 244.200771 
L 261.970036 244.25311 
L 262.424553 244.139841 
L 263.106327 243.946643 
L 263.398516 243.941296 
L 263.950429 244.098769 
L 264.599738 243.942734 
L 265.08672 243.736306 
L 265.833425 243.773598 
L 266.645062 244.011362 
L 267.521629 244.118144 
L 268.592989 244.529114 
L 268.950109 244.547615 
L 269.794211 245.120808 
L 270.638313 245.259501 
L 271.027898 245.360608 
L 272.651171 245.185216 
L 273.268015 245.062376 
L 274.144582 245.056573 
L 275.280873 244.529163 
L 275.832785 244.545449 
L 276.222371 244.579223 
L 277.293731 244.269967 
L 278.65728 243.424069 
L 279.209193 243.145951 
L 279.468916 243.072972 
L 279.761105 242.925599 
L 280.150691 242.795773 
L 280.313018 242.808162 
L 280.572742 242.77067 
L 280.832465 242.679277 
L 281.189585 242.551279 
L 281.546705 242.509839 
L 282.5856 242.104977 
L 283.105047 241.963432 
L 283.819287 241.822158 
L 284.793251 241.473968 
L 285.117905 241.143613 
L 285.539956 240.745761 
L 285.929542 240.571807 
L 286.806109 240.075647 
L 287.22816 239.995353 
L 287.909935 239.913251 
L 288.234589 239.930187 
L 288.624175 239.850013 
L 289.630604 239.591328 
L 291.773324 239.273142 
L 292.877149 239.394339 
L 296.188625 240.055651 
L 297.097658 240.315254 
L 300.409135 241.140089 
L 302.389527 241.222722 
L 303.363491 241.241854 
L 304.110196 241.294369 
L 304.856902 241.192207 
L 305.473745 241.115634 
L 305.960727 241.191463 
L 306.967156 241.191224 
L 307.876189 241.141832 
L 308.687825 241.200991 
L 309.272204 241.090779 
L 310.635753 241.098381 
L 311.836975 240.982363 
L 312.194095 240.915898 
L 313.590109 240.864529 
L 314.044625 240.963257 
L 314.596538 240.949669 
L 320.375389 242.045042 
L 320.894836 242.552908 
L 321.284422 242.622656 
L 321.674007 242.607497 
L 321.998662 242.720364 
L 324.36864 244.419299 
L 325.277673 245.63736 
L 325.602327 246.743735 
L 325.829585 247.764309 
L 326.024378 247.896119 
L 326.056844 247.860625 
L 326.349033 244.485409 
L 326.608756 241.548832 
L 327.063273 237.865855 
L 327.2256 237.574074 
L 327.258065 237.607351 
L 327.712582 238.382806 
L 328.102167 238.919514 
L 328.29696 239.096499 
L 328.816407 239.454228 
L 329.141062 239.735991 
L 329.757905 239.839697 
L 330.115025 240.025497 
L 330.212422 239.925974 
L 330.602007 239.176976 
L 330.829265 239.118054 
L 330.861731 239.129397 
L 330.894196 238.832096 
L 330.959127 238.93379 
L 331.088989 238.93961 
L 331.381178 238.64959 
L 331.51104 238.462218 
L 331.738298 238.562572 
L 332.160349 238.905688 
L 332.485004 238.890097 
L 332.679796 238.222764 
L 332.712262 238.236021 
L 332.907055 238.060896 
L 333.199244 237.165274 
L 333.621295 235.642601 
L 333.751156 235.466705 
L 333.783622 235.512779 
L 333.881018 235.471068 
L 333.913484 235.438947 
L 333.978415 235.507207 
L 334.140742 235.593364 
L 334.238138 235.757181 
L 334.400465 236.043947 
L 334.530327 236.011873 
L 334.72512 236.063761 
L 334.790051 236.026999 
L 334.822516 236.079427 
L 335.179636 236.394795 
L 335.341964 236.399212 
L 335.764015 235.837396 
L 335.79648 235.883745 
L 335.991273 236.025981 
L 336.056204 235.914127 
L 336.543185 235.626696 
L 336.737978 235.448366 
L 337.127564 235.079039 
L 337.322356 234.438847 
L 337.354822 234.450071 
L 337.776873 234.580163 
L 337.874269 234.315816 
L 338.523578 230.952323 
L 338.718371 230.367267 
L 338.978095 229.526252 
L 339.205353 229.566353 
L 339.562473 230.167013 
L 339.692335 230.071831 
L 339.984524 229.827874 
L 340.016989 229.865898 
L 340.114385 230.046446 
L 340.146851 229.9545 
L 340.568902 229.476386 
L 340.861091 229.520132 
L 341.023418 229.827804 
L 341.899985 232.149032 
L 342.062313 232.41657 
L 342.614225 233.535203 
L 342.809018 233.531411 
L 343.003811 233.4224 
L 343.360931 233.273292 
L 343.458327 233.510922 
L 343.912844 235.347671 
L 345.308858 238.83845 
L 345.601047 239.342551 
L 345.893236 240.404038 
L 346.380218 242.547295 
L 346.704873 243.173222 
L 347.386647 245.220763 
L 347.58144 245.579605 
L 347.613905 245.553973 
L 347.808698 245.641117 
L 348.035956 246.461638 
L 348.977455 249.852007 
L 349.172247 250.114131 
L 349.399505 250.375472 
L 349.854022 250.950576 
L 350.308538 252.103578 
L 350.568262 252.495548 
L 351.055244 253.085764 
L 351.996742 255.425379 
L 352.159069 255.639912 
L 352.548655 256.627111 
L 353.29536 258.79226 
L 353.847273 259.514444 
L 355.600407 262.767612 
L 356.834095 265.044654 
L 357.093818 265.481367 
L 357.256145 265.652325 
L 357.743127 266.504667 
L 358.002851 266.650153 
L 358.262575 267.19741 
L 358.619695 268.120849 
L 359.691055 269.668748 
L 360.015709 270.300338 
L 360.567622 271.373363 
L 360.729949 271.414623 
L 360.859811 271.354668 
L 361.281862 271.225501 
L 361.541585 271.491712 
L 361.86624 271.183553 
L 362.22336 271.254293 
L 362.645411 271.766236 
L 362.905135 272.001131 
L 363.229789 272.305115 
L 364.041425 271.333428 
L 364.36608 270.632777 
L 364.755665 270.245993 
L 365.047855 270.233907 
L 365.340044 270.121239 
L 365.697164 269.518258 
L 366.703593 266.01822 
L 366.995782 265.528624 
L 367.060713 265.627241 
L 367.255505 265.754486 
L 367.482764 265.409824 
L 367.710022 264.424494 
L 368.586589 258.250409 
L 368.683985 257.63592 
L 369.333295 253.64909 
L 370.469585 247.582573 
L 370.534516 247.43775 
L 370.761775 246.710449 
L 370.891636 246.433889 
L 371.183825 245.214609 
L 371.346153 244.358222 
L 371.573411 243.489367 
L 371.8656 243.671258 
L 372.190255 244.61326 
L 372.320116 244.947781 
L 372.352582 244.91674 
L 372.709702 244.24812 
L 372.839564 244.374366 
L 372.93696 244.552504 
L 372.969425 244.449398 
L 373.196684 244.030549 
L 373.29408 243.976869 
L 373.748596 243.021797 
L 374.138182 241.173236 
L 374.170647 241.400534 
L 374.268044 241.316644 
L 374.300509 241.377912 
L 374.495302 241.544329 
L 374.982284 242.5716 
L 375.404335 243.390565 
L 375.761455 244.66473 
L 376.215971 245.03155 
L 376.410764 244.989589 
L 376.540625 244.99861 
L 376.832815 244.737077 
L 376.86528 244.766746 
L 377.417193 245.199401 
L 377.547055 245.188988 
L 377.741847 244.91676 
L 378.163898 243.9136 
L 378.391156 242.817181 
L 379.105396 241.328578 
L 379.397585 241.453681 
L 379.624844 241.417375 
L 379.787171 241.483014 
L 380.598807 241.083556 
L 380.988393 241.235533 
L 381.020858 241.236861 
L 381.183185 242.475094 
L 381.410444 242.83808 
L 381.637702 242.823778 
L 381.86496 242.744464 
L 382.092218 242.68768 
L 382.5792 242.569298 
L 382.741527 242.552474 
L 383.001251 242.49613 
L 383.325905 242.422941 
L 383.585629 242.257222 
L 383.780422 242.390028 
L 383.910284 242.486135 
L 384.072611 242.730708 
L 384.105076 242.714965 
L 384.234938 242.542565 
L 385.07904 241.229282 
L 385.890676 240.103123 
L 385.923142 240.04426 
L 386.182865 238.294178 
L 386.442589 238.108729 
L 386.637382 239.24155 
L 386.767244 239.227105 
L 386.962036 238.96525 
L 389.429411 235.473415 
L 389.656669 233.775694 
L 389.916393 233.143893 
L 390.07872 233.214335 
L 390.565702 232.875122 
L 390.825425 232.6058 
L 391.799389 231.321832 
L 391.929251 231.180873 
L 392.286371 230.539953 
L 393.909644 228.549508 
L 394.039505 228.48318 
L 395.43552 227.294964 
L 395.662778 226.915664 
L 395.987433 226.418506 
L 396.344553 225.683537 
L 396.377018 225.714936 
L 396.50688 225.732416 
L 396.766604 225.345033 
L 396.928931 225.163397 
L 398.162618 223.729345 
L 398.487273 223.227666 
L 398.487273 223.227666 
" style="fill:none;stroke:#ff7f0e;stroke-linecap:square;stroke-width:1.5;"/>
   </g>
   <g id="line2d_14">
    <path clip-path="url(#p83747c1593)" d="M 73.832727 295.33378 
L 73.930124 290.856073 
L 74.092451 286.198352 
L 74.222313 288.332439 
L 74.319709 293.143767 
L 74.38464 292.57279 
L 75.423535 275.963682 
L 76.429964 262.925036 
L 76.819549 259.586935 
L 77.825978 253.51055 
L 78.345425 251.768387 
L 78.994735 250.404905 
L 79.514182 249.759077 
L 79.968698 249.524024 
L 80.390749 249.548635 
L 80.845265 249.809123 
L 81.88416 250.721321 
L 82.923055 251.909794 
L 83.734691 253.016959 
L 84.578793 254.505735 
L 85.487825 256.374904 
L 87.046167 259.866004 
L 88.052596 263.173493 
L 88.831767 264.393582 
L 89.513542 265.430055 
L 89.7408 265.649861 
L 89.838196 265.715679 
L 90.227782 266.479958 
L 90.487505 266.609161 
L 90.617367 266.587834 
L 90.714764 266.828798 
L 90.81216 267.084368 
L 90.844625 265.515473 
L 90.909556 266.210901 
L 91.071884 266.390614 
L 91.266676 266.392695 
L 91.331607 266.399489 
L 91.364073 266.444991 
L 91.818589 266.938834 
L 92.013382 267.156576 
L 92.045847 266.723427 
L 92.110778 267.144522 
L 92.467898 267.629828 
L 92.857484 267.847145 
L 92.987345 267.791674 
L 93.084742 263.678231 
L 93.182138 264.778811 
L 93.344465 264.958212 
L 93.376931 264.857962 
L 93.539258 264.751297 
L 93.66912 264.645789 
L 93.734051 262.911633 
L 93.831447 263.771525 
L 94.902807 268.092953 
L 95.227462 268.726814 
L 95.259927 268.538689 
L 95.324858 268.65732 
L 95.617047 269.029875 
L 95.941702 269.14704 
L 96.104029 267.497852 
L 96.266356 269.944745 
L 96.396218 270.322576 
L 96.428684 270.316527 
L 96.818269 270.281787 
L 96.850735 270.148411 
L 96.915665 269.374191 
L 96.980596 269.450859 
L 97.175389 269.883675 
L 97.889629 270.361395 
L 97.95456 269.426383 
L 98.019491 269.626329 
L 98.084422 269.740036 
L 98.149353 269.203833 
L 98.214284 269.307828 
L 98.441542 269.466095 
L 98.603869 269.680817 
L 98.733731 269.9403 
L 98.766196 269.220493 
L 98.831127 269.577496 
L 99.02592 269.820242 
L 99.155782 269.795989 
L 99.318109 269.600498 
L 99.837556 269.654825 
L 99.967418 269.023025 
L 100.09728 268.954222 
L 100.324538 268.705729 
L 100.389469 268.685722 
L 100.519331 267.142677 
L 100.714124 268.295486 
L 100.941382 268.357218 
L 101.330967 268.206945 
L 101.363433 268.185624 
L 101.460829 266.889541 
L 101.52576 265.153781 
L 101.590691 265.744835 
L 101.947811 264.51804 
L 101.980276 264.516391 
L 102.142604 264.801893 
L 102.791913 264.421636 
L 103.181498 264.017391 
L 103.376291 263.876829 
L 104.0256 263.294297 
L 104.155462 263.507086 
L 104.317789 263.434821 
L 104.512582 263.142943 
L 105.129425 262.193354 
L 105.973527 261.211223 
L 106.557905 260.84751 
L 107.5968 260.58471 
L 107.726662 260.248882 
L 107.921455 260.287733 
L 107.986385 260.305342 
L 108.116247 260.073074 
L 108.375971 260.204788 
L 108.505833 257.195831 
L 108.538298 257.326089 
L 108.570764 257.400437 
L 108.603229 257.213592 
L 108.635695 257.362752 
L 108.700625 257.323111 
L 108.765556 256.81577 
L 108.830487 256.929359 
L 108.992815 257.066258 
L 109.771985 256.391407 
L 109.901847 256.557454 
L 110.064175 256.607564 
L 110.258967 256.549768 
L 111.914705 256.856555 
L 112.531549 257.377603 
L 112.661411 256.619955 
L 112.823738 257.201177 
L 112.921135 257.363958 
L 113.083462 255.967905 
L 113.115927 256.059129 
L 113.148393 254.794618 
L 113.180858 256.602823 
L 113.245789 255.198942 
L 113.278255 255.736466 
L 113.343185 255.491141 
L 113.375651 255.481477 
L 113.537978 256.991769 
L 113.732771 257.554863 
L 113.862633 257.441253 
L 114.479476 256.577711 
L 115.128785 256.591781 
L 115.161251 256.520077 
L 115.291113 258.012745 
L 115.323578 257.673495 
L 115.45344 257.623272 
L 115.518371 257.579056 
L 115.972887 255.404026 
L 116.232611 254.993762 
L 116.5248 254.716475 
L 116.816989 254.171937 
L 116.88192 254.635432 
L 116.914385 254.384693 
L 117.174109 253.566679 
L 117.466298 253.342657 
L 117.59616 253.610267 
L 117.661091 253.536551 
L 117.823418 254.258343 
L 117.855884 254.186992 
L 117.888349 254.316409 
L 117.920815 254.400246 
L 117.985745 254.298125 
L 118.050676 254.110106 
L 118.115607 254.133759 
L 118.570124 254.030413 
L 118.732451 253.728949 
L 119.02464 253.628145 
L 119.219433 254.902478 
L 119.316829 254.419253 
L 119.349295 254.644223 
L 119.511622 254.980007 
L 119.803811 255.132002 
L 120.972567 255.183779 
L 121.102429 255.92429 
L 121.134895 255.676402 
L 121.199825 256.289564 
L 121.232291 257.215335 
L 121.329687 257.100438 
L 121.52448 257.668018 
L 121.686807 257.462573 
L 122.530909 257.246042 
L 122.985425 257.139991 
L 123.634735 256.871318 
L 123.732131 257.750506 
L 123.797062 257.617906 
L 123.829527 257.428075 
L 123.861993 257.770985 
L 123.894458 257.538155 
L 123.926924 257.816736 
L 123.959389 257.309822 
L 124.02432 257.774086 
L 124.219113 258.269247 
L 124.446371 258.41471 
L 124.511302 258.261436 
L 124.576233 258.375057 
L 124.771025 258.62824 
L 125.063215 258.951306 
L 126.102109 260.198451 
L 127.108538 261.106157 
L 127.335796 261.116707 
L 128.30976 261.321492 
L 128.861673 261.276821 
L 131.361513 263.433317 
L 133.276975 264.603558 
L 135.45216 265.675938 
L 136.685847 266.029863 
L 137.919535 266.151672 
L 139.153222 266.048703 
L 140.581702 265.879362 
L 140.614167 267.470533 
L 140.679098 266.463773 
L 140.776495 266.546395 
L 140.938822 267.367978 
L 141.036218 268.35097 
L 141.101149 267.95392 
L 141.263476 266.931754 
L 141.425804 266.802866 
L 141.458269 266.778028 
L 141.490735 266.87356 
L 141.555665 267.000798 
L 141.750458 267.25433 
L 141.945251 267.37268 
L 142.23744 267.990377 
L 142.821818 269.266624 
L 142.854284 269.055864 
L 142.984145 269.988025 
L 143.178938 270.434898 
L 143.243869 270.496213 
L 143.276335 270.362206 
L 143.3088 270.46731 
L 143.373731 270.3991 
L 143.503593 270.439001 
L 143.828247 270.82178 
L 144.087971 271.303018 
L 144.120436 271.25022 
L 144.282764 271.777467 
L 144.315229 271.689408 
L 144.347695 271.917428 
L 144.38016 271.789147 
L 144.542487 272.224857 
L 144.574953 272.1693 
L 144.639884 272.249515 
L 144.932073 272.764589 
L 145.029469 272.891714 
L 145.45152 273.601369 
L 146.035898 274.303359 
L 147.561775 275.844676 
L 147.918895 276.147563 
L 147.95136 276.081808 
L 147.983825 275.909166 
L 148.048756 275.980816 
L 148.146153 276.126902 
L 148.340945 276.390319 
L 149.249978 276.84698 
L 150.645993 277.336228 
L 151.977076 277.563654 
L 152.042007 277.53812 
L 152.301731 277.120256 
L 152.431593 277.164757 
L 152.658851 277.336057 
L 153.080902 277.467961 
L 154.898967 277.611686 
L 155.09376 277.483573 
L 155.321018 277.582764 
L 155.678138 277.642947 
L 156.684567 277.561236 
L 156.87936 277.517603 
L 158.177978 277.282564 
L 161.099869 276.860262 
L 171.358953 275.858841 
L 171.586211 275.859469 
L 173.599069 275.719641 
L 175.254807 275.461062 
L 177.981905 274.733815 
L 181.488175 273.637948 
L 185.838545 272.139085 
L 189.344815 271.145913 
L 192.461498 270.504395 
L 197.363782 269.612178 
L 200.545396 268.820772 
L 204.343855 267.632999 
L 206.583971 266.836444 
L 206.746298 266.593685 
L 207.752727 266.192185 
L 218.336465 262.407782 
L 222.686836 261.114236 
L 227.264465 260.082376 
L 227.491724 260.026287 
L 228.985135 259.536594 
L 232.329076 258.536199 
L 233.562764 257.85234 
L 233.627695 257.861865 
L 233.66016 257.812847 
L 234.114676 257.583533 
L 234.244538 257.574334 
L 234.406865 257.444658 
L 234.536727 257.46184 
L 234.763985 257.3335 
L 234.893847 257.281221 
L 237.393687 256.246838 
L 237.556015 256.221814 
L 237.783273 256.126903 
L 237.9456 256.091561 
L 238.172858 255.984115 
L 238.335185 255.950612 
L 238.562444 255.842663 
L 238.789702 255.751927 
L 239.049425 255.619662 
L 239.179287 255.576729 
L 239.536407 255.42421 
L 240.348044 255.145706 
L 240.542836 255.021414 
L 240.640233 255.00149 
L 240.867491 254.855478 
L 241.094749 254.79268 
L 241.322007 254.605857 
L 241.419404 254.565767 
L 241.646662 254.417456 
L 241.679127 254.451532 
L 241.776524 254.378011 
L 242.101178 254.154995 
L 243.334865 253.683094 
L 243.432262 253.630572 
L 243.886778 253.483701 
L 244.049105 253.447957 
L 244.438691 253.248325 
L 244.698415 253.186723 
L 244.958138 253.118561 
L 245.282793 252.938775 
L 245.477585 252.90459 
L 245.867171 252.792093 
L 246.094429 252.5857 
L 246.191825 252.594956 
L 246.386618 252.393158 
L 246.484015 252.344411 
L 246.678807 252.154201 
L 246.808669 252.092686 
L 247.035927 251.86799 
L 247.165789 251.856049 
L 247.328116 251.691339 
L 247.360582 251.714081 
L 247.490444 251.67544 
L 247.717702 251.427726 
L 247.815098 251.376394 
L 248.042356 251.205355 
L 248.496873 250.936622 
L 248.691665 250.719232 
L 248.821527 250.719711 
L 249.01632 250.500817 
L 249.048785 250.527797 
L 249.503302 250.388472 
L 249.600698 250.359826 
L 249.795491 250.252053 
L 250.964247 249.34103 
L 250.996713 249.382369 
L 251.029178 249.281472 
L 251.061644 249.321244 
L 251.256436 249.147488 
L 251.353833 249.03902 
L 251.386298 249.093434 
L 251.418764 249.241864 
L 251.483695 249.138255 
L 251.646022 248.870442 
L 251.678487 248.87828 
L 251.840815 248.61002 
L 251.87328 248.714146 
L 251.938211 248.642687 
L 252.100538 248.384748 
L 252.165469 248.480731 
L 252.197935 248.444664 
L 252.295331 248.338984 
L 252.327796 248.441425 
L 252.392727 248.378302 
L 252.425193 248.231859 
L 252.490124 248.332358 
L 252.619985 248.39695 
L 252.652451 248.337766 
L 252.684916 248.352327 
L 252.717382 248.203907 
L 252.782313 248.309838 
L 252.814778 248.326918 
L 252.912175 248.205877 
L 252.94464 248.23193 
L 253.009571 248.356532 
L 253.042036 248.341071 
L 253.074502 248.17407 
L 253.139433 248.235559 
L 253.236829 248.28458 
L 253.334225 248.13131 
L 253.431622 248.204334 
L 253.529018 248.077338 
L 253.561484 248.137372 
L 253.65888 248.05339 
L 253.821207 248.200896 
L 253.951069 248.270747 
L 254.113396 248.125103 
L 254.210793 248.221595 
L 254.308189 248.168276 
L 254.405585 248.267894 
L 254.438051 248.190036 
L 254.502982 248.234873 
L 254.535447 248.313402 
L 254.632844 248.269152 
L 255.054895 248.361404 
L 255.963927 248.36283 
L 257.976785 248.159084 
L 259.275404 247.881907 
L 259.794851 247.303511 
L 259.989644 247.217068 
L 260.281833 246.969256 
L 260.411695 246.912311 
L 260.574022 246.803159 
L 262.034967 245.363674 
L 263.528378 242.80959 
L 264.567273 241.86404 
L 264.697135 241.776949 
L 264.956858 241.520058 
L 265.119185 241.444472 
L 265.378909 241.26104 
L 265.768495 240.942526 
L 265.898356 240.885173 
L 266.385338 240.600604 
L 266.5152 240.567396 
L 267.22944 240.207407 
L 267.456698 240.144326 
L 267.911215 239.929688 
L 268.041076 239.903571 
L 268.235869 239.813251 
L 268.365731 239.799283 
L 269.404625 239.442356 
L 269.534487 239.400055 
L 270.703244 239.086344 
L 270.995433 239.058318 
L 272.164189 238.938541 
L 272.326516 238.92365 
L 279.826036 238.29732 
L 282.488204 238.111691 
L 282.94272 238.047625 
L 283.462167 237.990388 
L 284.01408 237.906812 
L 284.565993 237.801497 
L 288.364451 236.882833 
L 289.01376 236.539274 
L 290.604567 235.797135 
L 292.812218 234.903315 
L 304.272524 230.658884 
L 305.44128 230.365921 
L 305.473745 230.408791 
L 305.538676 230.338332 
L 305.733469 230.325635 
L 305.7984 230.347048 
L 305.830865 230.303139 
L 306.058124 230.189695 
L 306.090589 230.22006 
L 306.15552 230.141397 
L 306.350313 229.99921 
L 306.642502 229.941673 
L 306.739898 229.851867 
L 306.772364 229.887745 
L 307.064553 229.751394 
L 308.233309 229.100655 
L 308.947549 228.710732 
L 310.181236 228.228319 
L 312.22656 227.685294 
L 329.530647 223.81695 
L 329.72544 223.704565 
L 329.790371 223.71675 
L 329.822836 223.675923 
L 330.407215 223.505843 
L 331.15392 223.359827 
L 331.218851 223.420279 
L 331.251316 223.367651 
L 331.413644 223.316183 
L 331.543505 223.326193 
L 331.770764 223.310284 
L 331.803229 223.35314 
L 331.86816 223.261005 
L 332.549935 223.108217 
L 332.712262 223.161602 
L 332.93952 223.081831 
L 336.413324 222.265142 
L 336.575651 222.211 
L 337.647011 221.798046 
L 337.776873 221.78393 
L 338.004131 221.635064 
L 338.588509 221.462902 
L 338.783302 221.410471 
L 339.140422 221.240551 
L 340.276713 220.807735 
L 340.43904 220.825388 
L 340.698764 220.67997 
L 340.861091 220.671068 
L 341.705193 220.523161 
L 341.770124 220.607585 
L 341.835055 220.538344 
L 342.029847 220.398055 
L 342.419433 220.330482 
L 342.646691 220.311117 
L 343.003811 220.288869 
L 343.198604 220.213403 
L 343.490793 220.03802 
L 343.555724 220.063388 
L 343.588189 220.020185 
L 343.912844 219.929732 
L 344.140102 219.858507 
L 344.205033 219.883367 
L 344.237498 219.839823 
L 344.529687 219.798227 
L 344.692015 219.693781 
L 344.854342 219.685766 
L 344.984204 219.637745 
L 345.016669 219.667829 
L 345.633513 219.4452 
L 345.730909 219.425466 
L 345.860771 219.381371 
L 346.023098 219.344174 
L 346.639942 219.142086 
L 346.704873 219.158985 
L 346.737338 219.111509 
L 347.646371 218.86713 
L 347.678836 218.90646 
L 347.743767 218.821638 
L 348.230749 218.683522 
L 348.263215 218.745505 
L 348.328145 218.685475 
L 348.458007 218.539276 
L 348.490473 218.562987 
L 348.555404 218.576494 
L 348.587869 218.537668 
L 348.944989 218.351505 
L 349.172247 218.142714 
L 349.302109 218.18973 
L 349.431971 218.113362 
L 349.464436 218.15854 
L 349.886487 217.985944 
L 357.450938 214.886289 
L 357.645731 214.76582 
L 357.775593 214.746251 
L 357.93792 214.611629 
L 358.067782 214.66668 
L 358.165178 214.58768 
L 358.197644 214.626811 
L 358.424902 214.540588 
L 358.619695 214.415245 
L 358.976815 214.23395 
L 359.106676 214.28926 
L 359.269004 214.191125 
L 359.3664 214.157618 
L 359.496262 214.079788 
L 359.561193 214.130473 
L 359.593658 214.069859 
L 359.755985 214.009659 
L 359.820916 213.99675 
L 359.853382 213.949392 
L 359.950778 213.851983 
L 359.983244 213.904537 
L 360.113105 213.9249 
L 360.275433 213.79971 
L 360.340364 213.835853 
L 360.372829 213.778046 
L 360.665018 213.681494 
L 360.827345 213.634156 
L 360.859811 213.674071 
L 360.924742 213.58552 
L 361.671447 213.303641 
L 361.703913 213.372175 
L 361.768844 213.283975 
L 362.58048 213.069181 
L 362.677876 213.007759 
L 362.840204 212.889245 
L 362.9376 212.939463 
L 362.970065 212.906123 
L 364.00896 212.626523 
L 364.106356 212.671419 
L 364.138822 212.627793 
L 364.236218 212.580219 
L 364.268684 212.619001 
L 364.820596 212.571429 
L 365.112785 212.54636 
L 366.671127 212.236881 
L 366.703593 212.19634 
L 366.768524 212.269262 
L 366.86592 212.2668 
L 367.028247 212.150948 
L 367.190575 212.187049 
L 367.352902 212.051269 
L 367.385367 212.078141 
L 367.515229 212.107742 
L 367.742487 211.959949 
L 367.872349 212.039292 
L 368.067142 211.931096 
L 368.197004 212.011152 
L 368.229469 211.963214 
L 368.489193 211.909351 
L 369.203433 211.739628 
L 369.235898 211.705563 
L 369.300829 211.786441 
L 371.346153 211.445469 
L 371.443549 211.509672 
L 371.476015 211.466751 
L 371.930531 211.343205 
L 372.547375 211.259938 
L 372.57984 211.339046 
L 372.644771 211.280239 
L 372.742167 211.220577 
L 372.774633 211.26272 
L 372.904495 211.262894 
L 373.099287 211.205976 
L 373.196684 211.284829 
L 373.229149 211.262157 
L 373.423942 211.21428 
L 373.586269 211.214387 
L 373.716131 211.134828 
L 373.748596 211.161809 
L 373.878458 211.172911 
L 374.040785 211.057254 
L 374.138182 211.148991 
L 374.170647 211.121688 
L 374.72256 211.015069 
L 374.949818 210.94271 
L 375.07968 210.973096 
L 375.112145 211.021055 
L 375.177076 210.972097 
L 375.209542 210.920094 
L 375.274473 210.984015 
L 376.670487 210.840559 
L 376.767884 210.864119 
L 376.800349 210.840144 
L 376.897745 210.770046 
L 376.930211 210.802933 
L 377.092538 210.797546 
L 377.2224 210.730184 
L 377.254865 210.764895 
L 377.384727 210.791276 
L 377.417193 210.746514 
L 377.514589 210.658744 
L 377.547055 210.72593 
L 377.644451 210.736811 
L 377.774313 210.606348 
L 377.806778 210.638954 
L 377.969105 210.621317 
L 378.163898 210.563751 
L 378.423622 210.584709 
L 378.878138 210.534225 
L 378.943069 210.551013 
L 378.975535 210.522463 
L 379.072931 210.412849 
L 379.105396 210.441515 
L 379.267724 210.452834 
L 379.36512 210.398623 
L 379.397585 210.44408 
L 379.494982 210.424523 
L 379.657309 210.308676 
L 379.787171 210.374744 
L 379.981964 210.32469 
L 380.046895 210.365535 
L 380.07936 210.338516 
L 380.209222 210.31471 
L 380.43648 210.323319 
L 384.819316 209.788055 
L 385.014109 209.765516 
L 385.890676 209.763611 
L 385.988073 209.82223 
L 386.020538 209.796696 
L 386.1504 209.739383 
L 386.280262 209.801872 
L 386.377658 209.701195 
L 386.410124 209.723359 
L 386.572451 209.731398 
L 386.734778 209.713512 
L 386.832175 209.766343 
L 386.86464 209.73024 
L 387.091898 209.717368 
L 387.286691 209.678863 
L 388.195724 209.731819 
L 388.29312 209.741259 
L 388.390516 209.644949 
L 388.422982 209.666817 
L 388.585309 209.697007 
L 388.780102 209.65517 
L 388.909964 209.691014 
L 389.137222 209.650011 
L 389.234618 209.671084 
L 389.396945 209.557519 
L 389.689135 209.516114 
L 390.208582 209.497026 
L 391.020218 209.456847 
L 391.085149 209.521546 
L 391.117615 209.480827 
L 391.279942 209.434147 
L 391.409804 209.482218 
L 391.604596 209.388653 
L 391.734458 209.432139 
L 391.929251 209.355761 
L 392.026647 209.392342 
L 392.059113 209.352146 
L 392.481164 209.325729 
L 392.643491 209.344977 
L 392.805818 209.316717 
L 392.903215 209.364025 
L 392.93568 209.327835 
L 393.065542 209.287309 
L 393.162938 209.350889 
L 393.195404 209.302687 
L 393.357731 209.264178 
L 393.487593 209.278457 
L 393.64992 209.204838 
L 393.747316 209.25593 
L 393.779782 209.216484 
L 394.00704 209.205637 
L 394.104436 209.187117 
L 394.266764 209.136295 
L 394.331695 209.190251 
L 394.36416 209.16002 
L 394.494022 209.127646 
L 394.753745 209.16103 
L 395.175796 209.151101 
L 395.890036 209.121158 
L 396.052364 209.133884 
L 396.214691 209.090332 
L 396.344553 209.136406 
L 396.50688 209.081391 
L 396.799069 209.073979 
L 396.961396 209.103394 
L 397.091258 209.051638 
L 397.22112 209.008215 
L 397.448378 209.007316 
L 397.643171 209.025986 
L 397.870429 208.930694 
L 398.000291 208.976789 
L 398.195084 208.915673 
L 398.357411 208.910601 
L 398.422342 208.981649 
L 398.454807 208.952527 
L 398.487273 208.894314 
L 398.487273 208.894314 
" style="fill:none;stroke:#bf00bf;stroke-linecap:square;stroke-width:1.5;"/>
   </g>
   <g id="patch_3">
    <path d="M 57.6 307.584 
L 57.6 41.472 
" style="fill:none;stroke:#000000;stroke-linecap:square;stroke-linejoin:miter;stroke-width:0.8;"/>
   </g>
   <g id="patch_4">
    <path d="M 414.72 307.584 
L 414.72 41.472 
" style="fill:none;stroke:#000000;stroke-linecap:square;stroke-linejoin:miter;stroke-width:0.8;"/>
   </g>
   <g id="patch_5">
    <path d="M 57.6 307.584 
L 414.72 307.584 
" style="fill:none;stroke:#000000;stroke-linecap:square;stroke-linejoin:miter;stroke-width:0.8;"/>
   </g>
   <g id="patch_6">
    <path d="M 57.6 41.472 
L 414.72 41.472 
" style="fill:none;stroke:#000000;stroke-linecap:square;stroke-linejoin:miter;stroke-width:0.8;"/>
   </g>
   <g id="text_14">
    <!-- Plot of Object pose error norm over a single episode  -->
    <g transform="translate(77.670938 8.59725)scale(0.12 -0.12)">
     <defs>
      <path d="M 19.671875 64.796875 
L 19.671875 37.40625 
L 32.078125 37.40625 
Q 38.96875 37.40625 42.71875 40.96875 
Q 46.484375 44.53125 46.484375 51.125 
Q 46.484375 57.671875 42.71875 61.234375 
Q 38.96875 64.796875 32.078125 64.796875 
z
M 9.8125 72.90625 
L 32.078125 72.90625 
Q 44.34375 72.90625 50.609375 67.359375 
Q 56.890625 61.8125 56.890625 51.125 
Q 56.890625 40.328125 50.609375 34.8125 
Q 44.34375 29.296875 32.078125 29.296875 
L 19.671875 29.296875 
L 19.671875 0 
L 9.8125 0 
z
" id="DejaVuSans-80"/>
      <path d="M 9.421875 75.984375 
L 18.40625 75.984375 
L 18.40625 0 
L 9.421875 0 
z
" id="DejaVuSans-108"/>
      <path id="DejaVuSans-32"/>
      <path d="M 37.109375 75.984375 
L 37.109375 68.5 
L 28.515625 68.5 
Q 23.6875 68.5 21.796875 66.546875 
Q 19.921875 64.59375 19.921875 59.515625 
L 19.921875 54.6875 
L 34.71875 54.6875 
L 34.71875 47.703125 
L 19.921875 47.703125 
L 19.921875 0 
L 10.890625 0 
L 10.890625 47.703125 
L 2.296875 47.703125 
L 2.296875 54.6875 
L 10.890625 54.6875 
L 10.890625 58.5 
Q 10.890625 67.625 15.140625 71.796875 
Q 19.390625 75.984375 28.609375 75.984375 
z
" id="DejaVuSans-102"/>
      <path d="M 48.78125 52.59375 
L 48.78125 44.1875 
Q 44.96875 46.296875 41.140625 47.34375 
Q 37.3125 48.390625 33.40625 48.390625 
Q 24.65625 48.390625 19.8125 42.84375 
Q 14.984375 37.3125 14.984375 27.296875 
Q 14.984375 17.28125 19.8125 11.734375 
Q 24.65625 6.203125 33.40625 6.203125 
Q 37.3125 6.203125 41.140625 7.25 
Q 44.96875 8.296875 48.78125 10.40625 
L 48.78125 2.09375 
Q 45.015625 0.34375 40.984375 -0.53125 
Q 36.96875 -1.421875 32.421875 -1.421875 
Q 20.0625 -1.421875 12.78125 6.34375 
Q 5.515625 14.109375 5.515625 27.296875 
Q 5.515625 40.671875 12.859375 48.328125 
Q 20.21875 56 33.015625 56 
Q 37.15625 56 41.109375 55.140625 
Q 45.0625 54.296875 48.78125 52.59375 
z
" id="DejaVuSans-99"/>
      <path d="M 2.984375 54.6875 
L 12.5 54.6875 
L 29.59375 8.796875 
L 46.6875 54.6875 
L 56.203125 54.6875 
L 35.6875 0 
L 23.484375 0 
z
" id="DejaVuSans-118"/>
      <path d="M 34.28125 27.484375 
Q 23.390625 27.484375 19.1875 25 
Q 14.984375 22.515625 14.984375 16.5 
Q 14.984375 11.71875 18.140625 8.90625 
Q 21.296875 6.109375 26.703125 6.109375 
Q 34.1875 6.109375 38.703125 11.40625 
Q 43.21875 16.703125 43.21875 25.484375 
L 43.21875 27.484375 
z
M 52.203125 31.203125 
L 52.203125 0 
L 43.21875 0 
L 43.21875 8.296875 
Q 40.140625 3.328125 35.546875 0.953125 
Q 30.953125 -1.421875 24.3125 -1.421875 
Q 15.921875 -1.421875 10.953125 3.296875 
Q 6 8.015625 6 15.921875 
Q 6 25.140625 12.171875 29.828125 
Q 18.359375 34.515625 30.609375 34.515625 
L 43.21875 34.515625 
L 43.21875 35.40625 
Q 43.21875 41.609375 39.140625 45 
Q 35.0625 48.390625 27.6875 48.390625 
Q 23 48.390625 18.546875 47.265625 
Q 14.109375 46.140625 10.015625 43.890625 
L 10.015625 52.203125 
Q 14.9375 54.109375 19.578125 55.046875 
Q 24.21875 56 28.609375 56 
Q 40.484375 56 46.34375 49.84375 
Q 52.203125 43.703125 52.203125 31.203125 
z
" id="DejaVuSans-97"/>
      <path d="M 45.40625 27.984375 
Q 45.40625 37.75 41.375 43.109375 
Q 37.359375 48.484375 30.078125 48.484375 
Q 22.859375 48.484375 18.828125 43.109375 
Q 14.796875 37.75 14.796875 27.984375 
Q 14.796875 18.265625 18.828125 12.890625 
Q 22.859375 7.515625 30.078125 7.515625 
Q 37.359375 7.515625 41.375 12.890625 
Q 45.40625 18.265625 45.40625 27.984375 
z
M 54.390625 6.78125 
Q 54.390625 -7.171875 48.1875 -13.984375 
Q 42 -20.796875 29.203125 -20.796875 
Q 24.46875 -20.796875 20.265625 -20.09375 
Q 16.0625 -19.390625 12.109375 -17.921875 
L 12.109375 -9.1875 
Q 16.0625 -11.328125 19.921875 -12.34375 
Q 23.78125 -13.375 27.78125 -13.375 
Q 36.625 -13.375 41.015625 -8.765625 
Q 45.40625 -4.15625 45.40625 5.171875 
L 45.40625 9.625 
Q 42.625 4.78125 38.28125 2.390625 
Q 33.9375 0 27.875 0 
Q 17.828125 0 11.671875 7.65625 
Q 5.515625 15.328125 5.515625 27.984375 
Q 5.515625 40.671875 11.671875 48.328125 
Q 17.828125 56 27.875 56 
Q 33.9375 56 38.28125 53.609375 
Q 42.625 51.21875 45.40625 46.390625 
L 45.40625 54.6875 
L 54.390625 54.6875 
z
" id="DejaVuSans-103"/>
      <path d="M 45.40625 46.390625 
L 45.40625 75.984375 
L 54.390625 75.984375 
L 54.390625 0 
L 45.40625 0 
L 45.40625 8.203125 
Q 42.578125 3.328125 38.25 0.953125 
Q 33.9375 -1.421875 27.875 -1.421875 
Q 17.96875 -1.421875 11.734375 6.484375 
Q 5.515625 14.40625 5.515625 27.296875 
Q 5.515625 40.1875 11.734375 48.09375 
Q 17.96875 56 27.875 56 
Q 33.9375 56 38.25 53.625 
Q 42.578125 51.265625 45.40625 46.390625 
z
M 14.796875 27.296875 
Q 14.796875 17.390625 18.875 11.75 
Q 22.953125 6.109375 30.078125 6.109375 
Q 37.203125 6.109375 41.296875 11.75 
Q 45.40625 17.390625 45.40625 27.296875 
Q 45.40625 37.203125 41.296875 42.84375 
Q 37.203125 48.484375 30.078125 48.484375 
Q 22.953125 48.484375 18.875 42.84375 
Q 14.796875 37.203125 14.796875 27.296875 
z
" id="DejaVuSans-100"/>
     </defs>
     <use xlink:href="#DejaVuSans-80"/>
     <use x="60.302734" xlink:href="#DejaVuSans-108"/>
     <use x="88.085938" xlink:href="#DejaVuSans-111"/>
     <use x="149.267578" xlink:href="#DejaVuSans-116"/>
     <use x="188.476562" xlink:href="#DejaVuSans-32"/>
     <use x="220.263672" xlink:href="#DejaVuSans-111"/>
     <use x="281.445312" xlink:href="#DejaVuSans-102"/>
     <use x="316.650391" xlink:href="#DejaVuSans-32"/>
     <use x="348.4375" xlink:href="#DejaVuSans-79"/>
     <use x="427.148438" xlink:href="#DejaVuSans-98"/>
     <use x="490.625" xlink:href="#DejaVuSans-106"/>
     <use x="518.408203" xlink:href="#DejaVuSans-101"/>
     <use x="579.931641" xlink:href="#DejaVuSans-99"/>
     <use x="634.912109" xlink:href="#DejaVuSans-116"/>
     <use x="674.121094" xlink:href="#DejaVuSans-32"/>
     <use x="705.908203" xlink:href="#DejaVuSans-112"/>
     <use x="769.384766" xlink:href="#DejaVuSans-111"/>
     <use x="830.566406" xlink:href="#DejaVuSans-115"/>
     <use x="882.666016" xlink:href="#DejaVuSans-101"/>
     <use x="944.189453" xlink:href="#DejaVuSans-32"/>
     <use x="975.976562" xlink:href="#DejaVuSans-101"/>
     <use x="1037.5" xlink:href="#DejaVuSans-114"/>
     <use x="1076.863281" xlink:href="#DejaVuSans-114"/>
     <use x="1115.726562" xlink:href="#DejaVuSans-111"/>
     <use x="1176.908203" xlink:href="#DejaVuSans-114"/>
     <use x="1218.021484" xlink:href="#DejaVuSans-32"/>
     <use x="1249.808594" xlink:href="#DejaVuSans-110"/>
     <use x="1313.1875" xlink:href="#DejaVuSans-111"/>
     <use x="1374.369141" xlink:href="#DejaVuSans-114"/>
     <use x="1413.732422" xlink:href="#DejaVuSans-109"/>
     <use x="1511.144531" xlink:href="#DejaVuSans-32"/>
     <use x="1542.931641" xlink:href="#DejaVuSans-111"/>
     <use x="1604.113281" xlink:href="#DejaVuSans-118"/>
     <use x="1663.292969" xlink:href="#DejaVuSans-101"/>
     <use x="1724.816406" xlink:href="#DejaVuSans-114"/>
     <use x="1765.929688" xlink:href="#DejaVuSans-32"/>
     <use x="1797.716797" xlink:href="#DejaVuSans-97"/>
     <use x="1858.996094" xlink:href="#DejaVuSans-32"/>
     <use x="1890.783203" xlink:href="#DejaVuSans-115"/>
     <use x="1942.882812" xlink:href="#DejaVuSans-105"/>
     <use x="1970.666016" xlink:href="#DejaVuSans-110"/>
     <use x="2034.044922" xlink:href="#DejaVuSans-103"/>
     <use x="2097.521484" xlink:href="#DejaVuSans-108"/>
     <use x="2125.304688" xlink:href="#DejaVuSans-101"/>
     <use x="2186.828125" xlink:href="#DejaVuSans-32"/>
     <use x="2218.615234" xlink:href="#DejaVuSans-101"/>
     <use x="2280.138672" xlink:href="#DejaVuSans-112"/>
     <use x="2343.615234" xlink:href="#DejaVuSans-105"/>
     <use x="2371.398438" xlink:href="#DejaVuSans-115"/>
     <use x="2423.498047" xlink:href="#DejaVuSans-111"/>
     <use x="2484.679688" xlink:href="#DejaVuSans-100"/>
     <use x="2548.15625" xlink:href="#DejaVuSans-101"/>
     <use x="2609.679688" xlink:href="#DejaVuSans-32"/>
    </g>
    <!--  Avg object pose error norm: Residual RL = 0.344, Standard = 0.240,  -->
    <g transform="translate(26.875313 22.034625)scale(0.12 -0.12)">
     <defs>
      <path d="M 34.1875 63.1875 
L 20.796875 26.90625 
L 47.609375 26.90625 
z
M 28.609375 72.90625 
L 39.796875 72.90625 
L 67.578125 0 
L 57.328125 0 
L 50.6875 18.703125 
L 17.828125 18.703125 
L 11.1875 0 
L 0.78125 0 
z
" id="DejaVuSans-65"/>
      <path d="M 11.71875 12.40625 
L 22.015625 12.40625 
L 22.015625 0 
L 11.71875 0 
z
M 11.71875 51.703125 
L 22.015625 51.703125 
L 22.015625 39.3125 
L 11.71875 39.3125 
z
" id="DejaVuSans-58"/>
      <path d="M 44.390625 34.1875 
Q 47.5625 33.109375 50.5625 29.59375 
Q 53.5625 26.078125 56.59375 19.921875 
L 66.609375 0 
L 56 0 
L 46.6875 18.703125 
Q 43.0625 26.03125 39.671875 28.421875 
Q 36.28125 30.8125 30.421875 30.8125 
L 19.671875 30.8125 
L 19.671875 0 
L 9.8125 0 
L 9.8125 72.90625 
L 32.078125 72.90625 
Q 44.578125 72.90625 50.734375 67.671875 
Q 56.890625 62.453125 56.890625 51.90625 
Q 56.890625 45.015625 53.6875 40.46875 
Q 50.484375 35.9375 44.390625 34.1875 
z
M 19.671875 64.796875 
L 19.671875 38.921875 
L 32.078125 38.921875 
Q 39.203125 38.921875 42.84375 42.21875 
Q 46.484375 45.515625 46.484375 51.90625 
Q 46.484375 58.296875 42.84375 61.546875 
Q 39.203125 64.796875 32.078125 64.796875 
z
" id="DejaVuSans-82"/>
      <path d="M 9.8125 72.90625 
L 19.671875 72.90625 
L 19.671875 8.296875 
L 55.171875 8.296875 
L 55.171875 0 
L 9.8125 0 
z
" id="DejaVuSans-76"/>
      <path d="M 10.59375 45.40625 
L 73.1875 45.40625 
L 73.1875 37.203125 
L 10.59375 37.203125 
z
M 10.59375 25.484375 
L 73.1875 25.484375 
L 73.1875 17.1875 
L 10.59375 17.1875 
z
" id="DejaVuSans-61"/>
      <path d="M 40.578125 39.3125 
Q 47.65625 37.796875 51.625 33 
Q 55.609375 28.21875 55.609375 21.1875 
Q 55.609375 10.40625 48.1875 4.484375 
Q 40.765625 -1.421875 27.09375 -1.421875 
Q 22.515625 -1.421875 17.65625 -0.515625 
Q 12.796875 0.390625 7.625 2.203125 
L 7.625 11.71875 
Q 11.71875 9.328125 16.59375 8.109375 
Q 21.484375 6.890625 26.8125 6.890625 
Q 36.078125 6.890625 40.9375 10.546875 
Q 45.796875 14.203125 45.796875 21.1875 
Q 45.796875 27.640625 41.28125 31.265625 
Q 36.765625 34.90625 28.71875 34.90625 
L 20.21875 34.90625 
L 20.21875 43.015625 
L 29.109375 43.015625 
Q 36.375 43.015625 40.234375 45.921875 
Q 44.09375 48.828125 44.09375 54.296875 
Q 44.09375 59.90625 40.109375 62.90625 
Q 36.140625 65.921875 28.71875 65.921875 
Q 24.65625 65.921875 20.015625 65.03125 
Q 15.375 64.15625 9.8125 62.3125 
L 9.8125 71.09375 
Q 15.4375 72.65625 20.34375 73.4375 
Q 25.25 74.21875 29.59375 74.21875 
Q 40.828125 74.21875 47.359375 69.109375 
Q 53.90625 64.015625 53.90625 55.328125 
Q 53.90625 49.265625 50.4375 45.09375 
Q 46.96875 40.921875 40.578125 39.3125 
z
" id="DejaVuSans-51"/>
      <path d="M 11.71875 12.40625 
L 22.015625 12.40625 
L 22.015625 4 
L 14.015625 -11.625 
L 7.71875 -11.625 
L 11.71875 4 
z
" id="DejaVuSans-44"/>
      <path d="M 53.515625 70.515625 
L 53.515625 60.890625 
Q 47.90625 63.578125 42.921875 64.890625 
Q 37.9375 66.21875 33.296875 66.21875 
Q 25.25 66.21875 20.875 63.09375 
Q 16.5 59.96875 16.5 54.203125 
Q 16.5 49.359375 19.40625 46.890625 
Q 22.3125 44.4375 30.421875 42.921875 
L 36.375 41.703125 
Q 47.40625 39.59375 52.65625 34.296875 
Q 57.90625 29 57.90625 20.125 
Q 57.90625 9.515625 50.796875 4.046875 
Q 43.703125 -1.421875 29.984375 -1.421875 
Q 24.8125 -1.421875 18.96875 -0.25 
Q 13.140625 0.921875 6.890625 3.21875 
L 6.890625 13.375 
Q 12.890625 10.015625 18.65625 8.296875 
Q 24.421875 6.59375 29.984375 6.59375 
Q 38.421875 6.59375 43.015625 9.90625 
Q 47.609375 13.234375 47.609375 19.390625 
Q 47.609375 24.75 44.3125 27.78125 
Q 41.015625 30.8125 33.5 32.328125 
L 27.484375 33.5 
Q 16.453125 35.6875 11.515625 40.375 
Q 6.59375 45.0625 6.59375 53.421875 
Q 6.59375 63.09375 13.40625 68.65625 
Q 20.21875 74.21875 32.171875 74.21875 
Q 37.3125 74.21875 42.625 73.28125 
Q 47.953125 72.359375 53.515625 70.515625 
z
" id="DejaVuSans-83"/>
     </defs>
     <use xlink:href="#DejaVuSans-32"/>
     <use x="31.787109" xlink:href="#DejaVuSans-65"/>
     <use x="94.320312" xlink:href="#DejaVuSans-118"/>
     <use x="153.5" xlink:href="#DejaVuSans-103"/>
     <use x="216.976562" xlink:href="#DejaVuSans-32"/>
     <use x="248.763672" xlink:href="#DejaVuSans-111"/>
     <use x="309.945312" xlink:href="#DejaVuSans-98"/>
     <use x="373.421875" xlink:href="#DejaVuSans-106"/>
     <use x="401.205078" xlink:href="#DejaVuSans-101"/>
     <use x="462.728516" xlink:href="#DejaVuSans-99"/>
     <use x="517.708984" xlink:href="#DejaVuSans-116"/>
     <use x="556.917969" xlink:href="#DejaVuSans-32"/>
     <use x="588.705078" xlink:href="#DejaVuSans-112"/>
     <use x="652.181641" xlink:href="#DejaVuSans-111"/>
     <use x="713.363281" xlink:href="#DejaVuSans-115"/>
     <use x="765.462891" xlink:href="#DejaVuSans-101"/>
     <use x="826.986328" xlink:href="#DejaVuSans-32"/>
     <use x="858.773438" xlink:href="#DejaVuSans-101"/>
     <use x="920.296875" xlink:href="#DejaVuSans-114"/>
     <use x="959.660156" xlink:href="#DejaVuSans-114"/>
     <use x="998.523438" xlink:href="#DejaVuSans-111"/>
     <use x="1059.705078" xlink:href="#DejaVuSans-114"/>
     <use x="1100.818359" xlink:href="#DejaVuSans-32"/>
     <use x="1132.605469" xlink:href="#DejaVuSans-110"/>
     <use x="1195.984375" xlink:href="#DejaVuSans-111"/>
     <use x="1257.166016" xlink:href="#DejaVuSans-114"/>
     <use x="1296.529297" xlink:href="#DejaVuSans-109"/>
     <use x="1393.941406" xlink:href="#DejaVuSans-58"/>
     <use x="1427.632812" xlink:href="#DejaVuSans-32"/>
     <use x="1459.419922" xlink:href="#DejaVuSans-82"/>
     <use x="1524.402344" xlink:href="#DejaVuSans-101"/>
     <use x="1585.925781" xlink:href="#DejaVuSans-115"/>
     <use x="1638.025391" xlink:href="#DejaVuSans-105"/>
     <use x="1665.808594" xlink:href="#DejaVuSans-100"/>
     <use x="1729.285156" xlink:href="#DejaVuSans-117"/>
     <use x="1792.664062" xlink:href="#DejaVuSans-97"/>
     <use x="1853.943359" xlink:href="#DejaVuSans-108"/>
     <use x="1881.726562" xlink:href="#DejaVuSans-32"/>
     <use x="1913.513672" xlink:href="#DejaVuSans-82"/>
     <use x="1982.996094" xlink:href="#DejaVuSans-76"/>
     <use x="2038.708984" xlink:href="#DejaVuSans-32"/>
     <use x="2070.496094" xlink:href="#DejaVuSans-61"/>
     <use x="2154.285156" xlink:href="#DejaVuSans-32"/>
     <use x="2186.072266" xlink:href="#DejaVuSans-48"/>
     <use x="2249.695312" xlink:href="#DejaVuSans-46"/>
     <use x="2281.482422" xlink:href="#DejaVuSans-51"/>
     <use x="2345.105469" xlink:href="#DejaVuSans-52"/>
     <use x="2408.728516" xlink:href="#DejaVuSans-52"/>
     <use x="2472.351562" xlink:href="#DejaVuSans-44"/>
     <use x="2504.138672" xlink:href="#DejaVuSans-32"/>
     <use x="2535.925781" xlink:href="#DejaVuSans-83"/>
     <use x="2599.402344" xlink:href="#DejaVuSans-116"/>
     <use x="2638.611328" xlink:href="#DejaVuSans-97"/>
     <use x="2699.890625" xlink:href="#DejaVuSans-110"/>
     <use x="2763.269531" xlink:href="#DejaVuSans-100"/>
     <use x="2826.746094" xlink:href="#DejaVuSans-97"/>
     <use x="2888.025391" xlink:href="#DejaVuSans-114"/>
     <use x="2927.388672" xlink:href="#DejaVuSans-100"/>
     <use x="2990.865234" xlink:href="#DejaVuSans-32"/>
     <use x="3022.652344" xlink:href="#DejaVuSans-61"/>
     <use x="3106.441406" xlink:href="#DejaVuSans-32"/>
     <use x="3138.228516" xlink:href="#DejaVuSans-48"/>
     <use x="3201.851562" xlink:href="#DejaVuSans-46"/>
     <use x="3233.638672" xlink:href="#DejaVuSans-50"/>
     <use x="3297.261719" xlink:href="#DejaVuSans-52"/>
     <use x="3360.884766" xlink:href="#DejaVuSans-48"/>
     <use x="3424.507812" xlink:href="#DejaVuSans-44"/>
     <use x="3456.294922" xlink:href="#DejaVuSans-32"/>
    </g>
    <!--  Baseline = 0.203 -->
    <g transform="translate(182.795625 35.472)scale(0.12 -0.12)">
     <defs>
      <path d="M 19.671875 34.8125 
L 19.671875 8.109375 
L 35.5 8.109375 
Q 43.453125 8.109375 47.28125 11.40625 
Q 51.125 14.703125 51.125 21.484375 
Q 51.125 28.328125 47.28125 31.5625 
Q 43.453125 34.8125 35.5 34.8125 
z
M 19.671875 64.796875 
L 19.671875 42.828125 
L 34.28125 42.828125 
Q 41.5 42.828125 45.03125 45.53125 
Q 48.578125 48.25 48.578125 53.8125 
Q 48.578125 59.328125 45.03125 62.0625 
Q 41.5 64.796875 34.28125 64.796875 
z
M 9.8125 72.90625 
L 35.015625 72.90625 
Q 46.296875 72.90625 52.390625 68.21875 
Q 58.5 63.53125 58.5 54.890625 
Q 58.5 48.1875 55.375 44.234375 
Q 52.25 40.28125 46.1875 39.3125 
Q 53.46875 37.75 57.5 32.78125 
Q 61.53125 27.828125 61.53125 20.40625 
Q 61.53125 10.640625 54.890625 5.3125 
Q 48.25 0 35.984375 0 
L 9.8125 0 
z
" id="DejaVuSans-66"/>
     </defs>
     <use xlink:href="#DejaVuSans-32"/>
     <use x="31.787109" xlink:href="#DejaVuSans-66"/>
     <use x="100.390625" xlink:href="#DejaVuSans-97"/>
     <use x="161.669922" xlink:href="#DejaVuSans-115"/>
     <use x="213.769531" xlink:href="#DejaVuSans-101"/>
     <use x="275.292969" xlink:href="#DejaVuSans-108"/>
     <use x="303.076172" xlink:href="#DejaVuSans-105"/>
     <use x="330.859375" xlink:href="#DejaVuSans-110"/>
     <use x="394.238281" xlink:href="#DejaVuSans-101"/>
     <use x="455.761719" xlink:href="#DejaVuSans-32"/>
     <use x="487.548828" xlink:href="#DejaVuSans-61"/>
     <use x="571.337891" xlink:href="#DejaVuSans-32"/>
     <use x="603.125" xlink:href="#DejaVuSans-48"/>
     <use x="666.748047" xlink:href="#DejaVuSans-46"/>
     <use x="698.535156" xlink:href="#DejaVuSans-50"/>
     <use x="762.158203" xlink:href="#DejaVuSans-48"/>
     <use x="825.78125" xlink:href="#DejaVuSans-51"/>
    </g>
   </g>
   <g id="legend_1">
    <g id="patch_7">
     <path d="M 64.6 93.506375 
L 154.529687 93.506375 
Q 156.529687 93.506375 156.529687 91.506375 
L 156.529687 48.472 
Q 156.529687 46.472 154.529687 46.472 
L 64.6 46.472 
Q 62.6 46.472 62.6 48.472 
L 62.6 91.506375 
Q 62.6 93.506375 64.6 93.506375 
z
" style="fill:#ffffff;opacity:0.8;stroke:#cccccc;stroke-linejoin:miter;"/>
    </g>
    <g id="line2d_15">
     <path d="M 66.6 54.570438 
L 86.6 54.570438 
" style="fill:none;stroke:#1f77b4;stroke-linecap:square;stroke-width:1.5;"/>
    </g>
    <g id="line2d_16"/>
    <g id="text_15">
     <!-- Residual RL -->
     <g transform="translate(94.6 58.070438)scale(0.1 -0.1)">
      <use xlink:href="#DejaVuSans-82"/>
      <use x="64.982422" xlink:href="#DejaVuSans-101"/>
      <use x="126.505859" xlink:href="#DejaVuSans-115"/>
      <use x="178.605469" xlink:href="#DejaVuSans-105"/>
      <use x="206.388672" xlink:href="#DejaVuSans-100"/>
      <use x="269.865234" xlink:href="#DejaVuSans-117"/>
      <use x="333.244141" xlink:href="#DejaVuSans-97"/>
      <use x="394.523438" xlink:href="#DejaVuSans-108"/>
      <use x="422.306641" xlink:href="#DejaVuSans-32"/>
      <use x="454.09375" xlink:href="#DejaVuSans-82"/>
      <use x="523.576172" xlink:href="#DejaVuSans-76"/>
     </g>
    </g>
    <g id="line2d_17">
     <path d="M 66.6 69.248563 
L 86.6 69.248563 
" style="fill:none;stroke:#ff7f0e;stroke-linecap:square;stroke-width:1.5;"/>
    </g>
    <g id="line2d_18"/>
    <g id="text_16">
     <!-- Standard -->
     <g transform="translate(94.6 72.748563)scale(0.1 -0.1)">
      <use xlink:href="#DejaVuSans-83"/>
      <use x="63.476562" xlink:href="#DejaVuSans-116"/>
      <use x="102.685547" xlink:href="#DejaVuSans-97"/>
      <use x="163.964844" xlink:href="#DejaVuSans-110"/>
      <use x="227.34375" xlink:href="#DejaVuSans-100"/>
      <use x="290.820312" xlink:href="#DejaVuSans-97"/>
      <use x="352.099609" xlink:href="#DejaVuSans-114"/>
      <use x="391.462891" xlink:href="#DejaVuSans-100"/>
     </g>
    </g>
    <g id="line2d_19">
     <path d="M 66.6 83.926688 
L 86.6 83.926688 
" style="fill:none;stroke:#bf00bf;stroke-linecap:square;stroke-width:1.5;"/>
    </g>
    <g id="line2d_20"/>
    <g id="text_17">
     <!-- Baseline -->
     <g transform="translate(94.6 87.426688)scale(0.1 -0.1)">
      <use xlink:href="#DejaVuSans-66"/>
      <use x="68.603516" xlink:href="#DejaVuSans-97"/>
      <use x="129.882812" xlink:href="#DejaVuSans-115"/>
      <use x="181.982422" xlink:href="#DejaVuSans-101"/>
      <use x="243.505859" xlink:href="#DejaVuSans-108"/>
      <use x="271.289062" xlink:href="#DejaVuSans-105"/>
      <use x="299.072266" xlink:href="#DejaVuSans-110"/>
      <use x="362.451172" xlink:href="#DejaVuSans-101"/>
     </g>
    </g>
   </g>
  </g>
 </g>
 <defs>
  <clipPath id="p83747c1593">
   <rect height="266.112" width="357.12" x="57.6" y="41.472"/>
  </clipPath>
 </defs>
</svg>
