<?xml version="1.0" encoding="utf-8" standalone="no"?>
<!DOCTYPE svg PUBLIC "-//W3C//DTD SVG 1.1//EN"
  "http://www.w3.org/Graphics/SVG/1.1/DTD/svg11.dtd">
<!-- Created with matplotlib (https://matplotlib.org/) -->
<svg height="345.6pt" version="1.1" viewBox="0 0 460.8 345.6" width="460.8pt" xmlns="http://www.w3.org/2000/svg" xmlns:xlink="http://www.w3.org/1999/xlink">
 <metadata>
  <rdf:RDF xmlns:cc="http://creativecommons.org/ns#" xmlns:dc="http://purl.org/dc/elements/1.1/" xmlns:rdf="http://www.w3.org/1999/02/22-rdf-syntax-ns#">
   <cc:Work>
    <dc:type rdf:resource="http://purl.org/dc/dcmitype/StillImage"/>
    <dc:date>2022-07-23T12:16:53.191875</dc:date>
    <dc:format>image/svg+xml</dc:format>
    <dc:creator>
     <cc:Agent>
      <dc:title>Matplotlib v3.3.4, https://matplotlib.org/</dc:title>
     </cc:Agent>
    </dc:creator>
   </cc:Work>
  </rdf:RDF>
 </metadata>
 <defs>
  <style type="text/css">*{stroke-linecap:butt;stroke-linejoin:round;}</style>
 </defs>
 <g id="figure_1">
  <g id="patch_1">
   <path d="M 0 345.6 
L 460.8 345.6 
L 460.8 0 
L 0 0 
z
" style="fill:#ffffff;"/>
  </g>
  <g id="axes_1">
   <g id="patch_2">
    <path d="M 57.6 307.584 
L 414.72 307.584 
L 414.72 41.472 
L 57.6 41.472 
z
" style="fill:#ffffff;"/>
   </g>
   <g id="matplotlib.axis_1">
    <g id="xtick_1">
     <g id="line2d_1">
      <defs>
       <path d="M 0 0 
L 0 3.5 
" id="m6b809ca562" style="stroke:#000000;stroke-width:0.8;"/>
      </defs>
      <g>
       <use style="stroke:#000000;stroke-width:0.8;" x="73.832727" xlink:href="#m6b809ca562" y="307.584"/>
      </g>
     </g>
     <g id="text_1">
      <!-- 0 -->
      <g transform="translate(70.651477 322.182437)scale(0.1 -0.1)">
       <defs>
        <path d="M 31.78125 66.40625 
Q 24.171875 66.40625 20.328125 58.90625 
Q 16.5 51.421875 16.5 36.375 
Q 16.5 21.390625 20.328125 13.890625 
Q 24.171875 6.390625 31.78125 6.390625 
Q 39.453125 6.390625 43.28125 13.890625 
Q 47.125 21.390625 47.125 36.375 
Q 47.125 51.421875 43.28125 58.90625 
Q 39.453125 66.40625 31.78125 66.40625 
z
M 31.78125 74.21875 
Q 44.046875 74.21875 50.515625 64.515625 
Q 56.984375 54.828125 56.984375 36.375 
Q 56.984375 17.96875 50.515625 8.265625 
Q 44.046875 -1.421875 31.78125 -1.421875 
Q 19.53125 -1.421875 13.0625 8.265625 
Q 6.59375 17.96875 6.59375 36.375 
Q 6.59375 54.828125 13.0625 64.515625 
Q 19.53125 74.21875 31.78125 74.21875 
z
" id="DejaVuSans-48"/>
       </defs>
       <use xlink:href="#DejaVuSans-48"/>
      </g>
     </g>
    </g>
    <g id="xtick_2">
     <g id="line2d_2">
      <g>
       <use style="stroke:#000000;stroke-width:0.8;" x="138.763636" xlink:href="#m6b809ca562" y="307.584"/>
      </g>
     </g>
     <g id="text_2">
      <!-- 2000 -->
      <g transform="translate(126.038636 322.182437)scale(0.1 -0.1)">
       <defs>
        <path d="M 19.1875 8.296875 
L 53.609375 8.296875 
L 53.609375 0 
L 7.328125 0 
L 7.328125 8.296875 
Q 12.9375 14.109375 22.625 23.890625 
Q 32.328125 33.6875 34.8125 36.53125 
Q 39.546875 41.84375 41.421875 45.53125 
Q 43.3125 49.21875 43.3125 52.78125 
Q 43.3125 58.59375 39.234375 62.25 
Q 35.15625 65.921875 28.609375 65.921875 
Q 23.96875 65.921875 18.8125 64.3125 
Q 13.671875 62.703125 7.8125 59.421875 
L 7.8125 69.390625 
Q 13.765625 71.78125 18.9375 73 
Q 24.125 74.21875 28.421875 74.21875 
Q 39.75 74.21875 46.484375 68.546875 
Q 53.21875 62.890625 53.21875 53.421875 
Q 53.21875 48.921875 51.53125 44.890625 
Q 49.859375 40.875 45.40625 35.40625 
Q 44.1875 33.984375 37.640625 27.21875 
Q 31.109375 20.453125 19.1875 8.296875 
z
" id="DejaVuSans-50"/>
       </defs>
       <use xlink:href="#DejaVuSans-50"/>
       <use x="63.623047" xlink:href="#DejaVuSans-48"/>
       <use x="127.246094" xlink:href="#DejaVuSans-48"/>
       <use x="190.869141" xlink:href="#DejaVuSans-48"/>
      </g>
     </g>
    </g>
    <g id="xtick_3">
     <g id="line2d_3">
      <g>
       <use style="stroke:#000000;stroke-width:0.8;" x="203.694545" xlink:href="#m6b809ca562" y="307.584"/>
      </g>
     </g>
     <g id="text_3">
      <!-- 4000 -->
      <g transform="translate(190.969545 322.182437)scale(0.1 -0.1)">
       <defs>
        <path d="M 37.796875 64.3125 
L 12.890625 25.390625 
L 37.796875 25.390625 
z
M 35.203125 72.90625 
L 47.609375 72.90625 
L 47.609375 25.390625 
L 58.015625 25.390625 
L 58.015625 17.1875 
L 47.609375 17.1875 
L 47.609375 0 
L 37.796875 0 
L 37.796875 17.1875 
L 4.890625 17.1875 
L 4.890625 26.703125 
z
" id="DejaVuSans-52"/>
       </defs>
       <use xlink:href="#DejaVuSans-52"/>
       <use x="63.623047" xlink:href="#DejaVuSans-48"/>
       <use x="127.246094" xlink:href="#DejaVuSans-48"/>
       <use x="190.869141" xlink:href="#DejaVuSans-48"/>
      </g>
     </g>
    </g>
    <g id="xtick_4">
     <g id="line2d_4">
      <g>
       <use style="stroke:#000000;stroke-width:0.8;" x="268.625455" xlink:href="#m6b809ca562" y="307.584"/>
      </g>
     </g>
     <g id="text_4">
      <!-- 6000 -->
      <g transform="translate(255.900455 322.182437)scale(0.1 -0.1)">
       <defs>
        <path d="M 33.015625 40.375 
Q 26.375 40.375 22.484375 35.828125 
Q 18.609375 31.296875 18.609375 23.390625 
Q 18.609375 15.53125 22.484375 10.953125 
Q 26.375 6.390625 33.015625 6.390625 
Q 39.65625 6.390625 43.53125 10.953125 
Q 47.40625 15.53125 47.40625 23.390625 
Q 47.40625 31.296875 43.53125 35.828125 
Q 39.65625 40.375 33.015625 40.375 
z
M 52.59375 71.296875 
L 52.59375 62.3125 
Q 48.875 64.0625 45.09375 64.984375 
Q 41.3125 65.921875 37.59375 65.921875 
Q 27.828125 65.921875 22.671875 59.328125 
Q 17.53125 52.734375 16.796875 39.40625 
Q 19.671875 43.65625 24.015625 45.921875 
Q 28.375 48.1875 33.59375 48.1875 
Q 44.578125 48.1875 50.953125 41.515625 
Q 57.328125 34.859375 57.328125 23.390625 
Q 57.328125 12.15625 50.6875 5.359375 
Q 44.046875 -1.421875 33.015625 -1.421875 
Q 20.359375 -1.421875 13.671875 8.265625 
Q 6.984375 17.96875 6.984375 36.375 
Q 6.984375 53.65625 15.1875 63.9375 
Q 23.390625 74.21875 37.203125 74.21875 
Q 40.921875 74.21875 44.703125 73.484375 
Q 48.484375 72.75 52.59375 71.296875 
z
" id="DejaVuSans-54"/>
       </defs>
       <use xlink:href="#DejaVuSans-54"/>
       <use x="63.623047" xlink:href="#DejaVuSans-48"/>
       <use x="127.246094" xlink:href="#DejaVuSans-48"/>
       <use x="190.869141" xlink:href="#DejaVuSans-48"/>
      </g>
     </g>
    </g>
    <g id="xtick_5">
     <g id="line2d_5">
      <g>
       <use style="stroke:#000000;stroke-width:0.8;" x="333.556364" xlink:href="#m6b809ca562" y="307.584"/>
      </g>
     </g>
     <g id="text_5">
      <!-- 8000 -->
      <g transform="translate(320.831364 322.182437)scale(0.1 -0.1)">
       <defs>
        <path d="M 31.78125 34.625 
Q 24.75 34.625 20.71875 30.859375 
Q 16.703125 27.09375 16.703125 20.515625 
Q 16.703125 13.921875 20.71875 10.15625 
Q 24.75 6.390625 31.78125 6.390625 
Q 38.8125 6.390625 42.859375 10.171875 
Q 46.921875 13.96875 46.921875 20.515625 
Q 46.921875 27.09375 42.890625 30.859375 
Q 38.875 34.625 31.78125 34.625 
z
M 21.921875 38.8125 
Q 15.578125 40.375 12.03125 44.71875 
Q 8.5 49.078125 8.5 55.328125 
Q 8.5 64.0625 14.71875 69.140625 
Q 20.953125 74.21875 31.78125 74.21875 
Q 42.671875 74.21875 48.875 69.140625 
Q 55.078125 64.0625 55.078125 55.328125 
Q 55.078125 49.078125 51.53125 44.71875 
Q 48 40.375 41.703125 38.8125 
Q 48.828125 37.15625 52.796875 32.3125 
Q 56.78125 27.484375 56.78125 20.515625 
Q 56.78125 9.90625 50.3125 4.234375 
Q 43.84375 -1.421875 31.78125 -1.421875 
Q 19.734375 -1.421875 13.25 4.234375 
Q 6.78125 9.90625 6.78125 20.515625 
Q 6.78125 27.484375 10.78125 32.3125 
Q 14.796875 37.15625 21.921875 38.8125 
z
M 18.3125 54.390625 
Q 18.3125 48.734375 21.84375 45.5625 
Q 25.390625 42.390625 31.78125 42.390625 
Q 38.140625 42.390625 41.71875 45.5625 
Q 45.3125 48.734375 45.3125 54.390625 
Q 45.3125 60.0625 41.71875 63.234375 
Q 38.140625 66.40625 31.78125 66.40625 
Q 25.390625 66.40625 21.84375 63.234375 
Q 18.3125 60.0625 18.3125 54.390625 
z
" id="DejaVuSans-56"/>
       </defs>
       <use xlink:href="#DejaVuSans-56"/>
       <use x="63.623047" xlink:href="#DejaVuSans-48"/>
       <use x="127.246094" xlink:href="#DejaVuSans-48"/>
       <use x="190.869141" xlink:href="#DejaVuSans-48"/>
      </g>
     </g>
    </g>
    <g id="xtick_6">
     <g id="line2d_6">
      <g>
       <use style="stroke:#000000;stroke-width:0.8;" x="398.487273" xlink:href="#m6b809ca562" y="307.584"/>
      </g>
     </g>
     <g id="text_6">
      <!-- 10000 -->
      <g transform="translate(382.581023 322.182437)scale(0.1 -0.1)">
       <defs>
        <path d="M 12.40625 8.296875 
L 28.515625 8.296875 
L 28.515625 63.921875 
L 10.984375 60.40625 
L 10.984375 69.390625 
L 28.421875 72.90625 
L 38.28125 72.90625 
L 38.28125 8.296875 
L 54.390625 8.296875 
L 54.390625 0 
L 12.40625 0 
z
" id="DejaVuSans-49"/>
       </defs>
       <use xlink:href="#DejaVuSans-49"/>
       <use x="63.623047" xlink:href="#DejaVuSans-48"/>
       <use x="127.246094" xlink:href="#DejaVuSans-48"/>
       <use x="190.869141" xlink:href="#DejaVuSans-48"/>
       <use x="254.492188" xlink:href="#DejaVuSans-48"/>
      </g>
     </g>
    </g>
    <g id="text_7">
     <!-- Num-time-steps -->
     <g transform="translate(196.056094 335.860562)scale(0.1 -0.1)">
      <defs>
       <path d="M 9.8125 72.90625 
L 23.09375 72.90625 
L 55.421875 11.921875 
L 55.421875 72.90625 
L 64.984375 72.90625 
L 64.984375 0 
L 51.703125 0 
L 19.390625 60.984375 
L 19.390625 0 
L 9.8125 0 
z
" id="DejaVuSans-78"/>
       <path d="M 8.5 21.578125 
L 8.5 54.6875 
L 17.484375 54.6875 
L 17.484375 21.921875 
Q 17.484375 14.15625 20.5 10.265625 
Q 23.53125 6.390625 29.59375 6.390625 
Q 36.859375 6.390625 41.078125 11.03125 
Q 45.3125 15.671875 45.3125 23.6875 
L 45.3125 54.6875 
L 54.296875 54.6875 
L 54.296875 0 
L 45.3125 0 
L 45.3125 8.40625 
Q 42.046875 3.421875 37.71875 1 
Q 33.40625 -1.421875 27.6875 -1.421875 
Q 18.265625 -1.421875 13.375 4.4375 
Q 8.5 10.296875 8.5 21.578125 
z
M 31.109375 56 
z
" id="DejaVuSans-117"/>
       <path d="M 52 44.1875 
Q 55.375 50.25 60.0625 53.125 
Q 64.75 56 71.09375 56 
Q 79.640625 56 84.28125 50.015625 
Q 88.921875 44.046875 88.921875 33.015625 
L 88.921875 0 
L 79.890625 0 
L 79.890625 32.71875 
Q 79.890625 40.578125 77.09375 44.375 
Q 74.3125 48.1875 68.609375 48.1875 
Q 61.625 48.1875 57.5625 43.546875 
Q 53.515625 38.921875 53.515625 30.90625 
L 53.515625 0 
L 44.484375 0 
L 44.484375 32.71875 
Q 44.484375 40.625 41.703125 44.40625 
Q 38.921875 48.1875 33.109375 48.1875 
Q 26.21875 48.1875 22.15625 43.53125 
Q 18.109375 38.875 18.109375 30.90625 
L 18.109375 0 
L 9.078125 0 
L 9.078125 54.6875 
L 18.109375 54.6875 
L 18.109375 46.1875 
Q 21.1875 51.21875 25.484375 53.609375 
Q 29.78125 56 35.6875 56 
Q 41.65625 56 45.828125 52.96875 
Q 50 49.953125 52 44.1875 
z
" id="DejaVuSans-109"/>
       <path d="M 4.890625 31.390625 
L 31.203125 31.390625 
L 31.203125 23.390625 
L 4.890625 23.390625 
z
" id="DejaVuSans-45"/>
       <path d="M 18.3125 70.21875 
L 18.3125 54.6875 
L 36.8125 54.6875 
L 36.8125 47.703125 
L 18.3125 47.703125 
L 18.3125 18.015625 
Q 18.3125 11.328125 20.140625 9.421875 
Q 21.96875 7.515625 27.59375 7.515625 
L 36.8125 7.515625 
L 36.8125 0 
L 27.59375 0 
Q 17.1875 0 13.234375 3.875 
Q 9.28125 7.765625 9.28125 18.015625 
L 9.28125 47.703125 
L 2.6875 47.703125 
L 2.6875 54.6875 
L 9.28125 54.6875 
L 9.28125 70.21875 
z
" id="DejaVuSans-116"/>
       <path d="M 9.421875 54.6875 
L 18.40625 54.6875 
L 18.40625 0 
L 9.421875 0 
z
M 9.421875 75.984375 
L 18.40625 75.984375 
L 18.40625 64.59375 
L 9.421875 64.59375 
z
" id="DejaVuSans-105"/>
       <path d="M 56.203125 29.59375 
L 56.203125 25.203125 
L 14.890625 25.203125 
Q 15.484375 15.921875 20.484375 11.0625 
Q 25.484375 6.203125 34.421875 6.203125 
Q 39.59375 6.203125 44.453125 7.46875 
Q 49.3125 8.734375 54.109375 11.28125 
L 54.109375 2.78125 
Q 49.265625 0.734375 44.1875 -0.34375 
Q 39.109375 -1.421875 33.890625 -1.421875 
Q 20.796875 -1.421875 13.15625 6.1875 
Q 5.515625 13.8125 5.515625 26.8125 
Q 5.515625 40.234375 12.765625 48.109375 
Q 20.015625 56 32.328125 56 
Q 43.359375 56 49.78125 48.890625 
Q 56.203125 41.796875 56.203125 29.59375 
z
M 47.21875 32.234375 
Q 47.125 39.59375 43.09375 43.984375 
Q 39.0625 48.390625 32.421875 48.390625 
Q 24.90625 48.390625 20.390625 44.140625 
Q 15.875 39.890625 15.1875 32.171875 
z
" id="DejaVuSans-101"/>
       <path d="M 44.28125 53.078125 
L 44.28125 44.578125 
Q 40.484375 46.53125 36.375 47.5 
Q 32.28125 48.484375 27.875 48.484375 
Q 21.1875 48.484375 17.84375 46.4375 
Q 14.5 44.390625 14.5 40.28125 
Q 14.5 37.15625 16.890625 35.375 
Q 19.28125 33.59375 26.515625 31.984375 
L 29.59375 31.296875 
Q 39.15625 29.25 43.1875 25.515625 
Q 47.21875 21.78125 47.21875 15.09375 
Q 47.21875 7.46875 41.1875 3.015625 
Q 35.15625 -1.421875 24.609375 -1.421875 
Q 20.21875 -1.421875 15.453125 -0.5625 
Q 10.6875 0.296875 5.421875 2 
L 5.421875 11.28125 
Q 10.40625 8.6875 15.234375 7.390625 
Q 20.0625 6.109375 24.8125 6.109375 
Q 31.15625 6.109375 34.5625 8.28125 
Q 37.984375 10.453125 37.984375 14.40625 
Q 37.984375 18.0625 35.515625 20.015625 
Q 33.0625 21.96875 24.703125 23.78125 
L 21.578125 24.515625 
Q 13.234375 26.265625 9.515625 29.90625 
Q 5.8125 33.546875 5.8125 39.890625 
Q 5.8125 47.609375 11.28125 51.796875 
Q 16.75 56 26.8125 56 
Q 31.78125 56 36.171875 55.265625 
Q 40.578125 54.546875 44.28125 53.078125 
z
" id="DejaVuSans-115"/>
       <path d="M 18.109375 8.203125 
L 18.109375 -20.796875 
L 9.078125 -20.796875 
L 9.078125 54.6875 
L 18.109375 54.6875 
L 18.109375 46.390625 
Q 20.953125 51.265625 25.265625 53.625 
Q 29.59375 56 35.59375 56 
Q 45.5625 56 51.78125 48.09375 
Q 58.015625 40.1875 58.015625 27.296875 
Q 58.015625 14.40625 51.78125 6.484375 
Q 45.5625 -1.421875 35.59375 -1.421875 
Q 29.59375 -1.421875 25.265625 0.953125 
Q 20.953125 3.328125 18.109375 8.203125 
z
M 48.6875 27.296875 
Q 48.6875 37.203125 44.609375 42.84375 
Q 40.53125 48.484375 33.40625 48.484375 
Q 26.265625 48.484375 22.1875 42.84375 
Q 18.109375 37.203125 18.109375 27.296875 
Q 18.109375 17.390625 22.1875 11.75 
Q 26.265625 6.109375 33.40625 6.109375 
Q 40.53125 6.109375 44.609375 11.75 
Q 48.6875 17.390625 48.6875 27.296875 
z
" id="DejaVuSans-112"/>
      </defs>
      <use xlink:href="#DejaVuSans-78"/>
      <use x="74.804688" xlink:href="#DejaVuSans-117"/>
      <use x="138.183594" xlink:href="#DejaVuSans-109"/>
      <use x="235.595703" xlink:href="#DejaVuSans-45"/>
      <use x="271.679688" xlink:href="#DejaVuSans-116"/>
      <use x="310.888672" xlink:href="#DejaVuSans-105"/>
      <use x="338.671875" xlink:href="#DejaVuSans-109"/>
      <use x="436.083984" xlink:href="#DejaVuSans-101"/>
      <use x="497.607422" xlink:href="#DejaVuSans-45"/>
      <use x="533.691406" xlink:href="#DejaVuSans-115"/>
      <use x="585.791016" xlink:href="#DejaVuSans-116"/>
      <use x="625" xlink:href="#DejaVuSans-101"/>
      <use x="686.523438" xlink:href="#DejaVuSans-112"/>
      <use x="750" xlink:href="#DejaVuSans-115"/>
     </g>
    </g>
   </g>
   <g id="matplotlib.axis_2">
    <g id="ytick_1">
     <g id="line2d_7">
      <defs>
       <path d="M 0 0 
L -3.5 0 
" id="m8669b867e5" style="stroke:#000000;stroke-width:0.8;"/>
      </defs>
      <g>
       <use style="stroke:#000000;stroke-width:0.8;" x="57.6" xlink:href="#m8669b867e5" y="304.555274"/>
      </g>
     </g>
     <g id="text_8">
      <!-- 0.0 -->
      <g transform="translate(34.696875 308.354493)scale(0.1 -0.1)">
       <defs>
        <path d="M 10.6875 12.40625 
L 21 12.40625 
L 21 0 
L 10.6875 0 
z
" id="DejaVuSans-46"/>
       </defs>
       <use xlink:href="#DejaVuSans-48"/>
       <use x="63.623047" xlink:href="#DejaVuSans-46"/>
       <use x="95.410156" xlink:href="#DejaVuSans-48"/>
      </g>
     </g>
    </g>
    <g id="ytick_2">
     <g id="line2d_8">
      <g>
       <use style="stroke:#000000;stroke-width:0.8;" x="57.6" xlink:href="#m8669b867e5" y="259.281694"/>
      </g>
     </g>
     <g id="text_9">
      <!-- 0.1 -->
      <g transform="translate(34.696875 263.080912)scale(0.1 -0.1)">
       <use xlink:href="#DejaVuSans-48"/>
       <use x="63.623047" xlink:href="#DejaVuSans-46"/>
       <use x="95.410156" xlink:href="#DejaVuSans-49"/>
      </g>
     </g>
    </g>
    <g id="ytick_3">
     <g id="line2d_9">
      <g>
       <use style="stroke:#000000;stroke-width:0.8;" x="57.6" xlink:href="#m8669b867e5" y="214.008113"/>
      </g>
     </g>
     <g id="text_10">
      <!-- 0.2 -->
      <g transform="translate(34.696875 217.807332)scale(0.1 -0.1)">
       <use xlink:href="#DejaVuSans-48"/>
       <use x="63.623047" xlink:href="#DejaVuSans-46"/>
       <use x="95.410156" xlink:href="#DejaVuSans-50"/>
      </g>
     </g>
    </g>
    <g id="ytick_4">
     <g id="line2d_10">
      <g>
       <use style="stroke:#000000;stroke-width:0.8;" x="57.6" xlink:href="#m8669b867e5" y="168.734532"/>
      </g>
     </g>
     <g id="text_11">
      <!-- 0.3 -->
      <g transform="translate(34.696875 172.533751)scale(0.1 -0.1)">
       <defs>
        <path d="M 40.578125 39.3125 
Q 47.65625 37.796875 51.625 33 
Q 55.609375 28.21875 55.609375 21.1875 
Q 55.609375 10.40625 48.1875 4.484375 
Q 40.765625 -1.421875 27.09375 -1.421875 
Q 22.515625 -1.421875 17.65625 -0.515625 
Q 12.796875 0.390625 7.625 2.203125 
L 7.625 11.71875 
Q 11.71875 9.328125 16.59375 8.109375 
Q 21.484375 6.890625 26.8125 6.890625 
Q 36.078125 6.890625 40.9375 10.546875 
Q 45.796875 14.203125 45.796875 21.1875 
Q 45.796875 27.640625 41.28125 31.265625 
Q 36.765625 34.90625 28.71875 34.90625 
L 20.21875 34.90625 
L 20.21875 43.015625 
L 29.109375 43.015625 
Q 36.375 43.015625 40.234375 45.921875 
Q 44.09375 48.828125 44.09375 54.296875 
Q 44.09375 59.90625 40.109375 62.90625 
Q 36.140625 65.921875 28.71875 65.921875 
Q 24.65625 65.921875 20.015625 65.03125 
Q 15.375 64.15625 9.8125 62.3125 
L 9.8125 71.09375 
Q 15.4375 72.65625 20.34375 73.4375 
Q 25.25 74.21875 29.59375 74.21875 
Q 40.828125 74.21875 47.359375 69.109375 
Q 53.90625 64.015625 53.90625 55.328125 
Q 53.90625 49.265625 50.4375 45.09375 
Q 46.96875 40.921875 40.578125 39.3125 
z
" id="DejaVuSans-51"/>
       </defs>
       <use xlink:href="#DejaVuSans-48"/>
       <use x="63.623047" xlink:href="#DejaVuSans-46"/>
       <use x="95.410156" xlink:href="#DejaVuSans-51"/>
      </g>
     </g>
    </g>
    <g id="ytick_5">
     <g id="line2d_11">
      <g>
       <use style="stroke:#000000;stroke-width:0.8;" x="57.6" xlink:href="#m8669b867e5" y="123.460952"/>
      </g>
     </g>
     <g id="text_12">
      <!-- 0.4 -->
      <g transform="translate(34.696875 127.260171)scale(0.1 -0.1)">
       <use xlink:href="#DejaVuSans-48"/>
       <use x="63.623047" xlink:href="#DejaVuSans-46"/>
       <use x="95.410156" xlink:href="#DejaVuSans-52"/>
      </g>
     </g>
    </g>
    <g id="ytick_6">
     <g id="line2d_12">
      <g>
       <use style="stroke:#000000;stroke-width:0.8;" x="57.6" xlink:href="#m8669b867e5" y="78.187371"/>
      </g>
     </g>
     <g id="text_13">
      <!-- 0.5 -->
      <g transform="translate(34.696875 81.98659)scale(0.1 -0.1)">
       <defs>
        <path d="M 10.796875 72.90625 
L 49.515625 72.90625 
L 49.515625 64.59375 
L 19.828125 64.59375 
L 19.828125 46.734375 
Q 21.96875 47.46875 24.109375 47.828125 
Q 26.265625 48.1875 28.421875 48.1875 
Q 40.625 48.1875 47.75 41.5 
Q 54.890625 34.8125 54.890625 23.390625 
Q 54.890625 11.625 47.5625 5.09375 
Q 40.234375 -1.421875 26.90625 -1.421875 
Q 22.3125 -1.421875 17.546875 -0.640625 
Q 12.796875 0.140625 7.71875 1.703125 
L 7.71875 11.625 
Q 12.109375 9.234375 16.796875 8.0625 
Q 21.484375 6.890625 26.703125 6.890625 
Q 35.15625 6.890625 40.078125 11.328125 
Q 45.015625 15.765625 45.015625 23.390625 
Q 45.015625 31 40.078125 35.4375 
Q 35.15625 39.890625 26.703125 39.890625 
Q 22.75 39.890625 18.8125 39.015625 
Q 14.890625 38.140625 10.796875 36.28125 
z
" id="DejaVuSans-53"/>
       </defs>
       <use xlink:href="#DejaVuSans-48"/>
       <use x="63.623047" xlink:href="#DejaVuSans-46"/>
       <use x="95.410156" xlink:href="#DejaVuSans-53"/>
      </g>
     </g>
    </g>
    <g id="text_14">
     <!-- Obj-pose-error-norm -->
     <g transform="translate(28.617187 225.203781)rotate(-90)scale(0.1 -0.1)">
      <defs>
       <path d="M 39.40625 66.21875 
Q 28.65625 66.21875 22.328125 58.203125 
Q 16.015625 50.203125 16.015625 36.375 
Q 16.015625 22.609375 22.328125 14.59375 
Q 28.65625 6.59375 39.40625 6.59375 
Q 50.140625 6.59375 56.421875 14.59375 
Q 62.703125 22.609375 62.703125 36.375 
Q 62.703125 50.203125 56.421875 58.203125 
Q 50.140625 66.21875 39.40625 66.21875 
z
M 39.40625 74.21875 
Q 54.734375 74.21875 63.90625 63.9375 
Q 73.09375 53.65625 73.09375 36.375 
Q 73.09375 19.140625 63.90625 8.859375 
Q 54.734375 -1.421875 39.40625 -1.421875 
Q 24.03125 -1.421875 14.8125 8.828125 
Q 5.609375 19.09375 5.609375 36.375 
Q 5.609375 53.65625 14.8125 63.9375 
Q 24.03125 74.21875 39.40625 74.21875 
z
" id="DejaVuSans-79"/>
       <path d="M 48.6875 27.296875 
Q 48.6875 37.203125 44.609375 42.84375 
Q 40.53125 48.484375 33.40625 48.484375 
Q 26.265625 48.484375 22.1875 42.84375 
Q 18.109375 37.203125 18.109375 27.296875 
Q 18.109375 17.390625 22.1875 11.75 
Q 26.265625 6.109375 33.40625 6.109375 
Q 40.53125 6.109375 44.609375 11.75 
Q 48.6875 17.390625 48.6875 27.296875 
z
M 18.109375 46.390625 
Q 20.953125 51.265625 25.265625 53.625 
Q 29.59375 56 35.59375 56 
Q 45.5625 56 51.78125 48.09375 
Q 58.015625 40.1875 58.015625 27.296875 
Q 58.015625 14.40625 51.78125 6.484375 
Q 45.5625 -1.421875 35.59375 -1.421875 
Q 29.59375 -1.421875 25.265625 0.953125 
Q 20.953125 3.328125 18.109375 8.203125 
L 18.109375 0 
L 9.078125 0 
L 9.078125 75.984375 
L 18.109375 75.984375 
z
" id="DejaVuSans-98"/>
       <path d="M 9.421875 54.6875 
L 18.40625 54.6875 
L 18.40625 -0.984375 
Q 18.40625 -11.421875 14.421875 -16.109375 
Q 10.453125 -20.796875 1.609375 -20.796875 
L -1.8125 -20.796875 
L -1.8125 -13.1875 
L 0.59375 -13.1875 
Q 5.71875 -13.1875 7.5625 -10.8125 
Q 9.421875 -8.453125 9.421875 -0.984375 
z
M 9.421875 75.984375 
L 18.40625 75.984375 
L 18.40625 64.59375 
L 9.421875 64.59375 
z
" id="DejaVuSans-106"/>
       <path d="M 30.609375 48.390625 
Q 23.390625 48.390625 19.1875 42.75 
Q 14.984375 37.109375 14.984375 27.296875 
Q 14.984375 17.484375 19.15625 11.84375 
Q 23.34375 6.203125 30.609375 6.203125 
Q 37.796875 6.203125 41.984375 11.859375 
Q 46.1875 17.53125 46.1875 27.296875 
Q 46.1875 37.015625 41.984375 42.703125 
Q 37.796875 48.390625 30.609375 48.390625 
z
M 30.609375 56 
Q 42.328125 56 49.015625 48.375 
Q 55.71875 40.765625 55.71875 27.296875 
Q 55.71875 13.875 49.015625 6.21875 
Q 42.328125 -1.421875 30.609375 -1.421875 
Q 18.84375 -1.421875 12.171875 6.21875 
Q 5.515625 13.875 5.515625 27.296875 
Q 5.515625 40.765625 12.171875 48.375 
Q 18.84375 56 30.609375 56 
z
" id="DejaVuSans-111"/>
       <path d="M 41.109375 46.296875 
Q 39.59375 47.171875 37.8125 47.578125 
Q 36.03125 48 33.890625 48 
Q 26.265625 48 22.1875 43.046875 
Q 18.109375 38.09375 18.109375 28.8125 
L 18.109375 0 
L 9.078125 0 
L 9.078125 54.6875 
L 18.109375 54.6875 
L 18.109375 46.1875 
Q 20.953125 51.171875 25.484375 53.578125 
Q 30.03125 56 36.53125 56 
Q 37.453125 56 38.578125 55.875 
Q 39.703125 55.765625 41.0625 55.515625 
z
" id="DejaVuSans-114"/>
       <path d="M 54.890625 33.015625 
L 54.890625 0 
L 45.90625 0 
L 45.90625 32.71875 
Q 45.90625 40.484375 42.875 44.328125 
Q 39.84375 48.1875 33.796875 48.1875 
Q 26.515625 48.1875 22.3125 43.546875 
Q 18.109375 38.921875 18.109375 30.90625 
L 18.109375 0 
L 9.078125 0 
L 9.078125 54.6875 
L 18.109375 54.6875 
L 18.109375 46.1875 
Q 21.34375 51.125 25.703125 53.5625 
Q 30.078125 56 35.796875 56 
Q 45.21875 56 50.046875 50.171875 
Q 54.890625 44.34375 54.890625 33.015625 
z
" id="DejaVuSans-110"/>
      </defs>
      <use xlink:href="#DejaVuSans-79"/>
      <use x="78.710938" xlink:href="#DejaVuSans-98"/>
      <use x="142.1875" xlink:href="#DejaVuSans-106"/>
      <use x="169.970703" xlink:href="#DejaVuSans-45"/>
      <use x="206.054688" xlink:href="#DejaVuSans-112"/>
      <use x="269.53125" xlink:href="#DejaVuSans-111"/>
      <use x="330.712891" xlink:href="#DejaVuSans-115"/>
      <use x="382.8125" xlink:href="#DejaVuSans-101"/>
      <use x="444.335938" xlink:href="#DejaVuSans-45"/>
      <use x="480.419922" xlink:href="#DejaVuSans-101"/>
      <use x="541.943359" xlink:href="#DejaVuSans-114"/>
      <use x="581.306641" xlink:href="#DejaVuSans-114"/>
      <use x="620.169922" xlink:href="#DejaVuSans-111"/>
      <use x="681.351562" xlink:href="#DejaVuSans-114"/>
      <use x="716.089844" xlink:href="#DejaVuSans-45"/>
      <use x="752.173828" xlink:href="#DejaVuSans-110"/>
      <use x="815.552734" xlink:href="#DejaVuSans-111"/>
      <use x="876.734375" xlink:href="#DejaVuSans-114"/>
      <use x="916.097656" xlink:href="#DejaVuSans-109"/>
     </g>
    </g>
   </g>
   <g id="line2d_13">
    <path clip-path="url(#p378c811991)" d="M 73.832727 295.216584 
L 73.865193 295.488 
L 74.02752 278.369094 
L 74.287244 250.320345 
L 74.546967 292.319664 
L 74.644364 269.029395 
L 74.74176 278.453557 
L 74.904087 281.358757 
L 75.001484 281.299768 
L 75.066415 281.080701 
L 75.293673 278.460447 
L 76.52736 257.484982 
L 77.144204 242.205668 
L 77.728582 230.715321 
L 78.280495 223.001636 
L 78.767476 216.935113 
L 80.45568 193.11357 
L 81.981556 178.257176 
L 83.637295 169.532859 
L 83.961949 169.259205 
L 84.091811 169.091227 
L 84.546327 167.67982 
L 85.163171 166.151213 
L 85.487825 166.052243 
L 85.585222 166.102916 
L 86.072204 166.931937 
L 86.429324 167.59029 
L 86.624116 167.670003 
L 86.818909 167.338494 
L 87.273425 166.719914 
L 87.403287 166.841513 
L 87.663011 167.603141 
L 88.572044 171.315858 
L 88.929164 171.505151 
L 89.221353 171.685819 
L 89.481076 172.3553 
L 90.487505 175.754185 
L 91.136815 176.848816 
L 91.396538 177.234242 
L 91.623796 177.982219 
L 92.435433 181.297494 
L 92.792553 181.868917 
L 93.019811 181.993551 
L 93.247069 182.106243 
L 93.409396 182.383677 
L 94.513222 185.45803 
L 95.324858 186.742559 
L 96.428684 190.190019 
L 96.915665 191.543939 
L 97.337716 192.157899 
L 97.857164 192.800801 
L 99.02592 194.323064 
L 99.38304 194.431535 
L 99.675229 194.495864 
L 100.09728 194.855319 
L 100.421935 195.551982 
L 101.298502 197.770086 
L 103.019171 200.351905 
L 103.506153 201.402317 
L 103.830807 201.955356 
L 105.09696 204.772377 
L 106.428044 208.640543 
L 107.337076 210.964965 
L 108.181178 213.282358 
L 109.804451 217.2185 
L 110.226502 217.375674 
L 110.551156 217.714193 
L 110.713484 218.169198 
L 111.460189 220.486118 
L 112.044567 221.94385 
L 112.758807 223.166999 
L 113.083462 223.215354 
L 113.602909 223.475619 
L 114.609338 225.557554 
L 115.063855 226.539488 
L 115.323578 226.634439 
L 115.485905 226.402342 
L 115.680698 226.095477 
L 115.940422 226.090647 
L 116.102749 226.492563 
L 116.459869 227.874551 
L 116.784524 228.719727 
L 117.044247 228.761783 
L 117.206575 228.384029 
L 117.531229 226.954585 
L 117.758487 226.39138 
L 117.790953 226.401034 
L 117.920815 226.434181 
L 118.050676 226.865343 
L 118.440262 228.045311 
L 118.602589 228.140091 
L 119.02464 227.414077 
L 119.446691 226.501665 
L 119.641484 226.523642 
L 120.323258 227.136457 
L 120.875171 225.978504 
L 121.816669 222.472806 
L 121.849135 222.483688 
L 121.946531 222.550355 
L 122.206255 222.856354 
L 122.59584 223.381128 
L 122.660771 223.323261 
L 122.823098 223.252053 
L 123.472407 224.402646 
L 124.089251 225.418709 
L 124.446371 225.976785 
L 125.517731 228.28732 
L 126.199505 229.204577 
L 126.264436 229.149361 
L 126.296902 229.196609 
L 126.52416 229.299566 
L 126.621556 229.33169 
L 126.848815 229.512886 
L 127.270865 229.765137 
L 127.465658 230.01941 
L 127.822778 230.317257 
L 127.985105 230.391813 
L 128.244829 230.382119 
L 128.30976 230.347205 
L 128.342225 230.396975 
L 128.537018 230.475879 
L 128.926604 230.713389 
L 129.088931 230.745519 
L 129.38112 230.388152 
L 129.478516 230.274889 
L 129.608378 230.0759 
L 129.770705 229.682176 
L 130.484945 228.351165 
L 130.582342 228.42887 
L 130.8096 228.654732 
L 131.101789 229.02046 
L 131.329047 229.059328 
L 131.52384 228.577237 
L 131.816029 227.82025 
L 132.173149 227.655635 
L 132.530269 227.775747 
L 132.692596 227.693804 
L 132.984785 227.450367 
L 133.179578 227.207864 
L 133.276975 227.14282 
L 133.699025 226.716012 
L 134.315869 226.462538 
L 134.640524 226.172155 
L 135.030109 225.923609 
L 135.224902 225.827335 
L 136.588451 224.456413 
L 136.815709 224.189064 
L 136.978036 224.17401 
L 137.140364 224.17209 
L 137.270225 224.175691 
L 137.367622 224.085763 
L 137.529949 224.056427 
L 137.659811 223.96933 
L 138.016931 223.38977 
L 138.081862 223.314779 
L 138.861033 221.879356 
L 139.348015 221.33629 
L 139.38048 221.372723 
L 139.445411 221.280506 
L 139.575273 221.207152 
L 139.607738 221.266915 
L 139.7376 221.253346 
L 140.419375 220.947969 
L 140.938822 221.323549 
L 141.068684 221.257282 
L 141.328407 220.745606 
L 141.912785 218.74901 
L 142.042647 218.857389 
L 142.302371 219.556959 
L 142.627025 220.21849 
L 142.756887 220.163403 
L 142.95168 219.785011 
L 143.600989 218.157155 
L 143.828247 218.119322 
L 144.055505 218.1296 
L 144.769745 219.423049 
L 144.834676 219.355732 
L 145.029469 219.061158 
L 145.548916 218.135429 
L 145.906036 218.125436 
L 146.230691 218.491095 
L 146.685207 218.517705 
L 146.977396 218.242386 
L 147.659171 217.72339 
L 147.918895 217.823418 
L 148.113687 217.87219 
L 148.243549 217.816914 
L 148.405876 217.747929 
L 149.509702 216.871591 
L 149.73696 216.715572 
L 149.899287 216.67312 
L 150.743389 217.094361 
L 151.52256 217.762961 
L 151.944611 218.189397 
L 152.399127 217.651474 
L 152.59392 217.530129 
L 152.95104 217.818306 
L 153.502953 218.683819 
L 153.892538 218.593097 
L 154.834036 218.02345 
L 155.126225 217.833002 
L 155.613207 217.576456 
L 155.743069 217.64361 
L 156.230051 218.166811 
L 156.424844 218.131221 
L 156.684567 217.89739 
L 157.268945 217.048415 
L 157.561135 217.054129 
L 157.820858 217.35269 
L 158.210444 217.856882 
L 158.794822 217.860521 
L 159.314269 217.586487 
L 159.801251 217.59753 
L 160.190836 217.592397 
L 160.645353 217.280753 
L 161.229731 216.672972 
L 161.619316 216.324425 
L 162.333556 215.842607 
L 162.658211 215.647992 
L 163.080262 215.198311 
L 163.989295 214.272049 
L 165.190516 212.222342 
L 166.002153 210.561394 
L 166.261876 210.241976 
L 166.943651 209.171883 
L 167.268305 208.688304 
L 167.852684 208.040626 
L 168.631855 206.886524 
L 169.216233 206.017971 
L 171.813469 201.513016 
L 172.105658 200.9906 
L 173.177018 198.743198 
L 173.501673 198.272589 
L 174.02112 197.14842 
L 174.670429 195.979914 
L 177.072873 191.607531 
L 177.689716 189.968632 
L 177.981905 189.671129 
L 178.403956 189.472169 
L 178.598749 189.148971 
L 179.345455 187.139243 
L 179.832436 185.816458 
L 181.16352 183.122356 
L 182.040087 180.578926 
L 182.689396 178.955931 
L 183.014051 178.359947 
L 183.890618 175.809595 
L 184.73472 172.980434 
L 185.124305 172.976215 
L 185.384029 172.411415 
L 185.546356 171.616831 
L 186.000873 169.549394 
L 186.487855 168.596544 
L 186.942371 167.832341 
L 187.754007 165.295143 
L 188.630575 163.187825 
L 188.955229 162.872937 
L 189.279884 162.490075 
L 189.637004 162.017102 
L 189.831796 161.395125 
L 190.546036 159.270172 
L 191.455069 158.507854 
L 191.617396 158.417842 
L 192.364102 156.633136 
L 193.143273 155.591239 
L 193.338065 155.41222 
L 194.539287 153.665796 
L 194.928873 153.378109 
L 196.130095 151.677526 
L 196.584611 151.302564 
L 196.8768 151.072585 
L 197.59104 150.338924 
L 197.94816 149.927612 
L 198.272815 149.591115 
L 199.311709 149.388178 
L 199.538967 149.223203 
L 199.896087 149.321444 
L 200.220742 149.54299 
L 200.480465 149.737237 
L 200.740189 149.555465 
L 200.999913 149.51243 
L 201.811549 149.724842 
L 202.298531 149.350867 
L 202.428393 149.289119 
L 202.655651 149.099278 
L 202.817978 149.115582 
L 203.045236 149.218738 
L 204.668509 149.344104 
L 204.960698 149.363724 
L 205.123025 149.484146 
L 205.415215 149.705941 
L 205.674938 149.722289 
L 205.837265 149.761694 
L 206.194385 149.549002 
L 206.583971 149.194347 
L 207.298211 149.85673 
L 207.979985 149.065996 
L 208.012451 149.100638 
L 208.337105 149.646098 
L 208.759156 150.445819 
L 208.986415 150.700993 
L 209.213673 150.658756 
L 211.616116 150.776692 
L 211.810909 151.059046 
L 212.103098 151.695636 
L 212.492684 152.027888 
L 213.141993 151.778582 
L 213.369251 151.844864 
L 213.888698 152.57375 
L 214.083491 152.539345 
L 214.245818 152.501365 
L 214.992524 153.116077 
L 215.219782 153.239427 
L 215.479505 153.541545 
L 215.739229 154.014581 
L 216.485935 154.455912 
L 217.037847 154.239873 
L 217.297571 154.187248 
L 217.654691 154.276743 
L 217.979345 154.531006 
L 218.141673 154.597918 
L 218.790982 155.352956 
L 218.953309 155.19262 
L 219.277964 154.783561 
L 219.440291 154.711583 
L 219.73248 154.702357 
L 219.894807 154.718067 
L 220.284393 154.258382 
L 220.479185 154.11302 
L 220.80384 154.809347 
L 221.16096 155.361406 
L 221.680407 155.576666 
L 221.810269 155.451748 
L 222.167389 155.075689 
L 222.297251 155.119565 
L 222.524509 155.576888 
L 222.914095 156.289765 
L 223.173818 156.33547 
L 223.368611 156.371538 
L 223.6608 156.324167 
L 223.790662 156.378971 
L 224.472436 156.806078 
L 224.634764 156.831188 
L 224.862022 156.885756 
L 225.771055 156.23044 
L 226.063244 156.693627 
L 226.777484 157.771216 
L 226.907345 157.771261 
L 227.199535 157.411924 
L 227.459258 157.121928 
L 227.621585 157.247963 
L 227.848844 157.524129 
L 228.30336 158.46165 
L 228.595549 158.288175 
L 228.920204 158.258889 
L 229.342255 158.367109 
L 229.634444 158.148966 
L 229.796771 158.139913 
L 229.926633 157.940355 
L 230.348684 157.306998 
L 230.770735 157.423667 
L 231.387578 157.857232 
L 231.679767 158.047359 
L 232.004422 158.334049 
L 232.329076 158.438369 
L 232.523869 158.191061 
L 232.848524 157.867184 
L 233.367971 157.582202 
L 233.919884 157.009699 
L 234.309469 156.375629 
L 234.536727 156.365227 
L 234.796451 156.623437 
L 235.023709 156.874155 
L 235.283433 156.760742 
L 235.80288 156.666116 
L 236.646982 157.496882 
L 237.036567 157.407437 
L 237.263825 157.18839 
L 237.556015 157.062257 
L 237.848204 156.844606 
L 238.075462 156.811999 
L 238.237789 156.808368 
L 238.887098 157.249615 
L 239.276684 156.998305 
L 239.568873 156.912325 
L 239.925993 157.147718 
L 240.153251 157.237179 
L 240.315578 157.278241 
L 240.477905 157.444014 
L 240.737629 157.710258 
L 241.029818 157.736023 
L 241.322007 157.562828 
L 241.87392 157.045563 
L 242.198575 156.924253 
L 242.523229 156.54663 
L 242.685556 156.624103 
L 243.172538 157.049303 
L 243.854313 156.680582 
L 244.049105 156.692424 
L 244.341295 156.549691 
L 244.763345 156.675863 
L 245.315258 156.215406 
L 245.672378 155.890621 
L 245.867171 155.938064 
L 246.094429 155.983948 
L 246.386618 155.856491 
L 246.646342 156.04323 
L 247.003462 156.500256 
L 247.035927 156.463525 
L 248.009891 155.57838 
L 248.367011 155.563554 
L 248.756596 155.549084 
L 249.01632 155.66845 
L 249.568233 155.408831 
L 250.217542 154.801354 
L 250.672058 154.560297 
L 250.866851 154.693829 
L 251.191505 154.931767 
L 251.581091 154.749147 
L 251.905745 154.495115 
L 252.165469 154.514058 
L 252.392727 154.452067 
L 253.918604 154.472513 
L 254.113396 154.523287 
L 254.470516 154.475293 
L 254.892567 154.315094 
L 255.736669 153.882718 
L 256.256116 154.316083 
L 256.418444 154.221487 
L 256.937891 153.98542 
L 257.652131 154.239981 
L 258.561164 153.794415 
L 258.755956 153.689716 
L 259.113076 153.629807 
L 259.3728 153.592931 
L 259.72992 153.479199 
L 260.476625 153.368838 
L 260.833745 153.484793 
L 261.028538 153.533213 
L 261.645382 153.337717 
L 262.294691 152.998712 
L 262.489484 153.003973 
L 263.138793 153.34227 
L 263.398516 153.217617 
L 263.65824 153.158648 
L 264.404945 152.986461 
L 264.891927 153.140378 
L 265.08672 153.105074 
L 266.482735 152.095018 
L 267.456698 151.649847 
L 267.94368 151.365006 
L 269.664349 151.247641 
L 270.44352 151.047344 
L 270.735709 151.057135 
L 271.612276 150.528562 
L 271.872 150.336442 
L 273.203084 150.005106 
L 273.917324 149.475579 
L 274.339375 149.46135 
L 275.280873 149.24014 
L 275.637993 148.887644 
L 275.930182 148.802379 
L 276.222371 148.808955 
L 276.936611 148.571595 
L 277.391127 148.415361 
L 279.663709 147.49302 
L 279.890967 147.467716 
L 284.273804 144.214118 
L 284.663389 143.994639 
L 284.988044 143.854216 
L 285.539956 143.52163 
L 286.903505 142.521178 
L 287.58528 142.227588 
L 288.429382 141.832459 
L 289.500742 141.524531 
L 290.08512 141.342427 
L 290.766895 141.26937 
L 291.059084 141.160295 
L 291.805789 140.789722 
L 292.162909 140.703353 
L 292.747287 140.451453 
L 294.403025 139.826329 
L 294.630284 139.730786 
L 296.318487 139.021628 
L 297.130124 138.590987 
L 298.104087 138.328225 
L 298.331345 138.324487 
L 299.175447 138.174186 
L 299.37024 138.135705 
L 300.116945 137.99728 
L 300.4416 137.891037 
L 300.733789 137.919039 
L 302.486924 137.459897 
L 303.688145 137.109849 
L 304.045265 137.031881 
L 304.856902 136.389761 
L 305.376349 136.104102 
L 305.993193 135.737854 
L 308.428102 134.99472 
L 308.785222 134.801978 
L 309.434531 134.203324 
L 310.08384 134.265754 
L 310.635753 134.06177 
L 311.025338 134.209211 
L 311.349993 134.130314 
L 312.259025 133.915783 
L 312.58368 133.950896 
L 313.038196 133.701874 
L 313.947229 132.842793 
L 314.174487 132.81543 
L 314.596538 132.656813 
L 314.856262 132.692064 
L 315.148451 132.609543 
L 316.025018 131.949764 
L 316.284742 131.813466 
L 316.739258 131.537046 
L 317.323636 130.55884 
L 317.713222 130.304155 
L 318.102807 130.283441 
L 318.232669 130.213556 
L 318.946909 129.404255 
L 319.304029 129.217478 
L 319.628684 128.618366 
L 319.985804 128.137991 
L 320.862371 127.521234 
L 321.381818 126.788376 
L 321.641542 126.713885 
L 321.998662 126.695335 
L 323.005091 125.844756 
L 323.492073 125.188382 
L 323.849193 124.934348 
L 324.271244 124.682033 
L 324.693295 124.296913 
L 324.888087 124.157111 
L 325.862051 123.318326 
L 326.121775 123.166171 
L 326.478895 122.927522 
L 326.673687 122.932419 
L 326.900945 122.914484 
L 327.355462 122.563439 
L 327.777513 122.191941 
L 327.972305 121.939485 
L 328.491753 121.295042 
L 328.946269 121.093963 
L 329.920233 120.409903 
L 330.504611 119.925337 
L 330.926662 119.688859 
L 332.322676 119.011915 
L 332.549935 118.895431 
L 332.777193 119.003531 
L 332.971985 119.033704 
L 334.108276 118.42261 
L 334.919913 118.162722 
L 335.114705 118.115552 
L 335.666618 117.677569 
L 336.1536 117.138302 
L 336.737978 116.440588 
L 337.711942 115.949306 
L 338.263855 115.790136 
L 339.302749 114.686145 
L 340.276713 114.422847 
L 340.958487 113.793403 
L 341.218211 113.684926 
L 341.607796 113.393182 
L 341.835055 113.415377 
L 343.393396 112.598971 
L 343.782982 112.235147 
L 344.042705 112.135105 
L 346.282822 110.856607 
L 346.575011 110.507426 
L 346.8672 110.474925 
L 347.061993 110.410409 
L 348.230749 109.961646 
L 348.782662 109.871558 
L 349.237178 109.542949 
L 349.821556 109.109466 
L 350.178676 109.078135 
L 350.860451 109.195138 
L 351.639622 108.77566 
L 352.451258 108.145319 
L 353.587549 108.381243 
L 354.886167 107.721621 
L 355.730269 107.565846 
L 356.054924 107.487722 
L 356.834095 107.115143 
L 357.450938 106.848274 
L 357.93792 106.764887 
L 358.262575 106.698379 
L 359.626124 106.236683 
L 360.210502 105.764816 
L 360.79488 105.504703 
L 361.444189 104.979099 
L 362.255825 104.050509 
L 362.807738 103.775498 
L 363.457047 103.182935 
L 364.171287 102.226677 
L 364.431011 102.059752 
L 364.853062 101.769138 
L 365.275113 101.301807 
L 365.924422 100.448605 
L 366.249076 100.237721 
L 367.287971 98.925892 
L 367.677556 98.476293 
L 368.456727 97.747727 
L 368.716451 97.798124 
L 368.976175 97.653388 
L 369.268364 97.078651 
L 369.820276 95.986968 
L 370.144931 95.766911 
L 370.339724 95.763143 
L 370.631913 95.474835 
L 370.79424 95.250092 
L 371.735738 93.996398 
L 372.417513 93.428438 
L 373.326545 92.681747 
L 373.878458 92.356194 
L 374.72256 91.309937 
L 375.891316 90.574562 
L 376.345833 90.311783 
L 376.930211 90.117529 
L 377.254865 90.057437 
L 377.449658 89.895391 
L 377.774313 89.669575 
L 378.066502 89.729423 
L 378.326225 89.788903 
L 378.780742 89.5902 
L 381.020858 88.541937 
L 381.50784 88.369982 
L 381.962356 88.182216 
L 382.124684 88.133294 
L 384.105076 87.061781 
L 385.014109 85.980624 
L 385.695884 85.377687 
L 385.858211 85.281437 
L 386.377658 84.975344 
L 386.799709 84.649892 
L 387.091898 84.477759 
L 387.643811 84.208841 
L 387.903535 84.0553 
L 388.682705 83.550457 
L 389.072291 83.555101 
L 389.332015 83.39536 
L 389.851462 83.058065 
L 390.338444 82.724123 
L 391.344873 81.909315 
L 391.604596 81.810585 
L 392.188975 81.08873 
L 392.57856 80.712228 
L 392.838284 80.587096 
L 393.098007 80.356311 
L 393.357731 80.17429 
L 395.273193 78.960257 
L 395.500451 78.79396 
L 396.214691 78.031719 
L 396.409484 77.986883 
L 396.961396 77.505338 
L 397.415913 77.156249 
L 397.870429 76.849675 
L 398.000291 76.754518 
L 398.487273 76.42503 
L 398.487273 76.42503 
" style="fill:none;stroke:#1f77b4;stroke-linecap:square;stroke-width:1.5;"/>
   </g>
   <g id="line2d_14">
    <path clip-path="url(#p378c811991)" d="M 73.832727 287.726826 
L 73.865193 287.731863 
L 74.124916 284.903205 
L 74.644364 291.103325 
L 74.871622 292.053228 
L 75.131345 291.957597 
L 75.423535 290.927885 
L 76.202705 286.10884 
L 77.079273 279.318543 
L 78.053236 271.738615 
L 79.871302 260.450673 
L 80.747869 254.72106 
L 81.332247 251.054381 
L 82.987985 240.910821 
L 83.410036 239.83616 
L 83.832087 237.799051 
L 84.319069 235.572104 
L 84.968378 233.926133 
L 85.195636 233.400623 
L 86.591651 229.690791 
L 87.59808 226.998584 
L 87.890269 226.223034 
L 88.279855 225.646065 
L 88.66944 225.467303 
L 88.864233 225.38845 
L 88.994095 225.159896 
L 89.318749 224.279386 
L 89.773265 223.104282 
L 90.032989 222.998826 
L 90.195316 223.011664 
L 90.422575 222.678803 
L 90.649833 222.050071 
L 91.461469 219.547684 
L 92.273105 219.231471 
L 92.630225 218.796104 
L 93.084742 218.16273 
L 93.798982 217.254076 
L 94.805411 214.72956 
L 94.870342 214.774309 
L 95.194996 215.035539 
L 95.389789 215.004444 
L 95.779375 214.753644 
L 96.331287 213.746081 
L 96.753338 213.293188 
L 97.207855 212.832215 
L 97.500044 212.6228 
L 97.759767 212.431495 
L 98.31168 211.599368 
L 98.6688 211.338667 
L 99.090851 211.556793 
L 99.350575 211.68134 
L 99.675229 211.802613 
L 99.967418 211.783193 
L 101.103709 210.592859 
L 101.298502 210.869602 
L 101.753018 211.775727 
L 101.980276 211.833429 
L 102.467258 211.73324 
L 102.856844 211.874427 
L 103.506153 210.834283 
L 104.090531 210.871705 
L 104.317789 211.327495 
L 104.545047 211.609076 
L 104.674909 211.567444 
L 104.837236 211.239231 
L 105.194356 210.386331 
L 105.356684 210.461241 
L 106.135855 211.123801 
L 106.460509 211.124845 
L 106.687767 211.114192 
L 106.88256 211.125376 
L 107.174749 211.267743 
L 107.986385 212.526925 
L 109.057745 210.946501 
L 109.252538 211.049105 
L 109.512262 211.533731 
L 109.836916 212.092923 
L 110.129105 212.004832 
L 110.388829 211.484808 
L 110.681018 210.971398 
L 110.81088 211.040879 
L 111.232931 211.335817 
L 111.719913 211.562793 
L 111.947171 211.742413 
L 112.141964 211.760275 
L 112.336756 212.121528 
L 112.726342 212.73596 
L 112.9536 212.722787 
L 113.213324 212.470742 
L 113.537978 211.994708 
L 114.089891 211.31744 
L 114.447011 210.637841 
L 114.609338 210.628809 
L 114.7392 210.77588 
L 115.258647 211.904773 
L 115.875491 212.315478 
L 116.070284 212.280134 
L 116.5248 212.540615 
L 116.622196 212.547174 
L 116.719593 212.471875 
L 116.752058 212.504061 
L 116.849455 212.501019 
L 117.076713 212.224874 
L 118.375331 211.266048 
L 119.251898 209.863222 
L 119.284364 209.92721 
L 119.771345 210.64791 
L 119.966138 210.768284 
L 120.193396 210.850832 
L 120.323258 210.725326 
L 120.875171 210.244329 
L 121.427084 210.304785 
L 121.556945 210.231987 
L 121.654342 210.247648 
L 121.686807 210.176027 
L 122.758167 209.753714 
L 123.115287 209.339071 
L 123.277615 209.467817 
L 123.764596 209.919696 
L 123.861993 209.898838 
L 124.02432 209.981663 
L 124.121716 209.979474 
L 124.413905 210.20284 
L 124.446371 210.162313 
L 124.511302 210.239279 
L 124.576233 210.351011 
L 124.641164 210.306528 
L 124.706095 210.231426 
L 124.771025 210.322294 
L 124.868422 210.340405 
L 124.900887 210.391737 
L 124.965818 210.33539 
L 125.225542 209.904146 
L 125.907316 209.931988 
L 126.069644 210.005811 
L 126.199505 209.900182 
L 126.52416 210.007754 
L 126.621556 209.948196 
L 126.654022 209.995736 
L 126.751418 210.008595 
L 126.946211 209.789031 
L 127.108538 209.948168 
L 127.205935 210.016136 
L 127.2384 209.954418 
L 127.400727 210.024287 
L 127.433193 209.995721 
L 127.498124 210.071273 
L 127.627985 210.189089 
L 128.082502 210.190367 
L 128.342225 209.815519 
L 128.374691 209.849856 
L 128.407156 209.82219 
L 128.439622 209.867256 
L 128.66688 210.183238 
L 128.764276 210.208768 
L 128.796742 210.27956 
L 128.861673 210.219334 
L 129.088931 209.979852 
L 129.348655 209.58679 
L 129.413585 209.70455 
L 129.640844 210.039587 
L 129.673309 209.9686 
L 129.73824 210.000757 
L 129.933033 210.347318 
L 130.127825 210.322945 
L 130.257687 210.482262 
L 130.290153 210.491775 
L 130.387549 210.688297 
L 130.420015 210.646849 
L 130.679738 210.547532 
L 130.8096 210.738369 
L 131.134255 210.687253 
L 131.264116 210.602893 
L 131.426444 210.56817 
L 131.458909 210.502468 
L 131.491375 210.527386 
L 131.653702 210.676741 
L 131.783564 210.656576 
L 131.913425 210.821718 
L 132.075753 211.147111 
L 132.757527 212.380708 
L 132.95232 212.450876 
L 133.341905 212.057973 
L 133.601629 211.882589 
L 133.796422 211.917064 
L 133.893818 212.004407 
L 134.348335 212.562905 
L 134.73792 212.712135 
L 135.224902 212.680692 
L 135.45216 212.696732 
L 135.646953 212.69554 
L 136.296262 213.108477 
L 136.458589 213.062115 
L 136.685847 213.092075 
L 136.978036 213.069921 
L 137.172829 213.194096 
L 137.400087 213.306083 
L 137.692276 213.322418 
L 138.081862 213.592375 
L 138.66624 213.018146 
L 138.893498 213.37106 
L 139.120756 213.59311 
L 139.38048 213.377347 
L 139.834996 212.845816 
L 139.964858 212.861679 
L 140.516771 213.223211 
L 141.068684 213.580604 
L 141.360873 213.788696 
L 141.945251 213.754829 
L 142.269905 213.722859 
L 142.529629 213.616136 
L 142.724422 213.686443 
L 143.471127 213.311289 
L 143.66592 213.353877 
L 144.217833 213.184599 
L 144.574953 213.330777 
L 144.802211 213.426409 
L 144.964538 213.219104 
L 145.256727 212.898835 
L 145.613847 212.843555 
L 145.906036 213.029651 
L 146.100829 213.131103 
L 146.52288 213.388109 
L 146.750138 213.223317 
L 147.172189 212.818626 
L 147.464378 212.582451 
L 147.496844 212.616718 
L 148.113687 213.076449 
L 148.373411 212.966377 
L 149.120116 212.470806 
L 149.282444 212.369366 
L 149.444771 212.503174 
L 149.769425 212.673661 
L 150.159011 213.092546 
L 150.353804 213.074121 
L 150.970647 212.6942 
L 151.587491 212.700684 
L 151.749818 212.729201 
L 152.042007 212.720749 
L 152.528989 212.725048 
L 152.691316 212.718766 
L 153.113367 212.53277 
L 153.892538 213.319808 
L 154.184727 213.70704 
L 154.217193 213.689106 
L 154.73664 213.522601 
L 155.028829 213.677705 
L 155.353484 213.607378 
L 155.840465 214.281169 
L 156.035258 214.375104 
L 156.230051 214.344462 
L 156.359913 214.310352 
L 157.204015 213.533428 
L 157.366342 213.699124 
L 158.015651 214.447625 
L 158.210444 214.426225 
L 158.794822 213.968168 
L 159.151942 213.932582 
L 159.866182 213.841843 
L 160.320698 213.966895 
L 160.80768 213.944641 
L 161.067404 214.233385 
L 161.229731 214.402414 
L 161.262196 214.381005 
L 161.781644 213.997759 
L 162.073833 213.363813 
L 162.366022 212.958165 
L 162.560815 212.88812 
L 162.9504 212.912488 
L 163.437382 212.754752 
L 163.891898 212.079498 
L 163.924364 212.103803 
L 164.086691 212.245421 
L 164.346415 212.427143 
L 164.606138 212.39015 
L 164.865862 212.253687 
L 165.060655 212.181384 
L 165.190516 212.21791 
L 165.45024 212.031161 
L 165.677498 212.080926 
L 165.872291 212.079787 
L 166.099549 212.228842 
L 166.456669 212.845459 
L 166.651462 213.026261 
L 166.846255 213.029199 
L 167.008582 213.016897 
L 167.560495 212.394928 
L 167.755287 212.264658 
L 168.079942 211.910713 
L 168.404596 212.071837 
L 168.599389 212.280098 
L 169.02144 213.213319 
L 169.183767 213.179394 
L 169.73568 212.471213 
L 170.125265 212.498495 
L 170.80704 213.526425 
L 171.066764 213.656651 
L 171.196625 213.477303 
L 171.326487 213.409868 
L 171.975796 213.737993 
L 172.267985 213.992965 
L 172.430313 213.965222 
L 173.30688 213.040349 
L 173.339345 213.068631 
L 173.728931 213.402962 
L 174.410705 213.437321 
L 174.800291 213.072506 
L 175.027549 212.957309 
L 175.189876 213.085863 
L 175.417135 213.221424 
L 175.514531 213.307803 
L 175.839185 213.577604 
L 176.261236 213.624973 
L 176.456029 213.511639 
L 176.715753 213.408985 
L 177.007942 213.456303 
L 177.202735 213.401544 
L 178.598749 213.260356 
L 178.761076 213.289898 
L 179.0208 213.177445 
L 179.442851 213.459467 
L 179.605178 213.370529 
L 179.994764 213.462078 
L 180.481745 213.171337 
L 180.741469 213.055273 
L 181.001193 213.05277 
L 181.228451 213.134767 
L 181.455709 213.052967 
L 182.137484 212.903746 
L 183.468567 212.852628 
L 184.929513 212.486084 
L 185.189236 212.474325 
L 185.578822 212.629162 
L 185.968407 212.242424 
L 186.487855 211.701288 
L 187.039767 211.409923 
L 187.364422 211.342211 
L 187.396887 211.451717 
L 187.461818 211.388637 
L 187.754007 211.284389 
L 188.046196 211.487796 
L 188.078662 211.596894 
L 188.176058 211.549449 
L 188.370851 211.544005 
L 188.630575 211.587438 
L 188.792902 211.636646 
L 189.117556 211.683682 
L 189.214953 211.653817 
L 189.247418 211.74406 
L 189.344815 211.687598 
L 189.37728 211.770504 
L 189.442211 211.707611 
L 189.701935 211.587728 
L 190.351244 211.360779 
L 191.390138 210.677463 
L 191.584931 210.811039 
L 191.617396 210.756015 
L 191.87712 210.551947 
L 192.006982 210.70547 
L 192.039447 210.667259 
L 192.266705 210.557348 
L 192.364102 210.604528 
L 192.396567 210.584849 
L 192.916015 210.445703 
L 193.208204 210.280266 
L 193.500393 210.175681 
L 193.532858 210.240239 
L 193.597789 210.174825 
L 193.889978 210.088205 
L 193.922444 210.145173 
L 193.987375 210.060026 
L 194.214633 209.94242 
L 194.344495 209.967836 
L 194.604218 209.776766 
L 195.156131 209.330851 
L 195.578182 208.898163 
L 195.675578 208.916537 
L 195.837905 208.721757 
L 195.870371 208.759642 
L 195.902836 208.682706 
L 196.227491 208.491059 
L 196.259956 208.53191 
L 196.292422 208.4755 
L 196.422284 208.409361 
L 196.454749 208.468698 
L 196.51968 208.408298 
L 196.649542 208.373395 
L 196.746938 208.460929 
L 196.779404 208.405617 
L 196.811869 208.438159 
L 196.844335 208.38552 
L 197.136524 208.196507 
L 198.435142 207.326662 
L 198.792262 207.046112 
L 198.824727 207.079221 
L 198.857193 207.009982 
L 199.116916 206.730343 
L 199.246778 206.749698 
L 199.311709 206.720687 
L 199.506502 206.371212 
L 199.571433 206.243758 
L 199.73376 206.037881 
L 199.863622 206.02728 
L 199.993484 205.891125 
L 200.025949 205.930423 
L 200.220742 205.833946 
L 200.512931 205.665901 
L 201.032378 205.342982 
L 201.292102 205.141334 
L 202.071273 204.541929 
L 202.395927 204.253323 
L 203.856873 203.149667 
L 203.986735 203.072106 
L 204.37632 202.658177 
L 204.993164 202.044269 
L 205.09056 201.929103 
L 205.382749 201.721926 
L 205.772335 201.553901 
L 206.129455 201.358496 
L 206.583971 201.260412 
L 206.811229 201.167095 
L 208.044916 200.161748 
L 209.635724 199.039144 
L 210.187636 198.192957 
L 210.869411 196.987279 
L 211.194065 196.796653 
L 211.681047 196.080562 
L 211.940771 195.820411 
L 212.362822 195.366255 
L 212.9472 194.839037 
L 213.077062 194.713209 
L 215.08992 193.443989 
L 215.284713 193.439923 
L 217.94688 191.620519 
L 218.563724 190.982636 
L 218.790982 190.78012 
L 219.180567 190.54313 
L 219.472756 190.467385 
L 220.381789 190.388779 
L 220.706444 190.090674 
L 221.063564 189.639824 
L 222.069993 188.907636 
L 222.394647 188.759746 
L 223.206284 187.909525 
L 223.628335 187.853418 
L 223.920524 187.741331 
L 224.797091 188.106919 
L 225.154211 187.858179 
L 225.998313 186.995701 
L 226.322967 186.833545 
L 226.842415 186.997943 
L 227.069673 187.024815 
L 227.459258 187.00855 
L 227.654051 186.880933 
L 227.881309 186.785851 
L 228.076102 186.820943 
L 228.335825 186.59481 
L 228.790342 186.030675 
L 229.147462 186.565515 
L 229.504582 187.242187 
L 229.601978 187.034239 
L 229.991564 186.122228 
L 230.056495 186.042245 
L 230.08896 186.145332 
L 230.218822 183.819214 
L 230.283753 184.921642 
L 230.316218 183.37044 
L 230.381149 184.673704 
L 230.413615 185.033524 
L 230.44608 183.366926 
L 230.511011 185.07654 
L 230.738269 187.062573 
L 230.868131 187.151209 
L 231.030458 186.939387 
L 231.51744 186.260466 
L 231.712233 186.224565 
L 232.004422 186.604909 
L 232.783593 188.193194 
L 232.816058 188.155512 
L 232.848524 187.533203 
L 232.913455 187.998348 
L 232.94592 188.124289 
L 232.978385 187.114483 
L 233.043316 188.312213 
L 233.30304 189.45232 
L 233.432902 189.522172 
L 233.627695 189.238676 
L 234.01728 189.122756 
L 234.147142 189.129418 
L 234.569193 188.896259 
L 235.705484 190.070876 
L 236.646982 191.876831 
L 236.971636 191.564651 
L 237.718342 189.997236 
L 237.750807 190.018577 
L 237.913135 190.27872 
L 238.367651 191.901635 
L 238.562444 192.42568 
L 238.692305 192.423542 
L 238.822167 192.063667 
L 239.568873 189.111889 
L 239.698735 189.265385 
L 239.7312 189.667783 
L 239.828596 189.550863 
L 240.055855 189.506652 
L 240.315578 189.536478 
L 240.640233 189.619581 
L 241.062284 189.171959 
L 241.744058 187.926692 
L 242.425833 186.83285 
L 243.367331 185.022522 
L 243.691985 184.47431 
L 245.055535 182.714883 
L 245.574982 182.465309 
L 245.672378 182.550164 
L 245.704844 182.505451 
L 245.899636 182.590302 
L 246.094429 182.541524 
L 246.224291 182.539071 
L 246.613876 183.080758 
L 246.938531 186.983497 
L 247.263185 192.411537 
L 247.490444 193.579998 
L 247.58784 193.492021 
L 247.880029 192.23947 
L 248.334545 190.549955 
L 249.113716 189.637181 
L 249.243578 189.552949 
L 249.405905 189.191188 
L 249.990284 187.884311 
L 250.185076 187.523332 
L 250.704524 186.003804 
L 250.80192 186.033901 
L 251.483695 187.192876 
L 251.678487 186.662699 
L 251.87328 185.539821 
L 252.262865 183.641395 
L 252.425193 183.43001 
L 252.522589 183.572295 
L 252.879709 184.291397 
L 253.106967 184.354054 
L 253.366691 183.795699 
L 253.886138 182.186312 
L 254.438051 180.432389 
L 254.697775 180.173897 
L 255.08736 180.11556 
L 255.412015 179.897714 
L 256.288582 178.890898 
L 256.840495 176.138931 
L 257.100218 175.287399 
L 257.295011 175.257302 
L 257.846924 175.91535 
L 258.041716 175.434704 
L 259.01568 172.948877 
L 259.405265 172.563259 
L 259.567593 172.427767 
L 259.794851 171.961981 
L 260.184436 170.764252 
L 260.476625 170.56424 
L 260.736349 170.471799 
L 261.450589 169.233554 
L 261.677847 168.997086 
L 261.840175 168.720802 
L 262.262225 168.002918 
L 262.424553 167.545829 
L 262.911535 166.295465 
L 263.236189 165.900948 
L 263.398516 165.705312 
L 263.65824 165.45236 
L 263.820567 165.355271 
L 264.080291 165.236285 
L 264.404945 165.45154 
L 264.567273 165.218312 
L 265.08672 163.708437 
L 265.313978 163.625779 
L 265.508771 163.255985 
L 265.995753 162.531613 
L 266.287942 162.314793 
L 266.87232 160.836371 
L 267.424233 159.181438 
L 268.138473 157.241519 
L 268.333265 157.249858 
L 268.463127 157.253253 
L 268.625455 157.045282 
L 269.274764 155.522985 
L 269.534487 155.297838 
L 269.924073 154.434448 
L 270.183796 153.640743 
L 270.768175 151.256527 
L 271.125295 150.902303 
L 271.385018 150.819844 
L 271.51488 150.698016 
L 272.58624 148.44658 
L 273.527738 145.977267 
L 273.787462 145.728791 
L 273.982255 145.598604 
L 274.404305 144.276456 
L 276.060044 139.236808 
L 276.839215 137.144279 
L 277.196335 136.020561 
L 277.488524 135.511318 
L 278.235229 132.95912 
L 278.559884 131.844856 
L 278.819607 131.482194 
L 279.144262 130.108436 
L 279.826036 127.558198 
L 280.020829 127.243521 
L 281.092189 124.291585 
L 281.286982 123.971565 
L 282.618065 119.563988 
L 283.007651 117.625376 
L 283.884218 112.973088 
L 285.08544 109.918185 
L 285.345164 109.060898 
L 286.221731 105.508054 
L 286.448989 104.950226 
L 286.935971 103.355135 
L 287.130764 103.194157 
L 287.487884 101.967375 
L 288.429382 98.329008 
L 289.078691 94.574839 
L 289.403345 93.773681 
L 290.08512 91.747497 
L 290.994153 87.939719 
L 291.383738 87.309919 
L 291.578531 87.059455 
L 291.675927 86.990148 
L 293.039476 84.086304 
L 293.234269 83.679395 
L 293.558924 82.54626 
L 293.786182 81.725854 
L 294.143302 80.356753 
L 294.500422 78.917316 
L 294.954938 77.848465 
L 295.279593 77.488623 
L 295.539316 76.621063 
L 295.831505 75.702198 
L 296.058764 75.964842 
L 296.221091 76.097833 
L 296.318487 76.023177 
L 296.51328 75.572638 
L 296.740538 74.692448 
L 296.967796 74.021083 
L 297.422313 72.822324 
L 297.746967 72.171445 
L 298.623535 70.588938 
L 298.656 70.628727 
L 298.785862 70.638188 
L 300.149411 68.602865 
L 300.603927 66.97314 
L 300.831185 66.99153 
L 301.285702 67.238272 
L 301.480495 66.920865 
L 301.740218 66.587458 
L 301.837615 66.476357 
L 302.779113 64.990691 
L 303.006371 64.71438 
L 303.233629 64.613915 
L 303.428422 64.562638 
L 303.590749 64.504802 
L 303.915404 63.879725 
L 304.434851 62.837193 
L 305.051695 62.022578 
L 305.246487 62.03212 
L 306.090589 61.865906 
L 306.252916 61.96558 
L 306.285382 61.905738 
L 306.610036 61.177777 
L 307.129484 59.494661 
L 307.421673 58.828754 
L 307.843724 58.385 
L 308.070982 58.328803 
L 308.330705 58.413508 
L 308.590429 58.637328 
L 308.980015 58.942257 
L 309.01248 58.898228 
L 309.694255 57.751302 
L 310.473425 58.146554 
L 310.603287 58.163313 
L 311.577251 57.489424 
L 311.772044 57.555494 
L 311.966836 57.371715 
L 312.161629 57.076736 
L 312.453818 57.325179 
L 312.648611 57.51754 
L 312.9408 57.929974 
L 313.103127 57.433731 
L 313.427782 56.574901 
L 313.719971 56.066778 
L 313.882298 56.119745 
L 314.206953 56.435213 
L 314.434211 56.425317 
L 314.629004 56.328328 
L 315.148451 55.37452 
L 315.375709 55.331754 
L 315.538036 55.373363 
L 316.447069 56.556043 
L 316.479535 56.509482 
L 316.771724 55.884979 
L 317.031447 55.357857 
L 317.485964 55.199807 
L 317.745687 54.928311 
L 318.005411 55.060012 
L 318.200204 55.098766 
L 318.362531 55.06157 
L 318.979375 55.007394 
L 319.628684 54.021902 
L 319.953338 53.939267 
L 320.472785 54.292548 
L 320.635113 54.313853 
L 320.992233 54.055521 
L 321.381818 53.775013 
L 321.901265 53.782555 
L 322.160989 53.584586 
L 322.290851 53.633904 
L 322.485644 53.79209 
L 323.070022 54.759069 
L 323.102487 54.737497 
L 323.751796 54.308431 
L 324.141382 54.734525 
L 324.595898 55.480294 
L 325.212742 55.903336 
L 325.375069 55.979803 
L 325.634793 56.025406 
L 326.219171 55.794882 
L 326.706153 55.717384 
L 326.965876 55.879619 
L 327.258065 56.099027 
L 327.452858 56.380014 
L 327.809978 56.819793 
L 328.069702 56.809285 
L 328.199564 56.831224 
L 328.783942 57.370259 
L 329.108596 57.362784 
L 329.36832 57.293807 
L 329.530647 57.471555 
L 329.985164 57.91187 
L 330.277353 58.063139 
L 330.407215 58.124998 
L 330.569542 58.32083 
L 330.829265 58.587231 
L 331.218851 58.566118 
L 331.86816 59.090558 
L 331.933091 59.002618 
L 332.290211 58.80221 
L 333.264175 59.152249 
L 333.783622 58.764578 
L 334.303069 59.185774 
L 334.595258 59.451002 
L 335.179636 59.321162 
L 335.374429 59.38579 
L 335.699084 59.525279 
L 335.893876 59.51082 
L 336.1536 59.616387 
L 336.965236 60.199948 
L 337.160029 60.030532 
L 337.354822 59.983705 
L 337.517149 59.99507 
L 337.874269 59.751204 
L 338.101527 59.546774 
L 338.29632 59.436554 
L 338.848233 59.966913 
L 339.302749 59.999645 
L 339.530007 60.12226 
L 339.854662 59.991869 
L 340.049455 59.952088 
L 340.471505 59.925428 
L 340.861091 60.142857 
L 341.120815 60.397352 
L 341.283142 60.383824 
L 341.672727 59.930736 
L 342.127244 59.904549 
L 342.289571 59.872198 
L 342.516829 60.033935 
L 342.841484 59.849268 
L 343.360931 59.998309 
L 343.782982 60.357227 
L 344.042705 60.711387 
L 344.237498 60.925678 
L 344.432291 60.943063 
L 344.562153 60.875691 
L 345.016669 60.437805 
L 345.568582 60.852774 
L 346.185425 61.704452 
L 346.899665 61.777292 
L 347.484044 62.290635 
L 347.808698 62.262796 
L 348.393076 62.165242 
L 348.620335 62.226172 
L 349.529367 61.749187 
L 349.756625 61.707964 
L 350.048815 61.626269 
L 350.4384 61.317517 
L 350.957847 61.512581 
L 351.15264 61.61436 
L 351.412364 61.894062 
L 351.769484 62.109679 
L 352.029207 62.260669 
L 352.191535 62.225096 
L 352.451258 62.383915 
L 352.646051 62.231178 
L 352.905775 61.991895 
L 354.36672 63.184462 
L 354.691375 62.961409 
L 355.016029 62.823908 
L 355.178356 62.81188 
L 355.308218 62.727269 
L 355.535476 62.563761 
L 355.827665 62.673638 
L 356.054924 62.62496 
L 356.931491 62.820881 
L 357.126284 62.763997 
L 357.905455 63.653328 
L 358.035316 63.710979 
L 358.327505 64.085792 
L 358.489833 64.129116 
L 358.619695 64.073105 
L 359.106676 63.787058 
L 359.950778 64.161913 
L 360.178036 64.249268 
L 360.340364 64.241353 
L 360.697484 64.270098 
L 360.924742 64.207225 
L 361.152 64.264219 
L 361.606516 64.437685 
L 361.768844 64.464836 
L 362.093498 64.681647 
L 362.807738 64.481046 
L 363.164858 64.218682 
L 363.424582 64.299979 
L 363.944029 64.535249 
L 364.106356 64.516226 
L 364.36608 64.509407 
L 364.788131 64.967205 
L 365.177716 65.215255 
L 365.372509 65.232264 
L 365.599767 65.244392 
L 365.79456 65.234729 
L 366.119215 65.33198 
L 366.606196 65.096232 
L 366.963316 65.470689 
L 367.417833 65.919089 
L 367.58016 65.889594 
L 367.839884 66.208875 
L 368.456727 67.222745 
L 368.813847 66.965993 
L 369.073571 67.017211 
L 369.560553 67.054634 
L 369.852742 67.156581 
L 370.956567 68.466228 
L 371.281222 68.358325 
L 371.573411 68.409804 
L 371.930531 68.780532 
L 372.190255 68.961821 
L 372.677236 69.209315 
L 372.93696 68.95604 
L 373.359011 69.071587 
L 373.748596 69.398494 
L 373.910924 69.398598 
L 374.040785 69.289106 
L 374.170647 69.198893 
L 374.203113 69.225331 
L 374.430371 69.266644 
L 374.819956 69.605301 
L 375.209542 69.776955 
L 375.534196 69.941858 
L 375.79392 70.135133 
L 376.215971 70.532378 
L 376.573091 70.889615 
L 376.832815 70.759644 
L 377.319796 70.610868 
L 377.57952 70.825776 
L 377.774313 70.839384 
L 378.098967 70.810251 
L 379.040465 71.564118 
L 379.397585 71.516235 
L 380.404015 71.628695 
L 380.566342 71.671024 
L 381.442909 72.135143 
L 381.637702 71.905747 
L 381.962356 71.6836 
L 382.514269 71.917404 
L 382.903855 72.34929 
L 383.423302 72.793652 
L 383.65056 72.821233 
L 383.877818 72.915267 
L 384.299869 72.931973 
L 384.494662 73.025543 
L 384.819316 73.438954 
L 385.07904 73.626914 
L 385.468625 73.854021 
L 386.182865 74.209925 
L 386.50752 74.307081 
L 386.702313 74.489537 
L 387.22176 74.854837 
L 387.384087 74.756634 
L 387.936 74.696006 
L 388.163258 74.837277 
L 388.487913 74.902776 
L 389.169687 74.545284 
L 389.591738 74.796679 
L 390.43584 75.909098 
L 390.955287 75.861301 
L 391.247476 75.829379 
L 391.604596 75.616246 
L 391.799389 75.430277 
L 391.831855 75.470589 
L 392.383767 76.052264 
L 393.227869 76.460056 
L 393.844713 77.202621 
L 394.494022 76.839868 
L 394.786211 77.110658 
L 395.175796 77.179376 
L 395.467985 77.292348 
L 395.630313 77.330354 
L 396.766604 77.536776 
L 396.928931 77.57879 
L 397.610705 78.432894 
L 397.837964 78.413542 
L 398.487273 78.632494 
L 398.487273 78.632494 
" style="fill:none;stroke:#ff7f0e;stroke-linecap:square;stroke-width:1.5;"/>
   </g>
   <g id="line2d_15">
    <path clip-path="url(#p378c811991)" d="M 73.832727 295.216584 
L 73.865193 295.487378 
L 74.02752 278.307679 
L 74.319709 256.128052 
L 74.546967 292.587673 
L 74.579433 290.546958 
L 74.676829 274.741803 
L 74.74176 277.685886 
L 74.904087 284.501984 
L 75.09888 286.698509 
L 75.163811 286.345227 
L 75.391069 282.881522 
L 76.332567 264.081218 
L 77.468858 242.315331 
L 78.67008 224.15264 
L 79.806371 209.7184 
L 80.682938 201.258828 
L 81.494575 195.394413 
L 82.208815 191.703487 
L 82.825658 189.56137 
L 83.507433 187.975991 
L 84.156742 186.965603 
L 84.611258 186.608447 
L 84.935913 186.363547 
L 85.195636 186.291709 
L 85.520291 186.480968 
L 86.039738 187.097204 
L 86.818909 188.39976 
L 87.695476 190.31276 
L 88.117527 191.574013 
L 88.31232 192.233009 
L 88.799302 193.182124 
L 89.448611 194.983944 
L 94.772945 210.93333 
L 96.363753 214.773047 
L 99.220713 220.923525 
L 102.207535 227.67418 
L 104.804771 234.074961 
L 107.466938 241.329329 
L 111.362793 251.895737 
L 113.343185 256.698394 
L 114.804131 259.649263 
L 116.265076 262.111769 
L 117.303971 263.462718 
L 118.213004 264.305058 
L 118.992175 264.736228 
L 119.673949 264.865039 
L 120.290793 264.74687 
L 120.940102 264.377267 
L 121.686807 263.67023 
L 122.563375 262.512857 
L 123.017891 261.796782 
L 123.245149 262.843211 
L 124.316509 265.863904 
L 124.543767 266.29741 
L 124.576233 266.176012 
L 124.73856 265.986574 
L 125.030749 266.207959 
L 125.680058 266.712472 
L 126.394298 266.973126 
L 127.076073 266.988991 
L 127.822778 266.779329 
L 128.66688 266.296424 
L 130.549876 265.108989 
L 131.101789 264.742183 
L 132.23808 263.607887 
L 134.445731 261.161128 
L 136.036538 259.063279 
L 139.445411 254.524653 
L 141.653062 251.867568 
L 143.503593 250.107765 
L 147.23712 247.116215 
L 149.120116 245.263389 
L 149.704495 244.681288 
L 151.490095 242.874826 
L 153.502953 240.999174 
L 155.613207 239.417579 
L 157.528669 238.234712 
L 159.184407 237.43697 
L 160.45056 237.078996 
L 160.677818 237.03494 
L 161.132335 236.899332 
L 161.359593 236.85714 
L 161.814109 236.725347 
L 162.041367 236.682662 
L 162.495884 236.548755 
L 162.723142 236.50593 
L 163.177658 236.372531 
L 163.404916 236.330187 
L 163.859433 236.199165 
L 164.086691 236.15737 
L 164.541207 236.03188 
L 164.833396 235.964147 
L 165.190516 235.893269 
L 165.742429 235.757959 
L 167.398167 235.378277 
L 168.274735 235.154099 
L 168.729251 235.035382 
L 171.456349 234.175397 
L 183.143913 230.748816 
L 189.312349 229.062989 
L 198.013091 226.610864 
L 204.765905 225.075285 
L 211.583651 223.63431 
L 211.713513 224.033748 
L 211.843375 224.059865 
L 212.005702 223.768841 
L 212.038167 224.015162 
L 212.070633 223.753887 
L 212.103098 223.955913 
L 212.200495 223.647834 
L 212.23296 223.858869 
L 212.265425 223.598243 
L 212.297891 223.811317 
L 212.395287 223.505712 
L 212.427753 223.716609 
L 212.460218 223.461391 
L 212.492684 223.670483 
L 212.59008 223.376069 
L 212.622545 223.581229 
L 212.655011 223.337582 
L 212.687476 223.541355 
L 212.784873 223.268955 
L 212.817338 223.470916 
L 212.849804 223.238941 
L 212.882269 223.440355 
L 212.979665 223.186834 
L 213.012131 223.388919 
L 213.044596 223.164617 
L 213.077062 223.368201 
L 213.174458 223.127184 
L 213.206924 223.336655 
L 213.239389 223.112329 
L 213.271855 223.324815 
L 213.369251 223.086631 
L 213.434182 223.075772 
L 213.466647 223.303198 
L 213.564044 223.057456 
L 213.66144 223.295975 
L 213.758836 223.034911 
L 213.856233 223.296923 
L 213.953629 223.016132 
L 214.01856 223.007405 
L 214.051025 223.288922 
L 214.148422 222.986263 
L 214.180887 223.277123 
L 214.213353 222.973325 
L 214.245818 223.267505 
L 214.343215 222.953597 
L 214.37568 223.221299 
L 214.408145 222.934639 
L 214.440611 223.191122 
L 214.538007 222.87578 
L 214.570473 223.128411 
L 214.602938 222.839764 
L 214.635404 223.098852 
L 214.7328 222.770809 
L 214.765265 223.049583 
L 214.797731 222.750788 
L 214.830196 223.02507 
L 214.927593 222.711092 
L 214.960058 222.981295 
L 214.992524 222.693403 
L 215.024989 222.962064 
L 215.122385 222.663044 
L 215.154851 222.930084 
L 215.187316 222.650251 
L 215.219782 222.917356 
L 215.317178 222.628936 
L 215.349644 222.89779 
L 215.414575 222.888355 
L 215.44704 222.764328 
L 215.511971 222.83907 
L 215.674298 222.836941 
L 215.966487 222.688806 
L 216.063884 222.778902 
L 216.226211 222.718905 
L 216.388538 222.759222 
L 216.550865 222.720022 
L 216.713193 222.751095 
L 216.87552 222.727293 
L 217.167709 222.734656 
L 217.654691 222.733578 
L 219.829876 222.685207 
L 221.16096 222.406396 
L 222.037527 222.011281 
L 222.784233 221.485633 
L 224.050385 220.250856 
L 224.862022 219.212851 
L 225.316538 218.673947 
L 227.004742 216.742281 
L 229.179927 214.482611 
L 232.199215 211.724419 
L 233.270575 210.898385 
L 234.244538 210.190171 
L 235.121105 209.583193 
L 236.841775 208.842047 
L 238.789702 208.841648 
L 240.120785 209.270828 
L 241.322007 209.914098 
L 242.782953 210.951909 
L 244.601018 212.537281 
L 246.386618 214.35911 
L 247.003462 214.949273 
L 247.58784 215.160314 
L 248.529338 215.624204 
L 250.834385 217.027898 
L 256.256116 219.778018 
L 258.30144 220.511274 
L 260.80128 221.164783 
L 263.625775 221.674665 
L 266.677527 221.995189 
L 270.021469 222.118376 
L 272.813498 222.018953 
L 273.040756 221.78127 
L 273.365411 221.63247 
L 273.982255 221.643489 
L 274.534167 221.528871 
L 275.345804 221.284206 
L 278.592349 220.734217 
L 281.644102 220.099443 
L 282.94272 219.700591 
L 283.592029 219.51921 
L 285.215302 219.133477 
L 286.838575 218.789634 
L 287.033367 218.802978 
L 287.845004 218.529718 
L 293.201804 217.652056 
L 297.779433 217.168318 
L 303.493353 216.841835 
L 310.246167 216.713355 
L 316.804189 216.482905 
L 322.128524 216.074852 
L 328.232029 215.370876 
L 332.290211 214.690409 
L 336.543185 213.745937 
L 341.802589 212.333489 
L 349.691695 210.203516 
L 352.710982 209.666878 
L 354.042065 209.497658 
L 354.171927 209.650079 
L 354.204393 209.638105 
L 354.334255 209.65583 
L 355.08096 209.06197 
L 356.314647 209.096444 
L 358.587229 209.08459 
L 358.911884 209.29027 
L 359.431331 209.340675 
L 360.210502 209.141989 
L 361.184465 209.012157 
L 362.9376 209.062358 
L 369.852742 209.602654 
L 373.29408 210.055885 
L 373.456407 210.246478 
L 374.430371 210.050302 
L 377.319796 210.445956 
L 380.111825 210.504876 
L 385.955607 209.979706 
L 392.611025 209.040729 
L 395.79264 208.960142 
L 398.487273 208.979345 
L 398.487273 208.979345 
" style="fill:none;stroke:#bf00bf;stroke-linecap:square;stroke-width:1.5;"/>
   </g>
   <g id="patch_3">
    <path d="M 57.6 307.584 
L 57.6 41.472 
" style="fill:none;stroke:#000000;stroke-linecap:square;stroke-linejoin:miter;stroke-width:0.8;"/>
   </g>
   <g id="patch_4">
    <path d="M 414.72 307.584 
L 414.72 41.472 
" style="fill:none;stroke:#000000;stroke-linecap:square;stroke-linejoin:miter;stroke-width:0.8;"/>
   </g>
   <g id="patch_5">
    <path d="M 57.6 307.584 
L 414.72 307.584 
" style="fill:none;stroke:#000000;stroke-linecap:square;stroke-linejoin:miter;stroke-width:0.8;"/>
   </g>
   <g id="patch_6">
    <path d="M 57.6 41.472 
L 414.72 41.472 
" style="fill:none;stroke:#000000;stroke-linecap:square;stroke-linejoin:miter;stroke-width:0.8;"/>
   </g>
   <g id="text_15">
    <!-- Plot of Object pose error norm over a single episode  -->
    <g transform="translate(77.670938 8.59725)scale(0.12 -0.12)">
     <defs>
      <path d="M 19.671875 64.796875 
L 19.671875 37.40625 
L 32.078125 37.40625 
Q 38.96875 37.40625 42.71875 40.96875 
Q 46.484375 44.53125 46.484375 51.125 
Q 46.484375 57.671875 42.71875 61.234375 
Q 38.96875 64.796875 32.078125 64.796875 
z
M 9.8125 72.90625 
L 32.078125 72.90625 
Q 44.34375 72.90625 50.609375 67.359375 
Q 56.890625 61.8125 56.890625 51.125 
Q 56.890625 40.328125 50.609375 34.8125 
Q 44.34375 29.296875 32.078125 29.296875 
L 19.671875 29.296875 
L 19.671875 0 
L 9.8125 0 
z
" id="DejaVuSans-80"/>
      <path d="M 9.421875 75.984375 
L 18.40625 75.984375 
L 18.40625 0 
L 9.421875 0 
z
" id="DejaVuSans-108"/>
      <path id="DejaVuSans-32"/>
      <path d="M 37.109375 75.984375 
L 37.109375 68.5 
L 28.515625 68.5 
Q 23.6875 68.5 21.796875 66.546875 
Q 19.921875 64.59375 19.921875 59.515625 
L 19.921875 54.6875 
L 34.71875 54.6875 
L 34.71875 47.703125 
L 19.921875 47.703125 
L 19.921875 0 
L 10.890625 0 
L 10.890625 47.703125 
L 2.296875 47.703125 
L 2.296875 54.6875 
L 10.890625 54.6875 
L 10.890625 58.5 
Q 10.890625 67.625 15.140625 71.796875 
Q 19.390625 75.984375 28.609375 75.984375 
z
" id="DejaVuSans-102"/>
      <path d="M 48.78125 52.59375 
L 48.78125 44.1875 
Q 44.96875 46.296875 41.140625 47.34375 
Q 37.3125 48.390625 33.40625 48.390625 
Q 24.65625 48.390625 19.8125 42.84375 
Q 14.984375 37.3125 14.984375 27.296875 
Q 14.984375 17.28125 19.8125 11.734375 
Q 24.65625 6.203125 33.40625 6.203125 
Q 37.3125 6.203125 41.140625 7.25 
Q 44.96875 8.296875 48.78125 10.40625 
L 48.78125 2.09375 
Q 45.015625 0.34375 40.984375 -0.53125 
Q 36.96875 -1.421875 32.421875 -1.421875 
Q 20.0625 -1.421875 12.78125 6.34375 
Q 5.515625 14.109375 5.515625 27.296875 
Q 5.515625 40.671875 12.859375 48.328125 
Q 20.21875 56 33.015625 56 
Q 37.15625 56 41.109375 55.140625 
Q 45.0625 54.296875 48.78125 52.59375 
z
" id="DejaVuSans-99"/>
      <path d="M 2.984375 54.6875 
L 12.5 54.6875 
L 29.59375 8.796875 
L 46.6875 54.6875 
L 56.203125 54.6875 
L 35.6875 0 
L 23.484375 0 
z
" id="DejaVuSans-118"/>
      <path d="M 34.28125 27.484375 
Q 23.390625 27.484375 19.1875 25 
Q 14.984375 22.515625 14.984375 16.5 
Q 14.984375 11.71875 18.140625 8.90625 
Q 21.296875 6.109375 26.703125 6.109375 
Q 34.1875 6.109375 38.703125 11.40625 
Q 43.21875 16.703125 43.21875 25.484375 
L 43.21875 27.484375 
z
M 52.203125 31.203125 
L 52.203125 0 
L 43.21875 0 
L 43.21875 8.296875 
Q 40.140625 3.328125 35.546875 0.953125 
Q 30.953125 -1.421875 24.3125 -1.421875 
Q 15.921875 -1.421875 10.953125 3.296875 
Q 6 8.015625 6 15.921875 
Q 6 25.140625 12.171875 29.828125 
Q 18.359375 34.515625 30.609375 34.515625 
L 43.21875 34.515625 
L 43.21875 35.40625 
Q 43.21875 41.609375 39.140625 45 
Q 35.0625 48.390625 27.6875 48.390625 
Q 23 48.390625 18.546875 47.265625 
Q 14.109375 46.140625 10.015625 43.890625 
L 10.015625 52.203125 
Q 14.9375 54.109375 19.578125 55.046875 
Q 24.21875 56 28.609375 56 
Q 40.484375 56 46.34375 49.84375 
Q 52.203125 43.703125 52.203125 31.203125 
z
" id="DejaVuSans-97"/>
      <path d="M 45.40625 27.984375 
Q 45.40625 37.75 41.375 43.109375 
Q 37.359375 48.484375 30.078125 48.484375 
Q 22.859375 48.484375 18.828125 43.109375 
Q 14.796875 37.75 14.796875 27.984375 
Q 14.796875 18.265625 18.828125 12.890625 
Q 22.859375 7.515625 30.078125 7.515625 
Q 37.359375 7.515625 41.375 12.890625 
Q 45.40625 18.265625 45.40625 27.984375 
z
M 54.390625 6.78125 
Q 54.390625 -7.171875 48.1875 -13.984375 
Q 42 -20.796875 29.203125 -20.796875 
Q 24.46875 -20.796875 20.265625 -20.09375 
Q 16.0625 -19.390625 12.109375 -17.921875 
L 12.109375 -9.1875 
Q 16.0625 -11.328125 19.921875 -12.34375 
Q 23.78125 -13.375 27.78125 -13.375 
Q 36.625 -13.375 41.015625 -8.765625 
Q 45.40625 -4.15625 45.40625 5.171875 
L 45.40625 9.625 
Q 42.625 4.78125 38.28125 2.390625 
Q 33.9375 0 27.875 0 
Q 17.828125 0 11.671875 7.65625 
Q 5.515625 15.328125 5.515625 27.984375 
Q 5.515625 40.671875 11.671875 48.328125 
Q 17.828125 56 27.875 56 
Q 33.9375 56 38.28125 53.609375 
Q 42.625 51.21875 45.40625 46.390625 
L 45.40625 54.6875 
L 54.390625 54.6875 
z
" id="DejaVuSans-103"/>
      <path d="M 45.40625 46.390625 
L 45.40625 75.984375 
L 54.390625 75.984375 
L 54.390625 0 
L 45.40625 0 
L 45.40625 8.203125 
Q 42.578125 3.328125 38.25 0.953125 
Q 33.9375 -1.421875 27.875 -1.421875 
Q 17.96875 -1.421875 11.734375 6.484375 
Q 5.515625 14.40625 5.515625 27.296875 
Q 5.515625 40.1875 11.734375 48.09375 
Q 17.96875 56 27.875 56 
Q 33.9375 56 38.25 53.625 
Q 42.578125 51.265625 45.40625 46.390625 
z
M 14.796875 27.296875 
Q 14.796875 17.390625 18.875 11.75 
Q 22.953125 6.109375 30.078125 6.109375 
Q 37.203125 6.109375 41.296875 11.75 
Q 45.40625 17.390625 45.40625 27.296875 
Q 45.40625 37.203125 41.296875 42.84375 
Q 37.203125 48.484375 30.078125 48.484375 
Q 22.953125 48.484375 18.875 42.84375 
Q 14.796875 37.203125 14.796875 27.296875 
z
" id="DejaVuSans-100"/>
     </defs>
     <use xlink:href="#DejaVuSans-80"/>
     <use x="60.302734" xlink:href="#DejaVuSans-108"/>
     <use x="88.085938" xlink:href="#DejaVuSans-111"/>
     <use x="149.267578" xlink:href="#DejaVuSans-116"/>
     <use x="188.476562" xlink:href="#DejaVuSans-32"/>
     <use x="220.263672" xlink:href="#DejaVuSans-111"/>
     <use x="281.445312" xlink:href="#DejaVuSans-102"/>
     <use x="316.650391" xlink:href="#DejaVuSans-32"/>
     <use x="348.4375" xlink:href="#DejaVuSans-79"/>
     <use x="427.148438" xlink:href="#DejaVuSans-98"/>
     <use x="490.625" xlink:href="#DejaVuSans-106"/>
     <use x="518.408203" xlink:href="#DejaVuSans-101"/>
     <use x="579.931641" xlink:href="#DejaVuSans-99"/>
     <use x="634.912109" xlink:href="#DejaVuSans-116"/>
     <use x="674.121094" xlink:href="#DejaVuSans-32"/>
     <use x="705.908203" xlink:href="#DejaVuSans-112"/>
     <use x="769.384766" xlink:href="#DejaVuSans-111"/>
     <use x="830.566406" xlink:href="#DejaVuSans-115"/>
     <use x="882.666016" xlink:href="#DejaVuSans-101"/>
     <use x="944.189453" xlink:href="#DejaVuSans-32"/>
     <use x="975.976562" xlink:href="#DejaVuSans-101"/>
     <use x="1037.5" xlink:href="#DejaVuSans-114"/>
     <use x="1076.863281" xlink:href="#DejaVuSans-114"/>
     <use x="1115.726562" xlink:href="#DejaVuSans-111"/>
     <use x="1176.908203" xlink:href="#DejaVuSans-114"/>
     <use x="1218.021484" xlink:href="#DejaVuSans-32"/>
     <use x="1249.808594" xlink:href="#DejaVuSans-110"/>
     <use x="1313.1875" xlink:href="#DejaVuSans-111"/>
     <use x="1374.369141" xlink:href="#DejaVuSans-114"/>
     <use x="1413.732422" xlink:href="#DejaVuSans-109"/>
     <use x="1511.144531" xlink:href="#DejaVuSans-32"/>
     <use x="1542.931641" xlink:href="#DejaVuSans-111"/>
     <use x="1604.113281" xlink:href="#DejaVuSans-118"/>
     <use x="1663.292969" xlink:href="#DejaVuSans-101"/>
     <use x="1724.816406" xlink:href="#DejaVuSans-114"/>
     <use x="1765.929688" xlink:href="#DejaVuSans-32"/>
     <use x="1797.716797" xlink:href="#DejaVuSans-97"/>
     <use x="1858.996094" xlink:href="#DejaVuSans-32"/>
     <use x="1890.783203" xlink:href="#DejaVuSans-115"/>
     <use x="1942.882812" xlink:href="#DejaVuSans-105"/>
     <use x="1970.666016" xlink:href="#DejaVuSans-110"/>
     <use x="2034.044922" xlink:href="#DejaVuSans-103"/>
     <use x="2097.521484" xlink:href="#DejaVuSans-108"/>
     <use x="2125.304688" xlink:href="#DejaVuSans-101"/>
     <use x="2186.828125" xlink:href="#DejaVuSans-32"/>
     <use x="2218.615234" xlink:href="#DejaVuSans-101"/>
     <use x="2280.138672" xlink:href="#DejaVuSans-112"/>
     <use x="2343.615234" xlink:href="#DejaVuSans-105"/>
     <use x="2371.398438" xlink:href="#DejaVuSans-115"/>
     <use x="2423.498047" xlink:href="#DejaVuSans-111"/>
     <use x="2484.679688" xlink:href="#DejaVuSans-100"/>
     <use x="2548.15625" xlink:href="#DejaVuSans-101"/>
     <use x="2609.679688" xlink:href="#DejaVuSans-32"/>
    </g>
    <!--  Avg object pose error norm: Residual RL = 0.322, Standard = 0.332,  -->
    <g transform="translate(26.875313 22.034625)scale(0.12 -0.12)">
     <defs>
      <path d="M 34.1875 63.1875 
L 20.796875 26.90625 
L 47.609375 26.90625 
z
M 28.609375 72.90625 
L 39.796875 72.90625 
L 67.578125 0 
L 57.328125 0 
L 50.6875 18.703125 
L 17.828125 18.703125 
L 11.1875 0 
L 0.78125 0 
z
" id="DejaVuSans-65"/>
      <path d="M 11.71875 12.40625 
L 22.015625 12.40625 
L 22.015625 0 
L 11.71875 0 
z
M 11.71875 51.703125 
L 22.015625 51.703125 
L 22.015625 39.3125 
L 11.71875 39.3125 
z
" id="DejaVuSans-58"/>
      <path d="M 44.390625 34.1875 
Q 47.5625 33.109375 50.5625 29.59375 
Q 53.5625 26.078125 56.59375 19.921875 
L 66.609375 0 
L 56 0 
L 46.6875 18.703125 
Q 43.0625 26.03125 39.671875 28.421875 
Q 36.28125 30.8125 30.421875 30.8125 
L 19.671875 30.8125 
L 19.671875 0 
L 9.8125 0 
L 9.8125 72.90625 
L 32.078125 72.90625 
Q 44.578125 72.90625 50.734375 67.671875 
Q 56.890625 62.453125 56.890625 51.90625 
Q 56.890625 45.015625 53.6875 40.46875 
Q 50.484375 35.9375 44.390625 34.1875 
z
M 19.671875 64.796875 
L 19.671875 38.921875 
L 32.078125 38.921875 
Q 39.203125 38.921875 42.84375 42.21875 
Q 46.484375 45.515625 46.484375 51.90625 
Q 46.484375 58.296875 42.84375 61.546875 
Q 39.203125 64.796875 32.078125 64.796875 
z
" id="DejaVuSans-82"/>
      <path d="M 9.8125 72.90625 
L 19.671875 72.90625 
L 19.671875 8.296875 
L 55.171875 8.296875 
L 55.171875 0 
L 9.8125 0 
z
" id="DejaVuSans-76"/>
      <path d="M 10.59375 45.40625 
L 73.1875 45.40625 
L 73.1875 37.203125 
L 10.59375 37.203125 
z
M 10.59375 25.484375 
L 73.1875 25.484375 
L 73.1875 17.1875 
L 10.59375 17.1875 
z
" id="DejaVuSans-61"/>
      <path d="M 11.71875 12.40625 
L 22.015625 12.40625 
L 22.015625 4 
L 14.015625 -11.625 
L 7.71875 -11.625 
L 11.71875 4 
z
" id="DejaVuSans-44"/>
      <path d="M 53.515625 70.515625 
L 53.515625 60.890625 
Q 47.90625 63.578125 42.921875 64.890625 
Q 37.9375 66.21875 33.296875 66.21875 
Q 25.25 66.21875 20.875 63.09375 
Q 16.5 59.96875 16.5 54.203125 
Q 16.5 49.359375 19.40625 46.890625 
Q 22.3125 44.4375 30.421875 42.921875 
L 36.375 41.703125 
Q 47.40625 39.59375 52.65625 34.296875 
Q 57.90625 29 57.90625 20.125 
Q 57.90625 9.515625 50.796875 4.046875 
Q 43.703125 -1.421875 29.984375 -1.421875 
Q 24.8125 -1.421875 18.96875 -0.25 
Q 13.140625 0.921875 6.890625 3.21875 
L 6.890625 13.375 
Q 12.890625 10.015625 18.65625 8.296875 
Q 24.421875 6.59375 29.984375 6.59375 
Q 38.421875 6.59375 43.015625 9.90625 
Q 47.609375 13.234375 47.609375 19.390625 
Q 47.609375 24.75 44.3125 27.78125 
Q 41.015625 30.8125 33.5 32.328125 
L 27.484375 33.5 
Q 16.453125 35.6875 11.515625 40.375 
Q 6.59375 45.0625 6.59375 53.421875 
Q 6.59375 63.09375 13.40625 68.65625 
Q 20.21875 74.21875 32.171875 74.21875 
Q 37.3125 74.21875 42.625 73.28125 
Q 47.953125 72.359375 53.515625 70.515625 
z
" id="DejaVuSans-83"/>
     </defs>
     <use xlink:href="#DejaVuSans-32"/>
     <use x="31.787109" xlink:href="#DejaVuSans-65"/>
     <use x="94.320312" xlink:href="#DejaVuSans-118"/>
     <use x="153.5" xlink:href="#DejaVuSans-103"/>
     <use x="216.976562" xlink:href="#DejaVuSans-32"/>
     <use x="248.763672" xlink:href="#DejaVuSans-111"/>
     <use x="309.945312" xlink:href="#DejaVuSans-98"/>
     <use x="373.421875" xlink:href="#DejaVuSans-106"/>
     <use x="401.205078" xlink:href="#DejaVuSans-101"/>
     <use x="462.728516" xlink:href="#DejaVuSans-99"/>
     <use x="517.708984" xlink:href="#DejaVuSans-116"/>
     <use x="556.917969" xlink:href="#DejaVuSans-32"/>
     <use x="588.705078" xlink:href="#DejaVuSans-112"/>
     <use x="652.181641" xlink:href="#DejaVuSans-111"/>
     <use x="713.363281" xlink:href="#DejaVuSans-115"/>
     <use x="765.462891" xlink:href="#DejaVuSans-101"/>
     <use x="826.986328" xlink:href="#DejaVuSans-32"/>
     <use x="858.773438" xlink:href="#DejaVuSans-101"/>
     <use x="920.296875" xlink:href="#DejaVuSans-114"/>
     <use x="959.660156" xlink:href="#DejaVuSans-114"/>
     <use x="998.523438" xlink:href="#DejaVuSans-111"/>
     <use x="1059.705078" xlink:href="#DejaVuSans-114"/>
     <use x="1100.818359" xlink:href="#DejaVuSans-32"/>
     <use x="1132.605469" xlink:href="#DejaVuSans-110"/>
     <use x="1195.984375" xlink:href="#DejaVuSans-111"/>
     <use x="1257.166016" xlink:href="#DejaVuSans-114"/>
     <use x="1296.529297" xlink:href="#DejaVuSans-109"/>
     <use x="1393.941406" xlink:href="#DejaVuSans-58"/>
     <use x="1427.632812" xlink:href="#DejaVuSans-32"/>
     <use x="1459.419922" xlink:href="#DejaVuSans-82"/>
     <use x="1524.402344" xlink:href="#DejaVuSans-101"/>
     <use x="1585.925781" xlink:href="#DejaVuSans-115"/>
     <use x="1638.025391" xlink:href="#DejaVuSans-105"/>
     <use x="1665.808594" xlink:href="#DejaVuSans-100"/>
     <use x="1729.285156" xlink:href="#DejaVuSans-117"/>
     <use x="1792.664062" xlink:href="#DejaVuSans-97"/>
     <use x="1853.943359" xlink:href="#DejaVuSans-108"/>
     <use x="1881.726562" xlink:href="#DejaVuSans-32"/>
     <use x="1913.513672" xlink:href="#DejaVuSans-82"/>
     <use x="1982.996094" xlink:href="#DejaVuSans-76"/>
     <use x="2038.708984" xlink:href="#DejaVuSans-32"/>
     <use x="2070.496094" xlink:href="#DejaVuSans-61"/>
     <use x="2154.285156" xlink:href="#DejaVuSans-32"/>
     <use x="2186.072266" xlink:href="#DejaVuSans-48"/>
     <use x="2249.695312" xlink:href="#DejaVuSans-46"/>
     <use x="2281.482422" xlink:href="#DejaVuSans-51"/>
     <use x="2345.105469" xlink:href="#DejaVuSans-50"/>
     <use x="2408.728516" xlink:href="#DejaVuSans-50"/>
     <use x="2472.351562" xlink:href="#DejaVuSans-44"/>
     <use x="2504.138672" xlink:href="#DejaVuSans-32"/>
     <use x="2535.925781" xlink:href="#DejaVuSans-83"/>
     <use x="2599.402344" xlink:href="#DejaVuSans-116"/>
     <use x="2638.611328" xlink:href="#DejaVuSans-97"/>
     <use x="2699.890625" xlink:href="#DejaVuSans-110"/>
     <use x="2763.269531" xlink:href="#DejaVuSans-100"/>
     <use x="2826.746094" xlink:href="#DejaVuSans-97"/>
     <use x="2888.025391" xlink:href="#DejaVuSans-114"/>
     <use x="2927.388672" xlink:href="#DejaVuSans-100"/>
     <use x="2990.865234" xlink:href="#DejaVuSans-32"/>
     <use x="3022.652344" xlink:href="#DejaVuSans-61"/>
     <use x="3106.441406" xlink:href="#DejaVuSans-32"/>
     <use x="3138.228516" xlink:href="#DejaVuSans-48"/>
     <use x="3201.851562" xlink:href="#DejaVuSans-46"/>
     <use x="3233.638672" xlink:href="#DejaVuSans-51"/>
     <use x="3297.261719" xlink:href="#DejaVuSans-51"/>
     <use x="3360.884766" xlink:href="#DejaVuSans-50"/>
     <use x="3424.507812" xlink:href="#DejaVuSans-44"/>
     <use x="3456.294922" xlink:href="#DejaVuSans-32"/>
    </g>
    <!--  Baseline = 0.178 -->
    <g transform="translate(182.795625 35.472)scale(0.12 -0.12)">
     <defs>
      <path d="M 19.671875 34.8125 
L 19.671875 8.109375 
L 35.5 8.109375 
Q 43.453125 8.109375 47.28125 11.40625 
Q 51.125 14.703125 51.125 21.484375 
Q 51.125 28.328125 47.28125 31.5625 
Q 43.453125 34.8125 35.5 34.8125 
z
M 19.671875 64.796875 
L 19.671875 42.828125 
L 34.28125 42.828125 
Q 41.5 42.828125 45.03125 45.53125 
Q 48.578125 48.25 48.578125 53.8125 
Q 48.578125 59.328125 45.03125 62.0625 
Q 41.5 64.796875 34.28125 64.796875 
z
M 9.8125 72.90625 
L 35.015625 72.90625 
Q 46.296875 72.90625 52.390625 68.21875 
Q 58.5 63.53125 58.5 54.890625 
Q 58.5 48.1875 55.375 44.234375 
Q 52.25 40.28125 46.1875 39.3125 
Q 53.46875 37.75 57.5 32.78125 
Q 61.53125 27.828125 61.53125 20.40625 
Q 61.53125 10.640625 54.890625 5.3125 
Q 48.25 0 35.984375 0 
L 9.8125 0 
z
" id="DejaVuSans-66"/>
      <path d="M 8.203125 72.90625 
L 55.078125 72.90625 
L 55.078125 68.703125 
L 28.609375 0 
L 18.3125 0 
L 43.21875 64.59375 
L 8.203125 64.59375 
z
" id="DejaVuSans-55"/>
     </defs>
     <use xlink:href="#DejaVuSans-32"/>
     <use x="31.787109" xlink:href="#DejaVuSans-66"/>
     <use x="100.390625" xlink:href="#DejaVuSans-97"/>
     <use x="161.669922" xlink:href="#DejaVuSans-115"/>
     <use x="213.769531" xlink:href="#DejaVuSans-101"/>
     <use x="275.292969" xlink:href="#DejaVuSans-108"/>
     <use x="303.076172" xlink:href="#DejaVuSans-105"/>
     <use x="330.859375" xlink:href="#DejaVuSans-110"/>
     <use x="394.238281" xlink:href="#DejaVuSans-101"/>
     <use x="455.761719" xlink:href="#DejaVuSans-32"/>
     <use x="487.548828" xlink:href="#DejaVuSans-61"/>
     <use x="571.337891" xlink:href="#DejaVuSans-32"/>
     <use x="603.125" xlink:href="#DejaVuSans-48"/>
     <use x="666.748047" xlink:href="#DejaVuSans-46"/>
     <use x="698.535156" xlink:href="#DejaVuSans-49"/>
     <use x="762.158203" xlink:href="#DejaVuSans-55"/>
     <use x="825.78125" xlink:href="#DejaVuSans-56"/>
    </g>
   </g>
   <g id="legend_1">
    <g id="patch_7">
     <path d="M 64.6 93.506375 
L 154.529687 93.506375 
Q 156.529687 93.506375 156.529687 91.506375 
L 156.529687 48.472 
Q 156.529687 46.472 154.529687 46.472 
L 64.6 46.472 
Q 62.6 46.472 62.6 48.472 
L 62.6 91.506375 
Q 62.6 93.506375 64.6 93.506375 
z
" style="fill:#ffffff;opacity:0.8;stroke:#cccccc;stroke-linejoin:miter;"/>
    </g>
    <g id="line2d_16">
     <path d="M 66.6 54.570438 
L 86.6 54.570438 
" style="fill:none;stroke:#1f77b4;stroke-linecap:square;stroke-width:1.5;"/>
    </g>
    <g id="line2d_17"/>
    <g id="text_16">
     <!-- Residual RL -->
     <g transform="translate(94.6 58.070438)scale(0.1 -0.1)">
      <use xlink:href="#DejaVuSans-82"/>
      <use x="64.982422" xlink:href="#DejaVuSans-101"/>
      <use x="126.505859" xlink:href="#DejaVuSans-115"/>
      <use x="178.605469" xlink:href="#DejaVuSans-105"/>
      <use x="206.388672" xlink:href="#DejaVuSans-100"/>
      <use x="269.865234" xlink:href="#DejaVuSans-117"/>
      <use x="333.244141" xlink:href="#DejaVuSans-97"/>
      <use x="394.523438" xlink:href="#DejaVuSans-108"/>
      <use x="422.306641" xlink:href="#DejaVuSans-32"/>
      <use x="454.09375" xlink:href="#DejaVuSans-82"/>
      <use x="523.576172" xlink:href="#DejaVuSans-76"/>
     </g>
    </g>
    <g id="line2d_18">
     <path d="M 66.6 69.248563 
L 86.6 69.248563 
" style="fill:none;stroke:#ff7f0e;stroke-linecap:square;stroke-width:1.5;"/>
    </g>
    <g id="line2d_19"/>
    <g id="text_17">
     <!-- Standard -->
     <g transform="translate(94.6 72.748563)scale(0.1 -0.1)">
      <use xlink:href="#DejaVuSans-83"/>
      <use x="63.476562" xlink:href="#DejaVuSans-116"/>
      <use x="102.685547" xlink:href="#DejaVuSans-97"/>
      <use x="163.964844" xlink:href="#DejaVuSans-110"/>
      <use x="227.34375" xlink:href="#DejaVuSans-100"/>
      <use x="290.820312" xlink:href="#DejaVuSans-97"/>
      <use x="352.099609" xlink:href="#DejaVuSans-114"/>
      <use x="391.462891" xlink:href="#DejaVuSans-100"/>
     </g>
    </g>
    <g id="line2d_20">
     <path d="M 66.6 83.926688 
L 86.6 83.926688 
" style="fill:none;stroke:#bf00bf;stroke-linecap:square;stroke-width:1.5;"/>
    </g>
    <g id="line2d_21"/>
    <g id="text_18">
     <!-- Baseline -->
     <g transform="translate(94.6 87.426688)scale(0.1 -0.1)">
      <use xlink:href="#DejaVuSans-66"/>
      <use x="68.603516" xlink:href="#DejaVuSans-97"/>
      <use x="129.882812" xlink:href="#DejaVuSans-115"/>
      <use x="181.982422" xlink:href="#DejaVuSans-101"/>
      <use x="243.505859" xlink:href="#DejaVuSans-108"/>
      <use x="271.289062" xlink:href="#DejaVuSans-105"/>
      <use x="299.072266" xlink:href="#DejaVuSans-110"/>
      <use x="362.451172" xlink:href="#DejaVuSans-101"/>
     </g>
    </g>
   </g>
  </g>
 </g>
 <defs>
  <clipPath id="p378c811991">
   <rect height="266.112" width="357.12" x="57.6" y="41.472"/>
  </clipPath>
 </defs>
</svg>
