<?xml version="1.0" encoding="utf-8" standalone="no"?>
<!DOCTYPE svg PUBLIC "-//W3C//DTD SVG 1.1//EN"
  "http://www.w3.org/Graphics/SVG/1.1/DTD/svg11.dtd">
<!-- Created with matplotlib (https://matplotlib.org/) -->
<svg height="345.6pt" version="1.1" viewBox="0 0 460.8 345.6" width="460.8pt" xmlns="http://www.w3.org/2000/svg" xmlns:xlink="http://www.w3.org/1999/xlink">
 <metadata>
  <rdf:RDF xmlns:cc="http://creativecommons.org/ns#" xmlns:dc="http://purl.org/dc/elements/1.1/" xmlns:rdf="http://www.w3.org/1999/02/22-rdf-syntax-ns#">
   <cc:Work>
    <dc:type rdf:resource="http://purl.org/dc/dcmitype/StillImage"/>
    <dc:date>2022-07-23T12:16:16.166983</dc:date>
    <dc:format>image/svg+xml</dc:format>
    <dc:creator>
     <cc:Agent>
      <dc:title>Matplotlib v3.3.4, https://matplotlib.org/</dc:title>
     </cc:Agent>
    </dc:creator>
   </cc:Work>
  </rdf:RDF>
 </metadata>
 <defs>
  <style type="text/css">*{stroke-linecap:butt;stroke-linejoin:round;}</style>
 </defs>
 <g id="figure_1">
  <g id="patch_1">
   <path d="M 0 345.6 
L 460.8 345.6 
L 460.8 0 
L 0 0 
z
" style="fill:#ffffff;"/>
  </g>
  <g id="axes_1">
   <g id="patch_2">
    <path d="M 57.6 307.584 
L 414.72 307.584 
L 414.72 41.472 
L 57.6 41.472 
z
" style="fill:#ffffff;"/>
   </g>
   <g id="matplotlib.axis_1">
    <g id="xtick_1">
     <g id="line2d_1">
      <defs>
       <path d="M 0 0 
L 0 3.5 
" id="m9511e746a2" style="stroke:#000000;stroke-width:0.8;"/>
      </defs>
      <g>
       <use style="stroke:#000000;stroke-width:0.8;" x="73.832727" xlink:href="#m9511e746a2" y="307.584"/>
      </g>
     </g>
     <g id="text_1">
      <!-- 0 -->
      <g transform="translate(70.651477 322.182437)scale(0.1 -0.1)">
       <defs>
        <path d="M 31.78125 66.40625 
Q 24.171875 66.40625 20.328125 58.90625 
Q 16.5 51.421875 16.5 36.375 
Q 16.5 21.390625 20.328125 13.890625 
Q 24.171875 6.390625 31.78125 6.390625 
Q 39.453125 6.390625 43.28125 13.890625 
Q 47.125 21.390625 47.125 36.375 
Q 47.125 51.421875 43.28125 58.90625 
Q 39.453125 66.40625 31.78125 66.40625 
z
M 31.78125 74.21875 
Q 44.046875 74.21875 50.515625 64.515625 
Q 56.984375 54.828125 56.984375 36.375 
Q 56.984375 17.96875 50.515625 8.265625 
Q 44.046875 -1.421875 31.78125 -1.421875 
Q 19.53125 -1.421875 13.0625 8.265625 
Q 6.59375 17.96875 6.59375 36.375 
Q 6.59375 54.828125 13.0625 64.515625 
Q 19.53125 74.21875 31.78125 74.21875 
z
" id="DejaVuSans-48"/>
       </defs>
       <use xlink:href="#DejaVuSans-48"/>
      </g>
     </g>
    </g>
    <g id="xtick_2">
     <g id="line2d_2">
      <g>
       <use style="stroke:#000000;stroke-width:0.8;" x="138.763636" xlink:href="#m9511e746a2" y="307.584"/>
      </g>
     </g>
     <g id="text_2">
      <!-- 2000 -->
      <g transform="translate(126.038636 322.182437)scale(0.1 -0.1)">
       <defs>
        <path d="M 19.1875 8.296875 
L 53.609375 8.296875 
L 53.609375 0 
L 7.328125 0 
L 7.328125 8.296875 
Q 12.9375 14.109375 22.625 23.890625 
Q 32.328125 33.6875 34.8125 36.53125 
Q 39.546875 41.84375 41.421875 45.53125 
Q 43.3125 49.21875 43.3125 52.78125 
Q 43.3125 58.59375 39.234375 62.25 
Q 35.15625 65.921875 28.609375 65.921875 
Q 23.96875 65.921875 18.8125 64.3125 
Q 13.671875 62.703125 7.8125 59.421875 
L 7.8125 69.390625 
Q 13.765625 71.78125 18.9375 73 
Q 24.125 74.21875 28.421875 74.21875 
Q 39.75 74.21875 46.484375 68.546875 
Q 53.21875 62.890625 53.21875 53.421875 
Q 53.21875 48.921875 51.53125 44.890625 
Q 49.859375 40.875 45.40625 35.40625 
Q 44.1875 33.984375 37.640625 27.21875 
Q 31.109375 20.453125 19.1875 8.296875 
z
" id="DejaVuSans-50"/>
       </defs>
       <use xlink:href="#DejaVuSans-50"/>
       <use x="63.623047" xlink:href="#DejaVuSans-48"/>
       <use x="127.246094" xlink:href="#DejaVuSans-48"/>
       <use x="190.869141" xlink:href="#DejaVuSans-48"/>
      </g>
     </g>
    </g>
    <g id="xtick_3">
     <g id="line2d_3">
      <g>
       <use style="stroke:#000000;stroke-width:0.8;" x="203.694545" xlink:href="#m9511e746a2" y="307.584"/>
      </g>
     </g>
     <g id="text_3">
      <!-- 4000 -->
      <g transform="translate(190.969545 322.182437)scale(0.1 -0.1)">
       <defs>
        <path d="M 37.796875 64.3125 
L 12.890625 25.390625 
L 37.796875 25.390625 
z
M 35.203125 72.90625 
L 47.609375 72.90625 
L 47.609375 25.390625 
L 58.015625 25.390625 
L 58.015625 17.1875 
L 47.609375 17.1875 
L 47.609375 0 
L 37.796875 0 
L 37.796875 17.1875 
L 4.890625 17.1875 
L 4.890625 26.703125 
z
" id="DejaVuSans-52"/>
       </defs>
       <use xlink:href="#DejaVuSans-52"/>
       <use x="63.623047" xlink:href="#DejaVuSans-48"/>
       <use x="127.246094" xlink:href="#DejaVuSans-48"/>
       <use x="190.869141" xlink:href="#DejaVuSans-48"/>
      </g>
     </g>
    </g>
    <g id="xtick_4">
     <g id="line2d_4">
      <g>
       <use style="stroke:#000000;stroke-width:0.8;" x="268.625455" xlink:href="#m9511e746a2" y="307.584"/>
      </g>
     </g>
     <g id="text_4">
      <!-- 6000 -->
      <g transform="translate(255.900455 322.182437)scale(0.1 -0.1)">
       <defs>
        <path d="M 33.015625 40.375 
Q 26.375 40.375 22.484375 35.828125 
Q 18.609375 31.296875 18.609375 23.390625 
Q 18.609375 15.53125 22.484375 10.953125 
Q 26.375 6.390625 33.015625 6.390625 
Q 39.65625 6.390625 43.53125 10.953125 
Q 47.40625 15.53125 47.40625 23.390625 
Q 47.40625 31.296875 43.53125 35.828125 
Q 39.65625 40.375 33.015625 40.375 
z
M 52.59375 71.296875 
L 52.59375 62.3125 
Q 48.875 64.0625 45.09375 64.984375 
Q 41.3125 65.921875 37.59375 65.921875 
Q 27.828125 65.921875 22.671875 59.328125 
Q 17.53125 52.734375 16.796875 39.40625 
Q 19.671875 43.65625 24.015625 45.921875 
Q 28.375 48.1875 33.59375 48.1875 
Q 44.578125 48.1875 50.953125 41.515625 
Q 57.328125 34.859375 57.328125 23.390625 
Q 57.328125 12.15625 50.6875 5.359375 
Q 44.046875 -1.421875 33.015625 -1.421875 
Q 20.359375 -1.421875 13.671875 8.265625 
Q 6.984375 17.96875 6.984375 36.375 
Q 6.984375 53.65625 15.1875 63.9375 
Q 23.390625 74.21875 37.203125 74.21875 
Q 40.921875 74.21875 44.703125 73.484375 
Q 48.484375 72.75 52.59375 71.296875 
z
" id="DejaVuSans-54"/>
       </defs>
       <use xlink:href="#DejaVuSans-54"/>
       <use x="63.623047" xlink:href="#DejaVuSans-48"/>
       <use x="127.246094" xlink:href="#DejaVuSans-48"/>
       <use x="190.869141" xlink:href="#DejaVuSans-48"/>
      </g>
     </g>
    </g>
    <g id="xtick_5">
     <g id="line2d_5">
      <g>
       <use style="stroke:#000000;stroke-width:0.8;" x="333.556364" xlink:href="#m9511e746a2" y="307.584"/>
      </g>
     </g>
     <g id="text_5">
      <!-- 8000 -->
      <g transform="translate(320.831364 322.182437)scale(0.1 -0.1)">
       <defs>
        <path d="M 31.78125 34.625 
Q 24.75 34.625 20.71875 30.859375 
Q 16.703125 27.09375 16.703125 20.515625 
Q 16.703125 13.921875 20.71875 10.15625 
Q 24.75 6.390625 31.78125 6.390625 
Q 38.8125 6.390625 42.859375 10.171875 
Q 46.921875 13.96875 46.921875 20.515625 
Q 46.921875 27.09375 42.890625 30.859375 
Q 38.875 34.625 31.78125 34.625 
z
M 21.921875 38.8125 
Q 15.578125 40.375 12.03125 44.71875 
Q 8.5 49.078125 8.5 55.328125 
Q 8.5 64.0625 14.71875 69.140625 
Q 20.953125 74.21875 31.78125 74.21875 
Q 42.671875 74.21875 48.875 69.140625 
Q 55.078125 64.0625 55.078125 55.328125 
Q 55.078125 49.078125 51.53125 44.71875 
Q 48 40.375 41.703125 38.8125 
Q 48.828125 37.15625 52.796875 32.3125 
Q 56.78125 27.484375 56.78125 20.515625 
Q 56.78125 9.90625 50.3125 4.234375 
Q 43.84375 -1.421875 31.78125 -1.421875 
Q 19.734375 -1.421875 13.25 4.234375 
Q 6.78125 9.90625 6.78125 20.515625 
Q 6.78125 27.484375 10.78125 32.3125 
Q 14.796875 37.15625 21.921875 38.8125 
z
M 18.3125 54.390625 
Q 18.3125 48.734375 21.84375 45.5625 
Q 25.390625 42.390625 31.78125 42.390625 
Q 38.140625 42.390625 41.71875 45.5625 
Q 45.3125 48.734375 45.3125 54.390625 
Q 45.3125 60.0625 41.71875 63.234375 
Q 38.140625 66.40625 31.78125 66.40625 
Q 25.390625 66.40625 21.84375 63.234375 
Q 18.3125 60.0625 18.3125 54.390625 
z
" id="DejaVuSans-56"/>
       </defs>
       <use xlink:href="#DejaVuSans-56"/>
       <use x="63.623047" xlink:href="#DejaVuSans-48"/>
       <use x="127.246094" xlink:href="#DejaVuSans-48"/>
       <use x="190.869141" xlink:href="#DejaVuSans-48"/>
      </g>
     </g>
    </g>
    <g id="xtick_6">
     <g id="line2d_6">
      <g>
       <use style="stroke:#000000;stroke-width:0.8;" x="398.487273" xlink:href="#m9511e746a2" y="307.584"/>
      </g>
     </g>
     <g id="text_6">
      <!-- 10000 -->
      <g transform="translate(382.581023 322.182437)scale(0.1 -0.1)">
       <defs>
        <path d="M 12.40625 8.296875 
L 28.515625 8.296875 
L 28.515625 63.921875 
L 10.984375 60.40625 
L 10.984375 69.390625 
L 28.421875 72.90625 
L 38.28125 72.90625 
L 38.28125 8.296875 
L 54.390625 8.296875 
L 54.390625 0 
L 12.40625 0 
z
" id="DejaVuSans-49"/>
       </defs>
       <use xlink:href="#DejaVuSans-49"/>
       <use x="63.623047" xlink:href="#DejaVuSans-48"/>
       <use x="127.246094" xlink:href="#DejaVuSans-48"/>
       <use x="190.869141" xlink:href="#DejaVuSans-48"/>
       <use x="254.492188" xlink:href="#DejaVuSans-48"/>
      </g>
     </g>
    </g>
    <g id="text_7">
     <!-- Num-time-steps -->
     <g transform="translate(196.056094 335.860562)scale(0.1 -0.1)">
      <defs>
       <path d="M 9.8125 72.90625 
L 23.09375 72.90625 
L 55.421875 11.921875 
L 55.421875 72.90625 
L 64.984375 72.90625 
L 64.984375 0 
L 51.703125 0 
L 19.390625 60.984375 
L 19.390625 0 
L 9.8125 0 
z
" id="DejaVuSans-78"/>
       <path d="M 8.5 21.578125 
L 8.5 54.6875 
L 17.484375 54.6875 
L 17.484375 21.921875 
Q 17.484375 14.15625 20.5 10.265625 
Q 23.53125 6.390625 29.59375 6.390625 
Q 36.859375 6.390625 41.078125 11.03125 
Q 45.3125 15.671875 45.3125 23.6875 
L 45.3125 54.6875 
L 54.296875 54.6875 
L 54.296875 0 
L 45.3125 0 
L 45.3125 8.40625 
Q 42.046875 3.421875 37.71875 1 
Q 33.40625 -1.421875 27.6875 -1.421875 
Q 18.265625 -1.421875 13.375 4.4375 
Q 8.5 10.296875 8.5 21.578125 
z
M 31.109375 56 
z
" id="DejaVuSans-117"/>
       <path d="M 52 44.1875 
Q 55.375 50.25 60.0625 53.125 
Q 64.75 56 71.09375 56 
Q 79.640625 56 84.28125 50.015625 
Q 88.921875 44.046875 88.921875 33.015625 
L 88.921875 0 
L 79.890625 0 
L 79.890625 32.71875 
Q 79.890625 40.578125 77.09375 44.375 
Q 74.3125 48.1875 68.609375 48.1875 
Q 61.625 48.1875 57.5625 43.546875 
Q 53.515625 38.921875 53.515625 30.90625 
L 53.515625 0 
L 44.484375 0 
L 44.484375 32.71875 
Q 44.484375 40.625 41.703125 44.40625 
Q 38.921875 48.1875 33.109375 48.1875 
Q 26.21875 48.1875 22.15625 43.53125 
Q 18.109375 38.875 18.109375 30.90625 
L 18.109375 0 
L 9.078125 0 
L 9.078125 54.6875 
L 18.109375 54.6875 
L 18.109375 46.1875 
Q 21.1875 51.21875 25.484375 53.609375 
Q 29.78125 56 35.6875 56 
Q 41.65625 56 45.828125 52.96875 
Q 50 49.953125 52 44.1875 
z
" id="DejaVuSans-109"/>
       <path d="M 4.890625 31.390625 
L 31.203125 31.390625 
L 31.203125 23.390625 
L 4.890625 23.390625 
z
" id="DejaVuSans-45"/>
       <path d="M 18.3125 70.21875 
L 18.3125 54.6875 
L 36.8125 54.6875 
L 36.8125 47.703125 
L 18.3125 47.703125 
L 18.3125 18.015625 
Q 18.3125 11.328125 20.140625 9.421875 
Q 21.96875 7.515625 27.59375 7.515625 
L 36.8125 7.515625 
L 36.8125 0 
L 27.59375 0 
Q 17.1875 0 13.234375 3.875 
Q 9.28125 7.765625 9.28125 18.015625 
L 9.28125 47.703125 
L 2.6875 47.703125 
L 2.6875 54.6875 
L 9.28125 54.6875 
L 9.28125 70.21875 
z
" id="DejaVuSans-116"/>
       <path d="M 9.421875 54.6875 
L 18.40625 54.6875 
L 18.40625 0 
L 9.421875 0 
z
M 9.421875 75.984375 
L 18.40625 75.984375 
L 18.40625 64.59375 
L 9.421875 64.59375 
z
" id="DejaVuSans-105"/>
       <path d="M 56.203125 29.59375 
L 56.203125 25.203125 
L 14.890625 25.203125 
Q 15.484375 15.921875 20.484375 11.0625 
Q 25.484375 6.203125 34.421875 6.203125 
Q 39.59375 6.203125 44.453125 7.46875 
Q 49.3125 8.734375 54.109375 11.28125 
L 54.109375 2.78125 
Q 49.265625 0.734375 44.1875 -0.34375 
Q 39.109375 -1.421875 33.890625 -1.421875 
Q 20.796875 -1.421875 13.15625 6.1875 
Q 5.515625 13.8125 5.515625 26.8125 
Q 5.515625 40.234375 12.765625 48.109375 
Q 20.015625 56 32.328125 56 
Q 43.359375 56 49.78125 48.890625 
Q 56.203125 41.796875 56.203125 29.59375 
z
M 47.21875 32.234375 
Q 47.125 39.59375 43.09375 43.984375 
Q 39.0625 48.390625 32.421875 48.390625 
Q 24.90625 48.390625 20.390625 44.140625 
Q 15.875 39.890625 15.1875 32.171875 
z
" id="DejaVuSans-101"/>
       <path d="M 44.28125 53.078125 
L 44.28125 44.578125 
Q 40.484375 46.53125 36.375 47.5 
Q 32.28125 48.484375 27.875 48.484375 
Q 21.1875 48.484375 17.84375 46.4375 
Q 14.5 44.390625 14.5 40.28125 
Q 14.5 37.15625 16.890625 35.375 
Q 19.28125 33.59375 26.515625 31.984375 
L 29.59375 31.296875 
Q 39.15625 29.25 43.1875 25.515625 
Q 47.21875 21.78125 47.21875 15.09375 
Q 47.21875 7.46875 41.1875 3.015625 
Q 35.15625 -1.421875 24.609375 -1.421875 
Q 20.21875 -1.421875 15.453125 -0.5625 
Q 10.6875 0.296875 5.421875 2 
L 5.421875 11.28125 
Q 10.40625 8.6875 15.234375 7.390625 
Q 20.0625 6.109375 24.8125 6.109375 
Q 31.15625 6.109375 34.5625 8.28125 
Q 37.984375 10.453125 37.984375 14.40625 
Q 37.984375 18.0625 35.515625 20.015625 
Q 33.0625 21.96875 24.703125 23.78125 
L 21.578125 24.515625 
Q 13.234375 26.265625 9.515625 29.90625 
Q 5.8125 33.546875 5.8125 39.890625 
Q 5.8125 47.609375 11.28125 51.796875 
Q 16.75 56 26.8125 56 
Q 31.78125 56 36.171875 55.265625 
Q 40.578125 54.546875 44.28125 53.078125 
z
" id="DejaVuSans-115"/>
       <path d="M 18.109375 8.203125 
L 18.109375 -20.796875 
L 9.078125 -20.796875 
L 9.078125 54.6875 
L 18.109375 54.6875 
L 18.109375 46.390625 
Q 20.953125 51.265625 25.265625 53.625 
Q 29.59375 56 35.59375 56 
Q 45.5625 56 51.78125 48.09375 
Q 58.015625 40.1875 58.015625 27.296875 
Q 58.015625 14.40625 51.78125 6.484375 
Q 45.5625 -1.421875 35.59375 -1.421875 
Q 29.59375 -1.421875 25.265625 0.953125 
Q 20.953125 3.328125 18.109375 8.203125 
z
M 48.6875 27.296875 
Q 48.6875 37.203125 44.609375 42.84375 
Q 40.53125 48.484375 33.40625 48.484375 
Q 26.265625 48.484375 22.1875 42.84375 
Q 18.109375 37.203125 18.109375 27.296875 
Q 18.109375 17.390625 22.1875 11.75 
Q 26.265625 6.109375 33.40625 6.109375 
Q 40.53125 6.109375 44.609375 11.75 
Q 48.6875 17.390625 48.6875 27.296875 
z
" id="DejaVuSans-112"/>
      </defs>
      <use xlink:href="#DejaVuSans-78"/>
      <use x="74.804688" xlink:href="#DejaVuSans-117"/>
      <use x="138.183594" xlink:href="#DejaVuSans-109"/>
      <use x="235.595703" xlink:href="#DejaVuSans-45"/>
      <use x="271.679688" xlink:href="#DejaVuSans-116"/>
      <use x="310.888672" xlink:href="#DejaVuSans-105"/>
      <use x="338.671875" xlink:href="#DejaVuSans-109"/>
      <use x="436.083984" xlink:href="#DejaVuSans-101"/>
      <use x="497.607422" xlink:href="#DejaVuSans-45"/>
      <use x="533.691406" xlink:href="#DejaVuSans-115"/>
      <use x="585.791016" xlink:href="#DejaVuSans-116"/>
      <use x="625" xlink:href="#DejaVuSans-101"/>
      <use x="686.523438" xlink:href="#DejaVuSans-112"/>
      <use x="750" xlink:href="#DejaVuSans-115"/>
     </g>
    </g>
   </g>
   <g id="matplotlib.axis_2">
    <g id="ytick_1">
     <g id="line2d_7">
      <defs>
       <path d="M 0 0 
L -3.5 0 
" id="md5f4209cfa" style="stroke:#000000;stroke-width:0.8;"/>
      </defs>
      <g>
       <use style="stroke:#000000;stroke-width:0.8;" x="57.6" xlink:href="#md5f4209cfa" y="307.036106"/>
      </g>
     </g>
     <g id="text_8">
      <!-- 0.0 -->
      <g transform="translate(34.696875 310.835325)scale(0.1 -0.1)">
       <defs>
        <path d="M 10.6875 12.40625 
L 21 12.40625 
L 21 0 
L 10.6875 0 
z
" id="DejaVuSans-46"/>
       </defs>
       <use xlink:href="#DejaVuSans-48"/>
       <use x="63.623047" xlink:href="#DejaVuSans-46"/>
       <use x="95.410156" xlink:href="#DejaVuSans-48"/>
      </g>
     </g>
    </g>
    <g id="ytick_2">
     <g id="line2d_8">
      <g>
       <use style="stroke:#000000;stroke-width:0.8;" x="57.6" xlink:href="#md5f4209cfa" y="249.378487"/>
      </g>
     </g>
     <g id="text_9">
      <!-- 0.1 -->
      <g transform="translate(34.696875 253.177706)scale(0.1 -0.1)">
       <use xlink:href="#DejaVuSans-48"/>
       <use x="63.623047" xlink:href="#DejaVuSans-46"/>
       <use x="95.410156" xlink:href="#DejaVuSans-49"/>
      </g>
     </g>
    </g>
    <g id="ytick_3">
     <g id="line2d_9">
      <g>
       <use style="stroke:#000000;stroke-width:0.8;" x="57.6" xlink:href="#md5f4209cfa" y="191.720868"/>
      </g>
     </g>
     <g id="text_10">
      <!-- 0.2 -->
      <g transform="translate(34.696875 195.520087)scale(0.1 -0.1)">
       <use xlink:href="#DejaVuSans-48"/>
       <use x="63.623047" xlink:href="#DejaVuSans-46"/>
       <use x="95.410156" xlink:href="#DejaVuSans-50"/>
      </g>
     </g>
    </g>
    <g id="ytick_4">
     <g id="line2d_10">
      <g>
       <use style="stroke:#000000;stroke-width:0.8;" x="57.6" xlink:href="#md5f4209cfa" y="134.063249"/>
      </g>
     </g>
     <g id="text_11">
      <!-- 0.3 -->
      <g transform="translate(34.696875 137.862468)scale(0.1 -0.1)">
       <defs>
        <path d="M 40.578125 39.3125 
Q 47.65625 37.796875 51.625 33 
Q 55.609375 28.21875 55.609375 21.1875 
Q 55.609375 10.40625 48.1875 4.484375 
Q 40.765625 -1.421875 27.09375 -1.421875 
Q 22.515625 -1.421875 17.65625 -0.515625 
Q 12.796875 0.390625 7.625 2.203125 
L 7.625 11.71875 
Q 11.71875 9.328125 16.59375 8.109375 
Q 21.484375 6.890625 26.8125 6.890625 
Q 36.078125 6.890625 40.9375 10.546875 
Q 45.796875 14.203125 45.796875 21.1875 
Q 45.796875 27.640625 41.28125 31.265625 
Q 36.765625 34.90625 28.71875 34.90625 
L 20.21875 34.90625 
L 20.21875 43.015625 
L 29.109375 43.015625 
Q 36.375 43.015625 40.234375 45.921875 
Q 44.09375 48.828125 44.09375 54.296875 
Q 44.09375 59.90625 40.109375 62.90625 
Q 36.140625 65.921875 28.71875 65.921875 
Q 24.65625 65.921875 20.015625 65.03125 
Q 15.375 64.15625 9.8125 62.3125 
L 9.8125 71.09375 
Q 15.4375 72.65625 20.34375 73.4375 
Q 25.25 74.21875 29.59375 74.21875 
Q 40.828125 74.21875 47.359375 69.109375 
Q 53.90625 64.015625 53.90625 55.328125 
Q 53.90625 49.265625 50.4375 45.09375 
Q 46.96875 40.921875 40.578125 39.3125 
z
" id="DejaVuSans-51"/>
       </defs>
       <use xlink:href="#DejaVuSans-48"/>
       <use x="63.623047" xlink:href="#DejaVuSans-46"/>
       <use x="95.410156" xlink:href="#DejaVuSans-51"/>
      </g>
     </g>
    </g>
    <g id="ytick_5">
     <g id="line2d_11">
      <g>
       <use style="stroke:#000000;stroke-width:0.8;" x="57.6" xlink:href="#md5f4209cfa" y="76.40563"/>
      </g>
     </g>
     <g id="text_12">
      <!-- 0.4 -->
      <g transform="translate(34.696875 80.204849)scale(0.1 -0.1)">
       <use xlink:href="#DejaVuSans-48"/>
       <use x="63.623047" xlink:href="#DejaVuSans-46"/>
       <use x="95.410156" xlink:href="#DejaVuSans-52"/>
      </g>
     </g>
    </g>
    <g id="text_13">
     <!-- Obj-pose-error-norm -->
     <g transform="translate(28.617187 225.203781)rotate(-90)scale(0.1 -0.1)">
      <defs>
       <path d="M 39.40625 66.21875 
Q 28.65625 66.21875 22.328125 58.203125 
Q 16.015625 50.203125 16.015625 36.375 
Q 16.015625 22.609375 22.328125 14.59375 
Q 28.65625 6.59375 39.40625 6.59375 
Q 50.140625 6.59375 56.421875 14.59375 
Q 62.703125 22.609375 62.703125 36.375 
Q 62.703125 50.203125 56.421875 58.203125 
Q 50.140625 66.21875 39.40625 66.21875 
z
M 39.40625 74.21875 
Q 54.734375 74.21875 63.90625 63.9375 
Q 73.09375 53.65625 73.09375 36.375 
Q 73.09375 19.140625 63.90625 8.859375 
Q 54.734375 -1.421875 39.40625 -1.421875 
Q 24.03125 -1.421875 14.8125 8.828125 
Q 5.609375 19.09375 5.609375 36.375 
Q 5.609375 53.65625 14.8125 63.9375 
Q 24.03125 74.21875 39.40625 74.21875 
z
" id="DejaVuSans-79"/>
       <path d="M 48.6875 27.296875 
Q 48.6875 37.203125 44.609375 42.84375 
Q 40.53125 48.484375 33.40625 48.484375 
Q 26.265625 48.484375 22.1875 42.84375 
Q 18.109375 37.203125 18.109375 27.296875 
Q 18.109375 17.390625 22.1875 11.75 
Q 26.265625 6.109375 33.40625 6.109375 
Q 40.53125 6.109375 44.609375 11.75 
Q 48.6875 17.390625 48.6875 27.296875 
z
M 18.109375 46.390625 
Q 20.953125 51.265625 25.265625 53.625 
Q 29.59375 56 35.59375 56 
Q 45.5625 56 51.78125 48.09375 
Q 58.015625 40.1875 58.015625 27.296875 
Q 58.015625 14.40625 51.78125 6.484375 
Q 45.5625 -1.421875 35.59375 -1.421875 
Q 29.59375 -1.421875 25.265625 0.953125 
Q 20.953125 3.328125 18.109375 8.203125 
L 18.109375 0 
L 9.078125 0 
L 9.078125 75.984375 
L 18.109375 75.984375 
z
" id="DejaVuSans-98"/>
       <path d="M 9.421875 54.6875 
L 18.40625 54.6875 
L 18.40625 -0.984375 
Q 18.40625 -11.421875 14.421875 -16.109375 
Q 10.453125 -20.796875 1.609375 -20.796875 
L -1.8125 -20.796875 
L -1.8125 -13.1875 
L 0.59375 -13.1875 
Q 5.71875 -13.1875 7.5625 -10.8125 
Q 9.421875 -8.453125 9.421875 -0.984375 
z
M 9.421875 75.984375 
L 18.40625 75.984375 
L 18.40625 64.59375 
L 9.421875 64.59375 
z
" id="DejaVuSans-106"/>
       <path d="M 30.609375 48.390625 
Q 23.390625 48.390625 19.1875 42.75 
Q 14.984375 37.109375 14.984375 27.296875 
Q 14.984375 17.484375 19.15625 11.84375 
Q 23.34375 6.203125 30.609375 6.203125 
Q 37.796875 6.203125 41.984375 11.859375 
Q 46.1875 17.53125 46.1875 27.296875 
Q 46.1875 37.015625 41.984375 42.703125 
Q 37.796875 48.390625 30.609375 48.390625 
z
M 30.609375 56 
Q 42.328125 56 49.015625 48.375 
Q 55.71875 40.765625 55.71875 27.296875 
Q 55.71875 13.875 49.015625 6.21875 
Q 42.328125 -1.421875 30.609375 -1.421875 
Q 18.84375 -1.421875 12.171875 6.21875 
Q 5.515625 13.875 5.515625 27.296875 
Q 5.515625 40.765625 12.171875 48.375 
Q 18.84375 56 30.609375 56 
z
" id="DejaVuSans-111"/>
       <path d="M 41.109375 46.296875 
Q 39.59375 47.171875 37.8125 47.578125 
Q 36.03125 48 33.890625 48 
Q 26.265625 48 22.1875 43.046875 
Q 18.109375 38.09375 18.109375 28.8125 
L 18.109375 0 
L 9.078125 0 
L 9.078125 54.6875 
L 18.109375 54.6875 
L 18.109375 46.1875 
Q 20.953125 51.171875 25.484375 53.578125 
Q 30.03125 56 36.53125 56 
Q 37.453125 56 38.578125 55.875 
Q 39.703125 55.765625 41.0625 55.515625 
z
" id="DejaVuSans-114"/>
       <path d="M 54.890625 33.015625 
L 54.890625 0 
L 45.90625 0 
L 45.90625 32.71875 
Q 45.90625 40.484375 42.875 44.328125 
Q 39.84375 48.1875 33.796875 48.1875 
Q 26.515625 48.1875 22.3125 43.546875 
Q 18.109375 38.921875 18.109375 30.90625 
L 18.109375 0 
L 9.078125 0 
L 9.078125 54.6875 
L 18.109375 54.6875 
L 18.109375 46.1875 
Q 21.34375 51.125 25.703125 53.5625 
Q 30.078125 56 35.796875 56 
Q 45.21875 56 50.046875 50.171875 
Q 54.890625 44.34375 54.890625 33.015625 
z
" id="DejaVuSans-110"/>
      </defs>
      <use xlink:href="#DejaVuSans-79"/>
      <use x="78.710938" xlink:href="#DejaVuSans-98"/>
      <use x="142.1875" xlink:href="#DejaVuSans-106"/>
      <use x="169.970703" xlink:href="#DejaVuSans-45"/>
      <use x="206.054688" xlink:href="#DejaVuSans-112"/>
      <use x="269.53125" xlink:href="#DejaVuSans-111"/>
      <use x="330.712891" xlink:href="#DejaVuSans-115"/>
      <use x="382.8125" xlink:href="#DejaVuSans-101"/>
      <use x="444.335938" xlink:href="#DejaVuSans-45"/>
      <use x="480.419922" xlink:href="#DejaVuSans-101"/>
      <use x="541.943359" xlink:href="#DejaVuSans-114"/>
      <use x="581.306641" xlink:href="#DejaVuSans-114"/>
      <use x="620.169922" xlink:href="#DejaVuSans-111"/>
      <use x="681.351562" xlink:href="#DejaVuSans-114"/>
      <use x="716.089844" xlink:href="#DejaVuSans-45"/>
      <use x="752.173828" xlink:href="#DejaVuSans-110"/>
      <use x="815.552734" xlink:href="#DejaVuSans-111"/>
      <use x="876.734375" xlink:href="#DejaVuSans-114"/>
      <use x="916.097656" xlink:href="#DejaVuSans-109"/>
     </g>
    </g>
   </g>
   <g id="line2d_12">
    <path clip-path="url(#pbe62b6d076)" d="M 73.832727 295.142931 
L 73.865193 295.487999 
L 74.02752 273.485401 
L 74.319709 241.629944 
L 74.546967 292.813058 
L 74.579433 287.028944 
L 74.644364 265.901166 
L 74.709295 272.154593 
L 74.871622 281.16936 
L 75.066415 284.666271 
L 75.131345 284.491155 
L 75.261207 282.525799 
L 75.748189 268.839755 
L 76.592291 241.004758 
L 77.274065 220.334585 
L 78.118167 205.132444 
L 78.799942 190.723632 
L 79.773905 172.005937 
L 80.682938 157.935521 
L 82.5984 140.230287 
L 82.95552 138.159943 
L 83.215244 137.816225 
L 83.474967 137.648956 
L 83.734691 136.40655 
L 84.124276 134.461695 
L 85.357964 131.587444 
L 85.422895 131.675186 
L 85.585222 132.071426 
L 85.617687 132.480526 
L 85.715084 132.466144 
L 85.877411 133.089649 
L 86.234531 134.738938 
L 86.461789 134.986188 
L 86.591651 134.783828 
L 87.305891 133.156557 
L 87.435753 133.288616 
L 87.630545 133.941712 
L 88.831767 139.413281 
L 88.994095 139.635278 
L 89.091491 139.697543 
L 89.838196 140.944766 
L 90.357644 142.718822 
L 90.779695 143.925614 
L 91.104349 145.005052 
L 91.558865 146.443922 
L 91.980916 147.189123 
L 92.208175 147.780651 
L 93.084742 150.816164 
L 94.058705 152.190401 
L 94.545687 152.898302 
L 94.610618 153.23137 
L 94.708015 153.183141 
L 94.870342 153.58421 
L 95.649513 156.406415 
L 96.039098 157.437708 
L 96.655942 158.675302 
L 96.720873 158.961091 
L 96.915665 159.270197 
L 97.207855 160.550291 
L 97.662371 162.155313 
L 98.149353 162.921121 
L 98.31168 163.178021 
L 98.571404 164.071712 
L 99.220713 166.863954 
L 99.610298 167.728186 
L 100.064815 168.478158 
L 101.071244 170.599824 
L 101.558225 171.370994 
L 102.532189 173.925571 
L 106.785164 186.560265 
L 107.759127 188.880215 
L 108.538298 191.535418 
L 109.869382 196.249666 
L 110.09664 196.914503 
L 111.88224 204.299484 
L 112.59648 206.668173 
L 113.213324 208.385731 
L 113.66784 209.990107 
L 113.830167 210.055704 
L 114.02496 210.113132 
L 114.284684 210.683905 
L 115.388509 214.223429 
L 115.615767 214.502646 
L 116.005353 215.027104 
L 116.16768 215.365961 
L 116.752058 217.019124 
L 116.979316 217.245759 
L 117.109178 217.237854 
L 117.368902 217.102526 
L 117.661091 217.275082 
L 117.888349 217.556072 
L 118.180538 218.217738 
L 118.602589 219.205612 
L 118.797382 219.464748 
L 118.862313 219.407767 
L 119.089571 219.105065 
L 119.544087 217.642247 
L 119.609018 217.693857 
L 120.290793 219.480132 
L 120.45312 219.673644 
L 120.712844 219.390077 
L 121.589411 218.585348 
L 121.621876 218.619914 
L 121.784204 218.680809 
L 122.108858 218.379061 
L 122.433513 217.594575 
L 122.693236 216.827404 
L 122.790633 216.797771 
L 122.823098 216.826984 
L 123.115287 217.338232 
L 123.31008 217.462572 
L 123.861993 217.507299 
L 124.154182 217.804065 
L 124.186647 217.777126 
L 124.219113 217.72328 
L 124.251578 217.806075 
L 124.38144 217.878105 
L 124.478836 217.93553 
L 124.576233 218.171229 
L 125.874851 222.350184 
L 126.199505 222.548656 
L 126.589091 222.032255 
L 126.751418 221.862344 
L 127.076073 222.435498 
L 127.433193 223.360431 
L 127.563055 223.676597 
L 127.59552 223.660073 
L 127.692916 223.725397 
L 127.822778 223.751823 
L 128.017571 223.631943 
L 128.30976 223.122153 
L 128.796742 221.704764 
L 129.121396 221.026938 
L 129.283724 220.979392 
L 129.446051 220.932946 
L 129.543447 220.877244 
L 129.965498 219.526413 
L 130.290153 218.373813 
L 131.134255 216.504835 
L 131.361513 216.550084 
L 131.88096 217.470825 
L 132.173149 216.466862 
L 132.627665 214.775235 
L 132.919855 214.468373 
L 133.341905 214.002924 
L 133.374371 214.059433 
L 134.02368 214.893935 
L 134.965178 213.199637 
L 135.614487 210.726966 
L 136.296262 209.242075 
L 136.52352 209.197929 
L 136.815709 209.383907 
L 137.270225 209.399181 
L 137.692276 209.631157 
L 137.984465 208.859852 
L 138.828567 205.495191 
L 139.283084 204.74722 
L 139.932393 203.744246 
L 140.386909 202.016874 
L 141.003753 200.638495 
L 141.068684 200.546696 
L 141.588131 199.419293 
L 141.815389 199.30372 
L 142.562095 199.327844 
L 142.821818 199.386219 
L 142.95168 199.434909 
L 143.211404 199.493273 
L 144.185367 199.166907 
L 144.802211 199.876408 
L 144.997004 199.848236 
L 145.906036 199.091517 
L 145.938502 199.12897 
L 146.068364 199.380072 
L 146.393018 199.993966 
L 146.782604 199.44344 
L 147.269585 198.472339 
L 147.529309 198.616214 
L 147.821498 199.350574 
L 148.146153 200.141227 
L 148.340945 200.179037 
L 148.892858 199.939503 
L 149.249978 199.962034 
L 149.444771 199.967009 
L 149.574633 199.952735 
L 149.834356 199.726705 
L 150.840785 198.175826 
L 151.132975 198.193564 
L 151.684887 197.987218 
L 151.912145 197.978227 
L 152.074473 197.944113 
L 152.301731 197.852923 
L 152.528989 197.953938 
L 152.821178 198.167873 
L 152.983505 198.211992 
L 153.340625 197.66166 
L 154.054865 196.608647 
L 154.152262 196.706667 
L 154.606778 197.026537 
L 154.931433 196.702914 
L 155.126225 196.508517 
L 155.385949 196.383746 
L 155.710604 196.294958 
L 156.132655 196.635855 
L 156.392378 196.951344 
L 156.587171 197.066364 
L 156.814429 197.455932 
L 157.009222 197.6399 
L 157.171549 197.735137 
L 157.204015 197.665537 
L 157.723462 197.063596 
L 157.918255 197.400101 
L 158.177978 197.991906 
L 158.210444 197.97917 
L 158.340305 198.07543 
L 158.470167 198.086183 
L 158.762356 197.734011 
L 159.087011 197.333831 
L 160.125905 196.07146 
L 160.515491 196.25281 
L 160.710284 196.293803 
L 161.943971 196.182547 
L 162.59328 196.344117 
L 162.917935 195.91914 
L 163.242589 195.506044 
L 163.437382 195.698398 
L 163.729571 196.286577 
L 163.762036 196.237893 
L 163.794502 196.337772 
L 164.119156 196.84186 
L 164.443811 197.162774 
L 164.768465 197.115164 
L 165.774895 196.733876 
L 166.002153 196.776019 
L 166.489135 196.355261 
L 168.079942 194.880455 
L 168.3072 194.969064 
L 168.794182 194.745525 
L 170.027869 194.427198 
L 170.709644 194.001656 
L 171.8784 192.912932 
L 171.910865 192.950723 
L 172.170589 193.095649 
L 172.397847 193.100355 
L 172.59264 192.9392 
L 172.852364 192.786657 
L 173.047156 192.789975 
L 173.371811 192.65007 
L 173.956189 192.464072 
L 174.215913 192.419705 
L 175.611927 191.640011 
L 175.741789 191.558233 
L 176.066444 191.411776 
L 176.585891 191.108165 
L 176.813149 191.02546 
L 177.397527 190.885629 
L 177.754647 190.592012 
L 180.189556 188.206058 
L 182.884189 183.811899 
L 183.630895 182.400707 
L 184.182807 181.649019 
L 184.539927 180.682339 
L 184.961978 179.667502 
L 186.098269 177.499675 
L 186.650182 175.878296 
L 186.942371 175.322717 
L 187.299491 174.747623 
L 188.143593 172.586818 
L 190.870691 165.118295 
L 191.422604 163.625529 
L 192.136844 161.310921 
L 192.623825 159.953184 
L 193.175738 158.829419 
L 194.441891 154.626412 
L 194.831476 153.378105 
L 196.324887 149.501578 
L 196.909265 147.259153 
L 197.94816 144.504909 
L 198.402676 143.186534 
L 198.565004 142.524291 
L 199.084451 140.59568 
L 199.409105 139.824635 
L 199.571433 139.535701 
L 200.642793 136.6982 
L 201.714153 133.401716 
L 202.59072 131.367659 
L 202.817978 131.001026 
L 203.727011 128.705025 
L 205.123025 125.194549 
L 205.739869 124.169508 
L 206.16192 123.443867 
L 206.778764 122.154281 
L 207.752727 121.026611 
L 208.142313 120.289588 
L 208.402036 120.254439 
L 208.596829 120.130406 
L 208.921484 119.697335 
L 209.278604 118.870596 
L 209.538327 118.682983 
L 209.73312 118.643818 
L 209.992844 118.364065 
L 210.252567 117.907321 
L 210.512291 117.722839 
L 211.356393 116.096021 
L 211.908305 116.101007 
L 212.525149 115.066083 
L 212.882269 114.333137 
L 213.206924 113.837771 
L 214.01856 112.698833 
L 214.180887 112.66986 
L 214.37568 112.578799 
L 214.992524 112.354701 
L 216.128815 111.042105 
L 216.388538 111.00912 
L 216.680727 111.107182 
L 216.843055 110.920072 
L 217.200175 110.338737 
L 217.622225 109.845176 
L 218.531258 109.021115 
L 219.37536 107.915698 
L 219.635084 107.507238 
L 220.219462 107.612382 
L 220.576582 107.190099 
L 220.933702 106.458139 
L 221.096029 106.514062 
L 221.550545 106.715868 
L 221.680407 106.538902 
L 221.907665 106.071114 
L 222.199855 105.521301 
L 222.394647 105.419406 
L 222.686836 105.299696 
L 222.914095 105.475484 
L 223.173818 105.466895 
L 223.433542 105.052624 
L 224.050385 104.28222 
L 224.180247 104.127879 
L 224.407505 103.934912 
L 224.699695 104.010395 
L 224.894487 103.975268 
L 225.186676 103.810168 
L 225.349004 103.924342 
L 225.381469 103.88965 
L 225.998313 102.777906 
L 226.030778 102.799976 
L 226.225571 102.8238 
L 226.452829 102.6381 
L 226.809949 102.349804 
L 227.004742 102.220331 
L 227.264465 102.035041 
L 227.816378 102.092395 
L 228.141033 101.833296 
L 228.66048 101.241026 
L 228.757876 101.209037 
L 228.952669 100.94616 
L 229.277324 100.5903 
L 229.472116 100.814966 
L 229.699375 101.05788 
L 229.861702 100.895625 
L 230.348684 100.089903 
L 230.933062 100.363251 
L 231.257716 99.949673 
L 231.420044 99.896728 
L 232.101818 99.531991 
L 232.523869 99.526509 
L 232.913455 99.345502 
L 233.367971 99.100004 
L 233.984815 99.476977 
L 234.244538 99.624166 
L 234.601658 99.256736 
L 234.763985 99.130572 
L 234.926313 99.251246 
L 235.413295 99.653615 
L 236.289862 99.555537 
L 236.841775 99.897012 
L 237.23136 100.112785 
L 237.491084 99.936348 
L 237.913135 99.489569 
L 238.692305 99.612298 
L 239.049425 99.879312 
L 239.276684 99.863504 
L 239.471476 99.857904 
L 239.633804 99.970155 
L 239.893527 100.135716 
L 240.672698 99.840104 
L 240.932422 99.914092 
L 241.841455 100.039878 
L 242.620625 100.732434 
L 242.977745 100.64071 
L 243.691985 100.848947 
L 244.114036 100.872304 
L 245.152931 101.294775 
L 245.315258 101.257723 
L 245.704844 101.640257 
L 246.061964 102.00969 
L 246.51648 101.861932 
L 246.711273 101.800376 
L 246.938531 101.911037 
L 247.490444 102.340676 
L 247.620305 102.204803 
L 247.912495 101.943335 
L 248.107287 102.2165 
L 248.529338 102.938931 
L 248.691665 102.862049 
L 249.01632 102.57204 
L 249.276044 102.547995 
L 249.665629 102.770403 
L 249.990284 102.772522 
L 251.418764 102.755259 
L 251.710953 102.994087 
L 251.905745 103.052482 
L 252.165469 103.137125 
L 252.717382 103.150419 
L 253.171898 103.674397 
L 253.464087 103.787759 
L 253.65888 103.91303 
L 254.210793 104.320095 
L 254.438051 104.097624 
L 254.632844 103.981766 
L 254.957498 104.12942 
L 255.509411 104.685523 
L 255.671738 104.444694 
L 255.866531 104.249064 
L 256.321047 104.422895 
L 256.905425 104.74705 
L 257.295011 105.115793 
L 257.846924 105.228221 
L 258.236509 105.143876 
L 258.431302 105.143577 
L 258.950749 105.32393 
L 259.145542 105.831703 
L 259.405265 106.087197 
L 260.184436 105.84568 
L 260.476625 105.640432 
L 260.638953 105.562074 
L 261.190865 105.828637 
L 261.450589 105.847016 
L 262.034967 105.54684 
L 262.164829 105.719865 
L 262.489484 106.481009 
L 262.684276 106.669127 
L 262.879069 106.440166 
L 263.171258 106.135044 
L 263.65824 106.378174 
L 263.950429 106.394373 
L 264.242618 106.555135 
L 264.437411 106.576048 
L 264.599738 106.314192 
L 264.989324 105.640645 
L 265.151651 105.806633 
L 265.606167 106.673404 
L 265.736029 106.57676 
L 266.15808 106.12048 
L 266.385338 106.144076 
L 266.580131 106.288778 
L 266.807389 106.402526 
L 268.138473 106.180839 
L 268.398196 106.242203 
L 268.625455 106.225827 
L 268.982575 106.117289 
L 269.079971 106.21708 
L 269.112436 106.170045 
L 269.826676 106.87244 
L 270.638313 106.256692 
L 271.092829 106.410759 
L 271.287622 106.21965 
L 271.547345 106.044404 
L 271.872 106.298697 
L 272.034327 106.373786 
L 272.748567 106.231789 
L 273.754996 106.394207 
L 274.436771 106.018853 
L 274.566633 106.32071 
L 274.599098 106.299866 
L 274.696495 106.18603 
L 274.72896 106.216984 
L 274.826356 106.28988 
L 275.313338 107.373447 
L 275.475665 107.25536 
L 275.962647 106.567573 
L 276.222371 106.58375 
L 277.261265 107.740141 
L 277.845644 107.297506 
L 278.202764 106.754678 
L 278.397556 106.682004 
L 278.787142 106.991153 
L 279.306589 107.834273 
L 279.37152 107.786709 
L 279.533847 107.488665 
L 280.183156 105.687153 
L 280.864931 105.418457 
L 281.222051 105.601713 
L 282.033687 106.983439 
L 282.325876 107.085572 
L 282.520669 106.966651 
L 282.715462 106.57102 
L 283.040116 106.049614 
L 283.559564 105.739333 
L 283.884218 106.122357 
L 284.403665 106.997185 
L 284.501062 107.119888 
L 284.72832 108.743942 
L 284.988044 109.338815 
L 285.052975 109.686677 
L 285.215302 111.757719 
L 285.539956 113.241694 
L 285.994473 115.288321 
L 286.221731 115.439354 
L 286.416524 115.173937 
L 287.033367 114.34894 
L 287.195695 114.276533 
L 287.22816 114.095107 
L 287.325556 114.131883 
L 287.552815 114.062297 
L 287.58528 113.894298 
L 287.682676 113.938906 
L 287.877469 113.907181 
L 287.909935 113.724201 
L 288.007331 113.776633 
L 288.104727 113.797532 
L 288.137193 113.614571 
L 288.234589 113.692109 
L 288.267055 113.709225 
L 288.461847 113.266448 
L 288.591709 113.399999 
L 288.624175 113.189837 
L 288.721571 113.279424 
L 289.046225 113.162664 
L 289.273484 112.989075 
L 289.468276 112.286962 
L 289.630604 112.038049 
L 289.695535 112.001612 
L 289.760465 112.168578 
L 289.890327 112.006735 
L 289.987724 112.190761 
L 290.020189 112.17531 
L 290.247447 111.457008 
L 291.091549 110.113662 
L 291.286342 109.834939 
L 291.87072 108.82251 
L 291.903185 108.865414 
L 291.935651 108.946937 
L 291.968116 108.874057 
L 292.292771 108.448321 
L 292.520029 108.31651 
L 292.974545 107.527156 
L 293.65632 106.557195 
L 293.980975 106.185225 
L 294.143302 105.960583 
L 294.403025 105.614028 
L 295.214662 104.830716 
L 295.474385 104.613001 
L 296.091229 103.85483 
L 296.480815 103.940648 
L 296.675607 104.192291 
L 296.708073 104.16722 
L 296.935331 103.725173 
L 297.714502 101.181236 
L 297.876829 101.21465 
L 298.136553 101.565722 
L 298.169018 101.539924 
L 298.461207 101.397736 
L 298.591069 101.326302 
L 299.694895 99.473603 
L 300.116945 98.797772 
L 300.701324 98.376943 
L 300.928582 98.446675 
L 301.090909 98.483829 
L 301.415564 97.911638 
L 302.162269 95.97359 
L 302.616785 95.55472 
L 302.94144 95.40515 
L 303.103767 95.238554 
L 303.850473 94.80467 
L 304.077731 94.736119 
L 304.824436 94.034867 
L 305.051695 93.922267 
L 305.343884 93.740646 
L 305.603607 93.583756 
L 305.895796 93.362183 
L 306.220451 93.401186 
L 306.350313 93.458313 
L 306.545105 93.568697 
L 306.902225 93.38684 
L 307.032087 93.331392 
L 308.265775 92.324725 
L 308.622895 92.220556 
L 309.044945 91.854785 
L 309.402065 91.361721 
L 309.72672 91.360048 
L 310.376029 91.554581 
L 310.44096 91.616205 
L 310.473425 91.552878 
L 310.960407 90.931473 
L 311.479855 89.916415 
L 311.836975 89.855654 
L 312.713542 90.396049 
L 312.875869 90.358018 
L 313.070662 90.245297 
L 313.29792 89.923505 
L 313.362851 89.974513 
L 313.719971 89.90321 
L 314.01216 90.168435 
L 314.044625 90.134869 
L 314.109556 90.221199 
L 314.499142 90.444234 
L 314.661469 90.518548 
L 315.375709 91.05153 
L 315.538036 91.218092 
L 315.570502 91.277741 
L 315.635433 91.200064 
L 315.895156 91.032648 
L 315.927622 91.096828 
L 315.960087 91.143967 
L 316.025018 91.09749 
L 316.15488 90.895622 
L 316.219811 90.973095 
L 316.674327 90.90233 
L 316.86912 91.084667 
L 317.258705 91.371167 
L 317.291171 91.348312 
L 317.323636 91.417511 
L 317.388567 91.49479 
L 317.453498 91.415206 
L 317.58336 91.389373 
L 318.070342 91.593718 
L 318.362531 91.54744 
L 318.427462 91.510799 
L 318.589789 91.366425 
L 318.752116 91.272079 
L 319.044305 91.392725 
L 319.888407 92.180472 
L 320.635113 92.397629 
L 320.862371 92.17044 
L 321.057164 92.097201 
L 321.187025 92.240427 
L 321.251956 92.171585 
L 321.284422 92.13126 
L 321.316887 92.182297 
L 321.446749 92.231198 
L 321.998662 91.787885 
L 322.258385 91.244455 
L 322.420713 91.234956 
L 322.712902 91.4483 
L 322.972625 91.738902 
L 323.037556 91.824696 
L 323.102487 91.74726 
L 323.394676 91.548787 
L 323.524538 91.346701 
L 323.719331 91.093514 
L 324.108916 90.542661 
L 324.206313 90.650993 
L 324.855622 91.260838 
L 325.212742 90.948944 
L 325.667258 90.253656 
L 326.089309 89.592521 
L 326.284102 89.288163 
L 326.446429 89.284899 
L 326.641222 89.500422 
L 326.933411 89.497722 
L 327.095738 89.68531 
L 327.160669 89.624145 
L 327.647651 88.783706 
L 327.680116 88.81318 
L 327.809978 88.700998 
L 328.102167 88.440563 
L 328.361891 87.841554 
L 328.394356 87.894275 
L 328.65408 87.984404 
L 328.751476 87.981241 
L 328.881338 87.998953 
L 329.076131 87.946382 
L 329.205993 87.981126 
L 329.465716 87.935546 
L 329.887767 87.3936 
L 330.504611 86.022576 
L 330.731869 85.931195 
L 331.251316 85.942032 
L 331.413644 85.908545 
L 331.705833 85.810555 
L 331.998022 85.370678 
L 332.160349 85.341986 
L 332.290211 85.39494 
L 332.874589 84.944572 
L 333.101847 84.713913 
L 333.264175 84.739771 
L 333.491433 84.571517 
L 333.65376 84.486162 
L 333.978415 83.989034 
L 334.075811 83.879342 
L 334.140742 83.959468 
L 334.595258 84.498487 
L 334.822516 84.692926 
L 334.919913 84.670891 
L 335.212102 83.974512 
L 335.43936 83.481835 
L 335.634153 83.226062 
L 335.699084 83.271875 
L 335.861411 83.31883 
L 336.088669 83.328853 
L 336.348393 83.250824 
L 337.062633 82.966242 
L 337.192495 83.009217 
L 337.517149 82.744212 
L 337.679476 82.679398 
L 338.101527 82.88961 
L 338.426182 82.546518 
L 338.945629 81.169256 
L 339.205353 80.768355 
L 339.400145 80.892119 
L 339.692335 81.234594 
L 340.179316 81.978332 
L 340.43904 81.660598 
L 340.698764 80.942809 
L 341.088349 79.979299 
L 341.445469 79.500088 
L 341.672727 79.581846 
L 341.899985 79.710689 
L 342.127244 79.625062 
L 342.646691 79.027984 
L 342.873949 78.937482 
L 343.685585 78.343036 
L 343.880378 78.327991 
L 344.042705 78.182437 
L 344.269964 77.955175 
L 344.432291 78.08932 
L 344.594618 78.347381 
L 344.984204 79.366053 
L 345.243927 79.664642 
L 345.373789 79.618826 
L 345.601047 79.02393 
L 345.990633 77.936615 
L 346.185425 77.888232 
L 347.419113 77.56537 
L 347.613905 77.581984 
L 347.776233 77.343054 
L 348.133353 76.898609 
L 348.393076 76.870542 
L 348.880058 76.791179 
L 349.594298 76.29781 
L 349.756625 76.104226 
L 350.308538 74.212335 
L 350.568262 73.263013 
L 350.698124 73.115424 
L 350.730589 73.135246 
L 351.15264 73.550462 
L 351.185105 73.460564 
L 351.250036 73.504091 
L 351.574691 73.848376 
L 352.126604 74.561812 
L 352.418793 74.186039 
L 352.678516 73.053912 
L 353.100567 71.280458 
L 353.197964 71.147399 
L 353.230429 71.167538 
L 353.879738 72.147882 
L 353.912204 73.135651 
L 353.977135 72.766247 
L 354.399185 71.758435 
L 354.983564 71.47881 
L 355.210822 71.341805 
L 355.762735 71.719438 
L 355.989993 71.657911 
L 356.15232 71.520785 
L 356.184785 71.566873 
L 356.444509 71.632773 
L 357.093818 71.572045 
L 357.22368 71.587724 
L 357.450938 71.742151 
L 357.905455 71.514554 
L 358.067782 71.678635 
L 358.197644 71.801521 
L 358.230109 72.661535 
L 358.327505 72.431508 
L 358.457367 72.404975 
L 358.65216 72.738997 
L 359.074211 74.009894 
L 359.431331 74.885015 
L 359.528727 75.085169 
L 359.885847 75.594976 
L 360.178036 75.787442 
L 360.372829 75.80715 
L 360.502691 75.791075 
L 360.665018 75.584556 
L 360.729949 74.98622 
L 360.762415 75.879397 
L 360.827345 75.490913 
L 361.476655 72.634485 
L 361.86624 71.486624 
L 362.450618 70.100399 
L 362.483084 70.178462 
L 362.515549 70.029519 
L 362.710342 69.689324 
L 362.742807 69.705542 
L 362.872669 69.511293 
L 363.099927 68.903615 
L 363.164858 68.93911 
L 363.262255 69.022414 
L 363.29472 68.931277 
L 363.359651 68.692473 
L 363.489513 74.617727 
L 363.554444 74.03465 
L 363.716771 65.663891 
L 364.236218 54.323246 
L 364.333615 54.061572 
L 364.36608 54.168242 
L 364.528407 55.135727 
L 365.112785 59.597605 
L 365.177716 59.638607 
L 365.210182 59.576436 
L 365.404975 58.92291 
L 366.15168 55.185496 
L 366.216611 55.184176 
L 366.249076 55.231053 
L 366.476335 55.412291 
L 366.638662 55.485009 
L 366.833455 55.437628 
L 367.028247 55.067041 
L 367.645091 53.601125 
L 367.774953 53.611849 
L 367.969745 53.814301 
L 368.748916 54.633037 
L 369.073571 55.062339 
L 369.300829 55.08147 
L 369.625484 55.047551 
L 370.015069 55.404114 
L 370.112465 55.597754 
L 370.469585 56.871614 
L 370.891636 57.854282 
L 371.15136 57.915085 
L 371.281222 57.812763 
L 371.313687 57.89524 
L 371.443549 57.884723 
L 371.540945 57.957701 
L 371.8656 58.824461 
L 372.125324 59.630529 
L 372.320116 59.635356 
L 372.449978 59.589239 
L 372.482444 59.670814 
L 372.547375 59.600409 
L 372.709702 59.531375 
L 372.839564 59.727401 
L 373.164218 61.041481 
L 373.423942 61.884166 
L 373.6512 61.879009 
L 373.781062 61.769343 
L 373.975855 61.622967 
L 374.203113 61.557827 
L 374.560233 62.390857 
L 374.884887 63.186606 
L 375.566662 64.125064 
L 375.923782 64.677821 
L 376.280902 64.903384 
L 376.410764 64.850463 
L 376.540625 64.870189 
L 376.638022 64.941093 
L 377.57952 66.809155 
L 377.611985 66.793852 
L 377.741847 66.714255 
L 378.034036 65.979359 
L 378.098967 66.07575 
L 378.228829 66.335596 
L 378.845673 67.860083 
L 379.008 68.116463 
L 379.300189 68.951997 
L 379.494982 69.023605 
L 379.819636 68.680146 
L 379.949498 68.402227 
L 380.404015 68.18107 
L 380.43648 68.273399 
L 380.728669 69.03862 
L 381.085789 69.804715 
L 381.118255 69.735411 
L 381.183185 69.847114 
L 381.572771 70.223401 
L 381.637702 70.257437 
L 381.670167 70.025692 
L 381.735098 70.243395 
L 381.962356 69.902734 
L 382.027287 69.923951 
L 382.189615 70.306729 
L 382.968785 71.305237 
L 383.29344 71.543353 
L 383.780422 72.17789 
L 384.00768 72.513801 
L 384.267404 72.763437 
L 384.527127 72.966318 
L 384.624524 73.096777 
L 384.916713 73.584866 
L 385.111505 74.011434 
L 385.371229 74.327036 
L 385.533556 74.266634 
L 385.630953 74.280351 
L 385.890676 73.842059 
L 385.955607 73.83195 
L 386.020538 73.996281 
L 386.085469 73.964867 
L 386.215331 74.059935 
L 386.442589 74.517405 
L 386.604916 74.977901 
L 386.832175 75.641245 
L 386.897105 75.706563 
L 386.962036 75.789786 
L 386.994502 75.671585 
L 387.286691 75.392952 
L 387.319156 75.440423 
L 387.676276 76.569612 
L 388.325585 78.645256 
L 389.00736 80.221577 
L 389.039825 80.202167 
L 389.202153 80.352776 
L 389.332015 80.323296 
L 389.624204 80.39164 
L 390.07872 80.976867 
L 390.273513 81.246717 
L 390.728029 82.016205 
L 390.79296 81.892925 
L 390.857891 81.948423 
L 391.117615 82.291394 
L 391.15008 82.202371 
L 391.215011 82.324848 
L 391.572131 83.125317 
L 392.124044 84.500671 
L 392.643491 85.391217 
L 393.130473 86.197913 
L 393.162938 86.17905 
L 393.260335 86.108537 
L 393.2928 86.201643 
L 393.714851 86.491847 
L 393.747316 86.367639 
L 393.812247 86.484385 
L 394.234298 87.495501 
L 395.208262 89.835062 
L 395.403055 89.728185 
L 395.597847 89.031389 
L 395.662778 89.264257 
L 395.760175 88.738394 
L 395.79264 88.798835 
L 395.890036 89.441853 
L 395.954967 89.228233 
L 396.019898 89.35747 
L 396.539345 91.787103 
L 397.123724 94.082348 
L 397.22112 93.925215 
L 397.286051 93.694424 
L 397.350982 93.847448 
L 397.708102 93.328729 
L 397.773033 93.629521 
L 397.837964 93.471885 
L 397.93536 93.547468 
L 398.195084 94.65061 
L 398.487273 95.768605 
L 398.487273 95.768605 
" style="fill:none;stroke:#1f77b4;stroke-linecap:square;stroke-width:1.5;"/>
   </g>
   <g id="line2d_13">
    <path clip-path="url(#pbe62b6d076)" d="M 73.832727 295.142931 
L 73.865193 295.488 
L 74.02752 273.949079 
L 74.319709 242.489952 
L 74.546967 293.322121 
L 74.579433 291.185573 
L 74.644364 279.390993 
L 74.676829 267.893893 
L 74.74176 279.759218 
L 74.969018 289.472532 
L 75.001484 289.672374 
L 75.033949 289.598486 
L 75.163811 287.289009 
L 75.81312 266.736729 
L 77.403927 221.397782 
L 78.735011 195.007311 
L 80.8128 161.717365 
L 81.52704 155.921282 
L 82.143884 151.148082 
L 82.858124 147.586691 
L 83.085382 147.169382 
L 83.474967 146.544593 
L 83.799622 145.314887 
L 84.091811 144.544053 
L 85.000844 143.312062 
L 85.163171 143.098622 
L 85.195636 143.13819 
L 85.747549 143.981208 
L 86.364393 145.266598 
L 86.396858 145.325968 
L 86.461789 145.281333 
L 86.689047 145.230672 
L 87.24096 145.405302 
L 87.500684 145.912009 
L 87.663011 146.243506 
L 89.448611 151.184326 
L 90.909556 154.618964 
L 91.753658 156.500662 
L 92.208175 157.519507 
L 93.019811 159.47824 
L 94.091171 161.030703 
L 94.643084 161.965493 
L 96.558545 166.125673 
L 96.948131 167.077435 
L 97.629905 168.907081 
L 98.31168 170.2604 
L 99.350575 173.175019 
L 101.071244 176.27258 
L 101.817949 177.375662 
L 102.207535 178.26565 
L 102.59712 179.273628 
L 105.648873 187.933869 
L 106.492975 190.409529 
L 107.207215 192.043232 
L 109.3824 199.357412 
L 109.836916 200.960195 
L 110.129105 201.914347 
L 111.070604 205.827843 
L 112.693876 210.851506 
L 113.115927 212.136696 
L 113.31072 212.842468 
L 113.570444 213.764155 
L 113.732771 214.042117 
L 113.927564 214.103173 
L 114.219753 214.600154 
L 115.193716 217.397347 
L 115.745629 218.222994 
L 116.946851 219.927912 
L 117.109178 219.775899 
L 117.271505 219.657685 
L 117.498764 219.588745 
L 117.726022 219.768774 
L 118.083142 220.144064 
L 118.407796 220.298888 
L 118.570124 220.541504 
L 118.797382 220.688794 
L 119.122036 220.20174 
L 119.316829 219.350205 
L 119.544087 218.825832 
L 119.641484 218.870398 
L 119.673949 219.026879 
L 119.771345 218.973435 
L 120.160931 219.125459 
L 120.323258 218.967371 
L 120.420655 219.085808 
L 120.45312 218.987255 
L 120.680378 218.586979 
L 120.907636 218.375167 
L 121.069964 218.287304 
L 121.134895 218.409657 
L 121.16736 218.322679 
L 121.589411 217.656154 
L 121.784204 217.57793 
L 122.271185 216.467708 
L 122.920495 214.430425 
L 123.147753 214.309165 
L 123.245149 214.190671 
L 123.537338 213.757919 
L 123.602269 213.663245 
L 123.634735 213.687844 
L 123.797062 214.543951 
L 124.284044 217.288435 
L 124.511302 217.623056 
L 124.673629 217.885365 
L 125.485265 218.940019 
L 125.777455 219.639895 
L 125.939782 219.651579 
L 126.134575 219.498895 
L 126.426764 219.064702 
L 126.751418 218.429747 
L 126.783884 218.447709 
L 127.433193 218.868653 
L 127.627985 219.00237 
L 128.342225 218.384026 
L 129.153862 216.776417 
L 129.283724 216.733551 
L 129.835636 215.601716 
L 130.160291 214.092879 
L 130.614807 212.1297 
L 131.101789 209.886536 
L 131.16672 209.979363 
L 131.393978 210.330999 
L 131.816029 211.010457 
L 131.945891 210.866916 
L 132.23808 209.782974 
L 132.562735 208.6451 
L 133.341905 206.678447 
L 133.569164 206.633851 
L 133.699025 206.752375 
L 134.121076 207.26954 
L 134.283404 207.159537 
L 134.510662 207.01515 
L 134.770385 207.001805 
L 134.965178 206.531249 
L 136.198865 202.154205 
L 136.458589 201.625828 
L 136.555985 201.742466 
L 136.815709 201.710976 
L 137.23776 201.492703 
L 137.789673 202.173842 
L 137.854604 202.10537 
L 138.081862 201.361891 
L 138.698705 199.060559 
L 139.185687 197.97726 
L 139.477876 197.607187 
L 139.834996 197.44943 
L 139.964858 197.282069 
L 140.679098 195.500892 
L 140.938822 194.931577 
L 141.328407 194.075084 
L 141.88032 193.203932 
L 142.23744 192.844248 
L 142.302371 192.955765 
L 142.59456 193.034656 
L 142.919215 193.030479 
L 143.146473 193.167516 
L 143.276335 193.236465 
L 143.536058 193.445361 
L 143.828247 193.355719 
L 144.185367 192.853516 
L 144.542487 192.783936 
L 145.029469 193.189358 
L 145.548916 193.493634 
L 145.873571 193.431765 
L 146.035898 193.603501 
L 146.360553 194.237182 
L 146.555345 194.143359 
L 146.847535 193.917572 
L 147.366982 193.370372 
L 147.659171 193.678332 
L 148.470807 194.962931 
L 148.957789 195.446268 
L 149.185047 195.675794 
L 149.314909 195.718447 
L 149.769425 196.049716 
L 149.996684 195.950066 
L 150.840785 195.154088 
L 151.132975 195.231527 
L 151.457629 195.257965 
L 152.269265 195.651511 
L 153.178298 196.602997 
L 153.860073 196.177639 
L 154.054865 195.957903 
L 154.769105 196.488455 
L 154.931433 196.39703 
L 155.09376 196.337489 
L 155.353484 196.383879 
L 156.002793 196.481381 
L 156.392378 197.003258 
L 156.554705 197.151333 
L 156.781964 197.667966 
L 157.074153 198.240051 
L 157.301411 198.360144 
L 157.723462 198.184857 
L 158.015651 198.702781 
L 158.340305 199.18592 
L 158.632495 199.2659 
L 158.924684 199.20076 
L 159.3792 199.046821 
L 159.638924 198.699267 
L 159.963578 198.406181 
L 160.385629 198.391357 
L 160.742749 198.605844 
L 160.970007 198.671467 
L 161.586851 198.841772 
L 161.781644 198.909102 
L 162.690676 199.319312 
L 162.853004 199.170289 
L 163.242589 198.67637 
L 163.339985 198.760566 
L 163.859433 199.749781 
L 164.054225 199.844076 
L 164.606138 200.27159 
L 165.385309 200.429622 
L 165.645033 200.37598 
L 166.359273 200.508091 
L 167.365702 199.906146 
L 167.95008 199.251928 
L 168.372131 199.261472 
L 168.696785 199.102635 
L 168.956509 199.110818 
L 169.37856 199.173913 
L 170.190196 199.234995 
L 170.547316 199.194552 
L 171.261556 198.524944 
L 171.553745 198.261472 
L 171.781004 198.230808 
L 172.560175 198.292195 
L 172.754967 198.168439 
L 173.047156 198.304177 
L 173.177018 198.330673 
L 173.339345 198.318938 
L 173.793862 198.276818 
L 174.215913 198.482971 
L 174.605498 198.416036 
L 174.73536 198.339887 
L 174.995084 198.168413 
L 175.287273 198.250785 
L 178.468887 198.081247 
L 179.994764 197.373573 
L 180.773935 196.901467 
L 180.936262 196.837981 
L 182.23488 194.759132 
L 184.669789 190.117556 
L 185.351564 188.713992 
L 185.935942 187.525231 
L 187.396887 184.316408 
L 188.338385 182.191073 
L 189.150022 180.05442 
L 189.637004 178.992038 
L 190.481105 177.164269 
L 191.649862 174.299499 
L 191.87712 173.727996 
L 192.493964 171.909993 
L 192.883549 171.464169 
L 193.175738 171.028402 
L 194.279564 168.345095 
L 194.73408 166.846652 
L 195.0912 166.084261 
L 196.324887 163.896557 
L 196.909265 162.254656 
L 197.363782 161.513014 
L 197.94816 160.391975 
L 198.694865 158.695965 
L 199.344175 157.095212 
L 200.415535 155.721603 
L 201.097309 153.852316 
L 201.421964 153.079832 
L 202.59072 150.699784 
L 202.785513 150.438035 
L 203.240029 149.480712 
L 204.668509 146.153766 
L 205.869731 144.449668 
L 206.583971 143.075756 
L 206.87616 142.863464 
L 207.070953 142.730011 
L 207.720262 141.993854 
L 208.337105 141.254378 
L 208.564364 141.140411 
L 208.694225 141.127236 
L 208.889018 140.914169 
L 209.635724 139.947953 
L 209.992844 139.684447 
L 210.252567 139.347111 
L 210.512291 139.215856 
L 211.323927 137.744252 
L 211.583651 137.837342 
L 211.908305 137.998744 
L 212.492684 137.552006 
L 212.882269 136.564764 
L 213.434182 135.721573 
L 213.856233 135.58295 
L 214.278284 135.597937 
L 214.602938 135.494385 
L 214.830196 135.62037 
L 215.252247 135.337675 
L 215.382109 135.374109 
L 215.706764 135.283687 
L 216.323607 134.735498 
L 216.583331 134.832751 
L 216.87552 134.897106 
L 217.005382 134.78976 
L 217.135244 134.764061 
L 217.330036 134.661168 
L 217.557295 134.419432 
L 217.752087 134.283512 
L 217.849484 134.216576 
L 218.953309 133.357038 
L 219.245498 133.159313 
L 219.602618 132.563655 
L 219.797411 132.577175 
L 220.024669 132.737669 
L 220.251927 132.838827 
L 220.641513 132.807663 
L 220.933702 132.457888 
L 221.258356 132.522312 
L 221.51808 132.561535 
L 222.686836 131.786877 
L 222.719302 131.83381 
L 223.238749 132.266336 
L 223.401076 132.220532 
L 224.537367 131.334701 
L 224.667229 131.495352 
L 224.959418 131.848956 
L 225.08928 131.915225 
L 225.219142 132.153552 
L 225.349004 132.34584 
L 225.381469 132.331644 
L 226.030778 131.682038 
L 226.16064 131.652894 
L 226.550225 131.376045 
L 227.004742 131.371926 
L 227.232 131.3122 
L 227.848844 131.759146 
L 228.173498 131.772569 
L 228.433222 131.478002 
L 228.595549 131.404382 
L 229.342255 130.820289 
L 229.504582 131.15551 
L 229.73184 131.496078 
L 229.959098 131.391606 
L 230.348684 131.217083 
L 230.640873 131.369712 
L 230.997993 131.33139 
L 231.192785 131.186841 
L 231.549905 131.135318 
L 231.712233 131.083846 
L 232.069353 131.162321 
L 232.394007 131.256403 
L 232.978385 131.39132 
L 233.173178 131.299376 
L 233.692625 131.502412 
L 233.822487 131.629404 
L 234.3744 132.25179 
L 234.536727 132.139228 
L 234.893847 131.747689 
L 235.08864 131.839188 
L 235.673018 132.475182 
L 235.867811 132.549327 
L 236.582051 131.887735 
L 237.23136 132.33786 
L 237.458618 132.240321 
L 237.620945 131.986207 
L 237.978065 131.402916 
L 238.627375 130.995583 
L 239.276684 131.337186 
L 239.471476 131.344562 
L 239.666269 131.47787 
L 239.828596 131.548737 
L 240.80256 130.675899 
L 241.094749 130.560633 
L 241.971316 130.715657 
L 242.23104 130.947794 
L 242.555695 131.236317 
L 242.718022 131.195851 
L 243.237469 131.287638 
L 243.367331 131.282435 
L 243.691985 131.176627 
L 244.341295 130.950892 
L 244.665949 131.074521 
L 244.958138 131.164796 
L 245.282793 130.985546 
L 245.737309 131.252079 
L 245.997033 131.516656 
L 246.256756 131.513077 
L 246.386618 131.483379 
L 247.035927 131.086887 
L 247.360582 131.275543 
L 247.58784 131.19197 
L 247.880029 130.843465 
L 248.009891 130.941225 
L 248.172218 131.174207 
L 248.464407 131.715918 
L 248.6592 131.748929 
L 248.918924 131.555126 
L 249.763025 130.753559 
L 250.022749 130.879652 
L 250.282473 130.938652 
L 250.412335 130.911044 
L 250.704524 130.958514 
L 251.061644 130.757764 
L 251.451229 130.443511 
L 251.710953 130.441751 
L 251.840815 130.476101 
L 252.165469 130.576653 
L 252.58752 130.289428 
L 253.918604 131.223217 
L 254.048465 131.294055 
L 254.080931 131.27109 
L 254.308189 131.267087 
L 254.762705 130.637013 
L 255.08736 130.498527 
L 255.476945 130.946494 
L 255.606807 130.852395 
L 256.223651 130.266807 
L 256.905425 130.159679 
L 257.132684 130.275053 
L 257.619665 130.345215 
L 258.106647 130.37598 
L 258.528698 129.911005 
L 258.755956 129.598819 
L 258.885818 129.590629 
L 259.01568 129.771336 
L 259.307869 130.24791 
L 259.892247 130.573691 
L 260.184436 130.351223 
L 261.061004 129.434633 
L 261.255796 129.438275 
L 261.418124 129.437416 
L 261.937571 129.010166 
L 262.132364 128.840556 
L 262.294691 128.879583 
L 262.554415 129.101914 
L 262.976465 129.168015 
L 263.171258 129.151904 
L 263.268655 129.077117 
L 264.01536 128.516567 
L 264.275084 128.573296 
L 264.469876 128.484617 
L 264.826996 127.590123 
L 265.021789 127.392935 
L 266.5152 127.095539 
L 266.677527 127.155125 
L 266.969716 126.83592 
L 267.391767 126.159486 
L 268.235869 125.364227 
L 268.592989 125.211595 
L 269.437091 124.677783 
L 269.859142 125.030119 
L 270.151331 124.922546 
L 270.346124 124.628065 
L 270.962967 123.620775 
L 271.222691 123.446182 
L 271.449949 123.345761 
L 272.261585 122.852555 
L 272.521309 122.706509 
L 273.884858 121.783133 
L 274.274444 121.167627 
L 274.436771 121.129821 
L 274.891287 121.314632 
L 275.08608 121.219671 
L 276.287302 119.719298 
L 276.839215 119.642281 
L 277.261265 119.611297 
L 277.748247 119.173747 
L 278.365091 117.96148 
L 278.852073 117.830935 
L 279.209193 117.925759 
L 279.566313 117.054934 
L 279.890967 116.281213 
L 280.248087 115.902149 
L 280.605207 115.585572 
L 281.449309 114.495085 
L 281.936291 114.221296 
L 282.163549 114.158259 
L 282.488204 113.642272 
L 282.682996 112.97095 
L 283.007651 112.23947 
L 283.494633 111.732209 
L 283.819287 111.577785 
L 284.143942 111.212993 
L 284.533527 110.631083 
L 284.760785 110.450867 
L 284.988044 110.353726 
L 285.215302 110.28819 
L 286.026938 109.444501 
L 286.546385 108.365636 
L 286.903505 108.196716 
L 287.195695 108.087789 
L 288.007331 107.555528 
L 288.267055 107.438508 
L 288.559244 107.20683 
L 288.916364 106.947116 
L 289.273484 106.82258 
L 289.695535 106.53299 
L 289.987724 106.410815 
L 290.182516 106.013984 
L 290.79936 104.751515 
L 291.091549 104.653089 
L 291.253876 104.617475 
L 291.383738 104.513998 
L 291.675927 104.355511 
L 292.487564 104.235946 
L 292.974545 103.689137 
L 293.234269 103.48187 
L 293.786182 103.070937 
L 294.110836 102.936105 
L 294.37056 102.688559 
L 294.954938 102.342543 
L 295.571782 102.13326 
L 295.831505 101.960698 
L 296.286022 101.910141 
L 296.675607 102.144898 
L 296.8704 102.028239 
L 297.22752 101.409448 
L 297.519709 100.93063 
L 297.779433 100.802488 
L 297.974225 100.958978 
L 298.104087 101.00432 
L 298.136553 100.967709 
L 298.396276 100.844442 
L 298.526138 100.846951 
L 300.474065 99.032277 
L 301.188305 98.856416 
L 301.805149 97.774067 
L 302.162269 97.286872 
L 302.519389 97.062853 
L 302.811578 96.891131 
L 303.558284 96.368389 
L 303.785542 96.26002 
L 304.0128 96.204137 
L 304.597178 95.799668 
L 304.889367 95.754 
L 304.986764 95.701393 
L 305.7984 95.301613 
L 306.967156 95.366492 
L 308.006051 94.073877 
L 308.103447 94.055089 
L 309.077411 93.607372 
L 309.402065 93.37069 
L 310.603287 93.13711 
L 310.765615 93.119425 
L 311.122735 92.897685 
L 311.414924 92.535713 
L 311.609716 92.394518 
L 312.810938 92.711127 
L 313.103127 92.565476 
L 313.29792 92.458412 
L 313.395316 92.503263 
L 313.427782 92.482568 
L 314.466676 92.597237 
L 314.693935 92.775769 
L 315.018589 92.994883 
L 315.278313 93.108039 
L 315.375709 93.116158 
L 315.570502 93.182875 
L 315.765295 93.081868 
L 315.895156 93.089933 
L 316.057484 93.190601 
L 316.284742 93.196369 
L 316.414604 93.217858 
L 316.641862 93.141039 
L 316.934051 93.234372 
L 317.22624 93.32296 
L 317.615825 93.275597 
L 317.778153 93.327752 
L 318.037876 93.34094 
L 318.167738 93.291642 
L 318.946909 93.302447 
L 319.401425 93.488738 
L 319.596218 93.631252 
L 319.985804 93.890493 
L 320.245527 94.028772 
L 320.667578 94.081007 
L 321.089629 93.908377 
L 321.187025 93.94817 
L 321.284422 93.841022 
L 321.316887 93.864558 
L 321.446749 93.839485 
L 321.8688 93.572884 
L 322.031127 93.398568 
L 322.355782 93.227051 
L 322.745367 93.243696 
L 323.037556 93.350885 
L 323.362211 93.172664 
L 323.524538 93.068642 
L 323.816727 92.860163 
L 324.173847 92.67835 
L 324.303709 92.718635 
L 324.530967 92.746534 
L 324.855622 92.714807 
L 325.407535 92.29153 
L 325.634793 92.261771 
L 326.024378 91.955886 
L 326.446429 91.728602 
L 326.608756 91.751778 
L 327.420393 91.443206 
L 327.647651 91.309154 
L 327.745047 91.316297 
L 327.874909 91.248729 
L 327.907375 91.274708 
L 328.134633 90.997634 
L 328.329425 90.73146 
L 328.719011 90.594691 
L 329.855302 90.26415 
L 330.666938 89.451934 
L 330.829265 89.427409 
L 331.316247 89.273356 
L 331.575971 89.182459 
L 331.803229 88.954901 
L 332.095418 88.81482 
L 332.290211 88.792415 
L 332.517469 88.724817 
L 333.101847 88.283994 
L 333.29664 88.220444 
L 333.491433 88.163695 
L 333.718691 88.023494 
L 334.01088 87.728431 
L 334.140742 87.750122 
L 334.335535 87.763684 
L 334.432931 87.837206 
L 334.790051 88.052789 
L 334.919913 87.97127 
L 335.374429 87.25396 
L 335.764015 87.190453 
L 336.056204 87.110108 
L 336.380858 86.91413 
L 336.543185 86.865733 
L 336.737978 86.803817 
L 336.997702 86.723524 
L 337.22496 86.731689 
L 337.484684 86.540414 
L 337.679476 86.445402 
L 337.906735 86.376219 
L 338.133993 86.103756 
L 338.848233 85.052522 
L 339.172887 84.713186 
L 339.627404 84.664108 
L 339.789731 84.674579 
L 340.114385 84.688042 
L 340.536436 84.213993 
L 340.958487 83.512484 
L 341.120815 83.386451 
L 341.607796 83.130655 
L 341.802589 83.079919 
L 342.192175 82.712395 
L 342.451898 82.44031 
L 343.393396 81.857748 
L 343.750516 81.605689 
L 344.237498 81.291849 
L 344.399825 81.385278 
L 345.146531 81.928115 
L 345.308858 81.926246 
L 346.15296 80.72065 
L 347.354182 79.941602 
L 347.516509 79.919813 
L 348.360611 79.027599 
L 348.815127 78.733016 
L 350.698124 77.103964 
L 350.925382 77.004007 
L 351.185105 76.648479 
L 351.477295 76.333362 
L 351.931811 76.234421 
L 353.133033 74.552212 
L 353.522618 74.767376 
L 353.65248 74.872264 
L 353.684945 74.847232 
L 354.106996 74.660272 
L 354.334255 74.454509 
L 354.36672 74.478338 
L 354.529047 74.417444 
L 355.178356 73.985933 
L 355.957527 73.899309 
L 356.217251 73.700385 
L 356.314647 73.66572 
L 356.574371 73.415491 
L 357.028887 73.144576 
L 357.353542 72.986321 
L 357.483404 72.910529 
L 357.840524 72.670716 
L 358.197644 72.664362 
L 358.392436 72.548155 
L 358.522298 72.522891 
L 360.957207 70.347566 
L 361.606516 69.718187 
L 362.450618 68.527318 
L 363.716771 67.921386 
L 364.073891 67.527751 
L 364.398545 67.263389 
L 365.534836 66.634597 
L 365.762095 66.502793 
L 365.924422 66.606194 
L 366.021818 66.64317 
L 366.281542 66.72156 
L 366.736058 66.143917 
L 367.190575 65.480056 
L 367.320436 65.429171 
L 367.677556 65.627274 
L 368.391796 65.805923 
L 369.041105 65.804876 
L 369.268364 65.695455 
L 369.560553 65.494223 
L 369.787811 65.576223 
L 370.144931 65.85513 
L 370.534516 66.297932 
L 370.989033 66.160749 
L 371.216291 65.959474 
L 371.443549 65.905744 
L 371.605876 65.888764 
L 372.157789 66.013728 
L 372.449978 65.776997 
L 372.644771 65.630557 
L 372.774633 65.688408 
L 373.29408 66.091586 
L 373.813527 65.769842 
L 374.170647 65.250327 
L 374.332975 65.200121 
L 374.560233 65.231421 
L 375.112145 65.289273 
L 375.339404 65.26096 
L 376.313367 65.063341 
L 376.702953 64.778324 
L 377.254865 64.867967 
L 377.417193 64.903405 
L 377.676916 64.555675 
L 378.001571 63.993155 
L 378.228829 63.935329 
L 378.780742 64.07654 
L 379.170327 64.123622 
L 379.430051 63.885337 
L 380.371549 62.914756 
L 380.598807 62.95872 
L 380.826065 62.880397 
L 381.085789 62.71685 
L 381.183185 62.699608 
L 381.410444 62.521652 
L 381.832495 62.277054 
L 381.962356 62.244755 
L 381.994822 62.283689 
L 382.22208 62.316016 
L 384.072611 61.624488 
L 384.299869 61.598366 
L 384.592058 61.400461 
L 384.786851 61.368593 
L 385.566022 61.012835 
L 385.79328 60.837537 
L 386.994502 60.739186 
L 387.286691 60.571914 
L 388.000931 61.177495 
L 388.682705 61.195912 
L 388.812567 61.198489 
L 390.273513 60.209433 
L 390.890356 59.902087 
L 391.279942 59.769663 
L 391.442269 59.777045 
L 391.539665 59.826847 
L 391.734458 59.83339 
L 392.253905 59.584623 
L 392.643491 59.290032 
L 392.838284 59.102711 
L 393.195404 58.486373 
L 393.227869 58.502452 
L 393.942109 58.036508 
L 394.136902 58.087966 
L 394.36416 58.097933 
L 394.461556 58.087121 
L 395.273193 57.365224 
L 395.500451 57.009051 
L 395.922502 56.752168 
L 396.604276 56.899508 
L 396.766604 56.822011 
L 397.026327 56.827967 
L 397.318516 56.499323 
L 397.837964 56.295142 
L 398.130153 56.337825 
L 398.487273 56.279648 
L 398.487273 56.279648 
" style="fill:none;stroke:#ff7f0e;stroke-linecap:square;stroke-width:1.5;"/>
   </g>
   <g id="line2d_14">
    <path clip-path="url(#pbe62b6d076)" d="M 73.832727 295.142931 
L 73.865193 295.487797 
L 74.02752 273.6088 
L 74.319709 245.362206 
L 74.546967 291.794914 
L 74.579433 289.195986 
L 74.676829 269.067522 
L 74.74176 272.816924 
L 74.904087 281.497482 
L 75.09888 284.29484 
L 75.163811 283.844922 
L 75.391069 279.433762 
L 76.332567 255.490864 
L 77.468858 227.771182 
L 78.67008 204.640307 
L 79.806371 186.257757 
L 80.682938 175.484171 
L 81.494575 168.015616 
L 82.208815 163.315082 
L 82.793193 160.704141 
L 83.474967 158.648555 
L 84.124276 157.328804 
L 84.578793 156.845602 
L 84.935913 156.514466 
L 85.163171 156.416057 
L 85.422895 156.564482 
L 85.844945 157.113762 
L 86.52672 158.432843 
L 87.370822 160.56815 
L 88.085062 162.840726 
L 88.31232 163.989449 
L 88.799302 165.198182 
L 89.448611 167.492869 
L 94.74048 187.696986 
L 96.298822 192.508472 
L 98.798662 199.364585 
L 101.88288 208.156279 
L 104.512582 216.312917 
L 106.947491 224.670714 
L 111.622516 240.821495 
L 113.440582 246.360228 
L 114.869062 249.998253 
L 116.297542 253.044013 
L 117.303971 254.703181 
L 118.180538 255.745234 
L 118.894778 256.276409 
L 119.511622 256.479714 
L 120.063535 256.428705 
L 120.615447 256.141682 
L 121.232291 255.558813 
L 121.978996 254.521698 
L 122.888029 252.851432 
L 123.017891 252.581548 
L 123.245149 253.914214 
L 124.316509 257.761182 
L 124.543767 258.313268 
L 124.576233 258.158663 
L 124.73856 257.917407 
L 124.998284 258.160987 
L 125.744989 258.885793 
L 126.394298 259.173818 
L 126.978676 259.207795 
L 127.627985 259.023319 
L 128.342225 258.582382 
L 129.316189 257.685325 
L 130.160291 256.973575 
L 130.842065 256.589782 
L 131.458909 255.906381 
L 133.634095 252.969224 
L 135.257367 250.455825 
L 141.036218 240.804642 
L 142.789353 238.43074 
L 144.152902 237.074547 
L 146.52288 234.728249 
L 148.048756 232.881227 
L 148.30848 232.570047 
L 149.769425 230.693751 
L 150.09408 230.289575 
L 151.555025 228.400288 
L 153.438022 226.1636 
L 155.191156 224.461233 
L 156.814429 223.118552 
L 158.892218 221.715445 
L 159.768785 221.281071 
L 159.931113 221.254529 
L 160.353164 221.132491 
L 160.515491 221.09046 
L 160.937542 220.938124 
L 161.099869 220.892729 
L 161.52192 220.747505 
L 161.684247 220.703253 
L 162.106298 220.555926 
L 162.268625 220.511017 
L 162.690676 220.362894 
L 162.853004 220.318047 
L 163.275055 220.17099 
L 163.437382 220.126682 
L 163.859433 219.982013 
L 164.02176 219.938328 
L 164.541207 219.76897 
L 164.768465 219.71584 
L 165.158051 219.589046 
L 165.45024 219.510308 
L 165.969687 219.348806 
L 166.261876 219.269282 
L 166.781324 219.109525 
L 167.105978 219.015085 
L 167.463098 218.913592 
L 168.274735 218.651082 
L 168.631855 218.533289 
L 170.936902 217.618188 
L 174.150982 216.336411 
L 176.456029 215.373348 
L 178.826007 214.450371 
L 184.669789 212.542988 
L 189.507142 210.820517 
L 197.396247 207.964652 
L 203.142633 206.259747 
L 211.583651 203.980195 
L 211.713513 204.488894 
L 211.843375 204.522155 
L 212.005702 204.151525 
L 212.038167 204.465224 
L 212.070633 204.13248 
L 212.103098 204.389768 
L 212.200495 203.997418 
L 212.23296 204.266179 
L 212.265425 203.934262 
L 212.297891 204.205619 
L 212.395287 203.81642 
L 212.427753 204.085005 
L 212.460218 203.759976 
L 212.492684 204.026263 
L 212.59008 203.651314 
L 212.622545 203.912594 
L 212.655011 203.6023 
L 212.687476 203.861813 
L 212.784873 203.514901 
L 212.817338 203.772106 
L 212.849804 203.476678 
L 212.882269 203.733185 
L 212.979665 203.410317 
L 213.012131 203.66768 
L 213.044596 203.382022 
L 213.077062 203.641295 
L 213.174458 203.33435 
L 213.206924 203.60112 
L 213.239389 203.315432 
L 213.271855 203.586041 
L 213.369251 203.282704 
L 213.434182 203.268875 
L 213.466647 203.558511 
L 213.564044 203.245549 
L 213.628975 203.235729 
L 213.66144 203.549312 
L 213.758836 203.216837 
L 213.823767 203.209724 
L 213.856233 203.550519 
L 213.953629 203.192921 
L 214.01856 203.181808 
L 214.051025 203.54033 
L 214.148422 203.154882 
L 214.180887 203.525303 
L 214.213353 203.138406 
L 214.245818 203.513055 
L 214.343215 203.113281 
L 214.37568 203.454209 
L 214.408145 203.089137 
L 214.440611 203.415778 
L 214.538007 203.014177 
L 214.570473 203.335914 
L 214.602938 202.96831 
L 214.635404 203.298268 
L 214.7328 202.880494 
L 214.765265 203.235523 
L 214.797731 202.854996 
L 214.830196 203.204304 
L 214.927593 202.804442 
L 214.960058 203.148555 
L 214.992524 202.781913 
L 215.024989 203.124064 
L 215.122385 202.74325 
L 215.154851 203.083336 
L 215.187316 202.726958 
L 215.219782 203.067127 
L 215.317178 202.699813 
L 215.349644 203.042209 
L 215.414575 203.030193 
L 215.44704 202.872239 
L 215.511971 202.967426 
L 215.609367 202.988026 
L 215.641833 202.959124 
L 215.80416 202.91663 
L 215.966487 202.77606 
L 216.063884 202.8908 
L 216.16128 202.81113 
L 216.258676 202.873018 
L 216.356073 202.811849 
L 216.388538 202.865737 
L 216.485935 202.814524 
L 216.5184 202.86085 
L 216.680727 202.819568 
L 216.843055 202.847623 
L 217.037847 202.837767 
L 217.330036 202.825222 
L 218.011811 202.852097 
L 219.37536 202.846055 
L 221.031098 202.472705 
L 221.972596 201.958149 
L 222.719302 201.314063 
L 223.888058 199.892911 
L 224.797091 198.518286 
L 225.121745 197.918921 
L 226.712553 195.620337 
L 228.887738 192.680033 
L 230.640873 190.619971 
L 233.108247 187.864028 
L 233.757556 187.361292 
L 236.257396 185.21592 
L 236.711913 185.147966 
L 238.887098 185.171324 
L 240.08832 185.670017 
L 241.15968 186.380542 
L 242.490764 187.538784 
L 244.081571 189.238707 
L 246.061964 191.685148 
L 246.808669 192.736409 
L 247.23072 193.04707 
L 248.269615 193.571998 
L 249.633164 194.727089 
L 251.191505 195.813469 
L 254.827636 198.26547 
L 256.775564 199.337759 
L 258.561164 200.103273 
L 260.768815 200.82601 
L 263.30112 201.424442 
L 266.028218 201.828716 
L 268.917644 202.027941 
L 270.962967 201.98394 
L 271.742138 202.018513 
L 272.58624 202.104823 
L 272.845964 201.839826 
L 273.138153 201.52708 
L 273.462807 201.41703 
L 274.566633 201.280318 
L 275.248407 201.006637 
L 280.767535 199.720132 
L 282.780393 199.080358 
L 283.332305 198.8043 
L 290.637033 196.800656 
L 295.961367 195.947437 
L 299.922153 195.557556 
L 304.824436 195.278426 
L 318.622255 194.727188 
L 323.362211 194.193921 
L 328.783942 193.355307 
L 332.387607 192.565496 
L 336.1536 191.508364 
L 340.633833 190.007821 
L 350.016349 186.788187 
L 352.710982 186.192141 
L 354.042065 185.976632 
L 354.171927 186.170747 
L 354.496582 185.924574 
L 354.886167 185.478842 
L 355.243287 185.422778 
L 356.639302 185.445856 
L 358.554764 185.394721 
L 358.846953 185.682443 
L 359.301469 185.784048 
L 359.788451 185.676515 
L 360.892276 185.38033 
L 362.093498 185.367031 
L 365.43744 185.640059 
L 370.177396 186.158852 
L 373.29408 186.687556 
L 373.456407 186.930284 
L 374.397905 186.673495 
L 377.287331 187.181836 
L 379.917033 187.275869 
L 385.143971 186.744594 
L 388.163258 186.08766 
L 390.760495 185.591113 
L 393.357731 185.346919 
L 396.636742 185.291012 
L 398.487273 185.316542 
L 398.487273 185.316542 
" style="fill:none;stroke:#bf00bf;stroke-linecap:square;stroke-width:1.5;"/>
   </g>
   <g id="patch_3">
    <path d="M 57.6 307.584 
L 57.6 41.472 
" style="fill:none;stroke:#000000;stroke-linecap:square;stroke-linejoin:miter;stroke-width:0.8;"/>
   </g>
   <g id="patch_4">
    <path d="M 414.72 307.584 
L 414.72 41.472 
" style="fill:none;stroke:#000000;stroke-linecap:square;stroke-linejoin:miter;stroke-width:0.8;"/>
   </g>
   <g id="patch_5">
    <path d="M 57.6 307.584 
L 414.72 307.584 
" style="fill:none;stroke:#000000;stroke-linecap:square;stroke-linejoin:miter;stroke-width:0.8;"/>
   </g>
   <g id="patch_6">
    <path d="M 57.6 41.472 
L 414.72 41.472 
" style="fill:none;stroke:#000000;stroke-linecap:square;stroke-linejoin:miter;stroke-width:0.8;"/>
   </g>
   <g id="text_14">
    <!-- Plot of Object pose error norm over a single episode  -->
    <g transform="translate(77.670938 8.59725)scale(0.12 -0.12)">
     <defs>
      <path d="M 19.671875 64.796875 
L 19.671875 37.40625 
L 32.078125 37.40625 
Q 38.96875 37.40625 42.71875 40.96875 
Q 46.484375 44.53125 46.484375 51.125 
Q 46.484375 57.671875 42.71875 61.234375 
Q 38.96875 64.796875 32.078125 64.796875 
z
M 9.8125 72.90625 
L 32.078125 72.90625 
Q 44.34375 72.90625 50.609375 67.359375 
Q 56.890625 61.8125 56.890625 51.125 
Q 56.890625 40.328125 50.609375 34.8125 
Q 44.34375 29.296875 32.078125 29.296875 
L 19.671875 29.296875 
L 19.671875 0 
L 9.8125 0 
z
" id="DejaVuSans-80"/>
      <path d="M 9.421875 75.984375 
L 18.40625 75.984375 
L 18.40625 0 
L 9.421875 0 
z
" id="DejaVuSans-108"/>
      <path id="DejaVuSans-32"/>
      <path d="M 37.109375 75.984375 
L 37.109375 68.5 
L 28.515625 68.5 
Q 23.6875 68.5 21.796875 66.546875 
Q 19.921875 64.59375 19.921875 59.515625 
L 19.921875 54.6875 
L 34.71875 54.6875 
L 34.71875 47.703125 
L 19.921875 47.703125 
L 19.921875 0 
L 10.890625 0 
L 10.890625 47.703125 
L 2.296875 47.703125 
L 2.296875 54.6875 
L 10.890625 54.6875 
L 10.890625 58.5 
Q 10.890625 67.625 15.140625 71.796875 
Q 19.390625 75.984375 28.609375 75.984375 
z
" id="DejaVuSans-102"/>
      <path d="M 48.78125 52.59375 
L 48.78125 44.1875 
Q 44.96875 46.296875 41.140625 47.34375 
Q 37.3125 48.390625 33.40625 48.390625 
Q 24.65625 48.390625 19.8125 42.84375 
Q 14.984375 37.3125 14.984375 27.296875 
Q 14.984375 17.28125 19.8125 11.734375 
Q 24.65625 6.203125 33.40625 6.203125 
Q 37.3125 6.203125 41.140625 7.25 
Q 44.96875 8.296875 48.78125 10.40625 
L 48.78125 2.09375 
Q 45.015625 0.34375 40.984375 -0.53125 
Q 36.96875 -1.421875 32.421875 -1.421875 
Q 20.0625 -1.421875 12.78125 6.34375 
Q 5.515625 14.109375 5.515625 27.296875 
Q 5.515625 40.671875 12.859375 48.328125 
Q 20.21875 56 33.015625 56 
Q 37.15625 56 41.109375 55.140625 
Q 45.0625 54.296875 48.78125 52.59375 
z
" id="DejaVuSans-99"/>
      <path d="M 2.984375 54.6875 
L 12.5 54.6875 
L 29.59375 8.796875 
L 46.6875 54.6875 
L 56.203125 54.6875 
L 35.6875 0 
L 23.484375 0 
z
" id="DejaVuSans-118"/>
      <path d="M 34.28125 27.484375 
Q 23.390625 27.484375 19.1875 25 
Q 14.984375 22.515625 14.984375 16.5 
Q 14.984375 11.71875 18.140625 8.90625 
Q 21.296875 6.109375 26.703125 6.109375 
Q 34.1875 6.109375 38.703125 11.40625 
Q 43.21875 16.703125 43.21875 25.484375 
L 43.21875 27.484375 
z
M 52.203125 31.203125 
L 52.203125 0 
L 43.21875 0 
L 43.21875 8.296875 
Q 40.140625 3.328125 35.546875 0.953125 
Q 30.953125 -1.421875 24.3125 -1.421875 
Q 15.921875 -1.421875 10.953125 3.296875 
Q 6 8.015625 6 15.921875 
Q 6 25.140625 12.171875 29.828125 
Q 18.359375 34.515625 30.609375 34.515625 
L 43.21875 34.515625 
L 43.21875 35.40625 
Q 43.21875 41.609375 39.140625 45 
Q 35.0625 48.390625 27.6875 48.390625 
Q 23 48.390625 18.546875 47.265625 
Q 14.109375 46.140625 10.015625 43.890625 
L 10.015625 52.203125 
Q 14.9375 54.109375 19.578125 55.046875 
Q 24.21875 56 28.609375 56 
Q 40.484375 56 46.34375 49.84375 
Q 52.203125 43.703125 52.203125 31.203125 
z
" id="DejaVuSans-97"/>
      <path d="M 45.40625 27.984375 
Q 45.40625 37.75 41.375 43.109375 
Q 37.359375 48.484375 30.078125 48.484375 
Q 22.859375 48.484375 18.828125 43.109375 
Q 14.796875 37.75 14.796875 27.984375 
Q 14.796875 18.265625 18.828125 12.890625 
Q 22.859375 7.515625 30.078125 7.515625 
Q 37.359375 7.515625 41.375 12.890625 
Q 45.40625 18.265625 45.40625 27.984375 
z
M 54.390625 6.78125 
Q 54.390625 -7.171875 48.1875 -13.984375 
Q 42 -20.796875 29.203125 -20.796875 
Q 24.46875 -20.796875 20.265625 -20.09375 
Q 16.0625 -19.390625 12.109375 -17.921875 
L 12.109375 -9.1875 
Q 16.0625 -11.328125 19.921875 -12.34375 
Q 23.78125 -13.375 27.78125 -13.375 
Q 36.625 -13.375 41.015625 -8.765625 
Q 45.40625 -4.15625 45.40625 5.171875 
L 45.40625 9.625 
Q 42.625 4.78125 38.28125 2.390625 
Q 33.9375 0 27.875 0 
Q 17.828125 0 11.671875 7.65625 
Q 5.515625 15.328125 5.515625 27.984375 
Q 5.515625 40.671875 11.671875 48.328125 
Q 17.828125 56 27.875 56 
Q 33.9375 56 38.28125 53.609375 
Q 42.625 51.21875 45.40625 46.390625 
L 45.40625 54.6875 
L 54.390625 54.6875 
z
" id="DejaVuSans-103"/>
      <path d="M 45.40625 46.390625 
L 45.40625 75.984375 
L 54.390625 75.984375 
L 54.390625 0 
L 45.40625 0 
L 45.40625 8.203125 
Q 42.578125 3.328125 38.25 0.953125 
Q 33.9375 -1.421875 27.875 -1.421875 
Q 17.96875 -1.421875 11.734375 6.484375 
Q 5.515625 14.40625 5.515625 27.296875 
Q 5.515625 40.1875 11.734375 48.09375 
Q 17.96875 56 27.875 56 
Q 33.9375 56 38.25 53.625 
Q 42.578125 51.265625 45.40625 46.390625 
z
M 14.796875 27.296875 
Q 14.796875 17.390625 18.875 11.75 
Q 22.953125 6.109375 30.078125 6.109375 
Q 37.203125 6.109375 41.296875 11.75 
Q 45.40625 17.390625 45.40625 27.296875 
Q 45.40625 37.203125 41.296875 42.84375 
Q 37.203125 48.484375 30.078125 48.484375 
Q 22.953125 48.484375 18.875 42.84375 
Q 14.796875 37.203125 14.796875 27.296875 
z
" id="DejaVuSans-100"/>
     </defs>
     <use xlink:href="#DejaVuSans-80"/>
     <use x="60.302734" xlink:href="#DejaVuSans-108"/>
     <use x="88.085938" xlink:href="#DejaVuSans-111"/>
     <use x="149.267578" xlink:href="#DejaVuSans-116"/>
     <use x="188.476562" xlink:href="#DejaVuSans-32"/>
     <use x="220.263672" xlink:href="#DejaVuSans-111"/>
     <use x="281.445312" xlink:href="#DejaVuSans-102"/>
     <use x="316.650391" xlink:href="#DejaVuSans-32"/>
     <use x="348.4375" xlink:href="#DejaVuSans-79"/>
     <use x="427.148438" xlink:href="#DejaVuSans-98"/>
     <use x="490.625" xlink:href="#DejaVuSans-106"/>
     <use x="518.408203" xlink:href="#DejaVuSans-101"/>
     <use x="579.931641" xlink:href="#DejaVuSans-99"/>
     <use x="634.912109" xlink:href="#DejaVuSans-116"/>
     <use x="674.121094" xlink:href="#DejaVuSans-32"/>
     <use x="705.908203" xlink:href="#DejaVuSans-112"/>
     <use x="769.384766" xlink:href="#DejaVuSans-111"/>
     <use x="830.566406" xlink:href="#DejaVuSans-115"/>
     <use x="882.666016" xlink:href="#DejaVuSans-101"/>
     <use x="944.189453" xlink:href="#DejaVuSans-32"/>
     <use x="975.976562" xlink:href="#DejaVuSans-101"/>
     <use x="1037.5" xlink:href="#DejaVuSans-114"/>
     <use x="1076.863281" xlink:href="#DejaVuSans-114"/>
     <use x="1115.726562" xlink:href="#DejaVuSans-111"/>
     <use x="1176.908203" xlink:href="#DejaVuSans-114"/>
     <use x="1218.021484" xlink:href="#DejaVuSans-32"/>
     <use x="1249.808594" xlink:href="#DejaVuSans-110"/>
     <use x="1313.1875" xlink:href="#DejaVuSans-111"/>
     <use x="1374.369141" xlink:href="#DejaVuSans-114"/>
     <use x="1413.732422" xlink:href="#DejaVuSans-109"/>
     <use x="1511.144531" xlink:href="#DejaVuSans-32"/>
     <use x="1542.931641" xlink:href="#DejaVuSans-111"/>
     <use x="1604.113281" xlink:href="#DejaVuSans-118"/>
     <use x="1663.292969" xlink:href="#DejaVuSans-101"/>
     <use x="1724.816406" xlink:href="#DejaVuSans-114"/>
     <use x="1765.929688" xlink:href="#DejaVuSans-32"/>
     <use x="1797.716797" xlink:href="#DejaVuSans-97"/>
     <use x="1858.996094" xlink:href="#DejaVuSans-32"/>
     <use x="1890.783203" xlink:href="#DejaVuSans-115"/>
     <use x="1942.882812" xlink:href="#DejaVuSans-105"/>
     <use x="1970.666016" xlink:href="#DejaVuSans-110"/>
     <use x="2034.044922" xlink:href="#DejaVuSans-103"/>
     <use x="2097.521484" xlink:href="#DejaVuSans-108"/>
     <use x="2125.304688" xlink:href="#DejaVuSans-101"/>
     <use x="2186.828125" xlink:href="#DejaVuSans-32"/>
     <use x="2218.615234" xlink:href="#DejaVuSans-101"/>
     <use x="2280.138672" xlink:href="#DejaVuSans-112"/>
     <use x="2343.615234" xlink:href="#DejaVuSans-105"/>
     <use x="2371.398438" xlink:href="#DejaVuSans-115"/>
     <use x="2423.498047" xlink:href="#DejaVuSans-111"/>
     <use x="2484.679688" xlink:href="#DejaVuSans-100"/>
     <use x="2548.15625" xlink:href="#DejaVuSans-101"/>
     <use x="2609.679688" xlink:href="#DejaVuSans-32"/>
    </g>
    <!--  Avg object pose error norm: Residual RL = 0.306, Standard = 0.294,  -->
    <g transform="translate(26.875313 22.034625)scale(0.12 -0.12)">
     <defs>
      <path d="M 34.1875 63.1875 
L 20.796875 26.90625 
L 47.609375 26.90625 
z
M 28.609375 72.90625 
L 39.796875 72.90625 
L 67.578125 0 
L 57.328125 0 
L 50.6875 18.703125 
L 17.828125 18.703125 
L 11.1875 0 
L 0.78125 0 
z
" id="DejaVuSans-65"/>
      <path d="M 11.71875 12.40625 
L 22.015625 12.40625 
L 22.015625 0 
L 11.71875 0 
z
M 11.71875 51.703125 
L 22.015625 51.703125 
L 22.015625 39.3125 
L 11.71875 39.3125 
z
" id="DejaVuSans-58"/>
      <path d="M 44.390625 34.1875 
Q 47.5625 33.109375 50.5625 29.59375 
Q 53.5625 26.078125 56.59375 19.921875 
L 66.609375 0 
L 56 0 
L 46.6875 18.703125 
Q 43.0625 26.03125 39.671875 28.421875 
Q 36.28125 30.8125 30.421875 30.8125 
L 19.671875 30.8125 
L 19.671875 0 
L 9.8125 0 
L 9.8125 72.90625 
L 32.078125 72.90625 
Q 44.578125 72.90625 50.734375 67.671875 
Q 56.890625 62.453125 56.890625 51.90625 
Q 56.890625 45.015625 53.6875 40.46875 
Q 50.484375 35.9375 44.390625 34.1875 
z
M 19.671875 64.796875 
L 19.671875 38.921875 
L 32.078125 38.921875 
Q 39.203125 38.921875 42.84375 42.21875 
Q 46.484375 45.515625 46.484375 51.90625 
Q 46.484375 58.296875 42.84375 61.546875 
Q 39.203125 64.796875 32.078125 64.796875 
z
" id="DejaVuSans-82"/>
      <path d="M 9.8125 72.90625 
L 19.671875 72.90625 
L 19.671875 8.296875 
L 55.171875 8.296875 
L 55.171875 0 
L 9.8125 0 
z
" id="DejaVuSans-76"/>
      <path d="M 10.59375 45.40625 
L 73.1875 45.40625 
L 73.1875 37.203125 
L 10.59375 37.203125 
z
M 10.59375 25.484375 
L 73.1875 25.484375 
L 73.1875 17.1875 
L 10.59375 17.1875 
z
" id="DejaVuSans-61"/>
      <path d="M 11.71875 12.40625 
L 22.015625 12.40625 
L 22.015625 4 
L 14.015625 -11.625 
L 7.71875 -11.625 
L 11.71875 4 
z
" id="DejaVuSans-44"/>
      <path d="M 53.515625 70.515625 
L 53.515625 60.890625 
Q 47.90625 63.578125 42.921875 64.890625 
Q 37.9375 66.21875 33.296875 66.21875 
Q 25.25 66.21875 20.875 63.09375 
Q 16.5 59.96875 16.5 54.203125 
Q 16.5 49.359375 19.40625 46.890625 
Q 22.3125 44.4375 30.421875 42.921875 
L 36.375 41.703125 
Q 47.40625 39.59375 52.65625 34.296875 
Q 57.90625 29 57.90625 20.125 
Q 57.90625 9.515625 50.796875 4.046875 
Q 43.703125 -1.421875 29.984375 -1.421875 
Q 24.8125 -1.421875 18.96875 -0.25 
Q 13.140625 0.921875 6.890625 3.21875 
L 6.890625 13.375 
Q 12.890625 10.015625 18.65625 8.296875 
Q 24.421875 6.59375 29.984375 6.59375 
Q 38.421875 6.59375 43.015625 9.90625 
Q 47.609375 13.234375 47.609375 19.390625 
Q 47.609375 24.75 44.3125 27.78125 
Q 41.015625 30.8125 33.5 32.328125 
L 27.484375 33.5 
Q 16.453125 35.6875 11.515625 40.375 
Q 6.59375 45.0625 6.59375 53.421875 
Q 6.59375 63.09375 13.40625 68.65625 
Q 20.21875 74.21875 32.171875 74.21875 
Q 37.3125 74.21875 42.625 73.28125 
Q 47.953125 72.359375 53.515625 70.515625 
z
" id="DejaVuSans-83"/>
      <path d="M 10.984375 1.515625 
L 10.984375 10.5 
Q 14.703125 8.734375 18.5 7.8125 
Q 22.3125 6.890625 25.984375 6.890625 
Q 35.75 6.890625 40.890625 13.453125 
Q 46.046875 20.015625 46.78125 33.40625 
Q 43.953125 29.203125 39.59375 26.953125 
Q 35.25 24.703125 29.984375 24.703125 
Q 19.046875 24.703125 12.671875 31.3125 
Q 6.296875 37.9375 6.296875 49.421875 
Q 6.296875 60.640625 12.9375 67.421875 
Q 19.578125 74.21875 30.609375 74.21875 
Q 43.265625 74.21875 49.921875 64.515625 
Q 56.59375 54.828125 56.59375 36.375 
Q 56.59375 19.140625 48.40625 8.859375 
Q 40.234375 -1.421875 26.421875 -1.421875 
Q 22.703125 -1.421875 18.890625 -0.6875 
Q 15.09375 0.046875 10.984375 1.515625 
z
M 30.609375 32.421875 
Q 37.25 32.421875 41.125 36.953125 
Q 45.015625 41.5 45.015625 49.421875 
Q 45.015625 57.28125 41.125 61.84375 
Q 37.25 66.40625 30.609375 66.40625 
Q 23.96875 66.40625 20.09375 61.84375 
Q 16.21875 57.28125 16.21875 49.421875 
Q 16.21875 41.5 20.09375 36.953125 
Q 23.96875 32.421875 30.609375 32.421875 
z
" id="DejaVuSans-57"/>
     </defs>
     <use xlink:href="#DejaVuSans-32"/>
     <use x="31.787109" xlink:href="#DejaVuSans-65"/>
     <use x="94.320312" xlink:href="#DejaVuSans-118"/>
     <use x="153.5" xlink:href="#DejaVuSans-103"/>
     <use x="216.976562" xlink:href="#DejaVuSans-32"/>
     <use x="248.763672" xlink:href="#DejaVuSans-111"/>
     <use x="309.945312" xlink:href="#DejaVuSans-98"/>
     <use x="373.421875" xlink:href="#DejaVuSans-106"/>
     <use x="401.205078" xlink:href="#DejaVuSans-101"/>
     <use x="462.728516" xlink:href="#DejaVuSans-99"/>
     <use x="517.708984" xlink:href="#DejaVuSans-116"/>
     <use x="556.917969" xlink:href="#DejaVuSans-32"/>
     <use x="588.705078" xlink:href="#DejaVuSans-112"/>
     <use x="652.181641" xlink:href="#DejaVuSans-111"/>
     <use x="713.363281" xlink:href="#DejaVuSans-115"/>
     <use x="765.462891" xlink:href="#DejaVuSans-101"/>
     <use x="826.986328" xlink:href="#DejaVuSans-32"/>
     <use x="858.773438" xlink:href="#DejaVuSans-101"/>
     <use x="920.296875" xlink:href="#DejaVuSans-114"/>
     <use x="959.660156" xlink:href="#DejaVuSans-114"/>
     <use x="998.523438" xlink:href="#DejaVuSans-111"/>
     <use x="1059.705078" xlink:href="#DejaVuSans-114"/>
     <use x="1100.818359" xlink:href="#DejaVuSans-32"/>
     <use x="1132.605469" xlink:href="#DejaVuSans-110"/>
     <use x="1195.984375" xlink:href="#DejaVuSans-111"/>
     <use x="1257.166016" xlink:href="#DejaVuSans-114"/>
     <use x="1296.529297" xlink:href="#DejaVuSans-109"/>
     <use x="1393.941406" xlink:href="#DejaVuSans-58"/>
     <use x="1427.632812" xlink:href="#DejaVuSans-32"/>
     <use x="1459.419922" xlink:href="#DejaVuSans-82"/>
     <use x="1524.402344" xlink:href="#DejaVuSans-101"/>
     <use x="1585.925781" xlink:href="#DejaVuSans-115"/>
     <use x="1638.025391" xlink:href="#DejaVuSans-105"/>
     <use x="1665.808594" xlink:href="#DejaVuSans-100"/>
     <use x="1729.285156" xlink:href="#DejaVuSans-117"/>
     <use x="1792.664062" xlink:href="#DejaVuSans-97"/>
     <use x="1853.943359" xlink:href="#DejaVuSans-108"/>
     <use x="1881.726562" xlink:href="#DejaVuSans-32"/>
     <use x="1913.513672" xlink:href="#DejaVuSans-82"/>
     <use x="1982.996094" xlink:href="#DejaVuSans-76"/>
     <use x="2038.708984" xlink:href="#DejaVuSans-32"/>
     <use x="2070.496094" xlink:href="#DejaVuSans-61"/>
     <use x="2154.285156" xlink:href="#DejaVuSans-32"/>
     <use x="2186.072266" xlink:href="#DejaVuSans-48"/>
     <use x="2249.695312" xlink:href="#DejaVuSans-46"/>
     <use x="2281.482422" xlink:href="#DejaVuSans-51"/>
     <use x="2345.105469" xlink:href="#DejaVuSans-48"/>
     <use x="2408.728516" xlink:href="#DejaVuSans-54"/>
     <use x="2472.351562" xlink:href="#DejaVuSans-44"/>
     <use x="2504.138672" xlink:href="#DejaVuSans-32"/>
     <use x="2535.925781" xlink:href="#DejaVuSans-83"/>
     <use x="2599.402344" xlink:href="#DejaVuSans-116"/>
     <use x="2638.611328" xlink:href="#DejaVuSans-97"/>
     <use x="2699.890625" xlink:href="#DejaVuSans-110"/>
     <use x="2763.269531" xlink:href="#DejaVuSans-100"/>
     <use x="2826.746094" xlink:href="#DejaVuSans-97"/>
     <use x="2888.025391" xlink:href="#DejaVuSans-114"/>
     <use x="2927.388672" xlink:href="#DejaVuSans-100"/>
     <use x="2990.865234" xlink:href="#DejaVuSans-32"/>
     <use x="3022.652344" xlink:href="#DejaVuSans-61"/>
     <use x="3106.441406" xlink:href="#DejaVuSans-32"/>
     <use x="3138.228516" xlink:href="#DejaVuSans-48"/>
     <use x="3201.851562" xlink:href="#DejaVuSans-46"/>
     <use x="3233.638672" xlink:href="#DejaVuSans-50"/>
     <use x="3297.261719" xlink:href="#DejaVuSans-57"/>
     <use x="3360.884766" xlink:href="#DejaVuSans-52"/>
     <use x="3424.507812" xlink:href="#DejaVuSans-44"/>
     <use x="3456.294922" xlink:href="#DejaVuSans-32"/>
    </g>
    <!--  Baseline = 0.178 -->
    <g transform="translate(182.795625 35.472)scale(0.12 -0.12)">
     <defs>
      <path d="M 19.671875 34.8125 
L 19.671875 8.109375 
L 35.5 8.109375 
Q 43.453125 8.109375 47.28125 11.40625 
Q 51.125 14.703125 51.125 21.484375 
Q 51.125 28.328125 47.28125 31.5625 
Q 43.453125 34.8125 35.5 34.8125 
z
M 19.671875 64.796875 
L 19.671875 42.828125 
L 34.28125 42.828125 
Q 41.5 42.828125 45.03125 45.53125 
Q 48.578125 48.25 48.578125 53.8125 
Q 48.578125 59.328125 45.03125 62.0625 
Q 41.5 64.796875 34.28125 64.796875 
z
M 9.8125 72.90625 
L 35.015625 72.90625 
Q 46.296875 72.90625 52.390625 68.21875 
Q 58.5 63.53125 58.5 54.890625 
Q 58.5 48.1875 55.375 44.234375 
Q 52.25 40.28125 46.1875 39.3125 
Q 53.46875 37.75 57.5 32.78125 
Q 61.53125 27.828125 61.53125 20.40625 
Q 61.53125 10.640625 54.890625 5.3125 
Q 48.25 0 35.984375 0 
L 9.8125 0 
z
" id="DejaVuSans-66"/>
      <path d="M 8.203125 72.90625 
L 55.078125 72.90625 
L 55.078125 68.703125 
L 28.609375 0 
L 18.3125 0 
L 43.21875 64.59375 
L 8.203125 64.59375 
z
" id="DejaVuSans-55"/>
     </defs>
     <use xlink:href="#DejaVuSans-32"/>
     <use x="31.787109" xlink:href="#DejaVuSans-66"/>
     <use x="100.390625" xlink:href="#DejaVuSans-97"/>
     <use x="161.669922" xlink:href="#DejaVuSans-115"/>
     <use x="213.769531" xlink:href="#DejaVuSans-101"/>
     <use x="275.292969" xlink:href="#DejaVuSans-108"/>
     <use x="303.076172" xlink:href="#DejaVuSans-105"/>
     <use x="330.859375" xlink:href="#DejaVuSans-110"/>
     <use x="394.238281" xlink:href="#DejaVuSans-101"/>
     <use x="455.761719" xlink:href="#DejaVuSans-32"/>
     <use x="487.548828" xlink:href="#DejaVuSans-61"/>
     <use x="571.337891" xlink:href="#DejaVuSans-32"/>
     <use x="603.125" xlink:href="#DejaVuSans-48"/>
     <use x="666.748047" xlink:href="#DejaVuSans-46"/>
     <use x="698.535156" xlink:href="#DejaVuSans-49"/>
     <use x="762.158203" xlink:href="#DejaVuSans-55"/>
     <use x="825.78125" xlink:href="#DejaVuSans-56"/>
    </g>
   </g>
   <g id="legend_1">
    <g id="patch_7">
     <path d="M 64.6 93.506375 
L 154.529687 93.506375 
Q 156.529687 93.506375 156.529687 91.506375 
L 156.529687 48.472 
Q 156.529687 46.472 154.529687 46.472 
L 64.6 46.472 
Q 62.6 46.472 62.6 48.472 
L 62.6 91.506375 
Q 62.6 93.506375 64.6 93.506375 
z
" style="fill:#ffffff;opacity:0.8;stroke:#cccccc;stroke-linejoin:miter;"/>
    </g>
    <g id="line2d_15">
     <path d="M 66.6 54.570438 
L 86.6 54.570438 
" style="fill:none;stroke:#1f77b4;stroke-linecap:square;stroke-width:1.5;"/>
    </g>
    <g id="line2d_16"/>
    <g id="text_15">
     <!-- Residual RL -->
     <g transform="translate(94.6 58.070438)scale(0.1 -0.1)">
      <use xlink:href="#DejaVuSans-82"/>
      <use x="64.982422" xlink:href="#DejaVuSans-101"/>
      <use x="126.505859" xlink:href="#DejaVuSans-115"/>
      <use x="178.605469" xlink:href="#DejaVuSans-105"/>
      <use x="206.388672" xlink:href="#DejaVuSans-100"/>
      <use x="269.865234" xlink:href="#DejaVuSans-117"/>
      <use x="333.244141" xlink:href="#DejaVuSans-97"/>
      <use x="394.523438" xlink:href="#DejaVuSans-108"/>
      <use x="422.306641" xlink:href="#DejaVuSans-32"/>
      <use x="454.09375" xlink:href="#DejaVuSans-82"/>
      <use x="523.576172" xlink:href="#DejaVuSans-76"/>
     </g>
    </g>
    <g id="line2d_17">
     <path d="M 66.6 69.248563 
L 86.6 69.248563 
" style="fill:none;stroke:#ff7f0e;stroke-linecap:square;stroke-width:1.5;"/>
    </g>
    <g id="line2d_18"/>
    <g id="text_16">
     <!-- Standard -->
     <g transform="translate(94.6 72.748563)scale(0.1 -0.1)">
      <use xlink:href="#DejaVuSans-83"/>
      <use x="63.476562" xlink:href="#DejaVuSans-116"/>
      <use x="102.685547" xlink:href="#DejaVuSans-97"/>
      <use x="163.964844" xlink:href="#DejaVuSans-110"/>
      <use x="227.34375" xlink:href="#DejaVuSans-100"/>
      <use x="290.820312" xlink:href="#DejaVuSans-97"/>
      <use x="352.099609" xlink:href="#DejaVuSans-114"/>
      <use x="391.462891" xlink:href="#DejaVuSans-100"/>
     </g>
    </g>
    <g id="line2d_19">
     <path d="M 66.6 83.926688 
L 86.6 83.926688 
" style="fill:none;stroke:#bf00bf;stroke-linecap:square;stroke-width:1.5;"/>
    </g>
    <g id="line2d_20"/>
    <g id="text_17">
     <!-- Baseline -->
     <g transform="translate(94.6 87.426688)scale(0.1 -0.1)">
      <use xlink:href="#DejaVuSans-66"/>
      <use x="68.603516" xlink:href="#DejaVuSans-97"/>
      <use x="129.882812" xlink:href="#DejaVuSans-115"/>
      <use x="181.982422" xlink:href="#DejaVuSans-101"/>
      <use x="243.505859" xlink:href="#DejaVuSans-108"/>
      <use x="271.289062" xlink:href="#DejaVuSans-105"/>
      <use x="299.072266" xlink:href="#DejaVuSans-110"/>
      <use x="362.451172" xlink:href="#DejaVuSans-101"/>
     </g>
    </g>
   </g>
  </g>
 </g>
 <defs>
  <clipPath id="pbe62b6d076">
   <rect height="266.112" width="357.12" x="57.6" y="41.472"/>
  </clipPath>
 </defs>
</svg>
