<?xml version="1.0" encoding="utf-8" standalone="no"?>
<!DOCTYPE svg PUBLIC "-//W3C//DTD SVG 1.1//EN"
  "http://www.w3.org/Graphics/SVG/1.1/DTD/svg11.dtd">
<!-- Created with matplotlib (https://matplotlib.org/) -->
<svg height="345.6pt" version="1.1" viewBox="0 0 460.8 345.6" width="460.8pt" xmlns="http://www.w3.org/2000/svg" xmlns:xlink="http://www.w3.org/1999/xlink">
 <metadata>
  <rdf:RDF xmlns:cc="http://creativecommons.org/ns#" xmlns:dc="http://purl.org/dc/elements/1.1/" xmlns:rdf="http://www.w3.org/1999/02/22-rdf-syntax-ns#">
   <cc:Work>
    <dc:type rdf:resource="http://purl.org/dc/dcmitype/StillImage"/>
    <dc:date>2022-07-23T12:16:29.791072</dc:date>
    <dc:format>image/svg+xml</dc:format>
    <dc:creator>
     <cc:Agent>
      <dc:title>Matplotlib v3.3.4, https://matplotlib.org/</dc:title>
     </cc:Agent>
    </dc:creator>
   </cc:Work>
  </rdf:RDF>
 </metadata>
 <defs>
  <style type="text/css">*{stroke-linecap:butt;stroke-linejoin:round;}</style>
 </defs>
 <g id="figure_1">
  <g id="patch_1">
   <path d="M 0 345.6 
L 460.8 345.6 
L 460.8 0 
L 0 0 
z
" style="fill:#ffffff;"/>
  </g>
  <g id="axes_1">
   <g id="patch_2">
    <path d="M 57.6 307.584 
L 414.72 307.584 
L 414.72 41.472 
L 57.6 41.472 
z
" style="fill:#ffffff;"/>
   </g>
   <g id="matplotlib.axis_1">
    <g id="xtick_1">
     <g id="line2d_1">
      <defs>
       <path d="M 0 0 
L 0 3.5 
" id="maf15438e13" style="stroke:#000000;stroke-width:0.8;"/>
      </defs>
      <g>
       <use style="stroke:#000000;stroke-width:0.8;" x="73.832727" xlink:href="#maf15438e13" y="307.584"/>
      </g>
     </g>
     <g id="text_1">
      <!-- 0 -->
      <g transform="translate(70.651477 322.182437)scale(0.1 -0.1)">
       <defs>
        <path d="M 31.78125 66.40625 
Q 24.171875 66.40625 20.328125 58.90625 
Q 16.5 51.421875 16.5 36.375 
Q 16.5 21.390625 20.328125 13.890625 
Q 24.171875 6.390625 31.78125 6.390625 
Q 39.453125 6.390625 43.28125 13.890625 
Q 47.125 21.390625 47.125 36.375 
Q 47.125 51.421875 43.28125 58.90625 
Q 39.453125 66.40625 31.78125 66.40625 
z
M 31.78125 74.21875 
Q 44.046875 74.21875 50.515625 64.515625 
Q 56.984375 54.828125 56.984375 36.375 
Q 56.984375 17.96875 50.515625 8.265625 
Q 44.046875 -1.421875 31.78125 -1.421875 
Q 19.53125 -1.421875 13.0625 8.265625 
Q 6.59375 17.96875 6.59375 36.375 
Q 6.59375 54.828125 13.0625 64.515625 
Q 19.53125 74.21875 31.78125 74.21875 
z
" id="DejaVuSans-48"/>
       </defs>
       <use xlink:href="#DejaVuSans-48"/>
      </g>
     </g>
    </g>
    <g id="xtick_2">
     <g id="line2d_2">
      <g>
       <use style="stroke:#000000;stroke-width:0.8;" x="138.763636" xlink:href="#maf15438e13" y="307.584"/>
      </g>
     </g>
     <g id="text_2">
      <!-- 2000 -->
      <g transform="translate(126.038636 322.182437)scale(0.1 -0.1)">
       <defs>
        <path d="M 19.1875 8.296875 
L 53.609375 8.296875 
L 53.609375 0 
L 7.328125 0 
L 7.328125 8.296875 
Q 12.9375 14.109375 22.625 23.890625 
Q 32.328125 33.6875 34.8125 36.53125 
Q 39.546875 41.84375 41.421875 45.53125 
Q 43.3125 49.21875 43.3125 52.78125 
Q 43.3125 58.59375 39.234375 62.25 
Q 35.15625 65.921875 28.609375 65.921875 
Q 23.96875 65.921875 18.8125 64.3125 
Q 13.671875 62.703125 7.8125 59.421875 
L 7.8125 69.390625 
Q 13.765625 71.78125 18.9375 73 
Q 24.125 74.21875 28.421875 74.21875 
Q 39.75 74.21875 46.484375 68.546875 
Q 53.21875 62.890625 53.21875 53.421875 
Q 53.21875 48.921875 51.53125 44.890625 
Q 49.859375 40.875 45.40625 35.40625 
Q 44.1875 33.984375 37.640625 27.21875 
Q 31.109375 20.453125 19.1875 8.296875 
z
" id="DejaVuSans-50"/>
       </defs>
       <use xlink:href="#DejaVuSans-50"/>
       <use x="63.623047" xlink:href="#DejaVuSans-48"/>
       <use x="127.246094" xlink:href="#DejaVuSans-48"/>
       <use x="190.869141" xlink:href="#DejaVuSans-48"/>
      </g>
     </g>
    </g>
    <g id="xtick_3">
     <g id="line2d_3">
      <g>
       <use style="stroke:#000000;stroke-width:0.8;" x="203.694545" xlink:href="#maf15438e13" y="307.584"/>
      </g>
     </g>
     <g id="text_3">
      <!-- 4000 -->
      <g transform="translate(190.969545 322.182437)scale(0.1 -0.1)">
       <defs>
        <path d="M 37.796875 64.3125 
L 12.890625 25.390625 
L 37.796875 25.390625 
z
M 35.203125 72.90625 
L 47.609375 72.90625 
L 47.609375 25.390625 
L 58.015625 25.390625 
L 58.015625 17.1875 
L 47.609375 17.1875 
L 47.609375 0 
L 37.796875 0 
L 37.796875 17.1875 
L 4.890625 17.1875 
L 4.890625 26.703125 
z
" id="DejaVuSans-52"/>
       </defs>
       <use xlink:href="#DejaVuSans-52"/>
       <use x="63.623047" xlink:href="#DejaVuSans-48"/>
       <use x="127.246094" xlink:href="#DejaVuSans-48"/>
       <use x="190.869141" xlink:href="#DejaVuSans-48"/>
      </g>
     </g>
    </g>
    <g id="xtick_4">
     <g id="line2d_4">
      <g>
       <use style="stroke:#000000;stroke-width:0.8;" x="268.625455" xlink:href="#maf15438e13" y="307.584"/>
      </g>
     </g>
     <g id="text_4">
      <!-- 6000 -->
      <g transform="translate(255.900455 322.182437)scale(0.1 -0.1)">
       <defs>
        <path d="M 33.015625 40.375 
Q 26.375 40.375 22.484375 35.828125 
Q 18.609375 31.296875 18.609375 23.390625 
Q 18.609375 15.53125 22.484375 10.953125 
Q 26.375 6.390625 33.015625 6.390625 
Q 39.65625 6.390625 43.53125 10.953125 
Q 47.40625 15.53125 47.40625 23.390625 
Q 47.40625 31.296875 43.53125 35.828125 
Q 39.65625 40.375 33.015625 40.375 
z
M 52.59375 71.296875 
L 52.59375 62.3125 
Q 48.875 64.0625 45.09375 64.984375 
Q 41.3125 65.921875 37.59375 65.921875 
Q 27.828125 65.921875 22.671875 59.328125 
Q 17.53125 52.734375 16.796875 39.40625 
Q 19.671875 43.65625 24.015625 45.921875 
Q 28.375 48.1875 33.59375 48.1875 
Q 44.578125 48.1875 50.953125 41.515625 
Q 57.328125 34.859375 57.328125 23.390625 
Q 57.328125 12.15625 50.6875 5.359375 
Q 44.046875 -1.421875 33.015625 -1.421875 
Q 20.359375 -1.421875 13.671875 8.265625 
Q 6.984375 17.96875 6.984375 36.375 
Q 6.984375 53.65625 15.1875 63.9375 
Q 23.390625 74.21875 37.203125 74.21875 
Q 40.921875 74.21875 44.703125 73.484375 
Q 48.484375 72.75 52.59375 71.296875 
z
" id="DejaVuSans-54"/>
       </defs>
       <use xlink:href="#DejaVuSans-54"/>
       <use x="63.623047" xlink:href="#DejaVuSans-48"/>
       <use x="127.246094" xlink:href="#DejaVuSans-48"/>
       <use x="190.869141" xlink:href="#DejaVuSans-48"/>
      </g>
     </g>
    </g>
    <g id="xtick_5">
     <g id="line2d_5">
      <g>
       <use style="stroke:#000000;stroke-width:0.8;" x="333.556364" xlink:href="#maf15438e13" y="307.584"/>
      </g>
     </g>
     <g id="text_5">
      <!-- 8000 -->
      <g transform="translate(320.831364 322.182437)scale(0.1 -0.1)">
       <defs>
        <path d="M 31.78125 34.625 
Q 24.75 34.625 20.71875 30.859375 
Q 16.703125 27.09375 16.703125 20.515625 
Q 16.703125 13.921875 20.71875 10.15625 
Q 24.75 6.390625 31.78125 6.390625 
Q 38.8125 6.390625 42.859375 10.171875 
Q 46.921875 13.96875 46.921875 20.515625 
Q 46.921875 27.09375 42.890625 30.859375 
Q 38.875 34.625 31.78125 34.625 
z
M 21.921875 38.8125 
Q 15.578125 40.375 12.03125 44.71875 
Q 8.5 49.078125 8.5 55.328125 
Q 8.5 64.0625 14.71875 69.140625 
Q 20.953125 74.21875 31.78125 74.21875 
Q 42.671875 74.21875 48.875 69.140625 
Q 55.078125 64.0625 55.078125 55.328125 
Q 55.078125 49.078125 51.53125 44.71875 
Q 48 40.375 41.703125 38.8125 
Q 48.828125 37.15625 52.796875 32.3125 
Q 56.78125 27.484375 56.78125 20.515625 
Q 56.78125 9.90625 50.3125 4.234375 
Q 43.84375 -1.421875 31.78125 -1.421875 
Q 19.734375 -1.421875 13.25 4.234375 
Q 6.78125 9.90625 6.78125 20.515625 
Q 6.78125 27.484375 10.78125 32.3125 
Q 14.796875 37.15625 21.921875 38.8125 
z
M 18.3125 54.390625 
Q 18.3125 48.734375 21.84375 45.5625 
Q 25.390625 42.390625 31.78125 42.390625 
Q 38.140625 42.390625 41.71875 45.5625 
Q 45.3125 48.734375 45.3125 54.390625 
Q 45.3125 60.0625 41.71875 63.234375 
Q 38.140625 66.40625 31.78125 66.40625 
Q 25.390625 66.40625 21.84375 63.234375 
Q 18.3125 60.0625 18.3125 54.390625 
z
" id="DejaVuSans-56"/>
       </defs>
       <use xlink:href="#DejaVuSans-56"/>
       <use x="63.623047" xlink:href="#DejaVuSans-48"/>
       <use x="127.246094" xlink:href="#DejaVuSans-48"/>
       <use x="190.869141" xlink:href="#DejaVuSans-48"/>
      </g>
     </g>
    </g>
    <g id="xtick_6">
     <g id="line2d_6">
      <g>
       <use style="stroke:#000000;stroke-width:0.8;" x="398.487273" xlink:href="#maf15438e13" y="307.584"/>
      </g>
     </g>
     <g id="text_6">
      <!-- 10000 -->
      <g transform="translate(382.581023 322.182437)scale(0.1 -0.1)">
       <defs>
        <path d="M 12.40625 8.296875 
L 28.515625 8.296875 
L 28.515625 63.921875 
L 10.984375 60.40625 
L 10.984375 69.390625 
L 28.421875 72.90625 
L 38.28125 72.90625 
L 38.28125 8.296875 
L 54.390625 8.296875 
L 54.390625 0 
L 12.40625 0 
z
" id="DejaVuSans-49"/>
       </defs>
       <use xlink:href="#DejaVuSans-49"/>
       <use x="63.623047" xlink:href="#DejaVuSans-48"/>
       <use x="127.246094" xlink:href="#DejaVuSans-48"/>
       <use x="190.869141" xlink:href="#DejaVuSans-48"/>
       <use x="254.492188" xlink:href="#DejaVuSans-48"/>
      </g>
     </g>
    </g>
    <g id="text_7">
     <!-- Num-time-steps -->
     <g transform="translate(196.056094 335.860562)scale(0.1 -0.1)">
      <defs>
       <path d="M 9.8125 72.90625 
L 23.09375 72.90625 
L 55.421875 11.921875 
L 55.421875 72.90625 
L 64.984375 72.90625 
L 64.984375 0 
L 51.703125 0 
L 19.390625 60.984375 
L 19.390625 0 
L 9.8125 0 
z
" id="DejaVuSans-78"/>
       <path d="M 8.5 21.578125 
L 8.5 54.6875 
L 17.484375 54.6875 
L 17.484375 21.921875 
Q 17.484375 14.15625 20.5 10.265625 
Q 23.53125 6.390625 29.59375 6.390625 
Q 36.859375 6.390625 41.078125 11.03125 
Q 45.3125 15.671875 45.3125 23.6875 
L 45.3125 54.6875 
L 54.296875 54.6875 
L 54.296875 0 
L 45.3125 0 
L 45.3125 8.40625 
Q 42.046875 3.421875 37.71875 1 
Q 33.40625 -1.421875 27.6875 -1.421875 
Q 18.265625 -1.421875 13.375 4.4375 
Q 8.5 10.296875 8.5 21.578125 
z
M 31.109375 56 
z
" id="DejaVuSans-117"/>
       <path d="M 52 44.1875 
Q 55.375 50.25 60.0625 53.125 
Q 64.75 56 71.09375 56 
Q 79.640625 56 84.28125 50.015625 
Q 88.921875 44.046875 88.921875 33.015625 
L 88.921875 0 
L 79.890625 0 
L 79.890625 32.71875 
Q 79.890625 40.578125 77.09375 44.375 
Q 74.3125 48.1875 68.609375 48.1875 
Q 61.625 48.1875 57.5625 43.546875 
Q 53.515625 38.921875 53.515625 30.90625 
L 53.515625 0 
L 44.484375 0 
L 44.484375 32.71875 
Q 44.484375 40.625 41.703125 44.40625 
Q 38.921875 48.1875 33.109375 48.1875 
Q 26.21875 48.1875 22.15625 43.53125 
Q 18.109375 38.875 18.109375 30.90625 
L 18.109375 0 
L 9.078125 0 
L 9.078125 54.6875 
L 18.109375 54.6875 
L 18.109375 46.1875 
Q 21.1875 51.21875 25.484375 53.609375 
Q 29.78125 56 35.6875 56 
Q 41.65625 56 45.828125 52.96875 
Q 50 49.953125 52 44.1875 
z
" id="DejaVuSans-109"/>
       <path d="M 4.890625 31.390625 
L 31.203125 31.390625 
L 31.203125 23.390625 
L 4.890625 23.390625 
z
" id="DejaVuSans-45"/>
       <path d="M 18.3125 70.21875 
L 18.3125 54.6875 
L 36.8125 54.6875 
L 36.8125 47.703125 
L 18.3125 47.703125 
L 18.3125 18.015625 
Q 18.3125 11.328125 20.140625 9.421875 
Q 21.96875 7.515625 27.59375 7.515625 
L 36.8125 7.515625 
L 36.8125 0 
L 27.59375 0 
Q 17.1875 0 13.234375 3.875 
Q 9.28125 7.765625 9.28125 18.015625 
L 9.28125 47.703125 
L 2.6875 47.703125 
L 2.6875 54.6875 
L 9.28125 54.6875 
L 9.28125 70.21875 
z
" id="DejaVuSans-116"/>
       <path d="M 9.421875 54.6875 
L 18.40625 54.6875 
L 18.40625 0 
L 9.421875 0 
z
M 9.421875 75.984375 
L 18.40625 75.984375 
L 18.40625 64.59375 
L 9.421875 64.59375 
z
" id="DejaVuSans-105"/>
       <path d="M 56.203125 29.59375 
L 56.203125 25.203125 
L 14.890625 25.203125 
Q 15.484375 15.921875 20.484375 11.0625 
Q 25.484375 6.203125 34.421875 6.203125 
Q 39.59375 6.203125 44.453125 7.46875 
Q 49.3125 8.734375 54.109375 11.28125 
L 54.109375 2.78125 
Q 49.265625 0.734375 44.1875 -0.34375 
Q 39.109375 -1.421875 33.890625 -1.421875 
Q 20.796875 -1.421875 13.15625 6.1875 
Q 5.515625 13.8125 5.515625 26.8125 
Q 5.515625 40.234375 12.765625 48.109375 
Q 20.015625 56 32.328125 56 
Q 43.359375 56 49.78125 48.890625 
Q 56.203125 41.796875 56.203125 29.59375 
z
M 47.21875 32.234375 
Q 47.125 39.59375 43.09375 43.984375 
Q 39.0625 48.390625 32.421875 48.390625 
Q 24.90625 48.390625 20.390625 44.140625 
Q 15.875 39.890625 15.1875 32.171875 
z
" id="DejaVuSans-101"/>
       <path d="M 44.28125 53.078125 
L 44.28125 44.578125 
Q 40.484375 46.53125 36.375 47.5 
Q 32.28125 48.484375 27.875 48.484375 
Q 21.1875 48.484375 17.84375 46.4375 
Q 14.5 44.390625 14.5 40.28125 
Q 14.5 37.15625 16.890625 35.375 
Q 19.28125 33.59375 26.515625 31.984375 
L 29.59375 31.296875 
Q 39.15625 29.25 43.1875 25.515625 
Q 47.21875 21.78125 47.21875 15.09375 
Q 47.21875 7.46875 41.1875 3.015625 
Q 35.15625 -1.421875 24.609375 -1.421875 
Q 20.21875 -1.421875 15.453125 -0.5625 
Q 10.6875 0.296875 5.421875 2 
L 5.421875 11.28125 
Q 10.40625 8.6875 15.234375 7.390625 
Q 20.0625 6.109375 24.8125 6.109375 
Q 31.15625 6.109375 34.5625 8.28125 
Q 37.984375 10.453125 37.984375 14.40625 
Q 37.984375 18.0625 35.515625 20.015625 
Q 33.0625 21.96875 24.703125 23.78125 
L 21.578125 24.515625 
Q 13.234375 26.265625 9.515625 29.90625 
Q 5.8125 33.546875 5.8125 39.890625 
Q 5.8125 47.609375 11.28125 51.796875 
Q 16.75 56 26.8125 56 
Q 31.78125 56 36.171875 55.265625 
Q 40.578125 54.546875 44.28125 53.078125 
z
" id="DejaVuSans-115"/>
       <path d="M 18.109375 8.203125 
L 18.109375 -20.796875 
L 9.078125 -20.796875 
L 9.078125 54.6875 
L 18.109375 54.6875 
L 18.109375 46.390625 
Q 20.953125 51.265625 25.265625 53.625 
Q 29.59375 56 35.59375 56 
Q 45.5625 56 51.78125 48.09375 
Q 58.015625 40.1875 58.015625 27.296875 
Q 58.015625 14.40625 51.78125 6.484375 
Q 45.5625 -1.421875 35.59375 -1.421875 
Q 29.59375 -1.421875 25.265625 0.953125 
Q 20.953125 3.328125 18.109375 8.203125 
z
M 48.6875 27.296875 
Q 48.6875 37.203125 44.609375 42.84375 
Q 40.53125 48.484375 33.40625 48.484375 
Q 26.265625 48.484375 22.1875 42.84375 
Q 18.109375 37.203125 18.109375 27.296875 
Q 18.109375 17.390625 22.1875 11.75 
Q 26.265625 6.109375 33.40625 6.109375 
Q 40.53125 6.109375 44.609375 11.75 
Q 48.6875 17.390625 48.6875 27.296875 
z
" id="DejaVuSans-112"/>
      </defs>
      <use xlink:href="#DejaVuSans-78"/>
      <use x="74.804688" xlink:href="#DejaVuSans-117"/>
      <use x="138.183594" xlink:href="#DejaVuSans-109"/>
      <use x="235.595703" xlink:href="#DejaVuSans-45"/>
      <use x="271.679688" xlink:href="#DejaVuSans-116"/>
      <use x="310.888672" xlink:href="#DejaVuSans-105"/>
      <use x="338.671875" xlink:href="#DejaVuSans-109"/>
      <use x="436.083984" xlink:href="#DejaVuSans-101"/>
      <use x="497.607422" xlink:href="#DejaVuSans-45"/>
      <use x="533.691406" xlink:href="#DejaVuSans-115"/>
      <use x="585.791016" xlink:href="#DejaVuSans-116"/>
      <use x="625" xlink:href="#DejaVuSans-101"/>
      <use x="686.523438" xlink:href="#DejaVuSans-112"/>
      <use x="750" xlink:href="#DejaVuSans-115"/>
     </g>
    </g>
   </g>
   <g id="matplotlib.axis_2">
    <g id="ytick_1">
     <g id="line2d_7">
      <defs>
       <path d="M 0 0 
L -3.5 0 
" id="m81393dacf2" style="stroke:#000000;stroke-width:0.8;"/>
      </defs>
      <g>
       <use style="stroke:#000000;stroke-width:0.8;" x="57.6" xlink:href="#m81393dacf2" y="300.686206"/>
      </g>
     </g>
     <g id="text_8">
      <!-- 0.0 -->
      <g transform="translate(34.696875 304.485425)scale(0.1 -0.1)">
       <defs>
        <path d="M 10.6875 12.40625 
L 21 12.40625 
L 21 0 
L 10.6875 0 
z
" id="DejaVuSans-46"/>
       </defs>
       <use xlink:href="#DejaVuSans-48"/>
       <use x="63.623047" xlink:href="#DejaVuSans-46"/>
       <use x="95.410156" xlink:href="#DejaVuSans-48"/>
      </g>
     </g>
    </g>
    <g id="ytick_2">
     <g id="line2d_8">
      <g>
       <use style="stroke:#000000;stroke-width:0.8;" x="57.6" xlink:href="#m81393dacf2" y="248.773739"/>
      </g>
     </g>
     <g id="text_9">
      <!-- 0.2 -->
      <g transform="translate(34.696875 252.572958)scale(0.1 -0.1)">
       <use xlink:href="#DejaVuSans-48"/>
       <use x="63.623047" xlink:href="#DejaVuSans-46"/>
       <use x="95.410156" xlink:href="#DejaVuSans-50"/>
      </g>
     </g>
    </g>
    <g id="ytick_3">
     <g id="line2d_9">
      <g>
       <use style="stroke:#000000;stroke-width:0.8;" x="57.6" xlink:href="#m81393dacf2" y="196.861273"/>
      </g>
     </g>
     <g id="text_10">
      <!-- 0.4 -->
      <g transform="translate(34.696875 200.660492)scale(0.1 -0.1)">
       <use xlink:href="#DejaVuSans-48"/>
       <use x="63.623047" xlink:href="#DejaVuSans-46"/>
       <use x="95.410156" xlink:href="#DejaVuSans-52"/>
      </g>
     </g>
    </g>
    <g id="ytick_4">
     <g id="line2d_10">
      <g>
       <use style="stroke:#000000;stroke-width:0.8;" x="57.6" xlink:href="#m81393dacf2" y="144.948806"/>
      </g>
     </g>
     <g id="text_11">
      <!-- 0.6 -->
      <g transform="translate(34.696875 148.748025)scale(0.1 -0.1)">
       <use xlink:href="#DejaVuSans-48"/>
       <use x="63.623047" xlink:href="#DejaVuSans-46"/>
       <use x="95.410156" xlink:href="#DejaVuSans-54"/>
      </g>
     </g>
    </g>
    <g id="ytick_5">
     <g id="line2d_11">
      <g>
       <use style="stroke:#000000;stroke-width:0.8;" x="57.6" xlink:href="#m81393dacf2" y="93.03634"/>
      </g>
     </g>
     <g id="text_12">
      <!-- 0.8 -->
      <g transform="translate(34.696875 96.835559)scale(0.1 -0.1)">
       <use xlink:href="#DejaVuSans-48"/>
       <use x="63.623047" xlink:href="#DejaVuSans-46"/>
       <use x="95.410156" xlink:href="#DejaVuSans-56"/>
      </g>
     </g>
    </g>
    <g id="text_13">
     <!-- Obj-pose-error-norm -->
     <g transform="translate(28.617187 225.203781)rotate(-90)scale(0.1 -0.1)">
      <defs>
       <path d="M 39.40625 66.21875 
Q 28.65625 66.21875 22.328125 58.203125 
Q 16.015625 50.203125 16.015625 36.375 
Q 16.015625 22.609375 22.328125 14.59375 
Q 28.65625 6.59375 39.40625 6.59375 
Q 50.140625 6.59375 56.421875 14.59375 
Q 62.703125 22.609375 62.703125 36.375 
Q 62.703125 50.203125 56.421875 58.203125 
Q 50.140625 66.21875 39.40625 66.21875 
z
M 39.40625 74.21875 
Q 54.734375 74.21875 63.90625 63.9375 
Q 73.09375 53.65625 73.09375 36.375 
Q 73.09375 19.140625 63.90625 8.859375 
Q 54.734375 -1.421875 39.40625 -1.421875 
Q 24.03125 -1.421875 14.8125 8.828125 
Q 5.609375 19.09375 5.609375 36.375 
Q 5.609375 53.65625 14.8125 63.9375 
Q 24.03125 74.21875 39.40625 74.21875 
z
" id="DejaVuSans-79"/>
       <path d="M 48.6875 27.296875 
Q 48.6875 37.203125 44.609375 42.84375 
Q 40.53125 48.484375 33.40625 48.484375 
Q 26.265625 48.484375 22.1875 42.84375 
Q 18.109375 37.203125 18.109375 27.296875 
Q 18.109375 17.390625 22.1875 11.75 
Q 26.265625 6.109375 33.40625 6.109375 
Q 40.53125 6.109375 44.609375 11.75 
Q 48.6875 17.390625 48.6875 27.296875 
z
M 18.109375 46.390625 
Q 20.953125 51.265625 25.265625 53.625 
Q 29.59375 56 35.59375 56 
Q 45.5625 56 51.78125 48.09375 
Q 58.015625 40.1875 58.015625 27.296875 
Q 58.015625 14.40625 51.78125 6.484375 
Q 45.5625 -1.421875 35.59375 -1.421875 
Q 29.59375 -1.421875 25.265625 0.953125 
Q 20.953125 3.328125 18.109375 8.203125 
L 18.109375 0 
L 9.078125 0 
L 9.078125 75.984375 
L 18.109375 75.984375 
z
" id="DejaVuSans-98"/>
       <path d="M 9.421875 54.6875 
L 18.40625 54.6875 
L 18.40625 -0.984375 
Q 18.40625 -11.421875 14.421875 -16.109375 
Q 10.453125 -20.796875 1.609375 -20.796875 
L -1.8125 -20.796875 
L -1.8125 -13.1875 
L 0.59375 -13.1875 
Q 5.71875 -13.1875 7.5625 -10.8125 
Q 9.421875 -8.453125 9.421875 -0.984375 
z
M 9.421875 75.984375 
L 18.40625 75.984375 
L 18.40625 64.59375 
L 9.421875 64.59375 
z
" id="DejaVuSans-106"/>
       <path d="M 30.609375 48.390625 
Q 23.390625 48.390625 19.1875 42.75 
Q 14.984375 37.109375 14.984375 27.296875 
Q 14.984375 17.484375 19.15625 11.84375 
Q 23.34375 6.203125 30.609375 6.203125 
Q 37.796875 6.203125 41.984375 11.859375 
Q 46.1875 17.53125 46.1875 27.296875 
Q 46.1875 37.015625 41.984375 42.703125 
Q 37.796875 48.390625 30.609375 48.390625 
z
M 30.609375 56 
Q 42.328125 56 49.015625 48.375 
Q 55.71875 40.765625 55.71875 27.296875 
Q 55.71875 13.875 49.015625 6.21875 
Q 42.328125 -1.421875 30.609375 -1.421875 
Q 18.84375 -1.421875 12.171875 6.21875 
Q 5.515625 13.875 5.515625 27.296875 
Q 5.515625 40.765625 12.171875 48.375 
Q 18.84375 56 30.609375 56 
z
" id="DejaVuSans-111"/>
       <path d="M 41.109375 46.296875 
Q 39.59375 47.171875 37.8125 47.578125 
Q 36.03125 48 33.890625 48 
Q 26.265625 48 22.1875 43.046875 
Q 18.109375 38.09375 18.109375 28.8125 
L 18.109375 0 
L 9.078125 0 
L 9.078125 54.6875 
L 18.109375 54.6875 
L 18.109375 46.1875 
Q 20.953125 51.171875 25.484375 53.578125 
Q 30.03125 56 36.53125 56 
Q 37.453125 56 38.578125 55.875 
Q 39.703125 55.765625 41.0625 55.515625 
z
" id="DejaVuSans-114"/>
       <path d="M 54.890625 33.015625 
L 54.890625 0 
L 45.90625 0 
L 45.90625 32.71875 
Q 45.90625 40.484375 42.875 44.328125 
Q 39.84375 48.1875 33.796875 48.1875 
Q 26.515625 48.1875 22.3125 43.546875 
Q 18.109375 38.921875 18.109375 30.90625 
L 18.109375 0 
L 9.078125 0 
L 9.078125 54.6875 
L 18.109375 54.6875 
L 18.109375 46.1875 
Q 21.34375 51.125 25.703125 53.5625 
Q 30.078125 56 35.796875 56 
Q 45.21875 56 50.046875 50.171875 
Q 54.890625 44.34375 54.890625 33.015625 
z
" id="DejaVuSans-110"/>
      </defs>
      <use xlink:href="#DejaVuSans-79"/>
      <use x="78.710938" xlink:href="#DejaVuSans-98"/>
      <use x="142.1875" xlink:href="#DejaVuSans-106"/>
      <use x="169.970703" xlink:href="#DejaVuSans-45"/>
      <use x="206.054688" xlink:href="#DejaVuSans-112"/>
      <use x="269.53125" xlink:href="#DejaVuSans-111"/>
      <use x="330.712891" xlink:href="#DejaVuSans-115"/>
      <use x="382.8125" xlink:href="#DejaVuSans-101"/>
      <use x="444.335938" xlink:href="#DejaVuSans-45"/>
      <use x="480.419922" xlink:href="#DejaVuSans-101"/>
      <use x="541.943359" xlink:href="#DejaVuSans-114"/>
      <use x="581.306641" xlink:href="#DejaVuSans-114"/>
      <use x="620.169922" xlink:href="#DejaVuSans-111"/>
      <use x="681.351562" xlink:href="#DejaVuSans-114"/>
      <use x="716.089844" xlink:href="#DejaVuSans-45"/>
      <use x="752.173828" xlink:href="#DejaVuSans-110"/>
      <use x="815.552734" xlink:href="#DejaVuSans-111"/>
      <use x="876.734375" xlink:href="#DejaVuSans-114"/>
      <use x="916.097656" xlink:href="#DejaVuSans-109"/>
     </g>
    </g>
   </g>
   <g id="line2d_12">
    <path clip-path="url(#pe93ed4d5ac)" d="M 73.832727 295.332151 
L 73.865193 295.488 
L 74.02752 286.001435 
L 74.319709 271.036204 
L 74.514502 294.023943 
L 74.546967 292.087827 
L 74.644364 278.751675 
L 74.676829 281.354838 
L 74.871622 289.132194 
L 75.066415 290.45269 
L 75.131345 290.236647 
L 75.326138 288.216571 
L 76.429964 272.792348 
L 77.176669 263.53001 
L 79.189527 244.238648 
L 81.007593 230.368363 
L 82.403607 224.442245 
L 82.793193 223.108251 
L 83.604829 221.452274 
L 84.221673 219.861888 
L 84.481396 219.699196 
L 85.000844 220.004246 
L 86.331927 219.236855 
L 86.624116 219.523246 
L 87.273425 220.374143 
L 87.9552 220.879995 
L 90.682298 224.701993 
L 91.493935 226.308555 
L 92.143244 226.66433 
L 92.435433 227.137853 
L 93.474327 229.188902 
L 94.708015 230.72711 
L 95.324858 231.708628 
L 96.493615 233.17224 
L 97.467578 234.700107 
L 98.863593 236.288963 
L 99.512902 237.018028 
L 101.590691 239.669667 
L 102.110138 240.083349 
L 102.59712 240.725059 
L 103.830807 242.257634 
L 104.707375 243.197865 
L 105.09696 243.835007 
L 109.414865 251.938303 
L 109.836916 252.597712 
L 111.070604 253.955299 
L 112.077033 256.595217 
L 112.369222 256.824171 
L 113.050996 257.255027 
L 113.635375 258.3783 
L 114.771665 260.647905 
L 115.583302 261.321953 
L 116.135215 262.356585 
L 116.5248 262.808403 
L 118.277935 264.334224 
L 118.66752 264.697108 
L 118.959709 264.810242 
L 119.933673 265.127203 
L 120.323258 265.386752 
L 120.518051 265.490853 
L 120.745309 265.558859 
L 121.037498 265.480611 
L 121.362153 265.606727 
L 122.108858 266.276459 
L 122.271185 266.194084 
L 122.530909 265.832967 
L 122.855564 264.998771 
L 123.439942 263.288441 
L 123.764596 263.138386 
L 123.991855 263.371488 
L 124.316509 263.715456 
L 124.511302 263.679046 
L 124.543767 263.614255 
L 124.576233 263.856756 
L 124.673629 263.822589 
L 124.835956 263.775162 
L 124.965818 263.855992 
L 125.193076 264.342915 
L 125.550196 264.950936 
L 125.744989 265.518654 
L 126.231971 266.787163 
L 126.394298 266.880614 
L 126.654022 266.561532 
L 127.173469 265.712206 
L 127.303331 265.807275 
L 127.757847 266.676177 
L 128.179898 267.352841 
L 128.504553 267.577796 
L 128.796742 267.463725 
L 129.283724 267.167638 
L 130.257687 266.614758 
L 130.679738 266.334313 
L 131.101789 265.748626 
L 131.718633 265.410763 
L 132.205615 264.983685 
L 132.627665 264.581306 
L 133.049716 264.621249 
L 133.276975 264.600695 
L 133.699025 264.322884 
L 134.445731 262.772037 
L 134.640524 262.742398 
L 134.900247 263.060305 
L 135.224902 263.352149 
L 135.387229 263.281153 
L 135.614487 262.86015 
L 136.198865 261.458098 
L 136.426124 261.268781 
L 137.140364 260.678103 
L 137.562415 259.954629 
L 138.244189 258.994971 
L 138.568844 258.490986 
L 139.185687 257.3092 
L 139.640204 256.478873 
L 139.964858 255.986368 
L 140.289513 255.71621 
L 140.45184 255.677563 
L 140.614167 255.621829 
L 141.036218 255.367522 
L 141.393338 254.334155 
L 141.88032 253.019048 
L 142.140044 252.873146 
L 142.334836 252.969505 
L 142.691956 253.591409 
L 142.919215 253.279739 
L 143.211404 252.65461 
L 143.600989 251.969967 
L 144.120436 251.616415 
L 144.704815 251.286613 
L 145.321658 250.5342 
L 145.581382 250.465662 
L 145.776175 250.525579 
L 146.035898 250.596278 
L 146.555345 250.808966 
L 146.977396 250.57573 
L 147.302051 250.442391 
L 147.626705 249.783429 
L 148.211084 248.295655 
L 148.405876 248.192103 
L 148.827927 248.621976 
L 148.957789 248.868604 
L 149.120116 249.074015 
L 149.509702 249.644238 
L 149.769425 249.588312 
L 150.288873 248.737125 
L 150.840785 247.559539 
L 151.003113 247.778004 
L 151.587491 249.013062 
L 151.87968 249.294413 
L 152.042007 249.270161 
L 152.2368 248.872395 
L 152.496524 248.448265 
L 152.691316 248.417738 
L 152.95104 248.429306 
L 153.632815 248.152799 
L 154.054865 248.445844 
L 154.347055 248.905303 
L 154.606778 249.221868 
L 155.321018 249.492058 
L 156.100189 248.767927 
L 156.489775 248.652746 
L 157.204015 248.556296 
L 157.398807 248.814491 
L 157.853324 249.583153 
L 158.145513 249.557872 
L 158.729891 249.240986 
L 159.02208 249.204248 
L 159.249338 249.302575 
L 159.476596 249.320046 
L 160.515491 249.40538 
L 161.87904 250.013552 
L 162.138764 249.848353 
L 163.210124 248.830672 
L 163.729571 248.982231 
L 163.924364 249.133976 
L 164.216553 249.373498 
L 164.541207 249.442913 
L 164.736 249.351496 
L 165.028189 249.146338 
L 165.709964 248.988312 
L 165.904756 248.975465 
L 166.099549 248.837691 
L 166.618996 248.403473 
L 167.041047 248.588173 
L 167.23584 248.632136 
L 167.852684 248.486724 
L 168.177338 248.265263 
L 168.469527 248.096225 
L 168.599389 248.008427 
L 168.826647 247.940159 
L 169.508422 248.098578 
L 170.190196 248.543049 
L 171.261556 248.306903 
L 172.170589 248.45777 
L 172.560175 248.371128 
L 173.047156 248.328307 
L 174.37824 248.562309 
L 175.027549 248.553218 
L 175.417135 248.702572 
L 176.585891 249.081597 
L 177.137804 249.378541 
L 177.527389 249.338662 
L 178.111767 249.277443 
L 178.468887 249.347873 
L 180.644073 249.757296 
L 182.072553 249.633449 
L 184.247738 249.376257 
L 184.864582 249.184928 
L 186.260596 248.686585 
L 188.403316 248.161296 
L 189.539607 247.433421 
L 190.188916 247.268114 
L 190.610967 246.943124 
L 191.065484 246.500653 
L 191.682327 246.15288 
L 192.006982 245.980424 
L 192.23424 245.650736 
L 192.721222 244.946281 
L 193.045876 244.765205 
L 193.727651 244.479285 
L 194.766545 242.793538 
L 195.0912 242.407845 
L 195.740509 241.062697 
L 196.16256 240.381429 
L 196.552145 239.781789 
L 197.428713 237.870144 
L 198.175418 236.539032 
L 202.59072 229.789728 
L 202.785513 229.523053 
L 203.240029 228.661406 
L 203.597149 227.989106 
L 204.213993 226.858941 
L 204.960698 225.353797 
L 205.480145 225.01366 
L 205.739869 224.792056 
L 206.129455 224.109686 
L 206.973556 222.58408 
L 207.298211 222.163414 
L 209.246138 218.304942 
L 209.700655 217.546214 
L 210.09024 217.04805 
L 210.44736 216.441908 
L 212.168029 213.421901 
L 212.492684 213.096116 
L 213.206924 211.669583 
L 214.343215 209.684019 
L 214.7328 209.124588 
L 216.128815 206.661251 
L 217.167709 205.097684 
L 218.109207 203.573098 
L 218.498793 203.093003 
L 219.505222 201.030316 
L 219.992204 200.684363 
L 220.80384 199.527413 
L 221.485615 198.372313 
L 222.394647 197.510263 
L 222.719302 197.179499 
L 224.180247 194.411991 
L 224.537367 193.091626 
L 225.478865 187.982513 
L 225.80352 186.073464 
L 226.030778 185.08976 
L 226.680087 183.968619 
L 226.712553 184.020782 
L 227.296931 184.071419 
L 227.459258 184.348276 
L 227.491724 184.095719 
L 227.556655 184.22254 
L 227.718982 184.445528 
L 227.848844 184.43809 
L 227.881309 184.467473 
L 227.913775 184.415845 
L 228.205964 184.078464 
L 228.433222 184.008321 
L 228.66048 184.063101 
L 228.855273 184.212545 
L 229.114996 184.285255 
L 229.407185 184.077283 
L 229.472116 183.516426 
L 229.537047 183.742176 
L 229.601978 183.851151 
L 229.634444 183.602681 
L 229.699375 183.828899 
L 230.024029 184.650574 
L 230.121425 183.648537 
L 230.186356 183.93219 
L 230.413615 184.811582 
L 230.640873 183.611591 
L 230.933062 185.820659 
L 231.290182 187.737246 
L 231.712233 188.49267 
L 232.166749 188.970129 
L 233.043316 190.063356 
L 233.595229 190.821455 
L 235.997673 195.515038 
L 237.101498 198.535211 
L 238.172858 201.374667 
L 239.114356 203.690819 
L 240.510371 207.628324 
L 241.224611 209.461594 
L 242.198575 212.223932 
L 245.639913 220.384221 
L 246.126895 221.430041 
L 249.827956 229.096687 
L 250.866851 230.915949 
L 254.080931 236.56295 
L 255.736669 238.883095 
L 257.295011 241.198183 
L 258.139113 242.103983 
L 259.01568 242.810277 
L 259.437731 243.056622 
L 259.762385 243.22104 
L 260.44416 243.548849 
L 260.638953 243.687025 
L 261.385658 243.94547 
L 261.645382 243.915251 
L 262.22976 243.933542 
L 262.521949 243.950841 
L 263.041396 243.886544 
L 263.463447 243.693775 
L 263.950429 243.384521 
L 264.859462 242.574359 
L 265.606167 241.687516 
L 266.417804 240.542282 
L 266.904785 239.817107 
L 269.242298 236.783045 
L 269.664349 236.180161 
L 270.313658 235.51059 
L 272.196655 233.120755 
L 272.488844 232.749241 
L 273.138153 231.799556 
L 273.754996 231.221772 
L 274.566633 230.124441 
L 274.988684 229.748402 
L 275.832785 228.712958 
L 276.15744 228.315623 
L 277.293731 226.524172 
L 278.787142 225.070316 
L 279.144262 224.628044 
L 279.793571 224.159698 
L 280.345484 223.587794 
L 280.735069 223.282499 
L 280.962327 223.116054 
L 281.222051 223.001925 
L 281.416844 222.839396 
L 282.520669 221.688266 
L 283.169978 221.580695 
L 283.332305 221.583221 
L 284.533527 221.081678 
L 285.150371 221.313161 
L 285.897076 221.202963 
L 286.221731 221.261907 
L 286.643782 221.073648 
L 287.390487 220.545054 
L 288.29952 220.494 
L 288.65664 220.67733 
L 289.208553 220.498923 
L 289.533207 220.569795 
L 290.604567 220.659636 
L 291.15648 220.633018 
L 291.416204 220.631492 
L 292.292771 220.682217 
L 292.487564 220.765957 
L 293.201804 220.655356 
L 293.558924 220.891595 
L 293.916044 221.036296 
L 294.565353 221.249555 
L 295.474385 221.857229 
L 295.928902 221.60838 
L 296.415884 221.84353 
L 296.675607 222.099097 
L 296.902865 222.112622 
L 297.519709 221.817349 
L 297.779433 221.724721 
L 298.104087 221.679703 
L 298.883258 221.65686 
L 299.272844 221.431785 
L 301.253236 219.720508 
L 301.51296 219.578093 
L 302.097338 218.661093 
L 302.58432 217.965367 
L 303.29856 217.240103 
L 303.493353 217.048892 
L 304.889367 215.200794 
L 306.837295 211.429165 
L 308.330705 208.194358 
L 309.402065 205.490155 
L 311.187665 200.198714 
L 312.096698 197.133258 
L 312.875869 193.456177 
L 314.986124 181.578747 
L 315.992553 175.776615 
L 316.836655 171.414404 
L 318.459927 161.185987 
L 322.096058 138.145584 
L 323.167418 130.182076 
L 324.206313 121.609029 
L 324.790691 117.316406 
L 325.537396 112.733703 
L 330.374749 87.976695 
L 334.757585 68.583857 
L 336.186065 61.916584 
L 336.640582 60.237397 
L 337.22496 58.292099 
L 338.361251 55.895196 
L 338.750836 55.393797 
L 339.627404 53.857578 
L 340.179316 53.611847 
L 340.666298 53.571653 
L 341.055884 53.683524 
L 341.445469 53.893463 
L 341.737658 54.293663 
L 343.003811 56.276357 
L 343.458327 56.995811 
L 343.685585 57.60955 
L 344.36736 59.833957 
L 345.536116 62.665435 
L 347.906095 71.63334 
L 348.685265 75.55794 
L 350.503331 87.215895 
L 353.100567 105.394786 
L 353.490153 108.740629 
L 354.658909 118.635076 
L 357.840524 157.363474 
L 359.236538 174.548057 
L 360.275433 185.48285 
L 361.833775 199.821551 
L 362.612945 205.613248 
L 363.29472 209.81868 
L 363.327185 209.828654 
L 363.781702 211.89144 
L 363.879098 211.751405 
L 364.106356 212.018764 
L 364.36608 212.677379 
L 364.690735 212.927752 
L 365.307578 213.281844 
L 365.827025 213.48227 
L 366.833455 213.56844 
L 367.710022 214.209192 
L 369.073571 215.696616 
L 369.495622 215.893099 
L 369.982604 215.851724 
L 370.339724 215.697706 
L 370.79424 215.078398 
L 371.248756 214.001857 
L 371.833135 212.049159 
L 372.514909 209.130198 
L 373.326545 204.760675 
L 376.638022 184.922633 
L 378.878138 168.741429 
L 379.397585 165.331559 
L 380.046895 160.675286 
L 381.15072 153.093823 
L 381.540305 150.30557 
L 381.702633 149.263304 
L 383.390836 138.465539 
L 385.43616 124.296264 
L 385.501091 124.081781 
L 387.351622 112.81236 
L 389.104756 106.709056 
L 391.085149 101.672593 
L 391.5072 100.732915 
L 391.86432 99.889724 
L 392.059113 99.650589 
L 392.318836 99.303159 
L 392.416233 99.249438 
L 392.643491 99.014918 
L 392.740887 99.093936 
L 392.805818 98.95635 
L 392.838284 99.104051 
L 392.903215 99.151045 
L 392.968145 99.311293 
L 393.033076 99.26222 
L 393.227869 98.210623 
L 393.325265 98.069832 
L 393.357731 98.155474 
L 393.747316 98.357389 
L 393.942109 98.559406 
L 394.00704 98.446616 
L 394.071971 98.502425 
L 394.266764 98.753162 
L 394.494022 99.067621 
L 394.656349 99.244707 
L 394.981004 99.723285 
L 395.175796 99.982677 
L 395.273193 100.033856 
L 395.43552 100.405624 
L 395.890036 101.628181 
L 396.117295 102.177885 
L 397.188655 105.382028 
L 398.097687 106.797857 
L 398.422342 107.557948 
L 398.487273 107.85448 
L 398.487273 107.85448 
" style="fill:none;stroke:#1f77b4;stroke-linecap:square;stroke-width:1.5;"/>
   </g>
   <g id="line2d_13">
    <path clip-path="url(#pe93ed4d5ac)" d="M 73.832727 295.332151 
L 73.865193 295.488 
L 74.02752 286.450238 
L 74.319709 271.757873 
L 74.546967 293.983411 
L 74.579433 292.707889 
L 74.644364 283.310365 
L 74.709295 284.893721 
L 74.904087 290.704172 
L 75.066415 292.165807 
L 75.09888 292.151173 
L 75.163811 291.811267 
L 75.423535 288.648378 
L 76.949411 268.348434 
L 79.059665 247.659418 
L 79.838836 240.957602 
L 80.488145 235.994087 
L 80.975127 233.591609 
L 82.5984 226.977356 
L 83.150313 226.001409 
L 83.280175 225.757643 
L 83.572364 224.926819 
L 84.091811 223.516268 
L 84.611258 223.807062 
L 84.935913 224.226846 
L 85.130705 224.122328 
L 85.487825 223.888868 
L 86.007273 223.620841 
L 86.137135 223.604493 
L 86.396858 223.8298 
L 87.176029 224.833021 
L 87.468218 224.914935 
L 88.052596 225.586884 
L 88.896698 226.863819 
L 90.422575 228.87767 
L 91.623796 230.832148 
L 91.915985 230.999918 
L 92.402967 231.725844 
L 93.312 233.266792 
L 94.123636 234.015258 
L 95.000204 235.262448 
L 95.162531 235.411206 
L 96.591011 237.053056 
L 97.272785 237.924856 
L 97.922095 238.639525 
L 98.474007 239.213187 
L 99.090851 239.709425 
L 99.870022 240.542688 
L 101.266036 242.167648 
L 102.824378 243.730469 
L 103.181498 244.118156 
L 104.317789 245.390269 
L 105.648873 247.4125 
L 107.888989 251.519591 
L 109.057745 253.690759 
L 109.674589 254.904095 
L 110.031709 255.306941 
L 110.486225 255.80546 
L 110.713484 256.010233 
L 111.232931 256.874561 
L 112.369222 259.226164 
L 113.408116 259.920319 
L 113.797702 260.684382 
L 114.706735 262.415 
L 115.550836 262.803344 
L 116.394938 263.576381 
L 116.622196 263.649024 
L 117.141644 264.123276 
L 117.401367 264.259604 
L 118.050676 264.244274 
L 118.472727 264.391427 
L 119.609018 264.18964 
L 119.998604 264.128993 
L 120.160931 264.168409 
L 120.647913 263.835975 
L 121.232291 263.559881 
L 121.492015 263.779783 
L 121.946531 264.186179 
L 122.206255 264.150253 
L 122.498444 263.752059 
L 122.758167 263.118646 
L 123.569804 260.58475 
L 123.764596 260.374082 
L 123.797062 260.405531 
L 123.894458 260.500321 
L 124.154182 261.103118 
L 124.673629 262.183082 
L 125.485265 262.225027 
L 125.907316 262.213106 
L 126.069644 262.394592 
L 126.459229 262.985136 
L 126.718953 263.053187 
L 127.335796 262.893384 
L 128.114967 263.105455 
L 128.439622 263.323837 
L 128.829207 263.265436 
L 129.933033 262.401853 
L 130.322618 262.037169 
L 130.647273 261.638525 
L 131.978356 260.114812 
L 132.303011 259.856437 
L 132.660131 259.567829 
L 133.114647 259.551353 
L 133.828887 258.814621 
L 134.153542 258.173244 
L 134.218473 258.133385 
L 134.478196 257.806958 
L 134.672989 257.828883 
L 135.062575 258.211179 
L 135.354764 258.07201 
L 135.646953 257.466123 
L 136.361193 255.997753 
L 136.620916 255.850896 
L 137.465018 254.935629 
L 138.081862 254.117528 
L 138.406516 253.639396 
L 138.828567 252.946914 
L 139.02336 252.573607 
L 139.834996 251.369069 
L 140.192116 251.124966 
L 140.581702 251.15126 
L 141.16608 250.44216 
L 141.782924 248.66599 
L 141.977716 248.686551 
L 142.172509 248.72699 
L 142.334836 248.890291 
L 142.659491 249.332358 
L 142.789353 249.223492 
L 143.178938 248.527915 
L 143.536058 247.945947 
L 143.958109 247.716897 
L 144.477556 247.773556 
L 145.516451 246.961121 
L 145.711244 247.045599 
L 146.035898 247.159068 
L 146.555345 247.480131 
L 146.912465 247.343987 
L 147.334516 247.225737 
L 147.756567 246.265152 
L 148.081222 245.522163 
L 148.340945 245.320048 
L 149.217513 246.517384 
L 149.444771 246.761846 
L 149.704495 246.788111 
L 150.159011 246.463837 
L 150.386269 246.139865 
L 150.710924 245.723178 
L 150.873251 245.848603 
L 151.749818 247.256827 
L 152.139404 247.39096 
L 152.496524 246.939955 
L 152.691316 246.985032 
L 152.95104 247.052143 
L 153.632815 246.86544 
L 154.087331 247.304815 
L 154.801571 248.318921 
L 155.061295 248.581595 
L 155.288553 248.729747 
L 155.483345 248.568859 
L 155.970327 248.032957 
L 156.16512 248.093955 
L 156.327447 247.98358 
L 156.944291 247.752203 
L 157.204015 247.925588 
L 157.431273 248.309433 
L 157.885789 249.106226 
L 158.113047 249.148858 
L 158.242909 249.079634 
L 158.697425 248.902267 
L 160.288233 249.109894 
L 160.547956 249.276568 
L 161.034938 249.733311 
L 161.911505 250.16314 
L 162.138764 250.038338 
L 163.080262 249.067125 
L 163.30752 249.140249 
L 163.567244 249.250382 
L 163.891898 249.422311 
L 164.573673 249.984447 
L 164.865862 249.855301 
L 165.222982 249.638728 
L 166.132015 249.543913 
L 166.618996 249.260651 
L 167.690356 249.536747 
L 168.437062 249.275502 
L 168.826647 249.094021 
L 169.508422 249.272156 
L 169.930473 249.79287 
L 170.222662 249.977437 
L 170.579782 249.918069 
L 170.871971 249.792031 
L 171.294022 249.783029 
L 171.910865 250.095473 
L 172.23552 250.155922 
L 172.59264 250.131884 
L 172.884829 250.102327 
L 173.728931 250.451407 
L 174.02112 250.610214 
L 175.027549 250.671327 
L 175.417135 250.855968 
L 176.423564 251.310528 
L 177.332596 251.896943 
L 178.468887 251.935572 
L 180.838865 252.703108 
L 181.52064 252.712155 
L 184.702255 252.707077 
L 186.52032 252.332611 
L 186.974836 252.368818 
L 188.370851 252.123468 
L 188.825367 251.973912 
L 189.896727 251.527101 
L 190.383709 251.378514 
L 192.266705 250.312095 
L 192.688756 249.84947 
L 193.143273 249.73339 
L 193.825047 249.399369 
L 194.37696 248.777737 
L 195.383389 247.880571 
L 195.902836 247.184393 
L 196.51968 246.5708 
L 196.974196 245.805879 
L 197.266385 245.903079 
L 197.461178 245.884423 
L 197.720902 245.635579 
L 198.013091 245.058164 
L 198.500073 244.073629 
L 199.73376 242.581187 
L 202.298531 238.864521 
L 202.785513 238.425738 
L 204.149062 236.353566 
L 205.187956 234.601886 
L 205.772335 234.034613 
L 206.096989 233.418252 
L 206.713833 232.47678 
L 207.330676 231.818894 
L 207.915055 230.843557 
L 208.174778 230.507575 
L 208.531898 230.049073 
L 208.856553 229.672387 
L 209.635724 228.214181 
L 210.349964 227.449268 
L 211.323927 226.084748 
L 211.745978 225.321377 
L 212.557615 224.72065 
L 213.206924 223.688023 
L 214.01856 222.378724 
L 214.602938 222.181133 
L 214.895127 221.741956 
L 215.284713 221.259404 
L 218.076742 218.331904 
L 218.628655 217.984918 
L 219.115636 217.207511 
L 219.537687 216.515473 
L 219.797411 216.521399 
L 219.992204 216.474596 
L 220.576582 216.063645 
L 221.680407 214.930767 
L 222.784233 214.277352 
L 224.050385 213.019084 
L 224.537367 212.636249 
L 224.797091 212.556439 
L 225.316538 212.553006 
L 225.608727 212.347892 
L 225.998313 211.880981 
L 226.290502 211.763444 
L 227.329396 210.437576 
L 227.621585 210.497964 
L 227.978705 210.423994 
L 228.238429 210.149587 
L 228.530618 209.97696 
L 229.0176 210.027921 
L 229.472116 210.096342 
L 229.829236 209.92679 
L 230.186356 209.605372 
L 230.511011 209.581363 
L 231.355113 210.011468 
L 231.614836 209.998374 
L 231.809629 210.037168 
L 232.069353 210.130583 
L 232.361542 210.472803 
L 232.523869 210.534632 
L 232.751127 210.563662 
L 232.848524 210.554761 
L 233.432902 210.169632 
L 233.66016 210.225785 
L 233.919884 210.27139 
L 234.179607 210.308924 
L 234.991244 210.724289 
L 235.153571 210.805576 
L 235.413295 210.978765 
L 236.289862 211.089351 
L 236.614516 211.328561 
L 237.133964 211.87625 
L 237.653411 212.037825 
L 237.913135 212.03506 
L 238.692305 212.119768 
L 239.081891 212.183893 
L 239.633804 212.593126 
L 240.380509 213.109808 
L 241.289542 213.282319 
L 242.393367 214.18756 
L 243.789382 214.46397 
L 244.341295 214.785108 
L 245.088 215.237959 
L 245.380189 215.292768 
L 246.126895 215.504064 
L 246.548945 215.552943 
L 247.198255 215.951556 
L 247.522909 216.039141 
L 247.685236 216.140624 
L 248.269615 216.488792 
L 249.081251 216.532838 
L 250.639593 217.136459 
L 250.964247 217.080311 
L 251.418764 217.236444 
L 252.165469 217.872998 
L 253.431622 218.219002 
L 254.016 218.653453 
L 254.665309 218.878269 
L 255.412015 218.909719 
L 256.15872 219.220529 
L 256.645702 219.312431 
L 256.970356 219.572501 
L 257.522269 219.97371 
L 258.171578 220.120862 
L 259.3728 220.567932 
L 260.281833 220.962193 
L 260.996073 220.947172 
L 261.320727 221.279668 
L 261.710313 221.531404 
L 262.359622 221.691759 
L 263.268655 221.651459 
L 264.112756 222.047335 
L 264.437411 222.102984 
L 265.313978 222.339894 
L 265.963287 222.621123 
L 266.677527 223.000464 
L 267.456698 222.759761 
L 268.268335 223.096374 
L 268.950109 222.929872 
L 269.209833 223.051703 
L 269.599418 223.287468 
L 270.475985 223.047472 
L 270.768175 223.060643 
L 272.294051 222.897982 
L 272.553775 222.904053 
L 273.138153 223.006157 
L 273.852393 222.832638 
L 274.37184 222.948626 
L 276.319767 222.628985 
L 277.066473 222.744657 
L 280.702604 222.71618 
L 281.449309 222.600377 
L 282.5856 222.636631 
L 283.202444 222.307321 
L 283.527098 222.269887 
L 284.565993 222.290803 
L 285.150371 221.971441 
L 285.79968 221.957814 
L 286.384058 221.844809 
L 287.22816 221.904207 
L 287.552815 221.827526 
L 288.202124 221.587772 
L 289.500742 221.466254 
L 289.987724 221.341537 
L 291.351273 221.352568 
L 291.805789 221.301072 
L 292.22784 221.305347 
L 293.65632 221.217322 
L 294.273164 221.120208 
L 294.922473 220.980841 
L 295.539316 221.063904 
L 295.863971 221.219415 
L 296.253556 221.116213 
L 297.032727 220.999281 
L 297.487244 221.187769 
L 297.779433 221.230552 
L 298.201484 221.099043 
L 299.01312 220.873221 
L 300.279273 220.821669 
L 300.831185 220.715694 
L 301.350633 220.661361 
L 301.805149 220.458646 
L 302.389527 220.50008 
L 302.714182 220.453959 
L 303.071302 220.430404 
L 304.662109 220.228368 
L 307.324276 219.830249 
L 307.778793 219.717536 
L 308.428102 219.768977 
L 308.947549 219.563969 
L 309.402065 219.438074 
L 310.343564 219.402876 
L 310.668218 219.382883 
L 311.51232 219.167389 
L 311.739578 219.120286 
L 312.064233 218.916035 
L 312.778473 218.512907 
L 313.784902 218.254699 
L 314.304349 218.130778 
L 314.921193 217.902411 
L 315.635433 217.573666 
L 315.862691 217.540879 
L 316.447069 217.175944 
L 317.193775 216.538802 
L 317.550895 216.524664 
L 317.745687 216.520434 
L 318.524858 216.505078 
L 318.817047 216.466084 
L 319.109236 216.392139 
L 321.414284 215.811838 
L 322.290851 215.571638 
L 322.647971 215.360751 
L 322.972625 215.303108 
L 323.459607 215.243918 
L 324.498502 215.065622 
L 325.147811 215.093194 
L 326.121775 214.845443 
L 327.777513 214.43843 
L 328.134633 214.289453 
L 329.270924 213.682484 
L 329.757905 213.359396 
L 329.985164 213.169525 
L 330.43968 212.689356 
L 335.828945 209.322678 
L 336.51072 209.044087 
L 336.997702 208.474408 
L 337.387287 208.344781 
L 338.231389 207.93146 
L 339.7248 206.742282 
L 340.861091 206.233707 
L 341.542865 205.800192 
L 342.289571 205.502917 
L 342.516829 205.40382 
L 342.93888 205.102261 
L 343.296 204.747946 
L 343.782982 204.450144 
L 344.562153 204.127244 
L 345.633513 203.288634 
L 345.925702 203.274382 
L 346.834735 202.640781 
L 347.711302 202.229717 
L 348.555404 201.80555 
L 349.00992 201.854346 
L 349.302109 201.84898 
L 350.633193 201.119005 
L 351.347433 200.819249 
L 351.964276 200.34904 
L 352.191535 200.310365 
L 352.58112 200.33085 
L 352.905775 200.267533 
L 354.886167 199.458531 
L 356.347113 199.012563 
L 356.704233 198.879175 
L 358.262575 198.557384 
L 358.522298 198.566465 
L 360.015709 198.295312 
L 360.632553 198.117365 
L 361.346793 197.971083 
L 362.872669 197.696447 
L 364.268684 197.624328 
L 365.047855 197.598339 
L 365.729629 197.578237 
L 368.489193 197.483483 
L 369.00864 197.579339 
L 369.950138 197.462029 
L 370.631913 197.462516 
L 373.326545 197.38935 
L 373.6512 197.291677 
L 374.170647 197.296218 
L 374.982284 197.225265 
L 375.469265 197.146621 
L 375.858851 197.078581 
L 376.313367 196.838434 
L 376.638022 196.848518 
L 377.904175 196.425536 
L 378.261295 196.311273 
L 379.657309 195.74144 
L 379.917033 195.616147 
L 380.144291 195.55237 
L 380.663738 195.416489 
L 381.670167 194.960444 
L 381.86496 194.82599 
L 382.092218 194.788257 
L 382.351942 194.708967 
L 382.709062 194.490502 
L 383.001251 194.428835 
L 383.390836 194.247718 
L 385.890676 193.546749 
L 386.1504 193.497744 
L 386.962036 193.003792 
L 387.319156 192.777125 
L 387.676276 192.637649 
L 388.195724 192.393019 
L 389.591738 191.932923 
L 390.305978 191.422737 
L 390.79296 191.288054 
L 391.637062 191.197162 
L 391.994182 191.282481 
L 392.124044 191.326657 
L 392.188975 191.355562 
L 392.22144 191.281076 
L 392.611025 191.417945 
L 392.773353 191.731659 
L 392.870749 192.050162 
L 392.93568 192.020871 
L 393.098007 192.150485 
L 393.584989 192.735315 
L 393.747316 192.652915 
L 394.623884 191.74447 
L 394.981004 191.832811 
L 395.825105 192.034723 
L 396.669207 191.770927 
L 397.22112 191.626602 
L 397.415913 191.633717 
L 397.805498 191.781559 
L 398.032756 191.772298 
L 398.227549 191.99655 
L 398.260015 191.956621 
L 398.487273 191.66069 
L 398.487273 191.66069 
" style="fill:none;stroke:#ff7f0e;stroke-linecap:square;stroke-width:1.5;"/>
   </g>
   <g id="line2d_14">
    <path clip-path="url(#pe93ed4d5ac)" d="M 73.832727 295.332151 
L 73.865193 295.487403 
L 74.02752 285.637944 
L 74.319709 272.921928 
L 74.546967 293.824945 
L 74.579433 292.654963 
L 74.676829 283.593557 
L 74.74176 285.281458 
L 74.904087 289.18926 
L 75.09888 290.448572 
L 75.163811 290.246028 
L 75.391069 288.260218 
L 76.332567 277.481634 
L 77.468858 265.002823 
L 78.702545 254.329221 
L 79.838836 246.109802 
L 80.715404 241.310108 
L 81.559505 237.877422 
L 82.273745 235.82894 
L 82.890589 234.655204 
L 83.604829 233.743887 
L 84.286604 233.192934 
L 85.09824 232.880084 
L 85.487825 232.975979 
L 86.104669 233.399262 
L 87.013702 234.310863 
L 87.987665 235.609743 
L 88.117527 235.911829 
L 88.31232 236.289644 
L 88.864233 236.922353 
L 89.643404 238.211719 
L 94.156102 246.058563 
L 95.81184 248.484502 
L 97.889629 251.101053 
L 101.493295 255.65409 
L 104.447651 259.748964 
L 107.077353 263.814224 
L 111.719913 271.020136 
L 113.66784 273.664122 
L 115.09632 275.24436 
L 116.589731 276.618942 
L 117.726022 277.375233 
L 118.732451 277.793006 
L 119.641484 277.930884 
L 120.45312 277.823371 
L 121.297222 277.477811 
L 122.271185 276.823613 
L 123.017891 276.171922 
L 123.050356 276.323335 
L 123.342545 276.935766 
L 123.569804 277.345997 
L 124.056785 278.176145 
L 124.543767 278.752221 
L 124.73856 278.574012 
L 125.193076 278.791209 
L 125.972247 279.068867 
L 126.88128 279.159194 
L 127.887709 279.012205 
L 129.024 278.601659 
L 130.420015 278.100944 
L 131.16672 277.827905 
L 132.919855 276.798859 
L 135.224902 275.239835 
L 141.490735 270.576533 
L 143.600989 269.42769 
L 147.529309 267.592928 
L 151.977076 265.045884 
L 154.119796 263.964886 
L 157.690996 262.614291 
L 160.060975 262.04995 
L 160.45056 262.00073 
L 160.872611 261.945362 
L 161.619316 261.826656 
L 162.041367 261.773504 
L 162.788073 261.653307 
L 163.210124 261.600065 
L 163.956829 261.482276 
L 164.37888 261.430413 
L 165.158051 261.3194 
L 165.774895 261.240298 
L 166.87872 261.091592 
L 168.339665 260.889207 
L 172.495244 260.149505 
L 183.955549 258.253072 
L 191.260276 257.070032 
L 198.240349 255.967404 
L 207.23328 254.827739 
L 211.583651 254.292627 
L 211.713513 254.521633 
L 211.908305 254.508519 
L 212.135564 254.327799 
L 212.168029 254.450506 
L 212.200495 254.300381 
L 212.23296 254.421371 
L 212.330356 254.245179 
L 212.362822 254.366732 
L 212.395287 254.218899 
L 212.427753 254.339811 
L 212.525149 254.168937 
L 212.557615 254.286581 
L 212.59008 254.144572 
L 212.622545 254.262195 
L 212.719942 254.102007 
L 212.752407 254.21823 
L 212.784873 254.083162 
L 212.817338 254.19895 
L 212.914735 254.050251 
L 213.012131 254.15194 
L 213.109527 254.011904 
L 213.206924 254.121976 
L 213.30432 253.985583 
L 213.401716 254.105722 
L 213.499113 253.966867 
L 213.596509 254.10005 
L 213.693905 253.952969 
L 213.791302 254.098403 
L 213.888698 253.942715 
L 213.986095 254.096806 
L 214.083491 253.927474 
L 214.180887 254.087845 
L 214.278284 253.905843 
L 214.310749 254.071735 
L 214.37568 254.05584 
L 214.473076 253.874731 
L 214.505542 254.02095 
L 214.538007 253.857747 
L 214.570473 254.002586 
L 214.667869 253.814639 
L 214.7328 253.797565 
L 214.765265 253.957392 
L 214.862662 253.774207 
L 214.960058 253.918241 
L 215.057455 253.743988 
L 215.154851 253.88888 
L 215.252247 253.721987 
L 215.349644 253.870366 
L 215.382109 253.726375 
L 215.44704 253.793849 
L 215.576902 253.83908 
L 215.869091 253.808055 
L 216.031418 253.772316 
L 216.193745 253.797212 
L 216.356073 253.766663 
L 216.5184 253.788722 
L 216.745658 253.771068 
L 217.037847 253.778331 
L 217.687156 253.776729 
L 220.316858 253.71211 
L 221.615476 253.485773 
L 222.816698 253.044721 
L 224.37504 252.146151 
L 229.959098 248.630969 
L 234.926313 246.296791 
L 236.744378 245.814175 
L 239.211753 245.874965 
L 240.770095 246.24114 
L 242.555695 246.919595 
L 244.763345 248.018075 
L 247.58784 249.434319 
L 248.789062 249.801766 
L 250.931782 250.534777 
L 256.580771 252.158274 
L 259.242938 252.659552 
L 262.716742 253.089995 
L 266.807389 253.358022 
L 270.80064 253.404329 
L 271.872 253.422357 
L 272.748567 253.402107 
L 273.105687 253.200252 
L 273.560204 253.138636 
L 274.664029 253.052116 
L 275.702924 252.912512 
L 282.877789 252.055737 
L 283.721891 251.920911 
L 286.189265 251.574286 
L 290.994153 251.031795 
L 298.29888 250.563413 
L 305.830865 250.362662 
L 319.044305 250.109788 
L 326.381498 249.689846 
L 332.127884 249.182986 
L 337.744407 248.449454 
L 353.490153 246.226533 
L 354.204393 246.268328 
L 354.36672 246.26042 
L 355.016029 245.94268 
L 356.087389 245.962564 
L 358.749556 246.028625 
L 359.333935 246.101095 
L 360.275433 245.974813 
L 361.606516 245.906594 
L 365.502371 246.038806 
L 371.898065 246.396949 
L 377.709382 246.743848 
L 381.410444 246.742567 
L 384.786851 246.56156 
L 395.175796 245.881662 
L 398.487273 245.890648 
L 398.487273 245.890648 
" style="fill:none;stroke:#bf00bf;stroke-linecap:square;stroke-width:1.5;"/>
   </g>
   <g id="patch_3">
    <path d="M 57.6 307.584 
L 57.6 41.472 
" style="fill:none;stroke:#000000;stroke-linecap:square;stroke-linejoin:miter;stroke-width:0.8;"/>
   </g>
   <g id="patch_4">
    <path d="M 414.72 307.584 
L 414.72 41.472 
" style="fill:none;stroke:#000000;stroke-linecap:square;stroke-linejoin:miter;stroke-width:0.8;"/>
   </g>
   <g id="patch_5">
    <path d="M 57.6 307.584 
L 414.72 307.584 
" style="fill:none;stroke:#000000;stroke-linecap:square;stroke-linejoin:miter;stroke-width:0.8;"/>
   </g>
   <g id="patch_6">
    <path d="M 57.6 41.472 
L 414.72 41.472 
" style="fill:none;stroke:#000000;stroke-linecap:square;stroke-linejoin:miter;stroke-width:0.8;"/>
   </g>
   <g id="text_14">
    <!-- Plot of Object pose error norm over a single episode  -->
    <g transform="translate(77.670938 8.59725)scale(0.12 -0.12)">
     <defs>
      <path d="M 19.671875 64.796875 
L 19.671875 37.40625 
L 32.078125 37.40625 
Q 38.96875 37.40625 42.71875 40.96875 
Q 46.484375 44.53125 46.484375 51.125 
Q 46.484375 57.671875 42.71875 61.234375 
Q 38.96875 64.796875 32.078125 64.796875 
z
M 9.8125 72.90625 
L 32.078125 72.90625 
Q 44.34375 72.90625 50.609375 67.359375 
Q 56.890625 61.8125 56.890625 51.125 
Q 56.890625 40.328125 50.609375 34.8125 
Q 44.34375 29.296875 32.078125 29.296875 
L 19.671875 29.296875 
L 19.671875 0 
L 9.8125 0 
z
" id="DejaVuSans-80"/>
      <path d="M 9.421875 75.984375 
L 18.40625 75.984375 
L 18.40625 0 
L 9.421875 0 
z
" id="DejaVuSans-108"/>
      <path id="DejaVuSans-32"/>
      <path d="M 37.109375 75.984375 
L 37.109375 68.5 
L 28.515625 68.5 
Q 23.6875 68.5 21.796875 66.546875 
Q 19.921875 64.59375 19.921875 59.515625 
L 19.921875 54.6875 
L 34.71875 54.6875 
L 34.71875 47.703125 
L 19.921875 47.703125 
L 19.921875 0 
L 10.890625 0 
L 10.890625 47.703125 
L 2.296875 47.703125 
L 2.296875 54.6875 
L 10.890625 54.6875 
L 10.890625 58.5 
Q 10.890625 67.625 15.140625 71.796875 
Q 19.390625 75.984375 28.609375 75.984375 
z
" id="DejaVuSans-102"/>
      <path d="M 48.78125 52.59375 
L 48.78125 44.1875 
Q 44.96875 46.296875 41.140625 47.34375 
Q 37.3125 48.390625 33.40625 48.390625 
Q 24.65625 48.390625 19.8125 42.84375 
Q 14.984375 37.3125 14.984375 27.296875 
Q 14.984375 17.28125 19.8125 11.734375 
Q 24.65625 6.203125 33.40625 6.203125 
Q 37.3125 6.203125 41.140625 7.25 
Q 44.96875 8.296875 48.78125 10.40625 
L 48.78125 2.09375 
Q 45.015625 0.34375 40.984375 -0.53125 
Q 36.96875 -1.421875 32.421875 -1.421875 
Q 20.0625 -1.421875 12.78125 6.34375 
Q 5.515625 14.109375 5.515625 27.296875 
Q 5.515625 40.671875 12.859375 48.328125 
Q 20.21875 56 33.015625 56 
Q 37.15625 56 41.109375 55.140625 
Q 45.0625 54.296875 48.78125 52.59375 
z
" id="DejaVuSans-99"/>
      <path d="M 2.984375 54.6875 
L 12.5 54.6875 
L 29.59375 8.796875 
L 46.6875 54.6875 
L 56.203125 54.6875 
L 35.6875 0 
L 23.484375 0 
z
" id="DejaVuSans-118"/>
      <path d="M 34.28125 27.484375 
Q 23.390625 27.484375 19.1875 25 
Q 14.984375 22.515625 14.984375 16.5 
Q 14.984375 11.71875 18.140625 8.90625 
Q 21.296875 6.109375 26.703125 6.109375 
Q 34.1875 6.109375 38.703125 11.40625 
Q 43.21875 16.703125 43.21875 25.484375 
L 43.21875 27.484375 
z
M 52.203125 31.203125 
L 52.203125 0 
L 43.21875 0 
L 43.21875 8.296875 
Q 40.140625 3.328125 35.546875 0.953125 
Q 30.953125 -1.421875 24.3125 -1.421875 
Q 15.921875 -1.421875 10.953125 3.296875 
Q 6 8.015625 6 15.921875 
Q 6 25.140625 12.171875 29.828125 
Q 18.359375 34.515625 30.609375 34.515625 
L 43.21875 34.515625 
L 43.21875 35.40625 
Q 43.21875 41.609375 39.140625 45 
Q 35.0625 48.390625 27.6875 48.390625 
Q 23 48.390625 18.546875 47.265625 
Q 14.109375 46.140625 10.015625 43.890625 
L 10.015625 52.203125 
Q 14.9375 54.109375 19.578125 55.046875 
Q 24.21875 56 28.609375 56 
Q 40.484375 56 46.34375 49.84375 
Q 52.203125 43.703125 52.203125 31.203125 
z
" id="DejaVuSans-97"/>
      <path d="M 45.40625 27.984375 
Q 45.40625 37.75 41.375 43.109375 
Q 37.359375 48.484375 30.078125 48.484375 
Q 22.859375 48.484375 18.828125 43.109375 
Q 14.796875 37.75 14.796875 27.984375 
Q 14.796875 18.265625 18.828125 12.890625 
Q 22.859375 7.515625 30.078125 7.515625 
Q 37.359375 7.515625 41.375 12.890625 
Q 45.40625 18.265625 45.40625 27.984375 
z
M 54.390625 6.78125 
Q 54.390625 -7.171875 48.1875 -13.984375 
Q 42 -20.796875 29.203125 -20.796875 
Q 24.46875 -20.796875 20.265625 -20.09375 
Q 16.0625 -19.390625 12.109375 -17.921875 
L 12.109375 -9.1875 
Q 16.0625 -11.328125 19.921875 -12.34375 
Q 23.78125 -13.375 27.78125 -13.375 
Q 36.625 -13.375 41.015625 -8.765625 
Q 45.40625 -4.15625 45.40625 5.171875 
L 45.40625 9.625 
Q 42.625 4.78125 38.28125 2.390625 
Q 33.9375 0 27.875 0 
Q 17.828125 0 11.671875 7.65625 
Q 5.515625 15.328125 5.515625 27.984375 
Q 5.515625 40.671875 11.671875 48.328125 
Q 17.828125 56 27.875 56 
Q 33.9375 56 38.28125 53.609375 
Q 42.625 51.21875 45.40625 46.390625 
L 45.40625 54.6875 
L 54.390625 54.6875 
z
" id="DejaVuSans-103"/>
      <path d="M 45.40625 46.390625 
L 45.40625 75.984375 
L 54.390625 75.984375 
L 54.390625 0 
L 45.40625 0 
L 45.40625 8.203125 
Q 42.578125 3.328125 38.25 0.953125 
Q 33.9375 -1.421875 27.875 -1.421875 
Q 17.96875 -1.421875 11.734375 6.484375 
Q 5.515625 14.40625 5.515625 27.296875 
Q 5.515625 40.1875 11.734375 48.09375 
Q 17.96875 56 27.875 56 
Q 33.9375 56 38.25 53.625 
Q 42.578125 51.265625 45.40625 46.390625 
z
M 14.796875 27.296875 
Q 14.796875 17.390625 18.875 11.75 
Q 22.953125 6.109375 30.078125 6.109375 
Q 37.203125 6.109375 41.296875 11.75 
Q 45.40625 17.390625 45.40625 27.296875 
Q 45.40625 37.203125 41.296875 42.84375 
Q 37.203125 48.484375 30.078125 48.484375 
Q 22.953125 48.484375 18.875 42.84375 
Q 14.796875 37.203125 14.796875 27.296875 
z
" id="DejaVuSans-100"/>
     </defs>
     <use xlink:href="#DejaVuSans-80"/>
     <use x="60.302734" xlink:href="#DejaVuSans-108"/>
     <use x="88.085938" xlink:href="#DejaVuSans-111"/>
     <use x="149.267578" xlink:href="#DejaVuSans-116"/>
     <use x="188.476562" xlink:href="#DejaVuSans-32"/>
     <use x="220.263672" xlink:href="#DejaVuSans-111"/>
     <use x="281.445312" xlink:href="#DejaVuSans-102"/>
     <use x="316.650391" xlink:href="#DejaVuSans-32"/>
     <use x="348.4375" xlink:href="#DejaVuSans-79"/>
     <use x="427.148438" xlink:href="#DejaVuSans-98"/>
     <use x="490.625" xlink:href="#DejaVuSans-106"/>
     <use x="518.408203" xlink:href="#DejaVuSans-101"/>
     <use x="579.931641" xlink:href="#DejaVuSans-99"/>
     <use x="634.912109" xlink:href="#DejaVuSans-116"/>
     <use x="674.121094" xlink:href="#DejaVuSans-32"/>
     <use x="705.908203" xlink:href="#DejaVuSans-112"/>
     <use x="769.384766" xlink:href="#DejaVuSans-111"/>
     <use x="830.566406" xlink:href="#DejaVuSans-115"/>
     <use x="882.666016" xlink:href="#DejaVuSans-101"/>
     <use x="944.189453" xlink:href="#DejaVuSans-32"/>
     <use x="975.976562" xlink:href="#DejaVuSans-101"/>
     <use x="1037.5" xlink:href="#DejaVuSans-114"/>
     <use x="1076.863281" xlink:href="#DejaVuSans-114"/>
     <use x="1115.726562" xlink:href="#DejaVuSans-111"/>
     <use x="1176.908203" xlink:href="#DejaVuSans-114"/>
     <use x="1218.021484" xlink:href="#DejaVuSans-32"/>
     <use x="1249.808594" xlink:href="#DejaVuSans-110"/>
     <use x="1313.1875" xlink:href="#DejaVuSans-111"/>
     <use x="1374.369141" xlink:href="#DejaVuSans-114"/>
     <use x="1413.732422" xlink:href="#DejaVuSans-109"/>
     <use x="1511.144531" xlink:href="#DejaVuSans-32"/>
     <use x="1542.931641" xlink:href="#DejaVuSans-111"/>
     <use x="1604.113281" xlink:href="#DejaVuSans-118"/>
     <use x="1663.292969" xlink:href="#DejaVuSans-101"/>
     <use x="1724.816406" xlink:href="#DejaVuSans-114"/>
     <use x="1765.929688" xlink:href="#DejaVuSans-32"/>
     <use x="1797.716797" xlink:href="#DejaVuSans-97"/>
     <use x="1858.996094" xlink:href="#DejaVuSans-32"/>
     <use x="1890.783203" xlink:href="#DejaVuSans-115"/>
     <use x="1942.882812" xlink:href="#DejaVuSans-105"/>
     <use x="1970.666016" xlink:href="#DejaVuSans-110"/>
     <use x="2034.044922" xlink:href="#DejaVuSans-103"/>
     <use x="2097.521484" xlink:href="#DejaVuSans-108"/>
     <use x="2125.304688" xlink:href="#DejaVuSans-101"/>
     <use x="2186.828125" xlink:href="#DejaVuSans-32"/>
     <use x="2218.615234" xlink:href="#DejaVuSans-101"/>
     <use x="2280.138672" xlink:href="#DejaVuSans-112"/>
     <use x="2343.615234" xlink:href="#DejaVuSans-105"/>
     <use x="2371.398438" xlink:href="#DejaVuSans-115"/>
     <use x="2423.498047" xlink:href="#DejaVuSans-111"/>
     <use x="2484.679688" xlink:href="#DejaVuSans-100"/>
     <use x="2548.15625" xlink:href="#DejaVuSans-101"/>
     <use x="2609.679688" xlink:href="#DejaVuSans-32"/>
    </g>
    <!--  Avg object pose error norm: Residual RL = 0.361, Standard = 0.284,  -->
    <g transform="translate(26.875313 22.034625)scale(0.12 -0.12)">
     <defs>
      <path d="M 34.1875 63.1875 
L 20.796875 26.90625 
L 47.609375 26.90625 
z
M 28.609375 72.90625 
L 39.796875 72.90625 
L 67.578125 0 
L 57.328125 0 
L 50.6875 18.703125 
L 17.828125 18.703125 
L 11.1875 0 
L 0.78125 0 
z
" id="DejaVuSans-65"/>
      <path d="M 11.71875 12.40625 
L 22.015625 12.40625 
L 22.015625 0 
L 11.71875 0 
z
M 11.71875 51.703125 
L 22.015625 51.703125 
L 22.015625 39.3125 
L 11.71875 39.3125 
z
" id="DejaVuSans-58"/>
      <path d="M 44.390625 34.1875 
Q 47.5625 33.109375 50.5625 29.59375 
Q 53.5625 26.078125 56.59375 19.921875 
L 66.609375 0 
L 56 0 
L 46.6875 18.703125 
Q 43.0625 26.03125 39.671875 28.421875 
Q 36.28125 30.8125 30.421875 30.8125 
L 19.671875 30.8125 
L 19.671875 0 
L 9.8125 0 
L 9.8125 72.90625 
L 32.078125 72.90625 
Q 44.578125 72.90625 50.734375 67.671875 
Q 56.890625 62.453125 56.890625 51.90625 
Q 56.890625 45.015625 53.6875 40.46875 
Q 50.484375 35.9375 44.390625 34.1875 
z
M 19.671875 64.796875 
L 19.671875 38.921875 
L 32.078125 38.921875 
Q 39.203125 38.921875 42.84375 42.21875 
Q 46.484375 45.515625 46.484375 51.90625 
Q 46.484375 58.296875 42.84375 61.546875 
Q 39.203125 64.796875 32.078125 64.796875 
z
" id="DejaVuSans-82"/>
      <path d="M 9.8125 72.90625 
L 19.671875 72.90625 
L 19.671875 8.296875 
L 55.171875 8.296875 
L 55.171875 0 
L 9.8125 0 
z
" id="DejaVuSans-76"/>
      <path d="M 10.59375 45.40625 
L 73.1875 45.40625 
L 73.1875 37.203125 
L 10.59375 37.203125 
z
M 10.59375 25.484375 
L 73.1875 25.484375 
L 73.1875 17.1875 
L 10.59375 17.1875 
z
" id="DejaVuSans-61"/>
      <path d="M 40.578125 39.3125 
Q 47.65625 37.796875 51.625 33 
Q 55.609375 28.21875 55.609375 21.1875 
Q 55.609375 10.40625 48.1875 4.484375 
Q 40.765625 -1.421875 27.09375 -1.421875 
Q 22.515625 -1.421875 17.65625 -0.515625 
Q 12.796875 0.390625 7.625 2.203125 
L 7.625 11.71875 
Q 11.71875 9.328125 16.59375 8.109375 
Q 21.484375 6.890625 26.8125 6.890625 
Q 36.078125 6.890625 40.9375 10.546875 
Q 45.796875 14.203125 45.796875 21.1875 
Q 45.796875 27.640625 41.28125 31.265625 
Q 36.765625 34.90625 28.71875 34.90625 
L 20.21875 34.90625 
L 20.21875 43.015625 
L 29.109375 43.015625 
Q 36.375 43.015625 40.234375 45.921875 
Q 44.09375 48.828125 44.09375 54.296875 
Q 44.09375 59.90625 40.109375 62.90625 
Q 36.140625 65.921875 28.71875 65.921875 
Q 24.65625 65.921875 20.015625 65.03125 
Q 15.375 64.15625 9.8125 62.3125 
L 9.8125 71.09375 
Q 15.4375 72.65625 20.34375 73.4375 
Q 25.25 74.21875 29.59375 74.21875 
Q 40.828125 74.21875 47.359375 69.109375 
Q 53.90625 64.015625 53.90625 55.328125 
Q 53.90625 49.265625 50.4375 45.09375 
Q 46.96875 40.921875 40.578125 39.3125 
z
" id="DejaVuSans-51"/>
      <path d="M 11.71875 12.40625 
L 22.015625 12.40625 
L 22.015625 4 
L 14.015625 -11.625 
L 7.71875 -11.625 
L 11.71875 4 
z
" id="DejaVuSans-44"/>
      <path d="M 53.515625 70.515625 
L 53.515625 60.890625 
Q 47.90625 63.578125 42.921875 64.890625 
Q 37.9375 66.21875 33.296875 66.21875 
Q 25.25 66.21875 20.875 63.09375 
Q 16.5 59.96875 16.5 54.203125 
Q 16.5 49.359375 19.40625 46.890625 
Q 22.3125 44.4375 30.421875 42.921875 
L 36.375 41.703125 
Q 47.40625 39.59375 52.65625 34.296875 
Q 57.90625 29 57.90625 20.125 
Q 57.90625 9.515625 50.796875 4.046875 
Q 43.703125 -1.421875 29.984375 -1.421875 
Q 24.8125 -1.421875 18.96875 -0.25 
Q 13.140625 0.921875 6.890625 3.21875 
L 6.890625 13.375 
Q 12.890625 10.015625 18.65625 8.296875 
Q 24.421875 6.59375 29.984375 6.59375 
Q 38.421875 6.59375 43.015625 9.90625 
Q 47.609375 13.234375 47.609375 19.390625 
Q 47.609375 24.75 44.3125 27.78125 
Q 41.015625 30.8125 33.5 32.328125 
L 27.484375 33.5 
Q 16.453125 35.6875 11.515625 40.375 
Q 6.59375 45.0625 6.59375 53.421875 
Q 6.59375 63.09375 13.40625 68.65625 
Q 20.21875 74.21875 32.171875 74.21875 
Q 37.3125 74.21875 42.625 73.28125 
Q 47.953125 72.359375 53.515625 70.515625 
z
" id="DejaVuSans-83"/>
     </defs>
     <use xlink:href="#DejaVuSans-32"/>
     <use x="31.787109" xlink:href="#DejaVuSans-65"/>
     <use x="94.320312" xlink:href="#DejaVuSans-118"/>
     <use x="153.5" xlink:href="#DejaVuSans-103"/>
     <use x="216.976562" xlink:href="#DejaVuSans-32"/>
     <use x="248.763672" xlink:href="#DejaVuSans-111"/>
     <use x="309.945312" xlink:href="#DejaVuSans-98"/>
     <use x="373.421875" xlink:href="#DejaVuSans-106"/>
     <use x="401.205078" xlink:href="#DejaVuSans-101"/>
     <use x="462.728516" xlink:href="#DejaVuSans-99"/>
     <use x="517.708984" xlink:href="#DejaVuSans-116"/>
     <use x="556.917969" xlink:href="#DejaVuSans-32"/>
     <use x="588.705078" xlink:href="#DejaVuSans-112"/>
     <use x="652.181641" xlink:href="#DejaVuSans-111"/>
     <use x="713.363281" xlink:href="#DejaVuSans-115"/>
     <use x="765.462891" xlink:href="#DejaVuSans-101"/>
     <use x="826.986328" xlink:href="#DejaVuSans-32"/>
     <use x="858.773438" xlink:href="#DejaVuSans-101"/>
     <use x="920.296875" xlink:href="#DejaVuSans-114"/>
     <use x="959.660156" xlink:href="#DejaVuSans-114"/>
     <use x="998.523438" xlink:href="#DejaVuSans-111"/>
     <use x="1059.705078" xlink:href="#DejaVuSans-114"/>
     <use x="1100.818359" xlink:href="#DejaVuSans-32"/>
     <use x="1132.605469" xlink:href="#DejaVuSans-110"/>
     <use x="1195.984375" xlink:href="#DejaVuSans-111"/>
     <use x="1257.166016" xlink:href="#DejaVuSans-114"/>
     <use x="1296.529297" xlink:href="#DejaVuSans-109"/>
     <use x="1393.941406" xlink:href="#DejaVuSans-58"/>
     <use x="1427.632812" xlink:href="#DejaVuSans-32"/>
     <use x="1459.419922" xlink:href="#DejaVuSans-82"/>
     <use x="1524.402344" xlink:href="#DejaVuSans-101"/>
     <use x="1585.925781" xlink:href="#DejaVuSans-115"/>
     <use x="1638.025391" xlink:href="#DejaVuSans-105"/>
     <use x="1665.808594" xlink:href="#DejaVuSans-100"/>
     <use x="1729.285156" xlink:href="#DejaVuSans-117"/>
     <use x="1792.664062" xlink:href="#DejaVuSans-97"/>
     <use x="1853.943359" xlink:href="#DejaVuSans-108"/>
     <use x="1881.726562" xlink:href="#DejaVuSans-32"/>
     <use x="1913.513672" xlink:href="#DejaVuSans-82"/>
     <use x="1982.996094" xlink:href="#DejaVuSans-76"/>
     <use x="2038.708984" xlink:href="#DejaVuSans-32"/>
     <use x="2070.496094" xlink:href="#DejaVuSans-61"/>
     <use x="2154.285156" xlink:href="#DejaVuSans-32"/>
     <use x="2186.072266" xlink:href="#DejaVuSans-48"/>
     <use x="2249.695312" xlink:href="#DejaVuSans-46"/>
     <use x="2281.482422" xlink:href="#DejaVuSans-51"/>
     <use x="2345.105469" xlink:href="#DejaVuSans-54"/>
     <use x="2408.728516" xlink:href="#DejaVuSans-49"/>
     <use x="2472.351562" xlink:href="#DejaVuSans-44"/>
     <use x="2504.138672" xlink:href="#DejaVuSans-32"/>
     <use x="2535.925781" xlink:href="#DejaVuSans-83"/>
     <use x="2599.402344" xlink:href="#DejaVuSans-116"/>
     <use x="2638.611328" xlink:href="#DejaVuSans-97"/>
     <use x="2699.890625" xlink:href="#DejaVuSans-110"/>
     <use x="2763.269531" xlink:href="#DejaVuSans-100"/>
     <use x="2826.746094" xlink:href="#DejaVuSans-97"/>
     <use x="2888.025391" xlink:href="#DejaVuSans-114"/>
     <use x="2927.388672" xlink:href="#DejaVuSans-100"/>
     <use x="2990.865234" xlink:href="#DejaVuSans-32"/>
     <use x="3022.652344" xlink:href="#DejaVuSans-61"/>
     <use x="3106.441406" xlink:href="#DejaVuSans-32"/>
     <use x="3138.228516" xlink:href="#DejaVuSans-48"/>
     <use x="3201.851562" xlink:href="#DejaVuSans-46"/>
     <use x="3233.638672" xlink:href="#DejaVuSans-50"/>
     <use x="3297.261719" xlink:href="#DejaVuSans-56"/>
     <use x="3360.884766" xlink:href="#DejaVuSans-52"/>
     <use x="3424.507812" xlink:href="#DejaVuSans-44"/>
     <use x="3456.294922" xlink:href="#DejaVuSans-32"/>
    </g>
    <!--  Baseline = 0.178 -->
    <g transform="translate(182.795625 35.472)scale(0.12 -0.12)">
     <defs>
      <path d="M 19.671875 34.8125 
L 19.671875 8.109375 
L 35.5 8.109375 
Q 43.453125 8.109375 47.28125 11.40625 
Q 51.125 14.703125 51.125 21.484375 
Q 51.125 28.328125 47.28125 31.5625 
Q 43.453125 34.8125 35.5 34.8125 
z
M 19.671875 64.796875 
L 19.671875 42.828125 
L 34.28125 42.828125 
Q 41.5 42.828125 45.03125 45.53125 
Q 48.578125 48.25 48.578125 53.8125 
Q 48.578125 59.328125 45.03125 62.0625 
Q 41.5 64.796875 34.28125 64.796875 
z
M 9.8125 72.90625 
L 35.015625 72.90625 
Q 46.296875 72.90625 52.390625 68.21875 
Q 58.5 63.53125 58.5 54.890625 
Q 58.5 48.1875 55.375 44.234375 
Q 52.25 40.28125 46.1875 39.3125 
Q 53.46875 37.75 57.5 32.78125 
Q 61.53125 27.828125 61.53125 20.40625 
Q 61.53125 10.640625 54.890625 5.3125 
Q 48.25 0 35.984375 0 
L 9.8125 0 
z
" id="DejaVuSans-66"/>
      <path d="M 8.203125 72.90625 
L 55.078125 72.90625 
L 55.078125 68.703125 
L 28.609375 0 
L 18.3125 0 
L 43.21875 64.59375 
L 8.203125 64.59375 
z
" id="DejaVuSans-55"/>
     </defs>
     <use xlink:href="#DejaVuSans-32"/>
     <use x="31.787109" xlink:href="#DejaVuSans-66"/>
     <use x="100.390625" xlink:href="#DejaVuSans-97"/>
     <use x="161.669922" xlink:href="#DejaVuSans-115"/>
     <use x="213.769531" xlink:href="#DejaVuSans-101"/>
     <use x="275.292969" xlink:href="#DejaVuSans-108"/>
     <use x="303.076172" xlink:href="#DejaVuSans-105"/>
     <use x="330.859375" xlink:href="#DejaVuSans-110"/>
     <use x="394.238281" xlink:href="#DejaVuSans-101"/>
     <use x="455.761719" xlink:href="#DejaVuSans-32"/>
     <use x="487.548828" xlink:href="#DejaVuSans-61"/>
     <use x="571.337891" xlink:href="#DejaVuSans-32"/>
     <use x="603.125" xlink:href="#DejaVuSans-48"/>
     <use x="666.748047" xlink:href="#DejaVuSans-46"/>
     <use x="698.535156" xlink:href="#DejaVuSans-49"/>
     <use x="762.158203" xlink:href="#DejaVuSans-55"/>
     <use x="825.78125" xlink:href="#DejaVuSans-56"/>
    </g>
   </g>
   <g id="legend_1">
    <g id="patch_7">
     <path d="M 64.6 93.506375 
L 154.529687 93.506375 
Q 156.529687 93.506375 156.529687 91.506375 
L 156.529687 48.472 
Q 156.529687 46.472 154.529687 46.472 
L 64.6 46.472 
Q 62.6 46.472 62.6 48.472 
L 62.6 91.506375 
Q 62.6 93.506375 64.6 93.506375 
z
" style="fill:#ffffff;opacity:0.8;stroke:#cccccc;stroke-linejoin:miter;"/>
    </g>
    <g id="line2d_15">
     <path d="M 66.6 54.570438 
L 86.6 54.570438 
" style="fill:none;stroke:#1f77b4;stroke-linecap:square;stroke-width:1.5;"/>
    </g>
    <g id="line2d_16"/>
    <g id="text_15">
     <!-- Residual RL -->
     <g transform="translate(94.6 58.070438)scale(0.1 -0.1)">
      <use xlink:href="#DejaVuSans-82"/>
      <use x="64.982422" xlink:href="#DejaVuSans-101"/>
      <use x="126.505859" xlink:href="#DejaVuSans-115"/>
      <use x="178.605469" xlink:href="#DejaVuSans-105"/>
      <use x="206.388672" xlink:href="#DejaVuSans-100"/>
      <use x="269.865234" xlink:href="#DejaVuSans-117"/>
      <use x="333.244141" xlink:href="#DejaVuSans-97"/>
      <use x="394.523438" xlink:href="#DejaVuSans-108"/>
      <use x="422.306641" xlink:href="#DejaVuSans-32"/>
      <use x="454.09375" xlink:href="#DejaVuSans-82"/>
      <use x="523.576172" xlink:href="#DejaVuSans-76"/>
     </g>
    </g>
    <g id="line2d_17">
     <path d="M 66.6 69.248563 
L 86.6 69.248563 
" style="fill:none;stroke:#ff7f0e;stroke-linecap:square;stroke-width:1.5;"/>
    </g>
    <g id="line2d_18"/>
    <g id="text_16">
     <!-- Standard -->
     <g transform="translate(94.6 72.748563)scale(0.1 -0.1)">
      <use xlink:href="#DejaVuSans-83"/>
      <use x="63.476562" xlink:href="#DejaVuSans-116"/>
      <use x="102.685547" xlink:href="#DejaVuSans-97"/>
      <use x="163.964844" xlink:href="#DejaVuSans-110"/>
      <use x="227.34375" xlink:href="#DejaVuSans-100"/>
      <use x="290.820312" xlink:href="#DejaVuSans-97"/>
      <use x="352.099609" xlink:href="#DejaVuSans-114"/>
      <use x="391.462891" xlink:href="#DejaVuSans-100"/>
     </g>
    </g>
    <g id="line2d_19">
     <path d="M 66.6 83.926688 
L 86.6 83.926688 
" style="fill:none;stroke:#bf00bf;stroke-linecap:square;stroke-width:1.5;"/>
    </g>
    <g id="line2d_20"/>
    <g id="text_17">
     <!-- Baseline -->
     <g transform="translate(94.6 87.426688)scale(0.1 -0.1)">
      <use xlink:href="#DejaVuSans-66"/>
      <use x="68.603516" xlink:href="#DejaVuSans-97"/>
      <use x="129.882812" xlink:href="#DejaVuSans-115"/>
      <use x="181.982422" xlink:href="#DejaVuSans-101"/>
      <use x="243.505859" xlink:href="#DejaVuSans-108"/>
      <use x="271.289062" xlink:href="#DejaVuSans-105"/>
      <use x="299.072266" xlink:href="#DejaVuSans-110"/>
      <use x="362.451172" xlink:href="#DejaVuSans-101"/>
     </g>
    </g>
   </g>
  </g>
 </g>
 <defs>
  <clipPath id="pe93ed4d5ac">
   <rect height="266.112" width="357.12" x="57.6" y="41.472"/>
  </clipPath>
 </defs>
</svg>
