<?xml version="1.0" encoding="utf-8" standalone="no"?>
<!DOCTYPE svg PUBLIC "-//W3C//DTD SVG 1.1//EN"
  "http://www.w3.org/Graphics/SVG/1.1/DTD/svg11.dtd">
<!-- Created with matplotlib (https://matplotlib.org/) -->
<svg height="345.6pt" version="1.1" viewBox="0 0 460.8 345.6" width="460.8pt" xmlns="http://www.w3.org/2000/svg" xmlns:xlink="http://www.w3.org/1999/xlink">
 <metadata>
  <rdf:RDF xmlns:cc="http://creativecommons.org/ns#" xmlns:dc="http://purl.org/dc/elements/1.1/" xmlns:rdf="http://www.w3.org/1999/02/22-rdf-syntax-ns#">
   <cc:Work>
    <dc:type rdf:resource="http://purl.org/dc/dcmitype/StillImage"/>
    <dc:date>2022-07-21T18:31:39.925634</dc:date>
    <dc:format>image/svg+xml</dc:format>
    <dc:creator>
     <cc:Agent>
      <dc:title>Matplotlib v3.3.4, https://matplotlib.org/</dc:title>
     </cc:Agent>
    </dc:creator>
   </cc:Work>
  </rdf:RDF>
 </metadata>
 <defs>
  <style type="text/css">*{stroke-linecap:butt;stroke-linejoin:round;}</style>
 </defs>
 <g id="figure_1">
  <g id="patch_1">
   <path d="M 0 345.6 
L 460.8 345.6 
L 460.8 0 
L 0 0 
z
" style="fill:#ffffff;"/>
  </g>
  <g id="axes_1">
   <g id="patch_2">
    <path d="M 57.6 307.584 
L 414.72 307.584 
L 414.72 41.472 
L 57.6 41.472 
z
" style="fill:#ffffff;"/>
   </g>
   <g id="matplotlib.axis_1">
    <g id="xtick_1">
     <g id="line2d_1">
      <defs>
       <path d="M 0 0 
L 0 3.5 
" id="m48fc783f0f" style="stroke:#000000;stroke-width:0.8;"/>
      </defs>
      <g>
       <use style="stroke:#000000;stroke-width:0.8;" x="73.832727" xlink:href="#m48fc783f0f" y="307.584"/>
      </g>
     </g>
     <g id="text_1">
      <!-- 0 -->
      <g transform="translate(70.651477 322.182437)scale(0.1 -0.1)">
       <defs>
        <path d="M 31.78125 66.40625 
Q 24.171875 66.40625 20.328125 58.90625 
Q 16.5 51.421875 16.5 36.375 
Q 16.5 21.390625 20.328125 13.890625 
Q 24.171875 6.390625 31.78125 6.390625 
Q 39.453125 6.390625 43.28125 13.890625 
Q 47.125 21.390625 47.125 36.375 
Q 47.125 51.421875 43.28125 58.90625 
Q 39.453125 66.40625 31.78125 66.40625 
z
M 31.78125 74.21875 
Q 44.046875 74.21875 50.515625 64.515625 
Q 56.984375 54.828125 56.984375 36.375 
Q 56.984375 17.96875 50.515625 8.265625 
Q 44.046875 -1.421875 31.78125 -1.421875 
Q 19.53125 -1.421875 13.0625 8.265625 
Q 6.59375 17.96875 6.59375 36.375 
Q 6.59375 54.828125 13.0625 64.515625 
Q 19.53125 74.21875 31.78125 74.21875 
z
" id="DejaVuSans-48"/>
       </defs>
       <use xlink:href="#DejaVuSans-48"/>
      </g>
     </g>
    </g>
    <g id="xtick_2">
     <g id="line2d_2">
      <g>
       <use style="stroke:#000000;stroke-width:0.8;" x="138.763636" xlink:href="#m48fc783f0f" y="307.584"/>
      </g>
     </g>
     <g id="text_2">
      <!-- 2000 -->
      <g transform="translate(126.038636 322.182437)scale(0.1 -0.1)">
       <defs>
        <path d="M 19.1875 8.296875 
L 53.609375 8.296875 
L 53.609375 0 
L 7.328125 0 
L 7.328125 8.296875 
Q 12.9375 14.109375 22.625 23.890625 
Q 32.328125 33.6875 34.8125 36.53125 
Q 39.546875 41.84375 41.421875 45.53125 
Q 43.3125 49.21875 43.3125 52.78125 
Q 43.3125 58.59375 39.234375 62.25 
Q 35.15625 65.921875 28.609375 65.921875 
Q 23.96875 65.921875 18.8125 64.3125 
Q 13.671875 62.703125 7.8125 59.421875 
L 7.8125 69.390625 
Q 13.765625 71.78125 18.9375 73 
Q 24.125 74.21875 28.421875 74.21875 
Q 39.75 74.21875 46.484375 68.546875 
Q 53.21875 62.890625 53.21875 53.421875 
Q 53.21875 48.921875 51.53125 44.890625 
Q 49.859375 40.875 45.40625 35.40625 
Q 44.1875 33.984375 37.640625 27.21875 
Q 31.109375 20.453125 19.1875 8.296875 
z
" id="DejaVuSans-50"/>
       </defs>
       <use xlink:href="#DejaVuSans-50"/>
       <use x="63.623047" xlink:href="#DejaVuSans-48"/>
       <use x="127.246094" xlink:href="#DejaVuSans-48"/>
       <use x="190.869141" xlink:href="#DejaVuSans-48"/>
      </g>
     </g>
    </g>
    <g id="xtick_3">
     <g id="line2d_3">
      <g>
       <use style="stroke:#000000;stroke-width:0.8;" x="203.694545" xlink:href="#m48fc783f0f" y="307.584"/>
      </g>
     </g>
     <g id="text_3">
      <!-- 4000 -->
      <g transform="translate(190.969545 322.182437)scale(0.1 -0.1)">
       <defs>
        <path d="M 37.796875 64.3125 
L 12.890625 25.390625 
L 37.796875 25.390625 
z
M 35.203125 72.90625 
L 47.609375 72.90625 
L 47.609375 25.390625 
L 58.015625 25.390625 
L 58.015625 17.1875 
L 47.609375 17.1875 
L 47.609375 0 
L 37.796875 0 
L 37.796875 17.1875 
L 4.890625 17.1875 
L 4.890625 26.703125 
z
" id="DejaVuSans-52"/>
       </defs>
       <use xlink:href="#DejaVuSans-52"/>
       <use x="63.623047" xlink:href="#DejaVuSans-48"/>
       <use x="127.246094" xlink:href="#DejaVuSans-48"/>
       <use x="190.869141" xlink:href="#DejaVuSans-48"/>
      </g>
     </g>
    </g>
    <g id="xtick_4">
     <g id="line2d_4">
      <g>
       <use style="stroke:#000000;stroke-width:0.8;" x="268.625455" xlink:href="#m48fc783f0f" y="307.584"/>
      </g>
     </g>
     <g id="text_4">
      <!-- 6000 -->
      <g transform="translate(255.900455 322.182437)scale(0.1 -0.1)">
       <defs>
        <path d="M 33.015625 40.375 
Q 26.375 40.375 22.484375 35.828125 
Q 18.609375 31.296875 18.609375 23.390625 
Q 18.609375 15.53125 22.484375 10.953125 
Q 26.375 6.390625 33.015625 6.390625 
Q 39.65625 6.390625 43.53125 10.953125 
Q 47.40625 15.53125 47.40625 23.390625 
Q 47.40625 31.296875 43.53125 35.828125 
Q 39.65625 40.375 33.015625 40.375 
z
M 52.59375 71.296875 
L 52.59375 62.3125 
Q 48.875 64.0625 45.09375 64.984375 
Q 41.3125 65.921875 37.59375 65.921875 
Q 27.828125 65.921875 22.671875 59.328125 
Q 17.53125 52.734375 16.796875 39.40625 
Q 19.671875 43.65625 24.015625 45.921875 
Q 28.375 48.1875 33.59375 48.1875 
Q 44.578125 48.1875 50.953125 41.515625 
Q 57.328125 34.859375 57.328125 23.390625 
Q 57.328125 12.15625 50.6875 5.359375 
Q 44.046875 -1.421875 33.015625 -1.421875 
Q 20.359375 -1.421875 13.671875 8.265625 
Q 6.984375 17.96875 6.984375 36.375 
Q 6.984375 53.65625 15.1875 63.9375 
Q 23.390625 74.21875 37.203125 74.21875 
Q 40.921875 74.21875 44.703125 73.484375 
Q 48.484375 72.75 52.59375 71.296875 
z
" id="DejaVuSans-54"/>
       </defs>
       <use xlink:href="#DejaVuSans-54"/>
       <use x="63.623047" xlink:href="#DejaVuSans-48"/>
       <use x="127.246094" xlink:href="#DejaVuSans-48"/>
       <use x="190.869141" xlink:href="#DejaVuSans-48"/>
      </g>
     </g>
    </g>
    <g id="xtick_5">
     <g id="line2d_5">
      <g>
       <use style="stroke:#000000;stroke-width:0.8;" x="333.556364" xlink:href="#m48fc783f0f" y="307.584"/>
      </g>
     </g>
     <g id="text_5">
      <!-- 8000 -->
      <g transform="translate(320.831364 322.182437)scale(0.1 -0.1)">
       <defs>
        <path d="M 31.78125 34.625 
Q 24.75 34.625 20.71875 30.859375 
Q 16.703125 27.09375 16.703125 20.515625 
Q 16.703125 13.921875 20.71875 10.15625 
Q 24.75 6.390625 31.78125 6.390625 
Q 38.8125 6.390625 42.859375 10.171875 
Q 46.921875 13.96875 46.921875 20.515625 
Q 46.921875 27.09375 42.890625 30.859375 
Q 38.875 34.625 31.78125 34.625 
z
M 21.921875 38.8125 
Q 15.578125 40.375 12.03125 44.71875 
Q 8.5 49.078125 8.5 55.328125 
Q 8.5 64.0625 14.71875 69.140625 
Q 20.953125 74.21875 31.78125 74.21875 
Q 42.671875 74.21875 48.875 69.140625 
Q 55.078125 64.0625 55.078125 55.328125 
Q 55.078125 49.078125 51.53125 44.71875 
Q 48 40.375 41.703125 38.8125 
Q 48.828125 37.15625 52.796875 32.3125 
Q 56.78125 27.484375 56.78125 20.515625 
Q 56.78125 9.90625 50.3125 4.234375 
Q 43.84375 -1.421875 31.78125 -1.421875 
Q 19.734375 -1.421875 13.25 4.234375 
Q 6.78125 9.90625 6.78125 20.515625 
Q 6.78125 27.484375 10.78125 32.3125 
Q 14.796875 37.15625 21.921875 38.8125 
z
M 18.3125 54.390625 
Q 18.3125 48.734375 21.84375 45.5625 
Q 25.390625 42.390625 31.78125 42.390625 
Q 38.140625 42.390625 41.71875 45.5625 
Q 45.3125 48.734375 45.3125 54.390625 
Q 45.3125 60.0625 41.71875 63.234375 
Q 38.140625 66.40625 31.78125 66.40625 
Q 25.390625 66.40625 21.84375 63.234375 
Q 18.3125 60.0625 18.3125 54.390625 
z
" id="DejaVuSans-56"/>
       </defs>
       <use xlink:href="#DejaVuSans-56"/>
       <use x="63.623047" xlink:href="#DejaVuSans-48"/>
       <use x="127.246094" xlink:href="#DejaVuSans-48"/>
       <use x="190.869141" xlink:href="#DejaVuSans-48"/>
      </g>
     </g>
    </g>
    <g id="xtick_6">
     <g id="line2d_6">
      <g>
       <use style="stroke:#000000;stroke-width:0.8;" x="398.487273" xlink:href="#m48fc783f0f" y="307.584"/>
      </g>
     </g>
     <g id="text_6">
      <!-- 10000 -->
      <g transform="translate(382.581023 322.182437)scale(0.1 -0.1)">
       <defs>
        <path d="M 12.40625 8.296875 
L 28.515625 8.296875 
L 28.515625 63.921875 
L 10.984375 60.40625 
L 10.984375 69.390625 
L 28.421875 72.90625 
L 38.28125 72.90625 
L 38.28125 8.296875 
L 54.390625 8.296875 
L 54.390625 0 
L 12.40625 0 
z
" id="DejaVuSans-49"/>
       </defs>
       <use xlink:href="#DejaVuSans-49"/>
       <use x="63.623047" xlink:href="#DejaVuSans-48"/>
       <use x="127.246094" xlink:href="#DejaVuSans-48"/>
       <use x="190.869141" xlink:href="#DejaVuSans-48"/>
       <use x="254.492188" xlink:href="#DejaVuSans-48"/>
      </g>
     </g>
    </g>
    <g id="text_7">
     <!-- Num-time-steps -->
     <g transform="translate(196.056094 335.860562)scale(0.1 -0.1)">
      <defs>
       <path d="M 9.8125 72.90625 
L 23.09375 72.90625 
L 55.421875 11.921875 
L 55.421875 72.90625 
L 64.984375 72.90625 
L 64.984375 0 
L 51.703125 0 
L 19.390625 60.984375 
L 19.390625 0 
L 9.8125 0 
z
" id="DejaVuSans-78"/>
       <path d="M 8.5 21.578125 
L 8.5 54.6875 
L 17.484375 54.6875 
L 17.484375 21.921875 
Q 17.484375 14.15625 20.5 10.265625 
Q 23.53125 6.390625 29.59375 6.390625 
Q 36.859375 6.390625 41.078125 11.03125 
Q 45.3125 15.671875 45.3125 23.6875 
L 45.3125 54.6875 
L 54.296875 54.6875 
L 54.296875 0 
L 45.3125 0 
L 45.3125 8.40625 
Q 42.046875 3.421875 37.71875 1 
Q 33.40625 -1.421875 27.6875 -1.421875 
Q 18.265625 -1.421875 13.375 4.4375 
Q 8.5 10.296875 8.5 21.578125 
z
M 31.109375 56 
z
" id="DejaVuSans-117"/>
       <path d="M 52 44.1875 
Q 55.375 50.25 60.0625 53.125 
Q 64.75 56 71.09375 56 
Q 79.640625 56 84.28125 50.015625 
Q 88.921875 44.046875 88.921875 33.015625 
L 88.921875 0 
L 79.890625 0 
L 79.890625 32.71875 
Q 79.890625 40.578125 77.09375 44.375 
Q 74.3125 48.1875 68.609375 48.1875 
Q 61.625 48.1875 57.5625 43.546875 
Q 53.515625 38.921875 53.515625 30.90625 
L 53.515625 0 
L 44.484375 0 
L 44.484375 32.71875 
Q 44.484375 40.625 41.703125 44.40625 
Q 38.921875 48.1875 33.109375 48.1875 
Q 26.21875 48.1875 22.15625 43.53125 
Q 18.109375 38.875 18.109375 30.90625 
L 18.109375 0 
L 9.078125 0 
L 9.078125 54.6875 
L 18.109375 54.6875 
L 18.109375 46.1875 
Q 21.1875 51.21875 25.484375 53.609375 
Q 29.78125 56 35.6875 56 
Q 41.65625 56 45.828125 52.96875 
Q 50 49.953125 52 44.1875 
z
" id="DejaVuSans-109"/>
       <path d="M 4.890625 31.390625 
L 31.203125 31.390625 
L 31.203125 23.390625 
L 4.890625 23.390625 
z
" id="DejaVuSans-45"/>
       <path d="M 18.3125 70.21875 
L 18.3125 54.6875 
L 36.8125 54.6875 
L 36.8125 47.703125 
L 18.3125 47.703125 
L 18.3125 18.015625 
Q 18.3125 11.328125 20.140625 9.421875 
Q 21.96875 7.515625 27.59375 7.515625 
L 36.8125 7.515625 
L 36.8125 0 
L 27.59375 0 
Q 17.1875 0 13.234375 3.875 
Q 9.28125 7.765625 9.28125 18.015625 
L 9.28125 47.703125 
L 2.6875 47.703125 
L 2.6875 54.6875 
L 9.28125 54.6875 
L 9.28125 70.21875 
z
" id="DejaVuSans-116"/>
       <path d="M 9.421875 54.6875 
L 18.40625 54.6875 
L 18.40625 0 
L 9.421875 0 
z
M 9.421875 75.984375 
L 18.40625 75.984375 
L 18.40625 64.59375 
L 9.421875 64.59375 
z
" id="DejaVuSans-105"/>
       <path d="M 56.203125 29.59375 
L 56.203125 25.203125 
L 14.890625 25.203125 
Q 15.484375 15.921875 20.484375 11.0625 
Q 25.484375 6.203125 34.421875 6.203125 
Q 39.59375 6.203125 44.453125 7.46875 
Q 49.3125 8.734375 54.109375 11.28125 
L 54.109375 2.78125 
Q 49.265625 0.734375 44.1875 -0.34375 
Q 39.109375 -1.421875 33.890625 -1.421875 
Q 20.796875 -1.421875 13.15625 6.1875 
Q 5.515625 13.8125 5.515625 26.8125 
Q 5.515625 40.234375 12.765625 48.109375 
Q 20.015625 56 32.328125 56 
Q 43.359375 56 49.78125 48.890625 
Q 56.203125 41.796875 56.203125 29.59375 
z
M 47.21875 32.234375 
Q 47.125 39.59375 43.09375 43.984375 
Q 39.0625 48.390625 32.421875 48.390625 
Q 24.90625 48.390625 20.390625 44.140625 
Q 15.875 39.890625 15.1875 32.171875 
z
" id="DejaVuSans-101"/>
       <path d="M 44.28125 53.078125 
L 44.28125 44.578125 
Q 40.484375 46.53125 36.375 47.5 
Q 32.28125 48.484375 27.875 48.484375 
Q 21.1875 48.484375 17.84375 46.4375 
Q 14.5 44.390625 14.5 40.28125 
Q 14.5 37.15625 16.890625 35.375 
Q 19.28125 33.59375 26.515625 31.984375 
L 29.59375 31.296875 
Q 39.15625 29.25 43.1875 25.515625 
Q 47.21875 21.78125 47.21875 15.09375 
Q 47.21875 7.46875 41.1875 3.015625 
Q 35.15625 -1.421875 24.609375 -1.421875 
Q 20.21875 -1.421875 15.453125 -0.5625 
Q 10.6875 0.296875 5.421875 2 
L 5.421875 11.28125 
Q 10.40625 8.6875 15.234375 7.390625 
Q 20.0625 6.109375 24.8125 6.109375 
Q 31.15625 6.109375 34.5625 8.28125 
Q 37.984375 10.453125 37.984375 14.40625 
Q 37.984375 18.0625 35.515625 20.015625 
Q 33.0625 21.96875 24.703125 23.78125 
L 21.578125 24.515625 
Q 13.234375 26.265625 9.515625 29.90625 
Q 5.8125 33.546875 5.8125 39.890625 
Q 5.8125 47.609375 11.28125 51.796875 
Q 16.75 56 26.8125 56 
Q 31.78125 56 36.171875 55.265625 
Q 40.578125 54.546875 44.28125 53.078125 
z
" id="DejaVuSans-115"/>
       <path d="M 18.109375 8.203125 
L 18.109375 -20.796875 
L 9.078125 -20.796875 
L 9.078125 54.6875 
L 18.109375 54.6875 
L 18.109375 46.390625 
Q 20.953125 51.265625 25.265625 53.625 
Q 29.59375 56 35.59375 56 
Q 45.5625 56 51.78125 48.09375 
Q 58.015625 40.1875 58.015625 27.296875 
Q 58.015625 14.40625 51.78125 6.484375 
Q 45.5625 -1.421875 35.59375 -1.421875 
Q 29.59375 -1.421875 25.265625 0.953125 
Q 20.953125 3.328125 18.109375 8.203125 
z
M 48.6875 27.296875 
Q 48.6875 37.203125 44.609375 42.84375 
Q 40.53125 48.484375 33.40625 48.484375 
Q 26.265625 48.484375 22.1875 42.84375 
Q 18.109375 37.203125 18.109375 27.296875 
Q 18.109375 17.390625 22.1875 11.75 
Q 26.265625 6.109375 33.40625 6.109375 
Q 40.53125 6.109375 44.609375 11.75 
Q 48.6875 17.390625 48.6875 27.296875 
z
" id="DejaVuSans-112"/>
      </defs>
      <use xlink:href="#DejaVuSans-78"/>
      <use x="74.804688" xlink:href="#DejaVuSans-117"/>
      <use x="138.183594" xlink:href="#DejaVuSans-109"/>
      <use x="235.595703" xlink:href="#DejaVuSans-45"/>
      <use x="271.679688" xlink:href="#DejaVuSans-116"/>
      <use x="310.888672" xlink:href="#DejaVuSans-105"/>
      <use x="338.671875" xlink:href="#DejaVuSans-109"/>
      <use x="436.083984" xlink:href="#DejaVuSans-101"/>
      <use x="497.607422" xlink:href="#DejaVuSans-45"/>
      <use x="533.691406" xlink:href="#DejaVuSans-115"/>
      <use x="585.791016" xlink:href="#DejaVuSans-116"/>
      <use x="625" xlink:href="#DejaVuSans-101"/>
      <use x="686.523438" xlink:href="#DejaVuSans-112"/>
      <use x="750" xlink:href="#DejaVuSans-115"/>
     </g>
    </g>
   </g>
   <g id="matplotlib.axis_2">
    <g id="ytick_1">
     <g id="line2d_7">
      <defs>
       <path d="M 0 0 
L -3.5 0 
" id="m4062ffa20f" style="stroke:#000000;stroke-width:0.8;"/>
      </defs>
      <g>
       <use style="stroke:#000000;stroke-width:0.8;" x="57.6" xlink:href="#m4062ffa20f" y="303.304325"/>
      </g>
     </g>
     <g id="text_8">
      <!-- 0.0 -->
      <g transform="translate(34.696875 307.103544)scale(0.1 -0.1)">
       <defs>
        <path d="M 10.6875 12.40625 
L 21 12.40625 
L 21 0 
L 10.6875 0 
z
" id="DejaVuSans-46"/>
       </defs>
       <use xlink:href="#DejaVuSans-48"/>
       <use x="63.623047" xlink:href="#DejaVuSans-46"/>
       <use x="95.410156" xlink:href="#DejaVuSans-48"/>
      </g>
     </g>
    </g>
    <g id="ytick_2">
     <g id="line2d_8">
      <g>
       <use style="stroke:#000000;stroke-width:0.8;" x="57.6" xlink:href="#m4062ffa20f" y="264.279504"/>
      </g>
     </g>
     <g id="text_9">
      <!-- 0.1 -->
      <g transform="translate(34.696875 268.078723)scale(0.1 -0.1)">
       <use xlink:href="#DejaVuSans-48"/>
       <use x="63.623047" xlink:href="#DejaVuSans-46"/>
       <use x="95.410156" xlink:href="#DejaVuSans-49"/>
      </g>
     </g>
    </g>
    <g id="ytick_3">
     <g id="line2d_9">
      <g>
       <use style="stroke:#000000;stroke-width:0.8;" x="57.6" xlink:href="#m4062ffa20f" y="225.254684"/>
      </g>
     </g>
     <g id="text_10">
      <!-- 0.2 -->
      <g transform="translate(34.696875 229.053902)scale(0.1 -0.1)">
       <use xlink:href="#DejaVuSans-48"/>
       <use x="63.623047" xlink:href="#DejaVuSans-46"/>
       <use x="95.410156" xlink:href="#DejaVuSans-50"/>
      </g>
     </g>
    </g>
    <g id="ytick_4">
     <g id="line2d_10">
      <g>
       <use style="stroke:#000000;stroke-width:0.8;" x="57.6" xlink:href="#m4062ffa20f" y="186.229863"/>
      </g>
     </g>
     <g id="text_11">
      <!-- 0.3 -->
      <g transform="translate(34.696875 190.029082)scale(0.1 -0.1)">
       <defs>
        <path d="M 40.578125 39.3125 
Q 47.65625 37.796875 51.625 33 
Q 55.609375 28.21875 55.609375 21.1875 
Q 55.609375 10.40625 48.1875 4.484375 
Q 40.765625 -1.421875 27.09375 -1.421875 
Q 22.515625 -1.421875 17.65625 -0.515625 
Q 12.796875 0.390625 7.625 2.203125 
L 7.625 11.71875 
Q 11.71875 9.328125 16.59375 8.109375 
Q 21.484375 6.890625 26.8125 6.890625 
Q 36.078125 6.890625 40.9375 10.546875 
Q 45.796875 14.203125 45.796875 21.1875 
Q 45.796875 27.640625 41.28125 31.265625 
Q 36.765625 34.90625 28.71875 34.90625 
L 20.21875 34.90625 
L 20.21875 43.015625 
L 29.109375 43.015625 
Q 36.375 43.015625 40.234375 45.921875 
Q 44.09375 48.828125 44.09375 54.296875 
Q 44.09375 59.90625 40.109375 62.90625 
Q 36.140625 65.921875 28.71875 65.921875 
Q 24.65625 65.921875 20.015625 65.03125 
Q 15.375 64.15625 9.8125 62.3125 
L 9.8125 71.09375 
Q 15.4375 72.65625 20.34375 73.4375 
Q 25.25 74.21875 29.59375 74.21875 
Q 40.828125 74.21875 47.359375 69.109375 
Q 53.90625 64.015625 53.90625 55.328125 
Q 53.90625 49.265625 50.4375 45.09375 
Q 46.96875 40.921875 40.578125 39.3125 
z
" id="DejaVuSans-51"/>
       </defs>
       <use xlink:href="#DejaVuSans-48"/>
       <use x="63.623047" xlink:href="#DejaVuSans-46"/>
       <use x="95.410156" xlink:href="#DejaVuSans-51"/>
      </g>
     </g>
    </g>
    <g id="ytick_5">
     <g id="line2d_11">
      <g>
       <use style="stroke:#000000;stroke-width:0.8;" x="57.6" xlink:href="#m4062ffa20f" y="147.205042"/>
      </g>
     </g>
     <g id="text_12">
      <!-- 0.4 -->
      <g transform="translate(34.696875 151.004261)scale(0.1 -0.1)">
       <use xlink:href="#DejaVuSans-48"/>
       <use x="63.623047" xlink:href="#DejaVuSans-46"/>
       <use x="95.410156" xlink:href="#DejaVuSans-52"/>
      </g>
     </g>
    </g>
    <g id="ytick_6">
     <g id="line2d_12">
      <g>
       <use style="stroke:#000000;stroke-width:0.8;" x="57.6" xlink:href="#m4062ffa20f" y="108.180222"/>
      </g>
     </g>
     <g id="text_13">
      <!-- 0.5 -->
      <g transform="translate(34.696875 111.97944)scale(0.1 -0.1)">
       <defs>
        <path d="M 10.796875 72.90625 
L 49.515625 72.90625 
L 49.515625 64.59375 
L 19.828125 64.59375 
L 19.828125 46.734375 
Q 21.96875 47.46875 24.109375 47.828125 
Q 26.265625 48.1875 28.421875 48.1875 
Q 40.625 48.1875 47.75 41.5 
Q 54.890625 34.8125 54.890625 23.390625 
Q 54.890625 11.625 47.5625 5.09375 
Q 40.234375 -1.421875 26.90625 -1.421875 
Q 22.3125 -1.421875 17.546875 -0.640625 
Q 12.796875 0.140625 7.71875 1.703125 
L 7.71875 11.625 
Q 12.109375 9.234375 16.796875 8.0625 
Q 21.484375 6.890625 26.703125 6.890625 
Q 35.15625 6.890625 40.078125 11.328125 
Q 45.015625 15.765625 45.015625 23.390625 
Q 45.015625 31 40.078125 35.4375 
Q 35.15625 39.890625 26.703125 39.890625 
Q 22.75 39.890625 18.8125 39.015625 
Q 14.890625 38.140625 10.796875 36.28125 
z
" id="DejaVuSans-53"/>
       </defs>
       <use xlink:href="#DejaVuSans-48"/>
       <use x="63.623047" xlink:href="#DejaVuSans-46"/>
       <use x="95.410156" xlink:href="#DejaVuSans-53"/>
      </g>
     </g>
    </g>
    <g id="ytick_7">
     <g id="line2d_13">
      <g>
       <use style="stroke:#000000;stroke-width:0.8;" x="57.6" xlink:href="#m4062ffa20f" y="69.155401"/>
      </g>
     </g>
     <g id="text_14">
      <!-- 0.6 -->
      <g transform="translate(34.696875 72.95462)scale(0.1 -0.1)">
       <use xlink:href="#DejaVuSans-48"/>
       <use x="63.623047" xlink:href="#DejaVuSans-46"/>
       <use x="95.410156" xlink:href="#DejaVuSans-54"/>
      </g>
     </g>
    </g>
    <g id="text_15">
     <!-- Obj-pose-error-norm -->
     <g transform="translate(28.617187 225.203781)rotate(-90)scale(0.1 -0.1)">
      <defs>
       <path d="M 39.40625 66.21875 
Q 28.65625 66.21875 22.328125 58.203125 
Q 16.015625 50.203125 16.015625 36.375 
Q 16.015625 22.609375 22.328125 14.59375 
Q 28.65625 6.59375 39.40625 6.59375 
Q 50.140625 6.59375 56.421875 14.59375 
Q 62.703125 22.609375 62.703125 36.375 
Q 62.703125 50.203125 56.421875 58.203125 
Q 50.140625 66.21875 39.40625 66.21875 
z
M 39.40625 74.21875 
Q 54.734375 74.21875 63.90625 63.9375 
Q 73.09375 53.65625 73.09375 36.375 
Q 73.09375 19.140625 63.90625 8.859375 
Q 54.734375 -1.421875 39.40625 -1.421875 
Q 24.03125 -1.421875 14.8125 8.828125 
Q 5.609375 19.09375 5.609375 36.375 
Q 5.609375 53.65625 14.8125 63.9375 
Q 24.03125 74.21875 39.40625 74.21875 
z
" id="DejaVuSans-79"/>
       <path d="M 48.6875 27.296875 
Q 48.6875 37.203125 44.609375 42.84375 
Q 40.53125 48.484375 33.40625 48.484375 
Q 26.265625 48.484375 22.1875 42.84375 
Q 18.109375 37.203125 18.109375 27.296875 
Q 18.109375 17.390625 22.1875 11.75 
Q 26.265625 6.109375 33.40625 6.109375 
Q 40.53125 6.109375 44.609375 11.75 
Q 48.6875 17.390625 48.6875 27.296875 
z
M 18.109375 46.390625 
Q 20.953125 51.265625 25.265625 53.625 
Q 29.59375 56 35.59375 56 
Q 45.5625 56 51.78125 48.09375 
Q 58.015625 40.1875 58.015625 27.296875 
Q 58.015625 14.40625 51.78125 6.484375 
Q 45.5625 -1.421875 35.59375 -1.421875 
Q 29.59375 -1.421875 25.265625 0.953125 
Q 20.953125 3.328125 18.109375 8.203125 
L 18.109375 0 
L 9.078125 0 
L 9.078125 75.984375 
L 18.109375 75.984375 
z
" id="DejaVuSans-98"/>
       <path d="M 9.421875 54.6875 
L 18.40625 54.6875 
L 18.40625 -0.984375 
Q 18.40625 -11.421875 14.421875 -16.109375 
Q 10.453125 -20.796875 1.609375 -20.796875 
L -1.8125 -20.796875 
L -1.8125 -13.1875 
L 0.59375 -13.1875 
Q 5.71875 -13.1875 7.5625 -10.8125 
Q 9.421875 -8.453125 9.421875 -0.984375 
z
M 9.421875 75.984375 
L 18.40625 75.984375 
L 18.40625 64.59375 
L 9.421875 64.59375 
z
" id="DejaVuSans-106"/>
       <path d="M 30.609375 48.390625 
Q 23.390625 48.390625 19.1875 42.75 
Q 14.984375 37.109375 14.984375 27.296875 
Q 14.984375 17.484375 19.15625 11.84375 
Q 23.34375 6.203125 30.609375 6.203125 
Q 37.796875 6.203125 41.984375 11.859375 
Q 46.1875 17.53125 46.1875 27.296875 
Q 46.1875 37.015625 41.984375 42.703125 
Q 37.796875 48.390625 30.609375 48.390625 
z
M 30.609375 56 
Q 42.328125 56 49.015625 48.375 
Q 55.71875 40.765625 55.71875 27.296875 
Q 55.71875 13.875 49.015625 6.21875 
Q 42.328125 -1.421875 30.609375 -1.421875 
Q 18.84375 -1.421875 12.171875 6.21875 
Q 5.515625 13.875 5.515625 27.296875 
Q 5.515625 40.765625 12.171875 48.375 
Q 18.84375 56 30.609375 56 
z
" id="DejaVuSans-111"/>
       <path d="M 41.109375 46.296875 
Q 39.59375 47.171875 37.8125 47.578125 
Q 36.03125 48 33.890625 48 
Q 26.265625 48 22.1875 43.046875 
Q 18.109375 38.09375 18.109375 28.8125 
L 18.109375 0 
L 9.078125 0 
L 9.078125 54.6875 
L 18.109375 54.6875 
L 18.109375 46.1875 
Q 20.953125 51.171875 25.484375 53.578125 
Q 30.03125 56 36.53125 56 
Q 37.453125 56 38.578125 55.875 
Q 39.703125 55.765625 41.0625 55.515625 
z
" id="DejaVuSans-114"/>
       <path d="M 54.890625 33.015625 
L 54.890625 0 
L 45.90625 0 
L 45.90625 32.71875 
Q 45.90625 40.484375 42.875 44.328125 
Q 39.84375 48.1875 33.796875 48.1875 
Q 26.515625 48.1875 22.3125 43.546875 
Q 18.109375 38.921875 18.109375 30.90625 
L 18.109375 0 
L 9.078125 0 
L 9.078125 54.6875 
L 18.109375 54.6875 
L 18.109375 46.1875 
Q 21.34375 51.125 25.703125 53.5625 
Q 30.078125 56 35.796875 56 
Q 45.21875 56 50.046875 50.171875 
Q 54.890625 44.34375 54.890625 33.015625 
z
" id="DejaVuSans-110"/>
      </defs>
      <use xlink:href="#DejaVuSans-79"/>
      <use x="78.710938" xlink:href="#DejaVuSans-98"/>
      <use x="142.1875" xlink:href="#DejaVuSans-106"/>
      <use x="169.970703" xlink:href="#DejaVuSans-45"/>
      <use x="206.054688" xlink:href="#DejaVuSans-112"/>
      <use x="269.53125" xlink:href="#DejaVuSans-111"/>
      <use x="330.712891" xlink:href="#DejaVuSans-115"/>
      <use x="382.8125" xlink:href="#DejaVuSans-101"/>
      <use x="444.335938" xlink:href="#DejaVuSans-45"/>
      <use x="480.419922" xlink:href="#DejaVuSans-101"/>
      <use x="541.943359" xlink:href="#DejaVuSans-114"/>
      <use x="581.306641" xlink:href="#DejaVuSans-114"/>
      <use x="620.169922" xlink:href="#DejaVuSans-111"/>
      <use x="681.351562" xlink:href="#DejaVuSans-114"/>
      <use x="716.089844" xlink:href="#DejaVuSans-45"/>
      <use x="752.173828" xlink:href="#DejaVuSans-110"/>
      <use x="815.552734" xlink:href="#DejaVuSans-111"/>
      <use x="876.734375" xlink:href="#DejaVuSans-114"/>
      <use x="916.097656" xlink:href="#DejaVuSans-109"/>
     </g>
    </g>
   </g>
   <g id="line2d_14">
    <path clip-path="url(#p96003e60e7)" d="M 73.832727 295.254582 
L 73.865193 295.485597 
L 74.02752 279.839012 
L 74.319709 254.770984 
L 74.546967 294.472509 
L 74.579433 292.674996 
L 74.644364 282.888422 
L 74.676829 288.024778 
L 74.806691 293.614742 
L 74.839156 293.668483 
L 74.936553 292.369322 
L 75.391069 279.096024 
L 76.007913 264.53452 
L 77.890909 225.587879 
L 78.864873 215.683271 
L 79.773905 202.611558 
L 80.260887 198.632675 
L 81.559505 191.155415 
L 82.111418 187.965628 
L 83.020451 185.092282 
L 83.994415 182.930555 
L 84.319069 182.255564 
L 85.130705 181.582182 
L 85.163171 181.621226 
L 85.422895 182.124225 
L 85.682618 182.432529 
L 86.039738 182.421328 
L 86.364393 182.397966 
L 86.88384 182.246039 
L 87.111098 182.452538 
L 87.403287 182.647854 
L 87.630545 182.719558 
L 87.760407 182.646845 
L 88.247389 182.220379 
L 88.442182 182.263653 
L 88.831767 182.260536 
L 89.02656 182.121851 
L 89.188887 182.053072 
L 89.773265 182.230657 
L 90.487505 181.26906 
L 90.682298 181.106711 
L 90.909556 181.142234 
L 91.429004 181.531915 
L 91.721193 182.108516 
L 91.915985 182.203594 
L 92.825018 181.676861 
L 93.66912 180.07205 
L 93.896378 180.016432 
L 93.928844 179.942025 
L 94.02624 179.992692 
L 94.188567 180.133303 
L 94.448291 180.344968 
L 94.902807 180.401825 
L 95.422255 180.682471 
L 95.746909 180.539546 
L 96.298822 179.797841 
L 96.558545 179.588114 
L 97.305251 179.245206 
L 97.694836 179.094627 
L 97.922095 179.129899 
L 98.344145 179.206307 
L 98.636335 179.095319 
L 99.512902 178.193177 
L 99.772625 178.514661 
L 100.162211 179.023454 
L 100.843985 179.729408 
L 101.266036 180.220344 
L 102.532189 181.665063 
L 102.726982 181.883335 
L 103.960669 183.240304 
L 104.122996 182.964525 
L 104.350255 182.898201 
L 104.804771 182.735699 
L 105.194356 182.908415 
L 105.45408 183.152736 
L 105.843665 183.606444 
L 106.979956 183.720579 
L 107.337076 184.113816 
L 107.759127 184.912138 
L 108.083782 185.386829 
L 108.505833 185.794738 
L 108.733091 185.653593 
L 109.122676 185.337246 
L 109.999244 186.17741 
L 110.226502 186.358885 
L 111.265396 186.515519 
L 111.590051 186.380659 
L 111.88224 186.43638 
L 112.23936 186.689244 
L 112.466618 186.691708 
L 112.726342 186.044497 
L 113.018531 185.405739 
L 113.343185 185.233619 
L 113.700305 185.101821 
L 113.732771 185.576051 
L 113.797702 185.157988 
L 114.219753 184.773057 
L 114.284684 184.860766 
L 114.317149 185.187998 
L 114.414545 185.079655 
L 114.511942 185.489806 
L 114.869062 187.046965 
L 114.966458 187.089501 
L 114.998924 187.039861 
L 115.161251 186.509305 
L 115.713164 183.921914 
L 115.745629 184.503514 
L 115.778095 183.925143 
L 116.005353 182.600864 
L 116.102749 182.638315 
L 116.232611 183.196843 
L 116.849455 186.231769 
L 116.88192 186.225214 
L 117.011782 186.076182 
L 117.271505 185.198954 
L 117.628625 184.454253 
L 118.050676 183.905545 
L 118.375331 184.011326 
L 118.602589 183.71708 
L 118.927244 183.260512 
L 119.511622 182.974317 
L 119.771345 182.486083 
L 119.966138 181.590728 
L 120.290793 180.112903 
L 120.45312 180.067622 
L 121.16736 180.258202 
L 121.52448 180.698571 
L 122.303651 179.794548 
L 123.050356 178.352665 
L 123.212684 178.28739 
L 123.342545 178.266112 
L 123.472407 178.265268 
L 123.6672 178.367924 
L 123.991855 177.890822 
L 124.219113 177.706718 
L 124.251578 177.901797 
L 124.316509 177.736704 
L 124.446371 177.799049 
L 124.576233 178.060038 
L 124.771025 178.240629 
L 124.803491 178.214881 
L 125.063215 178.123957 
L 125.387869 177.735415 
L 125.777455 177.094635 
L 125.874851 177.273774 
L 125.939782 177.368155 
L 126.459229 178.437641 
L 126.913745 178.94032 
L 127.141004 178.976888 
L 127.368262 178.935213 
L 127.563055 178.679682 
L 127.725382 178.635016 
L 128.082502 178.799868 
L 128.504553 179.369935 
L 128.731811 179.312764 
L 129.024 179.174174 
L 129.121396 179.0573 
L 129.640844 177.999589 
L 129.900567 177.923278 
L 130.160291 178.009081 
L 130.225222 178.119691 
L 130.290153 178.088099 
L 130.8096 177.724377 
L 131.329047 176.947908 
L 131.361513 176.976241 
L 131.556305 177.188241 
L 131.88096 177.448096 
L 132.010822 177.443686 
L 132.270545 177.303654 
L 132.530269 177.101097 
L 132.562735 177.162443 
L 133.179578 178.058587 
L 133.406836 178.038983 
L 133.828887 178.099155 
L 134.153542 178.130742 
L 134.705455 177.490735 
L 134.965178 177.433574 
L 135.159971 177.496551 
L 135.257367 177.643353 
L 135.582022 178.530636 
L 135.874211 178.358729 
L 137.140364 176.200958 
L 137.270225 176.21521 
L 137.302691 176.033082 
L 137.367622 176.189012 
L 137.59488 176.382981 
L 137.887069 176.552693 
L 138.081862 176.476915 
L 138.114327 176.440577 
L 138.146793 176.524095 
L 138.601309 177.427953 
L 138.893498 177.36236 
L 138.958429 177.273901 
L 139.445411 175.880394 
L 139.867462 175.5685 
L 139.964858 175.717039 
L 140.257047 176.308 
L 140.321978 176.263933 
L 140.549236 176.642272 
L 140.873891 176.536162 
L 141.101149 176.562335 
L 141.555665 176.525575 
L 141.847855 176.548618 
L 142.042647 176.591983 
L 142.367302 176.625851 
L 142.627025 176.993323 
L 142.919215 176.597376 
L 143.114007 176.396102 
L 143.211404 176.330026 
L 143.243869 176.13964 
L 143.3088 176.278396 
L 143.536058 176.502051 
L 143.925644 175.954764 
L 144.347695 177.1994 
L 144.834676 178.338954 
L 144.899607 178.284499 
L 145.289193 177.680544 
L 146.035898 176.299479 
L 146.068364 176.329555 
L 146.295622 176.947719 
L 146.912465 179.577453 
L 147.139724 179.375365 
L 147.172189 179.412172 
L 147.204655 179.326963 
L 147.626705 178.215273 
L 147.724102 178.316672 
L 147.886429 178.448924 
L 148.405876 180.300643 
L 148.438342 180.597195 
L 148.535738 180.479962 
L 148.600669 180.392007 
L 148.762996 180.725024 
L 148.795462 181.002388 
L 148.860393 180.852789 
L 149.055185 180.92909 
L 149.217513 180.977686 
L 149.249978 181.167966 
L 149.314909 180.909062 
L 149.574633 180.557565 
L 149.801891 180.642997 
L 150.029149 181.192193 
L 150.061615 181.083685 
L 150.09408 181.224711 
L 150.483665 181.955673 
L 151.132975 182.835408 
L 151.16544 182.664414 
L 151.197905 182.844561 
L 151.87968 184.957662 
L 151.944611 185.248116 
L 152.106938 185.144354 
L 152.366662 184.82252 
L 152.691316 185.090798 
L 152.918575 185.416107 
L 152.95104 185.335582 
L 153.015971 185.459735 
L 153.113367 185.598418 
L 153.145833 185.566809 
L 153.178298 185.45439 
L 153.210764 185.575886 
L 153.860073 187.637845 
L 154.152262 188.499838 
L 154.444451 188.326632 
L 154.769105 189.041482 
L 154.898967 188.957789 
L 155.678138 187.87215 
L 155.840465 187.953674 
L 156.489775 189.732235 
L 156.911825 190.659665 
L 157.204015 191.324117 
L 157.431273 191.56993 
L 157.561135 191.616137 
L 157.626065 191.624898 
L 157.658531 191.572942 
L 157.690996 191.560495 
L 157.788393 191.40584 
L 157.983185 191.628923 
L 158.210444 191.817481 
L 158.794822 193.167911 
L 159.054545 193.421825 
L 159.087011 193.414262 
L 159.963578 196.295151 
L 160.645353 197.332362 
L 161.554385 198.582505 
L 161.814109 199.575176 
L 162.59328 202.671285 
L 162.917935 202.93667 
L 163.404916 202.989045 
L 163.859433 203.867427 
L 164.281484 204.485603 
L 165.060655 205.88945 
L 165.45024 206.86124 
L 165.839825 207.237961 
L 166.132015 207.391398 
L 166.294342 207.266453 
L 166.5216 207.259558 
L 166.813789 207.488219 
L 167.430633 208.610736 
L 167.463098 208.568719 
L 168.177338 209.97102 
L 168.566924 210.767651 
L 168.891578 211.221526 
L 169.216233 211.363674 
L 169.703215 212.046127 
L 170.0928 212.508506 
L 170.320058 212.627734 
L 170.579782 212.732344 
L 170.839505 212.939478 
L 171.423884 213.838677 
L 173.079622 217.029045 
L 173.241949 217.03385 
L 173.469207 217.105921 
L 173.728931 216.783865 
L 173.988655 216.689942 
L 174.508102 217.329242 
L 174.832756 217.580856 
L 176.098909 219.028703 
L 176.813149 219.336547 
L 177.170269 219.61308 
L 177.365062 219.840339 
L 177.884509 220.649792 
L 178.014371 220.638471 
L 178.890938 220.394244 
L 179.799971 221.766779 
L 180.286953 221.982714 
L 180.773935 221.942515 
L 180.936262 222.05341 
L 181.325847 222.195626 
L 181.812829 222.740549 
L 182.267345 223.260528 
L 183.014051 223.405595 
L 183.338705 223.546682 
L 183.728291 223.712457 
L 184.994444 224.644831 
L 185.416495 224.727802 
L 186.325527 225.122992 
L 186.747578 224.940984 
L 186.974836 225.019122 
L 187.331956 225.420414 
L 187.656611 225.756469 
L 188.046196 225.789727 
L 189.085091 225.463392 
L 190.123985 226.545053 
L 190.44864 226.403987 
L 190.903156 226.196644 
L 191.227811 226.353058 
L 191.649862 226.417298 
L 192.039447 226.154731 
L 192.656291 225.597329 
L 192.980945 225.618218 
L 193.695185 225.790406 
L 195.253527 225.793251 
L 196.065164 225.915006 
L 196.941731 225.557047 
L 197.850764 225.144914 
L 198.467607 225.10189 
L 199.051985 224.833392 
L 199.474036 224.522634 
L 199.961018 224.287386 
L 200.512931 224.117989 
L 201.811549 224.089811 
L 203.337425 223.28591 
L 203.856873 222.70458 
L 204.311389 222.171506 
L 205.480145 221.165779 
L 205.869731 220.859303 
L 206.778764 220.25002 
L 207.038487 219.873718 
L 207.622865 218.935014 
L 208.012451 218.746272 
L 208.402036 218.620701 
L 209.603258 217.499741 
L 210.057775 217.308932 
L 210.285033 217.21974 
L 211.87584 215.934287 
L 214.278284 212.436905 
L 214.7328 211.827202 
L 215.349644 211.378783 
L 215.998953 210.393976 
L 216.16128 210.317129 
L 216.583331 209.81159 
L 216.843055 209.549338 
L 217.167709 209.269058 
L 218.531258 207.619948 
L 218.920844 207.409988 
L 219.277964 206.949947 
L 219.602618 206.591035 
L 219.894807 206.380865 
L 220.122065 206.305145 
L 220.414255 206.066053 
L 221.063564 205.184446 
L 221.680407 205.024055 
L 222.556975 203.816521 
L 222.979025 203.189951 
L 223.206284 203.099566 
L 223.823127 203.090694 
L 224.115316 203.14073 
L 224.602298 203.217581 
L 224.959418 202.85605 
L 225.251607 202.480418 
L 225.641193 202.083271 
L 226.485295 201.242958 
L 226.712553 201.010362 
L 227.069673 200.694929 
L 227.361862 200.610147 
L 227.524189 200.556749 
L 228.173498 200.028834 
L 228.530618 199.797689 
L 228.790342 199.702361 
L 229.244858 199.382691 
L 229.342255 199.336287 
L 229.634444 199.245271 
L 230.868131 198.719516 
L 232.199215 197.521692 
L 232.329076 197.517196 
L 232.686196 197.650179 
L 232.848524 197.716023 
L 234.049745 197.516996 
L 234.828916 196.233339 
L 235.218502 196.347895 
L 235.478225 196.691112 
L 236.322327 196.731004 
L 237.166429 195.997439 
L 237.58848 195.932914 
L 237.783273 195.875504 
L 238.205324 195.888033 
L 238.529978 195.746689 
L 238.757236 195.598592 
L 239.146822 195.430808 
L 239.37408 195.471282 
L 239.536407 195.500494 
L 239.7312 195.454483 
L 239.861062 195.523988 
L 240.055855 195.443193 
L 240.672698 194.951106 
L 241.094749 194.563417 
L 241.224611 194.569569 
L 241.711593 194.737089 
L 241.841455 194.627734 
L 242.101178 194.435394 
L 242.328436 194.275246 
L 242.458298 194.236957 
L 242.782953 194.052382 
L 243.042676 194.146916 
L 243.205004 194.128436 
L 243.334865 194.086087 
L 243.65952 193.74902 
L 243.854313 193.717342 
L 244.081571 193.75813 
L 244.276364 193.831533 
L 244.568553 193.935053 
L 244.763345 193.779264 
L 244.990604 193.669076 
L 245.315258 193.418446 
L 245.510051 193.344513 
L 245.997033 192.856042 
L 246.289222 192.445947 
L 246.451549 192.481985 
L 246.711273 192.438175 
L 246.8736 192.242436 
L 247.133324 192.050753 
L 247.620305 192.031292 
L 248.042356 192.214841 
L 248.724131 191.820939 
L 249.081251 191.507591 
L 250.152611 190.469202 
L 250.4448 190.193833 
L 251.483695 189.589954 
L 251.678487 189.351357 
L 251.743418 189.279723 
L 251.905745 189.230066 
L 252.003142 189.201682 
L 252.327796 188.917253 
L 252.425193 188.937816 
L 252.58752 189.007993 
L 252.684916 188.925143 
L 252.977105 188.671669 
L 253.074502 188.685334 
L 253.366691 188.273136 
L 253.593949 188.095351 
L 253.918604 187.778894 
L 253.951069 187.807898 
L 253.983535 187.756339 
L 254.340655 187.268897 
L 254.37312 187.292435 
L 254.470516 187.245573 
L 254.665309 186.960905 
L 254.697775 186.996542 
L 254.73024 186.93551 
L 254.892567 186.85379 
L 254.957498 186.743715 
L 255.217222 186.33353 
L 255.606807 185.805772 
L 255.671738 185.756478 
L 255.8016 185.70455 
L 256.126255 185.62429 
L 256.840495 185.331167 
L 257.424873 183.928414 
L 257.684596 183.800811 
L 257.814458 183.839954 
L 258.139113 183.998226 
L 258.333905 183.937698 
L 258.366371 184.020006 
L 258.431302 183.948256 
L 259.080611 183.449615 
L 259.113076 183.520261 
L 259.145542 183.436757 
L 260.314298 181.352951 
L 260.44416 181.281645 
L 260.996073 180.718573 
L 261.028538 180.755042 
L 261.677847 180.612353 
L 262.067433 179.918221 
L 262.489484 179.182041 
L 262.58688 179.069198 
L 263.430982 177.459005 
L 263.625775 177.420331 
L 263.820567 177.283288 
L 265.054255 175.035368 
L 265.313978 174.854499 
L 265.638633 174.675708 
L 266.223011 173.116758 
L 266.742458 171.832949 
L 267.424233 171.175491 
L 267.619025 170.955888 
L 267.94368 170.417971 
L 268.203404 169.782633 
L 269.566953 166.268136 
L 270.021469 164.686045 
L 270.411055 163.66411 
L 270.44352 163.677475 
L 270.703244 163.628549 
L 271.352553 162.7183 
L 272.261585 160.750893 
L 272.910895 159.514898 
L 273.268015 160.146765 
L 273.690065 161.317811 
L 273.949789 161.044019 
L 274.241978 160.213868 
L 274.599098 158.661536 
L 274.826356 158.4641 
L 275.248407 158.830661 
L 275.702924 157.419784 
L 275.962647 156.198828 
L 276.319767 154.519921 
L 276.644422 154.201171 
L 276.709353 154.172192 
L 276.904145 153.909473 
L 277.488524 153.241855 
L 277.94304 152.08508 
L 278.137833 152.001267 
L 278.235229 151.921054 
L 278.527418 151.018988 
L 278.722211 150.124051 
L 279.0144 148.941886 
L 279.144262 148.968941 
L 279.339055 149.408777 
L 279.533847 149.953822 
L 279.761105 149.708555 
L 280.44288 147.6119 
L 281.449309 143.88496 
L 281.838895 143.775126 
L 282.001222 143.615179 
L 282.033687 143.677385 
L 282.066153 143.753307 
L 282.131084 143.673527 
L 282.780393 142.314986 
L 283.429702 141.527319 
L 283.494633 141.708673 
L 283.981615 143.728395 
L 284.01408 143.812829 
L 284.079011 143.700989 
L 284.241338 142.873621 
L 284.598458 140.708095 
L 284.760785 140.478129 
L 284.988044 140.828395 
L 285.345164 141.760484 
L 285.410095 141.970301 
L 285.572422 142.176208 
L 285.637353 142.075246 
L 286.189265 140.933188 
L 286.351593 141.007835 
L 286.741178 141.919192 
L 286.773644 141.870742 
L 287.000902 141.490876 
L 287.390487 140.263571 
L 288.267055 138.705231 
L 288.29952 138.7401 
L 288.461847 138.668222 
L 288.754036 137.900901 
L 288.948829 138.20315 
L 289.500742 140.217883 
L 289.630604 140.147633 
L 289.922793 140.083012 
L 290.020189 140.079473 
L 290.182516 139.821741 
L 290.961687 137.896047 
L 291.15648 137.674567 
L 291.221411 137.781524 
L 291.610996 137.899681 
L 291.87072 137.624614 
L 291.935651 137.591437 
L 292.58496 136.474171 
L 292.747287 136.596185 
L 293.039476 137.04939 
L 293.071942 137.024127 
L 293.104407 137.08952 
L 293.266735 137.339646 
L 293.364131 137.296732 
L 293.396596 137.327912 
L 293.558924 137.461307 
L 293.591389 137.411252 
L 293.753716 137.423098 
L 294.01344 136.874999 
L 294.532887 135.423816 
L 294.630284 135.283304 
L 294.695215 135.313319 
L 294.890007 135.444006 
L 295.149731 136.408672 
L 295.279593 136.890543 
L 295.44192 137.008502 
L 295.701644 136.61005 
L 295.863971 136.146524 
L 296.058764 135.739906 
L 296.286022 135.823222 
L 296.545745 136.563408 
L 297.162589 139.210429 
L 297.292451 139.032335 
L 298.169018 135.570415 
L 298.396276 135.855977 
L 298.688465 136.557694 
L 299.72736 140.523693 
L 300.08448 139.302269 
L 300.279273 138.463576 
L 300.311738 138.497773 
L 300.4416 138.179889 
L 300.701324 137.716188 
L 300.831185 137.572504 
L 300.863651 137.633215 
L 300.928582 137.654316 
L 300.961047 137.323114 
L 300.993513 137.693414 
L 301.123375 138.151815 
L 301.253236 137.762138 
L 301.285702 137.898424 
L 301.415564 137.965781 
L 301.642822 137.552611 
L 301.772684 136.699767 
L 301.805149 136.99327 
L 301.935011 137.446619 
L 302.194735 138.68104 
L 302.2272 138.64043 
L 302.486924 138.024356 
L 302.519389 138.228145 
L 302.58432 137.980089 
L 302.649251 137.223358 
L 302.714182 137.634179 
L 303.038836 136.611928 
L 303.720611 133.624046 
L 303.785542 133.701259 
L 304.272524 134.236162 
L 304.434851 135.220848 
L 304.921833 140.613548 
L 304.954298 140.602779 
L 305.960727 128.863875 
L 306.15552 128.445889 
L 306.252916 128.558542 
L 306.577571 129.512817 
L 306.999622 130.984789 
L 307.097018 130.864742 
L 307.129484 130.89212 
L 307.584 131.576685 
L 308.168378 133.13491 
L 308.363171 133.203685 
L 308.557964 133.265421 
L 308.947549 132.886119 
L 309.077411 132.752841 
L 309.434531 132.093746 
L 309.564393 132.201856 
L 309.889047 132.997777 
L 310.213702 135.310909 
L 310.278633 135.712344 
L 310.311098 134.751512 
L 310.376029 135.467597 
L 310.570822 136.318612 
L 310.668218 136.30534 
L 311.122735 135.737642 
L 311.317527 135.618717 
L 311.479855 135.744076 
L 311.86944 136.621239 
L 312.096698 137.517991 
L 312.323956 138.72445 
L 312.356422 138.247945 
L 312.421353 138.761493 
L 312.681076 140.045971 
L 312.778473 140.247874 
L 312.810938 140.226489 
L 313.200524 139.593034 
L 313.232989 139.616979 
L 313.427782 140.150144 
L 313.719971 140.606394 
L 313.849833 140.626173 
L 314.174487 140.299558 
L 314.336815 140.685203 
L 314.7264 142.10887 
L 314.791331 142.394891 
L 314.856262 141.640545 
L 314.888727 142.127818 
L 315.44064 146.277846 
L 315.765295 147.422666 
L 315.830225 147.464614 
L 315.862691 147.404264 
L 316.512 146.105406 
L 316.641862 146.231696 
L 316.934051 147.102435 
L 317.291171 149.382555 
L 317.58336 150.760576 
L 317.778153 150.982785 
L 317.972945 150.714142 
L 318.232669 150.130057 
L 318.557324 149.390253 
L 318.65472 149.379734 
L 318.979375 150.28583 
L 319.823476 155.112501 
L 319.985804 155.086993 
L 320.245527 154.296786 
L 320.764975 153.000491 
L 321.057164 153.505091 
L 321.349353 155.054387 
L 321.706473 156.707137 
L 321.966196 157.002252 
L 322.096058 157.00702 
L 322.290851 157.402606 
L 322.745367 158.193436 
L 323.037556 157.894636 
L 323.070022 157.924854 
L 323.232349 158.17088 
L 323.492073 158.737504 
L 323.686865 158.994101 
L 323.719331 158.953123 
L 324.01152 158.883685 
L 324.238778 159.16328 
L 324.758225 160.164971 
L 324.953018 160.144374 
L 325.08288 160.322306 
L 325.44 160.966903 
L 325.634793 161.595269 
L 326.251636 163.841661 
L 326.381498 163.818104 
L 326.706153 163.368365 
L 327.128204 163.053665 
L 327.290531 163.15422 
L 327.517789 163.626123 
L 327.712582 164.003219 
L 327.745047 163.988133 
L 328.102167 163.978999 
L 328.232029 163.898759 
L 328.264495 163.928655 
L 328.589149 164.662039 
L 328.913804 165.426844 
L 329.238458 165.431468 
L 329.433251 165.60195 
L 329.985164 166.653574 
L 330.277353 166.428856 
L 330.569542 166.068516 
L 330.894196 165.239348 
L 331.413644 164.24909 
L 331.640902 163.985856 
L 331.705833 164.045738 
L 332.777193 165.647576 
L 332.907055 165.513432 
L 333.329105 165.023329 
L 333.361571 165.049543 
L 333.913484 165.50841 
L 334.173207 165.427839 
L 334.335535 165.461793 
L 334.530327 165.733132 
L 335.049775 166.818029 
L 335.08224 166.783295 
L 335.828945 165.84966 
L 336.121135 165.269456 
L 336.250996 165.405124 
L 336.51072 165.983129 
L 336.835375 166.588591 
L 337.062633 166.434669 
L 337.289891 165.801069 
L 337.809338 164.051151 
L 338.231389 162.928681 
L 338.458647 162.860058 
L 338.65344 162.790256 
L 338.880698 162.728058 
L 339.075491 162.630026 
L 339.237818 162.892369 
L 339.692335 163.534883 
L 339.887127 163.536627 
L 340.016989 163.235566 
L 340.666298 160.978548 
L 340.926022 160.754658 
L 341.055884 160.783676 
L 341.250676 160.852914 
L 341.413004 160.991035 
L 341.575331 160.999504 
L 341.705193 160.941728 
L 341.899985 160.589666 
L 342.354502 159.688154 
L 343.003811 157.867302 
L 343.263535 157.700736 
L 343.880378 157.273434 
L 344.399825 156.349552 
L 344.627084 155.930221 
L 344.951738 155.785405 
L 345.503651 156.354956 
L 345.730909 156.221006 
L 346.120495 156.265654 
L 346.315287 156.061329 
L 346.639942 155.366555 
L 346.8672 155.014419 
L 347.451578 154.714341 
L 348.003491 155.426722 
L 348.100887 155.385043 
L 348.425542 155.019946 
L 348.458007 155.049627 
L 348.750196 155.280751 
L 349.269644 154.941224 
L 349.496902 155.012621 
L 350.243607 154.084266 
L 350.633193 153.544967 
L 350.827985 153.827919 
L 351.574691 155.610024 
L 351.704553 155.659769 
L 351.737018 155.613392 
L 352.321396 154.769257 
L 352.548655 154.752519 
L 352.840844 155.435681 
L 353.197964 156.123732 
L 353.587549 156.036468 
L 354.431651 154.697345 
L 354.821236 154.689336 
L 355.7952 156.228342 
L 356.119855 156.776128 
L 356.15232 156.711476 
L 356.379578 155.963065 
L 357.028887 153.60911 
L 357.288611 153.34807 
L 357.418473 153.551159 
L 357.905455 154.434183 
L 358.327505 154.676849 
L 358.554764 155.137123 
L 358.814487 155.472225 
L 358.976815 155.392238 
L 359.463796 154.214332 
L 359.561193 154.151903 
L 359.691055 154.042001 
L 359.72352 154.061641 
L 359.950778 154.053015 
L 360.178036 153.850623 
L 360.600087 153.967418 
L 361.898705 154.341057 
L 362.288291 154.935476 
L 362.385687 154.805017 
L 362.515549 154.558391 
L 362.905135 153.697254 
L 363.229789 153.55421 
L 363.619375 153.742014 
L 363.846633 153.595342 
L 364.268684 153.218325 
L 364.625804 152.628998 
L 364.755665 152.581022 
L 364.885527 152.617901 
L 365.112785 153.192723 
L 365.340044 153.589228 
L 365.43744 153.522099 
L 365.891956 152.983923 
L 366.768524 152.276422 
L 367.125644 151.764948 
L 367.710022 150.507794 
L 367.969745 150.330441 
L 368.067142 150.264156 
L 368.359331 150.024333 
L 368.619055 150.116631 
L 368.781382 150.311522 
L 368.813847 150.287698 
L 369.138502 150.282096 
L 369.495622 150.892841 
L 369.72288 150.779185 
L 370.08 150.110575 
L 370.859171 148.67094 
L 371.15136 148.24391 
L 371.50848 147.770545 
L 371.8656 147.448484 
L 372.125324 147.250719 
L 372.255185 147.184692 
L 372.385047 147.451103 
L 372.709702 148.082965 
L 372.839564 148.250714 
L 372.872029 148.221068 
L 373.261615 147.673589 
L 373.586269 147.302475 
L 373.748596 147.175577 
L 373.781062 147.244232 
L 373.878458 147.262706 
L 374.203113 147.645562 
L 374.819956 147.658605 
L 374.982284 147.508429 
L 375.631593 146.105508 
L 376.410764 145.67977 
L 376.540625 145.75767 
L 376.573091 145.734725 
L 376.605556 145.815599 
L 376.638022 145.835993 
L 376.670487 145.778078 
L 376.930211 145.384099 
L 377.2224 145.105278 
L 377.319796 145.209138 
L 377.352262 145.127923 
L 377.806778 145.276812 
L 377.93664 145.42348 
L 377.969105 145.402063 
L 378.196364 145.336269 
L 378.423622 145.633098 
L 378.585949 145.749994 
L 378.618415 145.709877 
L 378.878138 145.537524 
L 379.267724 145.178536 
L 380.176756 143.163998 
L 380.209222 143.181601 
L 381.605236 144.593424 
L 381.800029 144.704792 
L 382.189615 144.208709 
L 382.449338 143.426264 
L 382.838924 141.995644 
L 383.033716 141.809968 
L 383.423302 141.851039 
L 383.553164 141.96219 
L 383.715491 141.984113 
L 383.812887 142.047802 
L 384.040145 142.391362 
L 384.559593 143.752502 
L 384.656989 143.693586 
L 385.598487 142.41144 
L 385.695884 142.33847 
L 386.604916 140.360531 
L 386.669847 140.401821 
L 387.319156 140.861494 
L 388.033396 142.177396 
L 388.195724 142.199269 
L 389.137222 141.073286 
L 389.234618 141.048612 
L 389.461876 140.906903 
L 389.818996 140.892771 
L 390.338444 140.433034 
L 390.370909 140.47775 
L 390.728029 141.298851 
L 390.79296 141.214365 
L 391.312407 140.307313 
L 391.669527 140.261213 
L 391.799389 140.343425 
L 392.124044 141.021886 
L 392.383767 141.538356 
L 392.708422 141.704697 
L 392.903215 141.933201 
L 393.033076 141.592196 
L 393.422662 140.070545 
L 393.520058 140.051025 
L 393.747316 140.584464 
L 394.169367 141.480798 
L 394.201833 141.465112 
L 394.331695 141.454256 
L 394.494022 141.482226 
L 394.656349 141.287763 
L 394.981004 140.8538 
L 395.110865 140.85963 
L 395.240727 141.14945 
L 395.825105 143.094957 
L 395.922502 142.983349 
L 396.182225 142.112256 
L 396.50688 140.070009 
L 396.766604 139.124517 
L 397.253585 138.260733 
L 397.610705 138.786455 
L 397.643171 138.764389 
L 397.902895 138.619008 
L 398.130153 138.962749 
L 398.487273 139.948976 
L 398.487273 139.948976 
" style="fill:none;stroke:#1f77b4;stroke-linecap:square;stroke-width:1.5;"/>
   </g>
   <g id="line2d_15">
    <path clip-path="url(#p96003e60e7)" d="M 73.832727 295.254582 
L 73.865193 295.485597 
L 74.02752 279.839364 
L 74.319709 254.759304 
L 74.546967 294.351767 
L 74.579433 292.70165 
L 74.644364 283.133902 
L 74.676829 289.126075 
L 74.806691 294.046059 
L 74.871622 293.631233 
L 75.066415 288.696319 
L 75.780655 269.16352 
L 77.890909 227.939271 
L 78.605149 221.404123 
L 79.157062 212.958738 
L 79.903767 203.459295 
L 80.358284 200.386679 
L 81.104989 196.536833 
L 82.078953 190.793389 
L 82.858124 188.024438 
L 83.182778 187.24722 
L 83.637295 186.397637 
L 84.74112 184.076546 
L 85.000844 184.03624 
L 85.163171 184.269348 
L 85.747549 185.245683 
L 86.266996 185.162828 
L 86.851375 185.135655 
L 87.727942 185.425925 
L 88.214924 185.116981 
L 88.442182 185.060248 
L 88.734371 184.934517 
L 89.318749 184.902136 
L 89.675869 184.96168 
L 90.000524 184.593458 
L 90.325178 184.181839 
L 90.552436 183.805836 
L 91.104349 184.068839 
L 91.948451 184.830406 
L 92.727622 184.139441 
L 92.987345 183.520277 
L 93.247069 182.815825 
L 93.571724 182.4542 
L 94.058705 182.408919 
L 95.227462 182.828322 
L 95.389789 182.789334 
L 95.584582 182.446778 
L 95.941702 182.13969 
L 96.915665 181.35384 
L 97.792233 181.014968 
L 98.019491 181.113825 
L 98.409076 180.781793 
L 99.058385 180.154664 
L 99.285644 180.253069 
L 99.318109 180.186882 
L 99.350575 180.316266 
L 99.480436 180.435625 
L 100.032349 181.097169 
L 100.162211 181.036907 
L 100.584262 181.131329 
L 100.843985 181.561915 
L 101.233571 182.098362 
L 102.304931 183.289393 
L 102.532189 183.348055 
L 103.181498 184.121946 
L 103.636015 184.397665 
L 103.928204 184.303241 
L 104.512582 183.880061 
L 104.642444 183.979532 
L 105.324218 184.702149 
L 105.616407 184.942902 
L 105.876131 185.021857 
L 106.590371 184.999901 
L 106.752698 185.007492 
L 107.077353 185.372383 
L 107.434473 186.089975 
L 107.661731 186.421664 
L 107.694196 186.39512 
L 107.726662 186.499409 
L 107.986385 186.915225 
L 108.538298 187.467057 
L 108.765556 187.353393 
L 109.122676 187.081882 
L 109.3824 187.291174 
L 109.804451 187.813315 
L 110.421295 188.310423 
L 110.713484 188.277822 
L 111.232931 188.473163 
L 111.784844 188.407387 
L 112.369222 188.585227 
L 112.59648 188.087995 
L 112.856204 187.720539 
L 113.408116 187.223599 
L 113.830167 187.207544 
L 113.862633 187.055174 
L 113.927564 187.179342 
L 114.609338 188.573066 
L 114.7392 188.717015 
L 114.966458 188.698763 
L 115.161251 188.326691 
L 115.907956 186.59437 
L 116.135215 186.905639 
L 116.687127 188.022016 
L 116.816989 188.013345 
L 117.076713 187.700605 
L 117.433833 187.099607 
L 117.855884 186.836771 
L 117.920815 186.721258 
L 117.95328 186.758908 
L 118.213004 186.930992 
L 118.440262 186.792562 
L 119.219433 185.891 
L 119.868742 185.467947 
L 120.647913 183.402567 
L 121.069964 182.858718 
L 121.199825 182.925581 
L 121.52448 183.235171 
L 121.784204 183.178076 
L 121.946531 183.137059 
L 122.271185 182.846616 
L 123.245149 181.241598 
L 123.504873 181.149977 
L 124.186647 181.961652 
L 124.348975 181.965371 
L 124.478836 182.076129 
L 124.511302 182.02284 
L 124.641164 182.085635 
L 124.965818 182.315468 
L 125.355404 182.174686 
L 125.842385 181.733245 
L 125.874851 181.781753 
L 126.134575 181.980335 
L 126.329367 182.018261 
L 126.686487 182.375364 
L 126.718953 182.460749 
L 126.783884 182.396036 
L 126.913745 182.469232 
L 127.498124 183.047353 
L 127.530589 183.011159 
L 127.660451 182.941075 
L 127.822778 183.02611 
L 127.920175 183.130275 
L 128.699345 183.691449 
L 129.056465 183.417019 
L 129.218793 183.18814 
L 129.868102 181.769664 
L 130.484945 182.304414 
L 130.712204 182.274101 
L 131.134255 181.578161 
L 131.16672 181.618521 
L 131.361513 181.777415 
L 131.718633 182.160241 
L 131.913425 182.049324 
L 132.562735 181.556791 
L 133.179578 182.242722 
L 133.601629 182.31722 
L 133.861353 182.210917 
L 134.153542 182.071229 
L 134.575593 181.492186 
L 134.835316 181.295952 
L 135.127505 181.281658 
L 135.354764 181.586867 
L 135.45216 181.668349 
L 135.484625 181.632455 
L 135.776815 181.544223 
L 135.80928 181.80724 
L 135.874211 181.496051 
L 135.906676 181.652745 
L 135.939142 181.422894 
L 136.069004 181.005748 
L 136.101469 181.223027 
L 136.1664 180.91019 
L 136.198865 181.022187 
L 136.231331 180.824533 
L 136.296262 180.647855 
L 136.52352 180.092134 
L 136.815709 179.695739 
L 137.59488 179.129672 
L 138.276655 179.502642 
L 138.731171 180.089887 
L 139.02336 179.936973 
L 139.802531 178.708723 
L 139.932393 178.736326 
L 140.516771 179.319292 
L 141.133615 179.270853 
L 141.295942 179.350185 
L 141.717993 179.434489 
L 142.107578 179.622073 
L 142.367302 179.687916 
L 142.724422 180.246018 
L 142.756887 180.0901 
L 143.016611 179.594172 
L 143.146473 179.598593 
L 143.633455 179.617529 
L 143.828247 179.290311 
L 143.860713 179.071421 
L 143.925644 179.194527 
L 144.477556 180.084884 
L 144.932073 180.839897 
L 145.191796 180.950208 
L 145.224262 181.115309 
L 145.256727 180.949861 
L 145.419055 180.559824 
L 145.45152 180.814143 
L 145.516451 180.567982 
L 145.841105 179.945836 
L 146.16576 179.618715 
L 147.042327 181.675341 
L 147.269585 181.767743 
L 147.464378 181.561071 
L 147.496844 181.783875 
L 147.561775 181.608589 
L 147.691636 181.65117 
L 148.146153 182.174144 
L 148.698065 183.046059 
L 148.990255 183.387958 
L 149.282444 183.88969 
L 149.314909 183.866292 
L 149.444771 183.563632 
L 149.607098 183.788918 
L 149.639564 183.684401 
L 149.704495 183.782601 
L 149.964218 184.051118 
L 150.061615 184.047776 
L 150.353804 184.44157 
L 150.386269 184.409064 
L 150.905716 185.084323 
L 151.587491 186.497418 
L 152.009542 187.706375 
L 152.204335 187.86392 
L 152.2368 187.73922 
L 152.301731 187.867699 
L 152.334196 187.833089 
L 152.366662 188.117873 
L 152.431593 187.855228 
L 152.496524 187.870455 
L 152.528989 187.713304 
L 152.59392 187.872668 
L 152.821178 188.161864 
L 152.918575 188.200545 
L 153.145833 188.296611 
L 153.243229 188.378739 
L 153.762676 189.526756 
L 154.249658 190.829806 
L 154.314589 190.89347 
L 154.347055 191.180761 
L 154.444451 191.105218 
L 154.606778 191.582918 
L 154.834036 191.935905 
L 154.866502 192.163092 
L 154.931433 191.849522 
L 155.223622 191.306017 
L 155.256087 191.423691 
L 155.353484 191.359569 
L 155.418415 191.326924 
L 155.45088 191.431709 
L 155.515811 191.351414 
L 155.743069 190.875734 
L 157.431273 195.007004 
L 157.561135 194.837391 
L 157.788393 194.780982 
L 158.340305 195.311516 
L 159.02208 196.69493 
L 159.054545 196.539728 
L 159.119476 196.74876 
L 159.963578 199.644501 
L 160.385629 200.351167 
L 161.067404 201.337998 
L 161.424524 201.831452 
L 161.651782 202.324327 
L 162.138764 204.649946 
L 162.495884 206.043393 
L 162.917935 206.677187 
L 163.047796 206.706463 
L 163.080262 206.791257 
L 163.145193 206.685705 
L 163.437382 206.533582 
L 164.02176 207.734702 
L 164.346415 208.11295 
L 164.768465 208.629732 
L 164.898327 208.813323 
L 165.385309 210.263427 
L 165.80736 210.950664 
L 165.904756 210.908156 
L 166.067084 211.119004 
L 166.229411 210.891471 
L 166.261876 210.954689 
L 166.294342 210.931313 
L 166.424204 210.524759 
L 166.489135 210.563024 
L 166.716393 210.640444 
L 166.911185 211.023924 
L 167.625425 212.316193 
L 167.885149 212.723894 
L 168.3072 213.75003 
L 168.534458 214.190995 
L 168.891578 214.759532 
L 169.411025 215.147769 
L 169.995404 215.837759 
L 170.44992 216.163867 
L 170.579782 216.093821 
L 170.742109 216.16037 
L 171.066764 216.512384 
L 171.229091 216.75441 
L 172.819898 219.974144 
L 173.371811 220.397657 
L 173.599069 220.154624 
L 173.858793 219.745182 
L 174.02112 219.674985 
L 174.183447 219.793118 
L 174.540567 220.269101 
L 174.930153 220.627035 
L 176.16384 221.730857 
L 176.650822 221.865652 
L 176.87808 221.970216 
L 177.202735 222.169586 
L 177.332596 222.253043 
L 177.884509 222.891726 
L 178.014371 222.903993 
L 178.209164 222.806981 
L 178.501353 222.675737 
L 178.826007 222.556535 
L 178.923404 222.570342 
L 180.09216 223.753466 
L 180.319418 223.741638 
L 180.968727 223.673972 
L 181.553105 223.887601 
L 181.87776 224.238556 
L 182.202415 224.523144 
L 182.527069 224.569454 
L 182.819258 224.542342 
L 183.338705 224.687296 
L 183.728291 224.808793 
L 184.832116 225.443896 
L 185.286633 225.454254 
L 186.422924 225.467726 
L 186.844975 225.363745 
L 187.137164 225.483754 
L 187.656611 225.867784 
L 187.981265 225.801348 
L 188.435782 225.473346 
L 188.695505 225.322298 
L 189.052625 225.279869 
L 189.507142 225.641351 
L 189.961658 225.911483 
L 190.221382 225.809918 
L 191.033018 225.362648 
L 191.552465 225.220979 
L 191.909585 224.878371 
L 192.818618 224.095121 
L 193.760116 223.893848 
L 195.902836 223.20599 
L 198.792262 221.04206 
L 200.09088 219.965724 
L 201.681687 219.204792 
L 202.363462 218.750663 
L 202.525789 218.608585 
L 204.668509 216.151736 
L 205.220422 215.583265 
L 205.837265 214.691879 
L 206.616436 214.275378 
L 207.006022 213.571867 
L 207.460538 212.499845 
L 207.752727 212.243691 
L 208.044916 212.28523 
L 208.434502 212.213505 
L 209.798051 210.452289 
L 209.960378 210.437348 
L 210.252567 210.44704 
L 210.772015 210.102721 
L 210.999273 209.955972 
L 211.551185 209.582796 
L 211.745978 209.372736 
L 213.271855 206.767245 
L 214.083491 205.841218 
L 214.538007 204.972498 
L 214.895127 204.762306 
L 215.187316 204.7644 
L 215.44704 204.315565 
L 215.836625 203.526536 
L 215.998953 203.525306 
L 216.16128 203.517302 
L 216.5184 203.181568 
L 216.87552 202.82025 
L 217.135244 202.627071 
L 217.427433 202.188026 
L 217.849484 201.53329 
L 218.531258 201.098177 
L 218.823447 201.087013 
L 219.862342 200.158731 
L 220.057135 200.106458 
L 220.284393 200.021834 
L 220.479185 199.787561 
L 220.998633 199.049406 
L 221.615476 199.314595 
L 221.777804 199.153597 
L 222.427113 198.396173 
L 222.979025 197.567126 
L 223.173818 197.535416 
L 223.530938 197.811642 
L 224.537367 198.692413 
L 224.73216 198.585591 
L 225.673658 197.391996 
L 227.199535 196.576794 
L 227.783913 196.728907 
L 228.628015 196.309828 
L 228.790342 196.297376 
L 229.244858 196.107941 
L 229.37472 196.097091 
L 229.601978 196.120351 
L 229.959098 196.287037 
L 230.08896 196.203951 
L 230.316218 196.240802 
L 230.478545 196.248769 
L 230.705804 196.116707 
L 230.997993 195.79741 
L 231.290182 195.476528 
L 231.549905 195.251984 
L 231.939491 194.956585 
L 232.264145 194.960304 
L 232.556335 195.175249 
L 232.913455 195.537204 
L 233.108247 195.645937 
L 233.30304 195.685484 
L 233.530298 195.723293 
L 233.692625 195.767908 
L 233.952349 195.701059 
L 234.179607 195.32586 
L 234.601658 194.414186 
L 234.926313 193.776295 
L 235.186036 193.894286 
L 235.575622 194.391509 
L 235.900276 194.374847 
L 236.095069 194.421996 
L 236.289862 194.241488 
L 236.87424 193.416584 
L 237.23136 193.284775 
L 237.458618 193.29788 
L 238.042996 193.317646 
L 238.30272 193.138308 
L 238.854633 192.526529 
L 239.049425 192.411507 
L 239.698735 192.567512 
L 240.575302 191.69774 
L 240.932422 191.008032 
L 241.094749 190.955518 
L 241.322007 191.124297 
L 241.776524 191.217886 
L 242.58816 190.015843 
L 242.880349 189.974574 
L 243.010211 190.01912 
L 243.497193 189.49273 
L 243.789382 189.07897 
L 244.308829 189.079721 
L 244.503622 189.012971 
L 244.633484 188.90076 
L 246.354153 185.952736 
L 246.419084 186.007349 
L 246.646342 185.929235 
L 246.743738 185.851502 
L 247.295651 184.903729 
L 247.490444 184.521917 
L 247.652771 184.415194 
L 247.912495 184.312282 
L 248.529338 183.573853 
L 250.055215 180.758513 
L 250.477265 179.553924 
L 250.769455 179.130932 
L 250.931782 179.088156 
L 251.548625 177.770723 
L 252.327796 176.127406 
L 252.522589 176.091351 
L 252.684916 175.897359 
L 255.152291 169.02045 
L 255.963927 166.843897 
L 256.808029 165.435363 
L 257.619665 161.294192 
L 257.749527 161.365314 
L 258.041716 161.665666 
L 258.139113 161.57752 
L 258.65856 159.981553 
L 259.145542 158.420808 
L 260.574022 152.974748 
L 260.866211 152.176571 
L 261.255796 151.756734 
L 261.742778 150.841511 
L 261.905105 150.145279 
L 262.392087 147.965891 
L 262.814138 146.44383 
L 263.268655 144.940451 
L 263.398516 144.860598 
L 263.560844 145.108163 
L 263.788102 145.472037 
L 263.885498 145.37415 
L 264.112756 144.579331 
L 265.184116 139.912263 
L 265.44384 139.566145 
L 265.476305 139.759905 
L 265.573702 139.722637 
L 265.833425 139.371531 
L 266.320407 136.579024 
L 266.774924 134.39057 
L 266.807389 134.495386 
L 267.58656 137.640876 
L 267.651491 137.538118 
L 268.008611 136.428545 
L 268.528058 133.294338 
L 268.885178 132.113794 
L 269.112436 131.847219 
L 269.209833 131.878083 
L 269.274764 131.956694 
L 269.37216 131.792986 
L 269.404625 131.847849 
L 269.437091 131.743785 
L 269.72928 130.239495 
L 270.281193 127.963624 
L 270.346124 127.783183 
L 270.411055 127.853567 
L 270.898036 128.88463 
L 271.060364 128.671565 
L 271.092829 128.683141 
L 271.125295 128.57987 
L 271.222691 128.18387 
L 271.547345 127.026947 
L 271.612276 126.885286 
L 272.001862 125.591122 
L 272.099258 125.543578 
L 272.261585 125.314777 
L 272.294051 125.377596 
L 272.391447 125.408933 
L 272.58624 125.384174 
L 272.781033 125.135773 
L 272.94336 124.835459 
L 273.008291 124.878418 
L 273.170618 124.531917 
L 273.462807 123.750097 
L 273.884858 122.910511 
L 274.112116 123.052767 
L 274.339375 122.133567 
L 274.631564 121.165078 
L 274.826356 121.347132 
L 274.891287 121.775687 
L 275.08608 123.688487 
L 275.378269 124.756382 
L 275.4432 124.857669 
L 275.508131 124.784403 
L 275.605527 124.714163 
L 275.670458 124.629231 
L 276.060044 123.268469 
L 276.319767 122.432931 
L 276.449629 122.448318 
L 276.839215 122.478824 
L 277.2288 122.572569 
L 277.391127 122.647822 
L 277.780713 122.451932 
L 277.910575 122.382542 
L 277.94304 122.412863 
L 278.235229 122.888024 
L 278.267695 122.862149 
L 278.332625 122.80775 
L 278.592349 122.129087 
L 278.949469 121.160003 
L 279.111796 121.443958 
L 279.598778 123.212436 
L 279.663709 123.19028 
L 279.890967 122.496869 
L 280.118225 122.006715 
L 280.44288 121.731686 
L 280.767535 121.3855 
L 281.51424 121.402038 
L 281.773964 121.936709 
L 282.033687 122.470966 
L 282.293411 122.626612 
L 282.488204 122.752455 
L 282.812858 123.362146 
L 283.040116 123.446002 
L 283.169978 123.440493 
L 284.01408 124.46353 
L 284.046545 124.430225 
L 284.241338 124.112042 
L 284.468596 123.831796 
L 284.663389 123.862066 
L 284.825716 124.168717 
L 285.247767 125.565077 
L 285.539956 126.73179 
L 285.734749 126.574193 
L 285.994473 126.200213 
L 286.254196 126.491031 
L 286.351593 126.732135 
L 286.741178 128.607375 
L 286.903505 128.756417 
L 287.065833 128.52623 
L 287.422953 128.071216 
L 287.9424 128.465001 
L 288.072262 128.44802 
L 288.494313 129.083366 
L 288.559244 128.993071 
L 288.721571 129.008617 
L 288.883898 129.46835 
L 289.241018 132.027515 
L 289.500742 133.123799 
L 289.663069 133.044056 
L 289.825396 132.820499 
L 289.890327 132.87495 
L 289.987724 133.022813 
L 290.052655 132.965709 
L 290.247447 132.609138 
L 290.44224 132.286931 
L 290.572102 132.388377 
L 291.383738 133.925161 
L 291.546065 134.339632 
L 292.000582 134.144841 
L 292.22784 133.996973 
L 292.422633 133.947375 
L 292.747287 134.542751 
L 293.007011 135.474521 
L 293.104407 135.712043 
L 293.2992 135.838823 
L 293.493993 135.891409 
L 293.65632 136.102766 
L 293.883578 136.126307 
L 294.045905 135.910722 
L 294.305629 135.765121 
L 294.500422 135.82224 
L 294.857542 136.436904 
L 295.376989 138.087844 
L 295.669178 138.167815 
L 295.961367 137.649431 
L 296.123695 137.587584 
L 296.253556 137.863947 
L 296.448349 138.532368 
L 296.8704 141.04602 
L 297.195055 142.102659 
L 297.22752 142.159567 
L 297.292451 142.08511 
L 297.422313 141.563552 
L 298.169018 138.452063 
L 298.201484 138.469054 
L 298.29888 138.556273 
L 298.591069 139.896296 
L 299.565033 145.621902 
L 299.662429 145.440218 
L 299.889687 144.402931 
L 300.279273 142.607814 
L 300.636393 143.1913 
L 301.285702 146.033344 
L 301.350633 146.013037 
L 301.448029 145.966028 
L 301.805149 145.487418 
L 301.837615 145.514187 
L 301.999942 145.883799 
L 302.2272 146.751083 
L 302.454458 147.199816 
L 302.616785 147.158842 
L 302.844044 146.679098 
L 303.103767 146.186359 
L 303.493353 145.700999 
L 303.590749 145.856748 
L 303.882938 146.716536 
L 304.499782 148.683548 
L 304.856902 149.430539 
L 305.116625 149.210149 
L 305.538676 148.143749 
L 305.830865 148.204324 
L 306.415244 149.601529 
L 306.999622 151.007781 
L 307.032087 150.954884 
L 307.097018 150.908019 
L 307.129484 150.933684 
L 307.486604 151.782993 
L 307.713862 152.809796 
L 308.038516 154.198654 
L 308.557964 154.837448 
L 308.622895 154.83285 
L 308.752756 154.501683 
L 308.785222 154.581737 
L 308.915084 154.696392 
L 308.947549 154.572656 
L 309.01248 154.717485 
L 309.207273 154.919609 
L 309.239738 154.81969 
L 309.304669 154.963754 
L 309.72672 156.265311 
L 310.08384 158.059312 
L 310.473425 159.957048 
L 310.635753 159.690719 
L 311.122735 158.285303 
L 311.1552 158.36582 
L 311.577251 160.221237 
L 311.966836 162.324161 
L 312.453818 163.930506 
L 312.616145 164.000686 
L 312.713542 163.986622 
L 313.135593 163.059214 
L 313.492713 164.438646 
L 313.882298 165.867688 
L 314.044625 166.006047 
L 314.206953 166.037174 
L 314.336815 166.26633 
L 315.018589 168.06572 
L 315.473105 169.634503 
L 315.830225 170.046212 
L 315.992553 169.849866 
L 316.219811 169.600967 
L 316.382138 169.640085 
L 316.512 169.790909 
L 316.836655 170.840908 
L 317.680756 173.106679 
L 317.778153 173.055916 
L 318.070342 172.978117 
L 318.459927 173.431103 
L 319.044305 174.802837 
L 319.563753 176.139809 
L 320.148131 176.490507 
L 320.342924 176.668323 
L 320.862371 177.24247 
L 321.836335 178.677625 
L 322.193455 178.885383 
L 322.777833 179.599056 
L 323.167418 179.60638 
L 323.459607 179.822147 
L 323.6544 179.85918 
L 324.238778 179.65053 
L 324.855622 180.316943 
L 325.667258 181.023948 
L 325.991913 181.400621 
L 326.349033 181.084801 
L 326.900945 180.466624 
L 327.128204 180.547952 
L 327.907375 180.876448 
L 328.459287 180.52519 
L 328.913804 180.819307 
L 329.400785 180.357378 
L 329.595578 180.364117 
L 329.887767 180.410881 
L 330.115025 180.356843 
L 330.472145 179.994005 
L 330.894196 179.31858 
L 331.186385 178.757288 
L 331.673367 178.04132 
L 332.614865 177.754434 
L 332.809658 177.71817 
L 333.523898 176.931692 
L 333.783622 176.785593 
L 334.075811 176.469633 
L 334.432931 176.018835 
L 334.660189 176.086869 
L 334.822516 176.058023 
L 335.049775 175.87304 
L 336.186065 173.747236 
L 336.835375 173.563457 
L 337.192495 172.788175 
L 337.874269 171.39153 
L 339.237818 169.510921 
L 339.594938 169.270128 
L 339.887127 168.848235 
L 340.146851 168.019032 
L 340.568902 166.839404 
L 341.737658 165.141824 
L 342.776553 162.701264 
L 344.951738 158.228268 
L 345.308858 157.900744 
L 345.568582 157.377058 
L 345.925702 156.621549 
L 346.737338 154.593386 
L 347.354182 153.266413 
L 347.613905 152.937762 
L 347.971025 152.445584 
L 348.230749 151.815411 
L 348.555404 151.138476 
L 348.944989 150.536182 
L 350.860451 146.311723 
L 351.055244 146.246856 
L 351.412364 145.988067 
L 351.607156 145.708816 
L 351.801949 145.241481 
L 352.548655 143.519409 
L 353.262895 142.46427 
L 354.334255 139.399792 
L 354.951098 138.226017 
L 355.730269 137.250437 
L 356.022458 137.014208 
L 356.249716 136.262092 
L 357.028887 133.368192 
L 357.321076 133.078697 
L 357.548335 133.174995 
L 357.678196 133.153429 
L 357.905455 132.712128 
L 358.522298 131.389942 
L 358.976815 130.731356 
L 359.269004 129.352113 
L 359.626124 128.039633 
L 360.470225 125.886113 
L 361.022138 124.630937 
L 361.996102 122.759853 
L 362.061033 122.740809 
L 362.418153 121.551273 
L 363.132393 118.649411 
L 364.36608 114.93555 
L 364.853062 113.226285 
L 365.015389 113.060713 
L 365.047855 113.097148 
L 365.145251 113.24612 
L 365.177716 113.194868 
L 365.307578 113.309965 
L 365.340044 113.318127 
L 366.314007 109.750655 
L 367.612625 104.849334 
L 367.93728 104.548213 
L 368.034676 104.524931 
L 368.943709 101.59595 
L 369.203433 100.999327 
L 369.528087 100.488407 
L 369.820276 99.37184 
L 371.086429 93.046301 
L 371.281222 92.971716 
L 371.50848 92.945253 
L 371.735738 92.441089 
L 372.027927 91.198814 
L 372.417513 89.5893 
L 372.904495 88.679573 
L 374.073251 84.75433 
L 374.235578 84.371407 
L 375.047215 81.45494 
L 375.534196 79.007971 
L 376.053644 77.585201 
L 376.443229 76.733435 
L 376.702953 76.085376 
L 377.352262 73.35604 
L 377.709382 72.749261 
L 378.001571 72.202584 
L 378.228829 71.566983 
L 378.423622 71.358275 
L 378.618415 70.841262 
L 379.137862 69.230039 
L 379.332655 68.314975 
L 380.176756 64.704748 
L 380.43648 64.272666 
L 380.890996 63.112747 
L 381.183185 62.337067 
L 381.345513 62.193546 
L 381.572771 61.890964 
L 381.605236 61.908095 
L 381.735098 61.785148 
L 382.287011 60.337678 
L 382.481804 59.364917 
L 382.93632 57.164504 
L 383.488233 55.333469 
L 383.585629 55.387027 
L 383.975215 55.066873 
L 384.040145 55.084056 
L 384.429731 56.105211 
L 384.462196 56.079689 
L 384.72192 55.861202 
L 384.981644 55.686018 
L 385.338764 55.448807 
L 385.468625 55.5105 
L 385.695884 55.813389 
L 385.728349 55.756158 
L 386.377658 54.156854 
L 386.604916 53.788269 
L 386.767244 53.839302 
L 386.929571 53.76746 
L 387.124364 53.568 
L 387.416553 53.741456 
L 387.871069 54.846143 
L 388.228189 56.153966 
L 388.455447 56.349373 
L 388.487913 56.284837 
L 388.585309 56.149221 
L 388.65024 56.220304 
L 388.909964 56.429293 
L 388.942429 56.3833 
L 388.974895 56.313405 
L 389.039825 56.405751 
L 389.559273 57.014357 
L 389.851462 57.916193 
L 390.07872 58.241391 
L 390.241047 58.408219 
L 390.533236 59.744275 
L 390.760495 60.777284 
L 390.825425 60.750672 
L 390.955287 60.850642 
L 391.182545 61.263548 
L 391.896785 63.706704 
L 393.098007 69.729399 
L 393.487593 71.594157 
L 394.591418 79.260124 
L 394.851142 80.216153 
L 395.110865 81.490236 
L 395.467985 84.886943 
L 395.954967 89.378752 
L 396.279622 90.217381 
L 396.377018 90.302547 
L 396.571811 90.953871 
L 396.799069 93.030429 
L 397.57824 99.536204 
L 398.260015 105.758638 
L 398.487273 108.611272 
L 398.487273 108.611272 
" style="fill:none;stroke:#ff7f0e;stroke-linecap:square;stroke-width:1.5;"/>
   </g>
   <g id="line2d_16">
    <path clip-path="url(#p96003e60e7)" d="M 73.832727 295.254582 
L 73.865193 295.488 
L 74.02752 280.679481 
L 74.319709 261.561136 
L 74.546967 292.988519 
L 74.579433 291.229468 
L 74.676829 277.605775 
L 74.74176 280.14351 
L 74.904087 286.018834 
L 75.09888 287.91219 
L 75.163811 287.607669 
L 75.391069 284.622032 
L 76.332567 268.416588 
L 77.468858 249.654877 
L 78.67008 233.99904 
L 79.806371 221.557047 
L 80.682938 214.265083 
L 81.494575 209.210088 
L 82.208815 206.028592 
L 82.825658 204.182134 
L 83.507433 202.815572 
L 84.156742 201.944641 
L 84.643724 201.625112 
L 84.935913 201.425682 
L 85.195636 201.363759 
L 85.552756 201.552176 
L 86.104669 202.13938 
L 86.948771 203.397959 
L 87.857804 205.177913 
L 88.117527 205.916988 
L 88.31232 206.485028 
L 88.831767 207.369012 
L 89.513542 209.027958 
L 94.513222 222.012269 
L 96.104029 225.405152 
L 98.344145 229.587217 
L 101.623156 235.85815 
L 104.415185 241.684086 
L 106.88256 247.400842 
L 111.719913 258.701819 
L 113.570444 262.490615 
L 114.609338 264.284259 
L 116.16768 266.592602 
L 117.23904 267.82079 
L 118.180538 268.588756 
L 118.992175 268.981192 
L 119.706415 269.091875 
L 120.355724 268.967991 
L 121.037498 268.606407 
L 121.816669 267.932308 
L 122.758167 266.807808 
L 123.017891 266.447455 
L 123.245149 267.349453 
L 124.316509 269.953224 
L 124.543767 270.326896 
L 124.576233 270.222254 
L 124.73856 270.058963 
L 125.063215 270.277952 
L 125.712524 270.699792 
L 126.459229 270.91918 
L 127.205935 270.905589 
L 128.017571 270.664592 
L 128.991535 270.121898 
L 130.322618 269.376439 
L 130.971927 269.078326 
L 131.88096 268.326967 
L 134.445731 265.899535 
L 136.101469 264.013598 
L 139.477876 260.143118 
L 141.036218 258.476407 
L 142.886749 256.796981 
L 144.607418 255.672823 
L 145.711244 254.964535 
L 146.750138 254.17787 
L 153.113367 248.817926 
L 154.639244 247.766082 
L 156.684567 246.570889 
L 159.119476 245.471151 
L 160.353164 245.161564 
L 160.612887 245.110988 
L 161.229731 244.964982 
L 161.489455 244.913902 
L 162.106298 244.771323 
L 162.366022 244.719149 
L 162.982865 244.575534 
L 163.242589 244.523767 
L 163.859433 244.382878 
L 164.119156 244.332272 
L 164.833396 244.180297 
L 165.222982 244.106362 
L 172.300451 242.410027 
L 183.143913 239.684797 
L 189.701935 238.132258 
L 198.013091 236.117975 
L 205.252887 234.706506 
L 211.583651 233.552252 
L 211.713513 233.896558 
L 211.843375 233.91907 
L 212.005702 233.668214 
L 212.038167 233.880537 
L 212.070633 233.655324 
L 212.103098 233.829466 
L 212.200495 233.563909 
L 212.23296 233.745817 
L 212.265425 233.521163 
L 212.297891 233.704828 
L 212.395287 233.441403 
L 212.427753 233.623191 
L 212.460218 233.4032 
L 212.492684 233.583432 
L 212.59008 233.329653 
L 212.622545 233.506497 
L 212.655011 233.296479 
L 212.687476 233.472126 
L 212.784873 233.237324 
L 212.817338 233.411409 
L 212.849804 233.211453 
L 212.882269 233.385067 
L 212.979665 233.166538 
L 213.012131 233.34073 
L 213.044596 233.147387 
L 213.077062 233.322872 
L 213.174458 233.11512 
L 213.239389 233.102316 
L 213.271855 233.285474 
L 213.369251 233.080164 
L 213.466647 233.26684 
L 213.564044 233.055016 
L 213.66144 233.260614 
L 213.758836 233.035583 
L 213.856233 233.261432 
L 213.953629 233.019396 
L 214.051025 233.254535 
L 214.148422 232.993649 
L 214.213353 232.982498 
L 214.245818 233.236074 
L 214.343215 232.965493 
L 214.37568 233.196245 
L 214.408145 232.949151 
L 214.440611 233.170234 
L 214.538007 232.898415 
L 214.570473 233.116178 
L 214.602938 232.867371 
L 214.635404 233.090698 
L 214.7328 232.807933 
L 214.765265 233.04823 
L 214.797731 232.790676 
L 214.830196 233.0271 
L 214.927593 232.756458 
L 214.960058 232.989367 
L 214.992524 232.74121 
L 215.024989 232.972791 
L 215.122385 232.715042 
L 215.154851 232.945224 
L 215.187316 232.704015 
L 215.219782 232.934254 
L 215.317178 232.685642 
L 215.414575 232.909255 
L 215.44704 232.802346 
L 215.511971 232.866772 
L 215.674298 232.864938 
L 215.966487 232.737249 
L 216.063884 232.814909 
L 216.096349 232.76913 
L 216.258676 232.802873 
L 216.421004 232.76223 
L 216.583331 232.793503 
L 216.745658 232.768096 
L 216.940451 232.770375 
L 217.297571 232.775347 
L 217.94688 232.785641 
L 219.635084 232.756181 
L 221.290822 232.45726 
L 222.297251 232.032459 
L 223.238749 231.345969 
L 224.667229 230.0333 
L 228.757876 226.013065 
L 234.049745 222.107067 
L 235.186036 221.412707 
L 236.939171 220.796306 
L 238.692305 220.782056 
L 240.120785 221.171249 
L 241.386938 221.760759 
L 242.94528 222.732628 
L 244.925673 224.251447 
L 247.457978 226.208908 
L 248.399476 226.575404 
L 252.165469 228.509909 
L 254.762705 229.656993 
L 257.035287 230.49573 
L 259.340335 231.119673 
L 262.197295 231.666924 
L 265.281513 232.036395 
L 268.755316 232.227049 
L 272.683636 232.267258 
L 272.94336 232.016372 
L 273.040756 231.954972 
L 273.397876 231.822231 
L 275.313338 231.530595 
L 279.144262 230.938551 
L 285.345164 229.642839 
L 286.87104 229.398536 
L 287.098298 229.359653 
L 287.780073 229.162495 
L 293.623855 228.348676 
L 298.266415 227.947455 
L 304.499782 227.669961 
L 320.148131 227.189435 
L 326.251636 226.645478 
L 331.121455 226.031649 
L 335.569222 225.23146 
L 340.861091 224.040423 
L 350.373469 221.853591 
L 353.587549 221.414635 
L 354.074531 221.449788 
L 354.301789 221.522569 
L 354.593978 221.224846 
L 354.951098 221.010746 
L 355.470545 221.010414 
L 356.736698 221.003583 
L 358.587229 221.010717 
L 358.944349 221.19662 
L 359.528727 221.219398 
L 361.801309 220.946575 
L 365.177716 221.123745 
L 370.956567 221.573307 
L 373.326545 221.925232 
L 373.488873 222.003479 
L 374.170647 221.814416 
L 375.4368 222.006789 
L 377.547055 222.195384 
L 380.404015 222.21741 
L 383.65056 222.03494 
L 386.410124 221.718597 
L 392.091578 221.003027 
L 395.370589 220.905479 
L 398.487273 220.919998 
L 398.487273 220.919998 
" style="fill:none;stroke:#bf00bf;stroke-linecap:square;stroke-width:1.5;"/>
   </g>
   <g id="patch_3">
    <path d="M 57.6 307.584 
L 57.6 41.472 
" style="fill:none;stroke:#000000;stroke-linecap:square;stroke-linejoin:miter;stroke-width:0.8;"/>
   </g>
   <g id="patch_4">
    <path d="M 414.72 307.584 
L 414.72 41.472 
" style="fill:none;stroke:#000000;stroke-linecap:square;stroke-linejoin:miter;stroke-width:0.8;"/>
   </g>
   <g id="patch_5">
    <path d="M 57.6 307.584 
L 414.72 307.584 
" style="fill:none;stroke:#000000;stroke-linecap:square;stroke-linejoin:miter;stroke-width:0.8;"/>
   </g>
   <g id="patch_6">
    <path d="M 57.6 41.472 
L 414.72 41.472 
" style="fill:none;stroke:#000000;stroke-linecap:square;stroke-linejoin:miter;stroke-width:0.8;"/>
   </g>
   <g id="text_16">
    <!-- Plot of Object pose error norm over a single episode  -->
    <g transform="translate(77.670938 8.59725)scale(0.12 -0.12)">
     <defs>
      <path d="M 19.671875 64.796875 
L 19.671875 37.40625 
L 32.078125 37.40625 
Q 38.96875 37.40625 42.71875 40.96875 
Q 46.484375 44.53125 46.484375 51.125 
Q 46.484375 57.671875 42.71875 61.234375 
Q 38.96875 64.796875 32.078125 64.796875 
z
M 9.8125 72.90625 
L 32.078125 72.90625 
Q 44.34375 72.90625 50.609375 67.359375 
Q 56.890625 61.8125 56.890625 51.125 
Q 56.890625 40.328125 50.609375 34.8125 
Q 44.34375 29.296875 32.078125 29.296875 
L 19.671875 29.296875 
L 19.671875 0 
L 9.8125 0 
z
" id="DejaVuSans-80"/>
      <path d="M 9.421875 75.984375 
L 18.40625 75.984375 
L 18.40625 0 
L 9.421875 0 
z
" id="DejaVuSans-108"/>
      <path id="DejaVuSans-32"/>
      <path d="M 37.109375 75.984375 
L 37.109375 68.5 
L 28.515625 68.5 
Q 23.6875 68.5 21.796875 66.546875 
Q 19.921875 64.59375 19.921875 59.515625 
L 19.921875 54.6875 
L 34.71875 54.6875 
L 34.71875 47.703125 
L 19.921875 47.703125 
L 19.921875 0 
L 10.890625 0 
L 10.890625 47.703125 
L 2.296875 47.703125 
L 2.296875 54.6875 
L 10.890625 54.6875 
L 10.890625 58.5 
Q 10.890625 67.625 15.140625 71.796875 
Q 19.390625 75.984375 28.609375 75.984375 
z
" id="DejaVuSans-102"/>
      <path d="M 48.78125 52.59375 
L 48.78125 44.1875 
Q 44.96875 46.296875 41.140625 47.34375 
Q 37.3125 48.390625 33.40625 48.390625 
Q 24.65625 48.390625 19.8125 42.84375 
Q 14.984375 37.3125 14.984375 27.296875 
Q 14.984375 17.28125 19.8125 11.734375 
Q 24.65625 6.203125 33.40625 6.203125 
Q 37.3125 6.203125 41.140625 7.25 
Q 44.96875 8.296875 48.78125 10.40625 
L 48.78125 2.09375 
Q 45.015625 0.34375 40.984375 -0.53125 
Q 36.96875 -1.421875 32.421875 -1.421875 
Q 20.0625 -1.421875 12.78125 6.34375 
Q 5.515625 14.109375 5.515625 27.296875 
Q 5.515625 40.671875 12.859375 48.328125 
Q 20.21875 56 33.015625 56 
Q 37.15625 56 41.109375 55.140625 
Q 45.0625 54.296875 48.78125 52.59375 
z
" id="DejaVuSans-99"/>
      <path d="M 2.984375 54.6875 
L 12.5 54.6875 
L 29.59375 8.796875 
L 46.6875 54.6875 
L 56.203125 54.6875 
L 35.6875 0 
L 23.484375 0 
z
" id="DejaVuSans-118"/>
      <path d="M 34.28125 27.484375 
Q 23.390625 27.484375 19.1875 25 
Q 14.984375 22.515625 14.984375 16.5 
Q 14.984375 11.71875 18.140625 8.90625 
Q 21.296875 6.109375 26.703125 6.109375 
Q 34.1875 6.109375 38.703125 11.40625 
Q 43.21875 16.703125 43.21875 25.484375 
L 43.21875 27.484375 
z
M 52.203125 31.203125 
L 52.203125 0 
L 43.21875 0 
L 43.21875 8.296875 
Q 40.140625 3.328125 35.546875 0.953125 
Q 30.953125 -1.421875 24.3125 -1.421875 
Q 15.921875 -1.421875 10.953125 3.296875 
Q 6 8.015625 6 15.921875 
Q 6 25.140625 12.171875 29.828125 
Q 18.359375 34.515625 30.609375 34.515625 
L 43.21875 34.515625 
L 43.21875 35.40625 
Q 43.21875 41.609375 39.140625 45 
Q 35.0625 48.390625 27.6875 48.390625 
Q 23 48.390625 18.546875 47.265625 
Q 14.109375 46.140625 10.015625 43.890625 
L 10.015625 52.203125 
Q 14.9375 54.109375 19.578125 55.046875 
Q 24.21875 56 28.609375 56 
Q 40.484375 56 46.34375 49.84375 
Q 52.203125 43.703125 52.203125 31.203125 
z
" id="DejaVuSans-97"/>
      <path d="M 45.40625 27.984375 
Q 45.40625 37.75 41.375 43.109375 
Q 37.359375 48.484375 30.078125 48.484375 
Q 22.859375 48.484375 18.828125 43.109375 
Q 14.796875 37.75 14.796875 27.984375 
Q 14.796875 18.265625 18.828125 12.890625 
Q 22.859375 7.515625 30.078125 7.515625 
Q 37.359375 7.515625 41.375 12.890625 
Q 45.40625 18.265625 45.40625 27.984375 
z
M 54.390625 6.78125 
Q 54.390625 -7.171875 48.1875 -13.984375 
Q 42 -20.796875 29.203125 -20.796875 
Q 24.46875 -20.796875 20.265625 -20.09375 
Q 16.0625 -19.390625 12.109375 -17.921875 
L 12.109375 -9.1875 
Q 16.0625 -11.328125 19.921875 -12.34375 
Q 23.78125 -13.375 27.78125 -13.375 
Q 36.625 -13.375 41.015625 -8.765625 
Q 45.40625 -4.15625 45.40625 5.171875 
L 45.40625 9.625 
Q 42.625 4.78125 38.28125 2.390625 
Q 33.9375 0 27.875 0 
Q 17.828125 0 11.671875 7.65625 
Q 5.515625 15.328125 5.515625 27.984375 
Q 5.515625 40.671875 11.671875 48.328125 
Q 17.828125 56 27.875 56 
Q 33.9375 56 38.28125 53.609375 
Q 42.625 51.21875 45.40625 46.390625 
L 45.40625 54.6875 
L 54.390625 54.6875 
z
" id="DejaVuSans-103"/>
      <path d="M 45.40625 46.390625 
L 45.40625 75.984375 
L 54.390625 75.984375 
L 54.390625 0 
L 45.40625 0 
L 45.40625 8.203125 
Q 42.578125 3.328125 38.25 0.953125 
Q 33.9375 -1.421875 27.875 -1.421875 
Q 17.96875 -1.421875 11.734375 6.484375 
Q 5.515625 14.40625 5.515625 27.296875 
Q 5.515625 40.1875 11.734375 48.09375 
Q 17.96875 56 27.875 56 
Q 33.9375 56 38.25 53.625 
Q 42.578125 51.265625 45.40625 46.390625 
z
M 14.796875 27.296875 
Q 14.796875 17.390625 18.875 11.75 
Q 22.953125 6.109375 30.078125 6.109375 
Q 37.203125 6.109375 41.296875 11.75 
Q 45.40625 17.390625 45.40625 27.296875 
Q 45.40625 37.203125 41.296875 42.84375 
Q 37.203125 48.484375 30.078125 48.484375 
Q 22.953125 48.484375 18.875 42.84375 
Q 14.796875 37.203125 14.796875 27.296875 
z
" id="DejaVuSans-100"/>
     </defs>
     <use xlink:href="#DejaVuSans-80"/>
     <use x="60.302734" xlink:href="#DejaVuSans-108"/>
     <use x="88.085938" xlink:href="#DejaVuSans-111"/>
     <use x="149.267578" xlink:href="#DejaVuSans-116"/>
     <use x="188.476562" xlink:href="#DejaVuSans-32"/>
     <use x="220.263672" xlink:href="#DejaVuSans-111"/>
     <use x="281.445312" xlink:href="#DejaVuSans-102"/>
     <use x="316.650391" xlink:href="#DejaVuSans-32"/>
     <use x="348.4375" xlink:href="#DejaVuSans-79"/>
     <use x="427.148438" xlink:href="#DejaVuSans-98"/>
     <use x="490.625" xlink:href="#DejaVuSans-106"/>
     <use x="518.408203" xlink:href="#DejaVuSans-101"/>
     <use x="579.931641" xlink:href="#DejaVuSans-99"/>
     <use x="634.912109" xlink:href="#DejaVuSans-116"/>
     <use x="674.121094" xlink:href="#DejaVuSans-32"/>
     <use x="705.908203" xlink:href="#DejaVuSans-112"/>
     <use x="769.384766" xlink:href="#DejaVuSans-111"/>
     <use x="830.566406" xlink:href="#DejaVuSans-115"/>
     <use x="882.666016" xlink:href="#DejaVuSans-101"/>
     <use x="944.189453" xlink:href="#DejaVuSans-32"/>
     <use x="975.976562" xlink:href="#DejaVuSans-101"/>
     <use x="1037.5" xlink:href="#DejaVuSans-114"/>
     <use x="1076.863281" xlink:href="#DejaVuSans-114"/>
     <use x="1115.726562" xlink:href="#DejaVuSans-111"/>
     <use x="1176.908203" xlink:href="#DejaVuSans-114"/>
     <use x="1218.021484" xlink:href="#DejaVuSans-32"/>
     <use x="1249.808594" xlink:href="#DejaVuSans-110"/>
     <use x="1313.1875" xlink:href="#DejaVuSans-111"/>
     <use x="1374.369141" xlink:href="#DejaVuSans-114"/>
     <use x="1413.732422" xlink:href="#DejaVuSans-109"/>
     <use x="1511.144531" xlink:href="#DejaVuSans-32"/>
     <use x="1542.931641" xlink:href="#DejaVuSans-111"/>
     <use x="1604.113281" xlink:href="#DejaVuSans-118"/>
     <use x="1663.292969" xlink:href="#DejaVuSans-101"/>
     <use x="1724.816406" xlink:href="#DejaVuSans-114"/>
     <use x="1765.929688" xlink:href="#DejaVuSans-32"/>
     <use x="1797.716797" xlink:href="#DejaVuSans-97"/>
     <use x="1858.996094" xlink:href="#DejaVuSans-32"/>
     <use x="1890.783203" xlink:href="#DejaVuSans-115"/>
     <use x="1942.882812" xlink:href="#DejaVuSans-105"/>
     <use x="1970.666016" xlink:href="#DejaVuSans-110"/>
     <use x="2034.044922" xlink:href="#DejaVuSans-103"/>
     <use x="2097.521484" xlink:href="#DejaVuSans-108"/>
     <use x="2125.304688" xlink:href="#DejaVuSans-101"/>
     <use x="2186.828125" xlink:href="#DejaVuSans-32"/>
     <use x="2218.615234" xlink:href="#DejaVuSans-101"/>
     <use x="2280.138672" xlink:href="#DejaVuSans-112"/>
     <use x="2343.615234" xlink:href="#DejaVuSans-105"/>
     <use x="2371.398438" xlink:href="#DejaVuSans-115"/>
     <use x="2423.498047" xlink:href="#DejaVuSans-111"/>
     <use x="2484.679688" xlink:href="#DejaVuSans-100"/>
     <use x="2548.15625" xlink:href="#DejaVuSans-101"/>
     <use x="2609.679688" xlink:href="#DejaVuSans-32"/>
    </g>
    <!--  Avg object pose error norm: Residual RL = 0.321, Standard = 0.344,  -->
    <g transform="translate(26.875313 22.034625)scale(0.12 -0.12)">
     <defs>
      <path d="M 34.1875 63.1875 
L 20.796875 26.90625 
L 47.609375 26.90625 
z
M 28.609375 72.90625 
L 39.796875 72.90625 
L 67.578125 0 
L 57.328125 0 
L 50.6875 18.703125 
L 17.828125 18.703125 
L 11.1875 0 
L 0.78125 0 
z
" id="DejaVuSans-65"/>
      <path d="M 11.71875 12.40625 
L 22.015625 12.40625 
L 22.015625 0 
L 11.71875 0 
z
M 11.71875 51.703125 
L 22.015625 51.703125 
L 22.015625 39.3125 
L 11.71875 39.3125 
z
" id="DejaVuSans-58"/>
      <path d="M 44.390625 34.1875 
Q 47.5625 33.109375 50.5625 29.59375 
Q 53.5625 26.078125 56.59375 19.921875 
L 66.609375 0 
L 56 0 
L 46.6875 18.703125 
Q 43.0625 26.03125 39.671875 28.421875 
Q 36.28125 30.8125 30.421875 30.8125 
L 19.671875 30.8125 
L 19.671875 0 
L 9.8125 0 
L 9.8125 72.90625 
L 32.078125 72.90625 
Q 44.578125 72.90625 50.734375 67.671875 
Q 56.890625 62.453125 56.890625 51.90625 
Q 56.890625 45.015625 53.6875 40.46875 
Q 50.484375 35.9375 44.390625 34.1875 
z
M 19.671875 64.796875 
L 19.671875 38.921875 
L 32.078125 38.921875 
Q 39.203125 38.921875 42.84375 42.21875 
Q 46.484375 45.515625 46.484375 51.90625 
Q 46.484375 58.296875 42.84375 61.546875 
Q 39.203125 64.796875 32.078125 64.796875 
z
" id="DejaVuSans-82"/>
      <path d="M 9.8125 72.90625 
L 19.671875 72.90625 
L 19.671875 8.296875 
L 55.171875 8.296875 
L 55.171875 0 
L 9.8125 0 
z
" id="DejaVuSans-76"/>
      <path d="M 10.59375 45.40625 
L 73.1875 45.40625 
L 73.1875 37.203125 
L 10.59375 37.203125 
z
M 10.59375 25.484375 
L 73.1875 25.484375 
L 73.1875 17.1875 
L 10.59375 17.1875 
z
" id="DejaVuSans-61"/>
      <path d="M 11.71875 12.40625 
L 22.015625 12.40625 
L 22.015625 4 
L 14.015625 -11.625 
L 7.71875 -11.625 
L 11.71875 4 
z
" id="DejaVuSans-44"/>
      <path d="M 53.515625 70.515625 
L 53.515625 60.890625 
Q 47.90625 63.578125 42.921875 64.890625 
Q 37.9375 66.21875 33.296875 66.21875 
Q 25.25 66.21875 20.875 63.09375 
Q 16.5 59.96875 16.5 54.203125 
Q 16.5 49.359375 19.40625 46.890625 
Q 22.3125 44.4375 30.421875 42.921875 
L 36.375 41.703125 
Q 47.40625 39.59375 52.65625 34.296875 
Q 57.90625 29 57.90625 20.125 
Q 57.90625 9.515625 50.796875 4.046875 
Q 43.703125 -1.421875 29.984375 -1.421875 
Q 24.8125 -1.421875 18.96875 -0.25 
Q 13.140625 0.921875 6.890625 3.21875 
L 6.890625 13.375 
Q 12.890625 10.015625 18.65625 8.296875 
Q 24.421875 6.59375 29.984375 6.59375 
Q 38.421875 6.59375 43.015625 9.90625 
Q 47.609375 13.234375 47.609375 19.390625 
Q 47.609375 24.75 44.3125 27.78125 
Q 41.015625 30.8125 33.5 32.328125 
L 27.484375 33.5 
Q 16.453125 35.6875 11.515625 40.375 
Q 6.59375 45.0625 6.59375 53.421875 
Q 6.59375 63.09375 13.40625 68.65625 
Q 20.21875 74.21875 32.171875 74.21875 
Q 37.3125 74.21875 42.625 73.28125 
Q 47.953125 72.359375 53.515625 70.515625 
z
" id="DejaVuSans-83"/>
     </defs>
     <use xlink:href="#DejaVuSans-32"/>
     <use x="31.787109" xlink:href="#DejaVuSans-65"/>
     <use x="94.320312" xlink:href="#DejaVuSans-118"/>
     <use x="153.5" xlink:href="#DejaVuSans-103"/>
     <use x="216.976562" xlink:href="#DejaVuSans-32"/>
     <use x="248.763672" xlink:href="#DejaVuSans-111"/>
     <use x="309.945312" xlink:href="#DejaVuSans-98"/>
     <use x="373.421875" xlink:href="#DejaVuSans-106"/>
     <use x="401.205078" xlink:href="#DejaVuSans-101"/>
     <use x="462.728516" xlink:href="#DejaVuSans-99"/>
     <use x="517.708984" xlink:href="#DejaVuSans-116"/>
     <use x="556.917969" xlink:href="#DejaVuSans-32"/>
     <use x="588.705078" xlink:href="#DejaVuSans-112"/>
     <use x="652.181641" xlink:href="#DejaVuSans-111"/>
     <use x="713.363281" xlink:href="#DejaVuSans-115"/>
     <use x="765.462891" xlink:href="#DejaVuSans-101"/>
     <use x="826.986328" xlink:href="#DejaVuSans-32"/>
     <use x="858.773438" xlink:href="#DejaVuSans-101"/>
     <use x="920.296875" xlink:href="#DejaVuSans-114"/>
     <use x="959.660156" xlink:href="#DejaVuSans-114"/>
     <use x="998.523438" xlink:href="#DejaVuSans-111"/>
     <use x="1059.705078" xlink:href="#DejaVuSans-114"/>
     <use x="1100.818359" xlink:href="#DejaVuSans-32"/>
     <use x="1132.605469" xlink:href="#DejaVuSans-110"/>
     <use x="1195.984375" xlink:href="#DejaVuSans-111"/>
     <use x="1257.166016" xlink:href="#DejaVuSans-114"/>
     <use x="1296.529297" xlink:href="#DejaVuSans-109"/>
     <use x="1393.941406" xlink:href="#DejaVuSans-58"/>
     <use x="1427.632812" xlink:href="#DejaVuSans-32"/>
     <use x="1459.419922" xlink:href="#DejaVuSans-82"/>
     <use x="1524.402344" xlink:href="#DejaVuSans-101"/>
     <use x="1585.925781" xlink:href="#DejaVuSans-115"/>
     <use x="1638.025391" xlink:href="#DejaVuSans-105"/>
     <use x="1665.808594" xlink:href="#DejaVuSans-100"/>
     <use x="1729.285156" xlink:href="#DejaVuSans-117"/>
     <use x="1792.664062" xlink:href="#DejaVuSans-97"/>
     <use x="1853.943359" xlink:href="#DejaVuSans-108"/>
     <use x="1881.726562" xlink:href="#DejaVuSans-32"/>
     <use x="1913.513672" xlink:href="#DejaVuSans-82"/>
     <use x="1982.996094" xlink:href="#DejaVuSans-76"/>
     <use x="2038.708984" xlink:href="#DejaVuSans-32"/>
     <use x="2070.496094" xlink:href="#DejaVuSans-61"/>
     <use x="2154.285156" xlink:href="#DejaVuSans-32"/>
     <use x="2186.072266" xlink:href="#DejaVuSans-48"/>
     <use x="2249.695312" xlink:href="#DejaVuSans-46"/>
     <use x="2281.482422" xlink:href="#DejaVuSans-51"/>
     <use x="2345.105469" xlink:href="#DejaVuSans-50"/>
     <use x="2408.728516" xlink:href="#DejaVuSans-49"/>
     <use x="2472.351562" xlink:href="#DejaVuSans-44"/>
     <use x="2504.138672" xlink:href="#DejaVuSans-32"/>
     <use x="2535.925781" xlink:href="#DejaVuSans-83"/>
     <use x="2599.402344" xlink:href="#DejaVuSans-116"/>
     <use x="2638.611328" xlink:href="#DejaVuSans-97"/>
     <use x="2699.890625" xlink:href="#DejaVuSans-110"/>
     <use x="2763.269531" xlink:href="#DejaVuSans-100"/>
     <use x="2826.746094" xlink:href="#DejaVuSans-97"/>
     <use x="2888.025391" xlink:href="#DejaVuSans-114"/>
     <use x="2927.388672" xlink:href="#DejaVuSans-100"/>
     <use x="2990.865234" xlink:href="#DejaVuSans-32"/>
     <use x="3022.652344" xlink:href="#DejaVuSans-61"/>
     <use x="3106.441406" xlink:href="#DejaVuSans-32"/>
     <use x="3138.228516" xlink:href="#DejaVuSans-48"/>
     <use x="3201.851562" xlink:href="#DejaVuSans-46"/>
     <use x="3233.638672" xlink:href="#DejaVuSans-51"/>
     <use x="3297.261719" xlink:href="#DejaVuSans-52"/>
     <use x="3360.884766" xlink:href="#DejaVuSans-52"/>
     <use x="3424.507812" xlink:href="#DejaVuSans-44"/>
     <use x="3456.294922" xlink:href="#DejaVuSans-32"/>
    </g>
    <!--  Baseline = 0.178 -->
    <g transform="translate(182.795625 35.472)scale(0.12 -0.12)">
     <defs>
      <path d="M 19.671875 34.8125 
L 19.671875 8.109375 
L 35.5 8.109375 
Q 43.453125 8.109375 47.28125 11.40625 
Q 51.125 14.703125 51.125 21.484375 
Q 51.125 28.328125 47.28125 31.5625 
Q 43.453125 34.8125 35.5 34.8125 
z
M 19.671875 64.796875 
L 19.671875 42.828125 
L 34.28125 42.828125 
Q 41.5 42.828125 45.03125 45.53125 
Q 48.578125 48.25 48.578125 53.8125 
Q 48.578125 59.328125 45.03125 62.0625 
Q 41.5 64.796875 34.28125 64.796875 
z
M 9.8125 72.90625 
L 35.015625 72.90625 
Q 46.296875 72.90625 52.390625 68.21875 
Q 58.5 63.53125 58.5 54.890625 
Q 58.5 48.1875 55.375 44.234375 
Q 52.25 40.28125 46.1875 39.3125 
Q 53.46875 37.75 57.5 32.78125 
Q 61.53125 27.828125 61.53125 20.40625 
Q 61.53125 10.640625 54.890625 5.3125 
Q 48.25 0 35.984375 0 
L 9.8125 0 
z
" id="DejaVuSans-66"/>
      <path d="M 8.203125 72.90625 
L 55.078125 72.90625 
L 55.078125 68.703125 
L 28.609375 0 
L 18.3125 0 
L 43.21875 64.59375 
L 8.203125 64.59375 
z
" id="DejaVuSans-55"/>
     </defs>
     <use xlink:href="#DejaVuSans-32"/>
     <use x="31.787109" xlink:href="#DejaVuSans-66"/>
     <use x="100.390625" xlink:href="#DejaVuSans-97"/>
     <use x="161.669922" xlink:href="#DejaVuSans-115"/>
     <use x="213.769531" xlink:href="#DejaVuSans-101"/>
     <use x="275.292969" xlink:href="#DejaVuSans-108"/>
     <use x="303.076172" xlink:href="#DejaVuSans-105"/>
     <use x="330.859375" xlink:href="#DejaVuSans-110"/>
     <use x="394.238281" xlink:href="#DejaVuSans-101"/>
     <use x="455.761719" xlink:href="#DejaVuSans-32"/>
     <use x="487.548828" xlink:href="#DejaVuSans-61"/>
     <use x="571.337891" xlink:href="#DejaVuSans-32"/>
     <use x="603.125" xlink:href="#DejaVuSans-48"/>
     <use x="666.748047" xlink:href="#DejaVuSans-46"/>
     <use x="698.535156" xlink:href="#DejaVuSans-49"/>
     <use x="762.158203" xlink:href="#DejaVuSans-55"/>
     <use x="825.78125" xlink:href="#DejaVuSans-56"/>
    </g>
   </g>
   <g id="legend_1">
    <g id="patch_7">
     <path d="M 64.6 93.506375 
L 154.529687 93.506375 
Q 156.529687 93.506375 156.529687 91.506375 
L 156.529687 48.472 
Q 156.529687 46.472 154.529687 46.472 
L 64.6 46.472 
Q 62.6 46.472 62.6 48.472 
L 62.6 91.506375 
Q 62.6 93.506375 64.6 93.506375 
z
" style="fill:#ffffff;opacity:0.8;stroke:#cccccc;stroke-linejoin:miter;"/>
    </g>
    <g id="line2d_17">
     <path d="M 66.6 54.570438 
L 86.6 54.570438 
" style="fill:none;stroke:#1f77b4;stroke-linecap:square;stroke-width:1.5;"/>
    </g>
    <g id="line2d_18"/>
    <g id="text_17">
     <!-- Residual RL -->
     <g transform="translate(94.6 58.070438)scale(0.1 -0.1)">
      <use xlink:href="#DejaVuSans-82"/>
      <use x="64.982422" xlink:href="#DejaVuSans-101"/>
      <use x="126.505859" xlink:href="#DejaVuSans-115"/>
      <use x="178.605469" xlink:href="#DejaVuSans-105"/>
      <use x="206.388672" xlink:href="#DejaVuSans-100"/>
      <use x="269.865234" xlink:href="#DejaVuSans-117"/>
      <use x="333.244141" xlink:href="#DejaVuSans-97"/>
      <use x="394.523438" xlink:href="#DejaVuSans-108"/>
      <use x="422.306641" xlink:href="#DejaVuSans-32"/>
      <use x="454.09375" xlink:href="#DejaVuSans-82"/>
      <use x="523.576172" xlink:href="#DejaVuSans-76"/>
     </g>
    </g>
    <g id="line2d_19">
     <path d="M 66.6 69.248563 
L 86.6 69.248563 
" style="fill:none;stroke:#ff7f0e;stroke-linecap:square;stroke-width:1.5;"/>
    </g>
    <g id="line2d_20"/>
    <g id="text_18">
     <!-- Standard -->
     <g transform="translate(94.6 72.748563)scale(0.1 -0.1)">
      <use xlink:href="#DejaVuSans-83"/>
      <use x="63.476562" xlink:href="#DejaVuSans-116"/>
      <use x="102.685547" xlink:href="#DejaVuSans-97"/>
      <use x="163.964844" xlink:href="#DejaVuSans-110"/>
      <use x="227.34375" xlink:href="#DejaVuSans-100"/>
      <use x="290.820312" xlink:href="#DejaVuSans-97"/>
      <use x="352.099609" xlink:href="#DejaVuSans-114"/>
      <use x="391.462891" xlink:href="#DejaVuSans-100"/>
     </g>
    </g>
    <g id="line2d_21">
     <path d="M 66.6 83.926688 
L 86.6 83.926688 
" style="fill:none;stroke:#bf00bf;stroke-linecap:square;stroke-width:1.5;"/>
    </g>
    <g id="line2d_22"/>
    <g id="text_19">
     <!-- Baseline -->
     <g transform="translate(94.6 87.426688)scale(0.1 -0.1)">
      <use xlink:href="#DejaVuSans-66"/>
      <use x="68.603516" xlink:href="#DejaVuSans-97"/>
      <use x="129.882812" xlink:href="#DejaVuSans-115"/>
      <use x="181.982422" xlink:href="#DejaVuSans-101"/>
      <use x="243.505859" xlink:href="#DejaVuSans-108"/>
      <use x="271.289062" xlink:href="#DejaVuSans-105"/>
      <use x="299.072266" xlink:href="#DejaVuSans-110"/>
      <use x="362.451172" xlink:href="#DejaVuSans-101"/>
     </g>
    </g>
   </g>
  </g>
 </g>
 <defs>
  <clipPath id="p96003e60e7">
   <rect height="266.112" width="357.12" x="57.6" y="41.472"/>
  </clipPath>
 </defs>
</svg>
