<?xml version="1.0" encoding="utf-8" standalone="no"?>
<!DOCTYPE svg PUBLIC "-//W3C//DTD SVG 1.1//EN"
  "http://www.w3.org/Graphics/SVG/1.1/DTD/svg11.dtd">
<!-- Created with matplotlib (https://matplotlib.org/) -->
<svg height="345.6pt" version="1.1" viewBox="0 0 460.8 345.6" width="460.8pt" xmlns="http://www.w3.org/2000/svg" xmlns:xlink="http://www.w3.org/1999/xlink">
 <metadata>
  <rdf:RDF xmlns:cc="http://creativecommons.org/ns#" xmlns:dc="http://purl.org/dc/elements/1.1/" xmlns:rdf="http://www.w3.org/1999/02/22-rdf-syntax-ns#">
   <cc:Work>
    <dc:type rdf:resource="http://purl.org/dc/dcmitype/StillImage"/>
    <dc:date>2022-07-22T10:28:36.297716</dc:date>
    <dc:format>image/svg+xml</dc:format>
    <dc:creator>
     <cc:Agent>
      <dc:title>Matplotlib v3.3.4, https://matplotlib.org/</dc:title>
     </cc:Agent>
    </dc:creator>
   </cc:Work>
  </rdf:RDF>
 </metadata>
 <defs>
  <style type="text/css">*{stroke-linecap:butt;stroke-linejoin:round;}</style>
 </defs>
 <g id="figure_1">
  <g id="patch_1">
   <path d="M 0 345.6 
L 460.8 345.6 
L 460.8 0 
L 0 0 
z
" style="fill:#ffffff;"/>
  </g>
  <g id="axes_1">
   <g id="patch_2">
    <path d="M 57.6 307.584 
L 414.72 307.584 
L 414.72 41.472 
L 57.6 41.472 
z
" style="fill:#ffffff;"/>
   </g>
   <g id="matplotlib.axis_1">
    <g id="xtick_1">
     <g id="line2d_1">
      <defs>
       <path d="M 0 0 
L 0 3.5 
" id="m945d0c5326" style="stroke:#000000;stroke-width:0.8;"/>
      </defs>
      <g>
       <use style="stroke:#000000;stroke-width:0.8;" x="73.832727" xlink:href="#m945d0c5326" y="307.584"/>
      </g>
     </g>
     <g id="text_1">
      <!-- 0 -->
      <g transform="translate(70.651477 322.182437)scale(0.1 -0.1)">
       <defs>
        <path d="M 31.78125 66.40625 
Q 24.171875 66.40625 20.328125 58.90625 
Q 16.5 51.421875 16.5 36.375 
Q 16.5 21.390625 20.328125 13.890625 
Q 24.171875 6.390625 31.78125 6.390625 
Q 39.453125 6.390625 43.28125 13.890625 
Q 47.125 21.390625 47.125 36.375 
Q 47.125 51.421875 43.28125 58.90625 
Q 39.453125 66.40625 31.78125 66.40625 
z
M 31.78125 74.21875 
Q 44.046875 74.21875 50.515625 64.515625 
Q 56.984375 54.828125 56.984375 36.375 
Q 56.984375 17.96875 50.515625 8.265625 
Q 44.046875 -1.421875 31.78125 -1.421875 
Q 19.53125 -1.421875 13.0625 8.265625 
Q 6.59375 17.96875 6.59375 36.375 
Q 6.59375 54.828125 13.0625 64.515625 
Q 19.53125 74.21875 31.78125 74.21875 
z
" id="DejaVuSans-48"/>
       </defs>
       <use xlink:href="#DejaVuSans-48"/>
      </g>
     </g>
    </g>
    <g id="xtick_2">
     <g id="line2d_2">
      <g>
       <use style="stroke:#000000;stroke-width:0.8;" x="138.763636" xlink:href="#m945d0c5326" y="307.584"/>
      </g>
     </g>
     <g id="text_2">
      <!-- 2000 -->
      <g transform="translate(126.038636 322.182437)scale(0.1 -0.1)">
       <defs>
        <path d="M 19.1875 8.296875 
L 53.609375 8.296875 
L 53.609375 0 
L 7.328125 0 
L 7.328125 8.296875 
Q 12.9375 14.109375 22.625 23.890625 
Q 32.328125 33.6875 34.8125 36.53125 
Q 39.546875 41.84375 41.421875 45.53125 
Q 43.3125 49.21875 43.3125 52.78125 
Q 43.3125 58.59375 39.234375 62.25 
Q 35.15625 65.921875 28.609375 65.921875 
Q 23.96875 65.921875 18.8125 64.3125 
Q 13.671875 62.703125 7.8125 59.421875 
L 7.8125 69.390625 
Q 13.765625 71.78125 18.9375 73 
Q 24.125 74.21875 28.421875 74.21875 
Q 39.75 74.21875 46.484375 68.546875 
Q 53.21875 62.890625 53.21875 53.421875 
Q 53.21875 48.921875 51.53125 44.890625 
Q 49.859375 40.875 45.40625 35.40625 
Q 44.1875 33.984375 37.640625 27.21875 
Q 31.109375 20.453125 19.1875 8.296875 
z
" id="DejaVuSans-50"/>
       </defs>
       <use xlink:href="#DejaVuSans-50"/>
       <use x="63.623047" xlink:href="#DejaVuSans-48"/>
       <use x="127.246094" xlink:href="#DejaVuSans-48"/>
       <use x="190.869141" xlink:href="#DejaVuSans-48"/>
      </g>
     </g>
    </g>
    <g id="xtick_3">
     <g id="line2d_3">
      <g>
       <use style="stroke:#000000;stroke-width:0.8;" x="203.694545" xlink:href="#m945d0c5326" y="307.584"/>
      </g>
     </g>
     <g id="text_3">
      <!-- 4000 -->
      <g transform="translate(190.969545 322.182437)scale(0.1 -0.1)">
       <defs>
        <path d="M 37.796875 64.3125 
L 12.890625 25.390625 
L 37.796875 25.390625 
z
M 35.203125 72.90625 
L 47.609375 72.90625 
L 47.609375 25.390625 
L 58.015625 25.390625 
L 58.015625 17.1875 
L 47.609375 17.1875 
L 47.609375 0 
L 37.796875 0 
L 37.796875 17.1875 
L 4.890625 17.1875 
L 4.890625 26.703125 
z
" id="DejaVuSans-52"/>
       </defs>
       <use xlink:href="#DejaVuSans-52"/>
       <use x="63.623047" xlink:href="#DejaVuSans-48"/>
       <use x="127.246094" xlink:href="#DejaVuSans-48"/>
       <use x="190.869141" xlink:href="#DejaVuSans-48"/>
      </g>
     </g>
    </g>
    <g id="xtick_4">
     <g id="line2d_4">
      <g>
       <use style="stroke:#000000;stroke-width:0.8;" x="268.625455" xlink:href="#m945d0c5326" y="307.584"/>
      </g>
     </g>
     <g id="text_4">
      <!-- 6000 -->
      <g transform="translate(255.900455 322.182437)scale(0.1 -0.1)">
       <defs>
        <path d="M 33.015625 40.375 
Q 26.375 40.375 22.484375 35.828125 
Q 18.609375 31.296875 18.609375 23.390625 
Q 18.609375 15.53125 22.484375 10.953125 
Q 26.375 6.390625 33.015625 6.390625 
Q 39.65625 6.390625 43.53125 10.953125 
Q 47.40625 15.53125 47.40625 23.390625 
Q 47.40625 31.296875 43.53125 35.828125 
Q 39.65625 40.375 33.015625 40.375 
z
M 52.59375 71.296875 
L 52.59375 62.3125 
Q 48.875 64.0625 45.09375 64.984375 
Q 41.3125 65.921875 37.59375 65.921875 
Q 27.828125 65.921875 22.671875 59.328125 
Q 17.53125 52.734375 16.796875 39.40625 
Q 19.671875 43.65625 24.015625 45.921875 
Q 28.375 48.1875 33.59375 48.1875 
Q 44.578125 48.1875 50.953125 41.515625 
Q 57.328125 34.859375 57.328125 23.390625 
Q 57.328125 12.15625 50.6875 5.359375 
Q 44.046875 -1.421875 33.015625 -1.421875 
Q 20.359375 -1.421875 13.671875 8.265625 
Q 6.984375 17.96875 6.984375 36.375 
Q 6.984375 53.65625 15.1875 63.9375 
Q 23.390625 74.21875 37.203125 74.21875 
Q 40.921875 74.21875 44.703125 73.484375 
Q 48.484375 72.75 52.59375 71.296875 
z
" id="DejaVuSans-54"/>
       </defs>
       <use xlink:href="#DejaVuSans-54"/>
       <use x="63.623047" xlink:href="#DejaVuSans-48"/>
       <use x="127.246094" xlink:href="#DejaVuSans-48"/>
       <use x="190.869141" xlink:href="#DejaVuSans-48"/>
      </g>
     </g>
    </g>
    <g id="xtick_5">
     <g id="line2d_5">
      <g>
       <use style="stroke:#000000;stroke-width:0.8;" x="333.556364" xlink:href="#m945d0c5326" y="307.584"/>
      </g>
     </g>
     <g id="text_5">
      <!-- 8000 -->
      <g transform="translate(320.831364 322.182437)scale(0.1 -0.1)">
       <defs>
        <path d="M 31.78125 34.625 
Q 24.75 34.625 20.71875 30.859375 
Q 16.703125 27.09375 16.703125 20.515625 
Q 16.703125 13.921875 20.71875 10.15625 
Q 24.75 6.390625 31.78125 6.390625 
Q 38.8125 6.390625 42.859375 10.171875 
Q 46.921875 13.96875 46.921875 20.515625 
Q 46.921875 27.09375 42.890625 30.859375 
Q 38.875 34.625 31.78125 34.625 
z
M 21.921875 38.8125 
Q 15.578125 40.375 12.03125 44.71875 
Q 8.5 49.078125 8.5 55.328125 
Q 8.5 64.0625 14.71875 69.140625 
Q 20.953125 74.21875 31.78125 74.21875 
Q 42.671875 74.21875 48.875 69.140625 
Q 55.078125 64.0625 55.078125 55.328125 
Q 55.078125 49.078125 51.53125 44.71875 
Q 48 40.375 41.703125 38.8125 
Q 48.828125 37.15625 52.796875 32.3125 
Q 56.78125 27.484375 56.78125 20.515625 
Q 56.78125 9.90625 50.3125 4.234375 
Q 43.84375 -1.421875 31.78125 -1.421875 
Q 19.734375 -1.421875 13.25 4.234375 
Q 6.78125 9.90625 6.78125 20.515625 
Q 6.78125 27.484375 10.78125 32.3125 
Q 14.796875 37.15625 21.921875 38.8125 
z
M 18.3125 54.390625 
Q 18.3125 48.734375 21.84375 45.5625 
Q 25.390625 42.390625 31.78125 42.390625 
Q 38.140625 42.390625 41.71875 45.5625 
Q 45.3125 48.734375 45.3125 54.390625 
Q 45.3125 60.0625 41.71875 63.234375 
Q 38.140625 66.40625 31.78125 66.40625 
Q 25.390625 66.40625 21.84375 63.234375 
Q 18.3125 60.0625 18.3125 54.390625 
z
" id="DejaVuSans-56"/>
       </defs>
       <use xlink:href="#DejaVuSans-56"/>
       <use x="63.623047" xlink:href="#DejaVuSans-48"/>
       <use x="127.246094" xlink:href="#DejaVuSans-48"/>
       <use x="190.869141" xlink:href="#DejaVuSans-48"/>
      </g>
     </g>
    </g>
    <g id="xtick_6">
     <g id="line2d_6">
      <g>
       <use style="stroke:#000000;stroke-width:0.8;" x="398.487273" xlink:href="#m945d0c5326" y="307.584"/>
      </g>
     </g>
     <g id="text_6">
      <!-- 10000 -->
      <g transform="translate(382.581023 322.182437)scale(0.1 -0.1)">
       <defs>
        <path d="M 12.40625 8.296875 
L 28.515625 8.296875 
L 28.515625 63.921875 
L 10.984375 60.40625 
L 10.984375 69.390625 
L 28.421875 72.90625 
L 38.28125 72.90625 
L 38.28125 8.296875 
L 54.390625 8.296875 
L 54.390625 0 
L 12.40625 0 
z
" id="DejaVuSans-49"/>
       </defs>
       <use xlink:href="#DejaVuSans-49"/>
       <use x="63.623047" xlink:href="#DejaVuSans-48"/>
       <use x="127.246094" xlink:href="#DejaVuSans-48"/>
       <use x="190.869141" xlink:href="#DejaVuSans-48"/>
       <use x="254.492188" xlink:href="#DejaVuSans-48"/>
      </g>
     </g>
    </g>
    <g id="text_7">
     <!-- Num-time-steps -->
     <g transform="translate(196.056094 335.860562)scale(0.1 -0.1)">
      <defs>
       <path d="M 9.8125 72.90625 
L 23.09375 72.90625 
L 55.421875 11.921875 
L 55.421875 72.90625 
L 64.984375 72.90625 
L 64.984375 0 
L 51.703125 0 
L 19.390625 60.984375 
L 19.390625 0 
L 9.8125 0 
z
" id="DejaVuSans-78"/>
       <path d="M 8.5 21.578125 
L 8.5 54.6875 
L 17.484375 54.6875 
L 17.484375 21.921875 
Q 17.484375 14.15625 20.5 10.265625 
Q 23.53125 6.390625 29.59375 6.390625 
Q 36.859375 6.390625 41.078125 11.03125 
Q 45.3125 15.671875 45.3125 23.6875 
L 45.3125 54.6875 
L 54.296875 54.6875 
L 54.296875 0 
L 45.3125 0 
L 45.3125 8.40625 
Q 42.046875 3.421875 37.71875 1 
Q 33.40625 -1.421875 27.6875 -1.421875 
Q 18.265625 -1.421875 13.375 4.4375 
Q 8.5 10.296875 8.5 21.578125 
z
M 31.109375 56 
z
" id="DejaVuSans-117"/>
       <path d="M 52 44.1875 
Q 55.375 50.25 60.0625 53.125 
Q 64.75 56 71.09375 56 
Q 79.640625 56 84.28125 50.015625 
Q 88.921875 44.046875 88.921875 33.015625 
L 88.921875 0 
L 79.890625 0 
L 79.890625 32.71875 
Q 79.890625 40.578125 77.09375 44.375 
Q 74.3125 48.1875 68.609375 48.1875 
Q 61.625 48.1875 57.5625 43.546875 
Q 53.515625 38.921875 53.515625 30.90625 
L 53.515625 0 
L 44.484375 0 
L 44.484375 32.71875 
Q 44.484375 40.625 41.703125 44.40625 
Q 38.921875 48.1875 33.109375 48.1875 
Q 26.21875 48.1875 22.15625 43.53125 
Q 18.109375 38.875 18.109375 30.90625 
L 18.109375 0 
L 9.078125 0 
L 9.078125 54.6875 
L 18.109375 54.6875 
L 18.109375 46.1875 
Q 21.1875 51.21875 25.484375 53.609375 
Q 29.78125 56 35.6875 56 
Q 41.65625 56 45.828125 52.96875 
Q 50 49.953125 52 44.1875 
z
" id="DejaVuSans-109"/>
       <path d="M 4.890625 31.390625 
L 31.203125 31.390625 
L 31.203125 23.390625 
L 4.890625 23.390625 
z
" id="DejaVuSans-45"/>
       <path d="M 18.3125 70.21875 
L 18.3125 54.6875 
L 36.8125 54.6875 
L 36.8125 47.703125 
L 18.3125 47.703125 
L 18.3125 18.015625 
Q 18.3125 11.328125 20.140625 9.421875 
Q 21.96875 7.515625 27.59375 7.515625 
L 36.8125 7.515625 
L 36.8125 0 
L 27.59375 0 
Q 17.1875 0 13.234375 3.875 
Q 9.28125 7.765625 9.28125 18.015625 
L 9.28125 47.703125 
L 2.6875 47.703125 
L 2.6875 54.6875 
L 9.28125 54.6875 
L 9.28125 70.21875 
z
" id="DejaVuSans-116"/>
       <path d="M 9.421875 54.6875 
L 18.40625 54.6875 
L 18.40625 0 
L 9.421875 0 
z
M 9.421875 75.984375 
L 18.40625 75.984375 
L 18.40625 64.59375 
L 9.421875 64.59375 
z
" id="DejaVuSans-105"/>
       <path d="M 56.203125 29.59375 
L 56.203125 25.203125 
L 14.890625 25.203125 
Q 15.484375 15.921875 20.484375 11.0625 
Q 25.484375 6.203125 34.421875 6.203125 
Q 39.59375 6.203125 44.453125 7.46875 
Q 49.3125 8.734375 54.109375 11.28125 
L 54.109375 2.78125 
Q 49.265625 0.734375 44.1875 -0.34375 
Q 39.109375 -1.421875 33.890625 -1.421875 
Q 20.796875 -1.421875 13.15625 6.1875 
Q 5.515625 13.8125 5.515625 26.8125 
Q 5.515625 40.234375 12.765625 48.109375 
Q 20.015625 56 32.328125 56 
Q 43.359375 56 49.78125 48.890625 
Q 56.203125 41.796875 56.203125 29.59375 
z
M 47.21875 32.234375 
Q 47.125 39.59375 43.09375 43.984375 
Q 39.0625 48.390625 32.421875 48.390625 
Q 24.90625 48.390625 20.390625 44.140625 
Q 15.875 39.890625 15.1875 32.171875 
z
" id="DejaVuSans-101"/>
       <path d="M 44.28125 53.078125 
L 44.28125 44.578125 
Q 40.484375 46.53125 36.375 47.5 
Q 32.28125 48.484375 27.875 48.484375 
Q 21.1875 48.484375 17.84375 46.4375 
Q 14.5 44.390625 14.5 40.28125 
Q 14.5 37.15625 16.890625 35.375 
Q 19.28125 33.59375 26.515625 31.984375 
L 29.59375 31.296875 
Q 39.15625 29.25 43.1875 25.515625 
Q 47.21875 21.78125 47.21875 15.09375 
Q 47.21875 7.46875 41.1875 3.015625 
Q 35.15625 -1.421875 24.609375 -1.421875 
Q 20.21875 -1.421875 15.453125 -0.5625 
Q 10.6875 0.296875 5.421875 2 
L 5.421875 11.28125 
Q 10.40625 8.6875 15.234375 7.390625 
Q 20.0625 6.109375 24.8125 6.109375 
Q 31.15625 6.109375 34.5625 8.28125 
Q 37.984375 10.453125 37.984375 14.40625 
Q 37.984375 18.0625 35.515625 20.015625 
Q 33.0625 21.96875 24.703125 23.78125 
L 21.578125 24.515625 
Q 13.234375 26.265625 9.515625 29.90625 
Q 5.8125 33.546875 5.8125 39.890625 
Q 5.8125 47.609375 11.28125 51.796875 
Q 16.75 56 26.8125 56 
Q 31.78125 56 36.171875 55.265625 
Q 40.578125 54.546875 44.28125 53.078125 
z
" id="DejaVuSans-115"/>
       <path d="M 18.109375 8.203125 
L 18.109375 -20.796875 
L 9.078125 -20.796875 
L 9.078125 54.6875 
L 18.109375 54.6875 
L 18.109375 46.390625 
Q 20.953125 51.265625 25.265625 53.625 
Q 29.59375 56 35.59375 56 
Q 45.5625 56 51.78125 48.09375 
Q 58.015625 40.1875 58.015625 27.296875 
Q 58.015625 14.40625 51.78125 6.484375 
Q 45.5625 -1.421875 35.59375 -1.421875 
Q 29.59375 -1.421875 25.265625 0.953125 
Q 20.953125 3.328125 18.109375 8.203125 
z
M 48.6875 27.296875 
Q 48.6875 37.203125 44.609375 42.84375 
Q 40.53125 48.484375 33.40625 48.484375 
Q 26.265625 48.484375 22.1875 42.84375 
Q 18.109375 37.203125 18.109375 27.296875 
Q 18.109375 17.390625 22.1875 11.75 
Q 26.265625 6.109375 33.40625 6.109375 
Q 40.53125 6.109375 44.609375 11.75 
Q 48.6875 17.390625 48.6875 27.296875 
z
" id="DejaVuSans-112"/>
      </defs>
      <use xlink:href="#DejaVuSans-78"/>
      <use x="74.804688" xlink:href="#DejaVuSans-117"/>
      <use x="138.183594" xlink:href="#DejaVuSans-109"/>
      <use x="235.595703" xlink:href="#DejaVuSans-45"/>
      <use x="271.679688" xlink:href="#DejaVuSans-116"/>
      <use x="310.888672" xlink:href="#DejaVuSans-105"/>
      <use x="338.671875" xlink:href="#DejaVuSans-109"/>
      <use x="436.083984" xlink:href="#DejaVuSans-101"/>
      <use x="497.607422" xlink:href="#DejaVuSans-45"/>
      <use x="533.691406" xlink:href="#DejaVuSans-115"/>
      <use x="585.791016" xlink:href="#DejaVuSans-116"/>
      <use x="625" xlink:href="#DejaVuSans-101"/>
      <use x="686.523438" xlink:href="#DejaVuSans-112"/>
      <use x="750" xlink:href="#DejaVuSans-115"/>
     </g>
    </g>
   </g>
   <g id="matplotlib.axis_2">
    <g id="ytick_1">
     <g id="line2d_7">
      <defs>
       <path d="M 0 0 
L -3.5 0 
" id="m8752ec4efe" style="stroke:#000000;stroke-width:0.8;"/>
      </defs>
      <g>
       <use style="stroke:#000000;stroke-width:0.8;" x="57.6" xlink:href="#m8752ec4efe" y="302.034602"/>
      </g>
     </g>
     <g id="text_8">
      <!-- 0.0 -->
      <g transform="translate(34.696875 305.83382)scale(0.1 -0.1)">
       <defs>
        <path d="M 10.6875 12.40625 
L 21 12.40625 
L 21 0 
L 10.6875 0 
z
" id="DejaVuSans-46"/>
       </defs>
       <use xlink:href="#DejaVuSans-48"/>
       <use x="63.623047" xlink:href="#DejaVuSans-46"/>
       <use x="95.410156" xlink:href="#DejaVuSans-48"/>
      </g>
     </g>
    </g>
    <g id="ytick_2">
     <g id="line2d_8">
      <g>
       <use style="stroke:#000000;stroke-width:0.8;" x="57.6" xlink:href="#m8752ec4efe" y="269.34247"/>
      </g>
     </g>
     <g id="text_9">
      <!-- 0.1 -->
      <g transform="translate(34.696875 273.141689)scale(0.1 -0.1)">
       <use xlink:href="#DejaVuSans-48"/>
       <use x="63.623047" xlink:href="#DejaVuSans-46"/>
       <use x="95.410156" xlink:href="#DejaVuSans-49"/>
      </g>
     </g>
    </g>
    <g id="ytick_3">
     <g id="line2d_9">
      <g>
       <use style="stroke:#000000;stroke-width:0.8;" x="57.6" xlink:href="#m8752ec4efe" y="236.650339"/>
      </g>
     </g>
     <g id="text_10">
      <!-- 0.2 -->
      <g transform="translate(34.696875 240.449558)scale(0.1 -0.1)">
       <use xlink:href="#DejaVuSans-48"/>
       <use x="63.623047" xlink:href="#DejaVuSans-46"/>
       <use x="95.410156" xlink:href="#DejaVuSans-50"/>
      </g>
     </g>
    </g>
    <g id="ytick_4">
     <g id="line2d_10">
      <g>
       <use style="stroke:#000000;stroke-width:0.8;" x="57.6" xlink:href="#m8752ec4efe" y="203.958208"/>
      </g>
     </g>
     <g id="text_11">
      <!-- 0.3 -->
      <g transform="translate(34.696875 207.757427)scale(0.1 -0.1)">
       <defs>
        <path d="M 40.578125 39.3125 
Q 47.65625 37.796875 51.625 33 
Q 55.609375 28.21875 55.609375 21.1875 
Q 55.609375 10.40625 48.1875 4.484375 
Q 40.765625 -1.421875 27.09375 -1.421875 
Q 22.515625 -1.421875 17.65625 -0.515625 
Q 12.796875 0.390625 7.625 2.203125 
L 7.625 11.71875 
Q 11.71875 9.328125 16.59375 8.109375 
Q 21.484375 6.890625 26.8125 6.890625 
Q 36.078125 6.890625 40.9375 10.546875 
Q 45.796875 14.203125 45.796875 21.1875 
Q 45.796875 27.640625 41.28125 31.265625 
Q 36.765625 34.90625 28.71875 34.90625 
L 20.21875 34.90625 
L 20.21875 43.015625 
L 29.109375 43.015625 
Q 36.375 43.015625 40.234375 45.921875 
Q 44.09375 48.828125 44.09375 54.296875 
Q 44.09375 59.90625 40.109375 62.90625 
Q 36.140625 65.921875 28.71875 65.921875 
Q 24.65625 65.921875 20.015625 65.03125 
Q 15.375 64.15625 9.8125 62.3125 
L 9.8125 71.09375 
Q 15.4375 72.65625 20.34375 73.4375 
Q 25.25 74.21875 29.59375 74.21875 
Q 40.828125 74.21875 47.359375 69.109375 
Q 53.90625 64.015625 53.90625 55.328125 
Q 53.90625 49.265625 50.4375 45.09375 
Q 46.96875 40.921875 40.578125 39.3125 
z
" id="DejaVuSans-51"/>
       </defs>
       <use xlink:href="#DejaVuSans-48"/>
       <use x="63.623047" xlink:href="#DejaVuSans-46"/>
       <use x="95.410156" xlink:href="#DejaVuSans-51"/>
      </g>
     </g>
    </g>
    <g id="ytick_5">
     <g id="line2d_11">
      <g>
       <use style="stroke:#000000;stroke-width:0.8;" x="57.6" xlink:href="#m8752ec4efe" y="171.266077"/>
      </g>
     </g>
     <g id="text_12">
      <!-- 0.4 -->
      <g transform="translate(34.696875 175.065295)scale(0.1 -0.1)">
       <use xlink:href="#DejaVuSans-48"/>
       <use x="63.623047" xlink:href="#DejaVuSans-46"/>
       <use x="95.410156" xlink:href="#DejaVuSans-52"/>
      </g>
     </g>
    </g>
    <g id="ytick_6">
     <g id="line2d_12">
      <g>
       <use style="stroke:#000000;stroke-width:0.8;" x="57.6" xlink:href="#m8752ec4efe" y="138.573945"/>
      </g>
     </g>
     <g id="text_13">
      <!-- 0.5 -->
      <g transform="translate(34.696875 142.373164)scale(0.1 -0.1)">
       <defs>
        <path d="M 10.796875 72.90625 
L 49.515625 72.90625 
L 49.515625 64.59375 
L 19.828125 64.59375 
L 19.828125 46.734375 
Q 21.96875 47.46875 24.109375 47.828125 
Q 26.265625 48.1875 28.421875 48.1875 
Q 40.625 48.1875 47.75 41.5 
Q 54.890625 34.8125 54.890625 23.390625 
Q 54.890625 11.625 47.5625 5.09375 
Q 40.234375 -1.421875 26.90625 -1.421875 
Q 22.3125 -1.421875 17.546875 -0.640625 
Q 12.796875 0.140625 7.71875 1.703125 
L 7.71875 11.625 
Q 12.109375 9.234375 16.796875 8.0625 
Q 21.484375 6.890625 26.703125 6.890625 
Q 35.15625 6.890625 40.078125 11.328125 
Q 45.015625 15.765625 45.015625 23.390625 
Q 45.015625 31 40.078125 35.4375 
Q 35.15625 39.890625 26.703125 39.890625 
Q 22.75 39.890625 18.8125 39.015625 
Q 14.890625 38.140625 10.796875 36.28125 
z
" id="DejaVuSans-53"/>
       </defs>
       <use xlink:href="#DejaVuSans-48"/>
       <use x="63.623047" xlink:href="#DejaVuSans-46"/>
       <use x="95.410156" xlink:href="#DejaVuSans-53"/>
      </g>
     </g>
    </g>
    <g id="ytick_7">
     <g id="line2d_13">
      <g>
       <use style="stroke:#000000;stroke-width:0.8;" x="57.6" xlink:href="#m8752ec4efe" y="105.881814"/>
      </g>
     </g>
     <g id="text_14">
      <!-- 0.6 -->
      <g transform="translate(34.696875 109.681033)scale(0.1 -0.1)">
       <use xlink:href="#DejaVuSans-48"/>
       <use x="63.623047" xlink:href="#DejaVuSans-46"/>
       <use x="95.410156" xlink:href="#DejaVuSans-54"/>
      </g>
     </g>
    </g>
    <g id="ytick_8">
     <g id="line2d_14">
      <g>
       <use style="stroke:#000000;stroke-width:0.8;" x="57.6" xlink:href="#m8752ec4efe" y="73.189683"/>
      </g>
     </g>
     <g id="text_15">
      <!-- 0.7 -->
      <g transform="translate(34.696875 76.988902)scale(0.1 -0.1)">
       <defs>
        <path d="M 8.203125 72.90625 
L 55.078125 72.90625 
L 55.078125 68.703125 
L 28.609375 0 
L 18.3125 0 
L 43.21875 64.59375 
L 8.203125 64.59375 
z
" id="DejaVuSans-55"/>
       </defs>
       <use xlink:href="#DejaVuSans-48"/>
       <use x="63.623047" xlink:href="#DejaVuSans-46"/>
       <use x="95.410156" xlink:href="#DejaVuSans-55"/>
      </g>
     </g>
    </g>
    <g id="text_16">
     <!-- Obj-pose-error-norm -->
     <g transform="translate(28.617187 225.203781)rotate(-90)scale(0.1 -0.1)">
      <defs>
       <path d="M 39.40625 66.21875 
Q 28.65625 66.21875 22.328125 58.203125 
Q 16.015625 50.203125 16.015625 36.375 
Q 16.015625 22.609375 22.328125 14.59375 
Q 28.65625 6.59375 39.40625 6.59375 
Q 50.140625 6.59375 56.421875 14.59375 
Q 62.703125 22.609375 62.703125 36.375 
Q 62.703125 50.203125 56.421875 58.203125 
Q 50.140625 66.21875 39.40625 66.21875 
z
M 39.40625 74.21875 
Q 54.734375 74.21875 63.90625 63.9375 
Q 73.09375 53.65625 73.09375 36.375 
Q 73.09375 19.140625 63.90625 8.859375 
Q 54.734375 -1.421875 39.40625 -1.421875 
Q 24.03125 -1.421875 14.8125 8.828125 
Q 5.609375 19.09375 5.609375 36.375 
Q 5.609375 53.65625 14.8125 63.9375 
Q 24.03125 74.21875 39.40625 74.21875 
z
" id="DejaVuSans-79"/>
       <path d="M 48.6875 27.296875 
Q 48.6875 37.203125 44.609375 42.84375 
Q 40.53125 48.484375 33.40625 48.484375 
Q 26.265625 48.484375 22.1875 42.84375 
Q 18.109375 37.203125 18.109375 27.296875 
Q 18.109375 17.390625 22.1875 11.75 
Q 26.265625 6.109375 33.40625 6.109375 
Q 40.53125 6.109375 44.609375 11.75 
Q 48.6875 17.390625 48.6875 27.296875 
z
M 18.109375 46.390625 
Q 20.953125 51.265625 25.265625 53.625 
Q 29.59375 56 35.59375 56 
Q 45.5625 56 51.78125 48.09375 
Q 58.015625 40.1875 58.015625 27.296875 
Q 58.015625 14.40625 51.78125 6.484375 
Q 45.5625 -1.421875 35.59375 -1.421875 
Q 29.59375 -1.421875 25.265625 0.953125 
Q 20.953125 3.328125 18.109375 8.203125 
L 18.109375 0 
L 9.078125 0 
L 9.078125 75.984375 
L 18.109375 75.984375 
z
" id="DejaVuSans-98"/>
       <path d="M 9.421875 54.6875 
L 18.40625 54.6875 
L 18.40625 -0.984375 
Q 18.40625 -11.421875 14.421875 -16.109375 
Q 10.453125 -20.796875 1.609375 -20.796875 
L -1.8125 -20.796875 
L -1.8125 -13.1875 
L 0.59375 -13.1875 
Q 5.71875 -13.1875 7.5625 -10.8125 
Q 9.421875 -8.453125 9.421875 -0.984375 
z
M 9.421875 75.984375 
L 18.40625 75.984375 
L 18.40625 64.59375 
L 9.421875 64.59375 
z
" id="DejaVuSans-106"/>
       <path d="M 30.609375 48.390625 
Q 23.390625 48.390625 19.1875 42.75 
Q 14.984375 37.109375 14.984375 27.296875 
Q 14.984375 17.484375 19.15625 11.84375 
Q 23.34375 6.203125 30.609375 6.203125 
Q 37.796875 6.203125 41.984375 11.859375 
Q 46.1875 17.53125 46.1875 27.296875 
Q 46.1875 37.015625 41.984375 42.703125 
Q 37.796875 48.390625 30.609375 48.390625 
z
M 30.609375 56 
Q 42.328125 56 49.015625 48.375 
Q 55.71875 40.765625 55.71875 27.296875 
Q 55.71875 13.875 49.015625 6.21875 
Q 42.328125 -1.421875 30.609375 -1.421875 
Q 18.84375 -1.421875 12.171875 6.21875 
Q 5.515625 13.875 5.515625 27.296875 
Q 5.515625 40.765625 12.171875 48.375 
Q 18.84375 56 30.609375 56 
z
" id="DejaVuSans-111"/>
       <path d="M 41.109375 46.296875 
Q 39.59375 47.171875 37.8125 47.578125 
Q 36.03125 48 33.890625 48 
Q 26.265625 48 22.1875 43.046875 
Q 18.109375 38.09375 18.109375 28.8125 
L 18.109375 0 
L 9.078125 0 
L 9.078125 54.6875 
L 18.109375 54.6875 
L 18.109375 46.1875 
Q 20.953125 51.171875 25.484375 53.578125 
Q 30.03125 56 36.53125 56 
Q 37.453125 56 38.578125 55.875 
Q 39.703125 55.765625 41.0625 55.515625 
z
" id="DejaVuSans-114"/>
       <path d="M 54.890625 33.015625 
L 54.890625 0 
L 45.90625 0 
L 45.90625 32.71875 
Q 45.90625 40.484375 42.875 44.328125 
Q 39.84375 48.1875 33.796875 48.1875 
Q 26.515625 48.1875 22.3125 43.546875 
Q 18.109375 38.921875 18.109375 30.90625 
L 18.109375 0 
L 9.078125 0 
L 9.078125 54.6875 
L 18.109375 54.6875 
L 18.109375 46.1875 
Q 21.34375 51.125 25.703125 53.5625 
Q 30.078125 56 35.796875 56 
Q 45.21875 56 50.046875 50.171875 
Q 54.890625 44.34375 54.890625 33.015625 
z
" id="DejaVuSans-110"/>
      </defs>
      <use xlink:href="#DejaVuSans-79"/>
      <use x="78.710938" xlink:href="#DejaVuSans-98"/>
      <use x="142.1875" xlink:href="#DejaVuSans-106"/>
      <use x="169.970703" xlink:href="#DejaVuSans-45"/>
      <use x="206.054688" xlink:href="#DejaVuSans-112"/>
      <use x="269.53125" xlink:href="#DejaVuSans-111"/>
      <use x="330.712891" xlink:href="#DejaVuSans-115"/>
      <use x="382.8125" xlink:href="#DejaVuSans-101"/>
      <use x="444.335938" xlink:href="#DejaVuSans-45"/>
      <use x="480.419922" xlink:href="#DejaVuSans-101"/>
      <use x="541.943359" xlink:href="#DejaVuSans-114"/>
      <use x="581.306641" xlink:href="#DejaVuSans-114"/>
      <use x="620.169922" xlink:href="#DejaVuSans-111"/>
      <use x="681.351562" xlink:href="#DejaVuSans-114"/>
      <use x="716.089844" xlink:href="#DejaVuSans-45"/>
      <use x="752.173828" xlink:href="#DejaVuSans-110"/>
      <use x="815.552734" xlink:href="#DejaVuSans-111"/>
      <use x="876.734375" xlink:href="#DejaVuSans-114"/>
      <use x="916.097656" xlink:href="#DejaVuSans-109"/>
     </g>
    </g>
   </g>
   <g id="line2d_15">
    <path clip-path="url(#pc32279b636)" d="M 73.832727 295.291117 
L 73.865193 295.488 
L 74.02752 284.022388 
L 74.319709 264.191437 
L 74.514502 293.82407 
L 74.546967 293.0115 
L 74.611898 284.32061 
L 74.676829 287.749515 
L 74.871622 294.404873 
L 74.904087 294.571397 
L 74.936553 294.507821 
L 75.066415 292.779823 
L 77.079273 257.102533 
L 80.066095 222.771462 
L 80.747869 216.780725 
L 81.364713 213.762819 
L 81.786764 211.859975 
L 82.436073 209.174968 
L 82.825658 208.238583 
L 82.987985 208.093189 
L 83.539898 206.967231 
L 84.156742 205.17528 
L 84.546327 204.838798 
L 84.74112 204.821558 
L 84.935913 204.533489 
L 85.325498 203.908168 
L 85.747549 203.743435 
L 86.007273 203.560149 
L 86.331927 203.453112 
L 86.591651 203.625541 
L 87.370822 204.317284 
L 87.630545 204.564373 
L 88.182458 204.97811 
L 90.032989 205.459602 
L 90.260247 205.492502 
L 90.877091 205.621909 
L 91.201745 205.977352 
L 91.915985 206.032109 
L 92.078313 206.002746 
L 92.338036 205.863718 
L 93.376931 205.417388 
L 93.701585 205.313366 
L 93.928844 205.168088 
L 95.032669 205.170223 
L 95.324858 205.065609 
L 96.071564 204.700604 
L 96.428684 204.838918 
L 97.207855 205.11034 
L 97.59744 204.914476 
L 98.214284 204.715553 
L 99.188247 203.648425 
L 99.447971 203.660572 
L 99.707695 203.656113 
L 99.967418 203.67904 
L 100.4544 203.998356 
L 101.071244 204.057393 
L 101.428364 203.7797 
L 101.558225 203.6109 
L 101.850415 203.281263 
L 102.110138 203.141793 
L 102.272465 203.25027 
L 102.921775 203.791515 
L 103.765876 204.041091 
L 103.928204 204.071053 
L 104.220393 204.077241 
L 104.350255 204.139453 
L 104.512582 204.265214 
L 105.032029 205.342962 
L 105.389149 206.138738 
L 105.713804 206.908647 
L 106.005993 207.344061 
L 106.233251 207.711825 
L 106.687767 208.79313 
L 107.272145 210.230891 
L 107.661731 210.820628 
L 108.116247 211.3297 
L 108.635695 212.381173 
L 109.544727 214.037682 
L 109.577193 214.006082 
L 109.901847 213.718428 
L 110.031709 213.522059 
L 110.258967 213.280181 
L 110.518691 213.245028 
L 110.778415 213.391159 
L 111.005673 214.029616 
L 111.914705 216.370897 
L 111.979636 216.432935 
L 112.23936 216.803358 
L 112.271825 216.782552 
L 112.564015 216.526935 
L 112.791273 216.204347 
L 112.823738 216.294034 
L 112.888669 216.251222 
L 112.986065 216.418611 
L 113.115927 216.56326 
L 113.148393 216.485724 
L 113.180858 216.428394 
L 113.245789 216.533687 
L 113.635375 217.26102 
L 113.862633 217.546461 
L 114.674269 219.112913 
L 114.836596 219.151874 
L 115.031389 219.074496 
L 115.258647 218.884925 
L 115.550836 218.856394 
L 115.680698 218.821105 
L 115.713164 218.767919 
L 115.778095 218.862627 
L 115.81056 218.9124 
L 115.875491 218.841872 
L 115.907956 218.825736 
L 115.940422 218.903413 
L 116.16768 219.083641 
L 116.265076 219.131913 
L 116.297542 219.064922 
L 116.459869 218.960435 
L 117.336436 218.884122 
L 117.855884 218.289238 
L 118.018211 218.261976 
L 118.407796 218.364674 
L 118.602589 218.336697 
L 118.829847 218.35208 
L 119.089571 218.166089 
L 119.673949 217.946528 
L 119.933673 217.846351 
L 120.290793 217.781244 
L 120.550516 217.595351 
L 120.81024 217.426962 
L 121.264756 217.19996 
L 121.686807 217.590496 
L 121.914065 217.961503 
L 122.141324 218.072736 
L 122.368582 217.798002 
L 122.660771 216.757306 
L 123.050356 214.158583 
L 123.504873 211.765162 
L 123.829527 210.844768 
L 124.02432 210.629329 
L 124.186647 210.597852 
L 124.641164 210.311964 
L 125.063215 209.783817 
L 125.420335 209.326618 
L 125.582662 208.8647 
L 125.615127 208.928178 
L 125.972247 209.262886 
L 126.329367 209.011825 
L 126.751418 208.422471 
L 127.108538 208.38233 
L 127.59552 208.448764 
L 128.244829 207.80511 
L 128.439622 207.66095 
L 128.991535 207.147655 
L 129.770705 207.078087 
L 130.712204 205.918214 
L 131.101789 205.139822 
L 132.627665 203.464221 
L 132.822458 203.588662 
L 132.984785 203.781054 
L 133.147113 203.982054 
L 133.699025 204.65887 
L 133.893818 204.153491 
L 134.510662 202.147458 
L 134.608058 202.114816 
L 135.484625 204.027986 
L 135.646953 204.028053 
L 135.841745 203.836206 
L 136.101469 203.51267 
L 136.393658 203.234239 
L 136.555985 203.172381 
L 137.010502 202.690637 
L 138.081862 201.470316 
L 138.276655 201.400677 
L 138.990895 200.850383 
L 139.38048 200.297773 
L 140.192116 199.451521 
L 140.354444 199.513531 
L 141.068684 199.749753 
L 141.295942 199.078916 
L 141.815389 197.753601 
L 142.302371 197.717615 
L 142.724422 198.536617 
L 143.211404 198.527146 
L 143.536058 198.466057 
L 143.66592 198.502034 
L 143.698385 198.436865 
L 143.925644 198.221749 
L 144.152902 198.151406 
L 144.315229 198.127121 
L 144.477556 198.173263 
L 145.0944 197.94777 
L 145.321658 198.031021 
L 145.613847 198.393729 
L 146.815069 200.324232 
L 147.269585 200.386721 
L 147.399447 200.17947 
L 147.659171 199.267828 
L 148.243549 197.074235 
L 148.373411 197.07787 
L 148.698065 197.770054 
L 149.347375 200.800162 
L 149.964218 203.630679 
L 150.126545 203.724541 
L 150.256407 203.564164 
L 150.775855 201.493976 
L 150.905716 201.61361 
L 151.100509 201.984841 
L 151.619956 204.441577 
L 152.009542 206.311739 
L 152.204335 206.514669 
L 152.626385 206.365589 
L 152.821178 206.320729 
L 153.567884 205.925466 
L 153.795142 206.28319 
L 154.087331 207.221103 
L 154.639244 209.040117 
L 155.321018 209.975914 
L 155.353484 209.933932 
L 156.262516 209.348599 
L 156.814429 209.616361 
L 156.944291 209.567943 
L 156.976756 209.602142 
L 157.106618 209.766019 
L 158.210444 212.378106 
L 158.340305 212.387539 
L 158.437702 212.421866 
L 158.470167 212.358001 
L 158.632495 212.398529 
L 158.794822 212.43971 
L 158.924684 212.433624 
L 159.3792 212.94323 
L 159.703855 213.340483 
L 159.833716 213.52371 
L 160.288233 214.134268 
L 160.580422 214.426679 
L 160.80768 214.662089 
L 161.002473 214.896895 
L 161.814109 215.739337 
L 162.106298 215.719109 
L 162.268625 215.566961 
L 162.9504 214.684729 
L 163.015331 214.691195 
L 163.047796 214.80024 
L 163.145193 214.754261 
L 163.242589 214.769137 
L 163.404916 214.914046 
L 163.632175 214.982938 
L 164.249018 216.008331 
L 164.606138 216.473598 
L 164.703535 216.495659 
L 164.736 216.426305 
L 164.930793 216.344071 
L 165.515171 215.843627 
L 165.904756 215.588707 
L 166.034618 215.494378 
L 166.294342 215.338038 
L 166.489135 215.337513 
L 166.651462 215.351936 
L 167.560495 215.736525 
L 167.690356 215.640939 
L 167.885149 215.572533 
L 168.015011 215.452946 
L 168.566924 214.97425 
L 168.631855 214.823944 
L 168.696785 214.878068 
L 168.891578 214.847321 
L 168.924044 214.835771 
L 169.086371 215.064277 
L 169.216233 215.292704 
L 169.411025 215.593803 
L 170.417455 218.007203 
L 170.644713 218.069588 
L 170.774575 218.078848 
L 171.196625 218.171195 
L 171.391418 218.279918 
L 172.170589 219.457302 
L 172.560175 220.013559 
L 173.534138 220.755707 
L 173.696465 220.98136 
L 173.923724 221.325467 
L 174.118516 221.573122 
L 174.280844 221.660078 
L 174.443171 221.729204 
L 174.573033 221.779014 
L 174.995084 222.049619 
L 175.189876 222.323982 
L 175.546996 222.701499 
L 176.131375 223.66276 
L 176.16384 223.64196 
L 176.228771 223.715883 
L 176.683287 224.490347 
L 176.780684 224.637473 
L 177.267665 225.274589 
L 177.559855 225.257773 
L 178.079302 225.034031 
L 178.858473 225.571232 
L 180.157091 227.80629 
L 180.514211 227.970412 
L 181.390778 227.869626 
L 181.87776 228.210907 
L 182.527069 228.662738 
L 182.94912 228.679375 
L 183.241309 228.75238 
L 183.728291 228.807229 
L 184.474996 229.388135 
L 184.832116 229.515058 
L 184.994444 229.536158 
L 185.416495 229.414004 
L 185.676218 229.36139 
L 186.033338 229.281169 
L 186.487855 229.609565 
L 187.461818 231.298299 
L 188.370851 231.684165 
L 188.66304 231.772836 
L 189.085091 231.897384 
L 190.610967 231.210261 
L 190.838225 231.243501 
L 191.195345 231.218337 
L 191.584931 231.308923 
L 192.071913 231.554985 
L 192.299171 231.365476 
L 192.818618 230.832878 
L 193.143273 230.726063 
L 193.370531 230.749602 
L 194.993804 231.42198 
L 195.221062 231.347983 
L 195.643113 230.962412 
L 196.130095 230.3499 
L 196.584611 229.731486 
L 196.974196 229.025569 
L 197.201455 229.107258 
L 197.493644 229.280407 
L 197.915695 229.461052 
L 198.889658 228.887605 
L 199.246778 228.557182 
L 199.701295 228.372632 
L 200.188276 228.044824 
L 200.902516 227.58081 
L 201.16224 227.439165 
L 201.357033 227.394791 
L 202.363462 226.732878 
L 202.720582 226.892984 
L 203.694545 226.647882 
L 203.986735 226.471535 
L 204.213993 226.382775 
L 205.155491 225.392015 
L 206.16192 225.276997 
L 206.811229 224.999628 
L 207.428073 225.215962 
L 207.622865 225.199496 
L 208.012451 225.19989 
L 208.30464 225.07536 
L 208.596829 225.033972 
L 208.791622 224.974344 
L 209.083811 224.533273 
L 209.570793 223.743185 
L 209.830516 223.632708 
L 210.09024 223.571652 
L 210.44736 223.356722 
L 210.674618 223.287736 
L 211.1616 223.246008 
L 211.486255 222.812367 
L 211.745978 222.580148 
L 212.784873 222.706789 
L 212.979665 222.570625 
L 213.726371 221.426128 
L 214.051025 221.185496 
L 214.310749 221.368252 
L 214.797731 221.829124 
L 215.154851 221.842513 
L 215.349644 221.738404 
L 215.641833 221.450115 
L 215.966487 221.435036 
L 216.421004 221.518811 
L 216.810589 221.408442 
L 217.167709 221.37697 
L 217.524829 221.303818 
L 218.531258 221.296745 
L 218.920844 220.944975 
L 219.602618 219.789926 
L 220.349324 220.621878 
L 220.576582 220.445199 
L 221.550545 219.00617 
L 221.907665 218.955916 
L 222.069993 219.012145 
L 222.492044 218.843813 
L 223.952989 216.795921 
L 224.829556 215.880236 
L 225.154211 215.856264 
L 225.543796 215.363005 
L 226.030778 213.921161 
L 226.355433 213.327837 
L 227.459258 210.750159 
L 227.881309 210.273788 
L 228.173498 209.285837 
L 228.595549 208.054249 
L 228.855273 208.090623 
L 229.147462 208.294854 
L 229.439651 208.137215 
L 229.796771 207.04157 
L 230.283753 205.003854 
L 230.575942 204.435287 
L 230.738269 204.457449 
L 231.257716 204.798726 
L 231.744698 204.186784 
L 232.134284 203.36299 
L 232.686196 202.797718 
L 232.978385 201.947779 
L 233.238109 201.056762 
L 233.692625 199.801537 
L 233.952349 199.072249 
L 234.212073 198.512775 
L 234.439331 198.478797 
L 234.569193 198.391334 
L 235.315898 196.729154 
L 236.646982 192.329747 
L 236.841775 192.23863 
L 237.263825 191.347167 
L 238.010531 189.289702 
L 238.952029 186.08434 
L 239.309149 185.108442 
L 240.023389 183.740873 
L 240.250647 183.352779 
L 240.542836 182.475454 
L 241.127215 180.436113 
L 242.036247 179.682617 
L 242.653091 178.30131 
L 243.691985 174.434826 
L 244.276364 173.382792 
L 244.990604 172.46873 
L 245.899636 169.877462 
L 246.15936 168.980252 
L 246.613876 167.433506 
L 246.776204 167.512125 
L 246.808669 167.461088 
L 247.035927 167.271544 
L 247.490444 166.07624 
L 248.367011 162.485432 
L 248.853993 160.28396 
L 249.081251 160.089916 
L 249.405905 159.720398 
L 249.600698 159.582173 
L 249.73056 159.593503 
L 250.250007 158.364733 
L 250.899316 156.432237 
L 251.353833 155.751619 
L 251.970676 155.625139 
L 252.555055 154.280489 
L 252.717382 153.964607 
L 253.236829 152.711583 
L 253.366691 152.71127 
L 253.561484 152.815011 
L 253.821207 152.774283 
L 254.275724 153.487054 
L 254.502982 153.669713 
L 254.892567 153.269855 
L 255.184756 152.736524 
L 255.282153 152.763266 
L 255.606807 152.980305 
L 255.736669 152.827216 
L 256.353513 151.70686 
L 256.51584 151.668403 
L 256.937891 152.03363 
L 257.489804 152.579182 
L 257.717062 152.554857 
L 258.106647 152.327398 
L 258.268975 152.331369 
L 258.65856 152.338451 
L 259.113076 152.820767 
L 259.762385 154.43897 
L 260.151971 154.440067 
L 260.44416 154.090279 
L 260.509091 154.148623 
L 260.638953 154.073892 
L 260.833745 153.759252 
L 260.963607 153.926769 
L 261.905105 155.669822 
L 262.002502 155.730967 
L 262.197295 155.875903 
L 262.359622 155.845358 
L 262.976465 155.085944 
L 263.236189 155.365369 
L 263.528378 155.897404 
L 263.690705 156.152629 
L 264.01536 156.741572 
L 264.177687 156.772067 
L 264.307549 156.857937 
L 264.664669 157.377317 
L 265.054255 157.87465 
L 265.411375 158.402095 
L 265.638633 158.848435 
L 266.060684 159.90977 
L 266.482735 161.517409 
L 266.645062 161.953197 
L 266.677527 161.935934 
L 266.839855 161.620006 
L 267.099578 160.78056 
L 267.326836 160.605721 
L 267.424233 160.754747 
L 267.619025 161.317176 
L 268.268335 163.342563 
L 268.333265 163.271003 
L 268.820247 162.674566 
L 269.079971 162.702628 
L 269.242298 163.154639 
L 269.566953 163.978857 
L 269.794211 163.876822 
L 270.118865 163.569421 
L 270.346124 163.434327 
L 270.378589 163.493238 
L 271.872 166.30201 
L 272.196655 166.271446 
L 272.391447 166.102445 
L 272.423913 166.13783 
L 272.716102 167.01149 
L 273.008291 167.876736 
L 273.397876 168.479796 
L 273.592669 168.522459 
L 273.690065 168.558129 
L 273.884858 168.99986 
L 274.599098 170.476749 
L 275.118545 170.411165 
L 275.378269 170.494902 
L 275.540596 170.381037 
L 275.637993 170.545179 
L 276.092509 171.21317 
L 276.254836 171.61882 
L 278.105367 177.783541 
L 278.202764 177.789615 
L 279.468916 180.484598 
L 279.988364 181.761537 
L 280.572742 183.719847 
L 281.189585 185.104834 
L 281.449309 185.500778 
L 282.877789 189.103463 
L 283.916684 190.217422 
L 284.468596 192.181194 
L 284.533527 192.142349 
L 284.760785 192.046032 
L 285.08544 191.90131 
L 285.507491 192.245633 
L 285.539956 192.204393 
L 286.189265 191.945154 
L 286.319127 192.249957 
L 287.552815 195.444498 
L 287.974865 195.9703 
L 288.331985 196.495584 
L 288.65664 196.685552 
L 289.046225 197.19668 
L 289.241018 197.254954 
L 289.435811 197.372252 
L 289.468276 197.332865 
L 289.890327 197.250029 
L 290.020189 197.364722 
L 290.279913 197.566406 
L 290.896756 197.643513 
L 291.286342 198.073362 
L 291.481135 197.969839 
L 291.610996 197.900001 
L 291.643462 197.928254 
L 292.22784 198.72828 
L 292.58496 199.159864 
L 292.94208 199.864749 
L 293.331665 200.413012 
L 293.623855 200.753686 
L 294.01344 201.290567 
L 294.273164 201.359554 
L 294.403025 201.383025 
L 294.662749 201.393844 
L 295.019869 201.163692 
L 295.214662 200.950546 
L 295.344524 200.804063 
L 295.376989 200.839997 
L 295.539316 201.169198 
L 295.863971 201.894318 
L 296.058764 201.894924 
L 296.383418 201.631666 
L 296.675607 200.864818 
L 296.8704 200.605296 
L 297.422313 200.456104 
L 297.811898 200.648583 
L 298.169018 200.331738 
L 298.720931 199.458969 
L 298.948189 199.102715 
L 299.142982 198.895603 
L 299.532567 198.80539 
L 299.694895 198.680139 
L 299.72736 198.712711 
L 300.149411 198.575548 
L 300.701324 198.244621 
L 301.058444 198.37091 
L 301.285702 198.272652 
L 301.87008 197.469373 
L 302.292131 197.600113 
L 302.486924 197.54168 
L 302.649251 197.357339 
L 302.844044 197.128263 
L 303.201164 196.810625 
L 303.363491 196.787776 
L 303.428422 196.826419 
L 303.460887 196.767722 
L 303.720611 196.487599 
L 303.785542 196.589389 
L 304.175127 196.815597 
L 304.629644 196.63926 
L 305.181556 195.975374 
L 305.538676 195.517655 
L 305.895796 195.524035 
L 306.058124 195.473838 
L 306.285382 195.304651 
L 306.480175 195.198257 
L 306.674967 194.832944 
L 306.86976 194.2732 
L 306.967156 194.347538 
L 307.129484 194.460976 
L 307.421673 193.785477 
L 307.713862 193.859198 
L 308.493033 194.626879 
L 308.817687 194.737196 
L 309.239738 194.910251 
L 309.337135 194.967716 
L 309.3696 194.9523 
L 309.596858 194.86125 
L 309.953978 194.634602 
L 310.473425 195.309566 
L 310.700684 195.485117 
L 311.220131 195.991412 
L 311.836975 196.795254 
L 312.22656 196.772605 
L 312.356422 196.546454 
L 312.616145 196.016399 
L 312.973265 195.696338 
L 313.427782 194.673651 
L 313.492713 194.501755 
L 313.914764 193.121953 
L 313.947229 193.201603 
L 314.109556 193.26934 
L 314.888727 193.258796 
L 315.051055 193.235369 
L 315.44064 193.005398 
L 315.895156 193.507678 
L 316.349673 193.881631 
L 316.641862 193.765681 
L 317.096378 193.040538 
L 317.518429 192.276561 
L 318.102807 191.837295 
L 318.394996 191.79736 
L 319.563753 191.188127 
L 320.537716 190.669028 
L 320.927302 190.273185 
L 321.544145 190.467156 
L 321.8688 190.585005 
L 322.22592 190.563572 
L 322.355782 190.429163 
L 322.745367 189.734985 
L 323.29728 189.115359 
L 323.751796 188.687799 
L 324.303709 187.960442 
L 324.628364 188.39139 
L 324.823156 188.599276 
L 325.050415 188.485481 
L 325.472465 187.876148 
L 327.030807 185.221873 
L 327.680116 183.977322 
L 328.069702 183.468885 
L 328.232029 183.437393 
L 328.589149 183.002482 
L 329.238458 182.148345 
L 329.595578 181.388198 
L 330.017629 180.388043 
L 330.472145 179.35407 
L 330.731869 179.272235 
L 330.894196 179.230904 
L 331.15392 179.021162 
L 332.322676 175.784338 
L 332.647331 174.990068 
L 332.777193 174.887318 
L 333.523898 174.144131 
L 333.751156 173.975143 
L 334.497862 172.207867 
L 334.887447 171.170763 
L 335.277033 170.808517 
L 335.43936 170.706542 
L 335.764015 170.220189 
L 336.1536 170.415302 
L 336.250996 170.393247 
L 336.575651 169.625334 
L 337.160029 167.934683 
L 337.257425 167.817543 
L 337.484684 167.588265 
L 337.906735 167.600937 
L 337.971665 167.654305 
L 338.004131 167.615715 
L 338.328785 167.119773 
L 340.016989 163.576718 
L 340.179316 163.521169 
L 340.698764 162.943606 
L 341.575331 161.282212 
L 341.770124 161.167759 
L 341.964916 161.037508 
L 342.192175 160.703874 
L 343.880378 157.337645 
L 344.237498 157.3757 
L 345.114065 154.549129 
L 345.633513 153.110918 
L 345.79584 152.948208 
L 346.185425 152.02423 
L 347.289251 148.20269 
L 348.035956 146.451913 
L 348.912524 143.318162 
L 349.334575 141.509335 
L 350.243607 137.700669 
L 351.931811 128.558842 
L 352.775913 123.673272 
L 353.457687 119.557011 
L 354.236858 113.684227 
L 355.730269 102.633614 
L 356.087389 99.992798 
L 357.288611 90.026414 
L 357.678196 86.719589 
L 358.262575 81.832295 
L 359.788451 72.468088 
L 360.502691 67.737955 
L 360.665018 67.288308 
L 360.989673 65.857575 
L 361.963636 61.327895 
L 362.58048 58.622666 
L 362.872669 58.084021 
L 363.29472 57.28769 
L 363.359651 57.324735 
L 363.489513 57.367723 
L 363.814167 56.459856 
L 364.268684 55.017602 
L 364.463476 54.886413 
L 364.690735 54.848424 
L 364.788131 54.717419 
L 364.820596 54.78229 
L 365.210182 55.071709 
L 365.340044 55.082714 
L 365.404975 55.217886 
L 365.469905 55.138185 
L 365.534836 55.162382 
L 365.632233 55.470402 
L 365.664698 55.44558 
L 365.762095 55.326165 
L 365.79456 55.429919 
L 365.827025 55.531606 
L 365.859491 55.416664 
L 366.184145 54.980031 
L 366.281542 54.833574 
L 366.443869 54.477358 
L 366.5088 54.51919 
L 366.703593 54.362131 
L 366.930851 54.133353 
L 366.995782 54.101363 
L 367.028247 54.168893 
L 367.190575 54.265614 
L 367.482764 54.489417 
L 367.515229 54.449883 
L 368.002211 53.568 
L 368.067142 53.643241 
L 368.391796 54.443126 
L 368.586589 54.984107 
L 368.846313 55.653964 
L 368.878778 55.624515 
L 369.495622 56.322175 
L 369.625484 56.29741 
L 369.820276 56.558428 
L 370.015069 57.396824 
L 370.534516 60.950116 
L 370.696844 61.656158 
L 370.859171 62.296863 
L 372.157789 70.139189 
L 373.6512 77.357963 
L 373.878458 77.584565 
L 374.105716 78.522494 
L 375.696524 89.367911 
L 376.897745 98.015734 
L 377.676916 105.863116 
L 378.423622 111.456262 
L 380.176756 120.869998 
L 382.059753 142.396995 
L 383.001251 151.901847 
L 383.455767 154.832957 
L 383.780422 156.923782 
L 384.299869 161.832442 
L 384.916713 169.06893 
L 385.501091 174.780442 
L 386.085469 180.847273 
L 386.345193 183.248153 
L 386.50752 184.25484 
L 387.059433 188.317984 
L 387.254225 189.433662 
L 387.611345 191.508649 
L 388.812567 196.929725 
L 388.845033 196.912887 
L 388.877498 197.018411 
L 389.137222 197.74149 
L 389.559273 198.691177 
L 389.754065 199.348287 
L 389.786531 199.298979 
L 389.851462 199.369717 
L 390.143651 198.750969 
L 391.247476 194.027759 
L 391.86432 190.194048 
L 393.390196 180.346022 
L 394.429091 173.245291 
L 395.532916 165.503409 
L 396.14976 160.246688 
L 397.805498 145.593413 
L 398.487273 140.46934 
L 398.487273 140.46934 
" style="fill:none;stroke:#1f77b4;stroke-linecap:square;stroke-width:1.5;"/>
   </g>
   <g id="line2d_16">
    <path clip-path="url(#pc32279b636)" d="M 73.832727 289.88275 
L 73.865193 289.886387 
L 74.124916 287.768313 
L 74.157382 288.080619 
L 74.222313 288.351716 
L 74.449571 289.747624 
L 74.611898 289.78797 
L 74.839156 289.592462 
L 75.066415 289.808235 
L 75.261207 290.15258 
L 75.423535 289.968822 
L 75.618327 289.208966 
L 76.007913 286.486997 
L 76.689687 282.786912 
L 76.949411 282.353044 
L 77.209135 282.0999 
L 77.371462 281.744578 
L 77.696116 280.393886 
L 79.059665 270.750114 
L 80.228422 265.574835 
L 81.202385 260.563357 
L 81.559505 259.049394 
L 82.793193 252.929578 
L 83.020451 252.213874 
L 83.442502 249.968606 
L 83.994415 246.48424 
L 84.676189 243.605203 
L 84.935913 242.771195 
L 85.422895 240.052203 
L 86.007273 237.292542 
L 86.364393 236.353213 
L 86.689047 235.93599 
L 87.111098 235.592957 
L 87.59808 233.914933 
L 87.922735 232.42461 
L 88.66944 229.258507 
L 88.831767 229.242276 
L 89.059025 229.261527 
L 89.253818 229.01904 
L 89.7408 227.488797 
L 90.000524 226.947216 
L 90.942022 225.847752 
L 91.201745 225.795609 
L 91.396538 225.779861 
L 91.591331 225.719457 
L 91.786124 225.371211 
L 92.24064 224.242639 
L 92.500364 223.984632 
L 92.630225 224.144051 
L 93.019811 224.768805 
L 93.376931 224.72956 
L 94.38336 223.597951 
L 94.513222 223.561389 
L 94.675549 223.511619 
L 94.935273 223.643956 
L 95.519651 223.140835 
L 96.591011 222.257222 
L 97.013062 222.51834 
L 97.207855 222.70198 
L 97.532509 222.465785 
L 97.564975 222.512595 
L 97.824698 222.859383 
L 98.474007 222.478681 
L 98.701265 222.373902 
L 99.38304 221.512388 
L 99.934953 221.335003 
L 100.4544 220.768453 
L 101.103709 220.406563 
L 101.395898 220.175993 
L 101.720553 220.389891 
L 102.012742 220.443902 
L 103.278895 220.036373 
L 103.538618 219.725382 
L 103.895738 219.38051 
L 104.252858 219.350592 
L 104.545047 219.405073 
L 104.837236 219.303631 
L 105.356684 219.882857 
L 106.135855 220.980987 
L 106.622836 221.254135 
L 106.785164 221.133367 
L 107.629265 220.053333 
L 107.888989 219.858138 
L 108.635695 219.032271 
L 108.798022 219.137896 
L 109.836916 220.702636 
L 110.031709 220.508933 
L 110.843345 219.459472 
L 111.070604 219.54384 
L 111.297862 219.80855 
L 111.590051 220.012269 
L 112.109498 219.507549 
L 112.499084 218.881049 
L 112.791273 219.073075 
L 113.408116 220.374114 
L 113.960029 221.542406 
L 114.284684 221.580774 
L 114.544407 221.549857 
L 114.804131 221.515965 
L 114.966458 221.415513 
L 115.420975 221.036696 
L 115.81056 221.222729 
L 116.297542 221.733886 
L 116.752058 222.513997 
L 116.914385 222.58051 
L 117.141644 222.631022 
L 117.433833 222.657283 
L 118.635055 223.133193 
L 118.829847 222.73364 
L 119.122036 222.276924 
L 119.316829 222.362914 
L 119.544087 222.691324 
L 120.096 224.172593 
L 120.420655 224.753595 
L 121.199825 224.914547 
L 121.654342 225.323646 
L 122.011462 225.477145 
L 122.725702 225.026487 
L 122.95296 224.906554 
L 123.147753 224.96337 
L 123.959389 225.684013 
L 124.673629 225.044678 
L 124.900887 224.903352 
L 125.160611 224.908726 
L 126.264436 225.281024 
L 126.978676 225.545394 
L 128.114967 225.713715 
L 128.731811 226.269814 
L 128.959069 226.278119 
L 129.186327 226.274402 
L 129.446051 226.389248 
L 129.705775 226.438141 
L 129.900567 226.477465 
L 130.09536 226.564433 
L 130.355084 226.851789 
L 130.744669 226.835909 
L 130.971927 226.865974 
L 131.264116 226.971703 
L 131.653702 227.286218 
L 132.270545 227.722612 
L 132.432873 227.665247 
L 132.692596 227.588062 
L 132.887389 227.517808 
L 133.082182 227.371864 
L 133.439302 226.908288 
L 133.601629 227.082121 
L 134.186007 227.898248 
L 134.997644 228.287996 
L 135.517091 228.274185 
L 135.80928 227.886262 
L 136.198865 227.599935 
L 136.426124 227.682623 
L 137.075433 228.200196 
L 137.432553 228.227823 
L 138.016931 227.85578 
L 138.633775 226.979571 
L 138.893498 226.800997 
L 139.218153 226.682366 
L 139.672669 226.599033 
L 139.899927 226.574904 
L 140.09472 226.652207 
L 140.257047 226.671449 
L 140.744029 226.667261 
L 141.003753 226.684384 
L 141.717993 226.37063 
L 141.977716 226.374927 
L 142.367302 226.461227 
L 142.562095 226.558394 
L 142.854284 226.657786 
L 143.276335 226.933039 
L 143.536058 226.964276 
L 143.66592 226.99167 
L 144.412625 227.32321 
L 145.029469 227.381752 
L 145.678778 227.440889 
L 145.906036 227.476884 
L 146.847535 227.87695 
L 147.23712 227.780498 
L 147.431913 227.60851 
L 147.691636 227.396916 
L 147.918895 227.436774 
L 148.925324 228.485771 
L 149.37984 229.108079 
L 149.672029 229.250675 
L 150.418735 230.059202 
L 151.035578 230.103322 
L 151.782284 230.459481 
L 152.204335 230.530347 
L 152.399127 230.624937 
L 152.561455 230.688855 
L 154.249658 232.838188 
L 154.639244 232.839786 
L 155.158691 232.647541 
L 155.515811 232.8687 
L 155.840465 233.073004 
L 156.327447 233.42302 
L 156.781964 233.611074 
L 157.268945 233.886752 
L 157.918255 233.871826 
L 158.145513 234.174364 
L 158.567564 234.744876 
L 158.859753 234.97869 
L 159.411665 235.376694 
L 159.833716 235.355231 
L 160.320698 235.493754 
L 161.099869 235.984003 
L 161.87904 236.212503 
L 162.366022 236.192529 
L 162.755607 236.157369 
L 163.762036 236.732172 
L 165.580102 237.030464 
L 167.398167 237.604165 
L 168.339665 237.970651 
L 168.501993 238.030531 
L 169.898007 238.913425 
L 171.229091 238.833364 
L 171.716073 238.994815 
L 172.267985 238.811022 
L 172.982225 238.535778 
L 173.209484 238.597116 
L 173.566604 238.763999 
L 174.540567 238.795017 
L 174.930153 238.655635 
L 175.417135 238.388088 
L 175.709324 238.334658 
L 176.131375 238.4771 
L 176.748218 238.34569 
L 177.2352 238.265067 
L 177.657251 238.051391 
L 178.079302 237.789184 
L 179.0208 237.306994 
L 179.37792 237.184077 
L 180.481745 236.45944 
L 181.52064 236.139765 
L 182.429673 235.531029 
L 183.436102 235.486764 
L 184.215273 235.454627 
L 184.929513 235.118156 
L 185.44896 234.909598 
L 186.487855 234.434099 
L 186.942371 234.421717 
L 187.299491 234.342125 
L 188.435782 233.894997 
L 189.214953 233.788165 
L 189.701935 233.562341 
L 190.253847 233.052179 
L 191.000553 232.530595 
L 191.455069 232.222438 
L 191.942051 231.904478 
L 193.922444 231.184383 
L 195.058735 230.615066 
L 196.097629 230.506635 
L 198.532538 230.576291 
L 199.961018 230.739206 
L 202.493324 230.959107 
L 204.343855 230.634156 
L 205.09056 230.782029 
L 207.330676 230.427083 
L 208.174778 229.745516 
L 209.343535 229.224558 
L 210.025309 229.16536 
L 210.707084 229.235434 
L 211.810909 229.043753 
L 212.362822 228.75611 
L 212.914735 228.473067 
L 213.239389 228.509049 
L 213.564044 228.498708 
L 213.888698 228.579339 
L 214.7328 229.079214 
L 215.024989 229.119579 
L 215.382109 229.092969 
L 215.674298 228.994117 
L 216.356073 229.104243 
L 216.778124 229.309661 
L 217.394967 229.271941 
L 218.206604 229.159663 
L 218.693585 229.000852 
L 219.01824 229.019544 
L 219.277964 229.020314 
L 220.186996 229.250706 
L 220.933702 229.206721 
L 221.290822 229.154899 
L 221.485615 229.149335 
L 221.8752 228.990035 
L 222.459578 228.933699 
L 222.751767 228.908009 
L 223.498473 228.771309 
L 224.407505 228.43812 
L 226.355433 227.890363 
L 226.647622 227.69158 
L 227.264465 227.8182 
L 227.718982 227.134497 
L 228.043636 226.782096 
L 228.238429 226.829925 
L 228.433222 226.811274 
L 228.66048 226.657688 
L 228.952669 226.558294 
L 229.472116 226.338052 
L 229.699375 226.088057 
L 229.959098 225.85782 
L 230.153891 225.817828 
L 230.575942 225.832418 
L 230.8032 225.743215 
L 231.225251 225.784049 
L 232.199215 224.983868 
L 233.173178 225.264134 
L 233.367971 224.999431 
L 233.66016 224.621475 
L 233.887418 224.595682 
L 234.861382 225.083789 
L 235.218502 225.061566 
L 235.348364 224.963551 
L 235.640553 224.608412 
L 235.900276 224.432918 
L 236.095069 224.409955 
L 236.582051 224.250528 
L 237.166429 224.094736 
L 237.426153 223.890904 
L 237.750807 223.782029 
L 238.692305 223.385937 
L 239.568873 222.650605 
L 239.601338 222.701783 
L 239.666269 222.629698 
L 239.958458 222.428372 
L 240.055855 222.585878 
L 240.120785 222.531381 
L 240.867491 221.71053 
L 241.322007 221.703605 
L 241.549265 221.624286 
L 242.166109 221.187793 
L 242.58816 220.903015 
L 243.010211 221.057006 
L 243.334865 220.744054 
L 243.854313 220.365835 
L 244.146502 220.256791 
L 244.536087 220.239388 
L 244.990604 220.228963 
L 246.061964 219.105546 
L 246.51648 218.355253 
L 246.8736 218.332343 
L 247.522909 218.963403 
L 247.555375 218.901186 
L 247.815098 218.386093 
L 248.139753 217.846844 
L 248.561804 217.599746 
L 249.113716 217.37329 
L 250.055215 216.09267 
L 250.185076 216.161654 
L 250.412335 216.236335 
L 251.094109 215.653964 
L 251.126575 215.689288 
L 251.51616 215.715821 
L 251.808349 215.399529 
L 252.035607 215.217115 
L 252.262865 215.074745 
L 252.652451 214.567588 
L 252.749847 214.447193 
L 253.106967 214.024582 
L 253.334225 213.962548 
L 254.113396 213.753599 
L 254.989964 212.608264 
L 255.184756 212.59498 
L 255.541876 212.898278 
L 255.671738 212.816988 
L 256.87296 211.051641 
L 257.165149 210.70342 
L 257.522269 210.558655 
L 257.684596 210.546549 
L 258.074182 210.238762 
L 258.431302 210.018738 
L 258.593629 209.968201 
L 258.918284 210.031203 
L 259.145542 209.73604 
L 259.535127 208.990453 
L 259.72992 208.951728 
L 260.184436 208.983672 
L 261.450589 207.525697 
L 261.612916 207.4159 
L 262.814138 206.239963 
L 263.106327 206.013552 
L 263.690705 206.094289 
L 264.047825 205.64932 
L 264.340015 205.435547 
L 265.151651 204.808827 
L 265.378909 204.806456 
L 266.255476 204.34902 
L 266.612596 204.00935 
L 266.937251 204.305119 
L 267.132044 204.261674 
L 267.521629 204.245211 
L 267.781353 204.235472 
L 268.041076 204.260271 
L 268.235869 204.142786 
L 268.787782 203.663918 
L 269.144902 203.6642 
L 269.794211 203.448027 
L 270.183796 203.347228 
L 270.475985 203.063461 
L 270.638313 203.130674 
L 270.865571 203.144441 
L 271.125295 202.99025 
L 271.612276 202.859634 
L 271.807069 202.882012 
L 272.034327 202.868291 
L 272.261585 202.738695 
L 272.553775 202.705893 
L 272.910895 203.055267 
L 273.008291 203.114864 
L 273.495273 203.462573 
L 273.722531 203.24506 
L 274.436771 202.313286 
L 275.08608 202.174255 
L 275.637993 201.790131 
L 276.092509 201.642301 
L 276.547025 202.032675 
L 277.001542 201.560536 
L 277.2288 201.357292 
L 277.618385 201.317991 
L 277.780713 201.342054 
L 278.105367 201.19296 
L 278.462487 201.074123 
L 278.949469 201.311187 
L 279.37152 201.058092 
L 279.988364 200.223732 
L 280.150691 200.261155 
L 280.280553 200.257252 
L 280.475345 200.076949 
L 280.8 199.768022 
L 281.124655 199.748323 
L 281.286982 199.826694 
L 281.51424 200.003827 
L 282.033687 200.717505 
L 282.22848 200.652505 
L 282.650531 200.358357 
L 283.234909 200.160639 
L 283.916684 200.657256 
L 284.111476 200.57205 
L 284.3712 200.376323 
L 284.890647 200.120094 
L 285.08544 199.909326 
L 285.962007 200.11619 
L 286.286662 200.331315 
L 286.546385 200.512128 
L 286.903505 200.764756 
L 287.293091 200.689312 
L 287.520349 200.717961 
L 287.715142 200.6605 
L 287.877469 200.611321 
L 288.202124 200.632002 
L 288.429382 200.773376 
L 288.786502 201.062052 
L 289.01376 200.945821 
L 289.338415 200.696259 
L 289.598138 200.927368 
L 289.792931 200.973973 
L 289.955258 200.967445 
L 290.409775 200.901878 
L 290.929222 200.608709 
L 291.124015 200.583785 
L 291.318807 200.534331 
L 291.546065 200.546375 
L 291.708393 200.591864 
L 292.195375 201.153253 
L 292.325236 201.076453 
L 292.520029 200.870724 
L 292.682356 200.765784 
L 292.909615 200.880022 
L 293.169338 200.881747 
L 293.558924 200.633286 
L 293.786182 200.722326 
L 293.916044 200.686711 
L 294.208233 200.554392 
L 294.435491 200.674454 
L 294.597818 200.655299 
L 295.117265 200.58837 
L 295.376989 200.421019 
L 295.928902 200.563311 
L 296.773004 200.433978 
L 297.097658 200.669011 
L 297.259985 200.755455 
L 297.454778 200.765549 
L 298.396276 200.383813 
L 298.948189 199.935319 
L 299.305309 200.080682 
L 299.597498 200.432704 
L 299.72736 200.571063 
L 300.052015 201.091556 
L 300.376669 201.045558 
L 300.603927 200.939011 
L 300.766255 201.037527 
L 301.220771 201.279072 
L 301.610356 201.124322 
L 301.707753 201.105951 
L 302.2272 200.547894 
L 302.844044 200.860083 
L 303.103767 200.991034 
L 303.558284 201.034789 
L 305.08416 200.442833 
L 305.246487 200.39787 
L 305.733469 200.733508 
L 306.252916 200.651527 
L 306.480175 200.733792 
L 306.739898 200.941033 
L 306.967156 200.934064 
L 307.454138 200.614566 
L 307.648931 200.783317 
L 308.006051 201.199004 
L 308.168378 201.351317 
L 308.200844 201.329749 
L 308.428102 200.835328 
L 308.752756 200.062151 
L 308.785222 200.07818 
L 309.044945 200.073493 
L 309.434531 200.108402 
L 309.791651 199.937582 
L 310.051375 199.977456 
L 310.343564 200.120229 
L 311.025338 200.100976 
L 311.674647 199.28932 
L 312.194095 198.993865 
L 312.58368 199.336399 
L 312.746007 199.275723 
L 313.330385 198.533177 
L 314.304349 197.985078 
L 314.499142 198.008477 
L 314.7264 197.961563 
L 315.148451 198.232739 
L 315.44064 198.523501 
L 315.960087 198.326695 
L 316.187345 197.852796 
L 316.641862 196.47863 
L 316.966516 196.079039 
L 317.128844 196.153701 
L 317.258705 196.073218 
L 317.550895 196.068254 
L 317.972945 196.58358 
L 318.232669 196.420973 
L 318.65472 195.360179 
L 319.01184 194.72275 
L 319.498822 194.588796 
L 319.661149 194.41903 
L 319.758545 194.427078 
L 320.0832 194.231495 
L 320.180596 194.176641 
L 320.44032 193.915255 
L 321.446749 193.251138 
L 321.641542 193.301262 
L 321.803869 193.044587 
L 322.031127 192.278936 
L 322.453178 191.124363 
L 322.745367 190.878983 
L 322.875229 191.00091 
L 323.070022 191.186482 
L 323.102487 191.163644 
L 323.557004 190.940629 
L 324.238778 189.938548 
L 324.660829 189.790252 
L 325.050415 189.446445 
L 325.375069 188.879546 
L 325.79712 188.080784 
L 326.024378 187.922855 
L 326.576291 187.807186 
L 326.900945 187.420766 
L 327.2256 187.457671 
L 327.58272 187.321041 
L 328.29696 186.320353 
L 328.783942 186.165881 
L 329.141062 186.069641 
L 329.433251 185.914081 
L 329.595578 185.751716 
L 330.342284 184.691276 
L 330.602007 184.523111 
L 331.283782 183.944508 
L 331.575971 184.193654 
L 332.095418 184.978752 
L 332.127884 184.952776 
L 332.257745 184.700832 
L 332.712262 183.742654 
L 332.93952 183.587022 
L 333.394036 183.823394 
L 333.945949 183.570612 
L 334.432931 182.851099 
L 334.822516 183.108648 
L 335.049775 183.344724 
L 335.309498 183.490914 
L 335.634153 183.714016 
L 335.893876 183.528865 
L 336.380858 183.169475 
L 336.543185 183.025561 
L 336.932771 182.639382 
L 337.452218 182.81035 
L 337.809338 183.184948 
L 338.588509 182.965418 
L 339.270284 182.538612 
L 339.465076 182.255797 
L 339.497542 182.273718 
L 339.789731 182.441248 
L 340.276713 182.710715 
L 340.43904 182.807756 
L 340.731229 183.037393 
L 340.990953 182.770601 
L 341.250676 182.637843 
L 341.445469 182.598775 
L 341.802589 182.781176 
L 342.094778 183.059041 
L 342.354502 183.021919 
L 342.516829 183.062617 
L 342.744087 182.877425 
L 343.036276 182.617018 
L 343.750516 182.449838 
L 344.107636 182.492002 
L 344.36736 182.684155 
L 344.72448 182.93194 
L 345.211462 183.19821 
L 345.763375 183.797062 
L 346.120495 183.867912 
L 346.347753 183.642296 
L 346.997062 182.782124 
L 347.159389 182.824929 
L 347.711302 183.300797 
L 347.906095 183.414428 
L 348.977455 182.986692 
L 349.594298 183.207534 
L 349.821556 183.198722 
L 350.4384 183.129953 
L 350.763055 183.349125 
L 351.412364 183.140068 
L 351.801949 183.005812 
L 351.931811 182.941578 
L 352.094138 182.879175 
L 352.516189 182.979377 
L 352.743447 183.076042 
L 353.782342 182.705798 
L 353.977135 182.57303 
L 354.36672 182.825841 
L 355.145891 183.036286 
L 355.373149 182.822011 
L 355.503011 182.73562 
L 356.054924 182.471849 
L 356.249716 182.457064 
L 356.476975 182.405495 
L 356.606836 182.549817 
L 357.093818 183.069059 
L 357.256145 183.080526 
L 357.418473 183.020568 
L 357.5808 182.733034 
L 357.808058 182.45685 
L 358.230109 182.504398 
L 358.424902 182.426907 
L 358.782022 182.409353 
L 358.911884 182.41371 
L 359.171607 182.27539 
L 359.885847 182.024728 
L 360.015709 182.079775 
L 360.210502 182.19391 
L 360.729949 182.238034 
L 361.216931 182.44624 
L 361.996102 181.731498 
L 362.255825 181.6804 
L 362.548015 181.65412 
L 362.775273 181.421242 
L 363.164858 181.485946 
L 363.781702 181.884928 
L 364.7232 181.238276 
L 364.755665 181.282556 
L 364.917993 181.288294 
L 365.340044 181.263937 
L 366.411404 181.011556 
L 366.671127 181.216026 
L 367.093178 180.919447 
L 368.067142 180.445409 
L 368.326865 180.248553 
L 368.878778 179.558753 
L 369.041105 179.646716 
L 369.170967 179.932256 
L 369.463156 180.418417 
L 369.657949 180.53437 
L 370.144931 180.78026 
L 371.216291 179.652575 
L 371.573411 179.25587 
L 371.703273 179.392813 
L 372.157789 180.076796 
L 372.352582 180.092153 
L 372.677236 180.169905 
L 373.066822 180.197334 
L 373.391476 180.319549 
L 373.683665 180.399164 
L 374.073251 179.911732 
L 374.36544 179.725229 
L 374.949818 179.903828 
L 375.014749 179.880172 
L 375.047215 179.922235 
L 375.177076 179.960759 
L 375.371869 179.893136 
L 375.728989 179.66675 
L 376.053644 179.307464 
L 376.378298 179.12465 
L 377.189935 179.218382 
L 377.352262 179.158426 
L 377.514589 179.266506 
L 377.709382 179.409219 
L 377.904175 179.189543 
L 378.131433 178.655962 
L 378.521018 178.03282 
L 378.780742 178.020263 
L 379.008 177.99371 
L 379.657309 177.674316 
L 380.209222 176.968621 
L 380.371549 176.819163 
L 380.468945 176.757865 
L 380.663738 176.515403 
L 380.858531 176.346167 
L 381.280582 175.99954 
L 381.637702 176.384934 
L 382.027287 176.547801 
L 382.254545 176.117959 
L 382.968785 174.718697 
L 383.163578 174.77094 
L 383.553164 174.953331 
L 383.780422 174.80278 
L 384.689455 173.951811 
L 385.241367 174.525184 
L 386.182865 173.356159 
L 386.280262 173.298254 
L 386.669847 172.998389 
L 386.994502 172.920932 
L 387.773673 172.75561 
L 388.065862 173.144175 
L 388.455447 172.53914 
L 388.682705 172.259954 
L 389.039825 172.046321 
L 389.267084 171.942582 
L 389.559273 171.74341 
L 389.7216 171.824392 
L 389.948858 172.036648 
L 390.273513 172.093717 
L 390.500771 171.841642 
L 391.085149 170.941346 
L 391.5072 170.142755 
L 391.701993 170.003168 
L 392.188975 170.475306 
L 392.22144 170.440017 
L 392.448698 170.336052 
L 393.130473 170.090569 
L 393.422662 169.652745 
L 393.520058 169.731996 
L 394.169367 170.443048 
L 394.429091 170.31276 
L 394.851142 169.43047 
L 395.240727 168.49707 
L 395.500451 168.52238 
L 395.922502 168.988549 
L 396.117295 169.275331 
L 396.279622 169.396891 
L 396.831535 169.083047 
L 397.415913 168.085551 
L 397.708102 167.984918 
L 397.805498 167.944985 
L 397.837964 167.971003 
L 398.032756 167.933199 
L 398.454807 167.592386 
L 398.487273 167.520406 
L 398.487273 167.520406 
" style="fill:none;stroke:#ff7f0e;stroke-linecap:square;stroke-width:1.5;"/>
   </g>
   <g id="line2d_17">
    <path clip-path="url(#pc32279b636)" d="M 73.832727 295.291117 
L 73.865193 295.486658 
L 74.02752 283.081167 
L 74.319709 267.06522 
L 74.546967 293.392776 
L 74.579433 291.919172 
L 74.676829 280.506242 
L 74.74176 282.63217 
L 74.904087 287.554086 
L 75.09888 289.140201 
L 75.163811 288.885095 
L 75.391069 286.383947 
L 76.332567 272.808215 
L 77.468858 257.09103 
L 78.67008 243.975719 
L 79.806371 233.55273 
L 80.682938 227.444058 
L 81.52704 223.066764 
L 82.24128 220.444312 
L 82.858124 218.93203 
L 83.572364 217.763436 
L 84.221673 217.072266 
L 84.708655 216.839052 
L 84.935913 216.68815 
L 85.228102 216.642388 
L 85.617687 216.839681 
L 86.234531 217.428468 
L 87.111098 218.578659 
L 88.052596 220.190859 
L 88.572044 221.255318 
L 89.188887 222.352088 
L 91.039418 226.500462 
L 94.123636 233.165425 
L 95.746909 236.175404 
L 97.694836 239.283551 
L 101.363433 245.100017 
L 104.252858 250.114828 
L 106.687767 254.812704 
L 111.947171 265.084892 
L 113.732771 268.099549 
L 115.226182 270.1566 
L 116.622196 271.753695 
L 117.693556 272.651953 
L 118.635055 273.164201 
L 119.446691 273.363684 
L 120.160931 273.320869 
L 120.907636 273.039419 
L 121.719273 272.484735 
L 122.693236 271.533324 
L 123.017891 271.15862 
L 123.245149 271.914248 
L 124.316509 274.095496 
L 124.543767 274.408531 
L 124.576233 274.32087 
L 124.73856 274.184076 
L 125.128145 274.413785 
L 125.842385 274.767374 
L 126.654022 274.920661 
L 127.498124 274.841606 
L 128.407156 274.532169 
L 129.73824 273.803472 
L 130.290153 273.619785 
L 131.004393 273.344019 
L 132.075753 272.587756 
L 134.575593 270.585426 
L 136.426124 268.796454 
L 139.02336 266.309205 
L 141.945251 263.768314 
L 143.243869 262.863505 
L 147.886429 260.104422 
L 151.555025 257.447736 
L 153.697745 256.02523 
L 155.840465 254.885727 
L 157.268945 254.259394 
L 158.989615 253.624925 
L 160.255767 253.342744 
L 160.580422 253.297006 
L 161.229731 253.162181 
L 161.554385 253.114002 
L 162.203695 252.981716 
L 162.528349 252.932531 
L 163.080262 252.817806 
L 163.404916 252.769148 
L 163.956829 252.656866 
L 164.281484 252.609005 
L 164.898327 252.496064 
L 167.041047 252.137759 
L 168.209804 251.937633 
L 169.703215 251.623336 
L 171.586211 251.183387 
L 185.384029 248.320625 
L 192.169309 246.900777 
L 197.818298 245.785272 
L 205.642473 244.510265 
L 211.583651 243.601433 
L 211.713513 243.889867 
L 211.87584 243.871064 
L 211.973236 243.873379 
L 212.070633 243.687779 
L 212.103098 243.833663 
L 212.135564 243.645732 
L 212.168029 243.800283 
L 212.265425 243.575389 
L 212.297891 243.72925 
L 212.330356 243.541671 
L 212.362822 243.694768 
L 212.460218 243.476568 
L 212.492684 243.627554 
L 212.525149 243.445644 
L 212.557615 243.593818 
L 212.655011 243.387165 
L 212.687476 243.53431 
L 212.719942 243.361345 
L 212.752407 243.507728 
L 212.849804 243.315936 
L 212.882269 243.461377 
L 212.914735 243.296158 
L 212.9472 243.441648 
L 213.044596 243.262266 
L 213.109527 243.247858 
L 213.141993 243.396818 
L 213.239389 243.224509 
L 213.336785 243.371189 
L 213.434182 243.198111 
L 213.531578 243.359944 
L 213.628975 243.179317 
L 213.726371 243.356248 
L 213.823767 243.164573 
L 213.921164 243.356517 
L 214.01856 243.148744 
L 214.115956 243.348545 
L 214.213353 243.124134 
L 214.245818 243.336562 
L 214.310749 243.323217 
L 214.408145 243.096199 
L 214.440611 243.281406 
L 214.473076 243.075089 
L 214.505542 243.259253 
L 214.602938 243.027689 
L 214.635404 243.214777 
L 214.667869 242.999402 
L 214.700335 243.195715 
L 214.797731 242.96344 
L 214.830196 243.161499 
L 214.862662 242.948478 
L 214.895127 243.145192 
L 214.992524 242.922002 
L 215.024989 243.116003 
L 215.057455 242.910416 
L 215.08992 243.103701 
L 215.187316 242.890842 
L 215.284713 243.075936 
L 215.317178 242.87545 
L 215.382109 242.888232 
L 215.479505 243.057059 
L 215.511971 243.027189 
L 215.674298 243.025651 
L 216.031418 242.946096 
L 216.193745 242.977452 
L 216.356073 242.938975 
L 216.5184 242.96676 
L 216.680727 242.943352 
L 216.907985 242.95664 
L 217.297571 242.950599 
L 218.076742 242.964566 
L 219.700015 242.928349 
L 221.388218 242.657577 
L 222.492044 242.223674 
L 223.790662 241.357925 
L 224.862022 240.408689 
L 225.349004 239.994938 
L 231.225251 235.63205 
L 233.595229 234.257509 
L 236.711913 232.923474 
L 239.114356 232.979685 
L 240.542836 233.373573 
L 242.068713 234.054 
L 243.886778 235.11683 
L 246.094429 236.661059 
L 246.970996 237.315458 
L 247.652771 237.499877 
L 248.6592 237.880584 
L 250.80192 238.818549 
L 256.678167 240.94138 
L 259.048145 241.505552 
L 262.067433 242.004805 
L 265.411375 242.340901 
L 269.209833 242.49943 
L 272.748567 242.479813 
L 273.073222 242.242806 
L 273.462807 242.148107 
L 274.72896 242.019621 
L 275.670458 241.867354 
L 282.715462 240.852683 
L 283.397236 240.656262 
L 293.721251 239.233281 
L 298.785862 238.879663 
L 305.506211 238.656225 
L 318.719651 238.349989 
L 325.147811 237.90997 
L 331.15392 237.29701 
L 336.023738 236.552533 
L 342.062313 235.387674 
L 350.146211 233.834205 
L 353.684945 233.424805 
L 354.106996 233.490038 
L 354.36672 233.484789 
L 354.983564 233.089203 
L 355.632873 233.104576 
L 357.353542 233.072828 
L 358.65216 233.142809 
L 359.074211 233.269877 
L 359.755985 233.229907 
L 361.184465 233.042751 
L 363.359651 233.098741 
L 371.216291 233.590667 
L 373.359011 233.902189 
L 373.521338 233.914963 
L 374.105716 233.766266 
L 375.209542 233.901056 
L 377.482124 234.084893 
L 380.663738 234.102142 
L 383.29344 233.975844 
L 387.124364 233.596893 
L 391.5072 233.122464 
L 395.0784 233.008018 
L 398.487273 233.019057 
L 398.487273 233.019057 
" style="fill:none;stroke:#bf00bf;stroke-linecap:square;stroke-width:1.5;"/>
   </g>
   <g id="patch_3">
    <path d="M 57.6 307.584 
L 57.6 41.472 
" style="fill:none;stroke:#000000;stroke-linecap:square;stroke-linejoin:miter;stroke-width:0.8;"/>
   </g>
   <g id="patch_4">
    <path d="M 414.72 307.584 
L 414.72 41.472 
" style="fill:none;stroke:#000000;stroke-linecap:square;stroke-linejoin:miter;stroke-width:0.8;"/>
   </g>
   <g id="patch_5">
    <path d="M 57.6 307.584 
L 414.72 307.584 
" style="fill:none;stroke:#000000;stroke-linecap:square;stroke-linejoin:miter;stroke-width:0.8;"/>
   </g>
   <g id="patch_6">
    <path d="M 57.6 41.472 
L 414.72 41.472 
" style="fill:none;stroke:#000000;stroke-linecap:square;stroke-linejoin:miter;stroke-width:0.8;"/>
   </g>
   <g id="text_17">
    <!-- Plot of Object pose error norm over a single episode  -->
    <g transform="translate(77.670938 8.59725)scale(0.12 -0.12)">
     <defs>
      <path d="M 19.671875 64.796875 
L 19.671875 37.40625 
L 32.078125 37.40625 
Q 38.96875 37.40625 42.71875 40.96875 
Q 46.484375 44.53125 46.484375 51.125 
Q 46.484375 57.671875 42.71875 61.234375 
Q 38.96875 64.796875 32.078125 64.796875 
z
M 9.8125 72.90625 
L 32.078125 72.90625 
Q 44.34375 72.90625 50.609375 67.359375 
Q 56.890625 61.8125 56.890625 51.125 
Q 56.890625 40.328125 50.609375 34.8125 
Q 44.34375 29.296875 32.078125 29.296875 
L 19.671875 29.296875 
L 19.671875 0 
L 9.8125 0 
z
" id="DejaVuSans-80"/>
      <path d="M 9.421875 75.984375 
L 18.40625 75.984375 
L 18.40625 0 
L 9.421875 0 
z
" id="DejaVuSans-108"/>
      <path id="DejaVuSans-32"/>
      <path d="M 37.109375 75.984375 
L 37.109375 68.5 
L 28.515625 68.5 
Q 23.6875 68.5 21.796875 66.546875 
Q 19.921875 64.59375 19.921875 59.515625 
L 19.921875 54.6875 
L 34.71875 54.6875 
L 34.71875 47.703125 
L 19.921875 47.703125 
L 19.921875 0 
L 10.890625 0 
L 10.890625 47.703125 
L 2.296875 47.703125 
L 2.296875 54.6875 
L 10.890625 54.6875 
L 10.890625 58.5 
Q 10.890625 67.625 15.140625 71.796875 
Q 19.390625 75.984375 28.609375 75.984375 
z
" id="DejaVuSans-102"/>
      <path d="M 48.78125 52.59375 
L 48.78125 44.1875 
Q 44.96875 46.296875 41.140625 47.34375 
Q 37.3125 48.390625 33.40625 48.390625 
Q 24.65625 48.390625 19.8125 42.84375 
Q 14.984375 37.3125 14.984375 27.296875 
Q 14.984375 17.28125 19.8125 11.734375 
Q 24.65625 6.203125 33.40625 6.203125 
Q 37.3125 6.203125 41.140625 7.25 
Q 44.96875 8.296875 48.78125 10.40625 
L 48.78125 2.09375 
Q 45.015625 0.34375 40.984375 -0.53125 
Q 36.96875 -1.421875 32.421875 -1.421875 
Q 20.0625 -1.421875 12.78125 6.34375 
Q 5.515625 14.109375 5.515625 27.296875 
Q 5.515625 40.671875 12.859375 48.328125 
Q 20.21875 56 33.015625 56 
Q 37.15625 56 41.109375 55.140625 
Q 45.0625 54.296875 48.78125 52.59375 
z
" id="DejaVuSans-99"/>
      <path d="M 2.984375 54.6875 
L 12.5 54.6875 
L 29.59375 8.796875 
L 46.6875 54.6875 
L 56.203125 54.6875 
L 35.6875 0 
L 23.484375 0 
z
" id="DejaVuSans-118"/>
      <path d="M 34.28125 27.484375 
Q 23.390625 27.484375 19.1875 25 
Q 14.984375 22.515625 14.984375 16.5 
Q 14.984375 11.71875 18.140625 8.90625 
Q 21.296875 6.109375 26.703125 6.109375 
Q 34.1875 6.109375 38.703125 11.40625 
Q 43.21875 16.703125 43.21875 25.484375 
L 43.21875 27.484375 
z
M 52.203125 31.203125 
L 52.203125 0 
L 43.21875 0 
L 43.21875 8.296875 
Q 40.140625 3.328125 35.546875 0.953125 
Q 30.953125 -1.421875 24.3125 -1.421875 
Q 15.921875 -1.421875 10.953125 3.296875 
Q 6 8.015625 6 15.921875 
Q 6 25.140625 12.171875 29.828125 
Q 18.359375 34.515625 30.609375 34.515625 
L 43.21875 34.515625 
L 43.21875 35.40625 
Q 43.21875 41.609375 39.140625 45 
Q 35.0625 48.390625 27.6875 48.390625 
Q 23 48.390625 18.546875 47.265625 
Q 14.109375 46.140625 10.015625 43.890625 
L 10.015625 52.203125 
Q 14.9375 54.109375 19.578125 55.046875 
Q 24.21875 56 28.609375 56 
Q 40.484375 56 46.34375 49.84375 
Q 52.203125 43.703125 52.203125 31.203125 
z
" id="DejaVuSans-97"/>
      <path d="M 45.40625 27.984375 
Q 45.40625 37.75 41.375 43.109375 
Q 37.359375 48.484375 30.078125 48.484375 
Q 22.859375 48.484375 18.828125 43.109375 
Q 14.796875 37.75 14.796875 27.984375 
Q 14.796875 18.265625 18.828125 12.890625 
Q 22.859375 7.515625 30.078125 7.515625 
Q 37.359375 7.515625 41.375 12.890625 
Q 45.40625 18.265625 45.40625 27.984375 
z
M 54.390625 6.78125 
Q 54.390625 -7.171875 48.1875 -13.984375 
Q 42 -20.796875 29.203125 -20.796875 
Q 24.46875 -20.796875 20.265625 -20.09375 
Q 16.0625 -19.390625 12.109375 -17.921875 
L 12.109375 -9.1875 
Q 16.0625 -11.328125 19.921875 -12.34375 
Q 23.78125 -13.375 27.78125 -13.375 
Q 36.625 -13.375 41.015625 -8.765625 
Q 45.40625 -4.15625 45.40625 5.171875 
L 45.40625 9.625 
Q 42.625 4.78125 38.28125 2.390625 
Q 33.9375 0 27.875 0 
Q 17.828125 0 11.671875 7.65625 
Q 5.515625 15.328125 5.515625 27.984375 
Q 5.515625 40.671875 11.671875 48.328125 
Q 17.828125 56 27.875 56 
Q 33.9375 56 38.28125 53.609375 
Q 42.625 51.21875 45.40625 46.390625 
L 45.40625 54.6875 
L 54.390625 54.6875 
z
" id="DejaVuSans-103"/>
      <path d="M 45.40625 46.390625 
L 45.40625 75.984375 
L 54.390625 75.984375 
L 54.390625 0 
L 45.40625 0 
L 45.40625 8.203125 
Q 42.578125 3.328125 38.25 0.953125 
Q 33.9375 -1.421875 27.875 -1.421875 
Q 17.96875 -1.421875 11.734375 6.484375 
Q 5.515625 14.40625 5.515625 27.296875 
Q 5.515625 40.1875 11.734375 48.09375 
Q 17.96875 56 27.875 56 
Q 33.9375 56 38.25 53.625 
Q 42.578125 51.265625 45.40625 46.390625 
z
M 14.796875 27.296875 
Q 14.796875 17.390625 18.875 11.75 
Q 22.953125 6.109375 30.078125 6.109375 
Q 37.203125 6.109375 41.296875 11.75 
Q 45.40625 17.390625 45.40625 27.296875 
Q 45.40625 37.203125 41.296875 42.84375 
Q 37.203125 48.484375 30.078125 48.484375 
Q 22.953125 48.484375 18.875 42.84375 
Q 14.796875 37.203125 14.796875 27.296875 
z
" id="DejaVuSans-100"/>
     </defs>
     <use xlink:href="#DejaVuSans-80"/>
     <use x="60.302734" xlink:href="#DejaVuSans-108"/>
     <use x="88.085938" xlink:href="#DejaVuSans-111"/>
     <use x="149.267578" xlink:href="#DejaVuSans-116"/>
     <use x="188.476562" xlink:href="#DejaVuSans-32"/>
     <use x="220.263672" xlink:href="#DejaVuSans-111"/>
     <use x="281.445312" xlink:href="#DejaVuSans-102"/>
     <use x="316.650391" xlink:href="#DejaVuSans-32"/>
     <use x="348.4375" xlink:href="#DejaVuSans-79"/>
     <use x="427.148438" xlink:href="#DejaVuSans-98"/>
     <use x="490.625" xlink:href="#DejaVuSans-106"/>
     <use x="518.408203" xlink:href="#DejaVuSans-101"/>
     <use x="579.931641" xlink:href="#DejaVuSans-99"/>
     <use x="634.912109" xlink:href="#DejaVuSans-116"/>
     <use x="674.121094" xlink:href="#DejaVuSans-32"/>
     <use x="705.908203" xlink:href="#DejaVuSans-112"/>
     <use x="769.384766" xlink:href="#DejaVuSans-111"/>
     <use x="830.566406" xlink:href="#DejaVuSans-115"/>
     <use x="882.666016" xlink:href="#DejaVuSans-101"/>
     <use x="944.189453" xlink:href="#DejaVuSans-32"/>
     <use x="975.976562" xlink:href="#DejaVuSans-101"/>
     <use x="1037.5" xlink:href="#DejaVuSans-114"/>
     <use x="1076.863281" xlink:href="#DejaVuSans-114"/>
     <use x="1115.726562" xlink:href="#DejaVuSans-111"/>
     <use x="1176.908203" xlink:href="#DejaVuSans-114"/>
     <use x="1218.021484" xlink:href="#DejaVuSans-32"/>
     <use x="1249.808594" xlink:href="#DejaVuSans-110"/>
     <use x="1313.1875" xlink:href="#DejaVuSans-111"/>
     <use x="1374.369141" xlink:href="#DejaVuSans-114"/>
     <use x="1413.732422" xlink:href="#DejaVuSans-109"/>
     <use x="1511.144531" xlink:href="#DejaVuSans-32"/>
     <use x="1542.931641" xlink:href="#DejaVuSans-111"/>
     <use x="1604.113281" xlink:href="#DejaVuSans-118"/>
     <use x="1663.292969" xlink:href="#DejaVuSans-101"/>
     <use x="1724.816406" xlink:href="#DejaVuSans-114"/>
     <use x="1765.929688" xlink:href="#DejaVuSans-32"/>
     <use x="1797.716797" xlink:href="#DejaVuSans-97"/>
     <use x="1858.996094" xlink:href="#DejaVuSans-32"/>
     <use x="1890.783203" xlink:href="#DejaVuSans-115"/>
     <use x="1942.882812" xlink:href="#DejaVuSans-105"/>
     <use x="1970.666016" xlink:href="#DejaVuSans-110"/>
     <use x="2034.044922" xlink:href="#DejaVuSans-103"/>
     <use x="2097.521484" xlink:href="#DejaVuSans-108"/>
     <use x="2125.304688" xlink:href="#DejaVuSans-101"/>
     <use x="2186.828125" xlink:href="#DejaVuSans-32"/>
     <use x="2218.615234" xlink:href="#DejaVuSans-101"/>
     <use x="2280.138672" xlink:href="#DejaVuSans-112"/>
     <use x="2343.615234" xlink:href="#DejaVuSans-105"/>
     <use x="2371.398438" xlink:href="#DejaVuSans-115"/>
     <use x="2423.498047" xlink:href="#DejaVuSans-111"/>
     <use x="2484.679688" xlink:href="#DejaVuSans-100"/>
     <use x="2548.15625" xlink:href="#DejaVuSans-101"/>
     <use x="2609.679688" xlink:href="#DejaVuSans-32"/>
    </g>
    <!--  Avg object pose error norm: Residual RL = 0.350, Standard = 0.273,  -->
    <g transform="translate(26.875313 22.034625)scale(0.12 -0.12)">
     <defs>
      <path d="M 34.1875 63.1875 
L 20.796875 26.90625 
L 47.609375 26.90625 
z
M 28.609375 72.90625 
L 39.796875 72.90625 
L 67.578125 0 
L 57.328125 0 
L 50.6875 18.703125 
L 17.828125 18.703125 
L 11.1875 0 
L 0.78125 0 
z
" id="DejaVuSans-65"/>
      <path d="M 11.71875 12.40625 
L 22.015625 12.40625 
L 22.015625 0 
L 11.71875 0 
z
M 11.71875 51.703125 
L 22.015625 51.703125 
L 22.015625 39.3125 
L 11.71875 39.3125 
z
" id="DejaVuSans-58"/>
      <path d="M 44.390625 34.1875 
Q 47.5625 33.109375 50.5625 29.59375 
Q 53.5625 26.078125 56.59375 19.921875 
L 66.609375 0 
L 56 0 
L 46.6875 18.703125 
Q 43.0625 26.03125 39.671875 28.421875 
Q 36.28125 30.8125 30.421875 30.8125 
L 19.671875 30.8125 
L 19.671875 0 
L 9.8125 0 
L 9.8125 72.90625 
L 32.078125 72.90625 
Q 44.578125 72.90625 50.734375 67.671875 
Q 56.890625 62.453125 56.890625 51.90625 
Q 56.890625 45.015625 53.6875 40.46875 
Q 50.484375 35.9375 44.390625 34.1875 
z
M 19.671875 64.796875 
L 19.671875 38.921875 
L 32.078125 38.921875 
Q 39.203125 38.921875 42.84375 42.21875 
Q 46.484375 45.515625 46.484375 51.90625 
Q 46.484375 58.296875 42.84375 61.546875 
Q 39.203125 64.796875 32.078125 64.796875 
z
" id="DejaVuSans-82"/>
      <path d="M 9.8125 72.90625 
L 19.671875 72.90625 
L 19.671875 8.296875 
L 55.171875 8.296875 
L 55.171875 0 
L 9.8125 0 
z
" id="DejaVuSans-76"/>
      <path d="M 10.59375 45.40625 
L 73.1875 45.40625 
L 73.1875 37.203125 
L 10.59375 37.203125 
z
M 10.59375 25.484375 
L 73.1875 25.484375 
L 73.1875 17.1875 
L 10.59375 17.1875 
z
" id="DejaVuSans-61"/>
      <path d="M 11.71875 12.40625 
L 22.015625 12.40625 
L 22.015625 4 
L 14.015625 -11.625 
L 7.71875 -11.625 
L 11.71875 4 
z
" id="DejaVuSans-44"/>
      <path d="M 53.515625 70.515625 
L 53.515625 60.890625 
Q 47.90625 63.578125 42.921875 64.890625 
Q 37.9375 66.21875 33.296875 66.21875 
Q 25.25 66.21875 20.875 63.09375 
Q 16.5 59.96875 16.5 54.203125 
Q 16.5 49.359375 19.40625 46.890625 
Q 22.3125 44.4375 30.421875 42.921875 
L 36.375 41.703125 
Q 47.40625 39.59375 52.65625 34.296875 
Q 57.90625 29 57.90625 20.125 
Q 57.90625 9.515625 50.796875 4.046875 
Q 43.703125 -1.421875 29.984375 -1.421875 
Q 24.8125 -1.421875 18.96875 -0.25 
Q 13.140625 0.921875 6.890625 3.21875 
L 6.890625 13.375 
Q 12.890625 10.015625 18.65625 8.296875 
Q 24.421875 6.59375 29.984375 6.59375 
Q 38.421875 6.59375 43.015625 9.90625 
Q 47.609375 13.234375 47.609375 19.390625 
Q 47.609375 24.75 44.3125 27.78125 
Q 41.015625 30.8125 33.5 32.328125 
L 27.484375 33.5 
Q 16.453125 35.6875 11.515625 40.375 
Q 6.59375 45.0625 6.59375 53.421875 
Q 6.59375 63.09375 13.40625 68.65625 
Q 20.21875 74.21875 32.171875 74.21875 
Q 37.3125 74.21875 42.625 73.28125 
Q 47.953125 72.359375 53.515625 70.515625 
z
" id="DejaVuSans-83"/>
     </defs>
     <use xlink:href="#DejaVuSans-32"/>
     <use x="31.787109" xlink:href="#DejaVuSans-65"/>
     <use x="94.320312" xlink:href="#DejaVuSans-118"/>
     <use x="153.5" xlink:href="#DejaVuSans-103"/>
     <use x="216.976562" xlink:href="#DejaVuSans-32"/>
     <use x="248.763672" xlink:href="#DejaVuSans-111"/>
     <use x="309.945312" xlink:href="#DejaVuSans-98"/>
     <use x="373.421875" xlink:href="#DejaVuSans-106"/>
     <use x="401.205078" xlink:href="#DejaVuSans-101"/>
     <use x="462.728516" xlink:href="#DejaVuSans-99"/>
     <use x="517.708984" xlink:href="#DejaVuSans-116"/>
     <use x="556.917969" xlink:href="#DejaVuSans-32"/>
     <use x="588.705078" xlink:href="#DejaVuSans-112"/>
     <use x="652.181641" xlink:href="#DejaVuSans-111"/>
     <use x="713.363281" xlink:href="#DejaVuSans-115"/>
     <use x="765.462891" xlink:href="#DejaVuSans-101"/>
     <use x="826.986328" xlink:href="#DejaVuSans-32"/>
     <use x="858.773438" xlink:href="#DejaVuSans-101"/>
     <use x="920.296875" xlink:href="#DejaVuSans-114"/>
     <use x="959.660156" xlink:href="#DejaVuSans-114"/>
     <use x="998.523438" xlink:href="#DejaVuSans-111"/>
     <use x="1059.705078" xlink:href="#DejaVuSans-114"/>
     <use x="1100.818359" xlink:href="#DejaVuSans-32"/>
     <use x="1132.605469" xlink:href="#DejaVuSans-110"/>
     <use x="1195.984375" xlink:href="#DejaVuSans-111"/>
     <use x="1257.166016" xlink:href="#DejaVuSans-114"/>
     <use x="1296.529297" xlink:href="#DejaVuSans-109"/>
     <use x="1393.941406" xlink:href="#DejaVuSans-58"/>
     <use x="1427.632812" xlink:href="#DejaVuSans-32"/>
     <use x="1459.419922" xlink:href="#DejaVuSans-82"/>
     <use x="1524.402344" xlink:href="#DejaVuSans-101"/>
     <use x="1585.925781" xlink:href="#DejaVuSans-115"/>
     <use x="1638.025391" xlink:href="#DejaVuSans-105"/>
     <use x="1665.808594" xlink:href="#DejaVuSans-100"/>
     <use x="1729.285156" xlink:href="#DejaVuSans-117"/>
     <use x="1792.664062" xlink:href="#DejaVuSans-97"/>
     <use x="1853.943359" xlink:href="#DejaVuSans-108"/>
     <use x="1881.726562" xlink:href="#DejaVuSans-32"/>
     <use x="1913.513672" xlink:href="#DejaVuSans-82"/>
     <use x="1982.996094" xlink:href="#DejaVuSans-76"/>
     <use x="2038.708984" xlink:href="#DejaVuSans-32"/>
     <use x="2070.496094" xlink:href="#DejaVuSans-61"/>
     <use x="2154.285156" xlink:href="#DejaVuSans-32"/>
     <use x="2186.072266" xlink:href="#DejaVuSans-48"/>
     <use x="2249.695312" xlink:href="#DejaVuSans-46"/>
     <use x="2281.482422" xlink:href="#DejaVuSans-51"/>
     <use x="2345.105469" xlink:href="#DejaVuSans-53"/>
     <use x="2408.728516" xlink:href="#DejaVuSans-48"/>
     <use x="2472.351562" xlink:href="#DejaVuSans-44"/>
     <use x="2504.138672" xlink:href="#DejaVuSans-32"/>
     <use x="2535.925781" xlink:href="#DejaVuSans-83"/>
     <use x="2599.402344" xlink:href="#DejaVuSans-116"/>
     <use x="2638.611328" xlink:href="#DejaVuSans-97"/>
     <use x="2699.890625" xlink:href="#DejaVuSans-110"/>
     <use x="2763.269531" xlink:href="#DejaVuSans-100"/>
     <use x="2826.746094" xlink:href="#DejaVuSans-97"/>
     <use x="2888.025391" xlink:href="#DejaVuSans-114"/>
     <use x="2927.388672" xlink:href="#DejaVuSans-100"/>
     <use x="2990.865234" xlink:href="#DejaVuSans-32"/>
     <use x="3022.652344" xlink:href="#DejaVuSans-61"/>
     <use x="3106.441406" xlink:href="#DejaVuSans-32"/>
     <use x="3138.228516" xlink:href="#DejaVuSans-48"/>
     <use x="3201.851562" xlink:href="#DejaVuSans-46"/>
     <use x="3233.638672" xlink:href="#DejaVuSans-50"/>
     <use x="3297.261719" xlink:href="#DejaVuSans-55"/>
     <use x="3360.884766" xlink:href="#DejaVuSans-51"/>
     <use x="3424.507812" xlink:href="#DejaVuSans-44"/>
     <use x="3456.294922" xlink:href="#DejaVuSans-32"/>
    </g>
    <!--  Baseline = 0.178 -->
    <g transform="translate(182.795625 35.472)scale(0.12 -0.12)">
     <defs>
      <path d="M 19.671875 34.8125 
L 19.671875 8.109375 
L 35.5 8.109375 
Q 43.453125 8.109375 47.28125 11.40625 
Q 51.125 14.703125 51.125 21.484375 
Q 51.125 28.328125 47.28125 31.5625 
Q 43.453125 34.8125 35.5 34.8125 
z
M 19.671875 64.796875 
L 19.671875 42.828125 
L 34.28125 42.828125 
Q 41.5 42.828125 45.03125 45.53125 
Q 48.578125 48.25 48.578125 53.8125 
Q 48.578125 59.328125 45.03125 62.0625 
Q 41.5 64.796875 34.28125 64.796875 
z
M 9.8125 72.90625 
L 35.015625 72.90625 
Q 46.296875 72.90625 52.390625 68.21875 
Q 58.5 63.53125 58.5 54.890625 
Q 58.5 48.1875 55.375 44.234375 
Q 52.25 40.28125 46.1875 39.3125 
Q 53.46875 37.75 57.5 32.78125 
Q 61.53125 27.828125 61.53125 20.40625 
Q 61.53125 10.640625 54.890625 5.3125 
Q 48.25 0 35.984375 0 
L 9.8125 0 
z
" id="DejaVuSans-66"/>
     </defs>
     <use xlink:href="#DejaVuSans-32"/>
     <use x="31.787109" xlink:href="#DejaVuSans-66"/>
     <use x="100.390625" xlink:href="#DejaVuSans-97"/>
     <use x="161.669922" xlink:href="#DejaVuSans-115"/>
     <use x="213.769531" xlink:href="#DejaVuSans-101"/>
     <use x="275.292969" xlink:href="#DejaVuSans-108"/>
     <use x="303.076172" xlink:href="#DejaVuSans-105"/>
     <use x="330.859375" xlink:href="#DejaVuSans-110"/>
     <use x="394.238281" xlink:href="#DejaVuSans-101"/>
     <use x="455.761719" xlink:href="#DejaVuSans-32"/>
     <use x="487.548828" xlink:href="#DejaVuSans-61"/>
     <use x="571.337891" xlink:href="#DejaVuSans-32"/>
     <use x="603.125" xlink:href="#DejaVuSans-48"/>
     <use x="666.748047" xlink:href="#DejaVuSans-46"/>
     <use x="698.535156" xlink:href="#DejaVuSans-49"/>
     <use x="762.158203" xlink:href="#DejaVuSans-55"/>
     <use x="825.78125" xlink:href="#DejaVuSans-56"/>
    </g>
   </g>
   <g id="legend_1">
    <g id="patch_7">
     <path d="M 64.6 93.506375 
L 154.529687 93.506375 
Q 156.529687 93.506375 156.529687 91.506375 
L 156.529687 48.472 
Q 156.529687 46.472 154.529687 46.472 
L 64.6 46.472 
Q 62.6 46.472 62.6 48.472 
L 62.6 91.506375 
Q 62.6 93.506375 64.6 93.506375 
z
" style="fill:#ffffff;opacity:0.8;stroke:#cccccc;stroke-linejoin:miter;"/>
    </g>
    <g id="line2d_18">
     <path d="M 66.6 54.570438 
L 86.6 54.570438 
" style="fill:none;stroke:#1f77b4;stroke-linecap:square;stroke-width:1.5;"/>
    </g>
    <g id="line2d_19"/>
    <g id="text_18">
     <!-- Residual RL -->
     <g transform="translate(94.6 58.070438)scale(0.1 -0.1)">
      <use xlink:href="#DejaVuSans-82"/>
      <use x="64.982422" xlink:href="#DejaVuSans-101"/>
      <use x="126.505859" xlink:href="#DejaVuSans-115"/>
      <use x="178.605469" xlink:href="#DejaVuSans-105"/>
      <use x="206.388672" xlink:href="#DejaVuSans-100"/>
      <use x="269.865234" xlink:href="#DejaVuSans-117"/>
      <use x="333.244141" xlink:href="#DejaVuSans-97"/>
      <use x="394.523438" xlink:href="#DejaVuSans-108"/>
      <use x="422.306641" xlink:href="#DejaVuSans-32"/>
      <use x="454.09375" xlink:href="#DejaVuSans-82"/>
      <use x="523.576172" xlink:href="#DejaVuSans-76"/>
     </g>
    </g>
    <g id="line2d_20">
     <path d="M 66.6 69.248563 
L 86.6 69.248563 
" style="fill:none;stroke:#ff7f0e;stroke-linecap:square;stroke-width:1.5;"/>
    </g>
    <g id="line2d_21"/>
    <g id="text_19">
     <!-- Standard -->
     <g transform="translate(94.6 72.748563)scale(0.1 -0.1)">
      <use xlink:href="#DejaVuSans-83"/>
      <use x="63.476562" xlink:href="#DejaVuSans-116"/>
      <use x="102.685547" xlink:href="#DejaVuSans-97"/>
      <use x="163.964844" xlink:href="#DejaVuSans-110"/>
      <use x="227.34375" xlink:href="#DejaVuSans-100"/>
      <use x="290.820312" xlink:href="#DejaVuSans-97"/>
      <use x="352.099609" xlink:href="#DejaVuSans-114"/>
      <use x="391.462891" xlink:href="#DejaVuSans-100"/>
     </g>
    </g>
    <g id="line2d_22">
     <path d="M 66.6 83.926688 
L 86.6 83.926688 
" style="fill:none;stroke:#bf00bf;stroke-linecap:square;stroke-width:1.5;"/>
    </g>
    <g id="line2d_23"/>
    <g id="text_20">
     <!-- Baseline -->
     <g transform="translate(94.6 87.426688)scale(0.1 -0.1)">
      <use xlink:href="#DejaVuSans-66"/>
      <use x="68.603516" xlink:href="#DejaVuSans-97"/>
      <use x="129.882812" xlink:href="#DejaVuSans-115"/>
      <use x="181.982422" xlink:href="#DejaVuSans-101"/>
      <use x="243.505859" xlink:href="#DejaVuSans-108"/>
      <use x="271.289062" xlink:href="#DejaVuSans-105"/>
      <use x="299.072266" xlink:href="#DejaVuSans-110"/>
      <use x="362.451172" xlink:href="#DejaVuSans-101"/>
     </g>
    </g>
   </g>
  </g>
 </g>
 <defs>
  <clipPath id="pc32279b636">
   <rect height="266.112" width="357.12" x="57.6" y="41.472"/>
  </clipPath>
 </defs>
</svg>
