<?xml version="1.0" encoding="utf-8" standalone="no"?>
<!DOCTYPE svg PUBLIC "-//W3C//DTD SVG 1.1//EN"
  "http://www.w3.org/Graphics/SVG/1.1/DTD/svg11.dtd">
<!-- Created with matplotlib (https://matplotlib.org/) -->
<svg height="345.6pt" version="1.1" viewBox="0 0 460.8 345.6" width="460.8pt" xmlns="http://www.w3.org/2000/svg" xmlns:xlink="http://www.w3.org/1999/xlink">
 <metadata>
  <rdf:RDF xmlns:cc="http://creativecommons.org/ns#" xmlns:dc="http://purl.org/dc/elements/1.1/" xmlns:rdf="http://www.w3.org/1999/02/22-rdf-syntax-ns#">
   <cc:Work>
    <dc:type rdf:resource="http://purl.org/dc/dcmitype/StillImage"/>
    <dc:date>2022-07-23T20:12:42.931961</dc:date>
    <dc:format>image/svg+xml</dc:format>
    <dc:creator>
     <cc:Agent>
      <dc:title>Matplotlib v3.3.4, https://matplotlib.org/</dc:title>
     </cc:Agent>
    </dc:creator>
   </cc:Work>
  </rdf:RDF>
 </metadata>
 <defs>
  <style type="text/css">*{stroke-linecap:butt;stroke-linejoin:round;}</style>
 </defs>
 <g id="figure_1">
  <g id="patch_1">
   <path d="M 0 345.6 
L 460.8 345.6 
L 460.8 0 
L 0 0 
z
" style="fill:#ffffff;"/>
  </g>
  <g id="axes_1">
   <g id="patch_2">
    <path d="M 57.6 307.584 
L 414.72 307.584 
L 414.72 41.472 
L 57.6 41.472 
z
" style="fill:#ffffff;"/>
   </g>
   <g id="matplotlib.axis_1">
    <g id="xtick_1">
     <g id="line2d_1">
      <defs>
       <path d="M 0 0 
L 0 3.5 
" id="m292e1fd619" style="stroke:#000000;stroke-width:0.8;"/>
      </defs>
      <g>
       <use style="stroke:#000000;stroke-width:0.8;" x="73.832727" xlink:href="#m292e1fd619" y="307.584"/>
      </g>
     </g>
     <g id="text_1">
      <!-- 0 -->
      <g transform="translate(70.651477 322.182437)scale(0.1 -0.1)">
       <defs>
        <path d="M 31.78125 66.40625 
Q 24.171875 66.40625 20.328125 58.90625 
Q 16.5 51.421875 16.5 36.375 
Q 16.5 21.390625 20.328125 13.890625 
Q 24.171875 6.390625 31.78125 6.390625 
Q 39.453125 6.390625 43.28125 13.890625 
Q 47.125 21.390625 47.125 36.375 
Q 47.125 51.421875 43.28125 58.90625 
Q 39.453125 66.40625 31.78125 66.40625 
z
M 31.78125 74.21875 
Q 44.046875 74.21875 50.515625 64.515625 
Q 56.984375 54.828125 56.984375 36.375 
Q 56.984375 17.96875 50.515625 8.265625 
Q 44.046875 -1.421875 31.78125 -1.421875 
Q 19.53125 -1.421875 13.0625 8.265625 
Q 6.59375 17.96875 6.59375 36.375 
Q 6.59375 54.828125 13.0625 64.515625 
Q 19.53125 74.21875 31.78125 74.21875 
z
" id="DejaVuSans-48"/>
       </defs>
       <use xlink:href="#DejaVuSans-48"/>
      </g>
     </g>
    </g>
    <g id="xtick_2">
     <g id="line2d_2">
      <g>
       <use style="stroke:#000000;stroke-width:0.8;" x="138.763636" xlink:href="#m292e1fd619" y="307.584"/>
      </g>
     </g>
     <g id="text_2">
      <!-- 2000 -->
      <g transform="translate(126.038636 322.182437)scale(0.1 -0.1)">
       <defs>
        <path d="M 19.1875 8.296875 
L 53.609375 8.296875 
L 53.609375 0 
L 7.328125 0 
L 7.328125 8.296875 
Q 12.9375 14.109375 22.625 23.890625 
Q 32.328125 33.6875 34.8125 36.53125 
Q 39.546875 41.84375 41.421875 45.53125 
Q 43.3125 49.21875 43.3125 52.78125 
Q 43.3125 58.59375 39.234375 62.25 
Q 35.15625 65.921875 28.609375 65.921875 
Q 23.96875 65.921875 18.8125 64.3125 
Q 13.671875 62.703125 7.8125 59.421875 
L 7.8125 69.390625 
Q 13.765625 71.78125 18.9375 73 
Q 24.125 74.21875 28.421875 74.21875 
Q 39.75 74.21875 46.484375 68.546875 
Q 53.21875 62.890625 53.21875 53.421875 
Q 53.21875 48.921875 51.53125 44.890625 
Q 49.859375 40.875 45.40625 35.40625 
Q 44.1875 33.984375 37.640625 27.21875 
Q 31.109375 20.453125 19.1875 8.296875 
z
" id="DejaVuSans-50"/>
       </defs>
       <use xlink:href="#DejaVuSans-50"/>
       <use x="63.623047" xlink:href="#DejaVuSans-48"/>
       <use x="127.246094" xlink:href="#DejaVuSans-48"/>
       <use x="190.869141" xlink:href="#DejaVuSans-48"/>
      </g>
     </g>
    </g>
    <g id="xtick_3">
     <g id="line2d_3">
      <g>
       <use style="stroke:#000000;stroke-width:0.8;" x="203.694545" xlink:href="#m292e1fd619" y="307.584"/>
      </g>
     </g>
     <g id="text_3">
      <!-- 4000 -->
      <g transform="translate(190.969545 322.182437)scale(0.1 -0.1)">
       <defs>
        <path d="M 37.796875 64.3125 
L 12.890625 25.390625 
L 37.796875 25.390625 
z
M 35.203125 72.90625 
L 47.609375 72.90625 
L 47.609375 25.390625 
L 58.015625 25.390625 
L 58.015625 17.1875 
L 47.609375 17.1875 
L 47.609375 0 
L 37.796875 0 
L 37.796875 17.1875 
L 4.890625 17.1875 
L 4.890625 26.703125 
z
" id="DejaVuSans-52"/>
       </defs>
       <use xlink:href="#DejaVuSans-52"/>
       <use x="63.623047" xlink:href="#DejaVuSans-48"/>
       <use x="127.246094" xlink:href="#DejaVuSans-48"/>
       <use x="190.869141" xlink:href="#DejaVuSans-48"/>
      </g>
     </g>
    </g>
    <g id="xtick_4">
     <g id="line2d_4">
      <g>
       <use style="stroke:#000000;stroke-width:0.8;" x="268.625455" xlink:href="#m292e1fd619" y="307.584"/>
      </g>
     </g>
     <g id="text_4">
      <!-- 6000 -->
      <g transform="translate(255.900455 322.182437)scale(0.1 -0.1)">
       <defs>
        <path d="M 33.015625 40.375 
Q 26.375 40.375 22.484375 35.828125 
Q 18.609375 31.296875 18.609375 23.390625 
Q 18.609375 15.53125 22.484375 10.953125 
Q 26.375 6.390625 33.015625 6.390625 
Q 39.65625 6.390625 43.53125 10.953125 
Q 47.40625 15.53125 47.40625 23.390625 
Q 47.40625 31.296875 43.53125 35.828125 
Q 39.65625 40.375 33.015625 40.375 
z
M 52.59375 71.296875 
L 52.59375 62.3125 
Q 48.875 64.0625 45.09375 64.984375 
Q 41.3125 65.921875 37.59375 65.921875 
Q 27.828125 65.921875 22.671875 59.328125 
Q 17.53125 52.734375 16.796875 39.40625 
Q 19.671875 43.65625 24.015625 45.921875 
Q 28.375 48.1875 33.59375 48.1875 
Q 44.578125 48.1875 50.953125 41.515625 
Q 57.328125 34.859375 57.328125 23.390625 
Q 57.328125 12.15625 50.6875 5.359375 
Q 44.046875 -1.421875 33.015625 -1.421875 
Q 20.359375 -1.421875 13.671875 8.265625 
Q 6.984375 17.96875 6.984375 36.375 
Q 6.984375 53.65625 15.1875 63.9375 
Q 23.390625 74.21875 37.203125 74.21875 
Q 40.921875 74.21875 44.703125 73.484375 
Q 48.484375 72.75 52.59375 71.296875 
z
" id="DejaVuSans-54"/>
       </defs>
       <use xlink:href="#DejaVuSans-54"/>
       <use x="63.623047" xlink:href="#DejaVuSans-48"/>
       <use x="127.246094" xlink:href="#DejaVuSans-48"/>
       <use x="190.869141" xlink:href="#DejaVuSans-48"/>
      </g>
     </g>
    </g>
    <g id="xtick_5">
     <g id="line2d_5">
      <g>
       <use style="stroke:#000000;stroke-width:0.8;" x="333.556364" xlink:href="#m292e1fd619" y="307.584"/>
      </g>
     </g>
     <g id="text_5">
      <!-- 8000 -->
      <g transform="translate(320.831364 322.182437)scale(0.1 -0.1)">
       <defs>
        <path d="M 31.78125 34.625 
Q 24.75 34.625 20.71875 30.859375 
Q 16.703125 27.09375 16.703125 20.515625 
Q 16.703125 13.921875 20.71875 10.15625 
Q 24.75 6.390625 31.78125 6.390625 
Q 38.8125 6.390625 42.859375 10.171875 
Q 46.921875 13.96875 46.921875 20.515625 
Q 46.921875 27.09375 42.890625 30.859375 
Q 38.875 34.625 31.78125 34.625 
z
M 21.921875 38.8125 
Q 15.578125 40.375 12.03125 44.71875 
Q 8.5 49.078125 8.5 55.328125 
Q 8.5 64.0625 14.71875 69.140625 
Q 20.953125 74.21875 31.78125 74.21875 
Q 42.671875 74.21875 48.875 69.140625 
Q 55.078125 64.0625 55.078125 55.328125 
Q 55.078125 49.078125 51.53125 44.71875 
Q 48 40.375 41.703125 38.8125 
Q 48.828125 37.15625 52.796875 32.3125 
Q 56.78125 27.484375 56.78125 20.515625 
Q 56.78125 9.90625 50.3125 4.234375 
Q 43.84375 -1.421875 31.78125 -1.421875 
Q 19.734375 -1.421875 13.25 4.234375 
Q 6.78125 9.90625 6.78125 20.515625 
Q 6.78125 27.484375 10.78125 32.3125 
Q 14.796875 37.15625 21.921875 38.8125 
z
M 18.3125 54.390625 
Q 18.3125 48.734375 21.84375 45.5625 
Q 25.390625 42.390625 31.78125 42.390625 
Q 38.140625 42.390625 41.71875 45.5625 
Q 45.3125 48.734375 45.3125 54.390625 
Q 45.3125 60.0625 41.71875 63.234375 
Q 38.140625 66.40625 31.78125 66.40625 
Q 25.390625 66.40625 21.84375 63.234375 
Q 18.3125 60.0625 18.3125 54.390625 
z
" id="DejaVuSans-56"/>
       </defs>
       <use xlink:href="#DejaVuSans-56"/>
       <use x="63.623047" xlink:href="#DejaVuSans-48"/>
       <use x="127.246094" xlink:href="#DejaVuSans-48"/>
       <use x="190.869141" xlink:href="#DejaVuSans-48"/>
      </g>
     </g>
    </g>
    <g id="xtick_6">
     <g id="line2d_6">
      <g>
       <use style="stroke:#000000;stroke-width:0.8;" x="398.487273" xlink:href="#m292e1fd619" y="307.584"/>
      </g>
     </g>
     <g id="text_6">
      <!-- 10000 -->
      <g transform="translate(382.581023 322.182437)scale(0.1 -0.1)">
       <defs>
        <path d="M 12.40625 8.296875 
L 28.515625 8.296875 
L 28.515625 63.921875 
L 10.984375 60.40625 
L 10.984375 69.390625 
L 28.421875 72.90625 
L 38.28125 72.90625 
L 38.28125 8.296875 
L 54.390625 8.296875 
L 54.390625 0 
L 12.40625 0 
z
" id="DejaVuSans-49"/>
       </defs>
       <use xlink:href="#DejaVuSans-49"/>
       <use x="63.623047" xlink:href="#DejaVuSans-48"/>
       <use x="127.246094" xlink:href="#DejaVuSans-48"/>
       <use x="190.869141" xlink:href="#DejaVuSans-48"/>
       <use x="254.492188" xlink:href="#DejaVuSans-48"/>
      </g>
     </g>
    </g>
    <g id="text_7">
     <!-- Num-time-steps -->
     <g transform="translate(196.056094 335.860562)scale(0.1 -0.1)">
      <defs>
       <path d="M 9.8125 72.90625 
L 23.09375 72.90625 
L 55.421875 11.921875 
L 55.421875 72.90625 
L 64.984375 72.90625 
L 64.984375 0 
L 51.703125 0 
L 19.390625 60.984375 
L 19.390625 0 
L 9.8125 0 
z
" id="DejaVuSans-78"/>
       <path d="M 8.5 21.578125 
L 8.5 54.6875 
L 17.484375 54.6875 
L 17.484375 21.921875 
Q 17.484375 14.15625 20.5 10.265625 
Q 23.53125 6.390625 29.59375 6.390625 
Q 36.859375 6.390625 41.078125 11.03125 
Q 45.3125 15.671875 45.3125 23.6875 
L 45.3125 54.6875 
L 54.296875 54.6875 
L 54.296875 0 
L 45.3125 0 
L 45.3125 8.40625 
Q 42.046875 3.421875 37.71875 1 
Q 33.40625 -1.421875 27.6875 -1.421875 
Q 18.265625 -1.421875 13.375 4.4375 
Q 8.5 10.296875 8.5 21.578125 
z
M 31.109375 56 
z
" id="DejaVuSans-117"/>
       <path d="M 52 44.1875 
Q 55.375 50.25 60.0625 53.125 
Q 64.75 56 71.09375 56 
Q 79.640625 56 84.28125 50.015625 
Q 88.921875 44.046875 88.921875 33.015625 
L 88.921875 0 
L 79.890625 0 
L 79.890625 32.71875 
Q 79.890625 40.578125 77.09375 44.375 
Q 74.3125 48.1875 68.609375 48.1875 
Q 61.625 48.1875 57.5625 43.546875 
Q 53.515625 38.921875 53.515625 30.90625 
L 53.515625 0 
L 44.484375 0 
L 44.484375 32.71875 
Q 44.484375 40.625 41.703125 44.40625 
Q 38.921875 48.1875 33.109375 48.1875 
Q 26.21875 48.1875 22.15625 43.53125 
Q 18.109375 38.875 18.109375 30.90625 
L 18.109375 0 
L 9.078125 0 
L 9.078125 54.6875 
L 18.109375 54.6875 
L 18.109375 46.1875 
Q 21.1875 51.21875 25.484375 53.609375 
Q 29.78125 56 35.6875 56 
Q 41.65625 56 45.828125 52.96875 
Q 50 49.953125 52 44.1875 
z
" id="DejaVuSans-109"/>
       <path d="M 4.890625 31.390625 
L 31.203125 31.390625 
L 31.203125 23.390625 
L 4.890625 23.390625 
z
" id="DejaVuSans-45"/>
       <path d="M 18.3125 70.21875 
L 18.3125 54.6875 
L 36.8125 54.6875 
L 36.8125 47.703125 
L 18.3125 47.703125 
L 18.3125 18.015625 
Q 18.3125 11.328125 20.140625 9.421875 
Q 21.96875 7.515625 27.59375 7.515625 
L 36.8125 7.515625 
L 36.8125 0 
L 27.59375 0 
Q 17.1875 0 13.234375 3.875 
Q 9.28125 7.765625 9.28125 18.015625 
L 9.28125 47.703125 
L 2.6875 47.703125 
L 2.6875 54.6875 
L 9.28125 54.6875 
L 9.28125 70.21875 
z
" id="DejaVuSans-116"/>
       <path d="M 9.421875 54.6875 
L 18.40625 54.6875 
L 18.40625 0 
L 9.421875 0 
z
M 9.421875 75.984375 
L 18.40625 75.984375 
L 18.40625 64.59375 
L 9.421875 64.59375 
z
" id="DejaVuSans-105"/>
       <path d="M 56.203125 29.59375 
L 56.203125 25.203125 
L 14.890625 25.203125 
Q 15.484375 15.921875 20.484375 11.0625 
Q 25.484375 6.203125 34.421875 6.203125 
Q 39.59375 6.203125 44.453125 7.46875 
Q 49.3125 8.734375 54.109375 11.28125 
L 54.109375 2.78125 
Q 49.265625 0.734375 44.1875 -0.34375 
Q 39.109375 -1.421875 33.890625 -1.421875 
Q 20.796875 -1.421875 13.15625 6.1875 
Q 5.515625 13.8125 5.515625 26.8125 
Q 5.515625 40.234375 12.765625 48.109375 
Q 20.015625 56 32.328125 56 
Q 43.359375 56 49.78125 48.890625 
Q 56.203125 41.796875 56.203125 29.59375 
z
M 47.21875 32.234375 
Q 47.125 39.59375 43.09375 43.984375 
Q 39.0625 48.390625 32.421875 48.390625 
Q 24.90625 48.390625 20.390625 44.140625 
Q 15.875 39.890625 15.1875 32.171875 
z
" id="DejaVuSans-101"/>
       <path d="M 44.28125 53.078125 
L 44.28125 44.578125 
Q 40.484375 46.53125 36.375 47.5 
Q 32.28125 48.484375 27.875 48.484375 
Q 21.1875 48.484375 17.84375 46.4375 
Q 14.5 44.390625 14.5 40.28125 
Q 14.5 37.15625 16.890625 35.375 
Q 19.28125 33.59375 26.515625 31.984375 
L 29.59375 31.296875 
Q 39.15625 29.25 43.1875 25.515625 
Q 47.21875 21.78125 47.21875 15.09375 
Q 47.21875 7.46875 41.1875 3.015625 
Q 35.15625 -1.421875 24.609375 -1.421875 
Q 20.21875 -1.421875 15.453125 -0.5625 
Q 10.6875 0.296875 5.421875 2 
L 5.421875 11.28125 
Q 10.40625 8.6875 15.234375 7.390625 
Q 20.0625 6.109375 24.8125 6.109375 
Q 31.15625 6.109375 34.5625 8.28125 
Q 37.984375 10.453125 37.984375 14.40625 
Q 37.984375 18.0625 35.515625 20.015625 
Q 33.0625 21.96875 24.703125 23.78125 
L 21.578125 24.515625 
Q 13.234375 26.265625 9.515625 29.90625 
Q 5.8125 33.546875 5.8125 39.890625 
Q 5.8125 47.609375 11.28125 51.796875 
Q 16.75 56 26.8125 56 
Q 31.78125 56 36.171875 55.265625 
Q 40.578125 54.546875 44.28125 53.078125 
z
" id="DejaVuSans-115"/>
       <path d="M 18.109375 8.203125 
L 18.109375 -20.796875 
L 9.078125 -20.796875 
L 9.078125 54.6875 
L 18.109375 54.6875 
L 18.109375 46.390625 
Q 20.953125 51.265625 25.265625 53.625 
Q 29.59375 56 35.59375 56 
Q 45.5625 56 51.78125 48.09375 
Q 58.015625 40.1875 58.015625 27.296875 
Q 58.015625 14.40625 51.78125 6.484375 
Q 45.5625 -1.421875 35.59375 -1.421875 
Q 29.59375 -1.421875 25.265625 0.953125 
Q 20.953125 3.328125 18.109375 8.203125 
z
M 48.6875 27.296875 
Q 48.6875 37.203125 44.609375 42.84375 
Q 40.53125 48.484375 33.40625 48.484375 
Q 26.265625 48.484375 22.1875 42.84375 
Q 18.109375 37.203125 18.109375 27.296875 
Q 18.109375 17.390625 22.1875 11.75 
Q 26.265625 6.109375 33.40625 6.109375 
Q 40.53125 6.109375 44.609375 11.75 
Q 48.6875 17.390625 48.6875 27.296875 
z
" id="DejaVuSans-112"/>
      </defs>
      <use xlink:href="#DejaVuSans-78"/>
      <use x="74.804688" xlink:href="#DejaVuSans-117"/>
      <use x="138.183594" xlink:href="#DejaVuSans-109"/>
      <use x="235.595703" xlink:href="#DejaVuSans-45"/>
      <use x="271.679688" xlink:href="#DejaVuSans-116"/>
      <use x="310.888672" xlink:href="#DejaVuSans-105"/>
      <use x="338.671875" xlink:href="#DejaVuSans-109"/>
      <use x="436.083984" xlink:href="#DejaVuSans-101"/>
      <use x="497.607422" xlink:href="#DejaVuSans-45"/>
      <use x="533.691406" xlink:href="#DejaVuSans-115"/>
      <use x="585.791016" xlink:href="#DejaVuSans-116"/>
      <use x="625" xlink:href="#DejaVuSans-101"/>
      <use x="686.523438" xlink:href="#DejaVuSans-112"/>
      <use x="750" xlink:href="#DejaVuSans-115"/>
     </g>
    </g>
   </g>
   <g id="matplotlib.axis_2">
    <g id="ytick_1">
     <g id="line2d_7">
      <defs>
       <path d="M 0 0 
L -3.5 0 
" id="mfedbde5ccb" style="stroke:#000000;stroke-width:0.8;"/>
      </defs>
      <g>
       <use style="stroke:#000000;stroke-width:0.8;" x="57.6" xlink:href="#mfedbde5ccb" y="303.304325"/>
      </g>
     </g>
     <g id="text_8">
      <!-- 0.0 -->
      <g transform="translate(34.696875 307.103544)scale(0.1 -0.1)">
       <defs>
        <path d="M 10.6875 12.40625 
L 21 12.40625 
L 21 0 
L 10.6875 0 
z
" id="DejaVuSans-46"/>
       </defs>
       <use xlink:href="#DejaVuSans-48"/>
       <use x="63.623047" xlink:href="#DejaVuSans-46"/>
       <use x="95.410156" xlink:href="#DejaVuSans-48"/>
      </g>
     </g>
    </g>
    <g id="ytick_2">
     <g id="line2d_8">
      <g>
       <use style="stroke:#000000;stroke-width:0.8;" x="57.6" xlink:href="#mfedbde5ccb" y="264.279504"/>
      </g>
     </g>
     <g id="text_9">
      <!-- 0.1 -->
      <g transform="translate(34.696875 268.078723)scale(0.1 -0.1)">
       <use xlink:href="#DejaVuSans-48"/>
       <use x="63.623047" xlink:href="#DejaVuSans-46"/>
       <use x="95.410156" xlink:href="#DejaVuSans-49"/>
      </g>
     </g>
    </g>
    <g id="ytick_3">
     <g id="line2d_9">
      <g>
       <use style="stroke:#000000;stroke-width:0.8;" x="57.6" xlink:href="#mfedbde5ccb" y="225.254684"/>
      </g>
     </g>
     <g id="text_10">
      <!-- 0.2 -->
      <g transform="translate(34.696875 229.053902)scale(0.1 -0.1)">
       <use xlink:href="#DejaVuSans-48"/>
       <use x="63.623047" xlink:href="#DejaVuSans-46"/>
       <use x="95.410156" xlink:href="#DejaVuSans-50"/>
      </g>
     </g>
    </g>
    <g id="ytick_4">
     <g id="line2d_10">
      <g>
       <use style="stroke:#000000;stroke-width:0.8;" x="57.6" xlink:href="#mfedbde5ccb" y="186.229863"/>
      </g>
     </g>
     <g id="text_11">
      <!-- 0.3 -->
      <g transform="translate(34.696875 190.029082)scale(0.1 -0.1)">
       <defs>
        <path d="M 40.578125 39.3125 
Q 47.65625 37.796875 51.625 33 
Q 55.609375 28.21875 55.609375 21.1875 
Q 55.609375 10.40625 48.1875 4.484375 
Q 40.765625 -1.421875 27.09375 -1.421875 
Q 22.515625 -1.421875 17.65625 -0.515625 
Q 12.796875 0.390625 7.625 2.203125 
L 7.625 11.71875 
Q 11.71875 9.328125 16.59375 8.109375 
Q 21.484375 6.890625 26.8125 6.890625 
Q 36.078125 6.890625 40.9375 10.546875 
Q 45.796875 14.203125 45.796875 21.1875 
Q 45.796875 27.640625 41.28125 31.265625 
Q 36.765625 34.90625 28.71875 34.90625 
L 20.21875 34.90625 
L 20.21875 43.015625 
L 29.109375 43.015625 
Q 36.375 43.015625 40.234375 45.921875 
Q 44.09375 48.828125 44.09375 54.296875 
Q 44.09375 59.90625 40.109375 62.90625 
Q 36.140625 65.921875 28.71875 65.921875 
Q 24.65625 65.921875 20.015625 65.03125 
Q 15.375 64.15625 9.8125 62.3125 
L 9.8125 71.09375 
Q 15.4375 72.65625 20.34375 73.4375 
Q 25.25 74.21875 29.59375 74.21875 
Q 40.828125 74.21875 47.359375 69.109375 
Q 53.90625 64.015625 53.90625 55.328125 
Q 53.90625 49.265625 50.4375 45.09375 
Q 46.96875 40.921875 40.578125 39.3125 
z
" id="DejaVuSans-51"/>
       </defs>
       <use xlink:href="#DejaVuSans-48"/>
       <use x="63.623047" xlink:href="#DejaVuSans-46"/>
       <use x="95.410156" xlink:href="#DejaVuSans-51"/>
      </g>
     </g>
    </g>
    <g id="ytick_5">
     <g id="line2d_11">
      <g>
       <use style="stroke:#000000;stroke-width:0.8;" x="57.6" xlink:href="#mfedbde5ccb" y="147.205042"/>
      </g>
     </g>
     <g id="text_12">
      <!-- 0.4 -->
      <g transform="translate(34.696875 151.004261)scale(0.1 -0.1)">
       <use xlink:href="#DejaVuSans-48"/>
       <use x="63.623047" xlink:href="#DejaVuSans-46"/>
       <use x="95.410156" xlink:href="#DejaVuSans-52"/>
      </g>
     </g>
    </g>
    <g id="ytick_6">
     <g id="line2d_12">
      <g>
       <use style="stroke:#000000;stroke-width:0.8;" x="57.6" xlink:href="#mfedbde5ccb" y="108.180222"/>
      </g>
     </g>
     <g id="text_13">
      <!-- 0.5 -->
      <g transform="translate(34.696875 111.97944)scale(0.1 -0.1)">
       <defs>
        <path d="M 10.796875 72.90625 
L 49.515625 72.90625 
L 49.515625 64.59375 
L 19.828125 64.59375 
L 19.828125 46.734375 
Q 21.96875 47.46875 24.109375 47.828125 
Q 26.265625 48.1875 28.421875 48.1875 
Q 40.625 48.1875 47.75 41.5 
Q 54.890625 34.8125 54.890625 23.390625 
Q 54.890625 11.625 47.5625 5.09375 
Q 40.234375 -1.421875 26.90625 -1.421875 
Q 22.3125 -1.421875 17.546875 -0.640625 
Q 12.796875 0.140625 7.71875 1.703125 
L 7.71875 11.625 
Q 12.109375 9.234375 16.796875 8.0625 
Q 21.484375 6.890625 26.703125 6.890625 
Q 35.15625 6.890625 40.078125 11.328125 
Q 45.015625 15.765625 45.015625 23.390625 
Q 45.015625 31 40.078125 35.4375 
Q 35.15625 39.890625 26.703125 39.890625 
Q 22.75 39.890625 18.8125 39.015625 
Q 14.890625 38.140625 10.796875 36.28125 
z
" id="DejaVuSans-53"/>
       </defs>
       <use xlink:href="#DejaVuSans-48"/>
       <use x="63.623047" xlink:href="#DejaVuSans-46"/>
       <use x="95.410156" xlink:href="#DejaVuSans-53"/>
      </g>
     </g>
    </g>
    <g id="ytick_7">
     <g id="line2d_13">
      <g>
       <use style="stroke:#000000;stroke-width:0.8;" x="57.6" xlink:href="#mfedbde5ccb" y="69.155401"/>
      </g>
     </g>
     <g id="text_14">
      <!-- 0.6 -->
      <g transform="translate(34.696875 72.95462)scale(0.1 -0.1)">
       <use xlink:href="#DejaVuSans-48"/>
       <use x="63.623047" xlink:href="#DejaVuSans-46"/>
       <use x="95.410156" xlink:href="#DejaVuSans-54"/>
      </g>
     </g>
    </g>
    <g id="text_15">
     <!-- Obj-pose-error-norm -->
     <g transform="translate(28.617187 225.203781)rotate(-90)scale(0.1 -0.1)">
      <defs>
       <path d="M 39.40625 66.21875 
Q 28.65625 66.21875 22.328125 58.203125 
Q 16.015625 50.203125 16.015625 36.375 
Q 16.015625 22.609375 22.328125 14.59375 
Q 28.65625 6.59375 39.40625 6.59375 
Q 50.140625 6.59375 56.421875 14.59375 
Q 62.703125 22.609375 62.703125 36.375 
Q 62.703125 50.203125 56.421875 58.203125 
Q 50.140625 66.21875 39.40625 66.21875 
z
M 39.40625 74.21875 
Q 54.734375 74.21875 63.90625 63.9375 
Q 73.09375 53.65625 73.09375 36.375 
Q 73.09375 19.140625 63.90625 8.859375 
Q 54.734375 -1.421875 39.40625 -1.421875 
Q 24.03125 -1.421875 14.8125 8.828125 
Q 5.609375 19.09375 5.609375 36.375 
Q 5.609375 53.65625 14.8125 63.9375 
Q 24.03125 74.21875 39.40625 74.21875 
z
" id="DejaVuSans-79"/>
       <path d="M 48.6875 27.296875 
Q 48.6875 37.203125 44.609375 42.84375 
Q 40.53125 48.484375 33.40625 48.484375 
Q 26.265625 48.484375 22.1875 42.84375 
Q 18.109375 37.203125 18.109375 27.296875 
Q 18.109375 17.390625 22.1875 11.75 
Q 26.265625 6.109375 33.40625 6.109375 
Q 40.53125 6.109375 44.609375 11.75 
Q 48.6875 17.390625 48.6875 27.296875 
z
M 18.109375 46.390625 
Q 20.953125 51.265625 25.265625 53.625 
Q 29.59375 56 35.59375 56 
Q 45.5625 56 51.78125 48.09375 
Q 58.015625 40.1875 58.015625 27.296875 
Q 58.015625 14.40625 51.78125 6.484375 
Q 45.5625 -1.421875 35.59375 -1.421875 
Q 29.59375 -1.421875 25.265625 0.953125 
Q 20.953125 3.328125 18.109375 8.203125 
L 18.109375 0 
L 9.078125 0 
L 9.078125 75.984375 
L 18.109375 75.984375 
z
" id="DejaVuSans-98"/>
       <path d="M 9.421875 54.6875 
L 18.40625 54.6875 
L 18.40625 -0.984375 
Q 18.40625 -11.421875 14.421875 -16.109375 
Q 10.453125 -20.796875 1.609375 -20.796875 
L -1.8125 -20.796875 
L -1.8125 -13.1875 
L 0.59375 -13.1875 
Q 5.71875 -13.1875 7.5625 -10.8125 
Q 9.421875 -8.453125 9.421875 -0.984375 
z
M 9.421875 75.984375 
L 18.40625 75.984375 
L 18.40625 64.59375 
L 9.421875 64.59375 
z
" id="DejaVuSans-106"/>
       <path d="M 30.609375 48.390625 
Q 23.390625 48.390625 19.1875 42.75 
Q 14.984375 37.109375 14.984375 27.296875 
Q 14.984375 17.484375 19.15625 11.84375 
Q 23.34375 6.203125 30.609375 6.203125 
Q 37.796875 6.203125 41.984375 11.859375 
Q 46.1875 17.53125 46.1875 27.296875 
Q 46.1875 37.015625 41.984375 42.703125 
Q 37.796875 48.390625 30.609375 48.390625 
z
M 30.609375 56 
Q 42.328125 56 49.015625 48.375 
Q 55.71875 40.765625 55.71875 27.296875 
Q 55.71875 13.875 49.015625 6.21875 
Q 42.328125 -1.421875 30.609375 -1.421875 
Q 18.84375 -1.421875 12.171875 6.21875 
Q 5.515625 13.875 5.515625 27.296875 
Q 5.515625 40.765625 12.171875 48.375 
Q 18.84375 56 30.609375 56 
z
" id="DejaVuSans-111"/>
       <path d="M 41.109375 46.296875 
Q 39.59375 47.171875 37.8125 47.578125 
Q 36.03125 48 33.890625 48 
Q 26.265625 48 22.1875 43.046875 
Q 18.109375 38.09375 18.109375 28.8125 
L 18.109375 0 
L 9.078125 0 
L 9.078125 54.6875 
L 18.109375 54.6875 
L 18.109375 46.1875 
Q 20.953125 51.171875 25.484375 53.578125 
Q 30.03125 56 36.53125 56 
Q 37.453125 56 38.578125 55.875 
Q 39.703125 55.765625 41.0625 55.515625 
z
" id="DejaVuSans-114"/>
       <path d="M 54.890625 33.015625 
L 54.890625 0 
L 45.90625 0 
L 45.90625 32.71875 
Q 45.90625 40.484375 42.875 44.328125 
Q 39.84375 48.1875 33.796875 48.1875 
Q 26.515625 48.1875 22.3125 43.546875 
Q 18.109375 38.921875 18.109375 30.90625 
L 18.109375 0 
L 9.078125 0 
L 9.078125 54.6875 
L 18.109375 54.6875 
L 18.109375 46.1875 
Q 21.34375 51.125 25.703125 53.5625 
Q 30.078125 56 35.796875 56 
Q 45.21875 56 50.046875 50.171875 
Q 54.890625 44.34375 54.890625 33.015625 
z
" id="DejaVuSans-110"/>
      </defs>
      <use xlink:href="#DejaVuSans-79"/>
      <use x="78.710938" xlink:href="#DejaVuSans-98"/>
      <use x="142.1875" xlink:href="#DejaVuSans-106"/>
      <use x="169.970703" xlink:href="#DejaVuSans-45"/>
      <use x="206.054688" xlink:href="#DejaVuSans-112"/>
      <use x="269.53125" xlink:href="#DejaVuSans-111"/>
      <use x="330.712891" xlink:href="#DejaVuSans-115"/>
      <use x="382.8125" xlink:href="#DejaVuSans-101"/>
      <use x="444.335938" xlink:href="#DejaVuSans-45"/>
      <use x="480.419922" xlink:href="#DejaVuSans-101"/>
      <use x="541.943359" xlink:href="#DejaVuSans-114"/>
      <use x="581.306641" xlink:href="#DejaVuSans-114"/>
      <use x="620.169922" xlink:href="#DejaVuSans-111"/>
      <use x="681.351562" xlink:href="#DejaVuSans-114"/>
      <use x="716.089844" xlink:href="#DejaVuSans-45"/>
      <use x="752.173828" xlink:href="#DejaVuSans-110"/>
      <use x="815.552734" xlink:href="#DejaVuSans-111"/>
      <use x="876.734375" xlink:href="#DejaVuSans-114"/>
      <use x="916.097656" xlink:href="#DejaVuSans-109"/>
     </g>
    </g>
   </g>
   <g id="line2d_14">
    <path clip-path="url(#p43a1e68905)" d="M 73.832727 288.500041 
L 73.930124 288.507745 
L 74.157382 286.557699 
L 74.189847 286.803634 
L 74.482036 289.927465 
L 74.676829 290.33383 
L 74.871622 289.640532 
L 75.163811 286.933474 
L 76.332567 275.750092 
L 77.988305 264.721088 
L 78.767476 258.542054 
L 78.799942 258.623301 
L 78.832407 258.579617 
L 79.157062 256.859095 
L 79.579113 253.87518 
L 80.423215 247.613925 
L 81.16992 245.386836 
L 81.591971 241.75884 
L 82.533469 232.11182 
L 83.020451 229.223745 
L 83.734691 226.476136 
L 84.221673 223.397884 
L 84.708655 220.415148 
L 85.195636 217.442429 
L 85.844945 213.698022 
L 86.52672 211.546658 
L 86.591651 211.342069 
L 86.981236 209.889704 
L 87.24096 208.296742 
L 87.987665 203.805802 
L 88.409716 202.283868 
L 89.156422 200.691948 
L 91.299142 194.254814 
L 91.461469 194.238032 
L 91.851055 194.797748 
L 92.013382 195.057842 
L 92.59776 195.319955 
L 93.701585 192.220207 
L 93.766516 192.256331 
L 93.928844 192.476658 
L 94.643084 193.797499 
L 94.870342 193.742161 
L 95.81184 192.946714 
L 96.071564 193.251729 
L 96.623476 194.29296 
L 96.785804 194.356853 
L 97.013062 194.697885 
L 97.207855 195.218595 
L 97.467578 195.764419 
L 98.116887 195.570393 
L 98.733731 194.89784 
L 98.766196 194.926169 
L 98.993455 195.363733 
L 99.188247 196.05264 
L 99.74016 198.13613 
L 99.967418 198.529642 
L 100.324538 198.572508 
L 100.519331 198.447966 
L 100.779055 198.508368 
L 101.038778 198.714352 
L 101.330967 199.416391 
L 102.207535 201.727067 
L 102.402327 201.511884 
L 102.921775 200.968048 
L 103.343825 201.479577 
L 103.636015 202.164474 
L 104.058065 202.878084 
L 104.155462 202.982686 
L 104.285324 202.98199 
L 104.837236 202.557823 
L 105.259287 202.522566 
L 105.648873 202.406412 
L 106.005993 202.417549 
L 106.88256 202.933801 
L 107.337076 203.617605 
L 107.694196 203.398526 
L 107.921455 203.169914 
L 108.083782 203.181672 
L 108.895418 202.197763 
L 109.220073 201.801762 
L 109.447331 202.015808 
L 109.674589 202.525443 
L 110.031709 203.760886 
L 110.616087 205.375605 
L 110.778415 205.269247 
L 111.492655 203.963019 
L 111.784844 203.538646 
L 112.141964 203.236081 
L 112.336756 203.463805 
L 112.693876 203.891015 
L 112.888669 203.837584 
L 113.31072 203.609482 
L 113.570444 203.812561 
L 113.992495 204.278807 
L 114.479476 204.973006 
L 114.901527 205.18941 
L 115.09632 204.920087 
L 115.485905 203.636442 
L 116.037818 201.786768 
L 116.265076 201.491127 
L 116.492335 201.61857 
L 117.368902 202.245676 
L 117.758487 202.102067 
L 118.213004 201.455732 
L 118.375331 201.459325 
L 118.797382 202.066569 
L 119.219433 203.056268 
L 119.511622 203.426829 
L 120.45312 203.00101 
L 120.680378 203.226143 
L 121.394618 204.010997 
L 121.492015 204.105912 
L 121.52448 204.081756 
L 122.271185 203.24145 
L 122.95296 201.850454 
L 123.212684 201.730929 
L 123.31008 201.887361 
L 123.504873 202.345623 
L 123.829527 202.889848 
L 124.251578 203.32496 
L 124.543767 203.222652 
L 124.868422 202.795663 
L 125.647593 201.883496 
L 125.939782 201.847733 
L 126.16704 201.757315 
L 126.361833 201.693827 
L 126.589091 201.485406 
L 126.848815 201.363664 
L 127.043607 201.249166 
L 127.270865 201.137364 
L 127.465658 201.04482 
L 127.985105 201.030274 
L 128.634415 200.246197 
L 128.829207 200.243341 
L 128.991535 200.216674 
L 129.510982 199.971015 
L 130.030429 200.754632 
L 130.355084 201.027459 
L 130.549876 201.188201 
L 130.744669 201.27512 
L 131.101789 200.864283 
L 131.458909 200.613078 
L 131.718633 200.73089 
L 132.075753 200.39798 
L 132.725062 200.667398 
L 134.088611 202.893022 
L 134.445731 202.271901 
L 135.159971 200.69106 
L 135.354764 200.635019 
L 135.582022 200.89866 
L 135.971607 201.52921 
L 136.101469 201.616154 
L 136.426124 202.01582 
L 138.374051 204.08671 
L 138.796102 203.927333 
L 139.250618 203.075077 
L 139.445411 202.856474 
L 139.575273 202.973433 
L 139.770065 203.573212 
L 140.614167 206.286823 
L 140.711564 206.173222 
L 141.588131 204.407364 
L 142.23744 202.853343 
L 142.269905 202.866555 
L 142.432233 203.240104 
L 143.633455 206.951275 
L 143.828247 206.988845 
L 144.02304 206.970938 
L 145.516451 206.048109 
L 145.711244 206.192644 
L 146.977396 207.500117 
L 148.081222 209.165118 
L 148.243549 209.073727 
L 148.470807 208.388076 
L 148.925324 207.319007 
L 149.282444 206.843821 
L 149.477236 206.970037 
L 149.996684 207.701591 
L 150.4512 208.778193 
L 150.775855 209.675484 
L 150.938182 209.679456 
L 151.197905 209.184243 
L 151.587491 208.543155 
L 152.269265 208.050821 
L 152.431593 207.981769 
L 152.886109 207.370993 
L 153.080902 207.389152 
L 153.405556 207.858544 
L 153.795142 208.861277 
L 154.217193 209.707262 
L 154.411985 209.753363 
L 154.671709 209.316742 
L 155.061295 208.508095 
L 155.321018 208.321459 
L 155.645673 208.319214 
L 155.970327 208.134532 
L 156.16512 208.063396 
L 156.489775 208.280313 
L 157.106618 208.16785 
L 158.113047 208.082553 
L 158.502633 208.64565 
L 158.827287 209.00172 
L 159.573993 209.06648 
L 159.833716 208.926515 
L 159.996044 208.904575 
L 160.353164 209.079792 
L 160.547956 209.101118 
L 160.840145 208.683677 
L 161.262196 208.034513 
L 161.586851 207.838477 
L 161.781644 207.783936 
L 161.943971 207.926612 
L 162.625745 208.820691 
L 163.080262 209.4184 
L 163.275055 209.423866 
L 163.437382 209.284853 
L 163.729571 208.835908 
L 164.151622 208.443029 
L 164.411345 208.292492 
L 164.768465 208.000532 
L 165.515171 208.39456 
L 166.16448 208.843536 
L 166.359273 208.718264 
L 166.846255 208.122274 
L 167.23584 207.592704 
L 167.755287 207.183109 
L 168.144873 207.717181 
L 168.566924 208.164962 
L 168.826647 208.103655 
L 169.053905 208.026352 
L 169.800611 208.220338 
L 170.060335 208.056882 
L 170.774575 207.475188 
L 171.099229 207.300374 
L 171.52128 207.368036 
L 172.073193 207.656835 
L 173.047156 207.720402 
L 174.053585 207.520759 
L 174.475636 207.917045 
L 175.060015 207.985048 
L 175.611927 207.789063 
L 176.066444 207.845559 
L 176.488495 207.973854 
L 177.722182 208.238527 
L 178.436422 208.829906 
L 178.696145 208.747994 
L 179.085731 208.636498 
L 179.280524 208.826958 
L 180.027229 209.863651 
L 180.09216 209.805261 
L 180.546676 209.499527 
L 180.8064 209.441265 
L 181.195985 209.513107 
L 181.618036 209.337492 
L 182.169949 209.171173 
L 183.630895 209.466069 
L 184.182807 209.000588 
L 185.221702 209.522581 
L 185.611287 209.611875 
L 186.195665 209.406568 
L 186.617716 209.344548 
L 187.818938 209.296036 
L 188.435782 209.103748 
L 188.890298 208.911463 
L 189.279884 209.016536 
L 190.578502 209.457905 
L 191.422604 209.579341 
L 192.039447 209.711409 
L 193.013411 210.177557 
L 193.565324 210.148582 
L 193.987375 210.162823 
L 195.350924 210.631834 
L 195.80544 210.601796 
L 196.51968 210.50427 
L 202.330996 210.041974 
L 203.110167 209.73223 
L 203.824407 209.509571 
L 204.473716 209.378427 
L 205.187956 209.215049 
L 205.577542 209.2083 
L 206.032058 209.256983 
L 206.973556 209.293124 
L 207.622865 209.271794 
L 209.213673 209.395894 
L 209.603258 209.232928 
L 211.1616 208.802938 
L 211.453789 208.843211 
L 211.713513 208.713864 
L 211.843375 208.649399 
L 212.23296 208.475361 
L 213.109527 208.412676 
L 213.531578 208.462352 
L 214.213353 208.730308 
L 214.765265 208.957058 
L 215.511971 209.012253 
L 217.362502 208.985636 
L 217.557295 208.953488 
L 218.596189 208.777134 
L 218.726051 208.66509 
L 218.758516 208.708677 
L 218.953309 208.848317 
L 219.148102 208.74493 
L 219.797411 208.370437 
L 220.576582 207.726683 
L 220.706444 207.649894 
L 222.167389 206.345206 
L 222.784233 205.804061 
L 224.115316 204.606232 
L 225.284073 203.856042 
L 225.835985 203.255501 
L 226.193105 202.986843 
L 226.680087 202.768129 
L 227.167069 202.550067 
L 228.011171 201.513704 
L 228.66048 200.969143 
L 229.082531 201.077788 
L 229.407185 201.015731 
L 229.829236 200.563546 
L 230.608407 200.02079 
L 231.062924 199.804916 
L 231.939491 199.377547 
L 232.458938 199.227681 
L 232.816058 198.866749 
L 233.30304 198.372064 
L 233.725091 198.222438 
L 234.212073 198.188276 
L 234.569193 197.970364 
L 235.932742 196.470953 
L 236.776844 195.688831 
L 237.036567 195.563337 
L 238.562444 194.214955 
L 238.757236 194.247096 
L 239.081891 194.295339 
L 239.698735 193.75807 
L 240.283113 192.906806 
L 240.542836 192.61239 
L 240.737629 192.612501 
L 241.257076 192.570639 
L 241.679127 192.334972 
L 243.3024 189.774257 
L 244.341295 189.119215 
L 244.665949 188.652858 
L 245.023069 188.484154 
L 245.672378 188.334627 
L 245.769775 188.243859 
L 246.191825 187.458772 
L 246.581411 186.736514 
L 247.457978 185.343151 
L 247.912495 184.431279 
L 248.6592 183.865398 
L 248.983855 183.268868 
L 249.438371 182.31794 
L 249.763025 182.081005 
L 249.925353 182.068679 
L 250.347404 181.065888 
L 251.223971 179.044468 
L 251.646022 178.42608 
L 251.905745 178.368563 
L 252.262865 178.055128 
L 252.717382 178.018235 
L 252.847244 178.002085 
L 253.334225 177.179527 
L 253.65888 176.364708 
L 254.016 175.364132 
L 254.308189 174.74212 
L 254.600378 174.369136 
L 254.762705 174.274782 
L 255.184756 173.371813 
L 255.282153 173.155563 
L 255.314618 173.176779 
L 255.476945 173.141452 
L 255.931462 172.532545 
L 256.548305 171.491599 
L 256.775564 171.089569 
L 257.197615 170.647012 
L 258.041716 169.214965 
L 258.463767 168.551061 
L 258.853353 168.102237 
L 258.983215 168.062842 
L 259.210473 167.720207 
L 259.697455 166.398359 
L 259.859782 166.400794 
L 260.054575 166.389439 
L 260.346764 165.996117 
L 261.483055 163.799713 
L 261.87264 163.571633 
L 262.424553 162.682705 
L 262.781673 162.258613 
L 262.911535 162.209798 
L 263.30112 161.864011 
L 263.593309 162.090655 
L 263.755636 161.887455 
L 264.989324 159.19207 
L 265.346444 158.519463 
L 265.573702 158.323181 
L 266.223011 158.749606 
L 266.417804 158.646061 
L 266.645062 158.176008 
L 267.099578 156.922604 
L 267.326836 156.567047 
L 267.456698 156.356164 
L 268.041076 155.377504 
L 268.3008 155.829022 
L 268.560524 156.154742 
L 268.885178 155.971046 
L 269.112436 155.311935 
L 269.502022 154.384544 
L 269.761745 154.357407 
L 270.346124 153.254104 
L 270.605847 152.727621 
L 270.962967 152.292806 
L 271.287622 152.575087 
L 271.51488 152.751907 
L 272.001862 152.138294 
L 272.294051 151.761042 
L 272.423913 151.700309 
L 273.008291 150.782929 
L 273.6576 148.94443 
L 273.754996 148.920131 
L 273.787462 148.968769 
L 273.949789 149.376952 
L 274.339375 150.221766 
L 274.534167 150.294249 
L 274.696495 150.109925 
L 275.08608 149.180881 
L 275.605527 147.074601 
L 275.897716 146.219107 
L 276.092509 146.027547 
L 276.287302 146.349483 
L 276.709353 147.329601 
L 276.774284 147.219945 
L 277.780713 145.372751 
L 277.813178 145.403992 
L 278.040436 145.701432 
L 278.430022 146.438431 
L 278.494953 146.394662 
L 278.852073 145.690538 
L 279.793571 144.059877 
L 279.826036 144.079657 
L 280.183156 144.437938 
L 280.670138 145.226138 
L 280.8 145.21436 
L 282.033687 144.067369 
L 282.358342 144.529908 
L 282.5856 145.076152 
L 283.007651 144.697142 
L 283.429702 144.038233 
L 283.559564 143.915352 
L 283.916684 144.171156 
L 284.143942 144.347579 
L 284.533527 144.190212 
L 285.150371 144.793224 
L 285.345164 145.241992 
L 285.669818 145.884787 
L 285.79968 145.821908 
L 285.994473 145.524974 
L 286.189265 145.346739 
L 286.384058 145.304564 
L 286.773644 144.953763 
L 287.617745 145.892023 
L 287.845004 145.954757 
L 288.007331 146.205182 
L 288.234589 146.410804 
L 288.981295 146.73571 
L 289.241018 146.42953 
L 289.305949 146.360137 
L 289.338415 146.382843 
L 290.020189 147.324964 
L 290.279913 147.563597 
L 290.701964 147.686695 
L 291.481135 150.040461 
L 291.5136 150.027201 
L 291.708393 149.95284 
L 291.935651 149.672183 
L 291.968116 149.600337 
L 292.033047 149.66 
L 292.422633 150.197752 
L 293.136873 151.263061 
L 293.169338 151.241881 
L 293.364131 151.232102 
L 293.526458 151.179826 
L 293.818647 151.703706 
L 294.208233 152.355953 
L 294.467956 152.459762 
L 294.597818 152.10388 
L 294.922473 151.344297 
L 295.0848 151.239805 
L 295.44192 151.86992 
L 295.831505 152.515414 
L 296.675607 153.865505 
L 296.935331 154.160771 
L 297.162589 154.251917 
L 297.389847 154.484556 
L 297.58464 154.42478 
L 297.876829 154.2165 
L 298.071622 154.145517 
L 298.233949 154.194043 
L 298.948189 155.537208 
L 299.142982 155.559685 
L 299.272844 155.286608 
L 299.597498 154.398326 
L 300.052015 154.483026 
L 300.4416 154.757824 
L 300.636393 154.733515 
L 300.896116 154.756804 
L 301.350633 155.627159 
L 301.902545 156.196284 
L 302.2272 156.22721 
L 302.811578 154.963249 
L 302.876509 155.017791 
L 303.623215 155.895701 
L 303.882938 156.342398 
L 304.402385 156.469006 
L 304.629644 156.460784 
L 304.759505 156.352483 
L 304.954298 155.738569 
L 305.376349 154.598676 
L 305.571142 154.535 
L 305.928262 154.90138 
L 306.187985 155.23407 
L 306.707433 154.86291 
L 306.999622 154.27772 
L 307.324276 154.0559 
L 307.584 154.166028 
L 308.070982 155.025232 
L 308.265775 155.139834 
L 308.493033 154.913212 
L 308.817687 154.435516 
L 309.01248 154.277954 
L 309.564393 154.327356 
L 309.856582 154.137473 
L 310.051375 154.10025 
L 310.116305 154.124455 
L 310.733149 155.364437 
L 310.79808 155.291169 
L 311.057804 154.843087 
L 311.544785 153.601384 
L 311.707113 153.54938 
L 311.966836 153.612399 
L 312.486284 154.45419 
L 312.648611 154.443899 
L 313.427782 153.280301 
L 314.109556 152.483913 
L 314.304349 152.425869 
L 314.629004 152.846698 
L 315.538036 155.289413 
L 315.700364 155.36925 
L 315.927622 154.76762 
L 316.284742 153.811449 
L 316.382138 153.67717 
L 316.934051 152.597919 
L 317.193775 152.339727 
L 317.323636 152.350885 
L 317.485964 152.632472 
L 318.2976 155.30669 
L 318.557324 155.298829 
L 319.044305 155.887397 
L 319.141702 155.876821 
L 320.018269 154.785268 
L 320.375389 154.929452 
L 321.284422 157.337729 
L 321.446749 157.285505 
L 321.609076 157.04647 
L 322.031127 156.433715 
L 322.420713 155.946386 
L 322.58304 155.876354 
L 322.94016 156.572366 
L 323.070022 156.792943 
L 323.589469 158.002707 
L 323.621935 157.968009 
L 324.433571 156.525496 
L 324.660829 156.166891 
L 325.44 155.740952 
L 325.732189 155.778177 
L 325.991913 155.752872 
L 326.349033 155.645576 
L 326.738618 155.48569 
L 326.86848 155.674407 
L 327.290531 156.249221 
L 327.647651 155.906327 
L 328.394356 154.878318 
L 328.556684 154.984844 
L 328.816407 155.124415 
L 329.36832 155.116564 
L 330.017629 155.881484 
L 330.212422 155.894083 
L 330.569542 155.629379 
L 330.861731 155.312109 
L 331.186385 154.954616 
L 331.738298 154.317748 
L 332.22528 153.954938 
L 332.517469 153.884645 
L 332.777193 153.836762 
L 333.036916 153.951324 
L 333.751156 153.864189 
L 334.075811 153.747284 
L 334.432931 153.841251 
L 335.893876 153.486679 
L 336.640582 152.325314 
L 336.802909 152.387019 
L 337.387287 153.066183 
L 337.549615 153.08134 
L 338.101527 152.57879 
L 338.458647 152.127127 
L 339.107956 151.672382 
L 339.659869 152.020792 
L 339.789731 151.953288 
L 339.919593 151.840206 
L 339.952058 151.870284 
L 340.309178 151.724896 
L 340.990953 151.236786 
L 341.218211 151.380611 
L 341.348073 151.333541 
L 341.672727 151.084292 
L 342.029847 150.92682 
L 342.322036 150.988924 
L 342.58176 150.927231 
L 342.744087 150.814453 
L 342.906415 150.73681 
L 343.231069 150.840614 
L 343.425862 150.82776 
L 343.718051 150.832751 
L 344.334895 150.56402 
L 345.146531 151.529316 
L 345.471185 151.991081 
L 345.601047 151.975926 
L 345.860771 151.470351 
L 346.477615 150.530051 
L 346.834735 150.243563 
L 347.386647 150.703995 
L 347.711302 151.008085 
L 348.230749 151.305227 
L 348.425542 151.340882 
L 348.782662 151.35304 
L 348.912524 151.364837 
L 349.237178 151.37918 
L 349.594298 151.207948 
L 350.016349 151.416996 
L 350.470865 151.300705 
L 350.827985 150.869583 
L 350.860451 150.894101 
L 351.120175 151.027434 
L 351.769484 151.597199 
L 352.029207 151.437363 
L 352.256465 151.308641 
L 352.613585 151.36267 
L 353.230429 151.356314 
L 353.555084 151.435746 
L 354.106996 151.368817 
L 354.301789 151.428001 
L 355.340684 150.389764 
L 355.373149 150.420983 
L 355.567942 150.677309 
L 355.827665 150.975623 
L 356.50944 150.719239 
L 356.899025 150.118941 
L 357.256145 149.855444 
L 357.386007 149.811932 
L 357.775593 149.607207 
L 358.067782 149.777301 
L 358.457367 149.546594 
L 358.717091 149.348044 
L 359.626124 149.649405 
L 360.015709 149.467514 
L 360.242967 149.371512 
L 360.535156 149.111918 
L 361.054604 149.043027 
L 361.541585 149.521253 
L 362.028567 149.229324 
L 362.645411 149.179771 
L 362.872669 149.248127 
L 363.327185 149.201762 
L 364.236218 148.362347 
L 364.788131 148.625623 
L 365.08032 148.908912 
L 365.210182 148.801674 
L 365.340044 148.670564 
L 365.372509 148.691159 
L 366.184145 149.327728 
L 366.314007 149.434104 
L 366.5088 149.564096 
L 366.703593 149.48279 
L 366.995782 149.166376 
L 367.158109 149.121659 
L 367.417833 149.171948 
L 367.710022 149.086647 
L 367.839884 148.915981 
L 368.132073 148.513577 
L 368.619055 148.078324 
L 368.781382 148.075866 
L 369.041105 148.000224 
L 369.268364 148.145852 
L 369.36576 148.207971 
L 369.398225 148.173935 
L 369.690415 147.995274 
L 370.112465 147.85721 
L 370.534516 147.482473 
L 371.021498 147.108426 
L 371.573411 146.582021 
L 372.027927 146.53971 
L 372.157789 146.538414 
L 372.547375 146.025403 
L 372.839564 145.57834 
L 372.969425 145.621597 
L 373.229149 145.698347 
L 373.423942 145.510479 
L 373.716131 145.313575 
L 373.878458 145.297656 
L 374.138182 145.168858 
L 374.560233 144.659998 
L 374.819956 144.586645 
L 375.047215 144.550549 
L 375.339404 144.587651 
L 375.599127 144.703038 
L 375.761455 144.69563 
L 375.956247 144.681104 
L 376.410764 144.284541 
L 376.767884 143.539335 
L 377.904175 143.679771 
L 378.228829 143.194632 
L 378.845673 142.691634 
L 379.040465 142.657349 
L 379.559913 142.910961 
L 379.787171 142.745422 
L 380.144291 142.597193 
L 380.274153 142.576082 
L 380.501411 142.553163 
L 380.696204 142.489668 
L 381.085789 142.018557 
L 381.280582 141.946443 
L 381.800029 142.286144 
L 382.124684 142.401493 
L 382.449338 142.402641 
L 382.838924 142.236677 
L 383.488233 142.61618 
L 384.267404 142.450805 
L 384.397265 142.390913 
L 384.949178 141.910459 
L 384.981644 141.946999 
L 385.111505 141.92585 
L 385.760815 141.279585 
L 386.085469 141.493428 
L 387.059433 140.954592 
L 387.189295 141.048704 
L 387.351622 141.123161 
L 387.513949 141.253598 
L 387.741207 141.384293 
L 388.325585 141.149979 
L 388.845033 141.613723 
L 389.00736 141.504331 
L 389.202153 141.340889 
L 389.36448 141.38952 
L 390.143651 142.369072 
L 390.241047 142.404263 
L 390.403375 142.851564 
L 390.43584 142.837674 
L 390.468305 142.800686 
L 390.533236 142.885328 
L 390.663098 143.043645 
L 390.695564 143.022586 
L 390.825425 142.893472 
L 391.052684 142.555998 
L 391.182545 142.459841 
L 391.215011 142.503177 
L 391.539665 142.470007 
L 391.669527 142.510209 
L 391.961716 142.35865 
L 392.286371 142.445881 
L 392.870749 142.901305 
L 393.260335 142.580808 
L 393.714851 143.25898 
L 393.974575 143.852802 
L 394.656349 145.14653 
L 394.688815 145.0809 
L 394.818676 145.105867 
L 394.916073 145.293487 
L 394.948538 145.223362 
L 395.532916 144.510703 
L 395.662778 144.554262 
L 395.825105 144.551414 
L 395.954967 144.570908 
L 396.636742 145.383659 
L 397.286051 146.36963 
L 398.032756 146.924697 
L 398.487273 147.205696 
L 398.487273 147.205696 
" style="fill:none;stroke:#1f77b4;stroke-linecap:square;stroke-width:1.5;"/>
   </g>
   <g id="line2d_15">
    <path clip-path="url(#p43a1e68905)" d="M 73.832727 295.254582 
L 73.865193 295.485597 
L 74.02752 279.839364 
L 74.319709 254.759304 
L 74.546967 294.351767 
L 74.579433 292.70165 
L 74.644364 283.133902 
L 74.676829 289.126075 
L 74.806691 294.046059 
L 74.871622 293.631233 
L 75.066415 288.696319 
L 75.780655 269.16352 
L 77.890909 227.939271 
L 78.605149 221.404123 
L 79.157062 212.958738 
L 79.903767 203.459295 
L 80.358284 200.386679 
L 81.104989 196.536833 
L 82.078953 190.793389 
L 82.858124 188.024438 
L 83.182778 187.24722 
L 83.637295 186.397637 
L 84.74112 184.076546 
L 85.000844 184.03624 
L 85.163171 184.269348 
L 85.747549 185.245683 
L 86.266996 185.162828 
L 86.851375 185.135655 
L 87.727942 185.425925 
L 88.214924 185.116981 
L 88.442182 185.060248 
L 88.734371 184.934517 
L 89.318749 184.902136 
L 89.675869 184.96168 
L 90.000524 184.593458 
L 90.325178 184.181839 
L 90.552436 183.805836 
L 91.104349 184.068839 
L 91.948451 184.830406 
L 92.727622 184.139441 
L 92.987345 183.520277 
L 93.247069 182.815825 
L 93.571724 182.4542 
L 94.058705 182.408919 
L 95.227462 182.828322 
L 95.389789 182.789334 
L 95.584582 182.446778 
L 95.941702 182.13969 
L 96.915665 181.35384 
L 97.792233 181.014968 
L 98.019491 181.113825 
L 98.409076 180.781793 
L 99.058385 180.154664 
L 99.285644 180.253069 
L 99.318109 180.186882 
L 99.350575 180.316266 
L 99.480436 180.435625 
L 100.032349 181.097169 
L 100.162211 181.036907 
L 100.584262 181.131329 
L 100.843985 181.561915 
L 101.233571 182.098362 
L 102.304931 183.289393 
L 102.532189 183.348055 
L 103.181498 184.121946 
L 103.636015 184.397665 
L 103.928204 184.303241 
L 104.512582 183.880061 
L 104.642444 183.979532 
L 105.324218 184.702149 
L 105.616407 184.942902 
L 105.876131 185.021857 
L 106.590371 184.999901 
L 106.752698 185.007492 
L 107.077353 185.372383 
L 107.434473 186.089975 
L 107.661731 186.421664 
L 107.694196 186.39512 
L 107.726662 186.499409 
L 107.986385 186.915225 
L 108.538298 187.467057 
L 108.765556 187.353393 
L 109.122676 187.081882 
L 109.3824 187.291174 
L 109.804451 187.813315 
L 110.421295 188.310423 
L 110.713484 188.277822 
L 111.232931 188.473163 
L 111.784844 188.407387 
L 112.369222 188.585227 
L 112.59648 188.087995 
L 112.856204 187.720539 
L 113.408116 187.223599 
L 113.830167 187.207544 
L 113.862633 187.055174 
L 113.927564 187.179342 
L 114.609338 188.573066 
L 114.7392 188.717015 
L 114.966458 188.698763 
L 115.161251 188.326691 
L 115.907956 186.59437 
L 116.135215 186.905639 
L 116.687127 188.022016 
L 116.816989 188.013345 
L 117.076713 187.700605 
L 117.433833 187.099607 
L 117.855884 186.836771 
L 117.920815 186.721258 
L 117.95328 186.758908 
L 118.213004 186.930992 
L 118.440262 186.792562 
L 119.219433 185.891 
L 119.868742 185.467947 
L 120.647913 183.402567 
L 121.069964 182.858718 
L 121.199825 182.925581 
L 121.52448 183.235171 
L 121.784204 183.178076 
L 121.946531 183.137059 
L 122.271185 182.846616 
L 123.245149 181.241598 
L 123.504873 181.149977 
L 124.186647 181.961652 
L 124.348975 181.965371 
L 124.478836 182.076129 
L 124.511302 182.02284 
L 124.641164 182.085635 
L 124.965818 182.315468 
L 125.355404 182.174686 
L 125.842385 181.733245 
L 125.874851 181.781753 
L 126.134575 181.980335 
L 126.329367 182.018261 
L 126.686487 182.375364 
L 126.718953 182.460749 
L 126.783884 182.396036 
L 126.913745 182.469232 
L 127.498124 183.047353 
L 127.530589 183.011159 
L 127.660451 182.941075 
L 127.822778 183.02611 
L 127.920175 183.130275 
L 128.699345 183.691449 
L 129.056465 183.417019 
L 129.218793 183.18814 
L 129.868102 181.769664 
L 130.484945 182.304414 
L 130.712204 182.274101 
L 131.134255 181.578161 
L 131.16672 181.618521 
L 131.361513 181.777415 
L 131.718633 182.160241 
L 131.913425 182.049324 
L 132.562735 181.556791 
L 133.179578 182.242722 
L 133.601629 182.31722 
L 133.861353 182.210917 
L 134.153542 182.071229 
L 134.575593 181.492186 
L 134.835316 181.295952 
L 135.127505 181.281658 
L 135.354764 181.586867 
L 135.45216 181.668349 
L 135.484625 181.632455 
L 135.776815 181.544223 
L 135.80928 181.80724 
L 135.874211 181.496051 
L 135.906676 181.652745 
L 135.939142 181.422894 
L 136.069004 181.005748 
L 136.101469 181.223027 
L 136.1664 180.91019 
L 136.198865 181.022187 
L 136.231331 180.824533 
L 136.296262 180.647855 
L 136.52352 180.092134 
L 136.815709 179.695739 
L 137.59488 179.129672 
L 138.276655 179.502642 
L 138.731171 180.089887 
L 139.02336 179.936973 
L 139.802531 178.708723 
L 139.932393 178.736326 
L 140.516771 179.319292 
L 141.133615 179.270853 
L 141.295942 179.350185 
L 141.717993 179.434489 
L 142.107578 179.622073 
L 142.367302 179.687916 
L 142.724422 180.246018 
L 142.756887 180.0901 
L 143.016611 179.594172 
L 143.146473 179.598593 
L 143.633455 179.617529 
L 143.828247 179.290311 
L 143.860713 179.071421 
L 143.925644 179.194527 
L 144.477556 180.084884 
L 144.932073 180.839897 
L 145.191796 180.950208 
L 145.224262 181.115309 
L 145.256727 180.949861 
L 145.419055 180.559824 
L 145.45152 180.814143 
L 145.516451 180.567982 
L 145.841105 179.945836 
L 146.16576 179.618715 
L 147.042327 181.675341 
L 147.269585 181.767743 
L 147.464378 181.561071 
L 147.496844 181.783875 
L 147.561775 181.608589 
L 147.691636 181.65117 
L 148.146153 182.174144 
L 148.698065 183.046059 
L 148.990255 183.387958 
L 149.282444 183.88969 
L 149.314909 183.866292 
L 149.444771 183.563632 
L 149.607098 183.788918 
L 149.639564 183.684401 
L 149.704495 183.782601 
L 149.964218 184.051118 
L 150.061615 184.047776 
L 150.353804 184.44157 
L 150.386269 184.409064 
L 150.905716 185.084323 
L 151.587491 186.497418 
L 152.009542 187.706375 
L 152.204335 187.86392 
L 152.2368 187.73922 
L 152.301731 187.867699 
L 152.334196 187.833089 
L 152.366662 188.117873 
L 152.431593 187.855228 
L 152.496524 187.870455 
L 152.528989 187.713304 
L 152.59392 187.872668 
L 152.821178 188.161864 
L 152.918575 188.200545 
L 153.145833 188.296611 
L 153.243229 188.378739 
L 153.762676 189.526756 
L 154.249658 190.829806 
L 154.314589 190.89347 
L 154.347055 191.180761 
L 154.444451 191.105218 
L 154.606778 191.582918 
L 154.834036 191.935905 
L 154.866502 192.163092 
L 154.931433 191.849522 
L 155.223622 191.306017 
L 155.256087 191.423691 
L 155.353484 191.359569 
L 155.418415 191.326924 
L 155.45088 191.431709 
L 155.515811 191.351414 
L 155.743069 190.875734 
L 157.431273 195.007004 
L 157.561135 194.837391 
L 157.788393 194.780982 
L 158.340305 195.311516 
L 159.02208 196.69493 
L 159.054545 196.539728 
L 159.119476 196.74876 
L 159.963578 199.644501 
L 160.385629 200.351167 
L 161.067404 201.337998 
L 161.424524 201.831452 
L 161.651782 202.324327 
L 162.138764 204.649946 
L 162.495884 206.043393 
L 162.917935 206.677187 
L 163.047796 206.706463 
L 163.080262 206.791257 
L 163.145193 206.685705 
L 163.437382 206.533582 
L 164.02176 207.734702 
L 164.346415 208.11295 
L 164.768465 208.629732 
L 164.898327 208.813323 
L 165.385309 210.263427 
L 165.80736 210.950664 
L 165.904756 210.908156 
L 166.067084 211.119004 
L 166.229411 210.891471 
L 166.261876 210.954689 
L 166.294342 210.931313 
L 166.424204 210.524759 
L 166.489135 210.563024 
L 166.716393 210.640444 
L 166.911185 211.023924 
L 167.625425 212.316193 
L 167.885149 212.723894 
L 168.3072 213.75003 
L 168.534458 214.190995 
L 168.891578 214.759532 
L 169.411025 215.147769 
L 169.995404 215.837759 
L 170.44992 216.163867 
L 170.579782 216.093821 
L 170.742109 216.16037 
L 171.066764 216.512384 
L 171.229091 216.75441 
L 172.819898 219.974144 
L 173.371811 220.397657 
L 173.599069 220.154624 
L 173.858793 219.745182 
L 174.02112 219.674985 
L 174.183447 219.793118 
L 174.540567 220.269101 
L 174.930153 220.627035 
L 176.16384 221.730857 
L 176.650822 221.865652 
L 176.87808 221.970216 
L 177.202735 222.169586 
L 177.332596 222.253043 
L 177.884509 222.891726 
L 178.014371 222.903993 
L 178.209164 222.806981 
L 178.501353 222.675737 
L 178.826007 222.556535 
L 178.923404 222.570342 
L 180.09216 223.753466 
L 180.319418 223.741638 
L 180.968727 223.673972 
L 181.553105 223.887601 
L 181.87776 224.238556 
L 182.202415 224.523144 
L 182.527069 224.569454 
L 182.819258 224.542342 
L 183.338705 224.687296 
L 183.728291 224.808793 
L 184.832116 225.443896 
L 185.286633 225.454254 
L 186.422924 225.467726 
L 186.844975 225.363745 
L 187.137164 225.483754 
L 187.656611 225.867784 
L 187.981265 225.801348 
L 188.435782 225.473346 
L 188.695505 225.322298 
L 189.052625 225.279869 
L 189.507142 225.641351 
L 189.961658 225.911483 
L 190.221382 225.809918 
L 191.033018 225.362648 
L 191.552465 225.220979 
L 191.909585 224.878371 
L 192.818618 224.095121 
L 193.760116 223.893848 
L 195.902836 223.20599 
L 198.792262 221.04206 
L 200.09088 219.965724 
L 201.681687 219.204792 
L 202.363462 218.750663 
L 202.525789 218.608585 
L 204.668509 216.151736 
L 205.220422 215.583265 
L 205.837265 214.691879 
L 206.616436 214.275378 
L 207.006022 213.571867 
L 207.460538 212.499845 
L 207.752727 212.243691 
L 208.044916 212.28523 
L 208.434502 212.213505 
L 209.798051 210.452289 
L 209.960378 210.437348 
L 210.252567 210.44704 
L 210.772015 210.102721 
L 210.999273 209.955972 
L 211.551185 209.582796 
L 211.745978 209.372736 
L 213.271855 206.767245 
L 214.083491 205.841218 
L 214.538007 204.972498 
L 214.895127 204.762306 
L 215.187316 204.7644 
L 215.44704 204.315565 
L 215.836625 203.526536 
L 215.998953 203.525306 
L 216.16128 203.517302 
L 216.5184 203.181568 
L 216.87552 202.82025 
L 217.135244 202.627071 
L 217.427433 202.188026 
L 217.849484 201.53329 
L 218.531258 201.098177 
L 218.823447 201.087013 
L 219.862342 200.158731 
L 220.057135 200.106458 
L 220.284393 200.021834 
L 220.479185 199.787561 
L 220.998633 199.049406 
L 221.615476 199.314595 
L 221.777804 199.153597 
L 222.427113 198.396173 
L 222.979025 197.567126 
L 223.173818 197.535416 
L 223.530938 197.811642 
L 224.537367 198.692413 
L 224.73216 198.585591 
L 225.673658 197.391996 
L 227.199535 196.576794 
L 227.783913 196.728907 
L 228.628015 196.309828 
L 228.790342 196.297376 
L 229.244858 196.107941 
L 229.37472 196.097091 
L 229.601978 196.120351 
L 229.959098 196.287037 
L 230.08896 196.203951 
L 230.316218 196.240802 
L 230.478545 196.248769 
L 230.705804 196.116707 
L 230.997993 195.79741 
L 231.290182 195.476528 
L 231.549905 195.251984 
L 231.939491 194.956585 
L 232.264145 194.960304 
L 232.556335 195.175249 
L 232.913455 195.537204 
L 233.108247 195.645937 
L 233.30304 195.685484 
L 233.530298 195.723293 
L 233.692625 195.767908 
L 233.952349 195.701059 
L 234.179607 195.32586 
L 234.601658 194.414186 
L 234.926313 193.776295 
L 235.186036 193.894286 
L 235.575622 194.391509 
L 235.900276 194.374847 
L 236.095069 194.421996 
L 236.289862 194.241488 
L 236.87424 193.416584 
L 237.23136 193.284775 
L 237.458618 193.29788 
L 238.042996 193.317646 
L 238.30272 193.138308 
L 238.854633 192.526529 
L 239.049425 192.411507 
L 239.698735 192.567512 
L 240.575302 191.69774 
L 240.932422 191.008032 
L 241.094749 190.955518 
L 241.322007 191.124297 
L 241.776524 191.217886 
L 242.58816 190.015843 
L 242.880349 189.974574 
L 243.010211 190.01912 
L 243.497193 189.49273 
L 243.789382 189.07897 
L 244.308829 189.079721 
L 244.503622 189.012971 
L 244.633484 188.90076 
L 246.354153 185.952736 
L 246.419084 186.007349 
L 246.646342 185.929235 
L 246.743738 185.851502 
L 247.295651 184.903729 
L 247.490444 184.521917 
L 247.652771 184.415194 
L 247.912495 184.312282 
L 248.529338 183.573853 
L 250.055215 180.758513 
L 250.477265 179.553924 
L 250.769455 179.130932 
L 250.931782 179.088156 
L 251.548625 177.770723 
L 252.327796 176.127406 
L 252.522589 176.091351 
L 252.684916 175.897359 
L 255.152291 169.02045 
L 255.963927 166.843897 
L 256.808029 165.435363 
L 257.619665 161.294192 
L 257.749527 161.365314 
L 258.041716 161.665666 
L 258.139113 161.57752 
L 258.65856 159.981553 
L 259.145542 158.420808 
L 260.574022 152.974748 
L 260.866211 152.176571 
L 261.255796 151.756734 
L 261.742778 150.841511 
L 261.905105 150.145279 
L 262.392087 147.965891 
L 262.814138 146.44383 
L 263.268655 144.940451 
L 263.398516 144.860598 
L 263.560844 145.108163 
L 263.788102 145.472037 
L 263.885498 145.37415 
L 264.112756 144.579331 
L 265.184116 139.912263 
L 265.44384 139.566145 
L 265.476305 139.759905 
L 265.573702 139.722637 
L 265.833425 139.371531 
L 266.320407 136.579024 
L 266.774924 134.39057 
L 266.807389 134.495386 
L 267.58656 137.640876 
L 267.651491 137.538118 
L 268.008611 136.428545 
L 268.528058 133.294338 
L 268.885178 132.113794 
L 269.112436 131.847219 
L 269.209833 131.878083 
L 269.274764 131.956694 
L 269.37216 131.792986 
L 269.404625 131.847849 
L 269.437091 131.743785 
L 269.72928 130.239495 
L 270.281193 127.963624 
L 270.346124 127.783183 
L 270.411055 127.853567 
L 270.898036 128.88463 
L 271.060364 128.671565 
L 271.092829 128.683141 
L 271.125295 128.57987 
L 271.222691 128.18387 
L 271.547345 127.026947 
L 271.612276 126.885286 
L 272.001862 125.591122 
L 272.099258 125.543578 
L 272.261585 125.314777 
L 272.294051 125.377596 
L 272.391447 125.408933 
L 272.58624 125.384174 
L 272.781033 125.135773 
L 272.94336 124.835459 
L 273.008291 124.878418 
L 273.170618 124.531917 
L 273.462807 123.750097 
L 273.884858 122.910511 
L 274.112116 123.052767 
L 274.339375 122.133567 
L 274.631564 121.165078 
L 274.826356 121.347132 
L 274.891287 121.775687 
L 275.08608 123.688487 
L 275.378269 124.756382 
L 275.4432 124.857669 
L 275.508131 124.784403 
L 275.605527 124.714163 
L 275.670458 124.629231 
L 276.060044 123.268469 
L 276.319767 122.432931 
L 276.449629 122.448318 
L 276.839215 122.478824 
L 277.2288 122.572569 
L 277.391127 122.647822 
L 277.780713 122.451932 
L 277.910575 122.382542 
L 277.94304 122.412863 
L 278.235229 122.888024 
L 278.267695 122.862149 
L 278.332625 122.80775 
L 278.592349 122.129087 
L 278.949469 121.160003 
L 279.111796 121.443958 
L 279.598778 123.212436 
L 279.663709 123.19028 
L 279.890967 122.496869 
L 280.118225 122.006715 
L 280.44288 121.731686 
L 280.767535 121.3855 
L 281.51424 121.402038 
L 281.773964 121.936709 
L 282.033687 122.470966 
L 282.293411 122.626612 
L 282.488204 122.752455 
L 282.812858 123.362146 
L 283.040116 123.446002 
L 283.169978 123.440493 
L 284.01408 124.46353 
L 284.046545 124.430225 
L 284.241338 124.112042 
L 284.468596 123.831796 
L 284.663389 123.862066 
L 284.825716 124.168717 
L 285.247767 125.565077 
L 285.539956 126.73179 
L 285.734749 126.574193 
L 285.994473 126.200213 
L 286.254196 126.491031 
L 286.351593 126.732135 
L 286.741178 128.607375 
L 286.903505 128.756417 
L 287.065833 128.52623 
L 287.422953 128.071216 
L 287.9424 128.465001 
L 288.072262 128.44802 
L 288.494313 129.083366 
L 288.559244 128.993071 
L 288.721571 129.008617 
L 288.883898 129.46835 
L 289.241018 132.027515 
L 289.500742 133.123799 
L 289.663069 133.044056 
L 289.825396 132.820499 
L 289.890327 132.87495 
L 289.987724 133.022813 
L 290.052655 132.965709 
L 290.247447 132.609138 
L 290.44224 132.286931 
L 290.572102 132.388377 
L 291.383738 133.925161 
L 291.546065 134.339632 
L 292.000582 134.144841 
L 292.22784 133.996973 
L 292.422633 133.947375 
L 292.747287 134.542751 
L 293.007011 135.474521 
L 293.104407 135.712043 
L 293.2992 135.838823 
L 293.493993 135.891409 
L 293.65632 136.102766 
L 293.883578 136.126307 
L 294.045905 135.910722 
L 294.305629 135.765121 
L 294.500422 135.82224 
L 294.857542 136.436904 
L 295.376989 138.087844 
L 295.669178 138.167815 
L 295.961367 137.649431 
L 296.123695 137.587584 
L 296.253556 137.863947 
L 296.448349 138.532368 
L 296.8704 141.04602 
L 297.195055 142.102659 
L 297.22752 142.159567 
L 297.292451 142.08511 
L 297.422313 141.563552 
L 298.169018 138.452063 
L 298.201484 138.469054 
L 298.29888 138.556273 
L 298.591069 139.896296 
L 299.565033 145.621902 
L 299.662429 145.440218 
L 299.889687 144.402931 
L 300.279273 142.607814 
L 300.636393 143.1913 
L 301.285702 146.033344 
L 301.350633 146.013037 
L 301.448029 145.966028 
L 301.805149 145.487418 
L 301.837615 145.514187 
L 301.999942 145.883799 
L 302.2272 146.751083 
L 302.454458 147.199816 
L 302.616785 147.158842 
L 302.844044 146.679098 
L 303.103767 146.186359 
L 303.493353 145.700999 
L 303.590749 145.856748 
L 303.882938 146.716536 
L 304.499782 148.683548 
L 304.856902 149.430539 
L 305.116625 149.210149 
L 305.538676 148.143749 
L 305.830865 148.204324 
L 306.415244 149.601529 
L 306.999622 151.007781 
L 307.032087 150.954884 
L 307.097018 150.908019 
L 307.129484 150.933684 
L 307.486604 151.782993 
L 307.713862 152.809796 
L 308.038516 154.198654 
L 308.557964 154.837448 
L 308.622895 154.83285 
L 308.752756 154.501683 
L 308.785222 154.581737 
L 308.915084 154.696392 
L 308.947549 154.572656 
L 309.01248 154.717485 
L 309.207273 154.919609 
L 309.239738 154.81969 
L 309.304669 154.963754 
L 309.72672 156.265311 
L 310.08384 158.059312 
L 310.473425 159.957048 
L 310.635753 159.690719 
L 311.122735 158.285303 
L 311.1552 158.36582 
L 311.577251 160.221237 
L 311.966836 162.324161 
L 312.453818 163.930506 
L 312.616145 164.000686 
L 312.713542 163.986622 
L 313.135593 163.059214 
L 313.492713 164.438646 
L 313.882298 165.867688 
L 314.044625 166.006047 
L 314.206953 166.037174 
L 314.336815 166.26633 
L 315.018589 168.06572 
L 315.473105 169.634503 
L 315.830225 170.046212 
L 315.992553 169.849866 
L 316.219811 169.600967 
L 316.382138 169.640085 
L 316.512 169.790909 
L 316.836655 170.840908 
L 317.680756 173.106679 
L 317.778153 173.055916 
L 318.070342 172.978117 
L 318.459927 173.431103 
L 319.044305 174.802837 
L 319.563753 176.139809 
L 320.148131 176.490507 
L 320.342924 176.668323 
L 320.862371 177.24247 
L 321.836335 178.677625 
L 322.193455 178.885383 
L 322.777833 179.599056 
L 323.167418 179.60638 
L 323.459607 179.822147 
L 323.6544 179.85918 
L 324.238778 179.65053 
L 324.855622 180.316943 
L 325.667258 181.023948 
L 325.991913 181.400621 
L 326.349033 181.084801 
L 326.900945 180.466624 
L 327.128204 180.547952 
L 327.907375 180.876448 
L 328.459287 180.52519 
L 328.913804 180.819307 
L 329.400785 180.357378 
L 329.595578 180.364117 
L 329.887767 180.410881 
L 330.115025 180.356843 
L 330.472145 179.994005 
L 330.894196 179.31858 
L 331.186385 178.757288 
L 331.673367 178.04132 
L 332.614865 177.754434 
L 332.809658 177.71817 
L 333.523898 176.931692 
L 333.783622 176.785593 
L 334.075811 176.469633 
L 334.432931 176.018835 
L 334.660189 176.086869 
L 334.822516 176.058023 
L 335.049775 175.87304 
L 336.186065 173.747236 
L 336.835375 173.563457 
L 337.192495 172.788175 
L 337.874269 171.39153 
L 339.237818 169.510921 
L 339.594938 169.270128 
L 339.887127 168.848235 
L 340.146851 168.019032 
L 340.568902 166.839404 
L 341.737658 165.141824 
L 342.776553 162.701264 
L 344.951738 158.228268 
L 345.308858 157.900744 
L 345.568582 157.377058 
L 345.925702 156.621549 
L 346.737338 154.593386 
L 347.354182 153.266413 
L 347.613905 152.937762 
L 347.971025 152.445584 
L 348.230749 151.815411 
L 348.555404 151.138476 
L 348.944989 150.536182 
L 350.860451 146.311723 
L 351.055244 146.246856 
L 351.412364 145.988067 
L 351.607156 145.708816 
L 351.801949 145.241481 
L 352.548655 143.519409 
L 353.262895 142.46427 
L 354.334255 139.399792 
L 354.951098 138.226017 
L 355.730269 137.250437 
L 356.022458 137.014208 
L 356.249716 136.262092 
L 357.028887 133.368192 
L 357.321076 133.078697 
L 357.548335 133.174995 
L 357.678196 133.153429 
L 357.905455 132.712128 
L 358.522298 131.389942 
L 358.976815 130.731356 
L 359.269004 129.352113 
L 359.626124 128.039633 
L 360.470225 125.886113 
L 361.022138 124.630937 
L 361.996102 122.759853 
L 362.061033 122.740809 
L 362.418153 121.551273 
L 363.132393 118.649411 
L 364.36608 114.93555 
L 364.853062 113.226285 
L 365.015389 113.060713 
L 365.047855 113.097148 
L 365.145251 113.24612 
L 365.177716 113.194868 
L 365.307578 113.309965 
L 365.340044 113.318127 
L 366.314007 109.750655 
L 367.612625 104.849334 
L 367.93728 104.548213 
L 368.034676 104.524931 
L 368.943709 101.59595 
L 369.203433 100.999327 
L 369.528087 100.488407 
L 369.820276 99.37184 
L 371.086429 93.046301 
L 371.281222 92.971716 
L 371.50848 92.945253 
L 371.735738 92.441089 
L 372.027927 91.198814 
L 372.417513 89.5893 
L 372.904495 88.679573 
L 374.073251 84.75433 
L 374.235578 84.371407 
L 375.047215 81.45494 
L 375.534196 79.007971 
L 376.053644 77.585201 
L 376.443229 76.733435 
L 376.702953 76.085376 
L 377.352262 73.35604 
L 377.709382 72.749261 
L 378.001571 72.202584 
L 378.228829 71.566983 
L 378.423622 71.358275 
L 378.618415 70.841262 
L 379.137862 69.230039 
L 379.332655 68.314975 
L 380.176756 64.704748 
L 380.43648 64.272666 
L 380.890996 63.112747 
L 381.183185 62.337067 
L 381.345513 62.193546 
L 381.572771 61.890964 
L 381.605236 61.908095 
L 381.735098 61.785148 
L 382.287011 60.337678 
L 382.481804 59.364917 
L 382.93632 57.164504 
L 383.488233 55.333469 
L 383.585629 55.387027 
L 383.975215 55.066873 
L 384.040145 55.084056 
L 384.429731 56.105211 
L 384.462196 56.079689 
L 384.72192 55.861202 
L 384.981644 55.686018 
L 385.338764 55.448807 
L 385.468625 55.5105 
L 385.695884 55.813389 
L 385.728349 55.756158 
L 386.377658 54.156854 
L 386.604916 53.788269 
L 386.767244 53.839302 
L 386.929571 53.76746 
L 387.124364 53.568 
L 387.416553 53.741456 
L 387.871069 54.846143 
L 388.228189 56.153966 
L 388.455447 56.349373 
L 388.487913 56.284837 
L 388.585309 56.149221 
L 388.65024 56.220304 
L 388.909964 56.429293 
L 388.942429 56.3833 
L 388.974895 56.313405 
L 389.039825 56.405751 
L 389.559273 57.014357 
L 389.851462 57.916193 
L 390.07872 58.241391 
L 390.241047 58.408219 
L 390.533236 59.744275 
L 390.760495 60.777284 
L 390.825425 60.750672 
L 390.955287 60.850642 
L 391.182545 61.263548 
L 391.896785 63.706704 
L 393.098007 69.729399 
L 393.487593 71.594157 
L 394.591418 79.260124 
L 394.851142 80.216153 
L 395.110865 81.490236 
L 395.467985 84.886943 
L 395.954967 89.378752 
L 396.279622 90.217381 
L 396.377018 90.302547 
L 396.571811 90.953871 
L 396.799069 93.030429 
L 397.57824 99.536204 
L 398.260015 105.758638 
L 398.487273 108.611272 
L 398.487273 108.611272 
" style="fill:none;stroke:#ff7f0e;stroke-linecap:square;stroke-width:1.5;"/>
   </g>
   <g id="line2d_16">
    <path clip-path="url(#p43a1e68905)" d="M 73.832727 295.254582 
L 73.865193 295.488 
L 74.02752 280.679481 
L 74.319709 261.561136 
L 74.546967 292.988519 
L 74.579433 291.229468 
L 74.676829 277.605775 
L 74.74176 280.14351 
L 74.904087 286.018834 
L 75.09888 287.91219 
L 75.163811 287.607669 
L 75.391069 284.622032 
L 76.332567 268.416588 
L 77.468858 249.654877 
L 78.67008 233.99904 
L 79.806371 221.557047 
L 80.682938 214.265083 
L 81.494575 209.210088 
L 82.208815 206.028592 
L 82.825658 204.182134 
L 83.507433 202.815572 
L 84.156742 201.944641 
L 84.643724 201.625112 
L 84.935913 201.425682 
L 85.195636 201.363759 
L 85.552756 201.552176 
L 86.104669 202.13938 
L 86.948771 203.397959 
L 87.857804 205.177913 
L 88.117527 205.916988 
L 88.31232 206.485028 
L 88.831767 207.369012 
L 89.513542 209.027958 
L 94.513222 222.012269 
L 96.104029 225.405152 
L 98.344145 229.587217 
L 101.623156 235.85815 
L 104.415185 241.684086 
L 106.88256 247.400842 
L 111.719913 258.701819 
L 113.570444 262.490615 
L 114.609338 264.284259 
L 116.16768 266.592602 
L 117.23904 267.82079 
L 118.180538 268.588756 
L 118.992175 268.981192 
L 119.706415 269.091875 
L 120.355724 268.967991 
L 121.037498 268.606407 
L 121.816669 267.932308 
L 122.758167 266.807808 
L 123.017891 266.447455 
L 123.245149 267.349453 
L 124.316509 269.953224 
L 124.543767 270.326896 
L 124.576233 270.222254 
L 124.73856 270.058963 
L 125.063215 270.277952 
L 125.712524 270.699792 
L 126.459229 270.91918 
L 127.205935 270.905589 
L 128.017571 270.664592 
L 128.991535 270.121898 
L 130.322618 269.376439 
L 130.971927 269.078326 
L 131.88096 268.326967 
L 134.445731 265.899535 
L 136.101469 264.013598 
L 139.477876 260.143118 
L 141.036218 258.476407 
L 142.886749 256.796981 
L 144.607418 255.672823 
L 145.711244 254.964535 
L 146.750138 254.17787 
L 153.113367 248.817926 
L 154.639244 247.766082 
L 156.684567 246.570889 
L 159.119476 245.471151 
L 160.353164 245.161564 
L 160.612887 245.110988 
L 161.229731 244.964982 
L 161.489455 244.913902 
L 162.106298 244.771323 
L 162.366022 244.719149 
L 162.982865 244.575534 
L 163.242589 244.523767 
L 163.859433 244.382878 
L 164.119156 244.332272 
L 164.833396 244.180297 
L 165.222982 244.106362 
L 172.300451 242.410027 
L 183.143913 239.684797 
L 189.701935 238.132258 
L 198.013091 236.117975 
L 205.252887 234.706506 
L 211.583651 233.552252 
L 211.713513 233.896558 
L 211.843375 233.91907 
L 212.005702 233.668214 
L 212.038167 233.880537 
L 212.070633 233.655324 
L 212.103098 233.829466 
L 212.200495 233.563909 
L 212.23296 233.745817 
L 212.265425 233.521163 
L 212.297891 233.704828 
L 212.395287 233.441403 
L 212.427753 233.623191 
L 212.460218 233.4032 
L 212.492684 233.583432 
L 212.59008 233.329653 
L 212.622545 233.506497 
L 212.655011 233.296479 
L 212.687476 233.472126 
L 212.784873 233.237324 
L 212.817338 233.411409 
L 212.849804 233.211453 
L 212.882269 233.385067 
L 212.979665 233.166538 
L 213.012131 233.34073 
L 213.044596 233.147387 
L 213.077062 233.322872 
L 213.174458 233.11512 
L 213.239389 233.102316 
L 213.271855 233.285474 
L 213.369251 233.080164 
L 213.466647 233.26684 
L 213.564044 233.055016 
L 213.66144 233.260614 
L 213.758836 233.035583 
L 213.856233 233.261432 
L 213.953629 233.019396 
L 214.051025 233.254535 
L 214.148422 232.993649 
L 214.213353 232.982498 
L 214.245818 233.236074 
L 214.343215 232.965493 
L 214.37568 233.196245 
L 214.408145 232.949151 
L 214.440611 233.170234 
L 214.538007 232.898415 
L 214.570473 233.116178 
L 214.602938 232.867371 
L 214.635404 233.090698 
L 214.7328 232.807933 
L 214.765265 233.04823 
L 214.797731 232.790676 
L 214.830196 233.0271 
L 214.927593 232.756458 
L 214.960058 232.989367 
L 214.992524 232.74121 
L 215.024989 232.972791 
L 215.122385 232.715042 
L 215.154851 232.945224 
L 215.187316 232.704015 
L 215.219782 232.934254 
L 215.317178 232.685642 
L 215.414575 232.909255 
L 215.44704 232.802346 
L 215.511971 232.866772 
L 215.674298 232.864938 
L 215.966487 232.737249 
L 216.063884 232.814909 
L 216.096349 232.76913 
L 216.258676 232.802873 
L 216.421004 232.76223 
L 216.583331 232.793503 
L 216.745658 232.768096 
L 216.940451 232.770375 
L 217.297571 232.775347 
L 217.94688 232.785641 
L 219.635084 232.756181 
L 221.290822 232.45726 
L 222.297251 232.032459 
L 223.238749 231.345969 
L 224.667229 230.0333 
L 228.757876 226.013065 
L 234.049745 222.107067 
L 235.186036 221.412707 
L 236.939171 220.796306 
L 238.692305 220.782056 
L 240.120785 221.171249 
L 241.386938 221.760759 
L 242.94528 222.732628 
L 244.925673 224.251447 
L 247.457978 226.208908 
L 248.399476 226.575404 
L 252.165469 228.509909 
L 254.762705 229.656993 
L 257.035287 230.49573 
L 259.340335 231.119673 
L 262.197295 231.666924 
L 265.281513 232.036395 
L 268.755316 232.227049 
L 272.683636 232.267258 
L 272.94336 232.016372 
L 273.040756 231.954972 
L 273.397876 231.822231 
L 275.313338 231.530595 
L 279.144262 230.938551 
L 285.345164 229.642839 
L 286.87104 229.398536 
L 287.098298 229.359653 
L 287.780073 229.162495 
L 293.623855 228.348676 
L 298.266415 227.947455 
L 304.499782 227.669961 
L 320.148131 227.189435 
L 326.251636 226.645478 
L 331.121455 226.031649 
L 335.569222 225.23146 
L 340.861091 224.040423 
L 350.373469 221.853591 
L 353.587549 221.414635 
L 354.074531 221.449788 
L 354.301789 221.522569 
L 354.593978 221.224846 
L 354.951098 221.010746 
L 355.470545 221.010414 
L 356.736698 221.003583 
L 358.587229 221.010717 
L 358.944349 221.19662 
L 359.528727 221.219398 
L 361.801309 220.946575 
L 365.177716 221.123745 
L 370.956567 221.573307 
L 373.326545 221.925232 
L 373.488873 222.003479 
L 374.170647 221.814416 
L 375.4368 222.006789 
L 377.547055 222.195384 
L 380.404015 222.21741 
L 383.65056 222.03494 
L 386.410124 221.718597 
L 392.091578 221.003027 
L 395.370589 220.905479 
L 398.487273 220.919998 
L 398.487273 220.919998 
" style="fill:none;stroke:#bf00bf;stroke-linecap:square;stroke-width:1.5;"/>
   </g>
   <g id="patch_3">
    <path d="M 57.6 307.584 
L 57.6 41.472 
" style="fill:none;stroke:#000000;stroke-linecap:square;stroke-linejoin:miter;stroke-width:0.8;"/>
   </g>
   <g id="patch_4">
    <path d="M 414.72 307.584 
L 414.72 41.472 
" style="fill:none;stroke:#000000;stroke-linecap:square;stroke-linejoin:miter;stroke-width:0.8;"/>
   </g>
   <g id="patch_5">
    <path d="M 57.6 307.584 
L 414.72 307.584 
" style="fill:none;stroke:#000000;stroke-linecap:square;stroke-linejoin:miter;stroke-width:0.8;"/>
   </g>
   <g id="patch_6">
    <path d="M 57.6 41.472 
L 414.72 41.472 
" style="fill:none;stroke:#000000;stroke-linecap:square;stroke-linejoin:miter;stroke-width:0.8;"/>
   </g>
   <g id="text_16">
    <!-- Plot of Object pose error norm over a single episode  -->
    <g transform="translate(77.670938 8.59725)scale(0.12 -0.12)">
     <defs>
      <path d="M 19.671875 64.796875 
L 19.671875 37.40625 
L 32.078125 37.40625 
Q 38.96875 37.40625 42.71875 40.96875 
Q 46.484375 44.53125 46.484375 51.125 
Q 46.484375 57.671875 42.71875 61.234375 
Q 38.96875 64.796875 32.078125 64.796875 
z
M 9.8125 72.90625 
L 32.078125 72.90625 
Q 44.34375 72.90625 50.609375 67.359375 
Q 56.890625 61.8125 56.890625 51.125 
Q 56.890625 40.328125 50.609375 34.8125 
Q 44.34375 29.296875 32.078125 29.296875 
L 19.671875 29.296875 
L 19.671875 0 
L 9.8125 0 
z
" id="DejaVuSans-80"/>
      <path d="M 9.421875 75.984375 
L 18.40625 75.984375 
L 18.40625 0 
L 9.421875 0 
z
" id="DejaVuSans-108"/>
      <path id="DejaVuSans-32"/>
      <path d="M 37.109375 75.984375 
L 37.109375 68.5 
L 28.515625 68.5 
Q 23.6875 68.5 21.796875 66.546875 
Q 19.921875 64.59375 19.921875 59.515625 
L 19.921875 54.6875 
L 34.71875 54.6875 
L 34.71875 47.703125 
L 19.921875 47.703125 
L 19.921875 0 
L 10.890625 0 
L 10.890625 47.703125 
L 2.296875 47.703125 
L 2.296875 54.6875 
L 10.890625 54.6875 
L 10.890625 58.5 
Q 10.890625 67.625 15.140625 71.796875 
Q 19.390625 75.984375 28.609375 75.984375 
z
" id="DejaVuSans-102"/>
      <path d="M 48.78125 52.59375 
L 48.78125 44.1875 
Q 44.96875 46.296875 41.140625 47.34375 
Q 37.3125 48.390625 33.40625 48.390625 
Q 24.65625 48.390625 19.8125 42.84375 
Q 14.984375 37.3125 14.984375 27.296875 
Q 14.984375 17.28125 19.8125 11.734375 
Q 24.65625 6.203125 33.40625 6.203125 
Q 37.3125 6.203125 41.140625 7.25 
Q 44.96875 8.296875 48.78125 10.40625 
L 48.78125 2.09375 
Q 45.015625 0.34375 40.984375 -0.53125 
Q 36.96875 -1.421875 32.421875 -1.421875 
Q 20.0625 -1.421875 12.78125 6.34375 
Q 5.515625 14.109375 5.515625 27.296875 
Q 5.515625 40.671875 12.859375 48.328125 
Q 20.21875 56 33.015625 56 
Q 37.15625 56 41.109375 55.140625 
Q 45.0625 54.296875 48.78125 52.59375 
z
" id="DejaVuSans-99"/>
      <path d="M 2.984375 54.6875 
L 12.5 54.6875 
L 29.59375 8.796875 
L 46.6875 54.6875 
L 56.203125 54.6875 
L 35.6875 0 
L 23.484375 0 
z
" id="DejaVuSans-118"/>
      <path d="M 34.28125 27.484375 
Q 23.390625 27.484375 19.1875 25 
Q 14.984375 22.515625 14.984375 16.5 
Q 14.984375 11.71875 18.140625 8.90625 
Q 21.296875 6.109375 26.703125 6.109375 
Q 34.1875 6.109375 38.703125 11.40625 
Q 43.21875 16.703125 43.21875 25.484375 
L 43.21875 27.484375 
z
M 52.203125 31.203125 
L 52.203125 0 
L 43.21875 0 
L 43.21875 8.296875 
Q 40.140625 3.328125 35.546875 0.953125 
Q 30.953125 -1.421875 24.3125 -1.421875 
Q 15.921875 -1.421875 10.953125 3.296875 
Q 6 8.015625 6 15.921875 
Q 6 25.140625 12.171875 29.828125 
Q 18.359375 34.515625 30.609375 34.515625 
L 43.21875 34.515625 
L 43.21875 35.40625 
Q 43.21875 41.609375 39.140625 45 
Q 35.0625 48.390625 27.6875 48.390625 
Q 23 48.390625 18.546875 47.265625 
Q 14.109375 46.140625 10.015625 43.890625 
L 10.015625 52.203125 
Q 14.9375 54.109375 19.578125 55.046875 
Q 24.21875 56 28.609375 56 
Q 40.484375 56 46.34375 49.84375 
Q 52.203125 43.703125 52.203125 31.203125 
z
" id="DejaVuSans-97"/>
      <path d="M 45.40625 27.984375 
Q 45.40625 37.75 41.375 43.109375 
Q 37.359375 48.484375 30.078125 48.484375 
Q 22.859375 48.484375 18.828125 43.109375 
Q 14.796875 37.75 14.796875 27.984375 
Q 14.796875 18.265625 18.828125 12.890625 
Q 22.859375 7.515625 30.078125 7.515625 
Q 37.359375 7.515625 41.375 12.890625 
Q 45.40625 18.265625 45.40625 27.984375 
z
M 54.390625 6.78125 
Q 54.390625 -7.171875 48.1875 -13.984375 
Q 42 -20.796875 29.203125 -20.796875 
Q 24.46875 -20.796875 20.265625 -20.09375 
Q 16.0625 -19.390625 12.109375 -17.921875 
L 12.109375 -9.1875 
Q 16.0625 -11.328125 19.921875 -12.34375 
Q 23.78125 -13.375 27.78125 -13.375 
Q 36.625 -13.375 41.015625 -8.765625 
Q 45.40625 -4.15625 45.40625 5.171875 
L 45.40625 9.625 
Q 42.625 4.78125 38.28125 2.390625 
Q 33.9375 0 27.875 0 
Q 17.828125 0 11.671875 7.65625 
Q 5.515625 15.328125 5.515625 27.984375 
Q 5.515625 40.671875 11.671875 48.328125 
Q 17.828125 56 27.875 56 
Q 33.9375 56 38.28125 53.609375 
Q 42.625 51.21875 45.40625 46.390625 
L 45.40625 54.6875 
L 54.390625 54.6875 
z
" id="DejaVuSans-103"/>
      <path d="M 45.40625 46.390625 
L 45.40625 75.984375 
L 54.390625 75.984375 
L 54.390625 0 
L 45.40625 0 
L 45.40625 8.203125 
Q 42.578125 3.328125 38.25 0.953125 
Q 33.9375 -1.421875 27.875 -1.421875 
Q 17.96875 -1.421875 11.734375 6.484375 
Q 5.515625 14.40625 5.515625 27.296875 
Q 5.515625 40.1875 11.734375 48.09375 
Q 17.96875 56 27.875 56 
Q 33.9375 56 38.25 53.625 
Q 42.578125 51.265625 45.40625 46.390625 
z
M 14.796875 27.296875 
Q 14.796875 17.390625 18.875 11.75 
Q 22.953125 6.109375 30.078125 6.109375 
Q 37.203125 6.109375 41.296875 11.75 
Q 45.40625 17.390625 45.40625 27.296875 
Q 45.40625 37.203125 41.296875 42.84375 
Q 37.203125 48.484375 30.078125 48.484375 
Q 22.953125 48.484375 18.875 42.84375 
Q 14.796875 37.203125 14.796875 27.296875 
z
" id="DejaVuSans-100"/>
     </defs>
     <use xlink:href="#DejaVuSans-80"/>
     <use x="60.302734" xlink:href="#DejaVuSans-108"/>
     <use x="88.085938" xlink:href="#DejaVuSans-111"/>
     <use x="149.267578" xlink:href="#DejaVuSans-116"/>
     <use x="188.476562" xlink:href="#DejaVuSans-32"/>
     <use x="220.263672" xlink:href="#DejaVuSans-111"/>
     <use x="281.445312" xlink:href="#DejaVuSans-102"/>
     <use x="316.650391" xlink:href="#DejaVuSans-32"/>
     <use x="348.4375" xlink:href="#DejaVuSans-79"/>
     <use x="427.148438" xlink:href="#DejaVuSans-98"/>
     <use x="490.625" xlink:href="#DejaVuSans-106"/>
     <use x="518.408203" xlink:href="#DejaVuSans-101"/>
     <use x="579.931641" xlink:href="#DejaVuSans-99"/>
     <use x="634.912109" xlink:href="#DejaVuSans-116"/>
     <use x="674.121094" xlink:href="#DejaVuSans-32"/>
     <use x="705.908203" xlink:href="#DejaVuSans-112"/>
     <use x="769.384766" xlink:href="#DejaVuSans-111"/>
     <use x="830.566406" xlink:href="#DejaVuSans-115"/>
     <use x="882.666016" xlink:href="#DejaVuSans-101"/>
     <use x="944.189453" xlink:href="#DejaVuSans-32"/>
     <use x="975.976562" xlink:href="#DejaVuSans-101"/>
     <use x="1037.5" xlink:href="#DejaVuSans-114"/>
     <use x="1076.863281" xlink:href="#DejaVuSans-114"/>
     <use x="1115.726562" xlink:href="#DejaVuSans-111"/>
     <use x="1176.908203" xlink:href="#DejaVuSans-114"/>
     <use x="1218.021484" xlink:href="#DejaVuSans-32"/>
     <use x="1249.808594" xlink:href="#DejaVuSans-110"/>
     <use x="1313.1875" xlink:href="#DejaVuSans-111"/>
     <use x="1374.369141" xlink:href="#DejaVuSans-114"/>
     <use x="1413.732422" xlink:href="#DejaVuSans-109"/>
     <use x="1511.144531" xlink:href="#DejaVuSans-32"/>
     <use x="1542.931641" xlink:href="#DejaVuSans-111"/>
     <use x="1604.113281" xlink:href="#DejaVuSans-118"/>
     <use x="1663.292969" xlink:href="#DejaVuSans-101"/>
     <use x="1724.816406" xlink:href="#DejaVuSans-114"/>
     <use x="1765.929688" xlink:href="#DejaVuSans-32"/>
     <use x="1797.716797" xlink:href="#DejaVuSans-97"/>
     <use x="1858.996094" xlink:href="#DejaVuSans-32"/>
     <use x="1890.783203" xlink:href="#DejaVuSans-115"/>
     <use x="1942.882812" xlink:href="#DejaVuSans-105"/>
     <use x="1970.666016" xlink:href="#DejaVuSans-110"/>
     <use x="2034.044922" xlink:href="#DejaVuSans-103"/>
     <use x="2097.521484" xlink:href="#DejaVuSans-108"/>
     <use x="2125.304688" xlink:href="#DejaVuSans-101"/>
     <use x="2186.828125" xlink:href="#DejaVuSans-32"/>
     <use x="2218.615234" xlink:href="#DejaVuSans-101"/>
     <use x="2280.138672" xlink:href="#DejaVuSans-112"/>
     <use x="2343.615234" xlink:href="#DejaVuSans-105"/>
     <use x="2371.398438" xlink:href="#DejaVuSans-115"/>
     <use x="2423.498047" xlink:href="#DejaVuSans-111"/>
     <use x="2484.679688" xlink:href="#DejaVuSans-100"/>
     <use x="2548.15625" xlink:href="#DejaVuSans-101"/>
     <use x="2609.679688" xlink:href="#DejaVuSans-32"/>
    </g>
    <!--  Avg object pose error norm: Residual RL = 0.311, Standard = 0.344,  -->
    <g transform="translate(26.875313 22.034625)scale(0.12 -0.12)">
     <defs>
      <path d="M 34.1875 63.1875 
L 20.796875 26.90625 
L 47.609375 26.90625 
z
M 28.609375 72.90625 
L 39.796875 72.90625 
L 67.578125 0 
L 57.328125 0 
L 50.6875 18.703125 
L 17.828125 18.703125 
L 11.1875 0 
L 0.78125 0 
z
" id="DejaVuSans-65"/>
      <path d="M 11.71875 12.40625 
L 22.015625 12.40625 
L 22.015625 0 
L 11.71875 0 
z
M 11.71875 51.703125 
L 22.015625 51.703125 
L 22.015625 39.3125 
L 11.71875 39.3125 
z
" id="DejaVuSans-58"/>
      <path d="M 44.390625 34.1875 
Q 47.5625 33.109375 50.5625 29.59375 
Q 53.5625 26.078125 56.59375 19.921875 
L 66.609375 0 
L 56 0 
L 46.6875 18.703125 
Q 43.0625 26.03125 39.671875 28.421875 
Q 36.28125 30.8125 30.421875 30.8125 
L 19.671875 30.8125 
L 19.671875 0 
L 9.8125 0 
L 9.8125 72.90625 
L 32.078125 72.90625 
Q 44.578125 72.90625 50.734375 67.671875 
Q 56.890625 62.453125 56.890625 51.90625 
Q 56.890625 45.015625 53.6875 40.46875 
Q 50.484375 35.9375 44.390625 34.1875 
z
M 19.671875 64.796875 
L 19.671875 38.921875 
L 32.078125 38.921875 
Q 39.203125 38.921875 42.84375 42.21875 
Q 46.484375 45.515625 46.484375 51.90625 
Q 46.484375 58.296875 42.84375 61.546875 
Q 39.203125 64.796875 32.078125 64.796875 
z
" id="DejaVuSans-82"/>
      <path d="M 9.8125 72.90625 
L 19.671875 72.90625 
L 19.671875 8.296875 
L 55.171875 8.296875 
L 55.171875 0 
L 9.8125 0 
z
" id="DejaVuSans-76"/>
      <path d="M 10.59375 45.40625 
L 73.1875 45.40625 
L 73.1875 37.203125 
L 10.59375 37.203125 
z
M 10.59375 25.484375 
L 73.1875 25.484375 
L 73.1875 17.1875 
L 10.59375 17.1875 
z
" id="DejaVuSans-61"/>
      <path d="M 11.71875 12.40625 
L 22.015625 12.40625 
L 22.015625 4 
L 14.015625 -11.625 
L 7.71875 -11.625 
L 11.71875 4 
z
" id="DejaVuSans-44"/>
      <path d="M 53.515625 70.515625 
L 53.515625 60.890625 
Q 47.90625 63.578125 42.921875 64.890625 
Q 37.9375 66.21875 33.296875 66.21875 
Q 25.25 66.21875 20.875 63.09375 
Q 16.5 59.96875 16.5 54.203125 
Q 16.5 49.359375 19.40625 46.890625 
Q 22.3125 44.4375 30.421875 42.921875 
L 36.375 41.703125 
Q 47.40625 39.59375 52.65625 34.296875 
Q 57.90625 29 57.90625 20.125 
Q 57.90625 9.515625 50.796875 4.046875 
Q 43.703125 -1.421875 29.984375 -1.421875 
Q 24.8125 -1.421875 18.96875 -0.25 
Q 13.140625 0.921875 6.890625 3.21875 
L 6.890625 13.375 
Q 12.890625 10.015625 18.65625 8.296875 
Q 24.421875 6.59375 29.984375 6.59375 
Q 38.421875 6.59375 43.015625 9.90625 
Q 47.609375 13.234375 47.609375 19.390625 
Q 47.609375 24.75 44.3125 27.78125 
Q 41.015625 30.8125 33.5 32.328125 
L 27.484375 33.5 
Q 16.453125 35.6875 11.515625 40.375 
Q 6.59375 45.0625 6.59375 53.421875 
Q 6.59375 63.09375 13.40625 68.65625 
Q 20.21875 74.21875 32.171875 74.21875 
Q 37.3125 74.21875 42.625 73.28125 
Q 47.953125 72.359375 53.515625 70.515625 
z
" id="DejaVuSans-83"/>
     </defs>
     <use xlink:href="#DejaVuSans-32"/>
     <use x="31.787109" xlink:href="#DejaVuSans-65"/>
     <use x="94.320312" xlink:href="#DejaVuSans-118"/>
     <use x="153.5" xlink:href="#DejaVuSans-103"/>
     <use x="216.976562" xlink:href="#DejaVuSans-32"/>
     <use x="248.763672" xlink:href="#DejaVuSans-111"/>
     <use x="309.945312" xlink:href="#DejaVuSans-98"/>
     <use x="373.421875" xlink:href="#DejaVuSans-106"/>
     <use x="401.205078" xlink:href="#DejaVuSans-101"/>
     <use x="462.728516" xlink:href="#DejaVuSans-99"/>
     <use x="517.708984" xlink:href="#DejaVuSans-116"/>
     <use x="556.917969" xlink:href="#DejaVuSans-32"/>
     <use x="588.705078" xlink:href="#DejaVuSans-112"/>
     <use x="652.181641" xlink:href="#DejaVuSans-111"/>
     <use x="713.363281" xlink:href="#DejaVuSans-115"/>
     <use x="765.462891" xlink:href="#DejaVuSans-101"/>
     <use x="826.986328" xlink:href="#DejaVuSans-32"/>
     <use x="858.773438" xlink:href="#DejaVuSans-101"/>
     <use x="920.296875" xlink:href="#DejaVuSans-114"/>
     <use x="959.660156" xlink:href="#DejaVuSans-114"/>
     <use x="998.523438" xlink:href="#DejaVuSans-111"/>
     <use x="1059.705078" xlink:href="#DejaVuSans-114"/>
     <use x="1100.818359" xlink:href="#DejaVuSans-32"/>
     <use x="1132.605469" xlink:href="#DejaVuSans-110"/>
     <use x="1195.984375" xlink:href="#DejaVuSans-111"/>
     <use x="1257.166016" xlink:href="#DejaVuSans-114"/>
     <use x="1296.529297" xlink:href="#DejaVuSans-109"/>
     <use x="1393.941406" xlink:href="#DejaVuSans-58"/>
     <use x="1427.632812" xlink:href="#DejaVuSans-32"/>
     <use x="1459.419922" xlink:href="#DejaVuSans-82"/>
     <use x="1524.402344" xlink:href="#DejaVuSans-101"/>
     <use x="1585.925781" xlink:href="#DejaVuSans-115"/>
     <use x="1638.025391" xlink:href="#DejaVuSans-105"/>
     <use x="1665.808594" xlink:href="#DejaVuSans-100"/>
     <use x="1729.285156" xlink:href="#DejaVuSans-117"/>
     <use x="1792.664062" xlink:href="#DejaVuSans-97"/>
     <use x="1853.943359" xlink:href="#DejaVuSans-108"/>
     <use x="1881.726562" xlink:href="#DejaVuSans-32"/>
     <use x="1913.513672" xlink:href="#DejaVuSans-82"/>
     <use x="1982.996094" xlink:href="#DejaVuSans-76"/>
     <use x="2038.708984" xlink:href="#DejaVuSans-32"/>
     <use x="2070.496094" xlink:href="#DejaVuSans-61"/>
     <use x="2154.285156" xlink:href="#DejaVuSans-32"/>
     <use x="2186.072266" xlink:href="#DejaVuSans-48"/>
     <use x="2249.695312" xlink:href="#DejaVuSans-46"/>
     <use x="2281.482422" xlink:href="#DejaVuSans-51"/>
     <use x="2345.105469" xlink:href="#DejaVuSans-49"/>
     <use x="2408.728516" xlink:href="#DejaVuSans-49"/>
     <use x="2472.351562" xlink:href="#DejaVuSans-44"/>
     <use x="2504.138672" xlink:href="#DejaVuSans-32"/>
     <use x="2535.925781" xlink:href="#DejaVuSans-83"/>
     <use x="2599.402344" xlink:href="#DejaVuSans-116"/>
     <use x="2638.611328" xlink:href="#DejaVuSans-97"/>
     <use x="2699.890625" xlink:href="#DejaVuSans-110"/>
     <use x="2763.269531" xlink:href="#DejaVuSans-100"/>
     <use x="2826.746094" xlink:href="#DejaVuSans-97"/>
     <use x="2888.025391" xlink:href="#DejaVuSans-114"/>
     <use x="2927.388672" xlink:href="#DejaVuSans-100"/>
     <use x="2990.865234" xlink:href="#DejaVuSans-32"/>
     <use x="3022.652344" xlink:href="#DejaVuSans-61"/>
     <use x="3106.441406" xlink:href="#DejaVuSans-32"/>
     <use x="3138.228516" xlink:href="#DejaVuSans-48"/>
     <use x="3201.851562" xlink:href="#DejaVuSans-46"/>
     <use x="3233.638672" xlink:href="#DejaVuSans-51"/>
     <use x="3297.261719" xlink:href="#DejaVuSans-52"/>
     <use x="3360.884766" xlink:href="#DejaVuSans-52"/>
     <use x="3424.507812" xlink:href="#DejaVuSans-44"/>
     <use x="3456.294922" xlink:href="#DejaVuSans-32"/>
    </g>
    <!--  Baseline = 0.178 -->
    <g transform="translate(182.795625 35.472)scale(0.12 -0.12)">
     <defs>
      <path d="M 19.671875 34.8125 
L 19.671875 8.109375 
L 35.5 8.109375 
Q 43.453125 8.109375 47.28125 11.40625 
Q 51.125 14.703125 51.125 21.484375 
Q 51.125 28.328125 47.28125 31.5625 
Q 43.453125 34.8125 35.5 34.8125 
z
M 19.671875 64.796875 
L 19.671875 42.828125 
L 34.28125 42.828125 
Q 41.5 42.828125 45.03125 45.53125 
Q 48.578125 48.25 48.578125 53.8125 
Q 48.578125 59.328125 45.03125 62.0625 
Q 41.5 64.796875 34.28125 64.796875 
z
M 9.8125 72.90625 
L 35.015625 72.90625 
Q 46.296875 72.90625 52.390625 68.21875 
Q 58.5 63.53125 58.5 54.890625 
Q 58.5 48.1875 55.375 44.234375 
Q 52.25 40.28125 46.1875 39.3125 
Q 53.46875 37.75 57.5 32.78125 
Q 61.53125 27.828125 61.53125 20.40625 
Q 61.53125 10.640625 54.890625 5.3125 
Q 48.25 0 35.984375 0 
L 9.8125 0 
z
" id="DejaVuSans-66"/>
      <path d="M 8.203125 72.90625 
L 55.078125 72.90625 
L 55.078125 68.703125 
L 28.609375 0 
L 18.3125 0 
L 43.21875 64.59375 
L 8.203125 64.59375 
z
" id="DejaVuSans-55"/>
     </defs>
     <use xlink:href="#DejaVuSans-32"/>
     <use x="31.787109" xlink:href="#DejaVuSans-66"/>
     <use x="100.390625" xlink:href="#DejaVuSans-97"/>
     <use x="161.669922" xlink:href="#DejaVuSans-115"/>
     <use x="213.769531" xlink:href="#DejaVuSans-101"/>
     <use x="275.292969" xlink:href="#DejaVuSans-108"/>
     <use x="303.076172" xlink:href="#DejaVuSans-105"/>
     <use x="330.859375" xlink:href="#DejaVuSans-110"/>
     <use x="394.238281" xlink:href="#DejaVuSans-101"/>
     <use x="455.761719" xlink:href="#DejaVuSans-32"/>
     <use x="487.548828" xlink:href="#DejaVuSans-61"/>
     <use x="571.337891" xlink:href="#DejaVuSans-32"/>
     <use x="603.125" xlink:href="#DejaVuSans-48"/>
     <use x="666.748047" xlink:href="#DejaVuSans-46"/>
     <use x="698.535156" xlink:href="#DejaVuSans-49"/>
     <use x="762.158203" xlink:href="#DejaVuSans-55"/>
     <use x="825.78125" xlink:href="#DejaVuSans-56"/>
    </g>
   </g>
   <g id="legend_1">
    <g id="patch_7">
     <path d="M 64.6 93.506375 
L 154.529687 93.506375 
Q 156.529687 93.506375 156.529687 91.506375 
L 156.529687 48.472 
Q 156.529687 46.472 154.529687 46.472 
L 64.6 46.472 
Q 62.6 46.472 62.6 48.472 
L 62.6 91.506375 
Q 62.6 93.506375 64.6 93.506375 
z
" style="fill:#ffffff;opacity:0.8;stroke:#cccccc;stroke-linejoin:miter;"/>
    </g>
    <g id="line2d_17">
     <path d="M 66.6 54.570438 
L 86.6 54.570438 
" style="fill:none;stroke:#1f77b4;stroke-linecap:square;stroke-width:1.5;"/>
    </g>
    <g id="line2d_18"/>
    <g id="text_17">
     <!-- Residual RL -->
     <g transform="translate(94.6 58.070438)scale(0.1 -0.1)">
      <use xlink:href="#DejaVuSans-82"/>
      <use x="64.982422" xlink:href="#DejaVuSans-101"/>
      <use x="126.505859" xlink:href="#DejaVuSans-115"/>
      <use x="178.605469" xlink:href="#DejaVuSans-105"/>
      <use x="206.388672" xlink:href="#DejaVuSans-100"/>
      <use x="269.865234" xlink:href="#DejaVuSans-117"/>
      <use x="333.244141" xlink:href="#DejaVuSans-97"/>
      <use x="394.523438" xlink:href="#DejaVuSans-108"/>
      <use x="422.306641" xlink:href="#DejaVuSans-32"/>
      <use x="454.09375" xlink:href="#DejaVuSans-82"/>
      <use x="523.576172" xlink:href="#DejaVuSans-76"/>
     </g>
    </g>
    <g id="line2d_19">
     <path d="M 66.6 69.248563 
L 86.6 69.248563 
" style="fill:none;stroke:#ff7f0e;stroke-linecap:square;stroke-width:1.5;"/>
    </g>
    <g id="line2d_20"/>
    <g id="text_18">
     <!-- Standard -->
     <g transform="translate(94.6 72.748563)scale(0.1 -0.1)">
      <use xlink:href="#DejaVuSans-83"/>
      <use x="63.476562" xlink:href="#DejaVuSans-116"/>
      <use x="102.685547" xlink:href="#DejaVuSans-97"/>
      <use x="163.964844" xlink:href="#DejaVuSans-110"/>
      <use x="227.34375" xlink:href="#DejaVuSans-100"/>
      <use x="290.820312" xlink:href="#DejaVuSans-97"/>
      <use x="352.099609" xlink:href="#DejaVuSans-114"/>
      <use x="391.462891" xlink:href="#DejaVuSans-100"/>
     </g>
    </g>
    <g id="line2d_21">
     <path d="M 66.6 83.926688 
L 86.6 83.926688 
" style="fill:none;stroke:#bf00bf;stroke-linecap:square;stroke-width:1.5;"/>
    </g>
    <g id="line2d_22"/>
    <g id="text_19">
     <!-- Baseline -->
     <g transform="translate(94.6 87.426688)scale(0.1 -0.1)">
      <use xlink:href="#DejaVuSans-66"/>
      <use x="68.603516" xlink:href="#DejaVuSans-97"/>
      <use x="129.882812" xlink:href="#DejaVuSans-115"/>
      <use x="181.982422" xlink:href="#DejaVuSans-101"/>
      <use x="243.505859" xlink:href="#DejaVuSans-108"/>
      <use x="271.289062" xlink:href="#DejaVuSans-105"/>
      <use x="299.072266" xlink:href="#DejaVuSans-110"/>
      <use x="362.451172" xlink:href="#DejaVuSans-101"/>
     </g>
    </g>
   </g>
  </g>
 </g>
 <defs>
  <clipPath id="p43a1e68905">
   <rect height="266.112" width="357.12" x="57.6" y="41.472"/>
  </clipPath>
 </defs>
</svg>
