<?xml version="1.0" encoding="utf-8" standalone="no"?>
<!DOCTYPE svg PUBLIC "-//W3C//DTD SVG 1.1//EN"
  "http://www.w3.org/Graphics/SVG/1.1/DTD/svg11.dtd">
<!-- Created with matplotlib (https://matplotlib.org/) -->
<svg height="345.6pt" version="1.1" viewBox="0 0 460.8 345.6" width="460.8pt" xmlns="http://www.w3.org/2000/svg" xmlns:xlink="http://www.w3.org/1999/xlink">
 <metadata>
  <rdf:RDF xmlns:cc="http://creativecommons.org/ns#" xmlns:dc="http://purl.org/dc/elements/1.1/" xmlns:rdf="http://www.w3.org/1999/02/22-rdf-syntax-ns#">
   <cc:Work>
    <dc:type rdf:resource="http://purl.org/dc/dcmitype/StillImage"/>
    <dc:date>2022-07-22T12:24:04.381987</dc:date>
    <dc:format>image/svg+xml</dc:format>
    <dc:creator>
     <cc:Agent>
      <dc:title>Matplotlib v3.3.4, https://matplotlib.org/</dc:title>
     </cc:Agent>
    </dc:creator>
   </cc:Work>
  </rdf:RDF>
 </metadata>
 <defs>
  <style type="text/css">*{stroke-linecap:butt;stroke-linejoin:round;}</style>
 </defs>
 <g id="figure_1">
  <g id="patch_1">
   <path d="M 0 345.6 
L 460.8 345.6 
L 460.8 0 
L 0 0 
z
" style="fill:#ffffff;"/>
  </g>
  <g id="axes_1">
   <g id="patch_2">
    <path d="M 57.6 307.584 
L 414.72 307.584 
L 414.72 41.472 
L 57.6 41.472 
z
" style="fill:#ffffff;"/>
   </g>
   <g id="matplotlib.axis_1">
    <g id="xtick_1">
     <g id="line2d_1">
      <defs>
       <path d="M 0 0 
L 0 3.5 
" id="m021564cc60" style="stroke:#000000;stroke-width:0.8;"/>
      </defs>
      <g>
       <use style="stroke:#000000;stroke-width:0.8;" x="73.832727" xlink:href="#m021564cc60" y="307.584"/>
      </g>
     </g>
     <g id="text_1">
      <!-- 0 -->
      <g transform="translate(70.651477 322.182437)scale(0.1 -0.1)">
       <defs>
        <path d="M 31.78125 66.40625 
Q 24.171875 66.40625 20.328125 58.90625 
Q 16.5 51.421875 16.5 36.375 
Q 16.5 21.390625 20.328125 13.890625 
Q 24.171875 6.390625 31.78125 6.390625 
Q 39.453125 6.390625 43.28125 13.890625 
Q 47.125 21.390625 47.125 36.375 
Q 47.125 51.421875 43.28125 58.90625 
Q 39.453125 66.40625 31.78125 66.40625 
z
M 31.78125 74.21875 
Q 44.046875 74.21875 50.515625 64.515625 
Q 56.984375 54.828125 56.984375 36.375 
Q 56.984375 17.96875 50.515625 8.265625 
Q 44.046875 -1.421875 31.78125 -1.421875 
Q 19.53125 -1.421875 13.0625 8.265625 
Q 6.59375 17.96875 6.59375 36.375 
Q 6.59375 54.828125 13.0625 64.515625 
Q 19.53125 74.21875 31.78125 74.21875 
z
" id="DejaVuSans-48"/>
       </defs>
       <use xlink:href="#DejaVuSans-48"/>
      </g>
     </g>
    </g>
    <g id="xtick_2">
     <g id="line2d_2">
      <g>
       <use style="stroke:#000000;stroke-width:0.8;" x="138.763636" xlink:href="#m021564cc60" y="307.584"/>
      </g>
     </g>
     <g id="text_2">
      <!-- 2000 -->
      <g transform="translate(126.038636 322.182437)scale(0.1 -0.1)">
       <defs>
        <path d="M 19.1875 8.296875 
L 53.609375 8.296875 
L 53.609375 0 
L 7.328125 0 
L 7.328125 8.296875 
Q 12.9375 14.109375 22.625 23.890625 
Q 32.328125 33.6875 34.8125 36.53125 
Q 39.546875 41.84375 41.421875 45.53125 
Q 43.3125 49.21875 43.3125 52.78125 
Q 43.3125 58.59375 39.234375 62.25 
Q 35.15625 65.921875 28.609375 65.921875 
Q 23.96875 65.921875 18.8125 64.3125 
Q 13.671875 62.703125 7.8125 59.421875 
L 7.8125 69.390625 
Q 13.765625 71.78125 18.9375 73 
Q 24.125 74.21875 28.421875 74.21875 
Q 39.75 74.21875 46.484375 68.546875 
Q 53.21875 62.890625 53.21875 53.421875 
Q 53.21875 48.921875 51.53125 44.890625 
Q 49.859375 40.875 45.40625 35.40625 
Q 44.1875 33.984375 37.640625 27.21875 
Q 31.109375 20.453125 19.1875 8.296875 
z
" id="DejaVuSans-50"/>
       </defs>
       <use xlink:href="#DejaVuSans-50"/>
       <use x="63.623047" xlink:href="#DejaVuSans-48"/>
       <use x="127.246094" xlink:href="#DejaVuSans-48"/>
       <use x="190.869141" xlink:href="#DejaVuSans-48"/>
      </g>
     </g>
    </g>
    <g id="xtick_3">
     <g id="line2d_3">
      <g>
       <use style="stroke:#000000;stroke-width:0.8;" x="203.694545" xlink:href="#m021564cc60" y="307.584"/>
      </g>
     </g>
     <g id="text_3">
      <!-- 4000 -->
      <g transform="translate(190.969545 322.182437)scale(0.1 -0.1)">
       <defs>
        <path d="M 37.796875 64.3125 
L 12.890625 25.390625 
L 37.796875 25.390625 
z
M 35.203125 72.90625 
L 47.609375 72.90625 
L 47.609375 25.390625 
L 58.015625 25.390625 
L 58.015625 17.1875 
L 47.609375 17.1875 
L 47.609375 0 
L 37.796875 0 
L 37.796875 17.1875 
L 4.890625 17.1875 
L 4.890625 26.703125 
z
" id="DejaVuSans-52"/>
       </defs>
       <use xlink:href="#DejaVuSans-52"/>
       <use x="63.623047" xlink:href="#DejaVuSans-48"/>
       <use x="127.246094" xlink:href="#DejaVuSans-48"/>
       <use x="190.869141" xlink:href="#DejaVuSans-48"/>
      </g>
     </g>
    </g>
    <g id="xtick_4">
     <g id="line2d_4">
      <g>
       <use style="stroke:#000000;stroke-width:0.8;" x="268.625455" xlink:href="#m021564cc60" y="307.584"/>
      </g>
     </g>
     <g id="text_4">
      <!-- 6000 -->
      <g transform="translate(255.900455 322.182437)scale(0.1 -0.1)">
       <defs>
        <path d="M 33.015625 40.375 
Q 26.375 40.375 22.484375 35.828125 
Q 18.609375 31.296875 18.609375 23.390625 
Q 18.609375 15.53125 22.484375 10.953125 
Q 26.375 6.390625 33.015625 6.390625 
Q 39.65625 6.390625 43.53125 10.953125 
Q 47.40625 15.53125 47.40625 23.390625 
Q 47.40625 31.296875 43.53125 35.828125 
Q 39.65625 40.375 33.015625 40.375 
z
M 52.59375 71.296875 
L 52.59375 62.3125 
Q 48.875 64.0625 45.09375 64.984375 
Q 41.3125 65.921875 37.59375 65.921875 
Q 27.828125 65.921875 22.671875 59.328125 
Q 17.53125 52.734375 16.796875 39.40625 
Q 19.671875 43.65625 24.015625 45.921875 
Q 28.375 48.1875 33.59375 48.1875 
Q 44.578125 48.1875 50.953125 41.515625 
Q 57.328125 34.859375 57.328125 23.390625 
Q 57.328125 12.15625 50.6875 5.359375 
Q 44.046875 -1.421875 33.015625 -1.421875 
Q 20.359375 -1.421875 13.671875 8.265625 
Q 6.984375 17.96875 6.984375 36.375 
Q 6.984375 53.65625 15.1875 63.9375 
Q 23.390625 74.21875 37.203125 74.21875 
Q 40.921875 74.21875 44.703125 73.484375 
Q 48.484375 72.75 52.59375 71.296875 
z
" id="DejaVuSans-54"/>
       </defs>
       <use xlink:href="#DejaVuSans-54"/>
       <use x="63.623047" xlink:href="#DejaVuSans-48"/>
       <use x="127.246094" xlink:href="#DejaVuSans-48"/>
       <use x="190.869141" xlink:href="#DejaVuSans-48"/>
      </g>
     </g>
    </g>
    <g id="xtick_5">
     <g id="line2d_5">
      <g>
       <use style="stroke:#000000;stroke-width:0.8;" x="333.556364" xlink:href="#m021564cc60" y="307.584"/>
      </g>
     </g>
     <g id="text_5">
      <!-- 8000 -->
      <g transform="translate(320.831364 322.182437)scale(0.1 -0.1)">
       <defs>
        <path d="M 31.78125 34.625 
Q 24.75 34.625 20.71875 30.859375 
Q 16.703125 27.09375 16.703125 20.515625 
Q 16.703125 13.921875 20.71875 10.15625 
Q 24.75 6.390625 31.78125 6.390625 
Q 38.8125 6.390625 42.859375 10.171875 
Q 46.921875 13.96875 46.921875 20.515625 
Q 46.921875 27.09375 42.890625 30.859375 
Q 38.875 34.625 31.78125 34.625 
z
M 21.921875 38.8125 
Q 15.578125 40.375 12.03125 44.71875 
Q 8.5 49.078125 8.5 55.328125 
Q 8.5 64.0625 14.71875 69.140625 
Q 20.953125 74.21875 31.78125 74.21875 
Q 42.671875 74.21875 48.875 69.140625 
Q 55.078125 64.0625 55.078125 55.328125 
Q 55.078125 49.078125 51.53125 44.71875 
Q 48 40.375 41.703125 38.8125 
Q 48.828125 37.15625 52.796875 32.3125 
Q 56.78125 27.484375 56.78125 20.515625 
Q 56.78125 9.90625 50.3125 4.234375 
Q 43.84375 -1.421875 31.78125 -1.421875 
Q 19.734375 -1.421875 13.25 4.234375 
Q 6.78125 9.90625 6.78125 20.515625 
Q 6.78125 27.484375 10.78125 32.3125 
Q 14.796875 37.15625 21.921875 38.8125 
z
M 18.3125 54.390625 
Q 18.3125 48.734375 21.84375 45.5625 
Q 25.390625 42.390625 31.78125 42.390625 
Q 38.140625 42.390625 41.71875 45.5625 
Q 45.3125 48.734375 45.3125 54.390625 
Q 45.3125 60.0625 41.71875 63.234375 
Q 38.140625 66.40625 31.78125 66.40625 
Q 25.390625 66.40625 21.84375 63.234375 
Q 18.3125 60.0625 18.3125 54.390625 
z
" id="DejaVuSans-56"/>
       </defs>
       <use xlink:href="#DejaVuSans-56"/>
       <use x="63.623047" xlink:href="#DejaVuSans-48"/>
       <use x="127.246094" xlink:href="#DejaVuSans-48"/>
       <use x="190.869141" xlink:href="#DejaVuSans-48"/>
      </g>
     </g>
    </g>
    <g id="xtick_6">
     <g id="line2d_6">
      <g>
       <use style="stroke:#000000;stroke-width:0.8;" x="398.487273" xlink:href="#m021564cc60" y="307.584"/>
      </g>
     </g>
     <g id="text_6">
      <!-- 10000 -->
      <g transform="translate(382.581023 322.182437)scale(0.1 -0.1)">
       <defs>
        <path d="M 12.40625 8.296875 
L 28.515625 8.296875 
L 28.515625 63.921875 
L 10.984375 60.40625 
L 10.984375 69.390625 
L 28.421875 72.90625 
L 38.28125 72.90625 
L 38.28125 8.296875 
L 54.390625 8.296875 
L 54.390625 0 
L 12.40625 0 
z
" id="DejaVuSans-49"/>
       </defs>
       <use xlink:href="#DejaVuSans-49"/>
       <use x="63.623047" xlink:href="#DejaVuSans-48"/>
       <use x="127.246094" xlink:href="#DejaVuSans-48"/>
       <use x="190.869141" xlink:href="#DejaVuSans-48"/>
       <use x="254.492188" xlink:href="#DejaVuSans-48"/>
      </g>
     </g>
    </g>
    <g id="text_7">
     <!-- Num-time-steps -->
     <g transform="translate(196.056094 335.860562)scale(0.1 -0.1)">
      <defs>
       <path d="M 9.8125 72.90625 
L 23.09375 72.90625 
L 55.421875 11.921875 
L 55.421875 72.90625 
L 64.984375 72.90625 
L 64.984375 0 
L 51.703125 0 
L 19.390625 60.984375 
L 19.390625 0 
L 9.8125 0 
z
" id="DejaVuSans-78"/>
       <path d="M 8.5 21.578125 
L 8.5 54.6875 
L 17.484375 54.6875 
L 17.484375 21.921875 
Q 17.484375 14.15625 20.5 10.265625 
Q 23.53125 6.390625 29.59375 6.390625 
Q 36.859375 6.390625 41.078125 11.03125 
Q 45.3125 15.671875 45.3125 23.6875 
L 45.3125 54.6875 
L 54.296875 54.6875 
L 54.296875 0 
L 45.3125 0 
L 45.3125 8.40625 
Q 42.046875 3.421875 37.71875 1 
Q 33.40625 -1.421875 27.6875 -1.421875 
Q 18.265625 -1.421875 13.375 4.4375 
Q 8.5 10.296875 8.5 21.578125 
z
M 31.109375 56 
z
" id="DejaVuSans-117"/>
       <path d="M 52 44.1875 
Q 55.375 50.25 60.0625 53.125 
Q 64.75 56 71.09375 56 
Q 79.640625 56 84.28125 50.015625 
Q 88.921875 44.046875 88.921875 33.015625 
L 88.921875 0 
L 79.890625 0 
L 79.890625 32.71875 
Q 79.890625 40.578125 77.09375 44.375 
Q 74.3125 48.1875 68.609375 48.1875 
Q 61.625 48.1875 57.5625 43.546875 
Q 53.515625 38.921875 53.515625 30.90625 
L 53.515625 0 
L 44.484375 0 
L 44.484375 32.71875 
Q 44.484375 40.625 41.703125 44.40625 
Q 38.921875 48.1875 33.109375 48.1875 
Q 26.21875 48.1875 22.15625 43.53125 
Q 18.109375 38.875 18.109375 30.90625 
L 18.109375 0 
L 9.078125 0 
L 9.078125 54.6875 
L 18.109375 54.6875 
L 18.109375 46.1875 
Q 21.1875 51.21875 25.484375 53.609375 
Q 29.78125 56 35.6875 56 
Q 41.65625 56 45.828125 52.96875 
Q 50 49.953125 52 44.1875 
z
" id="DejaVuSans-109"/>
       <path d="M 4.890625 31.390625 
L 31.203125 31.390625 
L 31.203125 23.390625 
L 4.890625 23.390625 
z
" id="DejaVuSans-45"/>
       <path d="M 18.3125 70.21875 
L 18.3125 54.6875 
L 36.8125 54.6875 
L 36.8125 47.703125 
L 18.3125 47.703125 
L 18.3125 18.015625 
Q 18.3125 11.328125 20.140625 9.421875 
Q 21.96875 7.515625 27.59375 7.515625 
L 36.8125 7.515625 
L 36.8125 0 
L 27.59375 0 
Q 17.1875 0 13.234375 3.875 
Q 9.28125 7.765625 9.28125 18.015625 
L 9.28125 47.703125 
L 2.6875 47.703125 
L 2.6875 54.6875 
L 9.28125 54.6875 
L 9.28125 70.21875 
z
" id="DejaVuSans-116"/>
       <path d="M 9.421875 54.6875 
L 18.40625 54.6875 
L 18.40625 0 
L 9.421875 0 
z
M 9.421875 75.984375 
L 18.40625 75.984375 
L 18.40625 64.59375 
L 9.421875 64.59375 
z
" id="DejaVuSans-105"/>
       <path d="M 56.203125 29.59375 
L 56.203125 25.203125 
L 14.890625 25.203125 
Q 15.484375 15.921875 20.484375 11.0625 
Q 25.484375 6.203125 34.421875 6.203125 
Q 39.59375 6.203125 44.453125 7.46875 
Q 49.3125 8.734375 54.109375 11.28125 
L 54.109375 2.78125 
Q 49.265625 0.734375 44.1875 -0.34375 
Q 39.109375 -1.421875 33.890625 -1.421875 
Q 20.796875 -1.421875 13.15625 6.1875 
Q 5.515625 13.8125 5.515625 26.8125 
Q 5.515625 40.234375 12.765625 48.109375 
Q 20.015625 56 32.328125 56 
Q 43.359375 56 49.78125 48.890625 
Q 56.203125 41.796875 56.203125 29.59375 
z
M 47.21875 32.234375 
Q 47.125 39.59375 43.09375 43.984375 
Q 39.0625 48.390625 32.421875 48.390625 
Q 24.90625 48.390625 20.390625 44.140625 
Q 15.875 39.890625 15.1875 32.171875 
z
" id="DejaVuSans-101"/>
       <path d="M 44.28125 53.078125 
L 44.28125 44.578125 
Q 40.484375 46.53125 36.375 47.5 
Q 32.28125 48.484375 27.875 48.484375 
Q 21.1875 48.484375 17.84375 46.4375 
Q 14.5 44.390625 14.5 40.28125 
Q 14.5 37.15625 16.890625 35.375 
Q 19.28125 33.59375 26.515625 31.984375 
L 29.59375 31.296875 
Q 39.15625 29.25 43.1875 25.515625 
Q 47.21875 21.78125 47.21875 15.09375 
Q 47.21875 7.46875 41.1875 3.015625 
Q 35.15625 -1.421875 24.609375 -1.421875 
Q 20.21875 -1.421875 15.453125 -0.5625 
Q 10.6875 0.296875 5.421875 2 
L 5.421875 11.28125 
Q 10.40625 8.6875 15.234375 7.390625 
Q 20.0625 6.109375 24.8125 6.109375 
Q 31.15625 6.109375 34.5625 8.28125 
Q 37.984375 10.453125 37.984375 14.40625 
Q 37.984375 18.0625 35.515625 20.015625 
Q 33.0625 21.96875 24.703125 23.78125 
L 21.578125 24.515625 
Q 13.234375 26.265625 9.515625 29.90625 
Q 5.8125 33.546875 5.8125 39.890625 
Q 5.8125 47.609375 11.28125 51.796875 
Q 16.75 56 26.8125 56 
Q 31.78125 56 36.171875 55.265625 
Q 40.578125 54.546875 44.28125 53.078125 
z
" id="DejaVuSans-115"/>
       <path d="M 18.109375 8.203125 
L 18.109375 -20.796875 
L 9.078125 -20.796875 
L 9.078125 54.6875 
L 18.109375 54.6875 
L 18.109375 46.390625 
Q 20.953125 51.265625 25.265625 53.625 
Q 29.59375 56 35.59375 56 
Q 45.5625 56 51.78125 48.09375 
Q 58.015625 40.1875 58.015625 27.296875 
Q 58.015625 14.40625 51.78125 6.484375 
Q 45.5625 -1.421875 35.59375 -1.421875 
Q 29.59375 -1.421875 25.265625 0.953125 
Q 20.953125 3.328125 18.109375 8.203125 
z
M 48.6875 27.296875 
Q 48.6875 37.203125 44.609375 42.84375 
Q 40.53125 48.484375 33.40625 48.484375 
Q 26.265625 48.484375 22.1875 42.84375 
Q 18.109375 37.203125 18.109375 27.296875 
Q 18.109375 17.390625 22.1875 11.75 
Q 26.265625 6.109375 33.40625 6.109375 
Q 40.53125 6.109375 44.609375 11.75 
Q 48.6875 17.390625 48.6875 27.296875 
z
" id="DejaVuSans-112"/>
      </defs>
      <use xlink:href="#DejaVuSans-78"/>
      <use x="74.804688" xlink:href="#DejaVuSans-117"/>
      <use x="138.183594" xlink:href="#DejaVuSans-109"/>
      <use x="235.595703" xlink:href="#DejaVuSans-45"/>
      <use x="271.679688" xlink:href="#DejaVuSans-116"/>
      <use x="310.888672" xlink:href="#DejaVuSans-105"/>
      <use x="338.671875" xlink:href="#DejaVuSans-109"/>
      <use x="436.083984" xlink:href="#DejaVuSans-101"/>
      <use x="497.607422" xlink:href="#DejaVuSans-45"/>
      <use x="533.691406" xlink:href="#DejaVuSans-115"/>
      <use x="585.791016" xlink:href="#DejaVuSans-116"/>
      <use x="625" xlink:href="#DejaVuSans-101"/>
      <use x="686.523438" xlink:href="#DejaVuSans-112"/>
      <use x="750" xlink:href="#DejaVuSans-115"/>
     </g>
    </g>
   </g>
   <g id="matplotlib.axis_2">
    <g id="ytick_1">
     <g id="line2d_7">
      <defs>
       <path d="M 0 0 
L -3.5 0 
" id="m39f78b8245" style="stroke:#000000;stroke-width:0.8;"/>
      </defs>
      <g>
       <use style="stroke:#000000;stroke-width:0.8;" x="57.6" xlink:href="#m39f78b8245" y="302.286707"/>
      </g>
     </g>
     <g id="text_8">
      <!-- 0.0 -->
      <g transform="translate(34.696875 306.085925)scale(0.1 -0.1)">
       <defs>
        <path d="M 10.6875 12.40625 
L 21 12.40625 
L 21 0 
L 10.6875 0 
z
" id="DejaVuSans-46"/>
       </defs>
       <use xlink:href="#DejaVuSans-48"/>
       <use x="63.623047" xlink:href="#DejaVuSans-46"/>
       <use x="95.410156" xlink:href="#DejaVuSans-48"/>
      </g>
     </g>
    </g>
    <g id="ytick_2">
     <g id="line2d_8">
      <g>
       <use style="stroke:#000000;stroke-width:0.8;" x="57.6" xlink:href="#m39f78b8245" y="267.562143"/>
      </g>
     </g>
     <g id="text_9">
      <!-- 0.1 -->
      <g transform="translate(34.696875 271.361362)scale(0.1 -0.1)">
       <use xlink:href="#DejaVuSans-48"/>
       <use x="63.623047" xlink:href="#DejaVuSans-46"/>
       <use x="95.410156" xlink:href="#DejaVuSans-49"/>
      </g>
     </g>
    </g>
    <g id="ytick_3">
     <g id="line2d_9">
      <g>
       <use style="stroke:#000000;stroke-width:0.8;" x="57.6" xlink:href="#m39f78b8245" y="232.83758"/>
      </g>
     </g>
     <g id="text_10">
      <!-- 0.2 -->
      <g transform="translate(34.696875 236.636799)scale(0.1 -0.1)">
       <use xlink:href="#DejaVuSans-48"/>
       <use x="63.623047" xlink:href="#DejaVuSans-46"/>
       <use x="95.410156" xlink:href="#DejaVuSans-50"/>
      </g>
     </g>
    </g>
    <g id="ytick_4">
     <g id="line2d_10">
      <g>
       <use style="stroke:#000000;stroke-width:0.8;" x="57.6" xlink:href="#m39f78b8245" y="198.113017"/>
      </g>
     </g>
     <g id="text_11">
      <!-- 0.3 -->
      <g transform="translate(34.696875 201.912236)scale(0.1 -0.1)">
       <defs>
        <path d="M 40.578125 39.3125 
Q 47.65625 37.796875 51.625 33 
Q 55.609375 28.21875 55.609375 21.1875 
Q 55.609375 10.40625 48.1875 4.484375 
Q 40.765625 -1.421875 27.09375 -1.421875 
Q 22.515625 -1.421875 17.65625 -0.515625 
Q 12.796875 0.390625 7.625 2.203125 
L 7.625 11.71875 
Q 11.71875 9.328125 16.59375 8.109375 
Q 21.484375 6.890625 26.8125 6.890625 
Q 36.078125 6.890625 40.9375 10.546875 
Q 45.796875 14.203125 45.796875 21.1875 
Q 45.796875 27.640625 41.28125 31.265625 
Q 36.765625 34.90625 28.71875 34.90625 
L 20.21875 34.90625 
L 20.21875 43.015625 
L 29.109375 43.015625 
Q 36.375 43.015625 40.234375 45.921875 
Q 44.09375 48.828125 44.09375 54.296875 
Q 44.09375 59.90625 40.109375 62.90625 
Q 36.140625 65.921875 28.71875 65.921875 
Q 24.65625 65.921875 20.015625 65.03125 
Q 15.375 64.15625 9.8125 62.3125 
L 9.8125 71.09375 
Q 15.4375 72.65625 20.34375 73.4375 
Q 25.25 74.21875 29.59375 74.21875 
Q 40.828125 74.21875 47.359375 69.109375 
Q 53.90625 64.015625 53.90625 55.328125 
Q 53.90625 49.265625 50.4375 45.09375 
Q 46.96875 40.921875 40.578125 39.3125 
z
" id="DejaVuSans-51"/>
       </defs>
       <use xlink:href="#DejaVuSans-48"/>
       <use x="63.623047" xlink:href="#DejaVuSans-46"/>
       <use x="95.410156" xlink:href="#DejaVuSans-51"/>
      </g>
     </g>
    </g>
    <g id="ytick_5">
     <g id="line2d_11">
      <g>
       <use style="stroke:#000000;stroke-width:0.8;" x="57.6" xlink:href="#m39f78b8245" y="163.388454"/>
      </g>
     </g>
     <g id="text_12">
      <!-- 0.4 -->
      <g transform="translate(34.696875 167.187673)scale(0.1 -0.1)">
       <use xlink:href="#DejaVuSans-48"/>
       <use x="63.623047" xlink:href="#DejaVuSans-46"/>
       <use x="95.410156" xlink:href="#DejaVuSans-52"/>
      </g>
     </g>
    </g>
    <g id="ytick_6">
     <g id="line2d_12">
      <g>
       <use style="stroke:#000000;stroke-width:0.8;" x="57.6" xlink:href="#m39f78b8245" y="128.663891"/>
      </g>
     </g>
     <g id="text_13">
      <!-- 0.5 -->
      <g transform="translate(34.696875 132.463109)scale(0.1 -0.1)">
       <defs>
        <path d="M 10.796875 72.90625 
L 49.515625 72.90625 
L 49.515625 64.59375 
L 19.828125 64.59375 
L 19.828125 46.734375 
Q 21.96875 47.46875 24.109375 47.828125 
Q 26.265625 48.1875 28.421875 48.1875 
Q 40.625 48.1875 47.75 41.5 
Q 54.890625 34.8125 54.890625 23.390625 
Q 54.890625 11.625 47.5625 5.09375 
Q 40.234375 -1.421875 26.90625 -1.421875 
Q 22.3125 -1.421875 17.546875 -0.640625 
Q 12.796875 0.140625 7.71875 1.703125 
L 7.71875 11.625 
Q 12.109375 9.234375 16.796875 8.0625 
Q 21.484375 6.890625 26.703125 6.890625 
Q 35.15625 6.890625 40.078125 11.328125 
Q 45.015625 15.765625 45.015625 23.390625 
Q 45.015625 31 40.078125 35.4375 
Q 35.15625 39.890625 26.703125 39.890625 
Q 22.75 39.890625 18.8125 39.015625 
Q 14.890625 38.140625 10.796875 36.28125 
z
" id="DejaVuSans-53"/>
       </defs>
       <use xlink:href="#DejaVuSans-48"/>
       <use x="63.623047" xlink:href="#DejaVuSans-46"/>
       <use x="95.410156" xlink:href="#DejaVuSans-53"/>
      </g>
     </g>
    </g>
    <g id="ytick_7">
     <g id="line2d_13">
      <g>
       <use style="stroke:#000000;stroke-width:0.8;" x="57.6" xlink:href="#m39f78b8245" y="93.939328"/>
      </g>
     </g>
     <g id="text_14">
      <!-- 0.6 -->
      <g transform="translate(34.696875 97.738546)scale(0.1 -0.1)">
       <use xlink:href="#DejaVuSans-48"/>
       <use x="63.623047" xlink:href="#DejaVuSans-46"/>
       <use x="95.410156" xlink:href="#DejaVuSans-54"/>
      </g>
     </g>
    </g>
    <g id="ytick_8">
     <g id="line2d_14">
      <g>
       <use style="stroke:#000000;stroke-width:0.8;" x="57.6" xlink:href="#m39f78b8245" y="59.214764"/>
      </g>
     </g>
     <g id="text_15">
      <!-- 0.7 -->
      <g transform="translate(34.696875 63.013983)scale(0.1 -0.1)">
       <defs>
        <path d="M 8.203125 72.90625 
L 55.078125 72.90625 
L 55.078125 68.703125 
L 28.609375 0 
L 18.3125 0 
L 43.21875 64.59375 
L 8.203125 64.59375 
z
" id="DejaVuSans-55"/>
       </defs>
       <use xlink:href="#DejaVuSans-48"/>
       <use x="63.623047" xlink:href="#DejaVuSans-46"/>
       <use x="95.410156" xlink:href="#DejaVuSans-55"/>
      </g>
     </g>
    </g>
    <g id="text_16">
     <!-- Obj-pose-error-norm -->
     <g transform="translate(28.617187 225.203781)rotate(-90)scale(0.1 -0.1)">
      <defs>
       <path d="M 39.40625 66.21875 
Q 28.65625 66.21875 22.328125 58.203125 
Q 16.015625 50.203125 16.015625 36.375 
Q 16.015625 22.609375 22.328125 14.59375 
Q 28.65625 6.59375 39.40625 6.59375 
Q 50.140625 6.59375 56.421875 14.59375 
Q 62.703125 22.609375 62.703125 36.375 
Q 62.703125 50.203125 56.421875 58.203125 
Q 50.140625 66.21875 39.40625 66.21875 
z
M 39.40625 74.21875 
Q 54.734375 74.21875 63.90625 63.9375 
Q 73.09375 53.65625 73.09375 36.375 
Q 73.09375 19.140625 63.90625 8.859375 
Q 54.734375 -1.421875 39.40625 -1.421875 
Q 24.03125 -1.421875 14.8125 8.828125 
Q 5.609375 19.09375 5.609375 36.375 
Q 5.609375 53.65625 14.8125 63.9375 
Q 24.03125 74.21875 39.40625 74.21875 
z
" id="DejaVuSans-79"/>
       <path d="M 48.6875 27.296875 
Q 48.6875 37.203125 44.609375 42.84375 
Q 40.53125 48.484375 33.40625 48.484375 
Q 26.265625 48.484375 22.1875 42.84375 
Q 18.109375 37.203125 18.109375 27.296875 
Q 18.109375 17.390625 22.1875 11.75 
Q 26.265625 6.109375 33.40625 6.109375 
Q 40.53125 6.109375 44.609375 11.75 
Q 48.6875 17.390625 48.6875 27.296875 
z
M 18.109375 46.390625 
Q 20.953125 51.265625 25.265625 53.625 
Q 29.59375 56 35.59375 56 
Q 45.5625 56 51.78125 48.09375 
Q 58.015625 40.1875 58.015625 27.296875 
Q 58.015625 14.40625 51.78125 6.484375 
Q 45.5625 -1.421875 35.59375 -1.421875 
Q 29.59375 -1.421875 25.265625 0.953125 
Q 20.953125 3.328125 18.109375 8.203125 
L 18.109375 0 
L 9.078125 0 
L 9.078125 75.984375 
L 18.109375 75.984375 
z
" id="DejaVuSans-98"/>
       <path d="M 9.421875 54.6875 
L 18.40625 54.6875 
L 18.40625 -0.984375 
Q 18.40625 -11.421875 14.421875 -16.109375 
Q 10.453125 -20.796875 1.609375 -20.796875 
L -1.8125 -20.796875 
L -1.8125 -13.1875 
L 0.59375 -13.1875 
Q 5.71875 -13.1875 7.5625 -10.8125 
Q 9.421875 -8.453125 9.421875 -0.984375 
z
M 9.421875 75.984375 
L 18.40625 75.984375 
L 18.40625 64.59375 
L 9.421875 64.59375 
z
" id="DejaVuSans-106"/>
       <path d="M 30.609375 48.390625 
Q 23.390625 48.390625 19.1875 42.75 
Q 14.984375 37.109375 14.984375 27.296875 
Q 14.984375 17.484375 19.15625 11.84375 
Q 23.34375 6.203125 30.609375 6.203125 
Q 37.796875 6.203125 41.984375 11.859375 
Q 46.1875 17.53125 46.1875 27.296875 
Q 46.1875 37.015625 41.984375 42.703125 
Q 37.796875 48.390625 30.609375 48.390625 
z
M 30.609375 56 
Q 42.328125 56 49.015625 48.375 
Q 55.71875 40.765625 55.71875 27.296875 
Q 55.71875 13.875 49.015625 6.21875 
Q 42.328125 -1.421875 30.609375 -1.421875 
Q 18.84375 -1.421875 12.171875 6.21875 
Q 5.515625 13.875 5.515625 27.296875 
Q 5.515625 40.765625 12.171875 48.375 
Q 18.84375 56 30.609375 56 
z
" id="DejaVuSans-111"/>
       <path d="M 41.109375 46.296875 
Q 39.59375 47.171875 37.8125 47.578125 
Q 36.03125 48 33.890625 48 
Q 26.265625 48 22.1875 43.046875 
Q 18.109375 38.09375 18.109375 28.8125 
L 18.109375 0 
L 9.078125 0 
L 9.078125 54.6875 
L 18.109375 54.6875 
L 18.109375 46.1875 
Q 20.953125 51.171875 25.484375 53.578125 
Q 30.03125 56 36.53125 56 
Q 37.453125 56 38.578125 55.875 
Q 39.703125 55.765625 41.0625 55.515625 
z
" id="DejaVuSans-114"/>
       <path d="M 54.890625 33.015625 
L 54.890625 0 
L 45.90625 0 
L 45.90625 32.71875 
Q 45.90625 40.484375 42.875 44.328125 
Q 39.84375 48.1875 33.796875 48.1875 
Q 26.515625 48.1875 22.3125 43.546875 
Q 18.109375 38.921875 18.109375 30.90625 
L 18.109375 0 
L 9.078125 0 
L 9.078125 54.6875 
L 18.109375 54.6875 
L 18.109375 46.1875 
Q 21.34375 51.125 25.703125 53.5625 
Q 30.078125 56 35.796875 56 
Q 45.21875 56 50.046875 50.171875 
Q 54.890625 44.34375 54.890625 33.015625 
z
" id="DejaVuSans-110"/>
      </defs>
      <use xlink:href="#DejaVuSans-79"/>
      <use x="78.710938" xlink:href="#DejaVuSans-98"/>
      <use x="142.1875" xlink:href="#DejaVuSans-106"/>
      <use x="169.970703" xlink:href="#DejaVuSans-45"/>
      <use x="206.054688" xlink:href="#DejaVuSans-112"/>
      <use x="269.53125" xlink:href="#DejaVuSans-111"/>
      <use x="330.712891" xlink:href="#DejaVuSans-115"/>
      <use x="382.8125" xlink:href="#DejaVuSans-101"/>
      <use x="444.335938" xlink:href="#DejaVuSans-45"/>
      <use x="480.419922" xlink:href="#DejaVuSans-101"/>
      <use x="541.943359" xlink:href="#DejaVuSans-114"/>
      <use x="581.306641" xlink:href="#DejaVuSans-114"/>
      <use x="620.169922" xlink:href="#DejaVuSans-111"/>
      <use x="681.351562" xlink:href="#DejaVuSans-114"/>
      <use x="716.089844" xlink:href="#DejaVuSans-45"/>
      <use x="752.173828" xlink:href="#DejaVuSans-110"/>
      <use x="815.552734" xlink:href="#DejaVuSans-111"/>
      <use x="876.734375" xlink:href="#DejaVuSans-114"/>
      <use x="916.097656" xlink:href="#DejaVuSans-109"/>
     </g>
    </g>
   </g>
   <g id="line2d_15">
    <path clip-path="url(#pddd0d95fed)" d="M 73.832727 295.123988 
L 73.865193 295.327284 
L 74.02752 282.10056 
L 74.222313 261.977756 
L 74.287244 262.123245 
L 74.709295 295.488 
L 74.774225 295.178735 
L 74.969018 292.828523 
L 75.391069 284.462816 
L 76.332567 266.026307 
L 77.793513 243.971843 
L 79.092131 226.471112 
L 80.066095 218.881422 
L 81.202385 209.249969 
L 81.981556 203.244389 
L 82.338676 201.978951 
L 82.890589 200.141284 
L 84.416465 194.111408 
L 84.708655 193.650473 
L 85.422895 193.319881 
L 85.942342 192.875199 
L 87.370822 193.021315 
L 87.9552 193.618024 
L 88.279855 193.689507 
L 88.864233 193.251853 
L 88.896698 193.292034 
L 89.221353 193.89488 
L 89.773265 195.359137 
L 90.032989 195.365499 
L 90.292713 195.342965 
L 90.682298 195.609323 
L 91.558865 196.098057 
L 92.727622 195.717078 
L 92.857484 195.686292 
L 93.66912 196.293178 
L 94.285964 196.780455 
L 94.415825 196.612215 
L 94.837876 195.798705 
L 94.935273 195.652971 
L 95.324858 195.103521 
L 95.746909 194.819822 
L 96.039098 194.740228 
L 96.266356 194.619477 
L 96.461149 194.423886 
L 97.987025 191.945021 
L 98.181818 191.856415 
L 98.344145 191.822729 
L 98.928524 192.121391 
L 99.155782 192.037805 
L 99.999884 191.203003 
L 100.714124 190.783163 
L 102.077673 192.744425 
L 102.499724 192.787231 
L 102.824378 192.693372 
L 103.376291 192.594709 
L 103.733411 192.74163 
L 103.993135 192.870464 
L 104.350255 193.035092 
L 105.45408 194.105691 
L 105.941062 194.794342 
L 106.103389 194.930978 
L 106.720233 195.772627 
L 108.343505 198.425253 
L 108.505833 198.557779 
L 108.830487 198.584985 
L 109.3824 198.300627 
L 109.577193 198.444142 
L 109.999244 198.659559 
L 110.45376 198.772312 
L 110.875811 198.605765 
L 111.103069 198.369613 
L 111.200465 198.391618 
L 111.752378 197.405513 
L 112.077033 196.883848 
L 112.434153 196.526077 
L 112.564015 196.571463 
L 112.823738 196.929945 
L 113.375651 198.377352 
L 113.440582 198.347003 
L 113.635375 198.370332 
L 113.862633 198.353267 
L 114.219753 198.215675 
L 114.706735 198.295892 
L 115.031389 198.242941 
L 115.193716 198.250484 
L 115.940422 198.728537 
L 116.362473 198.267749 
L 116.719593 197.853013 
L 117.466298 197.202409 
L 117.59616 197.152738 
L 117.888349 196.970236 
L 118.342865 197.11372 
L 118.699985 196.819276 
L 118.992175 196.49423 
L 119.316829 196.280912 
L 119.544087 196.386059 
L 119.901207 196.676453 
L 120.193396 196.721195 
L 120.582982 196.657177 
L 121.556945 196.117598 
L 121.8816 195.442486 
L 122.498444 194.667914 
L 123.926924 193.099933 
L 124.121716 193.311723 
L 124.576233 194.070551 
L 124.803491 194.404397 
L 125.160611 194.318652 
L 126.037178 194.611246 
L 126.361833 194.972869 
L 126.88128 195.386658 
L 127.173469 195.490431 
L 127.530589 195.779836 
L 127.790313 195.956043 
L 127.985105 196.031108 
L 128.277295 196.035394 
L 128.439622 195.933102 
L 128.731811 195.814821 
L 128.991535 195.819229 
L 129.316189 195.906644 
L 129.705775 195.993516 
L 129.868102 196.00509 
L 130.062895 196.101341 
L 130.127825 196.314636 
L 130.192756 196.258535 
L 130.45248 196.14051 
L 130.647273 196.051963 
L 131.036858 196.058974 
L 131.264116 195.891742 
L 132.140684 196.971113 
L 132.173149 196.893829 
L 132.530269 196.927993 
L 132.627665 196.952526 
L 132.95232 196.467726 
L 133.439302 196.489539 
L 133.926284 197.343222 
L 134.250938 197.441636 
L 134.73792 197.176004 
L 134.997644 197.211222 
L 135.192436 196.979444 
L 135.582022 196.791858 
L 135.939142 196.674839 
L 136.1664 196.607819 
L 136.555985 196.503781 
L 137.659811 197.544892 
L 137.887069 197.570557 
L 137.984465 197.548852 
L 138.049396 197.69224 
L 138.081862 197.535854 
L 138.341585 196.873795 
L 138.828567 196.259848 
L 139.542807 196.174841 
L 139.7376 196.245992 
L 140.192116 196.324871 
L 141.555665 197.845702 
L 141.88032 197.681553 
L 142.075113 197.550557 
L 143.178938 198.310682 
L 143.276335 198.517949 
L 143.3088 198.504602 
L 143.925644 199.056872 
L 144.185367 199.474808 
L 144.802211 199.905799 
L 145.061935 199.828765 
L 145.224262 199.962861 
L 145.256727 200.126622 
L 145.321658 199.973668 
L 145.386589 199.968533 
L 145.419055 200.026721 
L 145.581382 200.452833 
L 146.490415 203.120277 
L 146.652742 203.457888 
L 146.912465 203.893234 
L 147.431913 204.119703 
L 147.95136 204.086229 
L 148.373411 204.633223 
L 149.37984 205.572604 
L 149.73696 206.139516 
L 149.996684 206.377042 
L 150.159011 206.299761 
L 150.581062 206.146399 
L 150.678458 206.103836 
L 150.905716 205.845893 
L 151.619956 206.180939 
L 151.749818 206.085063 
L 151.944611 205.972038 
L 152.074473 205.905933 
L 152.399127 205.75801 
L 152.691316 205.82216 
L 153.697745 207.489125 
L 154.509382 207.854863 
L 154.769105 207.47399 
L 155.45088 206.320497 
L 155.905396 205.7596 
L 156.489775 205.957796 
L 156.814429 206.221808 
L 157.139084 205.97572 
L 157.561135 205.645598 
L 157.853324 205.692278 
L 158.275375 205.978345 
L 158.827287 206.122775 
L 159.3792 205.915312 
L 159.703855 205.647014 
L 160.158371 205.581541 
L 160.937542 206.067596 
L 161.132335 206.018618 
L 161.294662 205.961516 
L 161.846575 205.507833 
L 162.268625 205.310819 
L 162.658211 205.279506 
L 162.853004 205.251883 
L 163.210124 205.478118 
L 163.534778 205.584364 
L 163.762036 205.462528 
L 164.184087 205.02745 
L 165.612567 203.741385 
L 166.391738 203.331062 
L 166.618996 203.459253 
L 167.23584 203.856237 
L 167.59296 203.722038 
L 168.015011 203.52444 
L 168.274735 203.591331 
L 168.599389 203.632243 
L 169.118836 203.745444 
L 169.508422 203.930987 
L 169.898007 203.927376 
L 171.423884 203.421761 
L 172.008262 203.55124 
L 172.267985 203.450564 
L 172.560175 203.435142 
L 173.047156 203.338895 
L 173.599069 203.240915 
L 174.215913 203.286782 
L 174.702895 203.244933 
L 174.995084 203.355522 
L 175.579462 203.208908 
L 175.80672 203.171508 
L 176.16384 202.802153 
L 176.715753 202.301292 
L 176.910545 202.463446 
L 177.170269 202.681464 
L 178.403956 203.063274 
L 178.533818 202.9497 
L 179.410385 201.641078 
L 179.767505 201.446199 
L 180.254487 201.530309 
L 180.709004 202.113498 
L 181.942691 200.994451 
L 182.169949 200.962134 
L 182.786793 201.04613 
L 183.014051 201.404686 
L 183.338705 201.887483 
L 183.533498 201.866899 
L 184.215273 201.117342 
L 184.637324 200.473306 
L 184.864582 200.509309 
L 185.059375 200.771743 
L 185.578822 201.534359 
L 185.903476 201.435142 
L 186.098269 201.105982 
L 186.747578 199.756184 
L 186.909905 199.789749 
L 187.137164 199.816647 
L 187.331956 199.666821 
L 188.273455 198.167209 
L 188.468247 198.0592 
L 189.02016 197.419535 
L 189.150022 197.313576 
L 189.831796 196.106192 
L 190.383709 194.807085 
L 191.065484 193.143121 
L 191.292742 192.685509 
L 192.169309 190.779234 
L 192.916015 188.733664 
L 193.532858 187.43336 
L 193.987375 186.455626 
L 194.214633 185.823615 
L 194.928873 184.217548 
L 195.80544 182.131316 
L 196.682007 179.453284 
L 197.039127 178.791407 
L 197.23392 178.345456 
L 198.30528 174.158088 
L 198.6624 173.431285 
L 199.084451 173.050783 
L 199.506502 172.295896 
L 199.831156 171.115053 
L 200.383069 168.400717 
L 200.740189 167.816367 
L 200.967447 167.419475 
L 202.655651 163.665898 
L 203.142633 163.323438 
L 203.694545 162.464852 
L 204.084131 161.453102 
L 204.700975 160.955891 
L 204.993164 161.071192 
L 205.123025 160.978787 
L 205.44768 160.147075 
L 205.707404 159.652337 
L 205.934662 159.226019 
L 206.389178 158.428294 
L 206.941091 158.490926 
L 207.103418 158.279009 
L 207.330676 158.087342 
L 207.752727 157.737546 
L 208.596829 156.171459 
L 208.921484 156.324328 
L 209.148742 156.550652 
L 209.473396 156.631775 
L 209.765585 156.586441 
L 210.414895 156.507833 
L 210.739549 156.973958 
L 211.226531 157.792449 
L 211.681047 157.999628 
L 212.427753 158.421283 
L 212.979665 158.519724 
L 213.174458 158.645679 
L 214.01856 159.059924 
L 215.08992 161.021518 
L 215.544436 161.351123 
L 215.771695 161.513429 
L 215.901556 161.55289 
L 216.128815 161.906021 
L 216.810589 163.061831 
L 217.070313 163.212342 
L 217.200175 163.290011 
L 217.622225 164.083265 
L 218.336465 165.426843 
L 218.531258 165.468147 
L 219.01824 165.670641 
L 219.180567 165.943227 
L 219.829876 167.574881 
L 220.186996 168.043644 
L 221.063564 169.021183 
L 223.758196 174.350239 
L 223.985455 174.593695 
L 225.80352 177.783488 
L 226.063244 178.241336 
L 226.647622 179.91356 
L 227.264465 181.575043 
L 228.30336 184.645829 
L 228.790342 185.914711 
L 229.699375 188.037794 
L 230.08896 188.742662 
L 230.900596 190.549848 
L 231.679767 192.186142 
L 232.426473 193.618895 
L 232.816058 194.173633 
L 233.140713 194.547871 
L 235.900276 199.116551 
L 237.880669 201.711633 
L 238.367651 202.489636 
L 239.276684 203.33022 
L 241.354473 206.088624 
L 241.646662 206.341279 
L 242.068713 206.780587 
L 242.620625 207.353104 
L 243.3024 208.214949 
L 243.724451 208.568903 
L 243.919244 208.729135 
L 244.406225 209.091138 
L 244.925673 209.31246 
L 245.477585 209.866632 
L 246.126895 210.292375 
L 246.711273 210.701013 
L 247.328116 211.260754 
L 248.204684 211.988618 
L 249.470836 212.743115 
L 250.639593 212.91333 
L 251.581091 212.435058 
L 252.035607 212.377642 
L 252.262865 212.254221 
L 252.717382 211.861842 
L 255.249687 210.182276 
L 255.574342 210.093072 
L 256.321047 209.590734 
L 256.840495 209.250812 
L 257.197615 209.211052 
L 257.846924 208.700469 
L 258.463767 208.284059 
L 259.113076 207.986156 
L 260.022109 207.560434 
L 262.034967 207.695933 
L 263.268655 207.771638 
L 264.340015 208.013548 
L 264.762065 208.410528 
L 265.08672 208.753718 
L 265.313978 208.773377 
L 265.508771 208.631295 
L 265.930822 208.939116 
L 266.645062 209.17534 
L 267.261905 209.590546 
L 268.430662 210.204483 
L 269.112436 210.265785 
L 269.404625 210.364281 
L 270.248727 210.459398 
L 271.320087 210.022722 
L 271.709673 209.780561 
L 272.618705 209.135089 
L 273.235549 208.726078 
L 273.722531 208.479951 
L 274.534167 207.434401 
L 275.021149 206.793629 
L 275.573062 206.30288 
L 276.124975 205.318863 
L 276.417164 204.966097 
L 277.2288 203.673517 
L 278.235229 202.386711 
L 279.241658 200.430463 
L 280.248087 198.654017 
L 280.735069 197.848953 
L 281.644102 196.087137 
L 281.709033 196.1015 
L 281.741498 196.06973 
L 282.163549 195.010351 
L 282.390807 194.552513 
L 283.494633 192.533065 
L 284.01408 191.675884 
L 284.501062 190.547141 
L 284.988044 189.438917 
L 285.247767 189.04976 
L 285.637353 188.334704 
L 286.838575 185.69691 
L 287.877469 184.099027 
L 289.37088 181.380247 
L 290.247447 179.491389 
L 291.416204 177.897574 
L 291.740858 177.324366 
L 292.58496 176.059452 
L 292.844684 175.865898 
L 293.104407 175.4793 
L 293.558924 174.42194 
L 294.338095 172.754611 
L 294.760145 172.458663 
L 295.019869 172.327697 
L 295.312058 171.828149 
L 296.286022 169.706957 
L 296.610676 169.30737 
L 297.22752 168.264455 
L 298.006691 166.174484 
L 298.753396 164.793201 
L 299.792291 163.281736 
L 300.246807 162.019317 
L 300.961047 159.477766 
L 301.220771 158.840965 
L 302.681716 155.617137 
L 302.811578 155.469213 
L 303.233629 154.515629 
L 303.785542 152.180643 
L 304.110196 151.050233 
L 304.824436 149.402703 
L 305.019229 149.148288 
L 305.116625 149.056522 
L 305.311418 148.444998 
L 307.032087 140.38658 
L 308.460567 134.091932 
L 309.986444 125.58543 
L 310.635753 122.681523 
L 310.927942 120.440103 
L 311.479855 116.753391 
L 311.86944 114.802865 
L 312.323956 111.855676 
L 313.103127 107.04851 
L 315.765295 90.987048 
L 316.252276 89.14404 
L 316.544465 87.316054 
L 317.096378 83.863921 
L 318.2976 77.593862 
L 318.589789 76.403724 
L 318.849513 75.483382 
L 319.72608 70.692733 
L 320.310458 67.441813 
L 320.927302 65.705258 
L 321.024698 65.656333 
L 321.057164 65.693544 
L 321.15456 65.834541 
L 321.479215 66.584629 
L 321.609076 66.632146 
L 321.641542 66.590021 
L 321.836335 65.992648 
L 323.167418 60.385561 
L 323.686865 59.873381 
L 324.206313 60.068042 
L 324.336175 59.827473 
L 324.855622 58.531596 
L 325.375069 57.275429 
L 326.413964 54.04225 
L 326.673687 54.03423 
L 326.738618 54.052845 
L 326.771084 53.973857 
L 327.258065 53.585828 
L 327.647651 53.663368 
L 327.809978 53.9596 
L 328.361891 55.624201 
L 328.556684 55.78731 
L 328.65408 55.865588 
L 328.978735 56.547435 
L 329.076131 56.388815 
L 329.303389 56.364561 
L 329.36832 56.3285 
L 329.400785 56.457953 
L 329.465716 56.344157 
L 329.985164 56.673218 
L 330.115025 56.657154 
L 330.472145 57.392309 
L 330.959127 58.64471 
L 331.413644 59.516987 
L 331.608436 59.857358 
L 331.673367 59.992124 
L 331.738298 59.935016 
L 331.933091 60.133262 
L 332.062953 60.117253 
L 332.192815 60.043284 
L 332.517469 59.711292 
L 332.647331 59.771892 
L 332.842124 59.996187 
L 332.907055 59.853318 
L 332.971985 59.891119 
L 333.199244 59.976387 
L 333.394036 59.554976 
L 333.458967 59.62173 
L 333.556364 59.636058 
L 333.686225 59.499816 
L 333.783622 59.630521 
L 333.816087 59.553246 
L 333.881018 59.565986 
L 333.978415 59.861616 
L 334.01088 59.808683 
L 334.043345 59.759098 
L 334.075811 59.82304 
L 334.140742 59.987714 
L 334.173207 59.97128 
L 334.205673 59.8458 
L 334.270604 59.978554 
L 334.335535 60.249555 
L 334.400465 60.184517 
L 334.595258 60.713412 
L 334.627724 60.544618 
L 334.692655 60.557225 
L 334.757585 60.99012 
L 334.790051 60.779144 
L 334.854982 60.240557 
L 334.952378 60.309691 
L 334.984844 60.512567 
L 335.017309 60.440278 
L 335.147171 59.896148 
L 335.309498 61.241717 
L 335.471825 60.815126 
L 335.504291 60.419689 
L 335.569222 60.933757 
L 335.601687 60.981146 
L 335.764015 61.684142 
L 335.79648 61.707676 
L 336.575651 66.760044 
L 336.770444 68.453356 
L 336.802909 68.286949 
L 336.835375 68.538421 
L 336.86784 68.581052 
L 337.127564 71.463388 
L 338.069062 81.490047 
L 338.426182 84.248351 
L 339.270284 87.583765 
L 339.465076 88.201107 
L 339.854662 90.955059 
L 340.471505 95.645029 
L 342.159709 110.490853 
L 342.516829 113.782633 
L 344.107636 130.518242 
L 344.919273 140.217984 
L 345.698444 148.085418 
L 345.990633 149.515059 
L 346.639942 151.332458 
L 348.068422 159.71421 
L 349.204713 164.548468 
L 350.016349 165.966147 
L 350.633193 167.079144 
L 351.347433 167.972599 
L 352.58112 168.795387 
L 353.197964 168.897603 
L 354.0096 168.209819 
L 354.334255 167.191451 
L 354.951098 165.490432 
L 355.243287 163.481964 
L 355.860131 158.381306 
L 356.50944 153.294047 
L 356.541905 153.279313 
L 356.704233 153.713284 
L 357.353542 148.962591 
L 358.067782 144.26907 
L 358.749556 140.488176 
L 359.593658 135.344209 
L 360.340364 130.752716 
L 360.729949 129.259955 
L 361.314327 126.541498 
L 362.807738 116.635313 
L 363.164858 114.770781 
L 364.138822 111.742052 
L 365.047855 109.401553 
L 365.404975 107.860235 
L 365.924422 106.341761 
L 366.411404 105.709367 
L 367.482764 102.456628 
L 367.710022 101.98723 
L 368.067142 101.294672 
L 368.326865 101.136365 
L 368.554124 101.426148 
L 368.813847 101.742637 
L 368.846313 101.70895 
L 369.041105 101.589029 
L 369.073571 101.638276 
L 370.047535 103.598741 
L 370.761775 103.842049 
L 371.053964 104.119871 
L 371.443549 104.553332 
L 372.092858 105.387202 
L 373.229149 108.078523 
L 374.300509 111.93427 
L 376.215971 121.579191 
L 378.715811 140.353283 
L 379.202793 143.640707 
L 379.787171 147.860495 
L 380.306618 150.379954 
L 381.053324 153.313362 
L 381.377978 154.164645 
L 381.670167 155.463434 
L 382.319476 157.930629 
L 383.098647 159.679407 
L 383.325905 160.083719 
L 383.715491 161.14122 
L 384.656989 163.062015 
L 384.981644 163.662426 
L 385.760815 164.149854 
L 386.053004 164.328631 
L 386.215331 164.302245 
L 386.734778 163.89511 
L 386.86464 163.995202 
L 386.929571 164.854804 
L 386.994502 164.678894 
L 387.189295 164.201586 
L 387.449018 165.140829 
L 387.676276 165.213919 
L 387.838604 164.896156 
L 387.871069 165.490259 
L 387.936 165.093066 
L 388.098327 164.589922 
L 388.130793 165.097289 
L 388.195724 164.762659 
L 388.260655 164.434884 
L 388.390516 165.050654 
L 388.65024 163.251229 
L 389.039825 162.192755 
L 389.202153 161.9277 
L 389.234618 162.779219 
L 389.299549 162.50711 
L 389.429411 162.103892 
L 389.461876 162.739667 
L 389.526807 162.525024 
L 389.754065 161.957438 
L 389.818996 163.158078 
L 389.916393 162.995932 
L 390.07872 162.788326 
L 390.338444 161.807273 
L 390.728029 160.441209 
L 390.955287 159.806414 
L 391.052684 159.406087 
L 391.117615 159.479309 
L 391.15008 159.928522 
L 391.215011 159.476766 
L 391.539665 157.698319 
L 391.572131 158.186879 
L 391.637062 158.045458 
L 391.766924 157.318671 
L 391.799389 157.740216 
L 391.86432 157.382137 
L 392.546095 154.32754 
L 392.57856 154.397061 
L 392.611025 154.663065 
L 392.643491 154.375503 
L 392.870749 152.969732 
L 392.903215 153.024212 
L 392.93568 152.953926 
L 393.065542 152.42289 
L 393.227869 151.076052 
L 393.130473 152.479463 
L 393.325265 151.174114 
L 394.916073 142.463052 
L 395.143331 141.153227 
L 395.305658 140.527382 
L 396.474415 134.32848 
L 396.50688 134.805695 
L 396.539345 135.292355 
L 396.571811 134.844304 
L 396.799069 132.260391 
L 396.831535 132.981269 
L 396.864 134.255579 
L 396.961396 134.028625 
L 396.993862 134.136609 
L 397.156189 132.803354 
L 397.188655 133.202094 
L 397.253585 132.669507 
L 397.675636 130.386101 
L 398.195084 129.0016 
L 398.29248 129.549634 
L 398.454807 128.161496 
L 398.487273 128.576561 
L 398.487273 128.576561 
" style="fill:none;stroke:#1f77b4;stroke-linecap:square;stroke-width:1.5;"/>
   </g>
   <g id="line2d_16">
    <path clip-path="url(#pddd0d95fed)" d="M 73.832727 287.511631 
L 73.930124 284.935024 
L 73.995055 286.235072 
L 74.02752 286.473758 
L 74.059985 286.182746 
L 74.092451 284.78565 
L 74.157382 285.326357 
L 74.482036 286.761715 
L 74.546967 286.737522 
L 74.644364 286.329187 
L 74.806691 284.100689 
L 75.131345 276.096385 
L 75.748189 262.687924 
L 75.942982 261.621714 
L 76.007913 261.92299 
L 76.300102 265.832839 
L 76.559825 271.720615 
L 76.624756 271.072697 
L 78.507753 260.690958 
L 83.085382 229.378478 
L 83.31264 228.36826 
L 84.351535 224.011165 
L 84.513862 223.55977 
L 84.870982 222.700432 
L 85.585222 221.576273 
L 86.104669 219.805489 
L 86.396858 218.621732 
L 86.689047 218.058657 
L 87.013702 217.915611 
L 87.143564 217.915795 
L 87.208495 217.82759 
L 87.338356 217.616133 
L 87.533149 216.728537 
L 88.344785 215.679395 
L 89.286284 213.875548 
L 89.318749 213.900966 
L 89.38368 213.952479 
L 89.416145 213.87995 
L 89.513542 213.730806 
L 89.870662 212.966237 
L 90.390109 212.071227 
L 90.422575 212.110915 
L 90.45504 212.037372 
L 90.747229 211.639487 
L 90.779695 211.674158 
L 90.81216 211.592405 
L 91.429004 211.320072 
L 91.656262 211.544107 
L 92.143244 211.705181 
L 92.208175 211.77695 
L 92.24064 211.738157 
L 92.305571 211.715487 
L 92.338036 211.794921 
L 92.760087 211.678662 
L 92.889949 211.681959 
L 93.084742 211.519844 
L 93.441862 211.414558 
L 93.539258 211.477817 
L 93.571724 211.438968 
L 93.734051 211.419911 
L 93.928844 211.293825 
L 94.123636 211.243281 
L 94.350895 210.974046 
L 94.448291 210.910585 
L 94.74048 210.792744 
L 94.935273 210.989385 
L 94.967738 210.96525 
L 95.194996 210.824543 
L 95.584582 210.511313 
L 95.617047 210.585128 
L 95.779375 210.707749 
L 96.104029 210.686301 
L 96.16896 210.63002 
L 96.331287 210.432833 
L 96.493615 210.477057 
L 96.655942 210.667167 
L 97.142924 211.039383 
L 97.337716 210.940971 
L 97.824698 210.790313 
L 99.155782 211.001561 
L 99.415505 210.887614 
L 99.545367 211.133046 
L 99.642764 211.004639 
L 100.259607 210.173438 
L 100.616727 209.866339 
L 100.649193 209.903365 
L 101.006313 210.410295 
L 101.071244 210.361395 
L 101.103709 210.407307 
L 101.52576 210.324953 
L 101.720553 210.126061 
L 101.88288 210.234244 
L 102.110138 210.394148 
L 102.207535 210.434094 
L 102.59712 210.769041 
L 102.95424 210.699093 
L 103.213964 210.353952 
L 103.408756 210.124531 
L 103.636015 210.040743 
L 103.733411 210.018317 
L 103.863273 209.94131 
L 104.122996 210.095452 
L 104.317789 210.147493 
L 104.837236 210.294628 
L 104.999564 210.310406 
L 105.291753 210.569353 
L 105.486545 210.649264 
L 105.616407 210.668604 
L 105.778735 210.714176 
L 106.103389 210.670235 
L 106.16832 210.606657 
L 106.52544 209.786148 
L 106.785164 209.221702 
L 107.109818 208.744559 
L 107.207215 208.738827 
L 107.272145 208.682677 
L 107.337076 208.73514 
L 107.531869 208.946426 
L 107.856524 209.190091 
L 108.148713 209.180113 
L 108.31104 209.188309 
L 108.700625 208.497851 
L 109.220073 207.489974 
L 109.3824 207.619617 
L 109.544727 207.918787 
L 110.518691 210.0867 
L 110.551156 210.052424 
L 110.681018 209.98358 
L 110.908276 209.428434 
L 111.492655 208.244029 
L 111.590051 208.257703 
L 111.88224 208.890383 
L 112.271825 210.089491 
L 112.59648 210.497278 
L 112.726342 210.41792 
L 112.921135 210.103485 
L 113.180858 209.158336 
L 113.732771 207.679407 
L 113.862633 207.879158 
L 113.960029 208.107901 
L 114.641804 210.246221 
L 114.706735 210.328676 
L 114.771665 210.251431 
L 114.966458 210.146338 
L 115.161251 210.027719 
L 115.388509 209.517222 
L 115.940422 207.68805 
L 116.102749 207.691322 
L 116.265076 207.905098 
L 116.459869 208.386551 
L 117.141644 210.051429 
L 117.336436 210.021003 
L 117.563695 209.618512 
L 117.855884 209.068851 
L 118.115607 208.910611 
L 118.472727 209.171786 
L 119.251898 210.134317 
L 119.576553 209.952456 
L 119.836276 208.926494 
L 120.258327 207.432571 
L 120.485585 207.294786 
L 120.745309 207.485264 
L 121.199825 207.767215 
L 121.52448 207.64729 
L 121.849135 207.031302 
L 122.401047 206.056251 
L 122.628305 205.987284 
L 123.115287 206.273954 
L 123.375011 206.324173 
L 123.959389 206.105501 
L 124.316509 206.145467 
L 124.706095 205.940085 
L 125.258007 205.727545 
L 125.647593 205.15641 
L 126.069644 204.63372 
L 126.264436 204.719093 
L 126.589091 204.943778 
L 127.173469 205.832866 
L 127.205935 205.800488 
L 127.498124 205.312427 
L 128.179898 203.606111 
L 128.407156 203.464504 
L 128.66688 203.356417 
L 128.959069 203.246535 
L 129.218793 203.172072 
L 129.770705 202.889129 
L 130.09536 202.606429 
L 131.913425 201.214038 
L 132.660131 200.761022 
L 133.471767 200.425866 
L 134.056145 199.779645 
L 134.672989 198.854357 
L 134.835316 198.885681 
L 135.09504 198.85023 
L 135.484625 198.798717 
L 135.776815 198.779015 
L 136.004073 198.603271 
L 136.426124 197.926073 
L 137.270225 196.431413 
L 137.692276 196.356266 
L 138.244189 196.367754 
L 138.633775 196.116071 
L 139.542807 195.433686 
L 139.802531 195.406658 
L 140.224582 195.135962 
L 140.873891 194.748316 
L 141.133615 194.715979 
L 141.360873 194.623377 
L 141.88032 194.317271 
L 142.724422 193.943755 
L 143.471127 193.321786 
L 143.958109 193.420808 
L 144.315229 193.437492 
L 144.704815 192.996547 
L 145.029469 192.691062 
L 145.841105 192.615923 
L 146.457949 192.854226 
L 146.782604 193.127546 
L 147.172189 193.357257 
L 147.334516 193.289889 
L 148.016291 192.889914 
L 148.373411 192.725352 
L 149.314909 191.907334 
L 149.639564 192.048731 
L 149.899287 192.0661 
L 151.068044 191.710161 
L 151.490095 191.950725 
L 152.074473 192.155029 
L 152.528989 192.007661 
L 152.886109 192.092615 
L 153.210764 192.127022 
L 154.574313 192.671758 
L 155.158691 193.074556 
L 155.418415 193.179548 
L 155.840465 193.14197 
L 156.749498 193.09897 
L 157.626065 194.27785 
L 158.957149 194.751877 
L 159.314269 194.855441 
L 159.931113 195.079903 
L 160.190836 194.952695 
L 160.483025 194.859537 
L 161.099869 195.117817 
L 161.814109 195.579645 
L 162.755607 195.743124 
L 163.047796 195.684484 
L 163.469847 195.625156 
L 163.891898 195.696054 
L 164.216553 195.719297 
L 164.898327 195.65388 
L 165.774895 196.013122 
L 166.294342 195.921516 
L 167.105978 196.366644 
L 167.463098 196.714594 
L 168.144873 196.768728 
L 168.501993 197.099502 
L 169.118836 197.760188 
L 169.411025 197.879329 
L 169.865542 198.221651 
L 170.612247 198.235727 
L 171.294022 197.966553 
L 171.910865 197.916154 
L 172.138124 198.12868 
L 172.397847 198.538893 
L 172.787433 199.160542 
L 173.404276 199.362686 
L 174.150982 199.479144 
L 174.605498 199.608165 
L 175.060015 199.870469 
L 175.774255 200.553029 
L 176.423564 200.513849 
L 176.715753 200.514079 
L 177.429993 200.926358 
L 177.981905 201.11247 
L 178.696145 201.9679 
L 179.507782 202.273263 
L 180.157091 203.315297 
L 180.416815 203.374348 
L 180.838865 203.491684 
L 181.358313 204.172865 
L 182.072553 205.167898 
L 182.656931 205.627399 
L 183.436102 206.113133 
L 183.858153 206.452581 
L 184.247738 206.49227 
L 185.254167 207.524156 
L 185.611287 207.830498 
L 186.098269 208.158639 
L 186.844975 208.432964 
L 187.429353 208.885725 
L 187.656611 209.195146 
L 188.111127 209.785853 
L 188.760436 209.978327 
L 189.02016 209.795486 
L 189.572073 209.921226 
L 190.578502 210.345094 
L 191.422604 210.370593 
L 191.974516 210.144405 
L 192.201775 210.398561 
L 193.3056 211.753586 
L 193.630255 211.591417 
L 194.182167 211.065124 
L 194.636684 211.350992 
L 195.188596 211.867392 
L 195.44832 211.661743 
L 195.935302 211.208681 
L 196.227491 211.164291 
L 196.682007 211.012406 
L 196.8768 210.99075 
L 197.331316 211.298253 
L 197.688436 211.420274 
L 199.01952 211.078821 
L 200.123345 211.376664 
L 200.740189 211.500533 
L 201.649222 211.934132 
L 201.973876 211.905039 
L 202.558255 211.733854 
L 202.817978 211.998036 
L 203.272495 212.315245 
L 203.954269 212.47513 
L 204.408785 212.623885 
L 204.668509 212.864772 
L 205.09056 213.11101 
L 205.545076 213.409204 
L 205.934662 213.777779 
L 206.87616 214.100091 
L 207.23328 214.045227 
L 207.493004 214.028452 
L 207.785193 213.983434 
L 208.077382 213.995859 
L 208.856553 214.317677 
L 209.343535 214.070064 
L 209.862982 214.122028 
L 210.252567 214.353793 
L 211.713513 214.580017 
L 212.395287 214.794334 
L 212.655011 214.808422 
L 213.693905 215.521765 
L 213.986095 215.614186 
L 214.278284 216.049992 
L 214.538007 216.298476 
L 215.219782 216.265835 
L 215.511971 216.927047 
L 216.031418 218.123952 
L 216.356073 218.428313 
L 216.778124 218.463231 
L 217.070313 219.116832 
L 217.459898 219.746539 
L 217.817018 219.855076 
L 218.174138 219.893711 
L 218.823447 220.090463 
L 219.73248 221.610055 
L 220.057135 221.582787 
L 220.349324 221.805152 
L 220.706444 222.010236 
L 221.323287 222.165205 
L 221.583011 222.593083 
L 221.907665 222.960964 
L 222.914095 222.612251 
L 223.206284 222.709452 
L 223.595869 222.939187 
L 223.952989 223.273015 
L 224.310109 223.397916 
L 224.602298 223.261636 
L 224.862022 223.097451 
L 225.608727 223.221582 
L 227.037207 223.61129 
L 227.978705 223.258315 
L 228.400756 223.283336 
L 228.920204 223.330121 
L 229.504582 223.540013 
L 229.699375 223.554004 
L 230.251287 223.806448 
L 230.640873 223.821362 
L 231.030458 223.776746 
L 231.387578 223.636275 
L 231.744698 223.512404 
L 231.971956 223.548492 
L 233.108247 223.777262 
L 233.692625 223.140111 
L 233.854953 223.457173 
L 234.601658 224.940724 
L 234.73152 224.877936 
L 234.926313 224.529405 
L 235.413295 223.600603 
L 235.673018 223.676432 
L 236.257396 224.364208 
L 236.452189 224.403237 
L 236.776844 224.239427 
L 237.101498 224.048349 
L 237.815738 223.68542 
L 238.107927 223.694843 
L 238.757236 223.810306 
L 239.503942 224.411883 
L 239.958458 224.397736 
L 240.283113 224.35509 
L 240.542836 224.397631 
L 240.964887 224.686019 
L 241.711593 225.313865 
L 243.172538 225.803875 
L 243.594589 226.146453 
L 244.37376 226.288981 
L 245.932102 226.097825 
L 246.451549 226.221353 
L 246.970996 226.036673 
L 247.23072 226.200409 
L 247.522909 226.587087 
L 247.94496 227.16599 
L 248.367011 227.201128 
L 248.529338 227.131676 
L 248.821527 227.059079 
L 248.983855 227.207384 
L 249.535767 228.143274 
L 249.73056 228.333893 
L 249.892887 228.370596 
L 250.022749 228.313429 
L 250.607127 227.767754 
L 250.866851 228.220949 
L 251.223971 229.10039 
L 251.581091 229.692756 
L 251.840815 229.773518 
L 252.262865 229.757517 
L 252.58752 229.743188 
L 253.886138 229.572089 
L 254.405585 229.034315 
L 254.860102 228.523129 
L 255.119825 228.220731 
L 255.639273 227.894958 
L 256.223651 228.014931 
L 256.483375 228.169711 
L 257.359942 228.288371 
L 258.398836 227.587107 
L 258.691025 227.522306 
L 261.450589 227.547488 
L 261.937571 227.792124 
L 262.58688 227.609941 
L 263.463447 227.416267 
L 264.047825 227.56498 
L 265.671098 227.085806 
L 265.865891 227.175176 
L 266.352873 227.42713 
L 266.87232 227.450852 
L 267.164509 227.42754 
L 267.683956 227.735535 
L 268.495593 228.154723 
L 269.01504 228.247583 
L 269.696815 228.89947 
L 270.021469 228.890405 
L 270.44352 229.001512 
L 270.930502 229.237111 
L 272.391447 229.171701 
L 273.073222 228.837345 
L 273.560204 228.908795 
L 273.917324 228.947866 
L 274.177047 228.822961 
L 275.151011 228.206172 
L 275.4432 228.134193 
L 276.709353 228.130147 
L 279.079331 226.410109 
L 279.274124 226.30795 
L 279.566313 226.146813 
L 280.410415 225.826358 
L 280.702604 225.833902 
L 281.351913 225.526728 
L 281.936291 225.352026 
L 282.260945 225.135448 
L 282.682996 224.868667 
L 282.910255 224.776205 
L 283.169978 224.747067 
L 283.624495 224.618625 
L 284.598458 224.256872 
L 285.117905 223.689383 
L 285.539956 223.164927 
L 285.832145 223.01238 
L 286.448989 222.456805 
L 286.676247 222.348958 
L 287.195695 222.178768 
L 288.721571 221.937575 
L 289.37088 221.669206 
L 289.857862 221.604708 
L 291.773324 221.22369 
L 292.682356 221.36962 
L 293.2992 221.458814 
L 294.110836 221.55457 
L 294.565353 221.643481 
L 295.376989 222.077264 
L 296.383418 222.361455 
L 297.162589 222.618061 
L 297.811898 222.91324 
L 298.591069 223.298241 
L 299.954618 223.619227 
L 300.344204 223.678383 
L 301.902545 223.781328 
L 302.486924 223.801047 
L 304.564713 223.854744 
L 305.733469 223.710065 
L 306.317847 223.725321 
L 307.973585 223.720672 
L 308.428102 223.838594 
L 309.531927 223.665279 
L 310.051375 223.760237 
L 313.557644 223.304083 
L 314.044625 223.451634 
L 314.499142 223.426928 
L 315.180916 223.538564 
L 317.485964 224.001964 
L 317.843084 224.14239 
L 318.394996 224.285436 
L 318.849513 224.332361 
L 320.342924 224.822638 
L 320.894836 225.547145 
L 321.219491 225.643719 
L 321.933731 225.739798 
L 323.037556 226.540899 
L 323.589469 227.070725 
L 323.849193 227.373411 
L 324.173847 227.788662 
L 324.628364 228.301666 
L 324.855622 228.612549 
L 325.050415 228.947607 
L 325.407535 230.03446 
L 325.602327 231.071581 
L 325.829585 232.416922 
L 325.991913 232.616296 
L 326.024378 232.590678 
L 326.056844 232.543888 
L 326.349033 228.094608 
L 326.576291 224.728189 
L 326.998342 219.717871 
L 327.2256 218.983943 
L 327.387927 219.380247 
L 327.777513 220.134756 
L 328.069702 220.668386 
L 328.29696 220.990836 
L 328.783942 221.412892 
L 329.173527 221.83463 
L 329.887767 222.166615 
L 330.08256 222.252248 
L 330.309818 221.828974 
L 330.764335 220.979069 
L 330.7968 220.996086 
L 330.861731 221.034202 
L 330.894196 220.642294 
L 330.959127 220.776349 
L 331.056524 220.821882 
L 331.088989 220.78402 
L 331.381178 220.40171 
L 331.51104 220.154712 
L 331.705833 220.216513 
L 332.062953 220.784827 
L 332.257745 220.713761 
L 332.485004 220.718752 
L 332.679796 219.83906 
L 332.712262 219.856536 
L 332.907055 219.625682 
L 333.199244 218.445054 
L 333.621295 216.437835 
L 333.751156 216.205965 
L 333.783622 216.266701 
L 333.816087 216.302865 
L 333.881018 216.211716 
L 333.913484 216.169374 
L 333.978415 216.259356 
L 334.140742 216.37293 
L 334.205673 216.47035 
L 334.368 216.979245 
L 334.432931 216.914573 
L 334.562793 216.954644 
L 334.72512 216.993017 
L 334.790051 216.944557 
L 334.822516 217.013668 
L 335.049775 217.301434 
L 335.08224 217.276944 
L 335.309498 217.471186 
L 335.341964 217.435215 
L 335.764015 216.694618 
L 335.79648 216.755716 
L 335.991273 216.943215 
L 336.023738 216.939011 
L 336.1536 216.684933 
L 336.186065 216.698904 
L 336.315927 216.778895 
L 336.575651 216.323063 
L 336.608116 216.352061 
L 336.673047 216.263447 
L 337.192495 215.282729 
L 337.322356 214.851022 
L 337.387287 214.885087 
L 337.58208 214.993434 
L 337.679476 214.985348 
L 337.776873 215.037307 
L 337.874269 214.68884 
L 338.523578 210.255013 
L 338.718371 209.48378 
L 338.945629 208.367068 
L 338.978095 208.375137 
L 339.172887 208.33739 
L 339.594938 209.222951 
L 339.692335 209.09433 
L 339.984524 208.772742 
L 340.016989 208.822865 
L 340.114385 209.060868 
L 340.146851 208.939662 
L 340.568902 208.309403 
L 340.861091 208.36707 
L 341.023418 208.772648 
L 341.86752 211.769566 
L 342.192175 212.62705 
L 342.614225 213.65982 
L 342.776553 213.704398 
L 343.036276 213.481679 
L 343.166138 213.344644 
L 343.263535 213.206242 
L 343.296 213.224769 
L 343.425862 213.469 
L 344.399825 217.705114 
L 345.308858 220.65067 
L 345.601047 221.315186 
L 345.860771 222.448496 
L 346.315287 225.289588 
L 346.607476 226.03024 
L 346.802269 226.797906 
L 347.58144 229.537 
L 347.613905 229.503212 
L 347.776233 229.543115 
L 347.93856 230.117596 
L 348.360611 232.26154 
L 348.847593 234.608902 
L 349.107316 235.477066 
L 349.269644 235.624623 
L 349.594298 236.092185 
L 349.756625 236.421193 
L 350.763055 238.817689 
L 350.892916 238.985695 
L 351.250036 240.260212 
L 351.672087 241.68935 
L 352.094138 242.642008 
L 352.483724 243.815988 
L 353.327825 246.998192 
L 353.814807 247.811803 
L 354.593978 249.764699 
L 355.178356 251.182291 
L 355.957527 252.924655 
L 356.217251 253.53637 
L 356.834095 255.196232 
L 357.093818 255.771916 
L 357.22368 255.928168 
L 357.515869 256.811259 
L 357.710662 257.130114 
L 357.872989 257.179183 
L 358.165178 257.743387 
L 359.00928 260.16725 
L 359.269004 260.614755 
L 359.3664 260.709849 
L 360.145571 262.437576 
L 360.729949 263.593258 
L 360.827345 263.52916 
L 361.281862 263.343953 
L 361.314327 263.424754 
L 361.541585 263.694878 
L 361.86624 263.288657 
L 362.028567 263.181109 
L 362.125964 263.215693 
L 363.229789 264.767123 
L 363.29472 264.666308 
L 363.554444 264.373664 
L 363.716771 264.269059 
L 364.528407 262.22697 
L 364.820596 262.032362 
L 364.950458 262.02204 
L 365.112785 262.041492 
L 365.177716 262.10639 
L 365.210182 262.073346 
L 365.697164 261.09343 
L 366.703593 256.479607 
L 366.995782 255.834212 
L 367.060713 255.964211 
L 367.255505 256.131948 
L 367.482764 255.677607 
L 367.710022 254.378725 
L 368.586589 246.239918 
L 368.683985 245.429885 
L 369.333295 240.174363 
L 370.469585 232.177354 
L 370.534516 231.986446 
L 370.761775 231.027702 
L 370.891636 230.663135 
L 371.183825 229.055855 
L 371.346153 227.926947 
L 371.573411 226.781605 
L 371.833135 226.920985 
L 372.320116 228.704117 
L 372.417513 228.390885 
L 372.612305 227.877798 
L 372.742167 227.792303 
L 372.93696 228.183055 
L 372.969425 228.047138 
L 373.196684 227.495003 
L 373.29408 227.424241 
L 373.748596 226.165245 
L 374.138182 223.728433 
L 374.170647 224.028062 
L 374.268044 223.917476 
L 374.300509 223.998241 
L 374.462836 224.105885 
L 375.014749 225.639126 
L 375.177076 226.005333 
L 375.469265 227.080879 
L 375.761455 228.330993 
L 376.15104 228.81655 
L 376.183505 228.792426 
L 376.313367 228.766535 
L 376.605556 228.653926 
L 376.800349 228.428525 
L 376.897745 228.511221 
L 377.352262 229.090981 
L 377.514589 229.048804 
L 377.676916 228.848794 
L 379.105396 223.933208 
L 379.397585 224.098122 
L 379.592378 224.003359 
L 379.787171 224.136789 
L 380.598807 223.610215 
L 380.955927 223.839856 
L 381.020858 223.812305 
L 381.183185 225.44457 
L 381.410444 225.923064 
L 381.637702 225.904212 
L 381.86496 225.799659 
L 382.059753 225.728953 
L 382.741527 225.546573 
L 382.968785 225.471099 
L 383.325905 225.375821 
L 383.585629 225.157366 
L 383.780422 225.332433 
L 383.877818 225.377953 
L 384.072611 225.781525 
L 384.137542 225.734493 
L 384.786851 224.319156 
L 385.566022 222.922155 
L 385.923142 222.240194 
L 386.182865 219.933199 
L 386.410124 219.728079 
L 386.442589 219.688736 
L 386.637382 221.182045 
L 386.702313 221.223042 
L 386.767244 221.163003 
L 386.929571 220.897118 
L 387.384087 220.069568 
L 388.974895 217.097277 
L 389.429411 216.214811 
L 389.656669 213.976839 
L 389.916393 213.143986 
L 390.07872 213.236844 
L 390.468305 212.914097 
L 390.663098 212.695428 
L 391.572131 211.090602 
L 391.604596 211.130845 
L 391.637062 211.08673 
L 392.351302 209.587926 
L 392.838284 208.657804 
L 392.968145 208.404617 
L 393.033076 208.269097 
L 393.065542 208.334667 
L 393.130473 208.261143 
L 393.909644 207.087572 
L 394.039505 207.000137 
L 395.43552 205.433807 
L 395.662778 204.933806 
L 395.954967 204.338472 
L 396.14976 203.788999 
L 396.344553 203.309591 
L 396.377018 203.350981 
L 396.50688 203.374023 
L 396.766604 202.863367 
L 396.896465 202.718253 
L 397.22112 202.096643 
L 398.032756 201.012008 
L 398.487273 200.07221 
L 398.487273 200.07221 
" style="fill:none;stroke:#ff7f0e;stroke-linecap:square;stroke-width:1.5;"/>
   </g>
   <g id="line2d_17">
    <path clip-path="url(#pddd0d95fed)" d="M 73.832727 295.123988 
L 73.865193 295.331685 
L 74.02752 282.15496 
L 74.319709 265.14332 
L 74.546967 293.107629 
L 74.579433 291.542413 
L 74.676829 279.419954 
L 74.74176 281.678048 
L 74.904087 286.905954 
L 75.09888 288.590676 
L 75.163811 288.319711 
L 75.391069 285.663069 
L 76.332567 271.24335 
L 77.468858 254.549046 
L 78.67008 240.618371 
L 79.806371 229.547397 
L 80.682938 223.058955 
L 81.52704 218.40953 
L 82.24128 215.624043 
L 82.858124 214.017745 
L 83.572364 212.7765 
L 84.221673 212.042362 
L 84.708655 211.794648 
L 84.935913 211.634365 
L 85.195636 211.579266 
L 85.552756 211.746921 
L 86.137135 212.306442 
L 87.013702 213.488969 
L 87.922735 215.099336 
L 88.117527 215.630761 
L 88.31232 216.136207 
L 88.831767 216.922783 
L 89.513542 218.398925 
L 94.545687 230.01909 
L 96.136495 233.028571 
L 98.474007 236.905784 
L 101.785484 242.561786 
L 104.545047 247.712347 
L 107.109818 253.028284 
L 111.590051 262.345002 
L 113.473047 265.79847 
L 114.998924 268.116249 
L 116.459869 269.950121 
L 117.531229 270.954384 
L 118.472727 271.549659 
L 119.284364 271.811668 
L 119.998604 271.819208 
L 120.680378 271.605963 
L 121.459549 271.115961 
L 122.368582 270.258291 
L 123.017891 269.491201 
L 123.245149 270.293806 
L 124.316509 272.610659 
L 124.543767 272.943156 
L 124.576233 272.850044 
L 124.73856 272.704747 
L 125.09568 272.924574 
L 125.777455 273.300515 
L 126.556625 273.480544 
L 127.335796 273.436813 
L 128.212364 273.163789 
L 129.348655 272.544806 
L 130.225222 272.120846 
L 130.971927 271.832169 
L 131.945891 271.112165 
L 134.543127 268.912885 
L 136.361193 267.052937 
L 139.575273 263.782407 
L 142.042647 261.559827 
L 143.471127 260.544916 
L 147.431913 258.083738 
L 151.555025 254.927928 
L 153.66528 253.437485 
L 155.710604 252.275294 
L 157.723462 251.341336 
L 159.963578 250.61389 
L 160.288233 250.574399 
L 160.937542 250.433806 
L 161.262196 250.381536 
L 161.814109 250.261562 
L 162.138764 250.209491 
L 162.690676 250.087371 
L 163.015331 250.035285 
L 163.567244 249.914637 
L 163.891898 249.863545 
L 164.443811 249.74745 
L 164.800931 249.685778 
L 166.391738 249.402921 
L 168.047476 249.103823 
L 170.579782 248.52327 
L 176.391098 247.09913 
L 179.442851 246.400664 
L 191.942051 243.777895 
L 197.558575 242.58956 
L 205.025629 241.284192 
L 211.583651 240.220816 
L 211.713513 240.527182 
L 211.843375 240.547213 
L 212.005702 240.324 
L 212.038167 240.512926 
L 212.070633 240.31253 
L 212.103098 240.467483 
L 212.200495 240.231188 
L 212.23296 240.393051 
L 212.265425 240.193152 
L 212.297891 240.356578 
L 212.395287 240.122181 
L 212.427753 240.283938 
L 212.460218 240.088188 
L 212.492684 240.24856 
L 212.59008 240.022746 
L 212.622545 240.180102 
L 212.655011 239.993227 
L 212.687476 240.149519 
L 212.784873 239.94059 
L 212.817338 240.095493 
L 212.849804 239.91757 
L 212.882269 240.072053 
L 212.979665 239.877604 
L 213.012131 240.032602 
L 213.044596 239.860563 
L 213.077062 240.016712 
L 213.174458 239.831853 
L 213.271855 239.983435 
L 213.369251 239.800749 
L 213.466647 239.966854 
L 213.564044 239.778371 
L 213.66144 239.961314 
L 213.758836 239.76108 
L 213.856233 239.962042 
L 213.953629 239.746676 
L 214.051025 239.955905 
L 214.148422 239.723767 
L 214.213353 239.713844 
L 214.245818 239.939478 
L 214.343215 239.698713 
L 214.37568 239.904038 
L 214.408145 239.684172 
L 214.440611 239.880893 
L 214.538007 239.639027 
L 214.570473 239.832794 
L 214.602938 239.611403 
L 214.635404 239.810122 
L 214.7328 239.558515 
L 214.765265 239.772333 
L 214.797731 239.54316 
L 214.830196 239.753532 
L 214.927593 239.512713 
L 214.960058 239.719957 
L 214.992524 239.499145 
L 215.024989 239.705207 
L 215.122385 239.47586 
L 215.219782 239.670916 
L 215.317178 239.4497 
L 215.414575 239.648672 
L 215.44704 239.553544 
L 215.511971 239.610871 
L 215.674298 239.609238 
L 215.966487 239.49562 
L 216.063884 239.564722 
L 216.096349 239.523988 
L 216.258676 239.554013 
L 216.421004 239.517848 
L 216.583331 239.545675 
L 216.745658 239.523068 
L 216.972916 239.534181 
L 217.394967 239.525701 
L 218.888378 239.563513 
L 220.544116 239.413635 
L 221.647942 239.129413 
L 222.719302 238.615126 
L 224.082851 237.598646 
L 224.926953 236.751193 
L 225.673658 236.1133 
L 228.757876 233.512393 
L 234.3744 229.824798 
L 235.250967 229.394902 
L 237.004102 228.866123 
L 238.627375 228.847054 
L 240.08832 229.193428 
L 241.419404 229.744393 
L 243.075142 230.67482 
L 245.217862 232.159845 
L 247.457978 233.686656 
L 248.464407 234.044539 
L 251.548625 235.458846 
L 254.405585 236.616441 
L 256.710633 237.405274 
L 259.01568 237.987606 
L 261.905105 238.501471 
L 265.119185 238.859166 
L 268.787782 239.042354 
L 272.748567 239.029466 
L 273.073222 238.777725 
L 273.462807 238.677138 
L 274.696495 238.550759 
L 275.573062 238.391775 
L 282.001222 237.448976 
L 283.137513 237.144741 
L 284.695855 236.880047 
L 286.838575 236.504978 
L 287.033367 236.515213 
L 287.9424 236.291657 
L 293.104407 235.642202 
L 298.331345 235.230035 
L 304.921833 234.978277 
L 319.596218 234.592994 
L 325.959447 234.102087 
L 331.446109 233.483674 
L 336.218531 232.697499 
L 342.159709 231.4751 
L 350.016349 229.866851 
L 353.457687 229.432989 
L 354.106996 229.480807 
L 354.36672 229.475231 
L 354.983564 229.055053 
L 355.600407 229.069638 
L 357.158749 229.042101 
L 358.65216 229.111991 
L 359.074211 229.246959 
L 359.72352 229.211501 
L 361.184465 229.005712 
L 363.262255 229.060204 
L 370.956567 229.561865 
L 373.326545 229.875011 
L 373.488873 229.944635 
L 374.203113 229.77831 
L 380.566342 230.132013 
L 383.488233 229.983265 
L 386.572451 229.669954 
L 392.026647 229.058141 
L 395.532916 228.966896 
L 398.487273 228.980546 
L 398.487273 228.980546 
" style="fill:none;stroke:#bf00bf;stroke-linecap:square;stroke-width:1.5;"/>
   </g>
   <g id="patch_3">
    <path d="M 57.6 307.584 
L 57.6 41.472 
" style="fill:none;stroke:#000000;stroke-linecap:square;stroke-linejoin:miter;stroke-width:0.8;"/>
   </g>
   <g id="patch_4">
    <path d="M 414.72 307.584 
L 414.72 41.472 
" style="fill:none;stroke:#000000;stroke-linecap:square;stroke-linejoin:miter;stroke-width:0.8;"/>
   </g>
   <g id="patch_5">
    <path d="M 57.6 307.584 
L 414.72 307.584 
" style="fill:none;stroke:#000000;stroke-linecap:square;stroke-linejoin:miter;stroke-width:0.8;"/>
   </g>
   <g id="patch_6">
    <path d="M 57.6 41.472 
L 414.72 41.472 
" style="fill:none;stroke:#000000;stroke-linecap:square;stroke-linejoin:miter;stroke-width:0.8;"/>
   </g>
   <g id="text_17">
    <!-- Plot of Object pose error norm over a single episode  -->
    <g transform="translate(77.670938 8.59725)scale(0.12 -0.12)">
     <defs>
      <path d="M 19.671875 64.796875 
L 19.671875 37.40625 
L 32.078125 37.40625 
Q 38.96875 37.40625 42.71875 40.96875 
Q 46.484375 44.53125 46.484375 51.125 
Q 46.484375 57.671875 42.71875 61.234375 
Q 38.96875 64.796875 32.078125 64.796875 
z
M 9.8125 72.90625 
L 32.078125 72.90625 
Q 44.34375 72.90625 50.609375 67.359375 
Q 56.890625 61.8125 56.890625 51.125 
Q 56.890625 40.328125 50.609375 34.8125 
Q 44.34375 29.296875 32.078125 29.296875 
L 19.671875 29.296875 
L 19.671875 0 
L 9.8125 0 
z
" id="DejaVuSans-80"/>
      <path d="M 9.421875 75.984375 
L 18.40625 75.984375 
L 18.40625 0 
L 9.421875 0 
z
" id="DejaVuSans-108"/>
      <path id="DejaVuSans-32"/>
      <path d="M 37.109375 75.984375 
L 37.109375 68.5 
L 28.515625 68.5 
Q 23.6875 68.5 21.796875 66.546875 
Q 19.921875 64.59375 19.921875 59.515625 
L 19.921875 54.6875 
L 34.71875 54.6875 
L 34.71875 47.703125 
L 19.921875 47.703125 
L 19.921875 0 
L 10.890625 0 
L 10.890625 47.703125 
L 2.296875 47.703125 
L 2.296875 54.6875 
L 10.890625 54.6875 
L 10.890625 58.5 
Q 10.890625 67.625 15.140625 71.796875 
Q 19.390625 75.984375 28.609375 75.984375 
z
" id="DejaVuSans-102"/>
      <path d="M 48.78125 52.59375 
L 48.78125 44.1875 
Q 44.96875 46.296875 41.140625 47.34375 
Q 37.3125 48.390625 33.40625 48.390625 
Q 24.65625 48.390625 19.8125 42.84375 
Q 14.984375 37.3125 14.984375 27.296875 
Q 14.984375 17.28125 19.8125 11.734375 
Q 24.65625 6.203125 33.40625 6.203125 
Q 37.3125 6.203125 41.140625 7.25 
Q 44.96875 8.296875 48.78125 10.40625 
L 48.78125 2.09375 
Q 45.015625 0.34375 40.984375 -0.53125 
Q 36.96875 -1.421875 32.421875 -1.421875 
Q 20.0625 -1.421875 12.78125 6.34375 
Q 5.515625 14.109375 5.515625 27.296875 
Q 5.515625 40.671875 12.859375 48.328125 
Q 20.21875 56 33.015625 56 
Q 37.15625 56 41.109375 55.140625 
Q 45.0625 54.296875 48.78125 52.59375 
z
" id="DejaVuSans-99"/>
      <path d="M 2.984375 54.6875 
L 12.5 54.6875 
L 29.59375 8.796875 
L 46.6875 54.6875 
L 56.203125 54.6875 
L 35.6875 0 
L 23.484375 0 
z
" id="DejaVuSans-118"/>
      <path d="M 34.28125 27.484375 
Q 23.390625 27.484375 19.1875 25 
Q 14.984375 22.515625 14.984375 16.5 
Q 14.984375 11.71875 18.140625 8.90625 
Q 21.296875 6.109375 26.703125 6.109375 
Q 34.1875 6.109375 38.703125 11.40625 
Q 43.21875 16.703125 43.21875 25.484375 
L 43.21875 27.484375 
z
M 52.203125 31.203125 
L 52.203125 0 
L 43.21875 0 
L 43.21875 8.296875 
Q 40.140625 3.328125 35.546875 0.953125 
Q 30.953125 -1.421875 24.3125 -1.421875 
Q 15.921875 -1.421875 10.953125 3.296875 
Q 6 8.015625 6 15.921875 
Q 6 25.140625 12.171875 29.828125 
Q 18.359375 34.515625 30.609375 34.515625 
L 43.21875 34.515625 
L 43.21875 35.40625 
Q 43.21875 41.609375 39.140625 45 
Q 35.0625 48.390625 27.6875 48.390625 
Q 23 48.390625 18.546875 47.265625 
Q 14.109375 46.140625 10.015625 43.890625 
L 10.015625 52.203125 
Q 14.9375 54.109375 19.578125 55.046875 
Q 24.21875 56 28.609375 56 
Q 40.484375 56 46.34375 49.84375 
Q 52.203125 43.703125 52.203125 31.203125 
z
" id="DejaVuSans-97"/>
      <path d="M 45.40625 27.984375 
Q 45.40625 37.75 41.375 43.109375 
Q 37.359375 48.484375 30.078125 48.484375 
Q 22.859375 48.484375 18.828125 43.109375 
Q 14.796875 37.75 14.796875 27.984375 
Q 14.796875 18.265625 18.828125 12.890625 
Q 22.859375 7.515625 30.078125 7.515625 
Q 37.359375 7.515625 41.375 12.890625 
Q 45.40625 18.265625 45.40625 27.984375 
z
M 54.390625 6.78125 
Q 54.390625 -7.171875 48.1875 -13.984375 
Q 42 -20.796875 29.203125 -20.796875 
Q 24.46875 -20.796875 20.265625 -20.09375 
Q 16.0625 -19.390625 12.109375 -17.921875 
L 12.109375 -9.1875 
Q 16.0625 -11.328125 19.921875 -12.34375 
Q 23.78125 -13.375 27.78125 -13.375 
Q 36.625 -13.375 41.015625 -8.765625 
Q 45.40625 -4.15625 45.40625 5.171875 
L 45.40625 9.625 
Q 42.625 4.78125 38.28125 2.390625 
Q 33.9375 0 27.875 0 
Q 17.828125 0 11.671875 7.65625 
Q 5.515625 15.328125 5.515625 27.984375 
Q 5.515625 40.671875 11.671875 48.328125 
Q 17.828125 56 27.875 56 
Q 33.9375 56 38.28125 53.609375 
Q 42.625 51.21875 45.40625 46.390625 
L 45.40625 54.6875 
L 54.390625 54.6875 
z
" id="DejaVuSans-103"/>
      <path d="M 45.40625 46.390625 
L 45.40625 75.984375 
L 54.390625 75.984375 
L 54.390625 0 
L 45.40625 0 
L 45.40625 8.203125 
Q 42.578125 3.328125 38.25 0.953125 
Q 33.9375 -1.421875 27.875 -1.421875 
Q 17.96875 -1.421875 11.734375 6.484375 
Q 5.515625 14.40625 5.515625 27.296875 
Q 5.515625 40.1875 11.734375 48.09375 
Q 17.96875 56 27.875 56 
Q 33.9375 56 38.25 53.625 
Q 42.578125 51.265625 45.40625 46.390625 
z
M 14.796875 27.296875 
Q 14.796875 17.390625 18.875 11.75 
Q 22.953125 6.109375 30.078125 6.109375 
Q 37.203125 6.109375 41.296875 11.75 
Q 45.40625 17.390625 45.40625 27.296875 
Q 45.40625 37.203125 41.296875 42.84375 
Q 37.203125 48.484375 30.078125 48.484375 
Q 22.953125 48.484375 18.875 42.84375 
Q 14.796875 37.203125 14.796875 27.296875 
z
" id="DejaVuSans-100"/>
     </defs>
     <use xlink:href="#DejaVuSans-80"/>
     <use x="60.302734" xlink:href="#DejaVuSans-108"/>
     <use x="88.085938" xlink:href="#DejaVuSans-111"/>
     <use x="149.267578" xlink:href="#DejaVuSans-116"/>
     <use x="188.476562" xlink:href="#DejaVuSans-32"/>
     <use x="220.263672" xlink:href="#DejaVuSans-111"/>
     <use x="281.445312" xlink:href="#DejaVuSans-102"/>
     <use x="316.650391" xlink:href="#DejaVuSans-32"/>
     <use x="348.4375" xlink:href="#DejaVuSans-79"/>
     <use x="427.148438" xlink:href="#DejaVuSans-98"/>
     <use x="490.625" xlink:href="#DejaVuSans-106"/>
     <use x="518.408203" xlink:href="#DejaVuSans-101"/>
     <use x="579.931641" xlink:href="#DejaVuSans-99"/>
     <use x="634.912109" xlink:href="#DejaVuSans-116"/>
     <use x="674.121094" xlink:href="#DejaVuSans-32"/>
     <use x="705.908203" xlink:href="#DejaVuSans-112"/>
     <use x="769.384766" xlink:href="#DejaVuSans-111"/>
     <use x="830.566406" xlink:href="#DejaVuSans-115"/>
     <use x="882.666016" xlink:href="#DejaVuSans-101"/>
     <use x="944.189453" xlink:href="#DejaVuSans-32"/>
     <use x="975.976562" xlink:href="#DejaVuSans-101"/>
     <use x="1037.5" xlink:href="#DejaVuSans-114"/>
     <use x="1076.863281" xlink:href="#DejaVuSans-114"/>
     <use x="1115.726562" xlink:href="#DejaVuSans-111"/>
     <use x="1176.908203" xlink:href="#DejaVuSans-114"/>
     <use x="1218.021484" xlink:href="#DejaVuSans-32"/>
     <use x="1249.808594" xlink:href="#DejaVuSans-110"/>
     <use x="1313.1875" xlink:href="#DejaVuSans-111"/>
     <use x="1374.369141" xlink:href="#DejaVuSans-114"/>
     <use x="1413.732422" xlink:href="#DejaVuSans-109"/>
     <use x="1511.144531" xlink:href="#DejaVuSans-32"/>
     <use x="1542.931641" xlink:href="#DejaVuSans-111"/>
     <use x="1604.113281" xlink:href="#DejaVuSans-118"/>
     <use x="1663.292969" xlink:href="#DejaVuSans-101"/>
     <use x="1724.816406" xlink:href="#DejaVuSans-114"/>
     <use x="1765.929688" xlink:href="#DejaVuSans-32"/>
     <use x="1797.716797" xlink:href="#DejaVuSans-97"/>
     <use x="1858.996094" xlink:href="#DejaVuSans-32"/>
     <use x="1890.783203" xlink:href="#DejaVuSans-115"/>
     <use x="1942.882812" xlink:href="#DejaVuSans-105"/>
     <use x="1970.666016" xlink:href="#DejaVuSans-110"/>
     <use x="2034.044922" xlink:href="#DejaVuSans-103"/>
     <use x="2097.521484" xlink:href="#DejaVuSans-108"/>
     <use x="2125.304688" xlink:href="#DejaVuSans-101"/>
     <use x="2186.828125" xlink:href="#DejaVuSans-32"/>
     <use x="2218.615234" xlink:href="#DejaVuSans-101"/>
     <use x="2280.138672" xlink:href="#DejaVuSans-112"/>
     <use x="2343.615234" xlink:href="#DejaVuSans-105"/>
     <use x="2371.398438" xlink:href="#DejaVuSans-115"/>
     <use x="2423.498047" xlink:href="#DejaVuSans-111"/>
     <use x="2484.679688" xlink:href="#DejaVuSans-100"/>
     <use x="2548.15625" xlink:href="#DejaVuSans-101"/>
     <use x="2609.679688" xlink:href="#DejaVuSans-32"/>
    </g>
    <!--  Avg object pose error norm: Residual RL = 0.373, Standard = 0.240,  -->
    <g transform="translate(26.875313 22.034625)scale(0.12 -0.12)">
     <defs>
      <path d="M 34.1875 63.1875 
L 20.796875 26.90625 
L 47.609375 26.90625 
z
M 28.609375 72.90625 
L 39.796875 72.90625 
L 67.578125 0 
L 57.328125 0 
L 50.6875 18.703125 
L 17.828125 18.703125 
L 11.1875 0 
L 0.78125 0 
z
" id="DejaVuSans-65"/>
      <path d="M 11.71875 12.40625 
L 22.015625 12.40625 
L 22.015625 0 
L 11.71875 0 
z
M 11.71875 51.703125 
L 22.015625 51.703125 
L 22.015625 39.3125 
L 11.71875 39.3125 
z
" id="DejaVuSans-58"/>
      <path d="M 44.390625 34.1875 
Q 47.5625 33.109375 50.5625 29.59375 
Q 53.5625 26.078125 56.59375 19.921875 
L 66.609375 0 
L 56 0 
L 46.6875 18.703125 
Q 43.0625 26.03125 39.671875 28.421875 
Q 36.28125 30.8125 30.421875 30.8125 
L 19.671875 30.8125 
L 19.671875 0 
L 9.8125 0 
L 9.8125 72.90625 
L 32.078125 72.90625 
Q 44.578125 72.90625 50.734375 67.671875 
Q 56.890625 62.453125 56.890625 51.90625 
Q 56.890625 45.015625 53.6875 40.46875 
Q 50.484375 35.9375 44.390625 34.1875 
z
M 19.671875 64.796875 
L 19.671875 38.921875 
L 32.078125 38.921875 
Q 39.203125 38.921875 42.84375 42.21875 
Q 46.484375 45.515625 46.484375 51.90625 
Q 46.484375 58.296875 42.84375 61.546875 
Q 39.203125 64.796875 32.078125 64.796875 
z
" id="DejaVuSans-82"/>
      <path d="M 9.8125 72.90625 
L 19.671875 72.90625 
L 19.671875 8.296875 
L 55.171875 8.296875 
L 55.171875 0 
L 9.8125 0 
z
" id="DejaVuSans-76"/>
      <path d="M 10.59375 45.40625 
L 73.1875 45.40625 
L 73.1875 37.203125 
L 10.59375 37.203125 
z
M 10.59375 25.484375 
L 73.1875 25.484375 
L 73.1875 17.1875 
L 10.59375 17.1875 
z
" id="DejaVuSans-61"/>
      <path d="M 11.71875 12.40625 
L 22.015625 12.40625 
L 22.015625 4 
L 14.015625 -11.625 
L 7.71875 -11.625 
L 11.71875 4 
z
" id="DejaVuSans-44"/>
      <path d="M 53.515625 70.515625 
L 53.515625 60.890625 
Q 47.90625 63.578125 42.921875 64.890625 
Q 37.9375 66.21875 33.296875 66.21875 
Q 25.25 66.21875 20.875 63.09375 
Q 16.5 59.96875 16.5 54.203125 
Q 16.5 49.359375 19.40625 46.890625 
Q 22.3125 44.4375 30.421875 42.921875 
L 36.375 41.703125 
Q 47.40625 39.59375 52.65625 34.296875 
Q 57.90625 29 57.90625 20.125 
Q 57.90625 9.515625 50.796875 4.046875 
Q 43.703125 -1.421875 29.984375 -1.421875 
Q 24.8125 -1.421875 18.96875 -0.25 
Q 13.140625 0.921875 6.890625 3.21875 
L 6.890625 13.375 
Q 12.890625 10.015625 18.65625 8.296875 
Q 24.421875 6.59375 29.984375 6.59375 
Q 38.421875 6.59375 43.015625 9.90625 
Q 47.609375 13.234375 47.609375 19.390625 
Q 47.609375 24.75 44.3125 27.78125 
Q 41.015625 30.8125 33.5 32.328125 
L 27.484375 33.5 
Q 16.453125 35.6875 11.515625 40.375 
Q 6.59375 45.0625 6.59375 53.421875 
Q 6.59375 63.09375 13.40625 68.65625 
Q 20.21875 74.21875 32.171875 74.21875 
Q 37.3125 74.21875 42.625 73.28125 
Q 47.953125 72.359375 53.515625 70.515625 
z
" id="DejaVuSans-83"/>
     </defs>
     <use xlink:href="#DejaVuSans-32"/>
     <use x="31.787109" xlink:href="#DejaVuSans-65"/>
     <use x="94.320312" xlink:href="#DejaVuSans-118"/>
     <use x="153.5" xlink:href="#DejaVuSans-103"/>
     <use x="216.976562" xlink:href="#DejaVuSans-32"/>
     <use x="248.763672" xlink:href="#DejaVuSans-111"/>
     <use x="309.945312" xlink:href="#DejaVuSans-98"/>
     <use x="373.421875" xlink:href="#DejaVuSans-106"/>
     <use x="401.205078" xlink:href="#DejaVuSans-101"/>
     <use x="462.728516" xlink:href="#DejaVuSans-99"/>
     <use x="517.708984" xlink:href="#DejaVuSans-116"/>
     <use x="556.917969" xlink:href="#DejaVuSans-32"/>
     <use x="588.705078" xlink:href="#DejaVuSans-112"/>
     <use x="652.181641" xlink:href="#DejaVuSans-111"/>
     <use x="713.363281" xlink:href="#DejaVuSans-115"/>
     <use x="765.462891" xlink:href="#DejaVuSans-101"/>
     <use x="826.986328" xlink:href="#DejaVuSans-32"/>
     <use x="858.773438" xlink:href="#DejaVuSans-101"/>
     <use x="920.296875" xlink:href="#DejaVuSans-114"/>
     <use x="959.660156" xlink:href="#DejaVuSans-114"/>
     <use x="998.523438" xlink:href="#DejaVuSans-111"/>
     <use x="1059.705078" xlink:href="#DejaVuSans-114"/>
     <use x="1100.818359" xlink:href="#DejaVuSans-32"/>
     <use x="1132.605469" xlink:href="#DejaVuSans-110"/>
     <use x="1195.984375" xlink:href="#DejaVuSans-111"/>
     <use x="1257.166016" xlink:href="#DejaVuSans-114"/>
     <use x="1296.529297" xlink:href="#DejaVuSans-109"/>
     <use x="1393.941406" xlink:href="#DejaVuSans-58"/>
     <use x="1427.632812" xlink:href="#DejaVuSans-32"/>
     <use x="1459.419922" xlink:href="#DejaVuSans-82"/>
     <use x="1524.402344" xlink:href="#DejaVuSans-101"/>
     <use x="1585.925781" xlink:href="#DejaVuSans-115"/>
     <use x="1638.025391" xlink:href="#DejaVuSans-105"/>
     <use x="1665.808594" xlink:href="#DejaVuSans-100"/>
     <use x="1729.285156" xlink:href="#DejaVuSans-117"/>
     <use x="1792.664062" xlink:href="#DejaVuSans-97"/>
     <use x="1853.943359" xlink:href="#DejaVuSans-108"/>
     <use x="1881.726562" xlink:href="#DejaVuSans-32"/>
     <use x="1913.513672" xlink:href="#DejaVuSans-82"/>
     <use x="1982.996094" xlink:href="#DejaVuSans-76"/>
     <use x="2038.708984" xlink:href="#DejaVuSans-32"/>
     <use x="2070.496094" xlink:href="#DejaVuSans-61"/>
     <use x="2154.285156" xlink:href="#DejaVuSans-32"/>
     <use x="2186.072266" xlink:href="#DejaVuSans-48"/>
     <use x="2249.695312" xlink:href="#DejaVuSans-46"/>
     <use x="2281.482422" xlink:href="#DejaVuSans-51"/>
     <use x="2345.105469" xlink:href="#DejaVuSans-55"/>
     <use x="2408.728516" xlink:href="#DejaVuSans-51"/>
     <use x="2472.351562" xlink:href="#DejaVuSans-44"/>
     <use x="2504.138672" xlink:href="#DejaVuSans-32"/>
     <use x="2535.925781" xlink:href="#DejaVuSans-83"/>
     <use x="2599.402344" xlink:href="#DejaVuSans-116"/>
     <use x="2638.611328" xlink:href="#DejaVuSans-97"/>
     <use x="2699.890625" xlink:href="#DejaVuSans-110"/>
     <use x="2763.269531" xlink:href="#DejaVuSans-100"/>
     <use x="2826.746094" xlink:href="#DejaVuSans-97"/>
     <use x="2888.025391" xlink:href="#DejaVuSans-114"/>
     <use x="2927.388672" xlink:href="#DejaVuSans-100"/>
     <use x="2990.865234" xlink:href="#DejaVuSans-32"/>
     <use x="3022.652344" xlink:href="#DejaVuSans-61"/>
     <use x="3106.441406" xlink:href="#DejaVuSans-32"/>
     <use x="3138.228516" xlink:href="#DejaVuSans-48"/>
     <use x="3201.851562" xlink:href="#DejaVuSans-46"/>
     <use x="3233.638672" xlink:href="#DejaVuSans-50"/>
     <use x="3297.261719" xlink:href="#DejaVuSans-52"/>
     <use x="3360.884766" xlink:href="#DejaVuSans-48"/>
     <use x="3424.507812" xlink:href="#DejaVuSans-44"/>
     <use x="3456.294922" xlink:href="#DejaVuSans-32"/>
    </g>
    <!--  Baseline = 0.178 -->
    <g transform="translate(182.795625 35.472)scale(0.12 -0.12)">
     <defs>
      <path d="M 19.671875 34.8125 
L 19.671875 8.109375 
L 35.5 8.109375 
Q 43.453125 8.109375 47.28125 11.40625 
Q 51.125 14.703125 51.125 21.484375 
Q 51.125 28.328125 47.28125 31.5625 
Q 43.453125 34.8125 35.5 34.8125 
z
M 19.671875 64.796875 
L 19.671875 42.828125 
L 34.28125 42.828125 
Q 41.5 42.828125 45.03125 45.53125 
Q 48.578125 48.25 48.578125 53.8125 
Q 48.578125 59.328125 45.03125 62.0625 
Q 41.5 64.796875 34.28125 64.796875 
z
M 9.8125 72.90625 
L 35.015625 72.90625 
Q 46.296875 72.90625 52.390625 68.21875 
Q 58.5 63.53125 58.5 54.890625 
Q 58.5 48.1875 55.375 44.234375 
Q 52.25 40.28125 46.1875 39.3125 
Q 53.46875 37.75 57.5 32.78125 
Q 61.53125 27.828125 61.53125 20.40625 
Q 61.53125 10.640625 54.890625 5.3125 
Q 48.25 0 35.984375 0 
L 9.8125 0 
z
" id="DejaVuSans-66"/>
     </defs>
     <use xlink:href="#DejaVuSans-32"/>
     <use x="31.787109" xlink:href="#DejaVuSans-66"/>
     <use x="100.390625" xlink:href="#DejaVuSans-97"/>
     <use x="161.669922" xlink:href="#DejaVuSans-115"/>
     <use x="213.769531" xlink:href="#DejaVuSans-101"/>
     <use x="275.292969" xlink:href="#DejaVuSans-108"/>
     <use x="303.076172" xlink:href="#DejaVuSans-105"/>
     <use x="330.859375" xlink:href="#DejaVuSans-110"/>
     <use x="394.238281" xlink:href="#DejaVuSans-101"/>
     <use x="455.761719" xlink:href="#DejaVuSans-32"/>
     <use x="487.548828" xlink:href="#DejaVuSans-61"/>
     <use x="571.337891" xlink:href="#DejaVuSans-32"/>
     <use x="603.125" xlink:href="#DejaVuSans-48"/>
     <use x="666.748047" xlink:href="#DejaVuSans-46"/>
     <use x="698.535156" xlink:href="#DejaVuSans-49"/>
     <use x="762.158203" xlink:href="#DejaVuSans-55"/>
     <use x="825.78125" xlink:href="#DejaVuSans-56"/>
    </g>
   </g>
   <g id="legend_1">
    <g id="patch_7">
     <path d="M 64.6 93.506375 
L 154.529687 93.506375 
Q 156.529687 93.506375 156.529687 91.506375 
L 156.529687 48.472 
Q 156.529687 46.472 154.529687 46.472 
L 64.6 46.472 
Q 62.6 46.472 62.6 48.472 
L 62.6 91.506375 
Q 62.6 93.506375 64.6 93.506375 
z
" style="fill:#ffffff;opacity:0.8;stroke:#cccccc;stroke-linejoin:miter;"/>
    </g>
    <g id="line2d_18">
     <path d="M 66.6 54.570438 
L 86.6 54.570438 
" style="fill:none;stroke:#1f77b4;stroke-linecap:square;stroke-width:1.5;"/>
    </g>
    <g id="line2d_19"/>
    <g id="text_18">
     <!-- Residual RL -->
     <g transform="translate(94.6 58.070438)scale(0.1 -0.1)">
      <use xlink:href="#DejaVuSans-82"/>
      <use x="64.982422" xlink:href="#DejaVuSans-101"/>
      <use x="126.505859" xlink:href="#DejaVuSans-115"/>
      <use x="178.605469" xlink:href="#DejaVuSans-105"/>
      <use x="206.388672" xlink:href="#DejaVuSans-100"/>
      <use x="269.865234" xlink:href="#DejaVuSans-117"/>
      <use x="333.244141" xlink:href="#DejaVuSans-97"/>
      <use x="394.523438" xlink:href="#DejaVuSans-108"/>
      <use x="422.306641" xlink:href="#DejaVuSans-32"/>
      <use x="454.09375" xlink:href="#DejaVuSans-82"/>
      <use x="523.576172" xlink:href="#DejaVuSans-76"/>
     </g>
    </g>
    <g id="line2d_20">
     <path d="M 66.6 69.248563 
L 86.6 69.248563 
" style="fill:none;stroke:#ff7f0e;stroke-linecap:square;stroke-width:1.5;"/>
    </g>
    <g id="line2d_21"/>
    <g id="text_19">
     <!-- Standard -->
     <g transform="translate(94.6 72.748563)scale(0.1 -0.1)">
      <use xlink:href="#DejaVuSans-83"/>
      <use x="63.476562" xlink:href="#DejaVuSans-116"/>
      <use x="102.685547" xlink:href="#DejaVuSans-97"/>
      <use x="163.964844" xlink:href="#DejaVuSans-110"/>
      <use x="227.34375" xlink:href="#DejaVuSans-100"/>
      <use x="290.820312" xlink:href="#DejaVuSans-97"/>
      <use x="352.099609" xlink:href="#DejaVuSans-114"/>
      <use x="391.462891" xlink:href="#DejaVuSans-100"/>
     </g>
    </g>
    <g id="line2d_22">
     <path d="M 66.6 83.926688 
L 86.6 83.926688 
" style="fill:none;stroke:#bf00bf;stroke-linecap:square;stroke-width:1.5;"/>
    </g>
    <g id="line2d_23"/>
    <g id="text_20">
     <!-- Baseline -->
     <g transform="translate(94.6 87.426688)scale(0.1 -0.1)">
      <use xlink:href="#DejaVuSans-66"/>
      <use x="68.603516" xlink:href="#DejaVuSans-97"/>
      <use x="129.882812" xlink:href="#DejaVuSans-115"/>
      <use x="181.982422" xlink:href="#DejaVuSans-101"/>
      <use x="243.505859" xlink:href="#DejaVuSans-108"/>
      <use x="271.289062" xlink:href="#DejaVuSans-105"/>
      <use x="299.072266" xlink:href="#DejaVuSans-110"/>
      <use x="362.451172" xlink:href="#DejaVuSans-101"/>
     </g>
    </g>
   </g>
  </g>
 </g>
 <defs>
  <clipPath id="pddd0d95fed">
   <rect height="266.112" width="357.12" x="57.6" y="41.472"/>
  </clipPath>
 </defs>
</svg>
