<?xml version="1.0" encoding="utf-8" standalone="no"?>
<!DOCTYPE svg PUBLIC "-//W3C//DTD SVG 1.1//EN"
  "http://www.w3.org/Graphics/SVG/1.1/DTD/svg11.dtd">
<!-- Created with matplotlib (https://matplotlib.org/) -->
<svg height="345.6pt" version="1.1" viewBox="0 0 460.8 345.6" width="460.8pt" xmlns="http://www.w3.org/2000/svg" xmlns:xlink="http://www.w3.org/1999/xlink">
 <metadata>
  <rdf:RDF xmlns:cc="http://creativecommons.org/ns#" xmlns:dc="http://purl.org/dc/elements/1.1/" xmlns:rdf="http://www.w3.org/1999/02/22-rdf-syntax-ns#">
   <cc:Work>
    <dc:type rdf:resource="http://purl.org/dc/dcmitype/StillImage"/>
    <dc:date>2022-07-22T10:29:28.273868</dc:date>
    <dc:format>image/svg+xml</dc:format>
    <dc:creator>
     <cc:Agent>
      <dc:title>Matplotlib v3.3.4, https://matplotlib.org/</dc:title>
     </cc:Agent>
    </dc:creator>
   </cc:Work>
  </rdf:RDF>
 </metadata>
 <defs>
  <style type="text/css">*{stroke-linecap:butt;stroke-linejoin:round;}</style>
 </defs>
 <g id="figure_1">
  <g id="patch_1">
   <path d="M 0 345.6 
L 460.8 345.6 
L 460.8 0 
L 0 0 
z
" style="fill:#ffffff;"/>
  </g>
  <g id="axes_1">
   <g id="patch_2">
    <path d="M 57.6 307.584 
L 414.72 307.584 
L 414.72 41.472 
L 57.6 41.472 
z
" style="fill:#ffffff;"/>
   </g>
   <g id="matplotlib.axis_1">
    <g id="xtick_1">
     <g id="line2d_1">
      <defs>
       <path d="M 0 0 
L 0 3.5 
" id="mb0885d26c3" style="stroke:#000000;stroke-width:0.8;"/>
      </defs>
      <g>
       <use style="stroke:#000000;stroke-width:0.8;" x="73.832727" xlink:href="#mb0885d26c3" y="307.584"/>
      </g>
     </g>
     <g id="text_1">
      <!-- 0 -->
      <g transform="translate(70.651477 322.182437)scale(0.1 -0.1)">
       <defs>
        <path d="M 31.78125 66.40625 
Q 24.171875 66.40625 20.328125 58.90625 
Q 16.5 51.421875 16.5 36.375 
Q 16.5 21.390625 20.328125 13.890625 
Q 24.171875 6.390625 31.78125 6.390625 
Q 39.453125 6.390625 43.28125 13.890625 
Q 47.125 21.390625 47.125 36.375 
Q 47.125 51.421875 43.28125 58.90625 
Q 39.453125 66.40625 31.78125 66.40625 
z
M 31.78125 74.21875 
Q 44.046875 74.21875 50.515625 64.515625 
Q 56.984375 54.828125 56.984375 36.375 
Q 56.984375 17.96875 50.515625 8.265625 
Q 44.046875 -1.421875 31.78125 -1.421875 
Q 19.53125 -1.421875 13.0625 8.265625 
Q 6.59375 17.96875 6.59375 36.375 
Q 6.59375 54.828125 13.0625 64.515625 
Q 19.53125 74.21875 31.78125 74.21875 
z
" id="DejaVuSans-48"/>
       </defs>
       <use xlink:href="#DejaVuSans-48"/>
      </g>
     </g>
    </g>
    <g id="xtick_2">
     <g id="line2d_2">
      <g>
       <use style="stroke:#000000;stroke-width:0.8;" x="138.763636" xlink:href="#mb0885d26c3" y="307.584"/>
      </g>
     </g>
     <g id="text_2">
      <!-- 2000 -->
      <g transform="translate(126.038636 322.182437)scale(0.1 -0.1)">
       <defs>
        <path d="M 19.1875 8.296875 
L 53.609375 8.296875 
L 53.609375 0 
L 7.328125 0 
L 7.328125 8.296875 
Q 12.9375 14.109375 22.625 23.890625 
Q 32.328125 33.6875 34.8125 36.53125 
Q 39.546875 41.84375 41.421875 45.53125 
Q 43.3125 49.21875 43.3125 52.78125 
Q 43.3125 58.59375 39.234375 62.25 
Q 35.15625 65.921875 28.609375 65.921875 
Q 23.96875 65.921875 18.8125 64.3125 
Q 13.671875 62.703125 7.8125 59.421875 
L 7.8125 69.390625 
Q 13.765625 71.78125 18.9375 73 
Q 24.125 74.21875 28.421875 74.21875 
Q 39.75 74.21875 46.484375 68.546875 
Q 53.21875 62.890625 53.21875 53.421875 
Q 53.21875 48.921875 51.53125 44.890625 
Q 49.859375 40.875 45.40625 35.40625 
Q 44.1875 33.984375 37.640625 27.21875 
Q 31.109375 20.453125 19.1875 8.296875 
z
" id="DejaVuSans-50"/>
       </defs>
       <use xlink:href="#DejaVuSans-50"/>
       <use x="63.623047" xlink:href="#DejaVuSans-48"/>
       <use x="127.246094" xlink:href="#DejaVuSans-48"/>
       <use x="190.869141" xlink:href="#DejaVuSans-48"/>
      </g>
     </g>
    </g>
    <g id="xtick_3">
     <g id="line2d_3">
      <g>
       <use style="stroke:#000000;stroke-width:0.8;" x="203.694545" xlink:href="#mb0885d26c3" y="307.584"/>
      </g>
     </g>
     <g id="text_3">
      <!-- 4000 -->
      <g transform="translate(190.969545 322.182437)scale(0.1 -0.1)">
       <defs>
        <path d="M 37.796875 64.3125 
L 12.890625 25.390625 
L 37.796875 25.390625 
z
M 35.203125 72.90625 
L 47.609375 72.90625 
L 47.609375 25.390625 
L 58.015625 25.390625 
L 58.015625 17.1875 
L 47.609375 17.1875 
L 47.609375 0 
L 37.796875 0 
L 37.796875 17.1875 
L 4.890625 17.1875 
L 4.890625 26.703125 
z
" id="DejaVuSans-52"/>
       </defs>
       <use xlink:href="#DejaVuSans-52"/>
       <use x="63.623047" xlink:href="#DejaVuSans-48"/>
       <use x="127.246094" xlink:href="#DejaVuSans-48"/>
       <use x="190.869141" xlink:href="#DejaVuSans-48"/>
      </g>
     </g>
    </g>
    <g id="xtick_4">
     <g id="line2d_4">
      <g>
       <use style="stroke:#000000;stroke-width:0.8;" x="268.625455" xlink:href="#mb0885d26c3" y="307.584"/>
      </g>
     </g>
     <g id="text_4">
      <!-- 6000 -->
      <g transform="translate(255.900455 322.182437)scale(0.1 -0.1)">
       <defs>
        <path d="M 33.015625 40.375 
Q 26.375 40.375 22.484375 35.828125 
Q 18.609375 31.296875 18.609375 23.390625 
Q 18.609375 15.53125 22.484375 10.953125 
Q 26.375 6.390625 33.015625 6.390625 
Q 39.65625 6.390625 43.53125 10.953125 
Q 47.40625 15.53125 47.40625 23.390625 
Q 47.40625 31.296875 43.53125 35.828125 
Q 39.65625 40.375 33.015625 40.375 
z
M 52.59375 71.296875 
L 52.59375 62.3125 
Q 48.875 64.0625 45.09375 64.984375 
Q 41.3125 65.921875 37.59375 65.921875 
Q 27.828125 65.921875 22.671875 59.328125 
Q 17.53125 52.734375 16.796875 39.40625 
Q 19.671875 43.65625 24.015625 45.921875 
Q 28.375 48.1875 33.59375 48.1875 
Q 44.578125 48.1875 50.953125 41.515625 
Q 57.328125 34.859375 57.328125 23.390625 
Q 57.328125 12.15625 50.6875 5.359375 
Q 44.046875 -1.421875 33.015625 -1.421875 
Q 20.359375 -1.421875 13.671875 8.265625 
Q 6.984375 17.96875 6.984375 36.375 
Q 6.984375 53.65625 15.1875 63.9375 
Q 23.390625 74.21875 37.203125 74.21875 
Q 40.921875 74.21875 44.703125 73.484375 
Q 48.484375 72.75 52.59375 71.296875 
z
" id="DejaVuSans-54"/>
       </defs>
       <use xlink:href="#DejaVuSans-54"/>
       <use x="63.623047" xlink:href="#DejaVuSans-48"/>
       <use x="127.246094" xlink:href="#DejaVuSans-48"/>
       <use x="190.869141" xlink:href="#DejaVuSans-48"/>
      </g>
     </g>
    </g>
    <g id="xtick_5">
     <g id="line2d_5">
      <g>
       <use style="stroke:#000000;stroke-width:0.8;" x="333.556364" xlink:href="#mb0885d26c3" y="307.584"/>
      </g>
     </g>
     <g id="text_5">
      <!-- 8000 -->
      <g transform="translate(320.831364 322.182437)scale(0.1 -0.1)">
       <defs>
        <path d="M 31.78125 34.625 
Q 24.75 34.625 20.71875 30.859375 
Q 16.703125 27.09375 16.703125 20.515625 
Q 16.703125 13.921875 20.71875 10.15625 
Q 24.75 6.390625 31.78125 6.390625 
Q 38.8125 6.390625 42.859375 10.171875 
Q 46.921875 13.96875 46.921875 20.515625 
Q 46.921875 27.09375 42.890625 30.859375 
Q 38.875 34.625 31.78125 34.625 
z
M 21.921875 38.8125 
Q 15.578125 40.375 12.03125 44.71875 
Q 8.5 49.078125 8.5 55.328125 
Q 8.5 64.0625 14.71875 69.140625 
Q 20.953125 74.21875 31.78125 74.21875 
Q 42.671875 74.21875 48.875 69.140625 
Q 55.078125 64.0625 55.078125 55.328125 
Q 55.078125 49.078125 51.53125 44.71875 
Q 48 40.375 41.703125 38.8125 
Q 48.828125 37.15625 52.796875 32.3125 
Q 56.78125 27.484375 56.78125 20.515625 
Q 56.78125 9.90625 50.3125 4.234375 
Q 43.84375 -1.421875 31.78125 -1.421875 
Q 19.734375 -1.421875 13.25 4.234375 
Q 6.78125 9.90625 6.78125 20.515625 
Q 6.78125 27.484375 10.78125 32.3125 
Q 14.796875 37.15625 21.921875 38.8125 
z
M 18.3125 54.390625 
Q 18.3125 48.734375 21.84375 45.5625 
Q 25.390625 42.390625 31.78125 42.390625 
Q 38.140625 42.390625 41.71875 45.5625 
Q 45.3125 48.734375 45.3125 54.390625 
Q 45.3125 60.0625 41.71875 63.234375 
Q 38.140625 66.40625 31.78125 66.40625 
Q 25.390625 66.40625 21.84375 63.234375 
Q 18.3125 60.0625 18.3125 54.390625 
z
" id="DejaVuSans-56"/>
       </defs>
       <use xlink:href="#DejaVuSans-56"/>
       <use x="63.623047" xlink:href="#DejaVuSans-48"/>
       <use x="127.246094" xlink:href="#DejaVuSans-48"/>
       <use x="190.869141" xlink:href="#DejaVuSans-48"/>
      </g>
     </g>
    </g>
    <g id="xtick_6">
     <g id="line2d_6">
      <g>
       <use style="stroke:#000000;stroke-width:0.8;" x="398.487273" xlink:href="#mb0885d26c3" y="307.584"/>
      </g>
     </g>
     <g id="text_6">
      <!-- 10000 -->
      <g transform="translate(382.581023 322.182437)scale(0.1 -0.1)">
       <defs>
        <path d="M 12.40625 8.296875 
L 28.515625 8.296875 
L 28.515625 63.921875 
L 10.984375 60.40625 
L 10.984375 69.390625 
L 28.421875 72.90625 
L 38.28125 72.90625 
L 38.28125 8.296875 
L 54.390625 8.296875 
L 54.390625 0 
L 12.40625 0 
z
" id="DejaVuSans-49"/>
       </defs>
       <use xlink:href="#DejaVuSans-49"/>
       <use x="63.623047" xlink:href="#DejaVuSans-48"/>
       <use x="127.246094" xlink:href="#DejaVuSans-48"/>
       <use x="190.869141" xlink:href="#DejaVuSans-48"/>
       <use x="254.492188" xlink:href="#DejaVuSans-48"/>
      </g>
     </g>
    </g>
    <g id="text_7">
     <!-- Num-time-steps -->
     <g transform="translate(196.056094 335.860562)scale(0.1 -0.1)">
      <defs>
       <path d="M 9.8125 72.90625 
L 23.09375 72.90625 
L 55.421875 11.921875 
L 55.421875 72.90625 
L 64.984375 72.90625 
L 64.984375 0 
L 51.703125 0 
L 19.390625 60.984375 
L 19.390625 0 
L 9.8125 0 
z
" id="DejaVuSans-78"/>
       <path d="M 8.5 21.578125 
L 8.5 54.6875 
L 17.484375 54.6875 
L 17.484375 21.921875 
Q 17.484375 14.15625 20.5 10.265625 
Q 23.53125 6.390625 29.59375 6.390625 
Q 36.859375 6.390625 41.078125 11.03125 
Q 45.3125 15.671875 45.3125 23.6875 
L 45.3125 54.6875 
L 54.296875 54.6875 
L 54.296875 0 
L 45.3125 0 
L 45.3125 8.40625 
Q 42.046875 3.421875 37.71875 1 
Q 33.40625 -1.421875 27.6875 -1.421875 
Q 18.265625 -1.421875 13.375 4.4375 
Q 8.5 10.296875 8.5 21.578125 
z
M 31.109375 56 
z
" id="DejaVuSans-117"/>
       <path d="M 52 44.1875 
Q 55.375 50.25 60.0625 53.125 
Q 64.75 56 71.09375 56 
Q 79.640625 56 84.28125 50.015625 
Q 88.921875 44.046875 88.921875 33.015625 
L 88.921875 0 
L 79.890625 0 
L 79.890625 32.71875 
Q 79.890625 40.578125 77.09375 44.375 
Q 74.3125 48.1875 68.609375 48.1875 
Q 61.625 48.1875 57.5625 43.546875 
Q 53.515625 38.921875 53.515625 30.90625 
L 53.515625 0 
L 44.484375 0 
L 44.484375 32.71875 
Q 44.484375 40.625 41.703125 44.40625 
Q 38.921875 48.1875 33.109375 48.1875 
Q 26.21875 48.1875 22.15625 43.53125 
Q 18.109375 38.875 18.109375 30.90625 
L 18.109375 0 
L 9.078125 0 
L 9.078125 54.6875 
L 18.109375 54.6875 
L 18.109375 46.1875 
Q 21.1875 51.21875 25.484375 53.609375 
Q 29.78125 56 35.6875 56 
Q 41.65625 56 45.828125 52.96875 
Q 50 49.953125 52 44.1875 
z
" id="DejaVuSans-109"/>
       <path d="M 4.890625 31.390625 
L 31.203125 31.390625 
L 31.203125 23.390625 
L 4.890625 23.390625 
z
" id="DejaVuSans-45"/>
       <path d="M 18.3125 70.21875 
L 18.3125 54.6875 
L 36.8125 54.6875 
L 36.8125 47.703125 
L 18.3125 47.703125 
L 18.3125 18.015625 
Q 18.3125 11.328125 20.140625 9.421875 
Q 21.96875 7.515625 27.59375 7.515625 
L 36.8125 7.515625 
L 36.8125 0 
L 27.59375 0 
Q 17.1875 0 13.234375 3.875 
Q 9.28125 7.765625 9.28125 18.015625 
L 9.28125 47.703125 
L 2.6875 47.703125 
L 2.6875 54.6875 
L 9.28125 54.6875 
L 9.28125 70.21875 
z
" id="DejaVuSans-116"/>
       <path d="M 9.421875 54.6875 
L 18.40625 54.6875 
L 18.40625 0 
L 9.421875 0 
z
M 9.421875 75.984375 
L 18.40625 75.984375 
L 18.40625 64.59375 
L 9.421875 64.59375 
z
" id="DejaVuSans-105"/>
       <path d="M 56.203125 29.59375 
L 56.203125 25.203125 
L 14.890625 25.203125 
Q 15.484375 15.921875 20.484375 11.0625 
Q 25.484375 6.203125 34.421875 6.203125 
Q 39.59375 6.203125 44.453125 7.46875 
Q 49.3125 8.734375 54.109375 11.28125 
L 54.109375 2.78125 
Q 49.265625 0.734375 44.1875 -0.34375 
Q 39.109375 -1.421875 33.890625 -1.421875 
Q 20.796875 -1.421875 13.15625 6.1875 
Q 5.515625 13.8125 5.515625 26.8125 
Q 5.515625 40.234375 12.765625 48.109375 
Q 20.015625 56 32.328125 56 
Q 43.359375 56 49.78125 48.890625 
Q 56.203125 41.796875 56.203125 29.59375 
z
M 47.21875 32.234375 
Q 47.125 39.59375 43.09375 43.984375 
Q 39.0625 48.390625 32.421875 48.390625 
Q 24.90625 48.390625 20.390625 44.140625 
Q 15.875 39.890625 15.1875 32.171875 
z
" id="DejaVuSans-101"/>
       <path d="M 44.28125 53.078125 
L 44.28125 44.578125 
Q 40.484375 46.53125 36.375 47.5 
Q 32.28125 48.484375 27.875 48.484375 
Q 21.1875 48.484375 17.84375 46.4375 
Q 14.5 44.390625 14.5 40.28125 
Q 14.5 37.15625 16.890625 35.375 
Q 19.28125 33.59375 26.515625 31.984375 
L 29.59375 31.296875 
Q 39.15625 29.25 43.1875 25.515625 
Q 47.21875 21.78125 47.21875 15.09375 
Q 47.21875 7.46875 41.1875 3.015625 
Q 35.15625 -1.421875 24.609375 -1.421875 
Q 20.21875 -1.421875 15.453125 -0.5625 
Q 10.6875 0.296875 5.421875 2 
L 5.421875 11.28125 
Q 10.40625 8.6875 15.234375 7.390625 
Q 20.0625 6.109375 24.8125 6.109375 
Q 31.15625 6.109375 34.5625 8.28125 
Q 37.984375 10.453125 37.984375 14.40625 
Q 37.984375 18.0625 35.515625 20.015625 
Q 33.0625 21.96875 24.703125 23.78125 
L 21.578125 24.515625 
Q 13.234375 26.265625 9.515625 29.90625 
Q 5.8125 33.546875 5.8125 39.890625 
Q 5.8125 47.609375 11.28125 51.796875 
Q 16.75 56 26.8125 56 
Q 31.78125 56 36.171875 55.265625 
Q 40.578125 54.546875 44.28125 53.078125 
z
" id="DejaVuSans-115"/>
       <path d="M 18.109375 8.203125 
L 18.109375 -20.796875 
L 9.078125 -20.796875 
L 9.078125 54.6875 
L 18.109375 54.6875 
L 18.109375 46.390625 
Q 20.953125 51.265625 25.265625 53.625 
Q 29.59375 56 35.59375 56 
Q 45.5625 56 51.78125 48.09375 
Q 58.015625 40.1875 58.015625 27.296875 
Q 58.015625 14.40625 51.78125 6.484375 
Q 45.5625 -1.421875 35.59375 -1.421875 
Q 29.59375 -1.421875 25.265625 0.953125 
Q 20.953125 3.328125 18.109375 8.203125 
z
M 48.6875 27.296875 
Q 48.6875 37.203125 44.609375 42.84375 
Q 40.53125 48.484375 33.40625 48.484375 
Q 26.265625 48.484375 22.1875 42.84375 
Q 18.109375 37.203125 18.109375 27.296875 
Q 18.109375 17.390625 22.1875 11.75 
Q 26.265625 6.109375 33.40625 6.109375 
Q 40.53125 6.109375 44.609375 11.75 
Q 48.6875 17.390625 48.6875 27.296875 
z
" id="DejaVuSans-112"/>
      </defs>
      <use xlink:href="#DejaVuSans-78"/>
      <use x="74.804688" xlink:href="#DejaVuSans-117"/>
      <use x="138.183594" xlink:href="#DejaVuSans-109"/>
      <use x="235.595703" xlink:href="#DejaVuSans-45"/>
      <use x="271.679688" xlink:href="#DejaVuSans-116"/>
      <use x="310.888672" xlink:href="#DejaVuSans-105"/>
      <use x="338.671875" xlink:href="#DejaVuSans-109"/>
      <use x="436.083984" xlink:href="#DejaVuSans-101"/>
      <use x="497.607422" xlink:href="#DejaVuSans-45"/>
      <use x="533.691406" xlink:href="#DejaVuSans-115"/>
      <use x="585.791016" xlink:href="#DejaVuSans-116"/>
      <use x="625" xlink:href="#DejaVuSans-101"/>
      <use x="686.523438" xlink:href="#DejaVuSans-112"/>
      <use x="750" xlink:href="#DejaVuSans-115"/>
     </g>
    </g>
   </g>
   <g id="matplotlib.axis_2">
    <g id="ytick_1">
     <g id="line2d_7">
      <defs>
       <path d="M 0 0 
L -3.5 0 
" id="m22e65359f4" style="stroke:#000000;stroke-width:0.8;"/>
      </defs>
      <g>
       <use style="stroke:#000000;stroke-width:0.8;" x="57.6" xlink:href="#m22e65359f4" y="300.833751"/>
      </g>
     </g>
     <g id="text_8">
      <!-- 0.0 -->
      <g transform="translate(34.696875 304.632969)scale(0.1 -0.1)">
       <defs>
        <path d="M 10.6875 12.40625 
L 21 12.40625 
L 21 0 
L 10.6875 0 
z
" id="DejaVuSans-46"/>
       </defs>
       <use xlink:href="#DejaVuSans-48"/>
       <use x="63.623047" xlink:href="#DejaVuSans-46"/>
       <use x="95.410156" xlink:href="#DejaVuSans-48"/>
      </g>
     </g>
    </g>
    <g id="ytick_2">
     <g id="line2d_8">
      <g>
       <use style="stroke:#000000;stroke-width:0.8;" x="57.6" xlink:href="#m22e65359f4" y="247.453943"/>
      </g>
     </g>
     <g id="text_9">
      <!-- 0.2 -->
      <g transform="translate(34.696875 251.253162)scale(0.1 -0.1)">
       <use xlink:href="#DejaVuSans-48"/>
       <use x="63.623047" xlink:href="#DejaVuSans-46"/>
       <use x="95.410156" xlink:href="#DejaVuSans-50"/>
      </g>
     </g>
    </g>
    <g id="ytick_3">
     <g id="line2d_9">
      <g>
       <use style="stroke:#000000;stroke-width:0.8;" x="57.6" xlink:href="#m22e65359f4" y="194.074135"/>
      </g>
     </g>
     <g id="text_10">
      <!-- 0.4 -->
      <g transform="translate(34.696875 197.873354)scale(0.1 -0.1)">
       <use xlink:href="#DejaVuSans-48"/>
       <use x="63.623047" xlink:href="#DejaVuSans-46"/>
       <use x="95.410156" xlink:href="#DejaVuSans-52"/>
      </g>
     </g>
    </g>
    <g id="ytick_4">
     <g id="line2d_10">
      <g>
       <use style="stroke:#000000;stroke-width:0.8;" x="57.6" xlink:href="#m22e65359f4" y="140.694327"/>
      </g>
     </g>
     <g id="text_11">
      <!-- 0.6 -->
      <g transform="translate(34.696875 144.493546)scale(0.1 -0.1)">
       <use xlink:href="#DejaVuSans-48"/>
       <use x="63.623047" xlink:href="#DejaVuSans-46"/>
       <use x="95.410156" xlink:href="#DejaVuSans-54"/>
      </g>
     </g>
    </g>
    <g id="ytick_5">
     <g id="line2d_11">
      <g>
       <use style="stroke:#000000;stroke-width:0.8;" x="57.6" xlink:href="#m22e65359f4" y="87.314519"/>
      </g>
     </g>
     <g id="text_12">
      <!-- 0.8 -->
      <g transform="translate(34.696875 91.113738)scale(0.1 -0.1)">
       <use xlink:href="#DejaVuSans-48"/>
       <use x="63.623047" xlink:href="#DejaVuSans-46"/>
       <use x="95.410156" xlink:href="#DejaVuSans-56"/>
      </g>
     </g>
    </g>
    <g id="text_13">
     <!-- Obj-pose-error-norm -->
     <g transform="translate(28.617187 225.203781)rotate(-90)scale(0.1 -0.1)">
      <defs>
       <path d="M 39.40625 66.21875 
Q 28.65625 66.21875 22.328125 58.203125 
Q 16.015625 50.203125 16.015625 36.375 
Q 16.015625 22.609375 22.328125 14.59375 
Q 28.65625 6.59375 39.40625 6.59375 
Q 50.140625 6.59375 56.421875 14.59375 
Q 62.703125 22.609375 62.703125 36.375 
Q 62.703125 50.203125 56.421875 58.203125 
Q 50.140625 66.21875 39.40625 66.21875 
z
M 39.40625 74.21875 
Q 54.734375 74.21875 63.90625 63.9375 
Q 73.09375 53.65625 73.09375 36.375 
Q 73.09375 19.140625 63.90625 8.859375 
Q 54.734375 -1.421875 39.40625 -1.421875 
Q 24.03125 -1.421875 14.8125 8.828125 
Q 5.609375 19.09375 5.609375 36.375 
Q 5.609375 53.65625 14.8125 63.9375 
Q 24.03125 74.21875 39.40625 74.21875 
z
" id="DejaVuSans-79"/>
       <path d="M 48.6875 27.296875 
Q 48.6875 37.203125 44.609375 42.84375 
Q 40.53125 48.484375 33.40625 48.484375 
Q 26.265625 48.484375 22.1875 42.84375 
Q 18.109375 37.203125 18.109375 27.296875 
Q 18.109375 17.390625 22.1875 11.75 
Q 26.265625 6.109375 33.40625 6.109375 
Q 40.53125 6.109375 44.609375 11.75 
Q 48.6875 17.390625 48.6875 27.296875 
z
M 18.109375 46.390625 
Q 20.953125 51.265625 25.265625 53.625 
Q 29.59375 56 35.59375 56 
Q 45.5625 56 51.78125 48.09375 
Q 58.015625 40.1875 58.015625 27.296875 
Q 58.015625 14.40625 51.78125 6.484375 
Q 45.5625 -1.421875 35.59375 -1.421875 
Q 29.59375 -1.421875 25.265625 0.953125 
Q 20.953125 3.328125 18.109375 8.203125 
L 18.109375 0 
L 9.078125 0 
L 9.078125 75.984375 
L 18.109375 75.984375 
z
" id="DejaVuSans-98"/>
       <path d="M 9.421875 54.6875 
L 18.40625 54.6875 
L 18.40625 -0.984375 
Q 18.40625 -11.421875 14.421875 -16.109375 
Q 10.453125 -20.796875 1.609375 -20.796875 
L -1.8125 -20.796875 
L -1.8125 -13.1875 
L 0.59375 -13.1875 
Q 5.71875 -13.1875 7.5625 -10.8125 
Q 9.421875 -8.453125 9.421875 -0.984375 
z
M 9.421875 75.984375 
L 18.40625 75.984375 
L 18.40625 64.59375 
L 9.421875 64.59375 
z
" id="DejaVuSans-106"/>
       <path d="M 30.609375 48.390625 
Q 23.390625 48.390625 19.1875 42.75 
Q 14.984375 37.109375 14.984375 27.296875 
Q 14.984375 17.484375 19.15625 11.84375 
Q 23.34375 6.203125 30.609375 6.203125 
Q 37.796875 6.203125 41.984375 11.859375 
Q 46.1875 17.53125 46.1875 27.296875 
Q 46.1875 37.015625 41.984375 42.703125 
Q 37.796875 48.390625 30.609375 48.390625 
z
M 30.609375 56 
Q 42.328125 56 49.015625 48.375 
Q 55.71875 40.765625 55.71875 27.296875 
Q 55.71875 13.875 49.015625 6.21875 
Q 42.328125 -1.421875 30.609375 -1.421875 
Q 18.84375 -1.421875 12.171875 6.21875 
Q 5.515625 13.875 5.515625 27.296875 
Q 5.515625 40.765625 12.171875 48.375 
Q 18.84375 56 30.609375 56 
z
" id="DejaVuSans-111"/>
       <path d="M 41.109375 46.296875 
Q 39.59375 47.171875 37.8125 47.578125 
Q 36.03125 48 33.890625 48 
Q 26.265625 48 22.1875 43.046875 
Q 18.109375 38.09375 18.109375 28.8125 
L 18.109375 0 
L 9.078125 0 
L 9.078125 54.6875 
L 18.109375 54.6875 
L 18.109375 46.1875 
Q 20.953125 51.171875 25.484375 53.578125 
Q 30.03125 56 36.53125 56 
Q 37.453125 56 38.578125 55.875 
Q 39.703125 55.765625 41.0625 55.515625 
z
" id="DejaVuSans-114"/>
       <path d="M 54.890625 33.015625 
L 54.890625 0 
L 45.90625 0 
L 45.90625 32.71875 
Q 45.90625 40.484375 42.875 44.328125 
Q 39.84375 48.1875 33.796875 48.1875 
Q 26.515625 48.1875 22.3125 43.546875 
Q 18.109375 38.921875 18.109375 30.90625 
L 18.109375 0 
L 9.078125 0 
L 9.078125 54.6875 
L 18.109375 54.6875 
L 18.109375 46.1875 
Q 21.34375 51.125 25.703125 53.5625 
Q 30.078125 56 35.796875 56 
Q 45.21875 56 50.046875 50.171875 
Q 54.890625 44.34375 54.890625 33.015625 
z
" id="DejaVuSans-110"/>
      </defs>
      <use xlink:href="#DejaVuSans-79"/>
      <use x="78.710938" xlink:href="#DejaVuSans-98"/>
      <use x="142.1875" xlink:href="#DejaVuSans-106"/>
      <use x="169.970703" xlink:href="#DejaVuSans-45"/>
      <use x="206.054688" xlink:href="#DejaVuSans-112"/>
      <use x="269.53125" xlink:href="#DejaVuSans-111"/>
      <use x="330.712891" xlink:href="#DejaVuSans-115"/>
      <use x="382.8125" xlink:href="#DejaVuSans-101"/>
      <use x="444.335938" xlink:href="#DejaVuSans-45"/>
      <use x="480.419922" xlink:href="#DejaVuSans-101"/>
      <use x="541.943359" xlink:href="#DejaVuSans-114"/>
      <use x="581.306641" xlink:href="#DejaVuSans-114"/>
      <use x="620.169922" xlink:href="#DejaVuSans-111"/>
      <use x="681.351562" xlink:href="#DejaVuSans-114"/>
      <use x="716.089844" xlink:href="#DejaVuSans-45"/>
      <use x="752.173828" xlink:href="#DejaVuSans-110"/>
      <use x="815.552734" xlink:href="#DejaVuSans-111"/>
      <use x="876.734375" xlink:href="#DejaVuSans-114"/>
      <use x="916.097656" xlink:href="#DejaVuSans-109"/>
     </g>
    </g>
   </g>
   <g id="line2d_12">
    <path clip-path="url(#pbee06e5739)" d="M 73.832727 295.32836 
L 73.865193 295.484618 
L 74.02752 285.316714 
L 74.287244 269.806797 
L 74.579433 294.166801 
L 74.644364 292.902451 
L 74.676829 287.720035 
L 74.74176 294.134802 
L 74.839156 295.079818 
L 74.871622 295.000193 
L 75.001484 293.582403 
L 76.624756 270.453499 
L 78.31296 251.520883 
L 79.124596 244.507674 
L 81.137455 231.63725 
L 82.078953 228.090262 
L 83.897018 223.309314 
L 84.74112 222.315924 
L 85.033309 222.373347 
L 85.520291 222.365497 
L 86.396858 222.693175 
L 87.046167 223.006148 
L 89.156422 224.255583 
L 89.805731 224.998229 
L 90.260247 225.055205 
L 91.16928 225.221416 
L 91.396538 225.250642 
L 91.88352 225.166507 
L 92.402967 225.018636 
L 93.506793 224.722448 
L 93.798982 224.74805 
L 94.318429 224.496474 
L 94.837876 223.950971 
L 95.974167 222.525422 
L 97.207855 220.861999 
L 97.727302 220.041728 
L 97.95456 219.823203 
L 98.019491 219.93568 
L 98.149353 219.960009 
L 99.350575 218.894255 
L 99.512902 218.894775 
L 100.714124 218.098504 
L 101.330967 218.36432 
L 102.304931 218.889753 
L 103.408756 218.390518 
L 103.798342 218.522205 
L 104.187927 218.647126 
L 104.415185 218.578068 
L 104.804771 218.566896 
L 105.129425 218.719927 
L 105.486545 218.938827 
L 105.746269 219.052046 
L 106.070924 219.160191 
L 106.687767 219.225354 
L 106.915025 219.306112 
L 107.402007 219.501219 
L 107.888989 219.686094 
L 108.018851 219.773902 
L 108.213644 219.854793 
L 108.408436 219.729945 
L 108.66816 219.492719 
L 108.895418 219.443084 
L 110.388829 218.779354 
L 111.395258 217.846092 
L 112.23936 216.402581 
L 112.888669 215.234039 
L 113.31072 215.70095 
L 113.797702 216.272885 
L 113.992495 216.177197 
L 114.252218 215.609511 
L 114.998924 214.171053 
L 115.258647 214.081352 
L 115.940422 214.343054 
L 116.362473 214.127886 
L 116.816989 213.380216 
L 117.174109 212.499133 
L 117.628625 211.41203 
L 117.985745 210.85344 
L 118.3104 210.822465 
L 118.699985 210.722094 
L 119.154502 210.057782 
L 119.609018 209.459928 
L 119.868742 209.24438 
L 120.225862 208.968302 
L 120.615447 208.754481 
L 121.8816 207.968292 
L 123.31008 205.946322 
L 123.375011 206.023197 
L 123.732131 206.540987 
L 124.121716 206.314265 
L 124.511302 205.983137 
L 125.485265 205.821985 
L 126.491695 206.113153 
L 126.686487 206.330386 
L 127.076073 206.441735 
L 127.692916 206.193377 
L 128.244829 206.216709 
L 128.959069 205.901028 
L 129.38112 206.017751 
L 130.09536 205.902017 
L 130.225222 205.966292 
L 130.45248 206.027886 
L 130.939462 206.381868 
L 131.101789 206.533821 
L 131.913425 206.396285 
L 132.270545 206.337584 
L 133.082182 205.85466 
L 133.439302 205.697544 
L 134.413265 206.685192 
L 134.867782 206.576112 
L 135.030109 206.598921 
L 135.354764 206.446868 
L 135.484625 206.391567 
L 136.133935 205.988038 
L 136.426124 206.019809 
L 136.913105 206.415551 
L 137.367622 206.830022 
L 137.757207 206.985341 
L 138.016931 206.980523 
L 138.244189 206.716435 
L 138.861033 206.049246 
L 141.003753 206.765972 
L 141.653062 207.255126 
L 141.847855 207.134569 
L 142.204975 206.827214 
L 142.919215 206.904808 
L 143.536058 207.458899 
L 143.925644 207.520428 
L 144.217833 207.677921 
L 145.548916 208.104404 
L 145.970967 209.127491 
L 146.360553 209.836224 
L 147.983825 210.485928 
L 149.249978 211.743806 
L 149.477236 211.981044 
L 150.09408 212.756837 
L 151.262836 213.210207 
L 152.042007 213.944757 
L 152.171869 213.969482 
L 152.464058 214.007493 
L 152.756247 214.212798 
L 153.015971 214.61766 
L 154.0224 216.358077 
L 154.184727 216.440601 
L 154.574313 216.840951 
L 154.73664 216.830985 
L 155.321018 216.9448 
L 155.840465 217.310986 
L 156.100189 217.525283 
L 156.684567 218.169481 
L 156.976756 218.531661 
L 157.918255 219.357061 
L 158.794822 220.743016 
L 159.216873 221.202246 
L 159.3792 221.287096 
L 160.028509 221.814907 
L 161.067404 223.68583 
L 161.327127 224.106293 
L 161.392058 224.069199 
L 161.716713 224.18877 
L 162.171229 224.696501 
L 162.917935 225.725683 
L 163.339985 226.239204 
L 164.086691 227.620252 
L 164.638604 227.893463 
L 165.158051 228.568921 
L 165.482705 229.067227 
L 166.554065 230.134608 
L 166.911185 230.712991 
L 167.268305 231.650136 
L 167.755287 232.961298 
L 167.982545 233.206975 
L 168.599389 233.631514 
L 168.956509 234.444144 
L 169.443491 235.555702 
L 169.800611 236.183405 
L 169.995404 236.462232 
L 170.125265 236.650947 
L 171.52128 238.213904 
L 171.651142 238.295143 
L 172.59264 239.264094 
L 172.917295 239.690007 
L 172.982225 239.728094 
L 173.241949 240.252665 
L 175.871651 243.020593 
L 175.904116 242.983438 
L 176.001513 242.964972 
L 176.033978 243.058265 
L 176.131375 243.019344 
L 176.228771 243.073678 
L 176.423564 243.44087 
L 176.553425 243.29325 
L 176.585891 243.348913 
L 176.715753 243.368467 
L 176.780684 243.579762 
L 176.845615 243.541326 
L 177.559855 243.815325 
L 179.085731 245.293774 
L 179.410385 245.247305 
L 179.540247 245.254897 
L 179.73504 245.21305 
L 179.962298 245.122919 
L 180.157091 245.036578 
L 180.351884 245.044606 
L 180.8064 245.040012 
L 181.033658 245.011785 
L 182.072553 245.208634 
L 182.462138 245.262889 
L 182.884189 245.466738 
L 183.241309 245.692464 
L 183.66336 245.890093 
L 184.312669 246.728845 
L 184.637324 246.999799 
L 185.059375 247.390954 
L 185.221702 247.480217 
L 186.357993 249.055783 
L 186.780044 249.623721 
L 187.169629 249.950771 
L 187.59168 250.218031 
L 187.916335 250.533557 
L 188.630575 251.147498 
L 189.085091 251.59624 
L 189.669469 252.140854 
L 191.52 253.137837 
L 192.331636 253.630365 
L 193.045876 253.946122 
L 193.597789 254.134904 
L 194.312029 254.541407 
L 194.928873 254.836155 
L 195.675578 255.290471 
L 196.130095 255.90078 
L 196.487215 256.187589 
L 196.844335 256.210924 
L 197.331316 256.179623 
L 198.370211 256.457822 
L 199.441571 256.217338 
L 200.123345 256.198385 
L 200.80512 255.946193 
L 201.194705 255.69134 
L 205.285353 253.94674 
L 205.577542 253.703409 
L 205.967127 253.441715 
L 206.421644 253.035102 
L 206.811229 252.815006 
L 207.265745 252.174436 
L 207.428073 252.073396 
L 207.915055 251.393455 
L 208.596829 250.240903 
L 208.856553 250.059695 
L 209.148742 249.728216 
L 209.862982 248.872043 
L 209.992844 248.720413 
L 210.252567 248.383569 
L 210.44736 248.252666 
L 210.609687 248.266252 
L 210.836945 248.390421 
L 211.258996 248.376016 
L 211.713513 247.933846 
L 211.908305 247.804959 
L 212.103098 247.77476 
L 212.23296 247.706345 
L 212.687476 247.117778 
L 213.30432 246.310247 
L 213.888698 245.558352 
L 214.180887 245.706111 
L 214.408145 245.700415 
L 214.538007 245.728439 
L 215.154851 245.338521 
L 215.382109 245.084771 
L 215.674298 245.023584 
L 216.096349 244.7244 
L 216.226211 244.669148 
L 217.037847 243.952923 
L 217.265105 243.727712 
L 217.427433 243.755878 
L 217.58976 243.819065 
L 217.849484 243.872938 
L 218.401396 243.489011 
L 218.790982 242.604197 
L 219.083171 242.303567 
L 219.180567 242.368264 
L 219.505222 242.7142 
L 219.667549 242.713362 
L 219.797411 242.715349 
L 220.154531 242.226658 
L 220.641513 241.288523 
L 220.80384 241.144162 
L 220.836305 241.16532 
L 221.16096 241.172299 
L 221.323287 241.21507 
L 221.972596 240.886371 
L 222.199855 240.873249 
L 222.492044 240.5884 
L 222.524509 240.622616 
L 222.686836 240.714825 
L 222.719302 240.675219 
L 222.816698 240.654045 
L 222.849164 240.703868 
L 223.336145 240.951957 
L 223.790662 240.337837 
L 224.212713 239.707521 
L 224.439971 239.719325 
L 224.602298 239.737456 
L 224.829556 239.502431 
L 225.251607 239.449681 
L 225.771055 238.743593 
L 225.933382 238.517978 
L 225.965847 238.564234 
L 226.16064 238.714047 
L 226.582691 239.088044 
L 227.134604 239.095296 
L 227.491724 239.482688 
L 228.498153 239.68703 
L 228.952669 240.129189 
L 229.666909 239.860809 
L 229.991564 239.497167 
L 230.186356 239.472116 
L 230.933062 239.525518 
L 231.16032 239.616957 
L 231.679767 239.654932 
L 231.907025 239.5986 
L 232.166749 239.708335 
L 232.783593 239.80594 
L 233.238109 239.613463 
L 233.725091 239.630869 
L 234.601658 240.30573 
L 234.828916 240.27331 
L 235.348364 240.002073 
L 236.062604 240.388541 
L 236.51712 240.272527 
L 236.679447 240.22664 
L 237.458618 239.783111 
L 237.750807 239.979203 
L 238.140393 240.386603 
L 238.367651 240.31382 
L 238.65984 239.982099 
L 238.984495 239.649967 
L 239.146822 239.709395 
L 239.439011 239.981129 
L 239.698735 240.109117 
L 240.250647 239.754235 
L 240.672698 239.833365 
L 241.062284 240.025283 
L 241.354473 239.999883 
L 241.711593 239.854697 
L 241.971316 239.600941 
L 242.198575 239.497576 
L 242.620625 239.520753 
L 243.205004 239.960164 
L 243.497193 239.851431 
L 243.984175 239.442504 
L 244.503622 239.306626 
L 244.893207 239.206393 
L 245.672378 239.658529 
L 245.964567 239.107972 
L 246.321687 238.486777 
L 246.451549 238.639831 
L 246.8736 239.38139 
L 247.198255 239.63999 
L 247.620305 239.470485 
L 248.237149 239.137053 
L 249.276044 239.337476 
L 249.860422 239.191754 
L 250.055215 239.146804 
L 250.834385 239.307732 
L 251.321367 239.098185 
L 251.646022 239.16238 
L 251.905745 239.296387 
L 252.133004 239.150935 
L 252.457658 238.974481 
L 253.171898 238.719502 
L 253.853673 238.911527 
L 254.178327 238.92318 
L 254.632844 238.832761 
L 254.892567 238.733345 
L 255.217222 238.910628 
L 255.476945 238.937472 
L 255.769135 238.785007 
L 256.15872 238.297641 
L 256.450909 238.272286 
L 256.775564 238.523444 
L 257.002822 238.659216 
L 257.197615 238.528426 
L 257.684596 238.009843 
L 258.041716 237.933391 
L 258.691025 238.114335 
L 258.950749 237.991731 
L 259.145542 237.850941 
L 259.600058 237.619019 
L 259.794851 237.716022 
L 260.379229 238.177467 
L 260.638953 238.160769 
L 260.898676 238.024097 
L 261.418124 237.991725 
L 261.710313 238.203333 
L 261.970036 238.10278 
L 262.262225 237.986969 
L 262.684276 238.032591 
L 264.275084 237.935968 
L 265.054255 238.1729 
L 266.5152 237.260109 
L 266.774924 237.109122 
L 267.196975 237.090065 
L 267.521629 237.198919 
L 267.94368 237.180156 
L 268.268335 237.454736 
L 268.722851 237.836165 
L 268.982575 237.916983 
L 269.274764 237.98383 
L 269.794211 238.360227 
L 269.956538 238.428617 
L 271.385018 238.596824 
L 271.612276 238.634059 
L 272.521309 238.861391 
L 272.683636 238.914824 
L 273.397876 239.482378 
L 273.625135 239.748 
L 273.787462 239.789601 
L 274.177047 239.972247 
L 275.021149 240.058303 
L 278.202764 241.968048 
L 278.592349 242.047767 
L 278.917004 242.194432 
L 280.929862 243.069726 
L 281.254516 243.139809 
L 282.325876 243.705922 
L 282.520669 243.597257 
L 284.079011 243.805771 
L 284.760785 243.492478 
L 285.150371 243.506065 
L 285.475025 243.23321 
L 285.734749 243.297215 
L 286.091869 243.433355 
L 286.416524 243.573387 
L 288.883898 242.988561 
L 289.695535 242.710678 
L 290.344844 242.394699 
L 291.026618 242.116438 
L 292.130444 241.600013 
L 295.701644 239.685766 
L 296.610676 239.105427 
L 297.162589 238.792603 
L 297.617105 237.896693 
L 298.039156 236.34073 
L 298.396276 233.856571 
L 298.948189 227.390416 
L 299.402705 223.946633 
L 299.72736 222.820867 
L 299.954618 222.58783 
L 299.987084 222.633431 
L 300.279273 222.791672 
L 300.668858 222.040183 
L 300.961047 221.64787 
L 301.740218 220.718923 
L 301.87008 220.629666 
L 302.162269 219.898864 
L 302.58432 218.68923 
L 302.908975 217.979265 
L 303.266095 217.463632 
L 303.720611 215.960697 
L 304.954298 210.187968 
L 305.278953 209.161454 
L 305.636073 207.802745 
L 306.350313 205.221829 
L 307.129484 198.402496 
L 307.746327 191.257031 
L 308.65536 179.841304 
L 309.596858 165.935934 
L 310.278633 159.249744 
L 310.505891 158.063133 
L 310.733149 156.945967 
L 311.739578 149.552227 
L 311.934371 148.364412 
L 312.259025 146.261574 
L 313.005731 142.406755 
L 314.142022 137.768391 
L 314.7264 134.684732 
L 315.245847 131.460172 
L 315.343244 131.561172 
L 316.512 125.778916 
L 316.966516 123.601719 
L 317.291171 121.902755 
L 317.615825 119.680239 
L 317.94048 118.071519 
L 318.362531 115.122349 
L 318.817047 113.769806 
L 319.401425 111.974373 
L 320.472785 107.741779 
L 321.089629 105.859286 
L 321.349353 105.422228 
L 321.706473 104.414122 
L 322.647971 101.488246 
L 323.459607 99.202921 
L 326.478895 91.585049 
L 326.836015 90.793587 
L 329.855302 83.313133 
L 330.764335 81.019352 
L 331.608436 78.717744 
L 333.231709 73.279065 
L 334.075811 70.462502 
L 334.497862 69.177914 
L 335.114705 67.041214 
L 335.471825 65.505336 
L 335.828945 64.349338 
L 337.58208 60.659046 
L 337.971665 60.156254 
L 338.198924 59.72901 
L 339.432611 56.497128 
L 340.601367 54.675482 
L 340.893556 54.351035 
L 341.185745 54.025185 
L 341.705193 53.955813 
L 341.997382 53.572006 
L 342.257105 53.631562 
L 342.58176 53.936177 
L 342.93888 54.478391 
L 343.65312 56.016826 
L 344.01024 56.665756 
L 345.471185 60.32021 
L 346.412684 65.908477 
L 347.841164 72.315222 
L 347.971025 72.475431 
L 348.035956 72.415246 
L 348.068422 72.392338 
L 348.100887 72.444403 
L 348.393076 73.446317 
L 348.944989 76.38097 
L 350.405935 88.788005 
L 353.230429 114.007751 
L 353.912204 124.884363 
L 358.002851 174.643979 
L 358.814487 181.651034 
L 359.204073 184.04056 
L 359.528727 186.168325 
L 359.593658 186.444049 
L 359.72352 187.216995 
L 360.015709 188.31881 
L 360.502691 190.502346 
L 360.859811 191.218406 
L 360.924742 191.368851 
L 361.281862 192.372951 
L 361.606516 192.725128 
L 361.801309 192.55123 
L 362.028567 192.383084 
L 362.385687 192.442774 
L 362.58048 192.29584 
L 362.612945 192.665012 
L 362.677876 192.479008 
L 364.203753 190.066981 
L 364.36608 189.819631 
L 364.885527 188.71108 
L 365.242647 187.899509 
L 365.534836 186.826018 
L 366.15168 183.929452 
L 366.216611 184.012053 
L 366.249076 183.966091 
L 366.606196 182.25455 
L 366.638662 182.450299 
L 366.833455 182.794601 
L 366.995782 182.8123 
L 367.190575 182.562519 
L 367.547695 181.64037 
L 369.593018 175.074625 
L 369.755345 175.091528 
L 369.950138 175.260975 
L 370.112465 175.160898 
L 370.43712 174.56992 
L 370.859171 173.341792 
L 372.092858 169.414346 
L 373.813527 165.275861 
L 374.917353 161.554431 
L 376.053644 156.782492 
L 376.995142 152.217089 
L 378.845673 142.35689 
L 379.624844 138.566765 
L 380.111825 136.134096 
L 380.955927 130.439723 
L 382.709062 117.556346 
L 385.501091 94.347099 
L 386.053004 91.036008 
L 386.247796 90.481759 
L 386.637382 89.219877 
L 387.286691 87.499052 
L 387.481484 87.115027 
L 388.065862 85.770875 
L 389.494342 82.529743 
L 390.273513 80.653711 
L 390.630633 80.324612 
L 390.922822 79.755375 
L 391.344873 79.150801 
L 391.896785 78.695644 
L 392.253905 78.399354 
L 392.773353 77.910809 
L 393.64992 77.217958 
L 393.877178 77.130799 
L 394.136902 77.014217 
L 394.36416 77.008161 
L 394.558953 77.033395 
L 394.72128 77.117492 
L 395.013469 77.371659 
L 395.273193 77.588762 
L 395.565382 77.765985 
L 396.14976 78.137492 
L 396.636742 78.53207 
L 396.864 78.592612 
L 397.123724 78.665939 
L 397.383447 78.687628 
L 397.93536 78.960827 
L 398.260015 79.208627 
L 398.487273 79.355553 
L 398.487273 79.355553 
" style="fill:none;stroke:#1f77b4;stroke-linecap:square;stroke-width:1.5;"/>
   </g>
   <g id="line2d_13">
    <path clip-path="url(#pbee06e5739)" d="M 73.832727 289.47737 
L 73.930124 287.496945 
L 73.995055 288.496185 
L 74.02752 288.679643 
L 74.059985 288.455966 
L 74.092451 287.382134 
L 74.157382 287.79773 
L 74.482036 288.900971 
L 74.579433 288.826533 
L 74.709295 288.124899 
L 74.904087 285.523919 
L 75.81312 270.114035 
L 75.942982 269.577929 
L 76.007913 269.809495 
L 76.300102 272.814673 
L 76.559825 277.34012 
L 76.624756 276.842119 
L 78.507753 268.862534 
L 83.085382 244.795216 
L 83.31264 244.018745 
L 84.351535 240.669806 
L 84.513862 240.322856 
L 84.870982 239.662354 
L 85.585222 238.798306 
L 86.104669 237.437251 
L 86.429324 236.449066 
L 86.721513 236.073081 
L 87.24096 235.885463 
L 87.792873 234.839396 
L 87.922735 234.850842 
L 88.507113 233.948124 
L 88.799302 233.503417 
L 89.318749 232.898931 
L 89.38368 232.938525 
L 89.416145 232.882778 
L 89.546007 232.688905 
L 89.903127 232.124876 
L 90.552436 231.37664 
L 90.649833 231.295674 
L 90.81216 231.124531 
L 91.461469 230.960812 
L 92.402967 231.282788 
L 92.727622 231.191693 
L 93.052276 231.084538 
L 93.441862 230.987835 
L 93.604189 231.021938 
L 93.734051 230.99195 
L 93.928844 230.895037 
L 94.123636 230.856188 
L 94.350895 230.64925 
L 94.480756 230.579561 
L 94.708015 230.528185 
L 94.805411 230.566971 
L 94.967738 230.642489 
L 95.227462 230.516133 
L 95.389789 230.451182 
L 95.584582 230.293585 
L 95.617047 230.35032 
L 95.779375 230.444569 
L 96.493615 230.267256 
L 96.720873 230.506518 
L 97.110458 230.708527 
L 98.051956 230.532795 
L 98.214284 230.627149 
L 98.376611 230.579453 
L 99.058385 230.716944 
L 99.512902 230.723166 
L 99.545367 230.77146 
L 99.610298 230.70127 
L 100.129745 230.107158 
L 100.357004 229.979218 
L 100.681658 229.87097 
L 101.395898 230.242357 
L 101.915345 230.109829 
L 102.012742 230.216631 
L 102.045207 230.195866 
L 102.337396 230.356969 
L 102.629585 230.491746 
L 102.856844 230.427083 
L 102.95424 230.437916 
L 103.213964 230.172634 
L 104.058065 229.913745 
L 104.220393 229.98742 
L 104.350255 230.026336 
L 104.577513 230.176663 
L 104.609978 230.142368 
L 104.804771 230.127473 
L 105.161891 230.223159 
L 105.551476 230.424303 
L 105.8112 230.454839 
L 105.973527 230.479353 
L 106.298182 230.194399 
L 106.850095 229.168261 
L 107.174749 228.937013 
L 107.402007 228.985139 
L 107.726662 229.239113 
L 107.888989 229.269109 
L 108.018851 229.224143 
L 108.181178 229.291588 
L 108.343505 229.244149 
L 108.538298 229.034272 
L 108.960349 228.258582 
L 109.187607 228.008681 
L 109.285004 227.998583 
L 109.609658 228.458983 
L 110.486225 229.957847 
L 110.648553 229.911191 
L 110.81088 229.692091 
L 111.427724 228.547081 
L 111.784844 228.851955 
L 112.564015 230.26521 
L 112.693876 230.241605 
L 112.921135 229.980121 
L 113.213324 229.174505 
L 113.635375 228.161908 
L 113.765236 228.131198 
L 114.187287 229.032988 
L 114.609338 230.068442 
L 114.771665 230.093835 
L 114.966458 230.013059 
L 115.193716 229.883439 
L 115.323578 229.670141 
L 116.037818 228.090991 
L 116.102749 228.126091 
L 116.297542 228.327376 
L 116.784524 229.374746 
L 117.076713 229.926784 
L 117.368902 229.889351 
L 118.083142 229.076943 
L 118.245469 229.117952 
L 118.505193 229.30046 
L 118.862313 229.686614 
L 119.251898 230.003819 
L 119.576553 229.864038 
L 119.836276 229.075466 
L 120.258327 227.92721 
L 120.485585 227.821306 
L 120.81024 228.0107 
L 121.264756 228.181373 
L 121.52448 228.092247 
L 121.8816 227.564408 
L 122.433513 226.848005 
L 122.660771 226.82525 
L 123.439942 227.047437 
L 123.991855 226.916989 
L 124.284044 226.956975 
L 124.803491 226.773828 
L 125.193076 226.673771 
L 125.80992 225.979791 
L 126.102109 225.773077 
L 126.556625 225.97473 
L 127.205935 226.672763 
L 127.2384 226.643446 
L 127.465658 226.359233 
L 128.342225 224.882813 
L 128.699345 224.774909 
L 129.024 224.716753 
L 129.218793 224.652516 
L 129.835636 224.412249 
L 130.030429 224.271719 
L 130.484945 223.984135 
L 130.8096 223.90428 
L 131.653702 223.346921 
L 132.432873 222.868158 
L 133.244509 222.649335 
L 133.536698 222.488993 
L 134.348335 221.657572 
L 134.575593 221.379543 
L 134.802851 221.341525 
L 135.030109 221.348371 
L 135.646953 221.293048 
L 135.971607 221.170942 
L 136.458589 220.568758 
L 137.270225 219.471529 
L 137.757207 219.425869 
L 138.211724 219.433719 
L 138.731171 219.147365 
L 139.38048 218.69795 
L 140.516771 218.340183 
L 142.984145 217.316487 
L 143.406196 217.092151 
L 143.828247 217.097586 
L 144.250298 217.199741 
L 144.574953 216.974352 
L 145.061935 216.591006 
L 145.80864 216.536817 
L 146.393018 216.670867 
L 147.269585 217.095546 
L 148.113687 216.731669 
L 148.503273 216.505342 
L 149.120116 215.99619 
L 149.412305 216.007053 
L 149.996684 216.092868 
L 150.873251 215.841478 
L 151.230371 215.901586 
L 152.269265 216.096231 
L 152.59392 216.098644 
L 153.113367 216.154703 
L 154.054865 216.385668 
L 155.418415 216.972088 
L 156.424844 216.802699 
L 156.717033 216.875656 
L 157.788393 217.853108 
L 159.996044 218.424045 
L 160.742749 218.339934 
L 161.781644 218.817845 
L 162.366022 218.901466 
L 162.917935 218.947486 
L 163.794502 218.870545 
L 164.249018 218.917637 
L 165.028189 218.936516 
L 165.612567 219.189998 
L 166.781324 219.174468 
L 167.138444 219.4602 
L 167.463098 219.689186 
L 168.177338 219.74577 
L 168.501993 219.985034 
L 169.118836 220.492848 
L 169.443491 220.610844 
L 169.898007 220.851405 
L 170.677178 220.82717 
L 171.651142 220.540178 
L 171.943331 220.623359 
L 172.267985 220.903047 
L 172.884829 221.595273 
L 175.189876 222.237092 
L 175.80672 222.64218 
L 176.845615 222.67795 
L 177.494924 222.93243 
L 177.884509 222.986231 
L 178.30656 223.438427 
L 178.631215 223.718094 
L 179.475316 223.920218 
L 180.286953 224.80832 
L 180.838865 224.898176 
L 181.390778 225.464101 
L 182.040087 226.158505 
L 182.624465 226.523779 
L 184.117876 227.143669 
L 184.312669 227.26885 
L 184.929513 227.87133 
L 185.773615 228.341748 
L 186.228131 228.510588 
L 187.039767 228.814754 
L 187.526749 229.137593 
L 188.500713 229.928905 
L 188.727971 229.904787 
L 189.182487 229.741178 
L 189.507142 229.815092 
L 190.253847 230.106586 
L 191.357673 230.214655 
L 192.039447 230.048465 
L 192.623825 230.685455 
L 193.110807 231.180489 
L 193.402996 231.235516 
L 193.695185 231.053856 
L 194.084771 230.722611 
L 194.279564 230.766045 
L 194.799011 231.117398 
L 195.123665 231.334779 
L 195.350924 231.254583 
L 196.097629 230.81019 
L 196.649542 230.690577 
L 196.941731 230.682699 
L 197.850764 230.936967 
L 198.370211 230.83349 
L 199.246778 230.810448 
L 199.798691 230.992365 
L 200.480465 230.984918 
L 200.934982 231.16555 
L 201.324567 231.366097 
L 202.006342 231.352479 
L 202.623185 231.266756 
L 203.337425 231.690684 
L 203.856873 231.783337 
L 205.220422 232.353997 
L 205.934662 232.804248 
L 206.941091 233.052581 
L 208.174778 233.009311 
L 208.856553 233.219223 
L 209.376 233.026408 
L 211.129135 233.372232 
L 211.908305 233.494964 
L 212.492684 233.576388 
L 212.719942 233.629079 
L 213.044596 233.866336 
L 213.466647 234.164466 
L 214.115956 234.350756 
L 214.505542 234.720325 
L 214.667869 234.725377 
L 215.122385 234.615836 
L 215.349644 234.913863 
L 215.674298 235.587274 
L 216.063884 236.180831 
L 216.388538 236.374974 
L 216.810589 236.445046 
L 217.135244 237.020082 
L 217.492364 237.407194 
L 217.817018 237.475364 
L 218.271535 237.524492 
L 218.628655 237.515473 
L 218.790982 237.611538 
L 219.797411 238.819517 
L 220.251927 238.902469 
L 220.706444 239.131857 
L 221.355753 239.277489 
L 221.972596 239.850561 
L 222.329716 239.700927 
L 222.556975 239.601519 
L 222.881629 239.586066 
L 223.628335 239.88091 
L 224.212713 240.215872 
L 224.764625 239.99828 
L 224.959418 239.974 
L 225.219142 240.026711 
L 225.4464 240.028106 
L 225.933382 240.093244 
L 226.128175 240.160734 
L 226.485295 240.360076 
L 228.725411 240.096789 
L 230.44608 240.527158 
L 231.095389 240.482364 
L 231.484975 240.331608 
L 232.101818 240.347848 
L 233.075782 240.505864 
L 233.238109 240.330481 
L 233.562764 239.958498 
L 233.790022 240.12489 
L 234.601658 241.384281 
L 234.763985 241.30917 
L 235.023709 240.867632 
L 235.315898 240.402814 
L 235.640553 240.393673 
L 235.965207 240.702304 
L 236.322327 240.968493 
L 236.582051 240.939111 
L 237.198895 240.654122 
L 237.815738 240.419433 
L 238.172858 240.418834 
L 238.822167 240.54874 
L 239.211753 240.822521 
L 239.503942 240.977805 
L 240.055855 240.946374 
L 240.315578 240.950724 
L 241.029818 241.264771 
L 241.451869 241.607134 
L 241.808989 241.694175 
L 242.94528 241.893167 
L 243.821847 242.392507 
L 245.80224 242.249141 
L 246.224291 242.349489 
L 246.808669 242.270757 
L 247.035927 242.241613 
L 247.23072 242.352498 
L 247.522909 242.649705 
L 247.94496 243.09466 
L 248.431942 243.113029 
L 248.789062 243.007143 
L 248.983855 243.126476 
L 249.535767 243.845818 
L 249.763025 244.019947 
L 249.957818 244.017282 
L 250.217542 243.773717 
L 250.607127 243.557186 
L 250.899316 243.951937 
L 251.581091 245.036776 
L 251.87328 245.104452 
L 252.327796 245.073115 
L 252.977105 245.122353 
L 253.496553 245.097779 
L 254.178327 244.768575 
L 255.476945 243.697633 
L 255.704204 243.650222 
L 257.23008 244.029789 
L 257.5872 243.841476 
L 259.080611 243.334419 
L 259.632524 243.322596 
L 260.022109 243.31227 
L 260.281833 243.369393 
L 260.638953 243.383774 
L 261.190865 243.315666 
L 262.262225 243.529233 
L 263.268655 243.229252 
L 264.01536 243.405201 
L 264.664669 243.225234 
L 265.476305 242.991338 
L 267.976145 243.690677 
L 268.430662 243.852687 
L 269.144902 244.054359 
L 269.599418 244.380292 
L 269.891607 244.436517 
L 270.44352 244.505474 
L 270.962967 244.687313 
L 271.904465 244.748002 
L 272.261585 244.677835 
L 273.430342 244.426428 
L 274.079651 244.426458 
L 274.956218 243.946139 
L 275.767855 243.857441 
L 276.87168 243.800344 
L 277.2288 243.629136 
L 277.780713 243.269098 
L 279.37152 242.394506 
L 279.533847 242.332316 
L 280.053295 242.121808 
L 280.832465 241.978426 
L 281.189585 241.848737 
L 281.546705 241.806749 
L 282.5856 241.396541 
L 283.105047 241.253126 
L 283.819287 241.109986 
L 284.793251 240.757198 
L 285.117905 240.422479 
L 285.539956 240.019373 
L 285.929542 239.843122 
L 286.806109 239.340409 
L 287.195695 239.261394 
L 288.786502 239.043777 
L 289.435811 238.871133 
L 291.091549 238.629694 
L 291.708393 238.525312 
L 292.812218 238.642146 
L 294.890007 239.014008 
L 295.44192 239.191447 
L 297.324916 239.640539 
L 299.597498 240.360582 
L 301.025978 240.454994 
L 302.097338 240.488362 
L 303.363491 240.522018 
L 304.110196 240.575226 
L 304.856902 240.471716 
L 305.473745 240.39413 
L 305.960727 240.470961 
L 306.967156 240.470719 
L 307.876189 240.420675 
L 308.687825 240.480615 
L 309.272204 240.368948 
L 310.635753 240.37665 
L 311.836975 240.2591 
L 312.194095 240.191757 
L 313.590109 240.139709 
L 314.044625 240.239741 
L 314.596538 240.225974 
L 320.342924 241.293519 
L 320.894836 241.850387 
L 321.284422 241.921057 
L 321.674007 241.905697 
L 321.998662 242.020055 
L 324.36864 243.741429 
L 325.277673 244.975578 
L 325.602327 246.096565 
L 325.829585 247.130618 
L 326.024378 247.264169 
L 326.056844 247.228206 
L 326.349033 243.808412 
L 326.608756 240.833051 
L 327.063273 237.101431 
L 327.2256 236.805796 
L 327.258065 236.839512 
L 327.712582 237.625209 
L 328.102167 238.169006 
L 328.29696 238.348329 
L 328.816407 238.710782 
L 329.141062 238.996267 
L 329.757905 239.101342 
L 330.115025 239.289596 
L 330.212422 239.188759 
L 330.602007 238.429868 
L 330.829265 238.370168 
L 330.861731 238.381661 
L 330.894196 238.080433 
L 330.959127 238.18347 
L 331.088989 238.189367 
L 331.381178 237.895517 
L 331.51104 237.70567 
L 331.738298 237.80735 
L 332.160349 238.154997 
L 332.485004 238.139201 
L 332.679796 237.463054 
L 332.712262 237.476486 
L 332.907055 237.299048 
L 333.199244 236.391596 
L 333.621295 234.848813 
L 333.751156 234.670594 
L 333.783622 234.717277 
L 333.881018 234.675014 
L 333.913484 234.642469 
L 333.978415 234.711631 
L 334.140742 234.798926 
L 334.238138 234.964906 
L 334.400465 235.25546 
L 334.530327 235.222962 
L 334.72512 235.275536 
L 334.790051 235.238288 
L 334.822516 235.291408 
L 335.179636 235.610941 
L 335.341964 235.615417 
L 335.764015 235.046181 
L 335.79648 235.093142 
L 335.991273 235.237257 
L 336.056204 235.123925 
L 336.543185 234.832698 
L 336.737978 234.652013 
L 337.127564 234.277808 
L 337.322356 233.629161 
L 337.354822 233.640533 
L 337.776873 233.772343 
L 337.874269 233.504505 
L 338.523578 230.096588 
L 338.718371 229.503805 
L 338.978095 228.651683 
L 339.205353 228.692314 
L 339.562473 229.300907 
L 339.692335 229.204468 
L 339.984524 228.957289 
L 340.016989 228.995815 
L 340.114385 229.178747 
L 340.146851 229.085586 
L 340.568902 228.601158 
L 340.861091 228.645482 
L 341.023418 228.957217 
L 341.899985 231.309102 
L 342.062313 231.580174 
L 342.614225 232.713582 
L 342.809018 232.70974 
L 343.003811 232.599289 
L 343.360931 232.448211 
L 343.458327 232.68898 
L 343.912844 234.549988 
L 345.308858 238.086871 
L 345.601047 238.59763 
L 345.893236 239.673137 
L 346.380218 241.8447 
L 346.704873 242.478894 
L 347.386647 244.553478 
L 347.58144 244.917059 
L 347.613905 244.891089 
L 347.808698 244.979384 
L 348.035956 245.810742 
L 348.977455 249.245889 
L 349.172247 249.511475 
L 349.399505 249.776268 
L 349.854022 250.358968 
L 350.308538 251.527197 
L 350.568262 251.924344 
L 351.055244 252.522356 
L 351.996742 254.892872 
L 352.159069 255.110237 
L 352.548655 256.110475 
L 353.29536 258.30422 
L 353.847273 259.035943 
L 355.600407 262.332076 
L 356.834095 264.639192 
L 357.093818 265.081673 
L 357.256145 265.254888 
L 357.743127 266.118488 
L 358.002851 266.265895 
L 358.262575 266.82038 
L 358.619695 267.756016 
L 359.691055 269.324359 
L 360.015709 269.96429 
L 360.567622 271.051488 
L 360.729949 271.093292 
L 360.859811 271.032546 
L 361.281862 270.901672 
L 361.541585 271.171399 
L 361.86624 270.859171 
L 362.22336 270.930844 
L 362.645411 271.449549 
L 362.905135 271.687546 
L 363.229789 271.995545 
L 364.041425 271.011024 
L 364.36608 270.30112 
L 364.755665 269.909228 
L 365.047855 269.896982 
L 365.340044 269.782825 
L 365.697164 269.171881 
L 366.703593 265.625616 
L 366.995782 265.129554 
L 367.060713 265.229474 
L 367.255505 265.3584 
L 367.482764 265.009185 
L 367.710022 264.010842 
L 368.586589 257.755213 
L 368.683985 257.132607 
L 369.333295 253.093121 
L 370.469585 246.946482 
L 370.534516 246.799746 
L 370.761775 246.062839 
L 370.891636 245.782626 
L 371.183825 244.547243 
L 371.346153 243.679545 
L 371.573411 242.799215 
L 371.8656 242.983508 
L 372.190255 243.937952 
L 372.320116 244.276891 
L 372.352582 244.24544 
L 372.709702 243.567989 
L 372.839564 243.695902 
L 372.93696 243.876393 
L 372.969425 243.771925 
L 373.196684 243.347545 
L 373.29408 243.293156 
L 373.748596 242.32547 
L 374.138182 240.452493 
L 374.170647 240.682794 
L 374.268044 240.597796 
L 374.300509 240.659873 
L 374.495302 240.828487 
L 374.982284 241.869326 
L 375.404335 242.699108 
L 375.761455 243.990101 
L 376.215971 244.361766 
L 376.378298 244.323727 
L 376.638022 244.179694 
L 376.832815 244.063404 
L 377.482124 244.546511 
L 377.644451 244.428462 
L 377.839244 244.030081 
L 378.163898 243.229051 
L 378.391156 242.118151 
L 379.105396 240.609887 
L 379.397585 240.736643 
L 379.624844 240.699857 
L 379.787171 240.766363 
L 380.598807 240.361629 
L 380.988393 240.515614 
L 381.020858 240.516959 
L 381.183185 241.771546 
L 381.410444 242.139326 
L 381.637702 242.124835 
L 381.86496 242.044474 
L 382.092218 241.98694 
L 382.5792 241.866994 
L 382.741527 241.849947 
L 383.001251 241.79286 
L 383.325905 241.718704 
L 383.585629 241.550797 
L 383.780422 241.685356 
L 383.910284 241.782732 
L 384.072611 242.030535 
L 384.105076 242.014585 
L 384.234938 241.839908 
L 385.07904 240.50928 
L 385.890676 239.368248 
L 385.923142 239.308607 
L 386.182865 237.535411 
L 386.442589 237.347512 
L 386.637382 238.495295 
L 386.767244 238.480659 
L 386.962036 238.215346 
L 389.429411 234.677393 
L 389.656669 232.957249 
L 389.916393 232.317103 
L 390.07872 232.388476 
L 390.468305 232.140407 
L 390.663098 231.972334 
L 391.572131 230.738836 
L 391.637062 230.735861 
L 391.669527 230.691025 
L 392.124044 229.971827 
L 392.156509 229.994064 
L 392.188975 229.936446 
L 392.416233 229.46744 
L 393.033076 228.570179 
L 393.065542 228.620577 
L 393.130473 228.564065 
L 393.942109 227.666776 
L 393.974575 227.697397 
L 394.00704 227.646083 
L 394.201833 227.5448 
L 394.429091 227.288953 
L 394.623884 227.126183 
L 395.695244 225.971131 
L 396.182225 225.034997 
L 396.344553 224.758216 
L 396.377018 224.790029 
L 396.50688 224.80774 
L 396.766604 224.41524 
L 396.928931 224.231206 
L 398.162618 222.778213 
L 398.487273 222.269908 
L 398.487273 222.269908 
" style="fill:none;stroke:#ff7f0e;stroke-linecap:square;stroke-width:1.5;"/>
   </g>
   <g id="line2d_14">
    <path clip-path="url(#pbee06e5739)" d="M 73.832727 295.32836 
L 73.865193 295.488 
L 74.02752 285.360139 
L 74.319709 272.284697 
L 74.546967 293.778552 
L 74.579433 292.575499 
L 74.676829 283.257966 
L 74.74176 284.993577 
L 74.904087 289.011836 
L 75.09888 290.306743 
L 75.163811 290.098474 
L 75.391069 288.056533 
L 76.332567 276.973286 
L 77.468858 264.141753 
L 78.702545 253.166454 
L 79.838836 244.714707 
L 80.715404 239.779347 
L 81.559505 236.249634 
L 82.273745 234.14325 
L 82.890589 232.936338 
L 83.604829 231.999262 
L 84.286604 231.432736 
L 85.09824 231.111042 
L 85.487825 231.209648 
L 86.072204 231.616871 
L 86.981236 232.543764 
L 87.9552 233.868843 
L 88.117527 234.228482 
L 88.31232 234.616976 
L 88.864233 235.267568 
L 89.610938 236.533816 
L 94.253498 244.820604 
L 95.909236 247.291065 
L 98.084422 250.090797 
L 101.590691 254.661544 
L 104.512582 258.837684 
L 107.142284 263.026201 
L 111.654982 270.231644 
L 113.602909 272.963845 
L 114.836596 274.395697 
L 116.427404 275.951997 
L 117.59616 276.789731 
L 118.602589 277.253471 
L 119.511622 277.431028 
L 120.290793 277.365704 
L 121.102429 277.071632 
L 122.011462 276.500361 
L 123.017891 275.626554 
L 123.050356 275.782246 
L 123.342545 276.411989 
L 123.569804 276.833815 
L 124.056785 277.687427 
L 124.543767 278.279787 
L 124.73856 278.096541 
L 125.193076 278.319877 
L 125.939782 278.597708 
L 126.848815 278.699171 
L 127.822778 278.56389 
L 128.926604 278.168486 
L 130.484945 277.595445 
L 131.199185 277.312086 
L 133.049716 276.188119 
L 135.289833 274.616888 
L 141.263476 270.018672 
L 143.146473 268.900022 
L 148.438342 266.289289 
L 150.256407 265.208096 
L 155.061295 262.664416 
L 157.690996 261.685707 
L 160.060975 261.105415 
L 160.418095 261.063671 
L 161.327127 260.919652 
L 161.749178 260.865553 
L 162.495884 260.742213 
L 162.853004 260.691672 
L 163.762036 260.550592 
L 164.184087 260.497017 
L 164.930793 260.384602 
L 165.547636 260.303603 
L 174.118516 258.855147 
L 179.637644 257.848742 
L 192.721222 255.724948 
L 198.792262 254.772454 
L 207.882589 253.600599 
L 211.583651 253.128826 
L 211.713513 253.364304 
L 211.908305 253.35082 
L 212.135564 253.164992 
L 212.168029 253.291167 
L 212.200495 253.136799 
L 212.23296 253.261209 
L 212.330356 253.080037 
L 212.362822 253.205025 
L 212.395287 253.053014 
L 212.427753 253.177343 
L 212.525149 253.00164 
L 212.557615 253.122609 
L 212.59008 252.976586 
L 212.622545 253.097533 
L 212.719942 252.932818 
L 212.752407 253.052326 
L 212.784873 252.91344 
L 212.817338 253.032501 
L 212.914735 252.879599 
L 213.012131 252.984162 
L 213.109527 252.840167 
L 213.206924 252.953351 
L 213.30432 252.813102 
L 213.401716 252.936638 
L 213.499113 252.793857 
L 213.596509 252.930805 
L 213.693905 252.779567 
L 213.791302 252.929112 
L 213.888698 252.769023 
L 213.986095 252.92747 
L 214.083491 252.753352 
L 214.180887 252.918255 
L 214.278284 252.731109 
L 214.310749 252.90169 
L 214.37568 252.885345 
L 214.473076 252.699118 
L 214.505542 252.84947 
L 214.538007 252.681653 
L 214.570473 252.830586 
L 214.667869 252.637327 
L 214.700335 252.797597 
L 214.7328 252.619771 
L 214.765265 252.784115 
L 214.862662 252.595753 
L 214.960058 252.743857 
L 215.057455 252.564679 
L 215.154851 252.713667 
L 215.252247 252.542056 
L 215.349644 252.694629 
L 215.382109 252.546568 
L 215.44704 252.61595 
L 215.576902 252.662459 
L 215.869091 252.630557 
L 216.031418 252.593808 
L 216.193745 252.619407 
L 216.356073 252.587995 
L 216.5184 252.610678 
L 216.745658 252.592525 
L 217.037847 252.599992 
L 217.654691 252.597822 
L 220.316858 252.5319 
L 221.583011 252.308197 
L 222.784233 251.862127 
L 224.310109 250.964957 
L 230.186356 247.189655 
L 233.692625 245.462542 
L 236.549585 244.415026 
L 239.049425 244.446862 
L 240.640233 244.8086 
L 242.360902 245.460191 
L 244.438691 246.497672 
L 246.613876 247.813108 
L 247.23072 248.067846 
L 248.561804 248.4194 
L 251.288902 249.380664 
L 255.412015 250.642202 
L 258.398836 251.305282 
L 261.677847 251.781256 
L 265.313978 252.094027 
L 269.534487 252.232539 
L 272.813498 252.176533 
L 273.073222 252.019641 
L 273.527738 251.941896 
L 274.696495 251.845192 
L 275.767855 251.702655 
L 283.072582 250.777803 
L 284.436131 250.602688 
L 289.890327 249.871353 
L 296.026298 249.406639 
L 302.292131 249.153426 
L 310.246167 249.04875 
L 318.557324 248.848246 
L 325.699724 248.44418 
L 331.933091 247.896785 
L 337.452218 247.164763 
L 345.763375 245.799449 
L 350.827985 245.076045 
L 354.042065 244.794917 
L 354.204393 244.877714 
L 354.36672 244.869583 
L 355.016029 244.542862 
L 356.054924 244.56376 
L 358.749556 244.631236 
L 359.333935 244.705754 
L 360.242967 244.580496 
L 361.541585 244.505536 
L 365.08032 244.624779 
L 371.898065 245.009971 
L 377.644451 245.36469 
L 381.313047 245.367425 
L 384.689455 245.186721 
L 395.403055 244.479314 
L 398.487273 244.489359 
L 398.487273 244.489359 
" style="fill:none;stroke:#bf00bf;stroke-linecap:square;stroke-width:1.5;"/>
   </g>
   <g id="patch_3">
    <path d="M 57.6 307.584 
L 57.6 41.472 
" style="fill:none;stroke:#000000;stroke-linecap:square;stroke-linejoin:miter;stroke-width:0.8;"/>
   </g>
   <g id="patch_4">
    <path d="M 414.72 307.584 
L 414.72 41.472 
" style="fill:none;stroke:#000000;stroke-linecap:square;stroke-linejoin:miter;stroke-width:0.8;"/>
   </g>
   <g id="patch_5">
    <path d="M 57.6 307.584 
L 414.72 307.584 
" style="fill:none;stroke:#000000;stroke-linecap:square;stroke-linejoin:miter;stroke-width:0.8;"/>
   </g>
   <g id="patch_6">
    <path d="M 57.6 41.472 
L 414.72 41.472 
" style="fill:none;stroke:#000000;stroke-linecap:square;stroke-linejoin:miter;stroke-width:0.8;"/>
   </g>
   <g id="text_14">
    <!-- Plot of Object pose error norm over a single episode  -->
    <g transform="translate(77.670938 8.59725)scale(0.12 -0.12)">
     <defs>
      <path d="M 19.671875 64.796875 
L 19.671875 37.40625 
L 32.078125 37.40625 
Q 38.96875 37.40625 42.71875 40.96875 
Q 46.484375 44.53125 46.484375 51.125 
Q 46.484375 57.671875 42.71875 61.234375 
Q 38.96875 64.796875 32.078125 64.796875 
z
M 9.8125 72.90625 
L 32.078125 72.90625 
Q 44.34375 72.90625 50.609375 67.359375 
Q 56.890625 61.8125 56.890625 51.125 
Q 56.890625 40.328125 50.609375 34.8125 
Q 44.34375 29.296875 32.078125 29.296875 
L 19.671875 29.296875 
L 19.671875 0 
L 9.8125 0 
z
" id="DejaVuSans-80"/>
      <path d="M 9.421875 75.984375 
L 18.40625 75.984375 
L 18.40625 0 
L 9.421875 0 
z
" id="DejaVuSans-108"/>
      <path id="DejaVuSans-32"/>
      <path d="M 37.109375 75.984375 
L 37.109375 68.5 
L 28.515625 68.5 
Q 23.6875 68.5 21.796875 66.546875 
Q 19.921875 64.59375 19.921875 59.515625 
L 19.921875 54.6875 
L 34.71875 54.6875 
L 34.71875 47.703125 
L 19.921875 47.703125 
L 19.921875 0 
L 10.890625 0 
L 10.890625 47.703125 
L 2.296875 47.703125 
L 2.296875 54.6875 
L 10.890625 54.6875 
L 10.890625 58.5 
Q 10.890625 67.625 15.140625 71.796875 
Q 19.390625 75.984375 28.609375 75.984375 
z
" id="DejaVuSans-102"/>
      <path d="M 48.78125 52.59375 
L 48.78125 44.1875 
Q 44.96875 46.296875 41.140625 47.34375 
Q 37.3125 48.390625 33.40625 48.390625 
Q 24.65625 48.390625 19.8125 42.84375 
Q 14.984375 37.3125 14.984375 27.296875 
Q 14.984375 17.28125 19.8125 11.734375 
Q 24.65625 6.203125 33.40625 6.203125 
Q 37.3125 6.203125 41.140625 7.25 
Q 44.96875 8.296875 48.78125 10.40625 
L 48.78125 2.09375 
Q 45.015625 0.34375 40.984375 -0.53125 
Q 36.96875 -1.421875 32.421875 -1.421875 
Q 20.0625 -1.421875 12.78125 6.34375 
Q 5.515625 14.109375 5.515625 27.296875 
Q 5.515625 40.671875 12.859375 48.328125 
Q 20.21875 56 33.015625 56 
Q 37.15625 56 41.109375 55.140625 
Q 45.0625 54.296875 48.78125 52.59375 
z
" id="DejaVuSans-99"/>
      <path d="M 2.984375 54.6875 
L 12.5 54.6875 
L 29.59375 8.796875 
L 46.6875 54.6875 
L 56.203125 54.6875 
L 35.6875 0 
L 23.484375 0 
z
" id="DejaVuSans-118"/>
      <path d="M 34.28125 27.484375 
Q 23.390625 27.484375 19.1875 25 
Q 14.984375 22.515625 14.984375 16.5 
Q 14.984375 11.71875 18.140625 8.90625 
Q 21.296875 6.109375 26.703125 6.109375 
Q 34.1875 6.109375 38.703125 11.40625 
Q 43.21875 16.703125 43.21875 25.484375 
L 43.21875 27.484375 
z
M 52.203125 31.203125 
L 52.203125 0 
L 43.21875 0 
L 43.21875 8.296875 
Q 40.140625 3.328125 35.546875 0.953125 
Q 30.953125 -1.421875 24.3125 -1.421875 
Q 15.921875 -1.421875 10.953125 3.296875 
Q 6 8.015625 6 15.921875 
Q 6 25.140625 12.171875 29.828125 
Q 18.359375 34.515625 30.609375 34.515625 
L 43.21875 34.515625 
L 43.21875 35.40625 
Q 43.21875 41.609375 39.140625 45 
Q 35.0625 48.390625 27.6875 48.390625 
Q 23 48.390625 18.546875 47.265625 
Q 14.109375 46.140625 10.015625 43.890625 
L 10.015625 52.203125 
Q 14.9375 54.109375 19.578125 55.046875 
Q 24.21875 56 28.609375 56 
Q 40.484375 56 46.34375 49.84375 
Q 52.203125 43.703125 52.203125 31.203125 
z
" id="DejaVuSans-97"/>
      <path d="M 45.40625 27.984375 
Q 45.40625 37.75 41.375 43.109375 
Q 37.359375 48.484375 30.078125 48.484375 
Q 22.859375 48.484375 18.828125 43.109375 
Q 14.796875 37.75 14.796875 27.984375 
Q 14.796875 18.265625 18.828125 12.890625 
Q 22.859375 7.515625 30.078125 7.515625 
Q 37.359375 7.515625 41.375 12.890625 
Q 45.40625 18.265625 45.40625 27.984375 
z
M 54.390625 6.78125 
Q 54.390625 -7.171875 48.1875 -13.984375 
Q 42 -20.796875 29.203125 -20.796875 
Q 24.46875 -20.796875 20.265625 -20.09375 
Q 16.0625 -19.390625 12.109375 -17.921875 
L 12.109375 -9.1875 
Q 16.0625 -11.328125 19.921875 -12.34375 
Q 23.78125 -13.375 27.78125 -13.375 
Q 36.625 -13.375 41.015625 -8.765625 
Q 45.40625 -4.15625 45.40625 5.171875 
L 45.40625 9.625 
Q 42.625 4.78125 38.28125 2.390625 
Q 33.9375 0 27.875 0 
Q 17.828125 0 11.671875 7.65625 
Q 5.515625 15.328125 5.515625 27.984375 
Q 5.515625 40.671875 11.671875 48.328125 
Q 17.828125 56 27.875 56 
Q 33.9375 56 38.28125 53.609375 
Q 42.625 51.21875 45.40625 46.390625 
L 45.40625 54.6875 
L 54.390625 54.6875 
z
" id="DejaVuSans-103"/>
      <path d="M 45.40625 46.390625 
L 45.40625 75.984375 
L 54.390625 75.984375 
L 54.390625 0 
L 45.40625 0 
L 45.40625 8.203125 
Q 42.578125 3.328125 38.25 0.953125 
Q 33.9375 -1.421875 27.875 -1.421875 
Q 17.96875 -1.421875 11.734375 6.484375 
Q 5.515625 14.40625 5.515625 27.296875 
Q 5.515625 40.1875 11.734375 48.09375 
Q 17.96875 56 27.875 56 
Q 33.9375 56 38.25 53.625 
Q 42.578125 51.265625 45.40625 46.390625 
z
M 14.796875 27.296875 
Q 14.796875 17.390625 18.875 11.75 
Q 22.953125 6.109375 30.078125 6.109375 
Q 37.203125 6.109375 41.296875 11.75 
Q 45.40625 17.390625 45.40625 27.296875 
Q 45.40625 37.203125 41.296875 42.84375 
Q 37.203125 48.484375 30.078125 48.484375 
Q 22.953125 48.484375 18.875 42.84375 
Q 14.796875 37.203125 14.796875 27.296875 
z
" id="DejaVuSans-100"/>
     </defs>
     <use xlink:href="#DejaVuSans-80"/>
     <use x="60.302734" xlink:href="#DejaVuSans-108"/>
     <use x="88.085938" xlink:href="#DejaVuSans-111"/>
     <use x="149.267578" xlink:href="#DejaVuSans-116"/>
     <use x="188.476562" xlink:href="#DejaVuSans-32"/>
     <use x="220.263672" xlink:href="#DejaVuSans-111"/>
     <use x="281.445312" xlink:href="#DejaVuSans-102"/>
     <use x="316.650391" xlink:href="#DejaVuSans-32"/>
     <use x="348.4375" xlink:href="#DejaVuSans-79"/>
     <use x="427.148438" xlink:href="#DejaVuSans-98"/>
     <use x="490.625" xlink:href="#DejaVuSans-106"/>
     <use x="518.408203" xlink:href="#DejaVuSans-101"/>
     <use x="579.931641" xlink:href="#DejaVuSans-99"/>
     <use x="634.912109" xlink:href="#DejaVuSans-116"/>
     <use x="674.121094" xlink:href="#DejaVuSans-32"/>
     <use x="705.908203" xlink:href="#DejaVuSans-112"/>
     <use x="769.384766" xlink:href="#DejaVuSans-111"/>
     <use x="830.566406" xlink:href="#DejaVuSans-115"/>
     <use x="882.666016" xlink:href="#DejaVuSans-101"/>
     <use x="944.189453" xlink:href="#DejaVuSans-32"/>
     <use x="975.976562" xlink:href="#DejaVuSans-101"/>
     <use x="1037.5" xlink:href="#DejaVuSans-114"/>
     <use x="1076.863281" xlink:href="#DejaVuSans-114"/>
     <use x="1115.726562" xlink:href="#DejaVuSans-111"/>
     <use x="1176.908203" xlink:href="#DejaVuSans-114"/>
     <use x="1218.021484" xlink:href="#DejaVuSans-32"/>
     <use x="1249.808594" xlink:href="#DejaVuSans-110"/>
     <use x="1313.1875" xlink:href="#DejaVuSans-111"/>
     <use x="1374.369141" xlink:href="#DejaVuSans-114"/>
     <use x="1413.732422" xlink:href="#DejaVuSans-109"/>
     <use x="1511.144531" xlink:href="#DejaVuSans-32"/>
     <use x="1542.931641" xlink:href="#DejaVuSans-111"/>
     <use x="1604.113281" xlink:href="#DejaVuSans-118"/>
     <use x="1663.292969" xlink:href="#DejaVuSans-101"/>
     <use x="1724.816406" xlink:href="#DejaVuSans-114"/>
     <use x="1765.929688" xlink:href="#DejaVuSans-32"/>
     <use x="1797.716797" xlink:href="#DejaVuSans-97"/>
     <use x="1858.996094" xlink:href="#DejaVuSans-32"/>
     <use x="1890.783203" xlink:href="#DejaVuSans-115"/>
     <use x="1942.882812" xlink:href="#DejaVuSans-105"/>
     <use x="1970.666016" xlink:href="#DejaVuSans-110"/>
     <use x="2034.044922" xlink:href="#DejaVuSans-103"/>
     <use x="2097.521484" xlink:href="#DejaVuSans-108"/>
     <use x="2125.304688" xlink:href="#DejaVuSans-101"/>
     <use x="2186.828125" xlink:href="#DejaVuSans-32"/>
     <use x="2218.615234" xlink:href="#DejaVuSans-101"/>
     <use x="2280.138672" xlink:href="#DejaVuSans-112"/>
     <use x="2343.615234" xlink:href="#DejaVuSans-105"/>
     <use x="2371.398438" xlink:href="#DejaVuSans-115"/>
     <use x="2423.498047" xlink:href="#DejaVuSans-111"/>
     <use x="2484.679688" xlink:href="#DejaVuSans-100"/>
     <use x="2548.15625" xlink:href="#DejaVuSans-101"/>
     <use x="2609.679688" xlink:href="#DejaVuSans-32"/>
    </g>
    <!--  Avg object pose error norm: Residual RL = 0.378, Standard = 0.240,  -->
    <g transform="translate(26.875313 22.034625)scale(0.12 -0.12)">
     <defs>
      <path d="M 34.1875 63.1875 
L 20.796875 26.90625 
L 47.609375 26.90625 
z
M 28.609375 72.90625 
L 39.796875 72.90625 
L 67.578125 0 
L 57.328125 0 
L 50.6875 18.703125 
L 17.828125 18.703125 
L 11.1875 0 
L 0.78125 0 
z
" id="DejaVuSans-65"/>
      <path d="M 11.71875 12.40625 
L 22.015625 12.40625 
L 22.015625 0 
L 11.71875 0 
z
M 11.71875 51.703125 
L 22.015625 51.703125 
L 22.015625 39.3125 
L 11.71875 39.3125 
z
" id="DejaVuSans-58"/>
      <path d="M 44.390625 34.1875 
Q 47.5625 33.109375 50.5625 29.59375 
Q 53.5625 26.078125 56.59375 19.921875 
L 66.609375 0 
L 56 0 
L 46.6875 18.703125 
Q 43.0625 26.03125 39.671875 28.421875 
Q 36.28125 30.8125 30.421875 30.8125 
L 19.671875 30.8125 
L 19.671875 0 
L 9.8125 0 
L 9.8125 72.90625 
L 32.078125 72.90625 
Q 44.578125 72.90625 50.734375 67.671875 
Q 56.890625 62.453125 56.890625 51.90625 
Q 56.890625 45.015625 53.6875 40.46875 
Q 50.484375 35.9375 44.390625 34.1875 
z
M 19.671875 64.796875 
L 19.671875 38.921875 
L 32.078125 38.921875 
Q 39.203125 38.921875 42.84375 42.21875 
Q 46.484375 45.515625 46.484375 51.90625 
Q 46.484375 58.296875 42.84375 61.546875 
Q 39.203125 64.796875 32.078125 64.796875 
z
" id="DejaVuSans-82"/>
      <path d="M 9.8125 72.90625 
L 19.671875 72.90625 
L 19.671875 8.296875 
L 55.171875 8.296875 
L 55.171875 0 
L 9.8125 0 
z
" id="DejaVuSans-76"/>
      <path d="M 10.59375 45.40625 
L 73.1875 45.40625 
L 73.1875 37.203125 
L 10.59375 37.203125 
z
M 10.59375 25.484375 
L 73.1875 25.484375 
L 73.1875 17.1875 
L 10.59375 17.1875 
z
" id="DejaVuSans-61"/>
      <path d="M 40.578125 39.3125 
Q 47.65625 37.796875 51.625 33 
Q 55.609375 28.21875 55.609375 21.1875 
Q 55.609375 10.40625 48.1875 4.484375 
Q 40.765625 -1.421875 27.09375 -1.421875 
Q 22.515625 -1.421875 17.65625 -0.515625 
Q 12.796875 0.390625 7.625 2.203125 
L 7.625 11.71875 
Q 11.71875 9.328125 16.59375 8.109375 
Q 21.484375 6.890625 26.8125 6.890625 
Q 36.078125 6.890625 40.9375 10.546875 
Q 45.796875 14.203125 45.796875 21.1875 
Q 45.796875 27.640625 41.28125 31.265625 
Q 36.765625 34.90625 28.71875 34.90625 
L 20.21875 34.90625 
L 20.21875 43.015625 
L 29.109375 43.015625 
Q 36.375 43.015625 40.234375 45.921875 
Q 44.09375 48.828125 44.09375 54.296875 
Q 44.09375 59.90625 40.109375 62.90625 
Q 36.140625 65.921875 28.71875 65.921875 
Q 24.65625 65.921875 20.015625 65.03125 
Q 15.375 64.15625 9.8125 62.3125 
L 9.8125 71.09375 
Q 15.4375 72.65625 20.34375 73.4375 
Q 25.25 74.21875 29.59375 74.21875 
Q 40.828125 74.21875 47.359375 69.109375 
Q 53.90625 64.015625 53.90625 55.328125 
Q 53.90625 49.265625 50.4375 45.09375 
Q 46.96875 40.921875 40.578125 39.3125 
z
" id="DejaVuSans-51"/>
      <path d="M 8.203125 72.90625 
L 55.078125 72.90625 
L 55.078125 68.703125 
L 28.609375 0 
L 18.3125 0 
L 43.21875 64.59375 
L 8.203125 64.59375 
z
" id="DejaVuSans-55"/>
      <path d="M 11.71875 12.40625 
L 22.015625 12.40625 
L 22.015625 4 
L 14.015625 -11.625 
L 7.71875 -11.625 
L 11.71875 4 
z
" id="DejaVuSans-44"/>
      <path d="M 53.515625 70.515625 
L 53.515625 60.890625 
Q 47.90625 63.578125 42.921875 64.890625 
Q 37.9375 66.21875 33.296875 66.21875 
Q 25.25 66.21875 20.875 63.09375 
Q 16.5 59.96875 16.5 54.203125 
Q 16.5 49.359375 19.40625 46.890625 
Q 22.3125 44.4375 30.421875 42.921875 
L 36.375 41.703125 
Q 47.40625 39.59375 52.65625 34.296875 
Q 57.90625 29 57.90625 20.125 
Q 57.90625 9.515625 50.796875 4.046875 
Q 43.703125 -1.421875 29.984375 -1.421875 
Q 24.8125 -1.421875 18.96875 -0.25 
Q 13.140625 0.921875 6.890625 3.21875 
L 6.890625 13.375 
Q 12.890625 10.015625 18.65625 8.296875 
Q 24.421875 6.59375 29.984375 6.59375 
Q 38.421875 6.59375 43.015625 9.90625 
Q 47.609375 13.234375 47.609375 19.390625 
Q 47.609375 24.75 44.3125 27.78125 
Q 41.015625 30.8125 33.5 32.328125 
L 27.484375 33.5 
Q 16.453125 35.6875 11.515625 40.375 
Q 6.59375 45.0625 6.59375 53.421875 
Q 6.59375 63.09375 13.40625 68.65625 
Q 20.21875 74.21875 32.171875 74.21875 
Q 37.3125 74.21875 42.625 73.28125 
Q 47.953125 72.359375 53.515625 70.515625 
z
" id="DejaVuSans-83"/>
     </defs>
     <use xlink:href="#DejaVuSans-32"/>
     <use x="31.787109" xlink:href="#DejaVuSans-65"/>
     <use x="94.320312" xlink:href="#DejaVuSans-118"/>
     <use x="153.5" xlink:href="#DejaVuSans-103"/>
     <use x="216.976562" xlink:href="#DejaVuSans-32"/>
     <use x="248.763672" xlink:href="#DejaVuSans-111"/>
     <use x="309.945312" xlink:href="#DejaVuSans-98"/>
     <use x="373.421875" xlink:href="#DejaVuSans-106"/>
     <use x="401.205078" xlink:href="#DejaVuSans-101"/>
     <use x="462.728516" xlink:href="#DejaVuSans-99"/>
     <use x="517.708984" xlink:href="#DejaVuSans-116"/>
     <use x="556.917969" xlink:href="#DejaVuSans-32"/>
     <use x="588.705078" xlink:href="#DejaVuSans-112"/>
     <use x="652.181641" xlink:href="#DejaVuSans-111"/>
     <use x="713.363281" xlink:href="#DejaVuSans-115"/>
     <use x="765.462891" xlink:href="#DejaVuSans-101"/>
     <use x="826.986328" xlink:href="#DejaVuSans-32"/>
     <use x="858.773438" xlink:href="#DejaVuSans-101"/>
     <use x="920.296875" xlink:href="#DejaVuSans-114"/>
     <use x="959.660156" xlink:href="#DejaVuSans-114"/>
     <use x="998.523438" xlink:href="#DejaVuSans-111"/>
     <use x="1059.705078" xlink:href="#DejaVuSans-114"/>
     <use x="1100.818359" xlink:href="#DejaVuSans-32"/>
     <use x="1132.605469" xlink:href="#DejaVuSans-110"/>
     <use x="1195.984375" xlink:href="#DejaVuSans-111"/>
     <use x="1257.166016" xlink:href="#DejaVuSans-114"/>
     <use x="1296.529297" xlink:href="#DejaVuSans-109"/>
     <use x="1393.941406" xlink:href="#DejaVuSans-58"/>
     <use x="1427.632812" xlink:href="#DejaVuSans-32"/>
     <use x="1459.419922" xlink:href="#DejaVuSans-82"/>
     <use x="1524.402344" xlink:href="#DejaVuSans-101"/>
     <use x="1585.925781" xlink:href="#DejaVuSans-115"/>
     <use x="1638.025391" xlink:href="#DejaVuSans-105"/>
     <use x="1665.808594" xlink:href="#DejaVuSans-100"/>
     <use x="1729.285156" xlink:href="#DejaVuSans-117"/>
     <use x="1792.664062" xlink:href="#DejaVuSans-97"/>
     <use x="1853.943359" xlink:href="#DejaVuSans-108"/>
     <use x="1881.726562" xlink:href="#DejaVuSans-32"/>
     <use x="1913.513672" xlink:href="#DejaVuSans-82"/>
     <use x="1982.996094" xlink:href="#DejaVuSans-76"/>
     <use x="2038.708984" xlink:href="#DejaVuSans-32"/>
     <use x="2070.496094" xlink:href="#DejaVuSans-61"/>
     <use x="2154.285156" xlink:href="#DejaVuSans-32"/>
     <use x="2186.072266" xlink:href="#DejaVuSans-48"/>
     <use x="2249.695312" xlink:href="#DejaVuSans-46"/>
     <use x="2281.482422" xlink:href="#DejaVuSans-51"/>
     <use x="2345.105469" xlink:href="#DejaVuSans-55"/>
     <use x="2408.728516" xlink:href="#DejaVuSans-56"/>
     <use x="2472.351562" xlink:href="#DejaVuSans-44"/>
     <use x="2504.138672" xlink:href="#DejaVuSans-32"/>
     <use x="2535.925781" xlink:href="#DejaVuSans-83"/>
     <use x="2599.402344" xlink:href="#DejaVuSans-116"/>
     <use x="2638.611328" xlink:href="#DejaVuSans-97"/>
     <use x="2699.890625" xlink:href="#DejaVuSans-110"/>
     <use x="2763.269531" xlink:href="#DejaVuSans-100"/>
     <use x="2826.746094" xlink:href="#DejaVuSans-97"/>
     <use x="2888.025391" xlink:href="#DejaVuSans-114"/>
     <use x="2927.388672" xlink:href="#DejaVuSans-100"/>
     <use x="2990.865234" xlink:href="#DejaVuSans-32"/>
     <use x="3022.652344" xlink:href="#DejaVuSans-61"/>
     <use x="3106.441406" xlink:href="#DejaVuSans-32"/>
     <use x="3138.228516" xlink:href="#DejaVuSans-48"/>
     <use x="3201.851562" xlink:href="#DejaVuSans-46"/>
     <use x="3233.638672" xlink:href="#DejaVuSans-50"/>
     <use x="3297.261719" xlink:href="#DejaVuSans-52"/>
     <use x="3360.884766" xlink:href="#DejaVuSans-48"/>
     <use x="3424.507812" xlink:href="#DejaVuSans-44"/>
     <use x="3456.294922" xlink:href="#DejaVuSans-32"/>
    </g>
    <!--  Baseline = 0.178 -->
    <g transform="translate(182.795625 35.472)scale(0.12 -0.12)">
     <defs>
      <path d="M 19.671875 34.8125 
L 19.671875 8.109375 
L 35.5 8.109375 
Q 43.453125 8.109375 47.28125 11.40625 
Q 51.125 14.703125 51.125 21.484375 
Q 51.125 28.328125 47.28125 31.5625 
Q 43.453125 34.8125 35.5 34.8125 
z
M 19.671875 64.796875 
L 19.671875 42.828125 
L 34.28125 42.828125 
Q 41.5 42.828125 45.03125 45.53125 
Q 48.578125 48.25 48.578125 53.8125 
Q 48.578125 59.328125 45.03125 62.0625 
Q 41.5 64.796875 34.28125 64.796875 
z
M 9.8125 72.90625 
L 35.015625 72.90625 
Q 46.296875 72.90625 52.390625 68.21875 
Q 58.5 63.53125 58.5 54.890625 
Q 58.5 48.1875 55.375 44.234375 
Q 52.25 40.28125 46.1875 39.3125 
Q 53.46875 37.75 57.5 32.78125 
Q 61.53125 27.828125 61.53125 20.40625 
Q 61.53125 10.640625 54.890625 5.3125 
Q 48.25 0 35.984375 0 
L 9.8125 0 
z
" id="DejaVuSans-66"/>
     </defs>
     <use xlink:href="#DejaVuSans-32"/>
     <use x="31.787109" xlink:href="#DejaVuSans-66"/>
     <use x="100.390625" xlink:href="#DejaVuSans-97"/>
     <use x="161.669922" xlink:href="#DejaVuSans-115"/>
     <use x="213.769531" xlink:href="#DejaVuSans-101"/>
     <use x="275.292969" xlink:href="#DejaVuSans-108"/>
     <use x="303.076172" xlink:href="#DejaVuSans-105"/>
     <use x="330.859375" xlink:href="#DejaVuSans-110"/>
     <use x="394.238281" xlink:href="#DejaVuSans-101"/>
     <use x="455.761719" xlink:href="#DejaVuSans-32"/>
     <use x="487.548828" xlink:href="#DejaVuSans-61"/>
     <use x="571.337891" xlink:href="#DejaVuSans-32"/>
     <use x="603.125" xlink:href="#DejaVuSans-48"/>
     <use x="666.748047" xlink:href="#DejaVuSans-46"/>
     <use x="698.535156" xlink:href="#DejaVuSans-49"/>
     <use x="762.158203" xlink:href="#DejaVuSans-55"/>
     <use x="825.78125" xlink:href="#DejaVuSans-56"/>
    </g>
   </g>
   <g id="legend_1">
    <g id="patch_7">
     <path d="M 64.6 93.506375 
L 154.529687 93.506375 
Q 156.529687 93.506375 156.529687 91.506375 
L 156.529687 48.472 
Q 156.529687 46.472 154.529687 46.472 
L 64.6 46.472 
Q 62.6 46.472 62.6 48.472 
L 62.6 91.506375 
Q 62.6 93.506375 64.6 93.506375 
z
" style="fill:#ffffff;opacity:0.8;stroke:#cccccc;stroke-linejoin:miter;"/>
    </g>
    <g id="line2d_15">
     <path d="M 66.6 54.570438 
L 86.6 54.570438 
" style="fill:none;stroke:#1f77b4;stroke-linecap:square;stroke-width:1.5;"/>
    </g>
    <g id="line2d_16"/>
    <g id="text_15">
     <!-- Residual RL -->
     <g transform="translate(94.6 58.070438)scale(0.1 -0.1)">
      <use xlink:href="#DejaVuSans-82"/>
      <use x="64.982422" xlink:href="#DejaVuSans-101"/>
      <use x="126.505859" xlink:href="#DejaVuSans-115"/>
      <use x="178.605469" xlink:href="#DejaVuSans-105"/>
      <use x="206.388672" xlink:href="#DejaVuSans-100"/>
      <use x="269.865234" xlink:href="#DejaVuSans-117"/>
      <use x="333.244141" xlink:href="#DejaVuSans-97"/>
      <use x="394.523438" xlink:href="#DejaVuSans-108"/>
      <use x="422.306641" xlink:href="#DejaVuSans-32"/>
      <use x="454.09375" xlink:href="#DejaVuSans-82"/>
      <use x="523.576172" xlink:href="#DejaVuSans-76"/>
     </g>
    </g>
    <g id="line2d_17">
     <path d="M 66.6 69.248563 
L 86.6 69.248563 
" style="fill:none;stroke:#ff7f0e;stroke-linecap:square;stroke-width:1.5;"/>
    </g>
    <g id="line2d_18"/>
    <g id="text_16">
     <!-- Standard -->
     <g transform="translate(94.6 72.748563)scale(0.1 -0.1)">
      <use xlink:href="#DejaVuSans-83"/>
      <use x="63.476562" xlink:href="#DejaVuSans-116"/>
      <use x="102.685547" xlink:href="#DejaVuSans-97"/>
      <use x="163.964844" xlink:href="#DejaVuSans-110"/>
      <use x="227.34375" xlink:href="#DejaVuSans-100"/>
      <use x="290.820312" xlink:href="#DejaVuSans-97"/>
      <use x="352.099609" xlink:href="#DejaVuSans-114"/>
      <use x="391.462891" xlink:href="#DejaVuSans-100"/>
     </g>
    </g>
    <g id="line2d_19">
     <path d="M 66.6 83.926688 
L 86.6 83.926688 
" style="fill:none;stroke:#bf00bf;stroke-linecap:square;stroke-width:1.5;"/>
    </g>
    <g id="line2d_20"/>
    <g id="text_17">
     <!-- Baseline -->
     <g transform="translate(94.6 87.426688)scale(0.1 -0.1)">
      <use xlink:href="#DejaVuSans-66"/>
      <use x="68.603516" xlink:href="#DejaVuSans-97"/>
      <use x="129.882812" xlink:href="#DejaVuSans-115"/>
      <use x="181.982422" xlink:href="#DejaVuSans-101"/>
      <use x="243.505859" xlink:href="#DejaVuSans-108"/>
      <use x="271.289062" xlink:href="#DejaVuSans-105"/>
      <use x="299.072266" xlink:href="#DejaVuSans-110"/>
      <use x="362.451172" xlink:href="#DejaVuSans-101"/>
     </g>
    </g>
   </g>
  </g>
 </g>
 <defs>
  <clipPath id="pbee06e5739">
   <rect height="266.112" width="357.12" x="57.6" y="41.472"/>
  </clipPath>
 </defs>
</svg>
