<?xml version="1.0" encoding="utf-8" standalone="no"?>
<!DOCTYPE svg PUBLIC "-//W3C//DTD SVG 1.1//EN"
  "http://www.w3.org/Graphics/SVG/1.1/DTD/svg11.dtd">
<!-- Created with matplotlib (https://matplotlib.org/) -->
<svg height="345.6pt" version="1.1" viewBox="0 0 460.8 345.6" width="460.8pt" xmlns="http://www.w3.org/2000/svg" xmlns:xlink="http://www.w3.org/1999/xlink">
 <metadata>
  <rdf:RDF xmlns:cc="http://creativecommons.org/ns#" xmlns:dc="http://purl.org/dc/elements/1.1/" xmlns:rdf="http://www.w3.org/1999/02/22-rdf-syntax-ns#">
   <cc:Work>
    <dc:type rdf:resource="http://purl.org/dc/dcmitype/StillImage"/>
    <dc:date>2022-07-21T18:31:15.088677</dc:date>
    <dc:format>image/svg+xml</dc:format>
    <dc:creator>
     <cc:Agent>
      <dc:title>Matplotlib v3.3.4, https://matplotlib.org/</dc:title>
     </cc:Agent>
    </dc:creator>
   </cc:Work>
  </rdf:RDF>
 </metadata>
 <defs>
  <style type="text/css">*{stroke-linecap:butt;stroke-linejoin:round;}</style>
 </defs>
 <g id="figure_1">
  <g id="patch_1">
   <path d="M 0 345.6 
L 460.8 345.6 
L 460.8 0 
L 0 0 
z
" style="fill:#ffffff;"/>
  </g>
  <g id="axes_1">
   <g id="patch_2">
    <path d="M 57.6 307.584 
L 414.72 307.584 
L 414.72 41.472 
L 57.6 41.472 
z
" style="fill:#ffffff;"/>
   </g>
   <g id="matplotlib.axis_1">
    <g id="xtick_1">
     <g id="line2d_1">
      <defs>
       <path d="M 0 0 
L 0 3.5 
" id="me3ac99d87e" style="stroke:#000000;stroke-width:0.8;"/>
      </defs>
      <g>
       <use style="stroke:#000000;stroke-width:0.8;" x="73.832727" xlink:href="#me3ac99d87e" y="307.584"/>
      </g>
     </g>
     <g id="text_1">
      <!-- 0 -->
      <g transform="translate(70.651477 322.182437)scale(0.1 -0.1)">
       <defs>
        <path d="M 31.78125 66.40625 
Q 24.171875 66.40625 20.328125 58.90625 
Q 16.5 51.421875 16.5 36.375 
Q 16.5 21.390625 20.328125 13.890625 
Q 24.171875 6.390625 31.78125 6.390625 
Q 39.453125 6.390625 43.28125 13.890625 
Q 47.125 21.390625 47.125 36.375 
Q 47.125 51.421875 43.28125 58.90625 
Q 39.453125 66.40625 31.78125 66.40625 
z
M 31.78125 74.21875 
Q 44.046875 74.21875 50.515625 64.515625 
Q 56.984375 54.828125 56.984375 36.375 
Q 56.984375 17.96875 50.515625 8.265625 
Q 44.046875 -1.421875 31.78125 -1.421875 
Q 19.53125 -1.421875 13.0625 8.265625 
Q 6.59375 17.96875 6.59375 36.375 
Q 6.59375 54.828125 13.0625 64.515625 
Q 19.53125 74.21875 31.78125 74.21875 
z
" id="DejaVuSans-48"/>
       </defs>
       <use xlink:href="#DejaVuSans-48"/>
      </g>
     </g>
    </g>
    <g id="xtick_2">
     <g id="line2d_2">
      <g>
       <use style="stroke:#000000;stroke-width:0.8;" x="138.763636" xlink:href="#me3ac99d87e" y="307.584"/>
      </g>
     </g>
     <g id="text_2">
      <!-- 2000 -->
      <g transform="translate(126.038636 322.182437)scale(0.1 -0.1)">
       <defs>
        <path d="M 19.1875 8.296875 
L 53.609375 8.296875 
L 53.609375 0 
L 7.328125 0 
L 7.328125 8.296875 
Q 12.9375 14.109375 22.625 23.890625 
Q 32.328125 33.6875 34.8125 36.53125 
Q 39.546875 41.84375 41.421875 45.53125 
Q 43.3125 49.21875 43.3125 52.78125 
Q 43.3125 58.59375 39.234375 62.25 
Q 35.15625 65.921875 28.609375 65.921875 
Q 23.96875 65.921875 18.8125 64.3125 
Q 13.671875 62.703125 7.8125 59.421875 
L 7.8125 69.390625 
Q 13.765625 71.78125 18.9375 73 
Q 24.125 74.21875 28.421875 74.21875 
Q 39.75 74.21875 46.484375 68.546875 
Q 53.21875 62.890625 53.21875 53.421875 
Q 53.21875 48.921875 51.53125 44.890625 
Q 49.859375 40.875 45.40625 35.40625 
Q 44.1875 33.984375 37.640625 27.21875 
Q 31.109375 20.453125 19.1875 8.296875 
z
" id="DejaVuSans-50"/>
       </defs>
       <use xlink:href="#DejaVuSans-50"/>
       <use x="63.623047" xlink:href="#DejaVuSans-48"/>
       <use x="127.246094" xlink:href="#DejaVuSans-48"/>
       <use x="190.869141" xlink:href="#DejaVuSans-48"/>
      </g>
     </g>
    </g>
    <g id="xtick_3">
     <g id="line2d_3">
      <g>
       <use style="stroke:#000000;stroke-width:0.8;" x="203.694545" xlink:href="#me3ac99d87e" y="307.584"/>
      </g>
     </g>
     <g id="text_3">
      <!-- 4000 -->
      <g transform="translate(190.969545 322.182437)scale(0.1 -0.1)">
       <defs>
        <path d="M 37.796875 64.3125 
L 12.890625 25.390625 
L 37.796875 25.390625 
z
M 35.203125 72.90625 
L 47.609375 72.90625 
L 47.609375 25.390625 
L 58.015625 25.390625 
L 58.015625 17.1875 
L 47.609375 17.1875 
L 47.609375 0 
L 37.796875 0 
L 37.796875 17.1875 
L 4.890625 17.1875 
L 4.890625 26.703125 
z
" id="DejaVuSans-52"/>
       </defs>
       <use xlink:href="#DejaVuSans-52"/>
       <use x="63.623047" xlink:href="#DejaVuSans-48"/>
       <use x="127.246094" xlink:href="#DejaVuSans-48"/>
       <use x="190.869141" xlink:href="#DejaVuSans-48"/>
      </g>
     </g>
    </g>
    <g id="xtick_4">
     <g id="line2d_4">
      <g>
       <use style="stroke:#000000;stroke-width:0.8;" x="268.625455" xlink:href="#me3ac99d87e" y="307.584"/>
      </g>
     </g>
     <g id="text_4">
      <!-- 6000 -->
      <g transform="translate(255.900455 322.182437)scale(0.1 -0.1)">
       <defs>
        <path d="M 33.015625 40.375 
Q 26.375 40.375 22.484375 35.828125 
Q 18.609375 31.296875 18.609375 23.390625 
Q 18.609375 15.53125 22.484375 10.953125 
Q 26.375 6.390625 33.015625 6.390625 
Q 39.65625 6.390625 43.53125 10.953125 
Q 47.40625 15.53125 47.40625 23.390625 
Q 47.40625 31.296875 43.53125 35.828125 
Q 39.65625 40.375 33.015625 40.375 
z
M 52.59375 71.296875 
L 52.59375 62.3125 
Q 48.875 64.0625 45.09375 64.984375 
Q 41.3125 65.921875 37.59375 65.921875 
Q 27.828125 65.921875 22.671875 59.328125 
Q 17.53125 52.734375 16.796875 39.40625 
Q 19.671875 43.65625 24.015625 45.921875 
Q 28.375 48.1875 33.59375 48.1875 
Q 44.578125 48.1875 50.953125 41.515625 
Q 57.328125 34.859375 57.328125 23.390625 
Q 57.328125 12.15625 50.6875 5.359375 
Q 44.046875 -1.421875 33.015625 -1.421875 
Q 20.359375 -1.421875 13.671875 8.265625 
Q 6.984375 17.96875 6.984375 36.375 
Q 6.984375 53.65625 15.1875 63.9375 
Q 23.390625 74.21875 37.203125 74.21875 
Q 40.921875 74.21875 44.703125 73.484375 
Q 48.484375 72.75 52.59375 71.296875 
z
" id="DejaVuSans-54"/>
       </defs>
       <use xlink:href="#DejaVuSans-54"/>
       <use x="63.623047" xlink:href="#DejaVuSans-48"/>
       <use x="127.246094" xlink:href="#DejaVuSans-48"/>
       <use x="190.869141" xlink:href="#DejaVuSans-48"/>
      </g>
     </g>
    </g>
    <g id="xtick_5">
     <g id="line2d_5">
      <g>
       <use style="stroke:#000000;stroke-width:0.8;" x="333.556364" xlink:href="#me3ac99d87e" y="307.584"/>
      </g>
     </g>
     <g id="text_5">
      <!-- 8000 -->
      <g transform="translate(320.831364 322.182437)scale(0.1 -0.1)">
       <defs>
        <path d="M 31.78125 34.625 
Q 24.75 34.625 20.71875 30.859375 
Q 16.703125 27.09375 16.703125 20.515625 
Q 16.703125 13.921875 20.71875 10.15625 
Q 24.75 6.390625 31.78125 6.390625 
Q 38.8125 6.390625 42.859375 10.171875 
Q 46.921875 13.96875 46.921875 20.515625 
Q 46.921875 27.09375 42.890625 30.859375 
Q 38.875 34.625 31.78125 34.625 
z
M 21.921875 38.8125 
Q 15.578125 40.375 12.03125 44.71875 
Q 8.5 49.078125 8.5 55.328125 
Q 8.5 64.0625 14.71875 69.140625 
Q 20.953125 74.21875 31.78125 74.21875 
Q 42.671875 74.21875 48.875 69.140625 
Q 55.078125 64.0625 55.078125 55.328125 
Q 55.078125 49.078125 51.53125 44.71875 
Q 48 40.375 41.703125 38.8125 
Q 48.828125 37.15625 52.796875 32.3125 
Q 56.78125 27.484375 56.78125 20.515625 
Q 56.78125 9.90625 50.3125 4.234375 
Q 43.84375 -1.421875 31.78125 -1.421875 
Q 19.734375 -1.421875 13.25 4.234375 
Q 6.78125 9.90625 6.78125 20.515625 
Q 6.78125 27.484375 10.78125 32.3125 
Q 14.796875 37.15625 21.921875 38.8125 
z
M 18.3125 54.390625 
Q 18.3125 48.734375 21.84375 45.5625 
Q 25.390625 42.390625 31.78125 42.390625 
Q 38.140625 42.390625 41.71875 45.5625 
Q 45.3125 48.734375 45.3125 54.390625 
Q 45.3125 60.0625 41.71875 63.234375 
Q 38.140625 66.40625 31.78125 66.40625 
Q 25.390625 66.40625 21.84375 63.234375 
Q 18.3125 60.0625 18.3125 54.390625 
z
" id="DejaVuSans-56"/>
       </defs>
       <use xlink:href="#DejaVuSans-56"/>
       <use x="63.623047" xlink:href="#DejaVuSans-48"/>
       <use x="127.246094" xlink:href="#DejaVuSans-48"/>
       <use x="190.869141" xlink:href="#DejaVuSans-48"/>
      </g>
     </g>
    </g>
    <g id="xtick_6">
     <g id="line2d_6">
      <g>
       <use style="stroke:#000000;stroke-width:0.8;" x="398.487273" xlink:href="#me3ac99d87e" y="307.584"/>
      </g>
     </g>
     <g id="text_6">
      <!-- 10000 -->
      <g transform="translate(382.581023 322.182437)scale(0.1 -0.1)">
       <defs>
        <path d="M 12.40625 8.296875 
L 28.515625 8.296875 
L 28.515625 63.921875 
L 10.984375 60.40625 
L 10.984375 69.390625 
L 28.421875 72.90625 
L 38.28125 72.90625 
L 38.28125 8.296875 
L 54.390625 8.296875 
L 54.390625 0 
L 12.40625 0 
z
" id="DejaVuSans-49"/>
       </defs>
       <use xlink:href="#DejaVuSans-49"/>
       <use x="63.623047" xlink:href="#DejaVuSans-48"/>
       <use x="127.246094" xlink:href="#DejaVuSans-48"/>
       <use x="190.869141" xlink:href="#DejaVuSans-48"/>
       <use x="254.492188" xlink:href="#DejaVuSans-48"/>
      </g>
     </g>
    </g>
    <g id="text_7">
     <!-- Num-time-steps -->
     <g transform="translate(196.056094 335.860562)scale(0.1 -0.1)">
      <defs>
       <path d="M 9.8125 72.90625 
L 23.09375 72.90625 
L 55.421875 11.921875 
L 55.421875 72.90625 
L 64.984375 72.90625 
L 64.984375 0 
L 51.703125 0 
L 19.390625 60.984375 
L 19.390625 0 
L 9.8125 0 
z
" id="DejaVuSans-78"/>
       <path d="M 8.5 21.578125 
L 8.5 54.6875 
L 17.484375 54.6875 
L 17.484375 21.921875 
Q 17.484375 14.15625 20.5 10.265625 
Q 23.53125 6.390625 29.59375 6.390625 
Q 36.859375 6.390625 41.078125 11.03125 
Q 45.3125 15.671875 45.3125 23.6875 
L 45.3125 54.6875 
L 54.296875 54.6875 
L 54.296875 0 
L 45.3125 0 
L 45.3125 8.40625 
Q 42.046875 3.421875 37.71875 1 
Q 33.40625 -1.421875 27.6875 -1.421875 
Q 18.265625 -1.421875 13.375 4.4375 
Q 8.5 10.296875 8.5 21.578125 
z
M 31.109375 56 
z
" id="DejaVuSans-117"/>
       <path d="M 52 44.1875 
Q 55.375 50.25 60.0625 53.125 
Q 64.75 56 71.09375 56 
Q 79.640625 56 84.28125 50.015625 
Q 88.921875 44.046875 88.921875 33.015625 
L 88.921875 0 
L 79.890625 0 
L 79.890625 32.71875 
Q 79.890625 40.578125 77.09375 44.375 
Q 74.3125 48.1875 68.609375 48.1875 
Q 61.625 48.1875 57.5625 43.546875 
Q 53.515625 38.921875 53.515625 30.90625 
L 53.515625 0 
L 44.484375 0 
L 44.484375 32.71875 
Q 44.484375 40.625 41.703125 44.40625 
Q 38.921875 48.1875 33.109375 48.1875 
Q 26.21875 48.1875 22.15625 43.53125 
Q 18.109375 38.875 18.109375 30.90625 
L 18.109375 0 
L 9.078125 0 
L 9.078125 54.6875 
L 18.109375 54.6875 
L 18.109375 46.1875 
Q 21.1875 51.21875 25.484375 53.609375 
Q 29.78125 56 35.6875 56 
Q 41.65625 56 45.828125 52.96875 
Q 50 49.953125 52 44.1875 
z
" id="DejaVuSans-109"/>
       <path d="M 4.890625 31.390625 
L 31.203125 31.390625 
L 31.203125 23.390625 
L 4.890625 23.390625 
z
" id="DejaVuSans-45"/>
       <path d="M 18.3125 70.21875 
L 18.3125 54.6875 
L 36.8125 54.6875 
L 36.8125 47.703125 
L 18.3125 47.703125 
L 18.3125 18.015625 
Q 18.3125 11.328125 20.140625 9.421875 
Q 21.96875 7.515625 27.59375 7.515625 
L 36.8125 7.515625 
L 36.8125 0 
L 27.59375 0 
Q 17.1875 0 13.234375 3.875 
Q 9.28125 7.765625 9.28125 18.015625 
L 9.28125 47.703125 
L 2.6875 47.703125 
L 2.6875 54.6875 
L 9.28125 54.6875 
L 9.28125 70.21875 
z
" id="DejaVuSans-116"/>
       <path d="M 9.421875 54.6875 
L 18.40625 54.6875 
L 18.40625 0 
L 9.421875 0 
z
M 9.421875 75.984375 
L 18.40625 75.984375 
L 18.40625 64.59375 
L 9.421875 64.59375 
z
" id="DejaVuSans-105"/>
       <path d="M 56.203125 29.59375 
L 56.203125 25.203125 
L 14.890625 25.203125 
Q 15.484375 15.921875 20.484375 11.0625 
Q 25.484375 6.203125 34.421875 6.203125 
Q 39.59375 6.203125 44.453125 7.46875 
Q 49.3125 8.734375 54.109375 11.28125 
L 54.109375 2.78125 
Q 49.265625 0.734375 44.1875 -0.34375 
Q 39.109375 -1.421875 33.890625 -1.421875 
Q 20.796875 -1.421875 13.15625 6.1875 
Q 5.515625 13.8125 5.515625 26.8125 
Q 5.515625 40.234375 12.765625 48.109375 
Q 20.015625 56 32.328125 56 
Q 43.359375 56 49.78125 48.890625 
Q 56.203125 41.796875 56.203125 29.59375 
z
M 47.21875 32.234375 
Q 47.125 39.59375 43.09375 43.984375 
Q 39.0625 48.390625 32.421875 48.390625 
Q 24.90625 48.390625 20.390625 44.140625 
Q 15.875 39.890625 15.1875 32.171875 
z
" id="DejaVuSans-101"/>
       <path d="M 44.28125 53.078125 
L 44.28125 44.578125 
Q 40.484375 46.53125 36.375 47.5 
Q 32.28125 48.484375 27.875 48.484375 
Q 21.1875 48.484375 17.84375 46.4375 
Q 14.5 44.390625 14.5 40.28125 
Q 14.5 37.15625 16.890625 35.375 
Q 19.28125 33.59375 26.515625 31.984375 
L 29.59375 31.296875 
Q 39.15625 29.25 43.1875 25.515625 
Q 47.21875 21.78125 47.21875 15.09375 
Q 47.21875 7.46875 41.1875 3.015625 
Q 35.15625 -1.421875 24.609375 -1.421875 
Q 20.21875 -1.421875 15.453125 -0.5625 
Q 10.6875 0.296875 5.421875 2 
L 5.421875 11.28125 
Q 10.40625 8.6875 15.234375 7.390625 
Q 20.0625 6.109375 24.8125 6.109375 
Q 31.15625 6.109375 34.5625 8.28125 
Q 37.984375 10.453125 37.984375 14.40625 
Q 37.984375 18.0625 35.515625 20.015625 
Q 33.0625 21.96875 24.703125 23.78125 
L 21.578125 24.515625 
Q 13.234375 26.265625 9.515625 29.90625 
Q 5.8125 33.546875 5.8125 39.890625 
Q 5.8125 47.609375 11.28125 51.796875 
Q 16.75 56 26.8125 56 
Q 31.78125 56 36.171875 55.265625 
Q 40.578125 54.546875 44.28125 53.078125 
z
" id="DejaVuSans-115"/>
       <path d="M 18.109375 8.203125 
L 18.109375 -20.796875 
L 9.078125 -20.796875 
L 9.078125 54.6875 
L 18.109375 54.6875 
L 18.109375 46.390625 
Q 20.953125 51.265625 25.265625 53.625 
Q 29.59375 56 35.59375 56 
Q 45.5625 56 51.78125 48.09375 
Q 58.015625 40.1875 58.015625 27.296875 
Q 58.015625 14.40625 51.78125 6.484375 
Q 45.5625 -1.421875 35.59375 -1.421875 
Q 29.59375 -1.421875 25.265625 0.953125 
Q 20.953125 3.328125 18.109375 8.203125 
z
M 48.6875 27.296875 
Q 48.6875 37.203125 44.609375 42.84375 
Q 40.53125 48.484375 33.40625 48.484375 
Q 26.265625 48.484375 22.1875 42.84375 
Q 18.109375 37.203125 18.109375 27.296875 
Q 18.109375 17.390625 22.1875 11.75 
Q 26.265625 6.109375 33.40625 6.109375 
Q 40.53125 6.109375 44.609375 11.75 
Q 48.6875 17.390625 48.6875 27.296875 
z
" id="DejaVuSans-112"/>
      </defs>
      <use xlink:href="#DejaVuSans-78"/>
      <use x="74.804688" xlink:href="#DejaVuSans-117"/>
      <use x="138.183594" xlink:href="#DejaVuSans-109"/>
      <use x="235.595703" xlink:href="#DejaVuSans-45"/>
      <use x="271.679688" xlink:href="#DejaVuSans-116"/>
      <use x="310.888672" xlink:href="#DejaVuSans-105"/>
      <use x="338.671875" xlink:href="#DejaVuSans-109"/>
      <use x="436.083984" xlink:href="#DejaVuSans-101"/>
      <use x="497.607422" xlink:href="#DejaVuSans-45"/>
      <use x="533.691406" xlink:href="#DejaVuSans-115"/>
      <use x="585.791016" xlink:href="#DejaVuSans-116"/>
      <use x="625" xlink:href="#DejaVuSans-101"/>
      <use x="686.523438" xlink:href="#DejaVuSans-112"/>
      <use x="750" xlink:href="#DejaVuSans-115"/>
     </g>
    </g>
   </g>
   <g id="matplotlib.axis_2">
    <g id="ytick_1">
     <g id="line2d_7">
      <defs>
       <path d="M 0 0 
L -3.5 0 
" id="meff20ab8d0" style="stroke:#000000;stroke-width:0.8;"/>
      </defs>
      <g>
       <use style="stroke:#000000;stroke-width:0.8;" x="57.6" xlink:href="#meff20ab8d0" y="305.042169"/>
      </g>
     </g>
     <g id="text_8">
      <!-- 0.0 -->
      <g transform="translate(34.696875 308.841388)scale(0.1 -0.1)">
       <defs>
        <path d="M 10.6875 12.40625 
L 21 12.40625 
L 21 0 
L 10.6875 0 
z
" id="DejaVuSans-46"/>
       </defs>
       <use xlink:href="#DejaVuSans-48"/>
       <use x="63.623047" xlink:href="#DejaVuSans-46"/>
       <use x="95.410156" xlink:href="#DejaVuSans-48"/>
      </g>
     </g>
    </g>
    <g id="ytick_2">
     <g id="line2d_8">
      <g>
       <use style="stroke:#000000;stroke-width:0.8;" x="57.6" xlink:href="#meff20ab8d0" y="257.330974"/>
      </g>
     </g>
     <g id="text_9">
      <!-- 0.1 -->
      <g transform="translate(34.696875 261.130193)scale(0.1 -0.1)">
       <use xlink:href="#DejaVuSans-48"/>
       <use x="63.623047" xlink:href="#DejaVuSans-46"/>
       <use x="95.410156" xlink:href="#DejaVuSans-49"/>
      </g>
     </g>
    </g>
    <g id="ytick_3">
     <g id="line2d_9">
      <g>
       <use style="stroke:#000000;stroke-width:0.8;" x="57.6" xlink:href="#meff20ab8d0" y="209.61978"/>
      </g>
     </g>
     <g id="text_10">
      <!-- 0.2 -->
      <g transform="translate(34.696875 213.418998)scale(0.1 -0.1)">
       <use xlink:href="#DejaVuSans-48"/>
       <use x="63.623047" xlink:href="#DejaVuSans-46"/>
       <use x="95.410156" xlink:href="#DejaVuSans-50"/>
      </g>
     </g>
    </g>
    <g id="ytick_4">
     <g id="line2d_10">
      <g>
       <use style="stroke:#000000;stroke-width:0.8;" x="57.6" xlink:href="#meff20ab8d0" y="161.908585"/>
      </g>
     </g>
     <g id="text_11">
      <!-- 0.3 -->
      <g transform="translate(34.696875 165.707804)scale(0.1 -0.1)">
       <defs>
        <path d="M 40.578125 39.3125 
Q 47.65625 37.796875 51.625 33 
Q 55.609375 28.21875 55.609375 21.1875 
Q 55.609375 10.40625 48.1875 4.484375 
Q 40.765625 -1.421875 27.09375 -1.421875 
Q 22.515625 -1.421875 17.65625 -0.515625 
Q 12.796875 0.390625 7.625 2.203125 
L 7.625 11.71875 
Q 11.71875 9.328125 16.59375 8.109375 
Q 21.484375 6.890625 26.8125 6.890625 
Q 36.078125 6.890625 40.9375 10.546875 
Q 45.796875 14.203125 45.796875 21.1875 
Q 45.796875 27.640625 41.28125 31.265625 
Q 36.765625 34.90625 28.71875 34.90625 
L 20.21875 34.90625 
L 20.21875 43.015625 
L 29.109375 43.015625 
Q 36.375 43.015625 40.234375 45.921875 
Q 44.09375 48.828125 44.09375 54.296875 
Q 44.09375 59.90625 40.109375 62.90625 
Q 36.140625 65.921875 28.71875 65.921875 
Q 24.65625 65.921875 20.015625 65.03125 
Q 15.375 64.15625 9.8125 62.3125 
L 9.8125 71.09375 
Q 15.4375 72.65625 20.34375 73.4375 
Q 25.25 74.21875 29.59375 74.21875 
Q 40.828125 74.21875 47.359375 69.109375 
Q 53.90625 64.015625 53.90625 55.328125 
Q 53.90625 49.265625 50.4375 45.09375 
Q 46.96875 40.921875 40.578125 39.3125 
z
" id="DejaVuSans-51"/>
       </defs>
       <use xlink:href="#DejaVuSans-48"/>
       <use x="63.623047" xlink:href="#DejaVuSans-46"/>
       <use x="95.410156" xlink:href="#DejaVuSans-51"/>
      </g>
     </g>
    </g>
    <g id="ytick_5">
     <g id="line2d_11">
      <g>
       <use style="stroke:#000000;stroke-width:0.8;" x="57.6" xlink:href="#meff20ab8d0" y="114.19739"/>
      </g>
     </g>
     <g id="text_12">
      <!-- 0.4 -->
      <g transform="translate(34.696875 117.996609)scale(0.1 -0.1)">
       <use xlink:href="#DejaVuSans-48"/>
       <use x="63.623047" xlink:href="#DejaVuSans-46"/>
       <use x="95.410156" xlink:href="#DejaVuSans-52"/>
      </g>
     </g>
    </g>
    <g id="ytick_6">
     <g id="line2d_12">
      <g>
       <use style="stroke:#000000;stroke-width:0.8;" x="57.6" xlink:href="#meff20ab8d0" y="66.486196"/>
      </g>
     </g>
     <g id="text_13">
      <!-- 0.5 -->
      <g transform="translate(34.696875 70.285415)scale(0.1 -0.1)">
       <defs>
        <path d="M 10.796875 72.90625 
L 49.515625 72.90625 
L 49.515625 64.59375 
L 19.828125 64.59375 
L 19.828125 46.734375 
Q 21.96875 47.46875 24.109375 47.828125 
Q 26.265625 48.1875 28.421875 48.1875 
Q 40.625 48.1875 47.75 41.5 
Q 54.890625 34.8125 54.890625 23.390625 
Q 54.890625 11.625 47.5625 5.09375 
Q 40.234375 -1.421875 26.90625 -1.421875 
Q 22.3125 -1.421875 17.546875 -0.640625 
Q 12.796875 0.140625 7.71875 1.703125 
L 7.71875 11.625 
Q 12.109375 9.234375 16.796875 8.0625 
Q 21.484375 6.890625 26.703125 6.890625 
Q 35.15625 6.890625 40.078125 11.328125 
Q 45.015625 15.765625 45.015625 23.390625 
Q 45.015625 31 40.078125 35.4375 
Q 35.15625 39.890625 26.703125 39.890625 
Q 22.75 39.890625 18.8125 39.015625 
Q 14.890625 38.140625 10.796875 36.28125 
z
" id="DejaVuSans-53"/>
       </defs>
       <use xlink:href="#DejaVuSans-48"/>
       <use x="63.623047" xlink:href="#DejaVuSans-46"/>
       <use x="95.410156" xlink:href="#DejaVuSans-53"/>
      </g>
     </g>
    </g>
    <g id="text_14">
     <!-- Obj-pose-error-norm -->
     <g transform="translate(28.617187 225.203781)rotate(-90)scale(0.1 -0.1)">
      <defs>
       <path d="M 39.40625 66.21875 
Q 28.65625 66.21875 22.328125 58.203125 
Q 16.015625 50.203125 16.015625 36.375 
Q 16.015625 22.609375 22.328125 14.59375 
Q 28.65625 6.59375 39.40625 6.59375 
Q 50.140625 6.59375 56.421875 14.59375 
Q 62.703125 22.609375 62.703125 36.375 
Q 62.703125 50.203125 56.421875 58.203125 
Q 50.140625 66.21875 39.40625 66.21875 
z
M 39.40625 74.21875 
Q 54.734375 74.21875 63.90625 63.9375 
Q 73.09375 53.65625 73.09375 36.375 
Q 73.09375 19.140625 63.90625 8.859375 
Q 54.734375 -1.421875 39.40625 -1.421875 
Q 24.03125 -1.421875 14.8125 8.828125 
Q 5.609375 19.09375 5.609375 36.375 
Q 5.609375 53.65625 14.8125 63.9375 
Q 24.03125 74.21875 39.40625 74.21875 
z
" id="DejaVuSans-79"/>
       <path d="M 48.6875 27.296875 
Q 48.6875 37.203125 44.609375 42.84375 
Q 40.53125 48.484375 33.40625 48.484375 
Q 26.265625 48.484375 22.1875 42.84375 
Q 18.109375 37.203125 18.109375 27.296875 
Q 18.109375 17.390625 22.1875 11.75 
Q 26.265625 6.109375 33.40625 6.109375 
Q 40.53125 6.109375 44.609375 11.75 
Q 48.6875 17.390625 48.6875 27.296875 
z
M 18.109375 46.390625 
Q 20.953125 51.265625 25.265625 53.625 
Q 29.59375 56 35.59375 56 
Q 45.5625 56 51.78125 48.09375 
Q 58.015625 40.1875 58.015625 27.296875 
Q 58.015625 14.40625 51.78125 6.484375 
Q 45.5625 -1.421875 35.59375 -1.421875 
Q 29.59375 -1.421875 25.265625 0.953125 
Q 20.953125 3.328125 18.109375 8.203125 
L 18.109375 0 
L 9.078125 0 
L 9.078125 75.984375 
L 18.109375 75.984375 
z
" id="DejaVuSans-98"/>
       <path d="M 9.421875 54.6875 
L 18.40625 54.6875 
L 18.40625 -0.984375 
Q 18.40625 -11.421875 14.421875 -16.109375 
Q 10.453125 -20.796875 1.609375 -20.796875 
L -1.8125 -20.796875 
L -1.8125 -13.1875 
L 0.59375 -13.1875 
Q 5.71875 -13.1875 7.5625 -10.8125 
Q 9.421875 -8.453125 9.421875 -0.984375 
z
M 9.421875 75.984375 
L 18.40625 75.984375 
L 18.40625 64.59375 
L 9.421875 64.59375 
z
" id="DejaVuSans-106"/>
       <path d="M 30.609375 48.390625 
Q 23.390625 48.390625 19.1875 42.75 
Q 14.984375 37.109375 14.984375 27.296875 
Q 14.984375 17.484375 19.15625 11.84375 
Q 23.34375 6.203125 30.609375 6.203125 
Q 37.796875 6.203125 41.984375 11.859375 
Q 46.1875 17.53125 46.1875 27.296875 
Q 46.1875 37.015625 41.984375 42.703125 
Q 37.796875 48.390625 30.609375 48.390625 
z
M 30.609375 56 
Q 42.328125 56 49.015625 48.375 
Q 55.71875 40.765625 55.71875 27.296875 
Q 55.71875 13.875 49.015625 6.21875 
Q 42.328125 -1.421875 30.609375 -1.421875 
Q 18.84375 -1.421875 12.171875 6.21875 
Q 5.515625 13.875 5.515625 27.296875 
Q 5.515625 40.765625 12.171875 48.375 
Q 18.84375 56 30.609375 56 
z
" id="DejaVuSans-111"/>
       <path d="M 41.109375 46.296875 
Q 39.59375 47.171875 37.8125 47.578125 
Q 36.03125 48 33.890625 48 
Q 26.265625 48 22.1875 43.046875 
Q 18.109375 38.09375 18.109375 28.8125 
L 18.109375 0 
L 9.078125 0 
L 9.078125 54.6875 
L 18.109375 54.6875 
L 18.109375 46.1875 
Q 20.953125 51.171875 25.484375 53.578125 
Q 30.03125 56 36.53125 56 
Q 37.453125 56 38.578125 55.875 
Q 39.703125 55.765625 41.0625 55.515625 
z
" id="DejaVuSans-114"/>
       <path d="M 54.890625 33.015625 
L 54.890625 0 
L 45.90625 0 
L 45.90625 32.71875 
Q 45.90625 40.484375 42.875 44.328125 
Q 39.84375 48.1875 33.796875 48.1875 
Q 26.515625 48.1875 22.3125 43.546875 
Q 18.109375 38.921875 18.109375 30.90625 
L 18.109375 0 
L 9.078125 0 
L 9.078125 54.6875 
L 18.109375 54.6875 
L 18.109375 46.1875 
Q 21.34375 51.125 25.703125 53.5625 
Q 30.078125 56 35.796875 56 
Q 45.21875 56 50.046875 50.171875 
Q 54.890625 44.34375 54.890625 33.015625 
z
" id="DejaVuSans-110"/>
      </defs>
      <use xlink:href="#DejaVuSans-79"/>
      <use x="78.710938" xlink:href="#DejaVuSans-98"/>
      <use x="142.1875" xlink:href="#DejaVuSans-106"/>
      <use x="169.970703" xlink:href="#DejaVuSans-45"/>
      <use x="206.054688" xlink:href="#DejaVuSans-112"/>
      <use x="269.53125" xlink:href="#DejaVuSans-111"/>
      <use x="330.712891" xlink:href="#DejaVuSans-115"/>
      <use x="382.8125" xlink:href="#DejaVuSans-101"/>
      <use x="444.335938" xlink:href="#DejaVuSans-45"/>
      <use x="480.419922" xlink:href="#DejaVuSans-101"/>
      <use x="541.943359" xlink:href="#DejaVuSans-114"/>
      <use x="581.306641" xlink:href="#DejaVuSans-114"/>
      <use x="620.169922" xlink:href="#DejaVuSans-111"/>
      <use x="681.351562" xlink:href="#DejaVuSans-114"/>
      <use x="716.089844" xlink:href="#DejaVuSans-45"/>
      <use x="752.173828" xlink:href="#DejaVuSans-110"/>
      <use x="815.552734" xlink:href="#DejaVuSans-111"/>
      <use x="876.734375" xlink:href="#DejaVuSans-114"/>
      <use x="916.097656" xlink:href="#DejaVuSans-109"/>
     </g>
    </g>
   </g>
   <g id="line2d_13">
    <path clip-path="url(#p8df8712bae)" d="M 73.832727 295.200667 
L 73.865193 295.488 
L 74.02752 278.744945 
L 74.319709 248.109289 
L 74.546967 293.376392 
L 74.579433 287.609512 
L 74.611898 289.523798 
L 74.644364 279.248263 
L 74.709295 285.398095 
L 74.904087 293.921849 
L 74.969018 293.35172 
L 75.228742 286.418099 
L 76.592291 249.099537 
L 78.799942 203.732662 
L 79.189527 197.230331 
L 79.644044 189.419703 
L 81.429644 165.178262 
L 82.565935 157.717042 
L 84.254138 151.02515 
L 84.416465 150.939664 
L 84.806051 151.212232 
L 84.838516 151.163238 
L 85.487825 149.983279 
L 85.585222 149.898194 
L 85.844945 149.837559 
L 86.331927 149.756109 
L 86.656582 150.401271 
L 87.143564 151.46805 
L 87.500684 151.968312 
L 88.214924 153.470828 
L 88.604509 153.950461 
L 89.221353 154.835219 
L 90.357644 156.099989 
L 91.331607 158.169825 
L 91.364073 158.154273 
L 91.786124 157.992252 
L 92.013382 158.216869 
L 93.247069 159.256509 
L 93.376931 159.27202 
L 93.571724 159.644937 
L 94.448291 161.135381 
L 94.805411 161.303944 
L 95.032669 161.152193 
L 95.324858 160.901104 
L 95.617047 160.808089 
L 95.81184 160.747209 
L 96.039098 160.758185 
L 96.266356 161.025299 
L 96.915665 162.135275 
L 97.142924 162.305759 
L 97.435113 162.376634 
L 97.694836 162.644956 
L 98.116887 163.061562 
L 98.344145 162.941965 
L 99.253178 162.093082 
L 99.805091 162.158268 
L 100.032349 162.515343 
L 100.551796 163.209964 
L 101.330967 163.980317 
L 101.655622 163.649017 
L 102.207535 163.138007 
L 102.499724 163.358018 
L 103.116567 164.16957 
L 103.993135 165.628975 
L 104.415185 165.633253 
L 104.545047 165.773107 
L 105.519011 168.306475 
L 106.135855 170.263876 
L 106.622836 171.831961 
L 107.466938 175.222779 
L 107.824058 176.0743 
L 108.116247 176.562291 
L 108.505833 177.110901 
L 109.122676 179.09827 
L 109.642124 180.8981 
L 109.804451 180.837724 
L 110.031709 180.438184 
L 110.194036 180.266836 
L 110.486225 180.465083 
L 110.583622 180.495124 
L 110.843345 180.8195 
L 111.070604 181.04947 
L 111.557585 182.753179 
L 112.304291 185.261075 
L 112.986065 185.976933 
L 113.180858 185.930579 
L 113.473047 185.613556 
L 113.505513 185.68385 
L 114.057425 186.780621 
L 114.641804 188.612724 
L 115.09632 188.919286 
L 115.258647 188.948355 
L 116.005353 189.318455 
L 116.687127 188.928037 
L 117.011782 189.060015 
L 117.336436 189.117451 
L 117.855884 188.54937 
L 117.985745 188.674242 
L 118.213004 188.91742 
L 118.407796 188.975315 
L 118.764916 188.974429 
L 118.992175 188.87096 
L 119.219433 188.790556 
L 119.479156 188.816048 
L 119.966138 188.545484 
L 120.096 188.744741 
L 120.128465 188.723417 
L 120.518051 188.365196 
L 120.615447 188.384744 
L 120.647913 188.343473 
L 121.199825 188.081442 
L 121.329687 188.217094 
L 121.719273 188.883801 
L 121.784204 188.775344 
L 122.303651 187.567913 
L 122.725702 185.571291 
L 123.147753 182.844229 
L 123.472407 181.781254 
L 123.959389 181.146928 
L 123.991855 181.190713 
L 124.154182 181.252959 
L 124.251578 181.191571 
L 124.478836 180.664574 
L 124.706095 179.834722 
L 124.998284 178.809309 
L 125.420335 177.77331 
L 125.777455 176.445166 
L 126.004713 175.937312 
L 126.069644 175.967546 
L 126.621556 177.127129 
L 126.816349 177.215655 
L 126.848815 177.16172 
L 127.011142 177.245433 
L 127.400727 177.329843 
L 127.563055 177.158824 
L 127.985105 176.583122 
L 128.179898 176.785574 
L 128.601949 177.285877 
L 128.66688 177.400045 
L 128.829207 177.538955 
L 128.861673 177.511512 
L 129.088931 177.471672 
L 129.251258 177.379867 
L 129.608378 176.914058 
L 130.192756 175.645868 
L 130.387549 175.582059 
L 130.549876 175.214958 
L 131.069324 173.559284 
L 131.264116 173.468294 
L 131.621236 173.370303 
L 131.816029 173.178826 
L 132.140684 172.752297 
L 132.5952 172.219054 
L 133.017251 172.56354 
L 133.179578 172.512056 
L 133.536698 172.524985 
L 133.699025 172.203537 
L 134.153542 170.575097 
L 134.348335 170.58223 
L 134.608058 170.5904 
L 135.159971 171.747083 
L 135.192436 171.705767 
L 135.776815 170.592952 
L 135.971607 170.157601 
L 136.1664 170.045422 
L 136.231331 170.035113 
L 136.393658 169.755714 
L 136.52352 169.705256 
L 137.23776 168.630597 
L 137.432553 168.144528 
L 137.529949 168.084214 
L 137.724742 167.750907 
L 137.822138 167.731907 
L 138.016931 167.548141 
L 138.049396 167.589943 
L 138.244189 167.809256 
L 138.276655 167.721568 
L 138.438982 167.197966 
L 138.633775 166.629643 
L 138.731171 166.56877 
L 138.861033 166.398246 
L 138.893498 166.441083 
L 138.958429 166.357254 
L 139.088291 166.041601 
L 139.445411 165.168038 
L 139.575273 165.009259 
L 140.224582 163.899808 
L 140.321978 163.86345 
L 140.549236 163.474782 
L 140.744029 163.298988 
L 140.906356 163.287533 
L 141.101149 162.675463 
L 141.360873 161.532614 
L 141.620596 160.681947 
L 141.815389 160.479578 
L 142.140044 160.716741 
L 142.334836 160.757222 
L 142.59456 161.444776 
L 142.627025 161.41018 
L 142.756887 161.019431 
L 142.984145 160.299642 
L 143.406196 159.370248 
L 143.503593 159.395064 
L 143.698385 159.51755 
L 143.990575 159.454638 
L 144.120436 159.482024 
L 144.38016 159.128 
L 144.412625 159.156279 
L 144.542487 159.148772 
L 144.802211 158.667156 
L 144.997004 158.525357 
L 146.003433 159.363496 
L 146.620276 160.470799 
L 146.717673 160.626298 
L 146.88 160.818749 
L 147.302051 161.09431 
L 147.529309 160.398054 
L 148.178618 157.725634 
L 148.405876 157.27837 
L 148.503273 157.210522 
L 148.6656 157.126326 
L 148.762996 157.221145 
L 150.191476 161.128699 
L 150.288873 161.162324 
L 150.321338 161.129346 
L 150.581062 160.879892 
L 150.743389 160.755354 
L 150.775855 160.788215 
L 150.938182 161.086371 
L 151.197905 161.875797 
L 151.392698 162.170254 
L 151.619956 162.756459 
L 152.204335 164.850988 
L 152.431593 165.010602 
L 152.95104 165.590881 
L 152.983505 165.55293 
L 153.438022 165.061896 
L 153.567884 165.096026 
L 153.892538 165.523623 
L 154.704175 168.111306 
L 154.931433 168.700996 
L 155.385949 169.828181 
L 155.710604 169.804033 
L 156.294982 169.436857 
L 156.652102 168.979271 
L 156.87936 168.737412 
L 157.074153 168.768734 
L 157.204015 169.091848 
L 157.366342 169.747943 
L 157.820858 171.703198 
L 158.080582 172.182371 
L 158.437702 172.434104 
L 158.567564 172.449746 
L 159.184407 173.094199 
L 159.444131 173.286795 
L 159.931113 173.552898 
L 160.515491 174.291291 
L 161.814109 176.492718 
L 162.008902 176.42521 
L 162.301091 176.060573 
L 162.885469 175.127471 
L 163.210124 174.912517 
L 163.534778 175.116549 
L 163.729571 175.160763 
L 163.859433 175.44943 
L 164.573673 177.10792 
L 164.800931 177.065592 
L 165.09312 176.92875 
L 165.482705 176.615824 
L 165.645033 176.66214 
L 165.774895 176.61415 
L 165.904756 176.549127 
L 166.099549 176.271201 
L 166.456669 175.691633 
L 166.618996 175.677144 
L 167.170909 176.352391 
L 167.398167 176.354804 
L 167.852684 176.630659 
L 167.982545 176.526567 
L 168.891578 175.424833 
L 169.086371 175.4405 
L 169.281164 175.77241 
L 169.573353 176.667352 
L 170.0928 178.506275 
L 170.384989 179.014125 
L 170.579782 179.154965 
L 170.936902 178.995579 
L 171.261556 179.065662 
L 172.138124 180.180974 
L 172.527709 180.682121 
L 172.787433 180.852311 
L 173.014691 181.028301 
L 174.183447 182.939672 
L 175.09248 183.479421 
L 175.384669 184.113623 
L 175.676858 184.647183 
L 176.098909 185.401816 
L 177.2352 187.89722 
L 177.722182 187.864839 
L 178.014371 187.756774 
L 178.436422 187.980564 
L 178.988335 188.554042 
L 179.410385 189.758768 
L 180.124625 191.661237 
L 180.644073 191.989996 
L 181.098589 192.103559 
L 182.072553 192.853028 
L 182.754327 193.525665 
L 183.273775 193.635212 
L 185.189236 194.944635 
L 186.098269 194.654973 
L 186.390458 194.73569 
L 186.682647 195.103326 
L 187.039767 196.179552 
L 187.396887 196.967518 
L 187.721542 197.089413 
L 187.981265 197.211824 
L 188.922764 197.806209 
L 189.150022 197.814168 
L 190.643433 197.147829 
L 191.227811 197.060334 
L 191.552465 197.02323 
L 191.974516 197.318165 
L 192.201775 197.401625 
L 192.396567 197.280525 
L 193.435462 196.431176 
L 194.279564 196.710774 
L 195.0912 197.162745 
L 195.383389 197.034449 
L 195.80544 196.462354 
L 197.136524 194.287821 
L 197.331316 194.329248 
L 197.655971 194.52213 
L 197.980625 194.761835 
L 198.402676 194.663919 
L 198.889658 194.242383 
L 199.571433 193.255757 
L 202.363462 190.424681 
L 202.94784 190.451127 
L 203.467287 190.185723 
L 203.889338 189.743441 
L 204.830836 188.451102 
L 205.252887 187.850855 
L 205.934662 187.534381 
L 206.713833 186.788957 
L 207.525469 186.522461 
L 207.785193 186.464196 
L 208.239709 186.19446 
L 208.629295 185.936694 
L 208.824087 185.764653 
L 209.051345 185.269705 
L 209.830516 183.811163 
L 210.09024 183.59259 
L 210.512291 183.100747 
L 210.80448 183.032044 
L 211.031738 183.041916 
L 211.453789 182.319258 
L 211.810909 181.824984 
L 212.557615 181.441532 
L 213.141993 180.664741 
L 213.401716 180.10104 
L 213.953629 178.778044 
L 214.180887 178.651586 
L 214.37568 178.763168 
L 214.830196 178.990892 
L 215.252247 178.781599 
L 215.544436 178.223555 
L 215.998953 177.647133 
L 216.453469 177.374745 
L 216.843055 177.113415 
L 217.23264 176.943258 
L 217.492364 176.759573 
L 217.817018 176.508123 
L 218.174138 176.355939 
L 218.466327 176.293264 
L 218.726051 175.878801 
L 219.148102 174.64223 
L 219.570153 173.461636 
L 219.764945 173.632545 
L 220.284393 174.130427 
L 220.544116 174.002627 
L 221.063564 172.736264 
L 221.647942 171.110007 
L 221.940131 170.896275 
L 222.134924 170.835381 
L 222.686836 170.315766 
L 224.407505 166.254552 
L 224.699695 165.764544 
L 224.959418 165.727059 
L 225.154211 165.679078 
L 225.511331 164.954881 
L 225.771055 163.717525 
L 226.030778 162.819458 
L 226.290502 162.145538 
L 226.809949 160.29292 
L 227.524189 158.168405 
L 227.751447 157.80493 
L 228.011171 157.169997 
L 228.725411 154.469069 
L 228.952669 154.445737 
L 229.179927 154.481891 
L 229.504582 154.013267 
L 229.861702 152.37758 
L 230.251287 150.478425 
L 230.543476 149.637381 
L 230.738269 149.521923 
L 231.192785 149.613657 
L 231.712233 148.369526 
L 232.264145 146.932344 
L 232.458938 146.758893 
L 232.816058 145.894132 
L 234.082211 140.647189 
L 234.341935 140.233912 
L 234.504262 140.260401 
L 234.861382 139.419709 
L 235.478225 137.496961 
L 236.549585 133.380274 
L 236.711913 133.291192 
L 236.841775 133.270575 
L 237.101498 132.829463 
L 237.620945 131.37072 
L 238.237789 129.122183 
L 239.309149 125.614052 
L 240.153251 124.568384 
L 240.412975 124.125267 
L 241.257076 121.323845 
L 241.386938 121.250261 
L 241.419404 121.282074 
L 241.87392 121.624529 
L 242.295971 121.574162 
L 242.458298 121.105892 
L 242.782953 119.815038 
L 243.464727 117.269504 
L 244.243898 116.572294 
L 244.828276 117.173397 
L 244.958138 117.001132 
L 246.581411 112.900832 
L 246.646342 112.983797 
L 246.8736 113.39126 
L 246.906065 113.37298 
L 247.035927 113.133639 
L 247.815098 111.329546 
L 247.94496 111.433796 
L 248.042356 111.556023 
L 248.074822 111.52078 
L 248.237149 110.967419 
L 248.886458 108.732954 
L 249.048785 108.69388 
L 249.211113 108.705015 
L 249.308509 108.593843 
L 249.535767 108.362585 
L 249.763025 108.586187 
L 249.827956 108.447976 
L 250.055215 108.144759 
L 250.412335 107.532872 
L 250.574662 106.941972 
L 250.866851 106.021777 
L 251.288902 105.455419 
L 251.710953 105.999761 
L 251.905745 106.300624 
L 251.938211 106.274953 
L 252.100538 105.771453 
L 252.425193 105.037835 
L 253.334225 104.001666 
L 254.048465 105.479898 
L 254.405585 106.445821 
L 254.535447 106.570556 
L 254.567913 106.540314 
L 254.697775 106.541763 
L 254.762705 106.534224 
L 255.184756 105.872019 
L 255.314618 106.014271 
L 255.606807 106.553732 
L 255.8016 106.405176 
L 255.996393 106.234172 
L 256.223651 106.065624 
L 256.353513 106.107252 
L 256.808029 106.89678 
L 257.717062 108.523503 
L 257.976785 108.528175 
L 259.048145 110.048246 
L 259.859782 112.124288 
L 260.314298 112.001111 
L 260.44416 111.955662 
L 260.671418 112.096257 
L 260.898676 112.044693 
L 260.996073 112.232671 
L 261.905105 114.341943 
L 262.002502 114.474974 
L 262.22976 114.813431 
L 262.619345 114.925175 
L 262.879069 114.522006 
L 262.976465 114.549474 
L 264.047825 116.349321 
L 264.242618 116.460222 
L 265.08672 117.902447 
L 265.638633 118.827025 
L 266.15808 120.684017 
L 266.709993 123.045802 
L 267.099578 122.499342 
L 267.326836 122.197526 
L 267.424233 122.266571 
L 267.619025 122.631825 
L 268.235869 124.274557 
L 268.333265 124.196459 
L 268.820247 123.479724 
L 269.047505 123.454631 
L 269.177367 123.788417 
L 269.566953 124.801885 
L 269.599418 124.767122 
L 270.183796 124.014003 
L 270.346124 123.951352 
L 270.378589 124.006125 
L 270.962967 125.246533 
L 271.060364 125.365961 
L 271.320087 125.988639 
L 271.449949 126.148913 
L 271.677207 126.474123 
L 271.904465 126.535868 
L 272.034327 126.423975 
L 272.066793 126.469943 
L 272.196655 126.523134 
L 272.22912 126.487131 
L 272.391447 126.156708 
L 272.456378 126.248772 
L 272.683636 126.768348 
L 273.040756 127.850795 
L 273.462807 128.342883 
L 273.754996 128.314046 
L 274.37184 129.822863 
L 274.891287 129.56618 
L 275.151011 129.345074 
L 275.280873 129.479543 
L 275.313338 129.444075 
L 275.4432 129.184752 
L 275.670458 128.91347 
L 276.222371 129.477429 
L 277.034007 132.056882 
L 277.715782 135.094805 
L 277.975505 135.882297 
L 278.235229 135.967402 
L 278.332625 136.055167 
L 278.624815 136.411773 
L 278.787142 136.616643 
L 279.176727 137.476616 
L 279.274124 137.642714 
L 279.533847 138.045241 
L 279.858502 138.693035 
L 280.377949 140.1007 
L 280.929862 141.305107 
L 282.001222 143.230246 
L 282.553135 145.166654 
L 282.845324 145.61346 
L 283.494633 145.769054 
L 283.786822 146.052828 
L 283.884218 146.226167 
L 284.565993 148.175862 
L 284.760785 147.944475 
L 285.08544 147.642713 
L 285.215302 147.709 
L 285.475025 147.879115 
L 285.702284 147.622998 
L 286.059404 147.198407 
L 286.221731 147.244273 
L 286.741178 148.406005 
L 287.098298 149.291007 
L 287.260625 149.676501 
L 287.552815 150.433016 
L 287.9424 151.026237 
L 288.461847 151.538099 
L 288.624175 151.555692 
L 288.883898 152.02901 
L 288.948829 151.98375 
L 289.241018 152.04823 
L 289.500742 152.230221 
L 289.663069 152.23008 
L 290.020189 152.624131 
L 290.279913 152.971988 
L 290.474705 152.946637 
L 290.701964 152.963594 
L 291.416204 153.568048 
L 291.675927 153.582958 
L 292.325236 154.629209 
L 292.617425 155.19865 
L 292.94208 155.922359 
L 293.396596 156.729645 
L 293.591389 157.051828 
L 293.980975 157.901581 
L 294.208233 158.142563 
L 294.500422 158.140382 
L 294.72768 158.120914 
L 294.857542 158.013255 
L 295.052335 157.950302 
L 295.182196 157.788709 
L 295.344524 157.449382 
L 295.376989 157.480142 
L 295.571782 157.987678 
L 295.961367 159.042937 
L 296.15616 159.117062 
L 296.448349 159.053189 
L 296.935331 158.319936 
L 297.162589 158.309717 
L 297.357382 158.173448 
L 297.519709 158.322072 
L 297.779433 158.529476 
L 298.071622 158.519653 
L 299.305309 157.291598 
L 299.532567 157.273665 
L 299.72736 157.19916 
L 300.246807 157.163418 
L 300.4416 157.077717 
L 300.603927 156.998251 
L 300.733789 156.989651 
L 300.993513 157.197017 
L 301.253236 157.22375 
L 301.383098 156.966755 
L 301.772684 156.1452 
L 301.902545 156.157954 
L 302.194735 156.185192 
L 302.746647 156.132331 
L 303.038836 156.206063 
L 303.590749 156.18146 
L 304.532247 155.898673 
L 304.921833 155.432522 
L 305.116625 155.059872 
L 305.311418 154.929679 
L 305.668538 154.815475 
L 305.830865 154.712796 
L 306.772364 153.378619 
L 306.934691 153.192345 
L 307.161949 153.201264 
L 307.778793 152.772474 
L 307.94112 152.860831 
L 308.265775 152.954137 
L 308.622895 153.298438 
L 309.272204 153.317218 
L 309.531927 153.324809 
L 309.661789 153.253535 
L 310.246167 153.136053 
L 310.700684 153.614556 
L 310.960407 153.842412 
L 311.479855 154.656597 
L 311.707113 155.044577 
L 311.86944 155.032674 
L 312.259025 154.666385 
L 313.038196 153.362972 
L 313.947229 152.039995 
L 314.01216 152.09297 
L 314.142022 152.099046 
L 314.401745 152.534947 
L 314.693935 152.782473 
L 315.051055 152.841439 
L 315.44064 152.404553 
L 316.479535 153.191742 
L 316.836655 152.742803 
L 317.161309 152.130515 
L 317.485964 151.670645 
L 317.778153 151.276319 
L 318.135273 150.898924 
L 318.2976 150.784055 
L 318.65472 150.426681 
L 319.304029 149.929646 
L 319.823476 149.616815 
L 321.219491 148.339141 
L 321.803869 148.338485 
L 321.966196 148.37187 
L 322.22592 148.196096 
L 322.355782 148.162869 
L 322.810298 147.650532 
L 323.167418 147.24393 
L 324.271244 145.603595 
L 324.336175 145.664327 
L 324.628364 145.776173 
L 324.790691 145.720563 
L 325.407535 144.885046 
L 325.569862 144.689343 
L 326.024378 144.005411 
L 326.219171 143.84518 
L 326.413964 143.444381 
L 327.193135 141.839966 
L 327.842444 140.667437 
L 328.102167 140.512237 
L 328.199564 140.524299 
L 328.232029 140.483164 
L 328.913804 139.209993 
L 329.173527 138.683025 
L 329.498182 137.974398 
L 329.628044 137.84663 
L 330.050095 136.852138 
L 330.407215 135.892836 
L 330.472145 135.923419 
L 330.634473 135.859428 
L 330.959127 135.279448 
L 331.316247 134.352843 
L 331.673367 133.4309 
L 331.803229 133.114528 
L 332.095418 132.33766 
L 332.322676 131.472364 
L 332.614865 130.667983 
L 333.036916 130.085021 
L 333.329105 129.496703 
L 333.751156 128.895642 
L 334.043345 128.322904 
L 334.173207 128.209112 
L 334.432931 127.344135 
L 334.790051 126.360318 
L 335.244567 126.14136 
L 335.569222 125.479087 
L 335.764015 125.125236 
L 335.861411 125.248353 
L 336.1536 125.515319 
L 336.250996 125.47751 
L 336.380858 125.231023 
L 337.322356 122.333976 
L 337.517149 122.229648 
L 337.549615 122.271514 
L 337.841804 122.525125 
L 338.166458 122.435304 
L 338.620975 121.470426 
L 338.750836 121.326477 
L 339.237818 120.251415 
L 339.530007 119.658923 
L 340.049455 118.348199 
L 340.08192 118.364834 
L 340.309178 118.566276 
L 340.471505 118.585097 
L 340.990953 117.960067 
L 341.640262 116.518714 
L 341.932451 116.540531 
L 342.809018 115.174585 
L 343.036276 115.157859 
L 343.328465 114.100118 
L 343.65312 113.232753 
L 344.205033 113.773155 
L 344.302429 113.867745 
L 344.334895 113.83746 
L 344.464756 113.496749 
L 344.919273 112.151882 
L 345.503651 110.54459 
L 345.601047 110.518834 
L 345.763375 110.47196 
L 346.023098 110.46687 
L 346.185425 110.111475 
L 346.802269 108.155991 
L 347.289251 107.487311 
L 347.321716 107.514951 
L 347.743767 107.490363 
L 347.873629 107.498764 
L 348.198284 107.745765 
L 348.328145 107.601705 
L 348.620335 106.831496 
L 350.016349 101.750112 
L 350.243607 100.946223 
L 351.50976 96.275655 
L 353.068102 89.359177 
L 353.360291 88.6094 
L 353.490153 88.203246 
L 355.600407 77.842354 
L 355.7952 77.437006 
L 356.15232 75.768006 
L 356.704233 72.470264 
L 357.515869 69.22838 
L 357.775593 67.46059 
L 358.035316 66.079772 
L 358.522298 64.700426 
L 358.782022 63.989601 
L 359.204073 63.629819 
L 359.788451 61.794343 
L 360.470225 59.056466 
L 360.729949 59.264524 
L 361.022138 58.877486 
L 361.638982 57.740963 
L 362.645411 53.917493 
L 362.742807 53.838469 
L 362.905135 53.630221 
L 363.132393 53.650347 
L 363.262255 53.836015 
L 363.521978 54.324121 
L 363.619375 54.250307 
L 363.944029 53.83479 
L 364.138822 53.592571 
L 364.203753 53.710555 
L 364.495942 54.244908 
L 364.7232 54.687989 
L 365.859491 57.137662 
L 366.216611 57.373574 
L 366.443869 57.08825 
L 366.638662 57.233061 
L 366.995782 56.936909 
L 367.125644 56.952502 
L 367.255505 57.043263 
L 367.385367 57.311688 
L 367.482764 57.547965 
L 367.547695 57.485843 
L 367.645091 57.276074 
L 368.132073 56.442321 
L 368.326865 56.934312 
L 368.878778 58.584882 
L 369.138502 59.162475 
L 369.593018 60.455485 
L 369.885207 61.217081 
L 370.047535 62.209458 
L 370.989033 68.742684 
L 371.476015 70.912871 
L 372.060393 72.416438 
L 373.066822 76.508595 
L 373.456407 78.228216 
L 373.618735 78.304068 
L 373.845993 78.37925 
L 374.00832 78.788428 
L 374.138182 79.575515 
L 374.982284 85.607777 
L 375.306938 86.797257 
L 376.086109 91.512207 
L 376.605556 94.506984 
L 377.352262 101.991398 
L 378.326225 109.343375 
L 379.624844 115.111318 
L 379.657309 115.017644 
L 379.72224 115.130144 
L 380.371549 119.245359 
L 380.923462 124.722818 
L 380.988393 125.282249 
L 381.313047 128.228813 
L 381.377978 128.616023 
L 381.670167 130.655402 
L 381.86496 131.35551 
L 382.059753 132.651081 
L 382.287011 134.787458 
L 383.033716 141.328007 
L 383.747956 143.817422 
L 383.812887 143.994698 
L 384.72192 150.860712 
L 385.501091 159.02162 
L 385.825745 162.244362 
L 386.215331 167.783844 
L 386.377658 168.425428 
L 386.637382 170.946211 
L 386.929571 173.467112 
L 388.033396 181.072252 
L 388.195724 182.158314 
L 389.039825 189.359678 
L 390.111185 198.020728 
L 390.403375 198.963857 
L 390.728029 199.436977 
L 390.760495 199.396239 
L 390.987753 199.225337 
L 391.279942 199.434427 
L 391.572131 199.505987 
L 391.929251 199.228945 
L 392.22144 199.805061 
L 392.253905 199.909919 
L 392.351302 199.867964 
L 392.675956 200.463395 
L 393.098007 201.040982 
L 394.201833 201.526033 
L 394.526487 201.260118 
L 394.753745 200.795987 
L 395.987433 197.811745 
L 396.409484 197.282325 
L 397.156189 195.191644 
L 397.675636 193.874878 
L 398.487273 192.642481 
L 398.487273 192.642481 
" style="fill:none;stroke:#1f77b4;stroke-linecap:square;stroke-width:1.5;"/>
   </g>
   <g id="line2d_14">
    <path clip-path="url(#p8df8712bae)" d="M 73.832727 287.307645 
L 73.865193 287.312954 
L 74.124916 284.221817 
L 74.157382 284.6776 
L 74.222313 285.073242 
L 74.449571 287.110442 
L 74.579433 287.210997 
L 74.611898 287.169323 
L 74.806691 286.871369 
L 74.839156 286.883997 
L 75.033949 287.053234 
L 75.261207 287.701438 
L 75.423535 287.43326 
L 75.618327 286.324319 
L 76.007913 282.351852 
L 76.689687 276.951915 
L 76.949411 276.318725 
L 77.176669 275.998074 
L 77.306531 275.686294 
L 77.696116 273.459512 
L 79.059665 259.385303 
L 80.195956 252.117273 
L 81.104989 245.03191 
L 81.559505 242.309165 
L 82.793193 233.37785 
L 83.020451 232.333344 
L 83.442502 229.05658 
L 83.994415 223.971464 
L 84.676189 219.769771 
L 84.935913 218.552613 
L 85.422895 214.584491 
L 86.007273 210.557016 
L 86.364393 209.186152 
L 86.689047 208.577252 
L 87.078633 208.163724 
L 87.273425 207.331155 
L 88.214924 201.18906 
L 88.604509 198.967811 
L 88.766836 198.76632 
L 88.799302 198.786543 
L 89.059025 198.836481 
L 89.253818 198.482593 
L 89.7408 196.249342 
L 90.000524 195.458954 
L 90.909556 193.88764 
L 91.16928 193.73667 
L 91.234211 193.803911 
L 91.299142 193.741275 
L 91.5264 193.744995 
L 91.721193 193.389708 
L 92.078313 191.951559 
L 92.370502 191.188692 
L 92.500364 191.135331 
L 92.630225 191.367989 
L 93.019811 192.279761 
L 93.344465 192.246239 
L 93.441862 192.078317 
L 93.961309 191.102594 
L 94.123636 190.730096 
L 94.285964 190.549101 
L 94.545687 190.468261 
L 94.675549 190.445012 
L 94.935273 190.638145 
L 95.357324 190.10919 
L 95.844305 189.318365 
L 96.591011 188.614333 
L 96.980596 188.931489 
L 97.175389 189.281235 
L 97.24032 189.224628 
L 97.500044 188.896312 
L 97.59744 189.096177 
L 97.824698 189.493132 
L 98.441542 188.942495 
L 98.6688 188.848571 
L 99.447971 187.517696 
L 99.707695 187.58704 
L 99.805091 187.555198 
L 100.389469 186.498007 
L 100.584262 186.415454 
L 100.876451 186.336041 
L 101.428364 185.592026 
L 101.460829 185.624336 
L 101.980276 185.97481 
L 102.726982 185.705482 
L 103.019171 185.538798 
L 103.31136 185.338134 
L 103.830807 184.431238 
L 104.317789 184.428232 
L 104.512582 184.486974 
L 104.804771 184.284536 
L 105.032029 184.542388 
L 105.356684 185.149163 
L 106.135855 186.751784 
L 106.557905 187.207288 
L 106.622836 187.150419 
L 106.752698 187.027516 
L 107.272145 185.995105 
L 107.564335 185.438558 
L 107.856524 185.170264 
L 108.66816 183.91485 
L 108.862953 184.235617 
L 109.577193 186.045874 
L 109.869382 186.326351 
L 110.09664 185.933017 
L 110.81088 184.540036 
L 111.005673 184.585627 
L 111.232931 184.904376 
L 111.557585 185.360942 
L 111.979636 184.963934 
L 112.174429 184.350758 
L 112.466618 183.711424 
L 112.628945 183.703481 
L 112.791273 183.967361 
L 113.375651 185.756167 
L 114.02496 187.602669 
L 114.38208 187.623987 
L 114.576873 187.552707 
L 114.7392 187.523745 
L 114.933993 187.449522 
L 115.356044 186.857945 
L 115.583302 186.871203 
L 116.16768 187.595855 
L 116.362473 188.059613 
L 116.752058 188.989073 
L 116.88192 189.052193 
L 117.109178 189.162716 
L 117.466298 189.221808 
L 117.726022 189.438353 
L 117.920815 189.494499 
L 118.537658 190.023411 
L 118.635055 189.892734 
L 118.829847 189.309621 
L 119.122036 188.643086 
L 119.284364 188.728783 
L 119.511622 189.17882 
L 119.673949 189.744628 
L 120.323258 192.167077 
L 120.518051 192.240287 
L 120.907636 192.335515 
L 121.362153 192.656759 
L 121.914065 193.339983 
L 122.401047 192.984053 
L 123.017891 192.468527 
L 123.180218 192.613469 
L 123.829527 193.636826 
L 123.991855 193.581532 
L 124.511302 192.957249 
L 124.73856 192.566216 
L 124.900887 192.47612 
L 125.09568 192.5085 
L 125.355404 192.510982 
L 125.550196 192.657033 
L 125.842385 192.752125 
L 125.972247 192.757708 
L 126.16704 192.926151 
L 126.394298 193.23899 
L 126.589091 193.380238 
L 126.913745 193.429721 
L 127.173469 193.361852 
L 127.465658 193.423283 
L 127.757847 193.435912 
L 127.920175 193.490612 
L 128.082502 193.618919 
L 128.894138 194.532456 
L 128.926604 194.501988 
L 129.153862 194.474638 
L 129.413585 194.60398 
L 129.640844 194.7489 
L 129.868102 194.742945 
L 130.679738 195.357279 
L 130.906996 195.278967 
L 131.653702 195.953696 
L 132.205615 196.546741 
L 132.400407 196.552257 
L 132.627665 196.384644 
L 132.95232 196.250072 
L 133.114647 195.990768 
L 133.439302 195.402142 
L 133.601629 195.655835 
L 134.186007 196.846898 
L 134.932713 197.392591 
L 135.387229 197.448688 
L 135.679418 197.105289 
L 136.1664 196.425457 
L 136.328727 196.453687 
L 136.491055 196.6464 
L 136.978036 197.256756 
L 137.465018 197.307485 
L 137.822138 197.024382 
L 137.984465 196.846109 
L 138.276655 196.079233 
L 138.536378 195.581558 
L 139.185687 195.041153 
L 139.38048 195.077157 
L 139.575273 195.004697 
L 139.899927 194.915598 
L 140.062255 194.99538 
L 140.257047 195.056497 
L 140.679098 195.038132 
L 141.16608 194.923951 
L 141.620596 194.572698 
L 141.912785 194.610144 
L 142.140044 194.626536 
L 142.334836 194.688825 
L 142.562095 194.891503 
L 142.821818 194.981747 
L 143.211404 195.448313 
L 143.373731 195.520595 
L 143.503593 195.502075 
L 143.66592 195.52383 
L 144.347695 195.994334 
L 145.224262 196.205171 
L 145.45152 196.306945 
L 145.841105 196.209686 
L 146.198225 196.519876 
L 146.393018 196.682914 
L 146.815069 196.798553 
L 146.944931 196.744981 
L 147.561775 196.225164 
L 147.821498 196.089722 
L 147.95136 196.216916 
L 148.405876 196.849701 
L 148.957789 197.790019 
L 149.37984 198.612536 
L 149.607098 198.762654 
L 149.704495 198.881861 
L 150.159011 199.742151 
L 150.4512 199.995604 
L 150.970647 199.996958 
L 151.717353 200.597943 
L 152.139404 200.59723 
L 152.464058 200.832553 
L 152.59392 200.984772 
L 152.821178 201.546052 
L 153.113367 202.051727 
L 153.373091 202.312964 
L 154.347055 204.070144 
L 154.834036 203.80058 
L 155.061295 203.611136 
L 155.09376 203.654809 
L 155.418415 204.048744 
L 156.132655 204.751783 
L 156.359913 204.918849 
L 156.52224 205.001717 
L 156.87936 205.306544 
L 157.139084 205.593324 
L 157.885789 205.520264 
L 158.177978 206.096035 
L 158.567564 206.83893 
L 158.794822 207.105818 
L 159.476596 207.774091 
L 159.73632 207.729386 
L 159.898647 207.747784 
L 160.45056 208.071987 
L 161.002473 208.553046 
L 161.262196 208.786239 
L 161.554385 209.035857 
L 162.755607 208.900335 
L 163.729571 209.757708 
L 164.119156 209.656529 
L 166.618996 210.452044 
L 166.87872 210.49586 
L 167.495564 211.089181 
L 167.885149 211.364709 
L 168.469527 211.598577 
L 169.833076 212.925226 
L 170.287593 212.855806 
L 170.80704 212.730764 
L 171.229091 212.805706 
L 171.683607 213.054847 
L 172.397847 212.669119 
L 172.722502 212.377034 
L 173.241949 212.500002 
L 173.566604 212.704474 
L 174.410705 212.783374 
L 175.319738 212.24799 
L 175.709324 212.07789 
L 176.098909 212.29436 
L 176.358633 212.120999 
L 176.618356 212.044594 
L 177.072873 212.102339 
L 177.332596 211.865912 
L 178.176698 211.193878 
L 180.286953 209.489872 
L 180.611607 209.305388 
L 181.16352 209.17512 
L 181.910225 208.339553 
L 182.299811 208.02229 
L 182.851724 207.897541 
L 184.442531 207.773246 
L 184.799651 207.51135 
L 185.221702 207.203794 
L 185.546356 207.002945 
L 186.1632 206.605418 
L 186.87744 206.353926 
L 187.169629 206.315508 
L 187.656611 205.983745 
L 188.078662 205.712091 
L 188.533178 205.591666 
L 188.792902 205.541707 
L 189.474676 205.340531 
L 189.7344 205.080502 
L 190.156451 204.528067 
L 190.416175 204.161797 
L 190.903156 203.677868 
L 191.325207 203.314557 
L 192.006982 202.665968 
L 192.94848 202.243873 
L 193.338065 202.11 
L 193.695185 201.842555 
L 195.123665 200.794904 
L 195.740509 200.737298 
L 196.16256 200.645411 
L 196.909265 200.612671 
L 199.37664 200.877293 
L 201.616756 201.176596 
L 202.136204 201.283048 
L 202.395927 201.334541 
L 202.655651 201.20157 
L 203.142633 200.979835 
L 203.759476 200.828405 
L 204.149062 200.732986 
L 205.155491 201.046818 
L 207.23328 200.651583 
L 207.622865 200.115496 
L 207.850124 199.76018 
L 208.174778 199.542818 
L 208.791622 199.182048 
L 209.051345 198.979409 
L 209.311069 198.785074 
L 209.538327 198.675631 
L 209.765585 198.601268 
L 210.966807 198.714639 
L 211.388858 198.616489 
L 211.616116 198.585297 
L 212.005702 198.393502 
L 212.460218 198.000071 
L 212.817338 197.632711 
L 213.564044 197.723215 
L 213.856233 197.813143 
L 214.180887 198.229928 
L 214.570473 198.56651 
L 214.830196 198.571908 
L 215.317178 198.673168 
L 215.609367 198.448901 
L 216.096349 198.45932 
L 216.291142 198.540953 
L 216.745658 198.904216 
L 217.427433 198.850713 
L 218.239069 198.661617 
L 218.855913 198.451725 
L 219.37536 198.547286 
L 219.959738 198.916153 
L 220.576582 198.804962 
L 220.771375 198.806486 
L 221.810269 198.482745 
L 222.329716 198.343764 
L 222.881629 198.300092 
L 223.368611 198.212948 
L 223.790662 197.893526 
L 224.277644 197.665055 
L 226.193105 196.991953 
L 226.420364 196.725072 
L 226.647622 196.545285 
L 227.232 196.760753 
L 227.394327 196.512063 
L 227.94624 195.255891 
L 228.173498 195.238723 
L 228.400756 195.274924 
L 228.595549 195.096261 
L 228.790342 194.982665 
L 229.050065 194.840273 
L 229.277324 194.622922 
L 229.569513 194.472675 
L 230.056495 193.791099 
L 230.575942 193.832008 
L 230.770735 193.702098 
L 230.997993 193.793713 
L 231.127855 193.839493 
L 231.842095 192.803859 
L 232.101818 192.548649 
L 233.075782 193.114712 
L 233.854953 192.006348 
L 234.309469 192.411176 
L 234.471796 192.546114 
L 234.569193 192.584754 
L 234.828916 192.78517 
L 234.861382 192.739451 
L 235.153571 192.619467 
L 235.250967 192.704279 
L 235.283433 192.659754 
L 235.640553 192.045681 
L 235.900276 191.789564 
L 236.062604 191.76284 
L 236.51712 191.576588 
L 236.614516 191.518134 
L 236.646982 191.577488 
L 237.133964 191.35222 
L 237.523549 190.877436 
L 237.750807 190.83965 
L 238.627375 190.34454 
L 239.568873 189.18844 
L 239.601338 189.263129 
L 239.666269 189.157928 
L 239.925993 188.840758 
L 239.958458 188.864111 
L 240.055855 189.093977 
L 240.08832 189.056053 
L 240.315578 188.642653 
L 240.607767 187.990432 
L 240.835025 187.80203 
L 241.15968 187.834444 
L 242.003782 187.240983 
L 242.490764 186.640562 
L 242.685556 186.760516 
L 242.94528 186.968288 
L 242.977745 186.930904 
L 243.367331 186.357839 
L 243.854313 185.854025 
L 244.081571 185.768095 
L 244.276364 185.65552 
L 244.438691 185.667641 
L 244.633484 185.637697 
L 244.925673 185.654315 
L 245.023069 185.610121 
L 245.834705 184.435017 
L 246.581411 182.885456 
L 246.808669 182.786833 
L 247.263185 183.605509 
L 247.425513 183.886151 
L 247.457978 183.864424 
L 247.58784 183.654364 
L 247.782633 183.092579 
L 248.107287 182.198908 
L 248.367011 181.902819 
L 248.626735 181.790792 
L 248.789062 181.845321 
L 248.951389 181.781879 
L 249.178647 181.317792 
L 249.925353 179.665211 
L 250.152611 179.666552 
L 250.347404 179.889307 
L 250.379869 179.862263 
L 250.672058 179.398445 
L 250.996713 178.936627 
L 251.029178 178.904571 
L 251.094109 178.977478 
L 251.288902 179.103775 
L 251.548625 179.036664 
L 251.808349 178.606154 
L 252.003142 178.319852 
L 252.133004 178.281202 
L 252.2304 178.18204 
L 252.782313 177.133008 
L 253.042036 176.680782 
L 253.366691 176.502734 
L 253.983535 176.35356 
L 254.275724 175.857678 
L 254.632844 175.138061 
L 254.860102 174.81763 
L 255.08736 174.500842 
L 255.347084 174.709434 
L 255.574342 174.957063 
L 255.606807 174.925242 
L 255.898996 174.353643 
L 256.093789 173.896798 
L 257.100218 171.814451 
L 257.359942 171.560102 
L 257.781993 171.369582 
L 258.041716 171.075775 
L 258.204044 170.999889 
L 258.496233 170.667155 
L 258.626095 170.707123 
L 258.755956 170.882386 
L 258.788422 170.848712 
L 258.983215 170.700096 
L 259.113076 170.445332 
L 259.600058 169.18716 
L 259.794851 169.236142 
L 259.989644 169.412761 
L 260.151971 169.289172 
L 260.638953 168.404801 
L 261.028538 167.61568 
L 261.580451 167.002635 
L 263.106327 164.908174 
L 263.463447 165.182427 
L 263.593309 165.135972 
L 263.820567 164.808659 
L 264.404945 164.019936 
L 265.44384 163.10326 
L 266.093149 162.648949 
L 266.385338 162.223489 
L 266.580131 161.987409 
L 266.645062 162.051709 
L 266.937251 162.414871 
L 267.002182 162.336157 
L 267.164509 162.361478 
L 267.359302 162.389003 
L 267.716422 162.277012 
L 268.073542 162.344749 
L 268.203404 162.197734 
L 268.333265 162.026837 
L 268.755316 161.46855 
L 269.144902 161.479507 
L 269.761745 161.149311 
L 269.956538 161.144579 
L 270.248727 160.873742 
L 270.540916 160.605801 
L 270.833105 160.741472 
L 271.709673 160.293998 
L 271.904465 160.342056 
L 272.131724 160.177145 
L 272.391447 160.080642 
L 272.618705 160.233038 
L 272.878429 160.58977 
L 273.008291 160.677802 
L 273.462807 161.172737 
L 273.592669 161.110952 
L 273.949789 160.358284 
L 274.339375 159.578735 
L 274.599098 159.481238 
L 274.826356 159.588018 
L 275.053615 159.333602 
L 275.80032 158.530773 
L 275.930182 158.425385 
L 275.962647 158.447691 
L 276.092509 158.52873 
L 276.547025 159.098445 
L 277.001542 158.409401 
L 277.2288 158.112785 
L 277.456058 158.089721 
L 277.748247 158.109155 
L 278.235229 157.712868 
L 278.365091 157.612841 
L 278.397556 157.646934 
L 278.949469 158.045498 
L 279.339055 157.75652 
L 279.955898 156.500404 
L 280.053295 156.426746 
L 280.08576 156.464132 
L 280.313018 156.488804 
L 280.605207 155.980876 
L 280.767535 155.786268 
L 281.449309 156.018188 
L 281.611636 156.395136 
L 281.936291 157.152967 
L 282.163549 157.135387 
L 282.812858 156.465748 
L 282.94272 156.333073 
L 282.975185 156.35138 
L 283.624495 156.737401 
L 283.916684 157.091145 
L 284.079011 157.017956 
L 284.436131 156.636047 
L 284.630924 156.597691 
L 284.955578 156.135999 
L 285.150371 155.967905 
L 285.247767 155.949601 
L 285.280233 156.001014 
L 286.189265 156.486358 
L 286.384058 156.656881 
L 286.51392 156.814767 
L 286.838575 157.230813 
L 287.033367 157.224062 
L 287.520349 157.17974 
L 287.682676 157.150823 
L 287.877469 157.024108 
L 288.137193 157.063097 
L 288.29952 157.108811 
L 288.461847 157.321524 
L 288.754036 157.694632 
L 289.01376 157.51228 
L 289.273484 157.080346 
L 289.338415 157.148068 
L 289.598138 157.48535 
L 289.760465 157.518419 
L 289.922793 157.555743 
L 290.117585 157.593228 
L 290.377309 157.505049 
L 290.79936 156.840613 
L 290.831825 156.883245 
L 290.994153 157.026635 
L 291.15648 156.946965 
L 291.318807 156.911747 
L 291.5136 156.94415 
L 291.675927 156.939089 
L 292.22784 157.823474 
L 292.260305 157.783293 
L 292.682356 157.249532 
L 292.714822 157.310851 
L 292.94208 157.437204 
L 293.136873 157.456409 
L 293.558924 157.056164 
L 293.753716 157.182517 
L 293.916044 157.134133 
L 294.175767 156.934539 
L 294.305629 157.061227 
L 294.532887 157.121927 
L 294.792611 157.012488 
L 295.0848 157.052638 
L 295.344524 156.734179 
L 295.539316 156.918928 
L 295.734109 157.018813 
L 295.928902 156.954042 
L 296.545745 156.833332 
L 296.902865 156.891282 
L 297.324916 157.284631 
L 297.552175 157.172868 
L 297.746967 157.071834 
L 298.136553 156.936032 
L 298.591069 156.451656 
L 298.623535 156.53268 
L 298.656 156.452815 
L 298.948189 156.037544 
L 299.110516 155.996885 
L 299.207913 156.022261 
L 300.214342 157.699321 
L 300.4416 157.565979 
L 300.603927 157.502341 
L 300.733789 157.586518 
L 301.090909 158.011572 
L 301.350633 157.890708 
L 301.545425 157.709885 
L 301.610356 157.772786 
L 301.675287 157.795722 
L 301.707753 157.745976 
L 302.194735 156.904026 
L 302.2272 156.931542 
L 302.454458 157.155151 
L 303.201164 157.61022 
L 303.331025 157.690071 
L 303.460887 157.776623 
L 303.493353 157.749232 
L 303.882938 157.352941 
L 303.915404 157.381627 
L 304.045265 157.36654 
L 304.402385 157.196039 
L 304.597178 157.193458 
L 304.791971 157.04784 
L 305.214022 156.68985 
L 305.311418 156.815968 
L 305.538676 157.214369 
L 305.733469 157.202429 
L 306.187985 157.063523 
L 306.577571 157.376566 
L 306.86976 157.545809 
L 307.097018 157.307414 
L 307.389207 156.970944 
L 307.421673 156.997563 
L 307.811258 157.491928 
L 308.135913 158.10231 
L 308.233309 158.007315 
L 308.525498 156.932827 
L 308.752756 156.222644 
L 308.785222 156.246038 
L 309.01248 156.202664 
L 309.272204 156.418602 
L 309.304669 156.388828 
L 309.694255 156.03961 
L 310.051375 156.099039 
L 310.311098 156.309154 
L 310.538356 156.383665 
L 310.765615 156.459357 
L 310.960407 156.381903 
L 311.836975 154.977937 
L 311.934371 154.918361 
L 312.194095 154.663578 
L 312.22656 154.723196 
L 312.648611 155.173738 
L 312.843404 154.852658 
L 313.135593 154.343195 
L 314.239418 153.185542 
L 315.08352 153.399877 
L 315.473105 153.966967 
L 315.635433 153.851907 
L 315.927622 153.719652 
L 316.057484 153.50361 
L 316.349673 152.133029 
L 316.771724 150.630229 
L 316.966516 150.409654 
L 317.128844 150.518617 
L 317.22624 150.455995 
L 317.453498 150.289864 
L 317.58336 150.47241 
L 317.972945 151.145987 
L 318.200204 150.986487 
L 318.394996 150.264933 
L 319.01184 148.430274 
L 319.206633 148.482494 
L 319.336495 148.534026 
L 319.498822 148.23478 
L 319.661149 147.987022 
L 319.693615 148.046992 
L 319.758545 147.998767 
L 320.0832 147.713331 
L 320.148131 147.68453 
L 320.602647 147.15879 
L 321.446749 146.28259 
L 321.479215 146.319081 
L 321.576611 146.409928 
L 321.609076 146.385866 
L 321.771404 146.092517 
L 322.031127 144.863749 
L 322.453178 143.178755 
L 322.745367 142.820645 
L 322.842764 142.94108 
L 323.070022 143.269412 
L 323.102487 143.236082 
L 323.524538 142.978441 
L 323.979055 141.776815 
L 324.141382 141.521943 
L 324.855622 140.950275 
L 325.115345 140.619901 
L 325.342604 140.038564 
L 325.732189 138.876002 
L 326.024378 138.506445 
L 326.543825 138.407611 
L 326.933411 137.762876 
L 327.387927 137.836836 
L 327.615185 137.549219 
L 328.556684 136.020852 
L 328.751476 135.93627 
L 329.076131 135.885155 
L 329.660509 135.176281 
L 330.212422 133.875624 
L 330.537076 133.614894 
L 330.926662 133.205999 
L 331.283782 132.700408 
L 331.446109 132.957595 
L 331.705833 133.352696 
L 332.095418 134.209794 
L 332.160349 134.123582 
L 332.809658 132.223409 
L 332.971985 132.214821 
L 333.329105 132.57889 
L 333.361571 132.549552 
L 333.65376 132.451557 
L 333.848553 132.321357 
L 334.075811 131.717049 
L 334.368 131.090868 
L 334.692655 131.254563 
L 335.017309 131.771819 
L 335.309498 132.03843 
L 335.634153 132.364026 
L 335.861411 132.174432 
L 336.186065 131.646754 
L 337.062633 130.834607 
L 337.192495 130.849877 
L 337.289891 130.895508 
L 337.971665 131.579469 
L 338.393716 131.376528 
L 339.140422 130.942723 
L 339.594938 130.280481 
L 340.211782 130.893343 
L 340.43904 131.041422 
L 340.698764 131.395312 
L 340.861091 131.189955 
L 341.15328 130.788673 
L 341.283142 130.757723 
L 341.445469 130.736434 
L 341.770124 130.94077 
L 342.094778 131.40815 
L 342.322036 131.334443 
L 342.58176 131.382139 
L 342.873949 130.935492 
L 343.133673 130.757985 
L 343.65312 130.572066 
L 343.782982 130.511294 
L 343.880378 130.57726 
L 343.912844 130.539594 
L 344.205033 130.617602 
L 344.692015 131.213323 
L 345.0816 131.373533 
L 345.43872 131.964246 
L 345.925702 132.673812 
L 346.120495 132.588625 
L 346.315287 132.337831 
L 346.964596 131.03881 
L 347.094458 130.96623 
L 347.126924 131.011444 
L 347.516509 131.464108 
L 347.58144 131.525742 
L 347.906095 131.926806 
L 348.912524 131.296348 
L 349.204713 131.390813 
L 349.334575 131.417826 
L 349.594298 131.624863 
L 349.789091 131.619104 
L 350.470865 131.566676 
L 350.633193 131.838373 
L 350.763055 131.831502 
L 350.925382 131.696855 
L 351.185105 131.593738 
L 351.379898 131.540939 
L 351.964276 131.176905 
L 352.061673 131.121289 
L 352.094138 131.145651 
L 352.483724 131.24679 
L 352.743447 131.432961 
L 353.749876 130.940833 
L 353.977135 130.698862 
L 354.0096 130.749086 
L 354.236858 130.967737 
L 354.561513 131.14921 
L 354.658909 131.206913 
L 354.983564 131.563974 
L 355.145891 131.374941 
L 355.373149 131.062227 
L 355.470545 130.996956 
L 355.860131 130.469396 
L 355.957527 130.493217 
L 356.119855 130.563403 
L 356.50944 130.466442 
L 356.671767 130.798116 
L 357.061353 131.372823 
L 357.22368 131.4302 
L 357.386007 131.40328 
L 357.5808 130.932373 
L 357.808058 130.529308 
L 358.230109 130.5987 
L 358.392436 130.48317 
L 358.911884 130.466348 
L 359.139142 130.279678 
L 360.015709 129.979001 
L 360.210502 130.14557 
L 360.697484 130.169449 
L 360.989673 130.372885 
L 361.281862 130.435809 
L 361.931171 129.487491 
L 362.093498 129.403853 
L 362.255825 129.39615 
L 362.385687 129.503609 
L 362.418153 129.556749 
L 362.483084 129.482299 
L 362.970065 128.921718 
L 363.132393 129.050417 
L 363.554444 129.65813 
L 363.846633 129.621083 
L 364.138822 129.332712 
L 364.268684 129.206832 
L 364.593338 128.781828 
L 364.755665 128.815532 
L 364.853062 128.883876 
L 364.885527 128.848149 
L 365.047855 128.85277 
L 365.275113 128.870438 
L 365.729629 128.582224 
L 365.762095 128.628346 
L 365.827025 128.57904 
L 366.086749 128.274029 
L 366.216611 128.277382 
L 366.476335 128.561005 
L 366.638662 128.757899 
L 366.671127 128.718437 
L 367.028247 128.273375 
L 367.060713 128.29514 
L 367.320436 128.126982 
L 367.807418 127.686042 
L 368.391796 127.183706 
L 368.976175 126.312335 
L 369.170967 126.844892 
L 369.463156 127.554399 
L 369.625484 127.722172 
L 369.72288 127.801977 
L 370.08 128.146936 
L 370.502051 127.572858 
L 371.605876 125.872045 
L 371.638342 125.897779 
L 372.22272 127.04204 
L 372.449978 127.107688 
L 372.774633 127.185077 
L 373.164218 127.271012 
L 373.586269 127.644938 
L 373.716131 127.440974 
L 373.943389 127.059371 
L 374.105716 126.762915 
L 374.332975 126.524276 
L 374.949818 126.803403 
L 375.014749 126.76888 
L 375.047215 126.830266 
L 375.177076 126.886489 
L 375.339404 126.836369 
L 375.469265 126.797829 
L 375.631593 126.746648 
L 375.761455 126.375748 
L 375.988713 125.985977 
L 376.086109 125.883019 
L 376.280902 125.685888 
L 376.50816 125.684892 
L 377.125004 125.854391 
L 377.449658 125.775622 
L 377.57952 126.013631 
L 377.709382 126.081567 
L 377.871709 125.819861 
L 378.066502 125.239414 
L 378.358691 124.252828 
L 378.585949 124.086193 
L 378.780742 124.054512 
L 378.943069 124.015746 
L 379.137862 123.949045 
L 379.300189 123.865054 
L 379.332655 123.918118 
L 379.36512 123.847095 
L 381.280582 121.10545 
L 381.637702 121.667898 
L 381.962356 121.997865 
L 381.994822 121.962201 
L 382.22208 121.378836 
L 383.001251 119.224502 
L 383.325905 119.434415 
L 383.585629 119.566632 
L 383.780422 119.358887 
L 384.299869 118.397253 
L 384.494662 118.119031 
L 384.689455 118.116975 
L 385.208902 118.972518 
L 385.338764 118.789817 
L 386.1504 117.267587 
L 386.377658 117.01484 
L 386.637382 116.741809 
L 387.708742 116.311389 
L 387.773673 116.371228 
L 388.033396 116.953352 
L 388.065862 116.938305 
L 388.455447 116.05531 
L 388.65024 115.681921 
L 389.137222 115.323374 
L 389.689135 114.975122 
L 390.241047 115.445095 
L 390.890356 114.491507 
L 391.669527 112.325908 
L 391.701993 112.35429 
L 392.188975 113.043333 
L 392.416233 112.868029 
L 392.870749 112.584899 
L 392.968145 112.688117 
L 393.000611 112.658391 
L 393.162938 112.419359 
L 393.422662 111.842879 
L 394.201833 112.986246 
L 394.299229 112.967809 
L 394.558953 112.490941 
L 395.403055 110.096085 
L 395.954967 110.913284 
L 396.279622 111.469484 
L 396.799069 111.0837 
L 397.188655 109.947072 
L 397.415913 109.555702 
L 397.708102 109.408837 
L 397.805498 109.350559 
L 397.837964 109.38853 
L 398.000291 109.341489 
L 398.162618 109.189422 
L 398.487273 108.730924 
L 398.487273 108.730924 
" style="fill:none;stroke:#ff7f0e;stroke-linecap:square;stroke-width:1.5;"/>
   </g>
   <g id="line2d_15">
    <path clip-path="url(#p8df8712bae)" d="M 73.832727 295.200667 
L 73.865193 295.48604 
L 74.02752 277.381354 
L 74.319709 254.007535 
L 74.546967 292.43021 
L 74.579433 290.279619 
L 74.676829 273.623485 
L 74.74176 276.726083 
L 74.904087 283.909172 
L 75.09888 286.223963 
L 75.163811 285.851659 
L 75.391069 282.201461 
L 76.332567 262.388914 
L 77.468858 239.451111 
L 78.67008 220.310507 
L 79.806371 205.099101 
L 80.682938 196.184049 
L 81.494575 190.003883 
L 82.208815 186.114231 
L 82.825658 183.856778 
L 83.507433 182.186039 
L 84.156742 181.121251 
L 84.611258 180.744864 
L 84.935913 180.486779 
L 85.163171 180.405345 
L 85.45536 180.553798 
L 85.909876 181.07133 
L 86.656582 182.315987 
L 87.500684 184.156324 
L 88.117527 185.977786 
L 88.31232 186.672263 
L 88.799302 187.67248 
L 89.448611 189.571314 
L 94.772945 206.379445 
L 96.363753 210.425899 
L 99.188247 216.833226 
L 102.175069 223.941132 
L 104.772305 230.677893 
L 107.402007 238.220794 
L 111.395258 249.635562 
L 113.343185 254.608585 
L 114.804131 257.718334 
L 116.265076 260.313426 
L 117.303971 261.737113 
L 118.213004 262.624806 
L 118.959709 263.066318 
L 119.609018 263.213796 
L 120.193396 263.126428 
L 120.81024 262.798967 
L 121.52448 262.142819 
L 122.368582 261.035454 
L 123.017891 259.98148 
L 123.245149 261.08425 
L 124.316509 264.267584 
L 124.543767 264.72443 
L 124.576233 264.596496 
L 124.73856 264.396858 
L 125.030749 264.630163 
L 125.680058 265.16184 
L 126.361833 265.429723 
L 127.011142 265.461234 
L 127.725382 265.274068 
L 128.537018 264.816439 
L 131.751098 262.420377 
L 134.283404 259.51611 
L 135.80928 257.431433 
L 139.834996 251.786788 
L 141.977716 249.158015 
L 143.438662 247.715713 
L 147.269585 244.473912 
L 149.769425 241.869512 
L 150.126545 241.496828 
L 151.944611 239.56365 
L 153.827607 237.784856 
L 154.866502 236.958742 
L 156.619636 235.720538 
L 158.989615 234.392645 
L 160.060975 234.023316 
L 160.288233 233.989987 
L 160.840145 233.824131 
L 161.067404 233.777284 
L 161.52192 233.639077 
L 161.749178 233.594536 
L 162.203695 233.45394 
L 162.430953 233.408787 
L 162.885469 233.267682 
L 163.112727 233.22278 
L 163.567244 233.083481 
L 163.794502 233.039227 
L 164.249018 232.903564 
L 164.508742 232.842295 
L 165.255447 232.658695 
L 165.839825 232.524745 
L 166.391738 232.380388 
L 167.657891 232.070945 
L 178.728611 228.456345 
L 184.897047 226.787256 
L 190.253847 225.19022 
L 197.168989 223.121218 
L 203.337425 221.605734 
L 211.583651 219.76427 
L 211.713513 220.185213 
L 211.843375 220.212737 
L 212.005702 219.906043 
L 212.038167 220.165627 
L 212.070633 219.890284 
L 212.103098 220.103188 
L 212.200495 219.778522 
L 212.23296 220.000919 
L 212.265425 219.726261 
L 212.297891 219.950806 
L 212.395287 219.628747 
L 212.427753 219.850999 
L 212.460218 219.58204 
L 212.492684 219.80239 
L 212.59008 219.492124 
L 212.622545 219.70833 
L 212.655011 219.451565 
L 212.687476 219.666309 
L 212.784873 219.379243 
L 212.817338 219.592077 
L 212.849804 219.347613 
L 212.882269 219.559871 
L 212.979665 219.2927 
L 213.012131 219.505666 
L 213.044596 219.269287 
L 213.077062 219.483833 
L 213.174458 219.229838 
L 213.206924 219.450588 
L 213.239389 219.214184 
L 213.271855 219.43811 
L 213.369251 219.187102 
L 213.434182 219.175658 
L 213.466647 219.415329 
L 213.564044 219.156356 
L 213.66144 219.407717 
L 213.758836 219.132597 
L 213.856233 219.408717 
L 213.953629 219.112807 
L 214.01856 219.103611 
L 214.051025 219.400285 
L 214.148422 219.08133 
L 214.180887 219.38785 
L 214.213353 219.067696 
L 214.245818 219.377715 
L 214.343215 219.046906 
L 214.37568 219.32902 
L 214.408145 219.026926 
L 214.440611 219.297219 
L 214.538007 218.964898 
L 214.570473 219.231132 
L 214.602938 218.926943 
L 214.635404 219.199981 
L 214.7328 218.854276 
L 214.765265 219.148059 
L 214.797731 218.833177 
L 214.830196 219.122226 
L 214.927593 218.791344 
L 214.960058 219.076094 
L 214.992524 218.772702 
L 215.024989 219.055829 
L 215.122385 218.740708 
L 215.154851 219.022126 
L 215.187316 218.727226 
L 215.219782 219.008713 
L 215.317178 218.704764 
L 215.349644 218.988094 
L 215.414575 218.978151 
L 215.44704 218.847446 
L 215.511971 218.926212 
L 215.641833 218.919342 
L 215.869091 218.873558 
L 215.966487 218.767858 
L 216.063884 218.862804 
L 216.226211 218.799577 
L 216.323607 218.844675 
L 216.356073 218.797473 
L 216.5184 218.838021 
L 216.680727 218.80386 
L 216.843055 218.827076 
L 217.070313 218.808483 
L 217.492364 218.813639 
L 218.498793 218.85844 
L 219.635084 218.791005 
L 221.16096 218.470242 
L 222.005062 218.072448 
L 222.784233 217.499903 
L 224.01792 216.235674 
L 224.862022 215.10475 
L 225.316538 214.536831 
L 226.939811 212.577606 
L 229.082531 210.217764 
L 233.205644 206.378642 
L 233.952349 205.856076 
L 235.250967 204.889575 
L 235.80288 204.493491 
L 236.387258 204.204048 
L 238.107927 204.058279 
L 238.984495 204.226241 
L 240.250647 204.688329 
L 241.451869 205.391524 
L 242.912815 206.508663 
L 244.763345 208.230764 
L 246.419084 210.031483 
L 247.003462 210.611614 
L 247.58784 210.834017 
L 248.529338 211.322884 
L 250.80192 212.784085 
L 256.288582 215.714618 
L 258.268975 216.462551 
L 260.736349 217.146609 
L 263.495913 217.67953 
L 266.482735 218.022021 
L 269.72928 218.164598 
L 272.748567 218.127367 
L 273.040756 217.811458 
L 273.365411 217.654647 
L 273.949789 217.667022 
L 274.534167 217.545469 
L 275.313338 217.29262 
L 278.884538 216.632415 
L 282.098618 215.933078 
L 282.910255 215.635218 
L 283.527098 215.439572 
L 285.312698 214.993683 
L 286.838575 214.658747 
L 287.000902 214.687014 
L 288.072262 214.338591 
L 291.578531 213.686456 
L 297.22752 212.996651 
L 302.454458 212.650023 
L 307.811258 212.50887 
L 315.667898 212.289551 
L 320.927302 211.915197 
L 326.608756 211.275036 
L 330.699404 210.648235 
L 334.692655 209.804892 
L 339.205353 208.616191 
L 351.347433 205.269772 
L 354.042065 204.866473 
L 354.171927 205.027101 
L 354.204393 205.014483 
L 354.334255 205.033162 
L 355.08096 204.407327 
L 356.087389 204.452445 
L 358.619695 204.468239 
L 358.944349 204.658449 
L 359.463796 204.697077 
L 360.470225 204.431761 
L 361.476655 204.349161 
L 363.619375 204.455182 
L 370.599447 205.071482 
L 373.29408 205.454756 
L 373.456407 205.655612 
L 374.430371 205.448873 
L 377.287331 205.863769 
L 380.07936 205.930311 
L 385.79328 205.401062 
L 392.805818 204.373073 
L 395.987433 204.299161 
L 398.487273 204.320254 
L 398.487273 204.320254 
" style="fill:none;stroke:#bf00bf;stroke-linecap:square;stroke-width:1.5;"/>
   </g>
   <g id="patch_3">
    <path d="M 57.6 307.584 
L 57.6 41.472 
" style="fill:none;stroke:#000000;stroke-linecap:square;stroke-linejoin:miter;stroke-width:0.8;"/>
   </g>
   <g id="patch_4">
    <path d="M 414.72 307.584 
L 414.72 41.472 
" style="fill:none;stroke:#000000;stroke-linecap:square;stroke-linejoin:miter;stroke-width:0.8;"/>
   </g>
   <g id="patch_5">
    <path d="M 57.6 307.584 
L 414.72 307.584 
" style="fill:none;stroke:#000000;stroke-linecap:square;stroke-linejoin:miter;stroke-width:0.8;"/>
   </g>
   <g id="patch_6">
    <path d="M 57.6 41.472 
L 414.72 41.472 
" style="fill:none;stroke:#000000;stroke-linecap:square;stroke-linejoin:miter;stroke-width:0.8;"/>
   </g>
   <g id="text_15">
    <!-- Plot of Object pose error norm over a single episode  -->
    <g transform="translate(77.670938 8.59725)scale(0.12 -0.12)">
     <defs>
      <path d="M 19.671875 64.796875 
L 19.671875 37.40625 
L 32.078125 37.40625 
Q 38.96875 37.40625 42.71875 40.96875 
Q 46.484375 44.53125 46.484375 51.125 
Q 46.484375 57.671875 42.71875 61.234375 
Q 38.96875 64.796875 32.078125 64.796875 
z
M 9.8125 72.90625 
L 32.078125 72.90625 
Q 44.34375 72.90625 50.609375 67.359375 
Q 56.890625 61.8125 56.890625 51.125 
Q 56.890625 40.328125 50.609375 34.8125 
Q 44.34375 29.296875 32.078125 29.296875 
L 19.671875 29.296875 
L 19.671875 0 
L 9.8125 0 
z
" id="DejaVuSans-80"/>
      <path d="M 9.421875 75.984375 
L 18.40625 75.984375 
L 18.40625 0 
L 9.421875 0 
z
" id="DejaVuSans-108"/>
      <path id="DejaVuSans-32"/>
      <path d="M 37.109375 75.984375 
L 37.109375 68.5 
L 28.515625 68.5 
Q 23.6875 68.5 21.796875 66.546875 
Q 19.921875 64.59375 19.921875 59.515625 
L 19.921875 54.6875 
L 34.71875 54.6875 
L 34.71875 47.703125 
L 19.921875 47.703125 
L 19.921875 0 
L 10.890625 0 
L 10.890625 47.703125 
L 2.296875 47.703125 
L 2.296875 54.6875 
L 10.890625 54.6875 
L 10.890625 58.5 
Q 10.890625 67.625 15.140625 71.796875 
Q 19.390625 75.984375 28.609375 75.984375 
z
" id="DejaVuSans-102"/>
      <path d="M 48.78125 52.59375 
L 48.78125 44.1875 
Q 44.96875 46.296875 41.140625 47.34375 
Q 37.3125 48.390625 33.40625 48.390625 
Q 24.65625 48.390625 19.8125 42.84375 
Q 14.984375 37.3125 14.984375 27.296875 
Q 14.984375 17.28125 19.8125 11.734375 
Q 24.65625 6.203125 33.40625 6.203125 
Q 37.3125 6.203125 41.140625 7.25 
Q 44.96875 8.296875 48.78125 10.40625 
L 48.78125 2.09375 
Q 45.015625 0.34375 40.984375 -0.53125 
Q 36.96875 -1.421875 32.421875 -1.421875 
Q 20.0625 -1.421875 12.78125 6.34375 
Q 5.515625 14.109375 5.515625 27.296875 
Q 5.515625 40.671875 12.859375 48.328125 
Q 20.21875 56 33.015625 56 
Q 37.15625 56 41.109375 55.140625 
Q 45.0625 54.296875 48.78125 52.59375 
z
" id="DejaVuSans-99"/>
      <path d="M 2.984375 54.6875 
L 12.5 54.6875 
L 29.59375 8.796875 
L 46.6875 54.6875 
L 56.203125 54.6875 
L 35.6875 0 
L 23.484375 0 
z
" id="DejaVuSans-118"/>
      <path d="M 34.28125 27.484375 
Q 23.390625 27.484375 19.1875 25 
Q 14.984375 22.515625 14.984375 16.5 
Q 14.984375 11.71875 18.140625 8.90625 
Q 21.296875 6.109375 26.703125 6.109375 
Q 34.1875 6.109375 38.703125 11.40625 
Q 43.21875 16.703125 43.21875 25.484375 
L 43.21875 27.484375 
z
M 52.203125 31.203125 
L 52.203125 0 
L 43.21875 0 
L 43.21875 8.296875 
Q 40.140625 3.328125 35.546875 0.953125 
Q 30.953125 -1.421875 24.3125 -1.421875 
Q 15.921875 -1.421875 10.953125 3.296875 
Q 6 8.015625 6 15.921875 
Q 6 25.140625 12.171875 29.828125 
Q 18.359375 34.515625 30.609375 34.515625 
L 43.21875 34.515625 
L 43.21875 35.40625 
Q 43.21875 41.609375 39.140625 45 
Q 35.0625 48.390625 27.6875 48.390625 
Q 23 48.390625 18.546875 47.265625 
Q 14.109375 46.140625 10.015625 43.890625 
L 10.015625 52.203125 
Q 14.9375 54.109375 19.578125 55.046875 
Q 24.21875 56 28.609375 56 
Q 40.484375 56 46.34375 49.84375 
Q 52.203125 43.703125 52.203125 31.203125 
z
" id="DejaVuSans-97"/>
      <path d="M 45.40625 27.984375 
Q 45.40625 37.75 41.375 43.109375 
Q 37.359375 48.484375 30.078125 48.484375 
Q 22.859375 48.484375 18.828125 43.109375 
Q 14.796875 37.75 14.796875 27.984375 
Q 14.796875 18.265625 18.828125 12.890625 
Q 22.859375 7.515625 30.078125 7.515625 
Q 37.359375 7.515625 41.375 12.890625 
Q 45.40625 18.265625 45.40625 27.984375 
z
M 54.390625 6.78125 
Q 54.390625 -7.171875 48.1875 -13.984375 
Q 42 -20.796875 29.203125 -20.796875 
Q 24.46875 -20.796875 20.265625 -20.09375 
Q 16.0625 -19.390625 12.109375 -17.921875 
L 12.109375 -9.1875 
Q 16.0625 -11.328125 19.921875 -12.34375 
Q 23.78125 -13.375 27.78125 -13.375 
Q 36.625 -13.375 41.015625 -8.765625 
Q 45.40625 -4.15625 45.40625 5.171875 
L 45.40625 9.625 
Q 42.625 4.78125 38.28125 2.390625 
Q 33.9375 0 27.875 0 
Q 17.828125 0 11.671875 7.65625 
Q 5.515625 15.328125 5.515625 27.984375 
Q 5.515625 40.671875 11.671875 48.328125 
Q 17.828125 56 27.875 56 
Q 33.9375 56 38.28125 53.609375 
Q 42.625 51.21875 45.40625 46.390625 
L 45.40625 54.6875 
L 54.390625 54.6875 
z
" id="DejaVuSans-103"/>
      <path d="M 45.40625 46.390625 
L 45.40625 75.984375 
L 54.390625 75.984375 
L 54.390625 0 
L 45.40625 0 
L 45.40625 8.203125 
Q 42.578125 3.328125 38.25 0.953125 
Q 33.9375 -1.421875 27.875 -1.421875 
Q 17.96875 -1.421875 11.734375 6.484375 
Q 5.515625 14.40625 5.515625 27.296875 
Q 5.515625 40.1875 11.734375 48.09375 
Q 17.96875 56 27.875 56 
Q 33.9375 56 38.25 53.625 
Q 42.578125 51.265625 45.40625 46.390625 
z
M 14.796875 27.296875 
Q 14.796875 17.390625 18.875 11.75 
Q 22.953125 6.109375 30.078125 6.109375 
Q 37.203125 6.109375 41.296875 11.75 
Q 45.40625 17.390625 45.40625 27.296875 
Q 45.40625 37.203125 41.296875 42.84375 
Q 37.203125 48.484375 30.078125 48.484375 
Q 22.953125 48.484375 18.875 42.84375 
Q 14.796875 37.203125 14.796875 27.296875 
z
" id="DejaVuSans-100"/>
     </defs>
     <use xlink:href="#DejaVuSans-80"/>
     <use x="60.302734" xlink:href="#DejaVuSans-108"/>
     <use x="88.085938" xlink:href="#DejaVuSans-111"/>
     <use x="149.267578" xlink:href="#DejaVuSans-116"/>
     <use x="188.476562" xlink:href="#DejaVuSans-32"/>
     <use x="220.263672" xlink:href="#DejaVuSans-111"/>
     <use x="281.445312" xlink:href="#DejaVuSans-102"/>
     <use x="316.650391" xlink:href="#DejaVuSans-32"/>
     <use x="348.4375" xlink:href="#DejaVuSans-79"/>
     <use x="427.148438" xlink:href="#DejaVuSans-98"/>
     <use x="490.625" xlink:href="#DejaVuSans-106"/>
     <use x="518.408203" xlink:href="#DejaVuSans-101"/>
     <use x="579.931641" xlink:href="#DejaVuSans-99"/>
     <use x="634.912109" xlink:href="#DejaVuSans-116"/>
     <use x="674.121094" xlink:href="#DejaVuSans-32"/>
     <use x="705.908203" xlink:href="#DejaVuSans-112"/>
     <use x="769.384766" xlink:href="#DejaVuSans-111"/>
     <use x="830.566406" xlink:href="#DejaVuSans-115"/>
     <use x="882.666016" xlink:href="#DejaVuSans-101"/>
     <use x="944.189453" xlink:href="#DejaVuSans-32"/>
     <use x="975.976562" xlink:href="#DejaVuSans-101"/>
     <use x="1037.5" xlink:href="#DejaVuSans-114"/>
     <use x="1076.863281" xlink:href="#DejaVuSans-114"/>
     <use x="1115.726562" xlink:href="#DejaVuSans-111"/>
     <use x="1176.908203" xlink:href="#DejaVuSans-114"/>
     <use x="1218.021484" xlink:href="#DejaVuSans-32"/>
     <use x="1249.808594" xlink:href="#DejaVuSans-110"/>
     <use x="1313.1875" xlink:href="#DejaVuSans-111"/>
     <use x="1374.369141" xlink:href="#DejaVuSans-114"/>
     <use x="1413.732422" xlink:href="#DejaVuSans-109"/>
     <use x="1511.144531" xlink:href="#DejaVuSans-32"/>
     <use x="1542.931641" xlink:href="#DejaVuSans-111"/>
     <use x="1604.113281" xlink:href="#DejaVuSans-118"/>
     <use x="1663.292969" xlink:href="#DejaVuSans-101"/>
     <use x="1724.816406" xlink:href="#DejaVuSans-114"/>
     <use x="1765.929688" xlink:href="#DejaVuSans-32"/>
     <use x="1797.716797" xlink:href="#DejaVuSans-97"/>
     <use x="1858.996094" xlink:href="#DejaVuSans-32"/>
     <use x="1890.783203" xlink:href="#DejaVuSans-115"/>
     <use x="1942.882812" xlink:href="#DejaVuSans-105"/>
     <use x="1970.666016" xlink:href="#DejaVuSans-110"/>
     <use x="2034.044922" xlink:href="#DejaVuSans-103"/>
     <use x="2097.521484" xlink:href="#DejaVuSans-108"/>
     <use x="2125.304688" xlink:href="#DejaVuSans-101"/>
     <use x="2186.828125" xlink:href="#DejaVuSans-32"/>
     <use x="2218.615234" xlink:href="#DejaVuSans-101"/>
     <use x="2280.138672" xlink:href="#DejaVuSans-112"/>
     <use x="2343.615234" xlink:href="#DejaVuSans-105"/>
     <use x="2371.398438" xlink:href="#DejaVuSans-115"/>
     <use x="2423.498047" xlink:href="#DejaVuSans-111"/>
     <use x="2484.679688" xlink:href="#DejaVuSans-100"/>
     <use x="2548.15625" xlink:href="#DejaVuSans-101"/>
     <use x="2609.679688" xlink:href="#DejaVuSans-32"/>
    </g>
    <!--  Avg object pose error norm: Residual RL = 0.321, Standard = 0.273,  -->
    <g transform="translate(26.875313 22.034625)scale(0.12 -0.12)">
     <defs>
      <path d="M 34.1875 63.1875 
L 20.796875 26.90625 
L 47.609375 26.90625 
z
M 28.609375 72.90625 
L 39.796875 72.90625 
L 67.578125 0 
L 57.328125 0 
L 50.6875 18.703125 
L 17.828125 18.703125 
L 11.1875 0 
L 0.78125 0 
z
" id="DejaVuSans-65"/>
      <path d="M 11.71875 12.40625 
L 22.015625 12.40625 
L 22.015625 0 
L 11.71875 0 
z
M 11.71875 51.703125 
L 22.015625 51.703125 
L 22.015625 39.3125 
L 11.71875 39.3125 
z
" id="DejaVuSans-58"/>
      <path d="M 44.390625 34.1875 
Q 47.5625 33.109375 50.5625 29.59375 
Q 53.5625 26.078125 56.59375 19.921875 
L 66.609375 0 
L 56 0 
L 46.6875 18.703125 
Q 43.0625 26.03125 39.671875 28.421875 
Q 36.28125 30.8125 30.421875 30.8125 
L 19.671875 30.8125 
L 19.671875 0 
L 9.8125 0 
L 9.8125 72.90625 
L 32.078125 72.90625 
Q 44.578125 72.90625 50.734375 67.671875 
Q 56.890625 62.453125 56.890625 51.90625 
Q 56.890625 45.015625 53.6875 40.46875 
Q 50.484375 35.9375 44.390625 34.1875 
z
M 19.671875 64.796875 
L 19.671875 38.921875 
L 32.078125 38.921875 
Q 39.203125 38.921875 42.84375 42.21875 
Q 46.484375 45.515625 46.484375 51.90625 
Q 46.484375 58.296875 42.84375 61.546875 
Q 39.203125 64.796875 32.078125 64.796875 
z
" id="DejaVuSans-82"/>
      <path d="M 9.8125 72.90625 
L 19.671875 72.90625 
L 19.671875 8.296875 
L 55.171875 8.296875 
L 55.171875 0 
L 9.8125 0 
z
" id="DejaVuSans-76"/>
      <path d="M 10.59375 45.40625 
L 73.1875 45.40625 
L 73.1875 37.203125 
L 10.59375 37.203125 
z
M 10.59375 25.484375 
L 73.1875 25.484375 
L 73.1875 17.1875 
L 10.59375 17.1875 
z
" id="DejaVuSans-61"/>
      <path d="M 11.71875 12.40625 
L 22.015625 12.40625 
L 22.015625 4 
L 14.015625 -11.625 
L 7.71875 -11.625 
L 11.71875 4 
z
" id="DejaVuSans-44"/>
      <path d="M 53.515625 70.515625 
L 53.515625 60.890625 
Q 47.90625 63.578125 42.921875 64.890625 
Q 37.9375 66.21875 33.296875 66.21875 
Q 25.25 66.21875 20.875 63.09375 
Q 16.5 59.96875 16.5 54.203125 
Q 16.5 49.359375 19.40625 46.890625 
Q 22.3125 44.4375 30.421875 42.921875 
L 36.375 41.703125 
Q 47.40625 39.59375 52.65625 34.296875 
Q 57.90625 29 57.90625 20.125 
Q 57.90625 9.515625 50.796875 4.046875 
Q 43.703125 -1.421875 29.984375 -1.421875 
Q 24.8125 -1.421875 18.96875 -0.25 
Q 13.140625 0.921875 6.890625 3.21875 
L 6.890625 13.375 
Q 12.890625 10.015625 18.65625 8.296875 
Q 24.421875 6.59375 29.984375 6.59375 
Q 38.421875 6.59375 43.015625 9.90625 
Q 47.609375 13.234375 47.609375 19.390625 
Q 47.609375 24.75 44.3125 27.78125 
Q 41.015625 30.8125 33.5 32.328125 
L 27.484375 33.5 
Q 16.453125 35.6875 11.515625 40.375 
Q 6.59375 45.0625 6.59375 53.421875 
Q 6.59375 63.09375 13.40625 68.65625 
Q 20.21875 74.21875 32.171875 74.21875 
Q 37.3125 74.21875 42.625 73.28125 
Q 47.953125 72.359375 53.515625 70.515625 
z
" id="DejaVuSans-83"/>
      <path d="M 8.203125 72.90625 
L 55.078125 72.90625 
L 55.078125 68.703125 
L 28.609375 0 
L 18.3125 0 
L 43.21875 64.59375 
L 8.203125 64.59375 
z
" id="DejaVuSans-55"/>
     </defs>
     <use xlink:href="#DejaVuSans-32"/>
     <use x="31.787109" xlink:href="#DejaVuSans-65"/>
     <use x="94.320312" xlink:href="#DejaVuSans-118"/>
     <use x="153.5" xlink:href="#DejaVuSans-103"/>
     <use x="216.976562" xlink:href="#DejaVuSans-32"/>
     <use x="248.763672" xlink:href="#DejaVuSans-111"/>
     <use x="309.945312" xlink:href="#DejaVuSans-98"/>
     <use x="373.421875" xlink:href="#DejaVuSans-106"/>
     <use x="401.205078" xlink:href="#DejaVuSans-101"/>
     <use x="462.728516" xlink:href="#DejaVuSans-99"/>
     <use x="517.708984" xlink:href="#DejaVuSans-116"/>
     <use x="556.917969" xlink:href="#DejaVuSans-32"/>
     <use x="588.705078" xlink:href="#DejaVuSans-112"/>
     <use x="652.181641" xlink:href="#DejaVuSans-111"/>
     <use x="713.363281" xlink:href="#DejaVuSans-115"/>
     <use x="765.462891" xlink:href="#DejaVuSans-101"/>
     <use x="826.986328" xlink:href="#DejaVuSans-32"/>
     <use x="858.773438" xlink:href="#DejaVuSans-101"/>
     <use x="920.296875" xlink:href="#DejaVuSans-114"/>
     <use x="959.660156" xlink:href="#DejaVuSans-114"/>
     <use x="998.523438" xlink:href="#DejaVuSans-111"/>
     <use x="1059.705078" xlink:href="#DejaVuSans-114"/>
     <use x="1100.818359" xlink:href="#DejaVuSans-32"/>
     <use x="1132.605469" xlink:href="#DejaVuSans-110"/>
     <use x="1195.984375" xlink:href="#DejaVuSans-111"/>
     <use x="1257.166016" xlink:href="#DejaVuSans-114"/>
     <use x="1296.529297" xlink:href="#DejaVuSans-109"/>
     <use x="1393.941406" xlink:href="#DejaVuSans-58"/>
     <use x="1427.632812" xlink:href="#DejaVuSans-32"/>
     <use x="1459.419922" xlink:href="#DejaVuSans-82"/>
     <use x="1524.402344" xlink:href="#DejaVuSans-101"/>
     <use x="1585.925781" xlink:href="#DejaVuSans-115"/>
     <use x="1638.025391" xlink:href="#DejaVuSans-105"/>
     <use x="1665.808594" xlink:href="#DejaVuSans-100"/>
     <use x="1729.285156" xlink:href="#DejaVuSans-117"/>
     <use x="1792.664062" xlink:href="#DejaVuSans-97"/>
     <use x="1853.943359" xlink:href="#DejaVuSans-108"/>
     <use x="1881.726562" xlink:href="#DejaVuSans-32"/>
     <use x="1913.513672" xlink:href="#DejaVuSans-82"/>
     <use x="1982.996094" xlink:href="#DejaVuSans-76"/>
     <use x="2038.708984" xlink:href="#DejaVuSans-32"/>
     <use x="2070.496094" xlink:href="#DejaVuSans-61"/>
     <use x="2154.285156" xlink:href="#DejaVuSans-32"/>
     <use x="2186.072266" xlink:href="#DejaVuSans-48"/>
     <use x="2249.695312" xlink:href="#DejaVuSans-46"/>
     <use x="2281.482422" xlink:href="#DejaVuSans-51"/>
     <use x="2345.105469" xlink:href="#DejaVuSans-50"/>
     <use x="2408.728516" xlink:href="#DejaVuSans-49"/>
     <use x="2472.351562" xlink:href="#DejaVuSans-44"/>
     <use x="2504.138672" xlink:href="#DejaVuSans-32"/>
     <use x="2535.925781" xlink:href="#DejaVuSans-83"/>
     <use x="2599.402344" xlink:href="#DejaVuSans-116"/>
     <use x="2638.611328" xlink:href="#DejaVuSans-97"/>
     <use x="2699.890625" xlink:href="#DejaVuSans-110"/>
     <use x="2763.269531" xlink:href="#DejaVuSans-100"/>
     <use x="2826.746094" xlink:href="#DejaVuSans-97"/>
     <use x="2888.025391" xlink:href="#DejaVuSans-114"/>
     <use x="2927.388672" xlink:href="#DejaVuSans-100"/>
     <use x="2990.865234" xlink:href="#DejaVuSans-32"/>
     <use x="3022.652344" xlink:href="#DejaVuSans-61"/>
     <use x="3106.441406" xlink:href="#DejaVuSans-32"/>
     <use x="3138.228516" xlink:href="#DejaVuSans-48"/>
     <use x="3201.851562" xlink:href="#DejaVuSans-46"/>
     <use x="3233.638672" xlink:href="#DejaVuSans-50"/>
     <use x="3297.261719" xlink:href="#DejaVuSans-55"/>
     <use x="3360.884766" xlink:href="#DejaVuSans-51"/>
     <use x="3424.507812" xlink:href="#DejaVuSans-44"/>
     <use x="3456.294922" xlink:href="#DejaVuSans-32"/>
    </g>
    <!--  Baseline = 0.178 -->
    <g transform="translate(182.795625 35.472)scale(0.12 -0.12)">
     <defs>
      <path d="M 19.671875 34.8125 
L 19.671875 8.109375 
L 35.5 8.109375 
Q 43.453125 8.109375 47.28125 11.40625 
Q 51.125 14.703125 51.125 21.484375 
Q 51.125 28.328125 47.28125 31.5625 
Q 43.453125 34.8125 35.5 34.8125 
z
M 19.671875 64.796875 
L 19.671875 42.828125 
L 34.28125 42.828125 
Q 41.5 42.828125 45.03125 45.53125 
Q 48.578125 48.25 48.578125 53.8125 
Q 48.578125 59.328125 45.03125 62.0625 
Q 41.5 64.796875 34.28125 64.796875 
z
M 9.8125 72.90625 
L 35.015625 72.90625 
Q 46.296875 72.90625 52.390625 68.21875 
Q 58.5 63.53125 58.5 54.890625 
Q 58.5 48.1875 55.375 44.234375 
Q 52.25 40.28125 46.1875 39.3125 
Q 53.46875 37.75 57.5 32.78125 
Q 61.53125 27.828125 61.53125 20.40625 
Q 61.53125 10.640625 54.890625 5.3125 
Q 48.25 0 35.984375 0 
L 9.8125 0 
z
" id="DejaVuSans-66"/>
     </defs>
     <use xlink:href="#DejaVuSans-32"/>
     <use x="31.787109" xlink:href="#DejaVuSans-66"/>
     <use x="100.390625" xlink:href="#DejaVuSans-97"/>
     <use x="161.669922" xlink:href="#DejaVuSans-115"/>
     <use x="213.769531" xlink:href="#DejaVuSans-101"/>
     <use x="275.292969" xlink:href="#DejaVuSans-108"/>
     <use x="303.076172" xlink:href="#DejaVuSans-105"/>
     <use x="330.859375" xlink:href="#DejaVuSans-110"/>
     <use x="394.238281" xlink:href="#DejaVuSans-101"/>
     <use x="455.761719" xlink:href="#DejaVuSans-32"/>
     <use x="487.548828" xlink:href="#DejaVuSans-61"/>
     <use x="571.337891" xlink:href="#DejaVuSans-32"/>
     <use x="603.125" xlink:href="#DejaVuSans-48"/>
     <use x="666.748047" xlink:href="#DejaVuSans-46"/>
     <use x="698.535156" xlink:href="#DejaVuSans-49"/>
     <use x="762.158203" xlink:href="#DejaVuSans-55"/>
     <use x="825.78125" xlink:href="#DejaVuSans-56"/>
    </g>
   </g>
   <g id="legend_1">
    <g id="patch_7">
     <path d="M 64.6 93.506375 
L 154.529687 93.506375 
Q 156.529687 93.506375 156.529687 91.506375 
L 156.529687 48.472 
Q 156.529687 46.472 154.529687 46.472 
L 64.6 46.472 
Q 62.6 46.472 62.6 48.472 
L 62.6 91.506375 
Q 62.6 93.506375 64.6 93.506375 
z
" style="fill:#ffffff;opacity:0.8;stroke:#cccccc;stroke-linejoin:miter;"/>
    </g>
    <g id="line2d_16">
     <path d="M 66.6 54.570438 
L 86.6 54.570438 
" style="fill:none;stroke:#1f77b4;stroke-linecap:square;stroke-width:1.5;"/>
    </g>
    <g id="line2d_17"/>
    <g id="text_16">
     <!-- Residual RL -->
     <g transform="translate(94.6 58.070438)scale(0.1 -0.1)">
      <use xlink:href="#DejaVuSans-82"/>
      <use x="64.982422" xlink:href="#DejaVuSans-101"/>
      <use x="126.505859" xlink:href="#DejaVuSans-115"/>
      <use x="178.605469" xlink:href="#DejaVuSans-105"/>
      <use x="206.388672" xlink:href="#DejaVuSans-100"/>
      <use x="269.865234" xlink:href="#DejaVuSans-117"/>
      <use x="333.244141" xlink:href="#DejaVuSans-97"/>
      <use x="394.523438" xlink:href="#DejaVuSans-108"/>
      <use x="422.306641" xlink:href="#DejaVuSans-32"/>
      <use x="454.09375" xlink:href="#DejaVuSans-82"/>
      <use x="523.576172" xlink:href="#DejaVuSans-76"/>
     </g>
    </g>
    <g id="line2d_18">
     <path d="M 66.6 69.248563 
L 86.6 69.248563 
" style="fill:none;stroke:#ff7f0e;stroke-linecap:square;stroke-width:1.5;"/>
    </g>
    <g id="line2d_19"/>
    <g id="text_17">
     <!-- Standard -->
     <g transform="translate(94.6 72.748563)scale(0.1 -0.1)">
      <use xlink:href="#DejaVuSans-83"/>
      <use x="63.476562" xlink:href="#DejaVuSans-116"/>
      <use x="102.685547" xlink:href="#DejaVuSans-97"/>
      <use x="163.964844" xlink:href="#DejaVuSans-110"/>
      <use x="227.34375" xlink:href="#DejaVuSans-100"/>
      <use x="290.820312" xlink:href="#DejaVuSans-97"/>
      <use x="352.099609" xlink:href="#DejaVuSans-114"/>
      <use x="391.462891" xlink:href="#DejaVuSans-100"/>
     </g>
    </g>
    <g id="line2d_20">
     <path d="M 66.6 83.926688 
L 86.6 83.926688 
" style="fill:none;stroke:#bf00bf;stroke-linecap:square;stroke-width:1.5;"/>
    </g>
    <g id="line2d_21"/>
    <g id="text_18">
     <!-- Baseline -->
     <g transform="translate(94.6 87.426688)scale(0.1 -0.1)">
      <use xlink:href="#DejaVuSans-66"/>
      <use x="68.603516" xlink:href="#DejaVuSans-97"/>
      <use x="129.882812" xlink:href="#DejaVuSans-115"/>
      <use x="181.982422" xlink:href="#DejaVuSans-101"/>
      <use x="243.505859" xlink:href="#DejaVuSans-108"/>
      <use x="271.289062" xlink:href="#DejaVuSans-105"/>
      <use x="299.072266" xlink:href="#DejaVuSans-110"/>
      <use x="362.451172" xlink:href="#DejaVuSans-101"/>
     </g>
    </g>
   </g>
  </g>
 </g>
 <defs>
  <clipPath id="p8df8712bae">
   <rect height="266.112" width="357.12" x="57.6" y="41.472"/>
  </clipPath>
 </defs>
</svg>
