<?xml version="1.0" encoding="utf-8" standalone="no"?>
<!DOCTYPE svg PUBLIC "-//W3C//DTD SVG 1.1//EN"
  "http://www.w3.org/Graphics/SVG/1.1/DTD/svg11.dtd">
<!-- Created with matplotlib (https://matplotlib.org/) -->
<svg height="345.6pt" version="1.1" viewBox="0 0 460.8 345.6" width="460.8pt" xmlns="http://www.w3.org/2000/svg" xmlns:xlink="http://www.w3.org/1999/xlink">
 <metadata>
  <rdf:RDF xmlns:cc="http://creativecommons.org/ns#" xmlns:dc="http://purl.org/dc/elements/1.1/" xmlns:rdf="http://www.w3.org/1999/02/22-rdf-syntax-ns#">
   <cc:Work>
    <dc:type rdf:resource="http://purl.org/dc/dcmitype/StillImage"/>
    <dc:date>2022-07-22T10:28:52.075401</dc:date>
    <dc:format>image/svg+xml</dc:format>
    <dc:creator>
     <cc:Agent>
      <dc:title>Matplotlib v3.3.4, https://matplotlib.org/</dc:title>
     </cc:Agent>
    </dc:creator>
   </cc:Work>
  </rdf:RDF>
 </metadata>
 <defs>
  <style type="text/css">*{stroke-linecap:butt;stroke-linejoin:round;}</style>
 </defs>
 <g id="figure_1">
  <g id="patch_1">
   <path d="M 0 345.6 
L 460.8 345.6 
L 460.8 0 
L 0 0 
z
" style="fill:#ffffff;"/>
  </g>
  <g id="axes_1">
   <g id="patch_2">
    <path d="M 57.6 307.584 
L 414.72 307.584 
L 414.72 41.472 
L 57.6 41.472 
z
" style="fill:#ffffff;"/>
   </g>
   <g id="matplotlib.axis_1">
    <g id="xtick_1">
     <g id="line2d_1">
      <defs>
       <path d="M 0 0 
L 0 3.5 
" id="ma6cc2a527f" style="stroke:#000000;stroke-width:0.8;"/>
      </defs>
      <g>
       <use style="stroke:#000000;stroke-width:0.8;" x="73.832727" xlink:href="#ma6cc2a527f" y="307.584"/>
      </g>
     </g>
     <g id="text_1">
      <!-- 0 -->
      <g transform="translate(70.651477 322.182437)scale(0.1 -0.1)">
       <defs>
        <path d="M 31.78125 66.40625 
Q 24.171875 66.40625 20.328125 58.90625 
Q 16.5 51.421875 16.5 36.375 
Q 16.5 21.390625 20.328125 13.890625 
Q 24.171875 6.390625 31.78125 6.390625 
Q 39.453125 6.390625 43.28125 13.890625 
Q 47.125 21.390625 47.125 36.375 
Q 47.125 51.421875 43.28125 58.90625 
Q 39.453125 66.40625 31.78125 66.40625 
z
M 31.78125 74.21875 
Q 44.046875 74.21875 50.515625 64.515625 
Q 56.984375 54.828125 56.984375 36.375 
Q 56.984375 17.96875 50.515625 8.265625 
Q 44.046875 -1.421875 31.78125 -1.421875 
Q 19.53125 -1.421875 13.0625 8.265625 
Q 6.59375 17.96875 6.59375 36.375 
Q 6.59375 54.828125 13.0625 64.515625 
Q 19.53125 74.21875 31.78125 74.21875 
z
" id="DejaVuSans-48"/>
       </defs>
       <use xlink:href="#DejaVuSans-48"/>
      </g>
     </g>
    </g>
    <g id="xtick_2">
     <g id="line2d_2">
      <g>
       <use style="stroke:#000000;stroke-width:0.8;" x="138.763636" xlink:href="#ma6cc2a527f" y="307.584"/>
      </g>
     </g>
     <g id="text_2">
      <!-- 2000 -->
      <g transform="translate(126.038636 322.182437)scale(0.1 -0.1)">
       <defs>
        <path d="M 19.1875 8.296875 
L 53.609375 8.296875 
L 53.609375 0 
L 7.328125 0 
L 7.328125 8.296875 
Q 12.9375 14.109375 22.625 23.890625 
Q 32.328125 33.6875 34.8125 36.53125 
Q 39.546875 41.84375 41.421875 45.53125 
Q 43.3125 49.21875 43.3125 52.78125 
Q 43.3125 58.59375 39.234375 62.25 
Q 35.15625 65.921875 28.609375 65.921875 
Q 23.96875 65.921875 18.8125 64.3125 
Q 13.671875 62.703125 7.8125 59.421875 
L 7.8125 69.390625 
Q 13.765625 71.78125 18.9375 73 
Q 24.125 74.21875 28.421875 74.21875 
Q 39.75 74.21875 46.484375 68.546875 
Q 53.21875 62.890625 53.21875 53.421875 
Q 53.21875 48.921875 51.53125 44.890625 
Q 49.859375 40.875 45.40625 35.40625 
Q 44.1875 33.984375 37.640625 27.21875 
Q 31.109375 20.453125 19.1875 8.296875 
z
" id="DejaVuSans-50"/>
       </defs>
       <use xlink:href="#DejaVuSans-50"/>
       <use x="63.623047" xlink:href="#DejaVuSans-48"/>
       <use x="127.246094" xlink:href="#DejaVuSans-48"/>
       <use x="190.869141" xlink:href="#DejaVuSans-48"/>
      </g>
     </g>
    </g>
    <g id="xtick_3">
     <g id="line2d_3">
      <g>
       <use style="stroke:#000000;stroke-width:0.8;" x="203.694545" xlink:href="#ma6cc2a527f" y="307.584"/>
      </g>
     </g>
     <g id="text_3">
      <!-- 4000 -->
      <g transform="translate(190.969545 322.182437)scale(0.1 -0.1)">
       <defs>
        <path d="M 37.796875 64.3125 
L 12.890625 25.390625 
L 37.796875 25.390625 
z
M 35.203125 72.90625 
L 47.609375 72.90625 
L 47.609375 25.390625 
L 58.015625 25.390625 
L 58.015625 17.1875 
L 47.609375 17.1875 
L 47.609375 0 
L 37.796875 0 
L 37.796875 17.1875 
L 4.890625 17.1875 
L 4.890625 26.703125 
z
" id="DejaVuSans-52"/>
       </defs>
       <use xlink:href="#DejaVuSans-52"/>
       <use x="63.623047" xlink:href="#DejaVuSans-48"/>
       <use x="127.246094" xlink:href="#DejaVuSans-48"/>
       <use x="190.869141" xlink:href="#DejaVuSans-48"/>
      </g>
     </g>
    </g>
    <g id="xtick_4">
     <g id="line2d_4">
      <g>
       <use style="stroke:#000000;stroke-width:0.8;" x="268.625455" xlink:href="#ma6cc2a527f" y="307.584"/>
      </g>
     </g>
     <g id="text_4">
      <!-- 6000 -->
      <g transform="translate(255.900455 322.182437)scale(0.1 -0.1)">
       <defs>
        <path d="M 33.015625 40.375 
Q 26.375 40.375 22.484375 35.828125 
Q 18.609375 31.296875 18.609375 23.390625 
Q 18.609375 15.53125 22.484375 10.953125 
Q 26.375 6.390625 33.015625 6.390625 
Q 39.65625 6.390625 43.53125 10.953125 
Q 47.40625 15.53125 47.40625 23.390625 
Q 47.40625 31.296875 43.53125 35.828125 
Q 39.65625 40.375 33.015625 40.375 
z
M 52.59375 71.296875 
L 52.59375 62.3125 
Q 48.875 64.0625 45.09375 64.984375 
Q 41.3125 65.921875 37.59375 65.921875 
Q 27.828125 65.921875 22.671875 59.328125 
Q 17.53125 52.734375 16.796875 39.40625 
Q 19.671875 43.65625 24.015625 45.921875 
Q 28.375 48.1875 33.59375 48.1875 
Q 44.578125 48.1875 50.953125 41.515625 
Q 57.328125 34.859375 57.328125 23.390625 
Q 57.328125 12.15625 50.6875 5.359375 
Q 44.046875 -1.421875 33.015625 -1.421875 
Q 20.359375 -1.421875 13.671875 8.265625 
Q 6.984375 17.96875 6.984375 36.375 
Q 6.984375 53.65625 15.1875 63.9375 
Q 23.390625 74.21875 37.203125 74.21875 
Q 40.921875 74.21875 44.703125 73.484375 
Q 48.484375 72.75 52.59375 71.296875 
z
" id="DejaVuSans-54"/>
       </defs>
       <use xlink:href="#DejaVuSans-54"/>
       <use x="63.623047" xlink:href="#DejaVuSans-48"/>
       <use x="127.246094" xlink:href="#DejaVuSans-48"/>
       <use x="190.869141" xlink:href="#DejaVuSans-48"/>
      </g>
     </g>
    </g>
    <g id="xtick_5">
     <g id="line2d_5">
      <g>
       <use style="stroke:#000000;stroke-width:0.8;" x="333.556364" xlink:href="#ma6cc2a527f" y="307.584"/>
      </g>
     </g>
     <g id="text_5">
      <!-- 8000 -->
      <g transform="translate(320.831364 322.182437)scale(0.1 -0.1)">
       <defs>
        <path d="M 31.78125 34.625 
Q 24.75 34.625 20.71875 30.859375 
Q 16.703125 27.09375 16.703125 20.515625 
Q 16.703125 13.921875 20.71875 10.15625 
Q 24.75 6.390625 31.78125 6.390625 
Q 38.8125 6.390625 42.859375 10.171875 
Q 46.921875 13.96875 46.921875 20.515625 
Q 46.921875 27.09375 42.890625 30.859375 
Q 38.875 34.625 31.78125 34.625 
z
M 21.921875 38.8125 
Q 15.578125 40.375 12.03125 44.71875 
Q 8.5 49.078125 8.5 55.328125 
Q 8.5 64.0625 14.71875 69.140625 
Q 20.953125 74.21875 31.78125 74.21875 
Q 42.671875 74.21875 48.875 69.140625 
Q 55.078125 64.0625 55.078125 55.328125 
Q 55.078125 49.078125 51.53125 44.71875 
Q 48 40.375 41.703125 38.8125 
Q 48.828125 37.15625 52.796875 32.3125 
Q 56.78125 27.484375 56.78125 20.515625 
Q 56.78125 9.90625 50.3125 4.234375 
Q 43.84375 -1.421875 31.78125 -1.421875 
Q 19.734375 -1.421875 13.25 4.234375 
Q 6.78125 9.90625 6.78125 20.515625 
Q 6.78125 27.484375 10.78125 32.3125 
Q 14.796875 37.15625 21.921875 38.8125 
z
M 18.3125 54.390625 
Q 18.3125 48.734375 21.84375 45.5625 
Q 25.390625 42.390625 31.78125 42.390625 
Q 38.140625 42.390625 41.71875 45.5625 
Q 45.3125 48.734375 45.3125 54.390625 
Q 45.3125 60.0625 41.71875 63.234375 
Q 38.140625 66.40625 31.78125 66.40625 
Q 25.390625 66.40625 21.84375 63.234375 
Q 18.3125 60.0625 18.3125 54.390625 
z
" id="DejaVuSans-56"/>
       </defs>
       <use xlink:href="#DejaVuSans-56"/>
       <use x="63.623047" xlink:href="#DejaVuSans-48"/>
       <use x="127.246094" xlink:href="#DejaVuSans-48"/>
       <use x="190.869141" xlink:href="#DejaVuSans-48"/>
      </g>
     </g>
    </g>
    <g id="xtick_6">
     <g id="line2d_6">
      <g>
       <use style="stroke:#000000;stroke-width:0.8;" x="398.487273" xlink:href="#ma6cc2a527f" y="307.584"/>
      </g>
     </g>
     <g id="text_6">
      <!-- 10000 -->
      <g transform="translate(382.581023 322.182437)scale(0.1 -0.1)">
       <defs>
        <path d="M 12.40625 8.296875 
L 28.515625 8.296875 
L 28.515625 63.921875 
L 10.984375 60.40625 
L 10.984375 69.390625 
L 28.421875 72.90625 
L 38.28125 72.90625 
L 38.28125 8.296875 
L 54.390625 8.296875 
L 54.390625 0 
L 12.40625 0 
z
" id="DejaVuSans-49"/>
       </defs>
       <use xlink:href="#DejaVuSans-49"/>
       <use x="63.623047" xlink:href="#DejaVuSans-48"/>
       <use x="127.246094" xlink:href="#DejaVuSans-48"/>
       <use x="190.869141" xlink:href="#DejaVuSans-48"/>
       <use x="254.492188" xlink:href="#DejaVuSans-48"/>
      </g>
     </g>
    </g>
    <g id="text_7">
     <!-- Num-time-steps -->
     <g transform="translate(196.056094 335.860562)scale(0.1 -0.1)">
      <defs>
       <path d="M 9.8125 72.90625 
L 23.09375 72.90625 
L 55.421875 11.921875 
L 55.421875 72.90625 
L 64.984375 72.90625 
L 64.984375 0 
L 51.703125 0 
L 19.390625 60.984375 
L 19.390625 0 
L 9.8125 0 
z
" id="DejaVuSans-78"/>
       <path d="M 8.5 21.578125 
L 8.5 54.6875 
L 17.484375 54.6875 
L 17.484375 21.921875 
Q 17.484375 14.15625 20.5 10.265625 
Q 23.53125 6.390625 29.59375 6.390625 
Q 36.859375 6.390625 41.078125 11.03125 
Q 45.3125 15.671875 45.3125 23.6875 
L 45.3125 54.6875 
L 54.296875 54.6875 
L 54.296875 0 
L 45.3125 0 
L 45.3125 8.40625 
Q 42.046875 3.421875 37.71875 1 
Q 33.40625 -1.421875 27.6875 -1.421875 
Q 18.265625 -1.421875 13.375 4.4375 
Q 8.5 10.296875 8.5 21.578125 
z
M 31.109375 56 
z
" id="DejaVuSans-117"/>
       <path d="M 52 44.1875 
Q 55.375 50.25 60.0625 53.125 
Q 64.75 56 71.09375 56 
Q 79.640625 56 84.28125 50.015625 
Q 88.921875 44.046875 88.921875 33.015625 
L 88.921875 0 
L 79.890625 0 
L 79.890625 32.71875 
Q 79.890625 40.578125 77.09375 44.375 
Q 74.3125 48.1875 68.609375 48.1875 
Q 61.625 48.1875 57.5625 43.546875 
Q 53.515625 38.921875 53.515625 30.90625 
L 53.515625 0 
L 44.484375 0 
L 44.484375 32.71875 
Q 44.484375 40.625 41.703125 44.40625 
Q 38.921875 48.1875 33.109375 48.1875 
Q 26.21875 48.1875 22.15625 43.53125 
Q 18.109375 38.875 18.109375 30.90625 
L 18.109375 0 
L 9.078125 0 
L 9.078125 54.6875 
L 18.109375 54.6875 
L 18.109375 46.1875 
Q 21.1875 51.21875 25.484375 53.609375 
Q 29.78125 56 35.6875 56 
Q 41.65625 56 45.828125 52.96875 
Q 50 49.953125 52 44.1875 
z
" id="DejaVuSans-109"/>
       <path d="M 4.890625 31.390625 
L 31.203125 31.390625 
L 31.203125 23.390625 
L 4.890625 23.390625 
z
" id="DejaVuSans-45"/>
       <path d="M 18.3125 70.21875 
L 18.3125 54.6875 
L 36.8125 54.6875 
L 36.8125 47.703125 
L 18.3125 47.703125 
L 18.3125 18.015625 
Q 18.3125 11.328125 20.140625 9.421875 
Q 21.96875 7.515625 27.59375 7.515625 
L 36.8125 7.515625 
L 36.8125 0 
L 27.59375 0 
Q 17.1875 0 13.234375 3.875 
Q 9.28125 7.765625 9.28125 18.015625 
L 9.28125 47.703125 
L 2.6875 47.703125 
L 2.6875 54.6875 
L 9.28125 54.6875 
L 9.28125 70.21875 
z
" id="DejaVuSans-116"/>
       <path d="M 9.421875 54.6875 
L 18.40625 54.6875 
L 18.40625 0 
L 9.421875 0 
z
M 9.421875 75.984375 
L 18.40625 75.984375 
L 18.40625 64.59375 
L 9.421875 64.59375 
z
" id="DejaVuSans-105"/>
       <path d="M 56.203125 29.59375 
L 56.203125 25.203125 
L 14.890625 25.203125 
Q 15.484375 15.921875 20.484375 11.0625 
Q 25.484375 6.203125 34.421875 6.203125 
Q 39.59375 6.203125 44.453125 7.46875 
Q 49.3125 8.734375 54.109375 11.28125 
L 54.109375 2.78125 
Q 49.265625 0.734375 44.1875 -0.34375 
Q 39.109375 -1.421875 33.890625 -1.421875 
Q 20.796875 -1.421875 13.15625 6.1875 
Q 5.515625 13.8125 5.515625 26.8125 
Q 5.515625 40.234375 12.765625 48.109375 
Q 20.015625 56 32.328125 56 
Q 43.359375 56 49.78125 48.890625 
Q 56.203125 41.796875 56.203125 29.59375 
z
M 47.21875 32.234375 
Q 47.125 39.59375 43.09375 43.984375 
Q 39.0625 48.390625 32.421875 48.390625 
Q 24.90625 48.390625 20.390625 44.140625 
Q 15.875 39.890625 15.1875 32.171875 
z
" id="DejaVuSans-101"/>
       <path d="M 44.28125 53.078125 
L 44.28125 44.578125 
Q 40.484375 46.53125 36.375 47.5 
Q 32.28125 48.484375 27.875 48.484375 
Q 21.1875 48.484375 17.84375 46.4375 
Q 14.5 44.390625 14.5 40.28125 
Q 14.5 37.15625 16.890625 35.375 
Q 19.28125 33.59375 26.515625 31.984375 
L 29.59375 31.296875 
Q 39.15625 29.25 43.1875 25.515625 
Q 47.21875 21.78125 47.21875 15.09375 
Q 47.21875 7.46875 41.1875 3.015625 
Q 35.15625 -1.421875 24.609375 -1.421875 
Q 20.21875 -1.421875 15.453125 -0.5625 
Q 10.6875 0.296875 5.421875 2 
L 5.421875 11.28125 
Q 10.40625 8.6875 15.234375 7.390625 
Q 20.0625 6.109375 24.8125 6.109375 
Q 31.15625 6.109375 34.5625 8.28125 
Q 37.984375 10.453125 37.984375 14.40625 
Q 37.984375 18.0625 35.515625 20.015625 
Q 33.0625 21.96875 24.703125 23.78125 
L 21.578125 24.515625 
Q 13.234375 26.265625 9.515625 29.90625 
Q 5.8125 33.546875 5.8125 39.890625 
Q 5.8125 47.609375 11.28125 51.796875 
Q 16.75 56 26.8125 56 
Q 31.78125 56 36.171875 55.265625 
Q 40.578125 54.546875 44.28125 53.078125 
z
" id="DejaVuSans-115"/>
       <path d="M 18.109375 8.203125 
L 18.109375 -20.796875 
L 9.078125 -20.796875 
L 9.078125 54.6875 
L 18.109375 54.6875 
L 18.109375 46.390625 
Q 20.953125 51.265625 25.265625 53.625 
Q 29.59375 56 35.59375 56 
Q 45.5625 56 51.78125 48.09375 
Q 58.015625 40.1875 58.015625 27.296875 
Q 58.015625 14.40625 51.78125 6.484375 
Q 45.5625 -1.421875 35.59375 -1.421875 
Q 29.59375 -1.421875 25.265625 0.953125 
Q 20.953125 3.328125 18.109375 8.203125 
z
M 48.6875 27.296875 
Q 48.6875 37.203125 44.609375 42.84375 
Q 40.53125 48.484375 33.40625 48.484375 
Q 26.265625 48.484375 22.1875 42.84375 
Q 18.109375 37.203125 18.109375 27.296875 
Q 18.109375 17.390625 22.1875 11.75 
Q 26.265625 6.109375 33.40625 6.109375 
Q 40.53125 6.109375 44.609375 11.75 
Q 48.6875 17.390625 48.6875 27.296875 
z
" id="DejaVuSans-112"/>
      </defs>
      <use xlink:href="#DejaVuSans-78"/>
      <use x="74.804688" xlink:href="#DejaVuSans-117"/>
      <use x="138.183594" xlink:href="#DejaVuSans-109"/>
      <use x="235.595703" xlink:href="#DejaVuSans-45"/>
      <use x="271.679688" xlink:href="#DejaVuSans-116"/>
      <use x="310.888672" xlink:href="#DejaVuSans-105"/>
      <use x="338.671875" xlink:href="#DejaVuSans-109"/>
      <use x="436.083984" xlink:href="#DejaVuSans-101"/>
      <use x="497.607422" xlink:href="#DejaVuSans-45"/>
      <use x="533.691406" xlink:href="#DejaVuSans-115"/>
      <use x="585.791016" xlink:href="#DejaVuSans-116"/>
      <use x="625" xlink:href="#DejaVuSans-101"/>
      <use x="686.523438" xlink:href="#DejaVuSans-112"/>
      <use x="750" xlink:href="#DejaVuSans-115"/>
     </g>
    </g>
   </g>
   <g id="matplotlib.axis_2">
    <g id="ytick_1">
     <g id="line2d_7">
      <defs>
       <path d="M 0 0 
L -3.5 0 
" id="m6e123b7bb4" style="stroke:#000000;stroke-width:0.8;"/>
      </defs>
      <g>
       <use style="stroke:#000000;stroke-width:0.8;" x="57.6" xlink:href="#m6e123b7bb4" y="303.304325"/>
      </g>
     </g>
     <g id="text_8">
      <!-- 0.0 -->
      <g transform="translate(34.696875 307.103544)scale(0.1 -0.1)">
       <defs>
        <path d="M 10.6875 12.40625 
L 21 12.40625 
L 21 0 
L 10.6875 0 
z
" id="DejaVuSans-46"/>
       </defs>
       <use xlink:href="#DejaVuSans-48"/>
       <use x="63.623047" xlink:href="#DejaVuSans-46"/>
       <use x="95.410156" xlink:href="#DejaVuSans-48"/>
      </g>
     </g>
    </g>
    <g id="ytick_2">
     <g id="line2d_8">
      <g>
       <use style="stroke:#000000;stroke-width:0.8;" x="57.6" xlink:href="#m6e123b7bb4" y="264.279504"/>
      </g>
     </g>
     <g id="text_9">
      <!-- 0.1 -->
      <g transform="translate(34.696875 268.078723)scale(0.1 -0.1)">
       <use xlink:href="#DejaVuSans-48"/>
       <use x="63.623047" xlink:href="#DejaVuSans-46"/>
       <use x="95.410156" xlink:href="#DejaVuSans-49"/>
      </g>
     </g>
    </g>
    <g id="ytick_3">
     <g id="line2d_9">
      <g>
       <use style="stroke:#000000;stroke-width:0.8;" x="57.6" xlink:href="#m6e123b7bb4" y="225.254684"/>
      </g>
     </g>
     <g id="text_10">
      <!-- 0.2 -->
      <g transform="translate(34.696875 229.053902)scale(0.1 -0.1)">
       <use xlink:href="#DejaVuSans-48"/>
       <use x="63.623047" xlink:href="#DejaVuSans-46"/>
       <use x="95.410156" xlink:href="#DejaVuSans-50"/>
      </g>
     </g>
    </g>
    <g id="ytick_4">
     <g id="line2d_10">
      <g>
       <use style="stroke:#000000;stroke-width:0.8;" x="57.6" xlink:href="#m6e123b7bb4" y="186.229863"/>
      </g>
     </g>
     <g id="text_11">
      <!-- 0.3 -->
      <g transform="translate(34.696875 190.029082)scale(0.1 -0.1)">
       <defs>
        <path d="M 40.578125 39.3125 
Q 47.65625 37.796875 51.625 33 
Q 55.609375 28.21875 55.609375 21.1875 
Q 55.609375 10.40625 48.1875 4.484375 
Q 40.765625 -1.421875 27.09375 -1.421875 
Q 22.515625 -1.421875 17.65625 -0.515625 
Q 12.796875 0.390625 7.625 2.203125 
L 7.625 11.71875 
Q 11.71875 9.328125 16.59375 8.109375 
Q 21.484375 6.890625 26.8125 6.890625 
Q 36.078125 6.890625 40.9375 10.546875 
Q 45.796875 14.203125 45.796875 21.1875 
Q 45.796875 27.640625 41.28125 31.265625 
Q 36.765625 34.90625 28.71875 34.90625 
L 20.21875 34.90625 
L 20.21875 43.015625 
L 29.109375 43.015625 
Q 36.375 43.015625 40.234375 45.921875 
Q 44.09375 48.828125 44.09375 54.296875 
Q 44.09375 59.90625 40.109375 62.90625 
Q 36.140625 65.921875 28.71875 65.921875 
Q 24.65625 65.921875 20.015625 65.03125 
Q 15.375 64.15625 9.8125 62.3125 
L 9.8125 71.09375 
Q 15.4375 72.65625 20.34375 73.4375 
Q 25.25 74.21875 29.59375 74.21875 
Q 40.828125 74.21875 47.359375 69.109375 
Q 53.90625 64.015625 53.90625 55.328125 
Q 53.90625 49.265625 50.4375 45.09375 
Q 46.96875 40.921875 40.578125 39.3125 
z
" id="DejaVuSans-51"/>
       </defs>
       <use xlink:href="#DejaVuSans-48"/>
       <use x="63.623047" xlink:href="#DejaVuSans-46"/>
       <use x="95.410156" xlink:href="#DejaVuSans-51"/>
      </g>
     </g>
    </g>
    <g id="ytick_5">
     <g id="line2d_11">
      <g>
       <use style="stroke:#000000;stroke-width:0.8;" x="57.6" xlink:href="#m6e123b7bb4" y="147.205042"/>
      </g>
     </g>
     <g id="text_12">
      <!-- 0.4 -->
      <g transform="translate(34.696875 151.004261)scale(0.1 -0.1)">
       <use xlink:href="#DejaVuSans-48"/>
       <use x="63.623047" xlink:href="#DejaVuSans-46"/>
       <use x="95.410156" xlink:href="#DejaVuSans-52"/>
      </g>
     </g>
    </g>
    <g id="ytick_6">
     <g id="line2d_12">
      <g>
       <use style="stroke:#000000;stroke-width:0.8;" x="57.6" xlink:href="#m6e123b7bb4" y="108.180222"/>
      </g>
     </g>
     <g id="text_13">
      <!-- 0.5 -->
      <g transform="translate(34.696875 111.97944)scale(0.1 -0.1)">
       <defs>
        <path d="M 10.796875 72.90625 
L 49.515625 72.90625 
L 49.515625 64.59375 
L 19.828125 64.59375 
L 19.828125 46.734375 
Q 21.96875 47.46875 24.109375 47.828125 
Q 26.265625 48.1875 28.421875 48.1875 
Q 40.625 48.1875 47.75 41.5 
Q 54.890625 34.8125 54.890625 23.390625 
Q 54.890625 11.625 47.5625 5.09375 
Q 40.234375 -1.421875 26.90625 -1.421875 
Q 22.3125 -1.421875 17.546875 -0.640625 
Q 12.796875 0.140625 7.71875 1.703125 
L 7.71875 11.625 
Q 12.109375 9.234375 16.796875 8.0625 
Q 21.484375 6.890625 26.703125 6.890625 
Q 35.15625 6.890625 40.078125 11.328125 
Q 45.015625 15.765625 45.015625 23.390625 
Q 45.015625 31 40.078125 35.4375 
Q 35.15625 39.890625 26.703125 39.890625 
Q 22.75 39.890625 18.8125 39.015625 
Q 14.890625 38.140625 10.796875 36.28125 
z
" id="DejaVuSans-53"/>
       </defs>
       <use xlink:href="#DejaVuSans-48"/>
       <use x="63.623047" xlink:href="#DejaVuSans-46"/>
       <use x="95.410156" xlink:href="#DejaVuSans-53"/>
      </g>
     </g>
    </g>
    <g id="ytick_7">
     <g id="line2d_13">
      <g>
       <use style="stroke:#000000;stroke-width:0.8;" x="57.6" xlink:href="#m6e123b7bb4" y="69.155401"/>
      </g>
     </g>
     <g id="text_14">
      <!-- 0.6 -->
      <g transform="translate(34.696875 72.95462)scale(0.1 -0.1)">
       <use xlink:href="#DejaVuSans-48"/>
       <use x="63.623047" xlink:href="#DejaVuSans-46"/>
       <use x="95.410156" xlink:href="#DejaVuSans-54"/>
      </g>
     </g>
    </g>
    <g id="text_15">
     <!-- Obj-pose-error-norm -->
     <g transform="translate(28.617187 225.203781)rotate(-90)scale(0.1 -0.1)">
      <defs>
       <path d="M 39.40625 66.21875 
Q 28.65625 66.21875 22.328125 58.203125 
Q 16.015625 50.203125 16.015625 36.375 
Q 16.015625 22.609375 22.328125 14.59375 
Q 28.65625 6.59375 39.40625 6.59375 
Q 50.140625 6.59375 56.421875 14.59375 
Q 62.703125 22.609375 62.703125 36.375 
Q 62.703125 50.203125 56.421875 58.203125 
Q 50.140625 66.21875 39.40625 66.21875 
z
M 39.40625 74.21875 
Q 54.734375 74.21875 63.90625 63.9375 
Q 73.09375 53.65625 73.09375 36.375 
Q 73.09375 19.140625 63.90625 8.859375 
Q 54.734375 -1.421875 39.40625 -1.421875 
Q 24.03125 -1.421875 14.8125 8.828125 
Q 5.609375 19.09375 5.609375 36.375 
Q 5.609375 53.65625 14.8125 63.9375 
Q 24.03125 74.21875 39.40625 74.21875 
z
" id="DejaVuSans-79"/>
       <path d="M 48.6875 27.296875 
Q 48.6875 37.203125 44.609375 42.84375 
Q 40.53125 48.484375 33.40625 48.484375 
Q 26.265625 48.484375 22.1875 42.84375 
Q 18.109375 37.203125 18.109375 27.296875 
Q 18.109375 17.390625 22.1875 11.75 
Q 26.265625 6.109375 33.40625 6.109375 
Q 40.53125 6.109375 44.609375 11.75 
Q 48.6875 17.390625 48.6875 27.296875 
z
M 18.109375 46.390625 
Q 20.953125 51.265625 25.265625 53.625 
Q 29.59375 56 35.59375 56 
Q 45.5625 56 51.78125 48.09375 
Q 58.015625 40.1875 58.015625 27.296875 
Q 58.015625 14.40625 51.78125 6.484375 
Q 45.5625 -1.421875 35.59375 -1.421875 
Q 29.59375 -1.421875 25.265625 0.953125 
Q 20.953125 3.328125 18.109375 8.203125 
L 18.109375 0 
L 9.078125 0 
L 9.078125 75.984375 
L 18.109375 75.984375 
z
" id="DejaVuSans-98"/>
       <path d="M 9.421875 54.6875 
L 18.40625 54.6875 
L 18.40625 -0.984375 
Q 18.40625 -11.421875 14.421875 -16.109375 
Q 10.453125 -20.796875 1.609375 -20.796875 
L -1.8125 -20.796875 
L -1.8125 -13.1875 
L 0.59375 -13.1875 
Q 5.71875 -13.1875 7.5625 -10.8125 
Q 9.421875 -8.453125 9.421875 -0.984375 
z
M 9.421875 75.984375 
L 18.40625 75.984375 
L 18.40625 64.59375 
L 9.421875 64.59375 
z
" id="DejaVuSans-106"/>
       <path d="M 30.609375 48.390625 
Q 23.390625 48.390625 19.1875 42.75 
Q 14.984375 37.109375 14.984375 27.296875 
Q 14.984375 17.484375 19.15625 11.84375 
Q 23.34375 6.203125 30.609375 6.203125 
Q 37.796875 6.203125 41.984375 11.859375 
Q 46.1875 17.53125 46.1875 27.296875 
Q 46.1875 37.015625 41.984375 42.703125 
Q 37.796875 48.390625 30.609375 48.390625 
z
M 30.609375 56 
Q 42.328125 56 49.015625 48.375 
Q 55.71875 40.765625 55.71875 27.296875 
Q 55.71875 13.875 49.015625 6.21875 
Q 42.328125 -1.421875 30.609375 -1.421875 
Q 18.84375 -1.421875 12.171875 6.21875 
Q 5.515625 13.875 5.515625 27.296875 
Q 5.515625 40.765625 12.171875 48.375 
Q 18.84375 56 30.609375 56 
z
" id="DejaVuSans-111"/>
       <path d="M 41.109375 46.296875 
Q 39.59375 47.171875 37.8125 47.578125 
Q 36.03125 48 33.890625 48 
Q 26.265625 48 22.1875 43.046875 
Q 18.109375 38.09375 18.109375 28.8125 
L 18.109375 0 
L 9.078125 0 
L 9.078125 54.6875 
L 18.109375 54.6875 
L 18.109375 46.1875 
Q 20.953125 51.171875 25.484375 53.578125 
Q 30.03125 56 36.53125 56 
Q 37.453125 56 38.578125 55.875 
Q 39.703125 55.765625 41.0625 55.515625 
z
" id="DejaVuSans-114"/>
       <path d="M 54.890625 33.015625 
L 54.890625 0 
L 45.90625 0 
L 45.90625 32.71875 
Q 45.90625 40.484375 42.875 44.328125 
Q 39.84375 48.1875 33.796875 48.1875 
Q 26.515625 48.1875 22.3125 43.546875 
Q 18.109375 38.921875 18.109375 30.90625 
L 18.109375 0 
L 9.078125 0 
L 9.078125 54.6875 
L 18.109375 54.6875 
L 18.109375 46.1875 
Q 21.34375 51.125 25.703125 53.5625 
Q 30.078125 56 35.796875 56 
Q 45.21875 56 50.046875 50.171875 
Q 54.890625 44.34375 54.890625 33.015625 
z
" id="DejaVuSans-110"/>
      </defs>
      <use xlink:href="#DejaVuSans-79"/>
      <use x="78.710938" xlink:href="#DejaVuSans-98"/>
      <use x="142.1875" xlink:href="#DejaVuSans-106"/>
      <use x="169.970703" xlink:href="#DejaVuSans-45"/>
      <use x="206.054688" xlink:href="#DejaVuSans-112"/>
      <use x="269.53125" xlink:href="#DejaVuSans-111"/>
      <use x="330.712891" xlink:href="#DejaVuSans-115"/>
      <use x="382.8125" xlink:href="#DejaVuSans-101"/>
      <use x="444.335938" xlink:href="#DejaVuSans-45"/>
      <use x="480.419922" xlink:href="#DejaVuSans-101"/>
      <use x="541.943359" xlink:href="#DejaVuSans-114"/>
      <use x="581.306641" xlink:href="#DejaVuSans-114"/>
      <use x="620.169922" xlink:href="#DejaVuSans-111"/>
      <use x="681.351562" xlink:href="#DejaVuSans-114"/>
      <use x="716.089844" xlink:href="#DejaVuSans-45"/>
      <use x="752.173828" xlink:href="#DejaVuSans-110"/>
      <use x="815.552734" xlink:href="#DejaVuSans-111"/>
      <use x="876.734375" xlink:href="#DejaVuSans-114"/>
      <use x="916.097656" xlink:href="#DejaVuSans-109"/>
     </g>
    </g>
   </g>
   <g id="line2d_14">
    <path clip-path="url(#pb07de384db)" d="M 73.832727 288.500041 
L 73.930124 288.507745 
L 74.189847 286.728352 
L 74.352175 288.805592 
L 74.709295 293.45388 
L 74.74176 293.449973 
L 74.806691 293.53145 
L 74.839156 293.253894 
L 74.871622 292.970331 
L 74.904087 293.672188 
L 74.969018 293.491608 
L 75.033949 292.095144 
L 75.293673 288.098397 
L 76.072844 282.294892 
L 76.202705 281.873814 
L 76.429964 280.470748 
L 76.462429 280.382435 
L 76.494895 280.564277 
L 76.592291 282.21137 
L 76.624756 281.811897 
L 76.916945 279.987424 
L 77.111738 279.060487 
L 78.085702 270.41441 
L 78.280495 269.052808 
L 78.442822 269.544017 
L 78.735011 267.951877 
L 79.221993 265.427328 
L 79.644044 261.700671 
L 80.715404 253.577287 
L 81.202385 251.603345 
L 81.494575 249.452894 
L 82.533469 241.426383 
L 82.5984 241.317405 
L 82.793193 240.613068 
L 83.117847 239.893308 
L 83.442502 239.314519 
L 83.702225 238.590317 
L 84.059345 236.151203 
L 84.578793 233.249317 
L 84.806051 232.9959 
L 85.163171 232.846382 
L 85.422895 231.923233 
L 86.1696 228.757067 
L 86.396858 228.680527 
L 86.786444 228.829402 
L 86.981236 228.851271 
L 87.24096 228.466462 
L 87.500684 227.54574 
L 88.31232 224.063641 
L 88.442182 224.055078 
L 88.66944 224.316063 
L 89.188887 225.283427 
L 89.318749 225.200673 
L 89.546007 224.637015 
L 90.032989 223.541071 
L 90.357644 223.361348 
L 90.942022 223.404299 
L 91.071884 223.003497 
L 91.364073 221.770979 
L 91.851055 220.119985 
L 91.980916 220.179328 
L 92.370502 220.500464 
L 92.59776 220.527934 
L 92.727622 220.497019 
L 93.441862 220.246284 
L 93.66912 220.319549 
L 93.831447 220.212269 
L 94.058705 220.260464 
L 94.350895 220.406052 
L 94.902807 220.68112 
L 95.065135 220.699841 
L 95.584582 220.550285 
L 95.974167 220.270059 
L 96.201425 219.874171 
L 96.493615 219.605184 
L 97.337716 219.167196 
L 97.564975 218.992605 
L 98.798662 217.597736 
L 99.318109 216.865038 
L 99.707695 217.152345 
L 99.967418 217.424307 
L 100.129745 217.495848 
L 100.357004 217.310995 
L 101.071244 216.71812 
L 101.720553 215.87884 
L 102.434793 215.330989 
L 102.59712 215.236688 
L 103.116567 214.607342 
L 103.506153 213.79863 
L 103.928204 213.262038 
L 104.187927 213.087779 
L 104.772305 212.669993 
L 105.681338 211.285415 
L 106.070924 210.737902 
L 106.817629 209.08579 
L 107.402007 207.594636 
L 107.434473 207.646395 
L 107.564335 207.732718 
L 107.5968 207.711824 
L 107.856524 207.173462 
L 107.888989 207.150223 
L 107.921455 207.245822 
L 108.051316 207.304901 
L 108.66816 206.862155 
L 108.765556 206.878834 
L 108.927884 206.666965 
L 109.349935 206.382888 
L 109.479796 206.323814 
L 109.73952 206.188494 
L 110.161571 206.159667 
L 110.518691 206.119076 
L 110.681018 206.10411 
L 111.135535 206.097987 
L 111.330327 206.118614 
L 111.460189 206.092939 
L 112.077033 205.485917 
L 112.856204 204.128447 
L 113.830167 203.191287 
L 114.219753 202.668437 
L 114.836596 202.223803 
L 115.356044 201.500547 
L 115.843025 201.168745 
L 116.102749 201.032162 
L 116.687127 200.582081 
L 116.979316 199.859899 
L 118.115607 198.595981 
L 119.122036 198.388447 
L 119.706415 198.424166 
L 119.998604 198.122669 
L 120.388189 197.622429 
L 120.518051 197.61051 
L 120.972567 197.904868 
L 121.297222 197.995952 
L 121.719273 198.268534 
L 121.849135 198.237637 
L 122.59584 197.499996 
L 123.212684 197.409096 
L 123.894458 198.701094 
L 124.154182 199.359466 
L 125.485265 200.080008 
L 125.712524 200.04399 
L 125.874851 200.08718 
L 126.231971 200.148191 
L 126.751418 200.036893 
L 126.946211 200.1482 
L 127.530589 200.648054 
L 127.855244 200.880475 
L 128.66688 201.308175 
L 128.829207 201.314787 
L 129.024 201.398604 
L 129.316189 201.558998 
L 129.543447 201.728261 
L 130.549876 202.73277 
L 130.8096 202.764363 
L 131.848495 202.225138 
L 132.432873 202.751668 
L 132.660131 202.950491 
L 133.017251 203.509809 
L 133.439302 204.154785 
L 133.634095 204.234483 
L 133.796422 204.349514 
L 133.828887 204.31914 
L 134.121076 203.910944 
L 134.608058 203.235265 
L 134.802851 203.319609 
L 135.030109 203.356872 
L 136.101469 204.589731 
L 137.010502 204.870339 
L 137.172829 204.919737 
L 137.562415 205.128164 
L 138.146793 205.124365 
L 138.536378 204.894033 
L 139.38048 205.70662 
L 139.899927 206.300765 
L 140.09472 206.125242 
L 140.321978 206.050964 
L 140.516771 205.989473 
L 140.711564 205.944659 
L 141.458269 206.345313 
L 141.847855 206.255041 
L 142.010182 206.218254 
L 142.854284 206.840329 
L 143.3088 206.870466 
L 143.568524 207.253886 
L 144.412625 208.643012 
L 144.997004 209.266511 
L 145.256727 209.528185 
L 145.581382 209.491211 
L 146.198225 210.020224 
L 146.425484 209.999518 
L 146.587811 209.957883 
L 147.139724 209.441396 
L 147.269585 209.457595 
L 148.048756 210.678565 
L 149.444771 211.924349 
L 149.704495 211.903573 
L 149.996684 211.644206 
L 150.353804 211.853779 
L 151.197905 212.272575 
L 151.392698 212.232094 
L 151.555025 212.148595 
L 151.587491 212.189426 
L 151.749818 212.349465 
L 152.561455 213.262676 
L 153.957469 214.002939 
L 153.989935 213.98579 
L 154.0224 214.068804 
L 154.184727 214.144631 
L 154.282124 214.220269 
L 154.37952 214.321066 
L 154.574313 214.090179 
L 154.704175 214.150041 
L 154.898967 213.826519 
L 155.288553 213.59677 
L 155.483345 213.64034 
L 155.678138 213.700897 
L 156.262516 214.68232 
L 156.392378 214.624444 
L 157.074153 213.276066 
L 157.106618 213.303352 
L 157.528669 213.813759 
L 157.853324 214.312161 
L 158.113047 214.440456 
L 158.340305 214.571283 
L 158.600029 214.909531 
L 158.794822 215.134031 
L 159.216873 214.935278 
L 160.190836 213.849994 
L 160.645353 214.275673 
L 161.197265 215.578094 
L 161.229731 215.545648 
L 161.392058 215.553998 
L 161.619316 215.4915 
L 162.463418 215.136365 
L 162.723142 214.90752 
L 162.853004 214.951895 
L 163.826967 216.061486 
L 164.184087 215.992907 
L 164.281484 215.923137 
L 164.508742 215.840125 
L 164.671069 215.885889 
L 165.482705 216.846744 
L 165.742429 216.619807 
L 166.034618 216.338781 
L 166.456669 216.259428 
L 166.943651 216.710806 
L 167.23584 217.117672 
L 167.852684 217.579427 
L 168.534458 217.521364 
L 168.729251 217.483216 
L 169.800611 216.498577 
L 170.482385 217.014924 
L 171.16416 217.754074 
L 171.294022 217.813931 
L 171.618676 218.041888 
L 172.397847 218.063643 
L 172.94976 218.003658 
L 173.079622 218.075475 
L 173.631535 218.545535 
L 174.183447 218.40616 
L 174.540567 218.748357 
L 175.157411 219.60444 
L 175.319738 219.609492 
L 175.644393 219.555607 
L 175.904116 219.583469 
L 176.456029 219.417419 
L 176.715753 219.389837 
L 177.137804 219.471055 
L 177.527389 219.977913 
L 177.884509 220.425219 
L 178.176698 220.30561 
L 178.501353 220.26782 
L 178.793542 220.42885 
L 179.150662 220.622234 
L 179.962298 220.954554 
L 180.351884 220.914042 
L 181.228451 220.351071 
L 181.650502 220.299092 
L 183.014051 220.892783 
L 183.403636 221.131211 
L 183.728291 220.939594 
L 184.410065 220.460726 
L 185.416495 220.663957 
L 186.390458 220.849109 
L 187.039767 220.63064 
L 187.331956 220.555956 
L 188.078662 220.305794 
L 188.500713 220.590673 
L 189.344815 221.049253 
L 189.929193 221.160098 
L 190.708364 220.932464 
L 191.552465 220.627577 
L 192.169309 220.515869 
L 192.980945 220.375845 
L 193.760116 219.947543 
L 194.084771 219.94036 
L 194.766545 219.978759 
L 195.740509 219.810632 
L 196.292422 220.114068 
L 196.649542 219.945344 
L 197.428713 219.31392 
L 197.883229 219.303193 
L 198.759796 219.472648 
L 200.155811 219.013726 
L 200.740189 218.55569 
L 200.999913 218.540433 
L 201.357033 218.537068 
L 201.811549 218.141623 
L 202.558255 217.256305 
L 203.207564 216.757973 
L 203.532218 216.758129 
L 203.824407 216.769365 
L 204.051665 216.61906 
L 204.798371 215.696721 
L 205.772335 214.932912 
L 205.999593 214.714603 
L 206.324247 214.511357 
L 206.551505 214.59847 
L 206.973556 215.065213 
L 207.460538 214.990917 
L 207.94752 214.559795 
L 208.499433 214.116679 
L 208.856553 214.156656 
L 209.376 214.857025 
L 209.603258 214.663384 
L 210.09024 214.294545 
L 210.414895 214.256571 
L 210.966807 214.374707 
L 211.648582 214.957566 
L 211.778444 214.860667 
L 212.200495 214.602482 
L 212.655011 214.738463 
L 212.882269 214.553655 
L 213.109527 214.406727 
L 213.466647 214.639416 
L 214.083491 215.38819 
L 214.37568 215.693301 
L 214.700335 215.534261 
L 215.414575 214.864491 
L 215.674298 214.921709 
L 216.421004 215.327581 
L 216.680727 215.23514 
L 217.459898 214.567525 
L 217.752087 214.585903 
L 217.979345 214.808574 
L 218.563724 215.355615 
L 218.596189 215.323096 
L 219.797411 214.227157 
L 219.959738 214.22238 
L 220.414255 214.440054 
L 220.544116 214.324806 
L 220.998633 213.689636 
L 221.225891 213.653715 
L 221.680407 213.580974 
L 222.069993 213.04369 
L 222.394647 212.844572 
L 222.621905 212.533431 
L 222.94656 211.968044 
L 223.238749 211.797217 
L 223.498473 211.732344 
L 223.952989 211.21729 
L 224.472436 211.26962 
L 224.959418 211.62824 
L 225.08928 211.582694 
L 225.284073 211.272469 
L 225.965847 209.970746 
L 226.290502 209.688845 
L 226.712553 209.666426 
L 227.394327 208.971769 
L 227.783913 208.9988 
L 228.433222 208.177983 
L 228.790342 208.307239 
L 228.952669 208.123234 
L 229.666909 206.301851 
L 230.413615 204.404267 
L 230.673338 203.996862 
L 231.322647 203.67165 
L 231.549905 203.511483 
L 231.744698 203.439876 
L 232.329076 202.538829 
L 232.458938 202.522241 
L 233.465367 201.824231 
L 233.887418 202.113294 
L 234.01728 201.951691 
L 235.121105 199.91442 
L 235.283433 200.003789 
L 235.737949 200.222454 
L 236.16 199.37261 
L 237.133964 197.128453 
L 237.361222 196.985393 
L 238.042996 196.098649 
L 238.692305 196.206059 
L 238.854633 196.089302 
L 239.01696 195.627732 
L 239.439011 194.607713 
L 240.023389 194.08694 
L 240.477905 193.787375 
L 240.964887 193.225983 
L 242.068713 191.617744 
L 242.750487 191.116513 
L 243.724451 190.111821 
L 243.951709 190.029144 
L 244.37376 190.111964 
L 244.925673 190.084176 
L 245.185396 190.062818 
L 245.477585 189.630353 
L 245.867171 189.121322 
L 246.451549 188.81187 
L 246.776204 189.194093 
L 247.035927 189.312763 
L 247.360582 189.095827 
L 247.393047 189.135961 
L 247.717702 189.393712 
L 248.204684 189.119587 
L 248.399476 189.1571 
L 249.178647 188.506935 
L 249.600698 187.927126 
L 249.73056 188.030353 
L 250.477265 189.080006 
L 250.736989 189.077373 
L 251.094109 188.886914 
L 251.548625 188.966817 
L 252.003142 189.644847 
L 252.2304 189.691618 
L 252.457658 189.650439 
L 252.684916 189.507272 
L 253.009571 189.171597 
L 253.236829 189.071118 
L 253.691345 188.882342 
L 253.886138 189.059034 
L 254.827636 189.964282 
L 255.054895 190.201355 
L 255.249687 189.784302 
L 255.769135 188.323579 
L 256.093789 188.192933 
L 256.256116 188.467993 
L 256.548305 189.380846 
L 256.678167 189.613119 
L 256.87296 189.616667 
L 257.23008 189.659024 
L 257.359942 189.81868 
L 257.522269 190.135953 
L 257.846924 190.407866 
L 257.976785 190.269102 
L 258.30144 189.641659 
L 258.561164 189.478123 
L 258.853353 189.296945 
L 259.3728 188.990749 
L 259.600058 189.007056 
L 260.022109 189.012354 
L 260.379229 189.071956 
L 260.574022 188.993962 
L 261.061004 189.403302 
L 261.223331 189.501867 
L 261.937571 188.68742 
L 262.651811 188.639039 
L 263.30112 187.949556 
L 263.723171 187.330525 
L 263.885498 187.360919 
L 264.112756 187.89396 
L 264.404945 188.3539 
L 264.697135 188.404748 
L 265.021789 188.264306 
L 265.281513 188.013455 
L 265.476305 187.906211 
L 265.671098 187.753794 
L 265.995753 187.519649 
L 266.547665 186.60558 
L 266.742458 186.772716 
L 266.969716 186.921155 
L 267.456698 186.575534 
L 267.619025 186.734625 
L 267.683956 186.774733 
L 267.716422 186.744686 
L 267.94368 186.641084 
L 268.073542 186.760077 
L 268.560524 187.666902 
L 268.755316 187.580065 
L 269.307229 186.780403 
L 269.534487 186.470466 
L 269.72928 186.232909 
L 269.989004 186.003928 
L 270.118865 186.074137 
L 270.605847 186.540992 
L 270.833105 186.446106 
L 271.027898 186.210532 
L 271.255156 186.051653 
L 271.872 186.712198 
L 272.845964 186.895596 
L 273.073222 187.068262 
L 273.462807 186.986576 
L 273.754996 187.005159 
L 274.01472 186.741602 
L 274.241978 186.469871 
L 274.404305 186.472582 
L 274.599098 186.46245 
L 274.793891 186.468221 
L 275.313338 186.212147 
L 275.637993 186.227257 
L 275.962647 185.8324 
L 276.417164 185.762458 
L 276.806749 186.108781 
L 276.936611 186.169089 
L 277.066473 186.169222 
L 277.520989 186.596239 
L 277.553455 186.545055 
L 277.845644 186.402774 
L 278.040436 186.354938 
L 278.202764 186.125732 
L 278.852073 184.909292 
L 279.111796 184.805344 
L 279.37152 184.980561 
L 279.858502 185.047637 
L 280.08576 185.067829 
L 280.637673 185.411854 
L 280.929862 185.155081 
L 280.962327 185.322707 
L 281.027258 185.260149 
L 281.351913 184.713793 
L 281.773964 183.700542 
L 282.131084 183.391067 
L 282.423273 183.329786 
L 282.715462 183.652233 
L 283.364771 184.137091 
L 283.397236 184.08286 
L 284.143942 182.897798 
L 284.338735 182.851235 
L 284.72832 182.91347 
L 285.182836 182.214791 
L 285.507491 181.692688 
L 285.767215 181.652912 
L 285.897076 181.513108 
L 286.091869 181.394309 
L 286.708713 181.500691 
L 287.033367 181.551684 
L 288.429382 180.135049 
L 289.078691 179.976586 
L 289.241018 179.957613 
L 289.37088 180.072802 
L 289.630604 180.282344 
L 289.728 180.107133 
L 290.117585 179.381838 
L 290.701964 179.085278 
L 291.026618 179.222288 
L 291.416204 179.216533 
L 291.610996 179.087134 
L 291.87072 179.17767 
L 292.422633 178.812026 
L 292.94208 179.165141 
L 293.104407 179.146597 
L 294.110836 178.04438 
L 294.143302 178.07374 
L 294.500422 178.689098 
L 294.72768 178.970865 
L 294.825076 178.936714 
L 295.149731 178.234379 
L 295.571782 176.974095 
L 295.701644 176.994775 
L 295.928902 177.071898 
L 296.091229 177.084127 
L 296.448349 177.168496 
L 296.8704 176.746054 
L 297.195055 176.761003 
L 297.422313 176.950799 
L 297.682036 177.207976 
L 297.714502 177.175509 
L 298.104087 176.913745 
L 298.363811 176.427837 
L 298.948189 175.258987 
L 299.175447 175.038324 
L 299.337775 175.124841 
L 299.532567 175.336562 
L 299.889687 175.877847 
L 299.922153 175.854004 
L 301.383098 174.242748 
L 301.642822 174.321615 
L 301.902545 174.388479 
L 302.064873 174.449733 
L 302.259665 174.403986 
L 302.746647 173.80642 
L 302.94144 173.782983 
L 303.395956 173.471891 
L 303.753076 173.239176 
L 304.077731 173.153359 
L 304.759505 173.861522 
L 305.08416 173.830361 
L 305.408815 173.655943 
L 305.636073 173.692977 
L 306.025658 173.4178 
L 306.220451 173.49201 
L 306.415244 173.509711 
L 306.577571 173.411716 
L 306.86976 173.224173 
L 306.967156 173.261319 
L 307.22688 173.606908 
L 307.486604 174.139127 
L 307.616465 174.138079 
L 308.006051 173.59895 
L 308.363171 173.220361 
L 308.395636 173.255581 
L 309.142342 173.534193 
L 309.531927 174.203957 
L 309.824116 174.232717 
L 309.986444 174.137968 
L 310.08384 174.16392 
L 310.213702 174.240822 
L 310.408495 174.062566 
L 310.79808 173.508114 
L 310.992873 173.465976 
L 311.285062 173.523694 
L 311.577251 173.567382 
L 311.86944 173.623778 
L 312.421353 173.253941 
L 312.453818 173.306925 
L 312.518749 173.265335 
L 312.746007 173.249646 
L 313.29792 173.578824 
L 313.590109 173.968177 
L 313.882298 173.907646 
L 314.109556 173.410447 
L 314.7264 172.5277 
L 314.953658 172.560792 
L 315.180916 172.679543 
L 315.667898 172.746572 
L 316.057484 172.143577 
L 316.252276 172.227726 
L 316.609396 172.668756 
L 316.804189 172.654041 
L 317.128844 172.360127 
L 317.291171 172.251768 
L 317.550895 171.694499 
L 317.778153 171.446595 
L 318.2976 171.850727 
L 318.524858 171.960564 
L 319.466356 171.024457 
L 319.953338 170.999513 
L 320.764975 170.31512 
L 321.057164 170.810062 
L 321.349353 171.254589 
L 321.381818 171.235554 
L 321.544145 170.970795 
L 322.096058 169.840107 
L 322.453178 169.551148 
L 322.777833 169.523547 
L 323.070022 169.668371 
L 323.6544 169.789805 
L 324.271244 169.246433 
L 324.563433 169.308675 
L 324.823156 168.86112 
L 325.147811 168.5195 
L 325.310138 168.539088 
L 325.504931 168.467133 
L 326.186705 167.783589 
L 326.413964 167.668748 
L 326.608756 167.98279 
L 327.095738 169.162192 
L 327.160669 169.12077 
L 327.290531 168.994063 
L 327.615185 168.393115 
L 327.93984 167.857569 
L 328.524218 167.230735 
L 329.108596 167.165945 
L 329.887767 166.360456 
L 330.050095 166.532284 
L 330.407215 166.945894 
L 330.959127 167.440101 
L 331.121455 167.159471 
L 331.381178 166.65874 
L 331.803229 166.202425 
L 331.998022 166.357557 
L 332.809658 166.944243 
L 333.036916 166.796114 
L 333.199244 166.885528 
L 333.588829 167.026282 
L 333.848553 166.684319 
L 334.075811 166.454532 
L 334.432931 166.446276 
L 334.595258 166.877777 
L 334.952378 167.809476 
L 335.08224 167.719943 
L 335.341964 167.169064 
L 335.731549 166.145369 
L 335.926342 166.040001 
L 336.056204 166.184772 
L 336.348393 166.384339 
L 336.608116 166.577715 
L 336.900305 166.805668 
L 337.22496 166.589311 
L 337.614545 166.205737 
L 337.906735 166.007343 
L 338.069062 166.002555 
L 338.328785 166.232977 
L 338.491113 166.107283 
L 338.913164 165.623057 
L 339.270284 165.638742 
L 339.659869 165.601028 
L 339.887127 165.687414 
L 340.049455 165.732697 
L 340.309178 165.475926 
L 340.633833 164.919662 
L 340.861091 164.789333 
L 340.990953 164.591193 
L 341.380538 163.788243 
L 341.607796 163.749463 
L 341.932451 164.015579 
L 342.22464 164.21591 
L 342.614225 164.513033 
L 342.646691 164.473365 
L 342.93888 163.990992 
L 343.523258 162.9166 
L 344.042705 162.407009 
L 344.237498 162.451869 
L 344.399825 162.829392 
L 344.627084 163.185893 
L 344.854342 163.164233 
L 344.984204 162.979326 
L 345.828305 161.341632 
L 345.958167 161.414276 
L 346.185425 161.535332 
L 346.412684 161.48419 
L 347.094458 160.51041 
L 347.321716 160.3294 
L 347.743767 160.42823 
L 348.003491 160.323253 
L 348.133353 160.210422 
L 348.458007 159.286882 
L 348.847593 158.27064 
L 349.139782 158.064187 
L 349.496902 158.278424 
L 349.886487 158.357917 
L 350.178676 158.079113 
L 350.79552 157.21506 
L 351.055244 156.976173 
L 351.574691 156.305429 
L 352.094138 155.820227 
L 352.288931 155.877787 
L 352.743447 156.052786 
L 353.977135 154.585772 
L 354.269324 154.721563 
L 354.529047 155.04319 
L 354.72384 155.159395 
L 355.373149 154.640878 
L 355.600407 154.442206 
L 356.119855 153.558474 
L 356.379578 153.85591 
L 356.86656 154.267029 
L 357.321076 154.273912 
L 357.93792 153.198638 
L 358.132713 152.900772 
L 358.230109 152.779368 
L 358.489833 152.466704 
L 358.684625 152.408022 
L 359.106676 152.262693 
L 359.853382 152.166423 
L 360.015709 151.810629 
L 360.275433 151.497365 
L 360.957207 151.764498 
L 361.411724 151.896861 
L 362.158429 150.734818 
L 362.320756 150.606529 
L 362.612945 150.384205 
L 363.067462 150.310207 
L 363.29472 150.212715 
L 364.171287 149.974183 
L 364.398545 149.897389 
L 364.593338 149.580069 
L 364.950458 149.061704 
L 365.177716 149.075548 
L 365.664698 149.23194 
L 366.119215 148.496927 
L 366.5088 147.960213 
L 366.833455 147.487067 
L 367.22304 147.220275 
L 367.385367 147.33942 
L 367.58016 147.437172 
L 367.872349 147.435335 
L 368.099607 147.531843 
L 368.683985 147.609103 
L 368.911244 147.291003 
L 369.657949 146.253687 
L 369.787811 146.172711 
L 370.274793 145.907695 
L 370.599447 145.639401 
L 370.859171 145.293844 
L 372.060393 144.879814 
L 372.514909 144.48761 
L 373.521338 144.095145 
L 374.00832 143.71666 
L 374.495302 143.674833 
L 374.787491 143.835152 
L 375.014749 143.577785 
L 375.274473 143.284503 
L 375.4368 143.41675 
L 375.79392 143.678123 
L 375.956247 143.579178 
L 377.092538 142.537802 
L 377.57952 142.801509 
L 377.871709 142.77905 
L 378.163898 142.564667 
L 378.488553 142.592727 
L 378.618415 142.579617 
L 378.845673 142.567718 
L 378.975535 142.691094 
L 379.267724 143.04699 
L 379.397585 142.961111 
L 379.819636 142.66566 
L 380.014429 142.545918 
L 380.533876 141.822822 
L 380.890996 141.497518 
L 381.215651 141.580848 
L 381.767564 142.32186 
L 382.124684 142.425909 
L 382.676596 141.547967 
L 382.903855 141.31747 
L 383.618095 140.990571 
L 383.747956 141.160766 
L 384.267404 141.886674 
L 384.592058 141.688271 
L 385.046575 140.859681 
L 385.176436 140.939789 
L 385.468625 141.151518 
L 385.663418 141.161939 
L 385.988073 140.678807 
L 386.182865 140.482917 
L 386.442589 140.288332 
L 386.637382 140.296834 
L 387.026967 140.814005 
L 387.189295 140.854845 
L 387.936 140.303274 
L 388.098327 140.330047 
L 388.487913 140.173504 
L 388.65024 139.992482 
L 389.104756 139.258678 
L 389.36448 139.132655 
L 389.591738 139.651168 
L 389.916393 140.174039 
L 390.208582 140.079524 
L 390.630633 139.379261 
L 391.474735 137.801313 
L 391.734458 137.713033 
L 391.994182 138.127192 
L 392.351302 138.958819 
L 392.416233 138.912258 
L 393.390196 137.759326 
L 393.455127 137.838017 
L 394.136902 138.578761 
L 394.396625 138.159719 
L 395.43552 136.899581 
L 396.344553 137.550935 
L 396.636742 137.139026 
L 397.513309 136.269798 
L 398.324945 136.697893 
L 398.487273 136.461941 
L 398.487273 136.461941 
" style="fill:none;stroke:#1f77b4;stroke-linecap:square;stroke-width:1.5;"/>
   </g>
   <g id="line2d_15">
    <path clip-path="url(#pb07de384db)" d="M 73.832727 295.254582 
L 73.865193 295.485597 
L 74.02752 279.839364 
L 74.319709 254.759304 
L 74.546967 294.351767 
L 74.579433 292.70165 
L 74.644364 283.133902 
L 74.676829 289.126075 
L 74.806691 294.046059 
L 74.871622 293.631233 
L 75.066415 288.696319 
L 75.780655 269.16352 
L 77.890909 227.939271 
L 78.605149 221.404123 
L 79.157062 212.958738 
L 79.903767 203.459295 
L 80.358284 200.386679 
L 81.104989 196.536833 
L 82.078953 190.793389 
L 82.858124 188.024438 
L 83.182778 187.24722 
L 83.637295 186.397637 
L 84.74112 184.076546 
L 85.000844 184.03624 
L 85.163171 184.269348 
L 85.747549 185.245683 
L 86.266996 185.162828 
L 86.851375 185.135655 
L 87.727942 185.425925 
L 88.214924 185.116981 
L 88.442182 185.060248 
L 88.734371 184.934517 
L 89.318749 184.902136 
L 89.675869 184.96168 
L 90.000524 184.593458 
L 90.325178 184.181839 
L 90.552436 183.805836 
L 91.104349 184.068839 
L 91.948451 184.830406 
L 92.727622 184.139441 
L 92.987345 183.520277 
L 93.247069 182.815825 
L 93.571724 182.4542 
L 94.058705 182.408919 
L 95.227462 182.828322 
L 95.389789 182.789334 
L 95.584582 182.446778 
L 95.941702 182.13969 
L 96.915665 181.35384 
L 97.792233 181.014968 
L 98.019491 181.113825 
L 98.409076 180.781793 
L 99.058385 180.154664 
L 99.285644 180.253069 
L 99.318109 180.186882 
L 99.350575 180.316266 
L 99.480436 180.435625 
L 100.032349 181.097169 
L 100.162211 181.036907 
L 100.584262 181.131329 
L 100.843985 181.561915 
L 101.233571 182.098362 
L 102.304931 183.289393 
L 102.532189 183.348055 
L 103.181498 184.121946 
L 103.636015 184.397665 
L 103.928204 184.303241 
L 104.512582 183.880061 
L 104.642444 183.979532 
L 105.324218 184.702149 
L 105.616407 184.942902 
L 105.876131 185.021857 
L 106.590371 184.999901 
L 106.752698 185.007492 
L 107.077353 185.372383 
L 107.434473 186.089975 
L 107.661731 186.421664 
L 107.694196 186.39512 
L 107.726662 186.499409 
L 107.986385 186.915225 
L 108.538298 187.467057 
L 108.765556 187.353393 
L 109.122676 187.081882 
L 109.3824 187.291174 
L 109.804451 187.813315 
L 110.421295 188.310423 
L 110.713484 188.277822 
L 111.232931 188.473163 
L 111.784844 188.407387 
L 112.369222 188.585227 
L 112.59648 188.087995 
L 112.856204 187.720539 
L 113.408116 187.223599 
L 113.830167 187.207544 
L 113.862633 187.055174 
L 113.927564 187.179342 
L 114.609338 188.573066 
L 114.7392 188.717015 
L 114.966458 188.698763 
L 115.161251 188.326691 
L 115.907956 186.59437 
L 116.135215 186.905639 
L 116.687127 188.022016 
L 116.816989 188.013345 
L 117.076713 187.700605 
L 117.433833 187.099607 
L 117.855884 186.836771 
L 117.920815 186.721258 
L 117.95328 186.758908 
L 118.213004 186.930992 
L 118.440262 186.792562 
L 119.219433 185.891 
L 119.868742 185.467947 
L 120.647913 183.402567 
L 121.069964 182.858718 
L 121.199825 182.925581 
L 121.52448 183.235171 
L 121.784204 183.178076 
L 121.946531 183.137059 
L 122.271185 182.846616 
L 123.245149 181.241598 
L 123.504873 181.149977 
L 124.186647 181.961652 
L 124.348975 181.965371 
L 124.478836 182.076129 
L 124.511302 182.02284 
L 124.641164 182.085635 
L 124.965818 182.315468 
L 125.355404 182.174686 
L 125.842385 181.733245 
L 125.874851 181.781753 
L 126.134575 181.980335 
L 126.329367 182.018261 
L 126.686487 182.375364 
L 126.718953 182.460749 
L 126.783884 182.396036 
L 126.913745 182.469232 
L 127.498124 183.047353 
L 127.530589 183.011159 
L 127.660451 182.941075 
L 127.822778 183.02611 
L 127.920175 183.130275 
L 128.699345 183.691449 
L 129.056465 183.417019 
L 129.218793 183.18814 
L 129.868102 181.769664 
L 130.484945 182.304414 
L 130.712204 182.274101 
L 131.134255 181.578161 
L 131.16672 181.618521 
L 131.361513 181.777415 
L 131.718633 182.160241 
L 131.913425 182.049324 
L 132.562735 181.556791 
L 133.179578 182.242722 
L 133.601629 182.31722 
L 133.861353 182.210917 
L 134.153542 182.071229 
L 134.575593 181.492186 
L 134.835316 181.295952 
L 135.127505 181.281658 
L 135.354764 181.586867 
L 135.45216 181.668349 
L 135.484625 181.632455 
L 135.776815 181.544223 
L 135.80928 181.80724 
L 135.874211 181.496051 
L 135.906676 181.652745 
L 135.939142 181.422894 
L 136.069004 181.005748 
L 136.101469 181.223027 
L 136.1664 180.91019 
L 136.198865 181.022187 
L 136.231331 180.824533 
L 136.296262 180.647855 
L 136.52352 180.092134 
L 136.815709 179.695739 
L 137.59488 179.129672 
L 138.276655 179.502642 
L 138.731171 180.089887 
L 139.02336 179.936973 
L 139.802531 178.708723 
L 139.932393 178.736326 
L 140.516771 179.319292 
L 141.133615 179.270853 
L 141.295942 179.350185 
L 141.717993 179.434489 
L 142.107578 179.622073 
L 142.367302 179.687916 
L 142.724422 180.246018 
L 142.756887 180.0901 
L 143.016611 179.594172 
L 143.146473 179.598593 
L 143.633455 179.617529 
L 143.828247 179.290311 
L 143.860713 179.071421 
L 143.925644 179.194527 
L 144.477556 180.084884 
L 144.932073 180.839897 
L 145.191796 180.950208 
L 145.224262 181.115309 
L 145.256727 180.949861 
L 145.419055 180.559824 
L 145.45152 180.814143 
L 145.516451 180.567982 
L 145.841105 179.945836 
L 146.16576 179.618715 
L 147.042327 181.675341 
L 147.269585 181.767743 
L 147.464378 181.561071 
L 147.496844 181.783875 
L 147.561775 181.608589 
L 147.691636 181.65117 
L 148.146153 182.174144 
L 148.698065 183.046059 
L 148.990255 183.387958 
L 149.282444 183.88969 
L 149.314909 183.866292 
L 149.444771 183.563632 
L 149.607098 183.788918 
L 149.639564 183.684401 
L 149.704495 183.782601 
L 149.964218 184.051118 
L 150.061615 184.047776 
L 150.353804 184.44157 
L 150.386269 184.409064 
L 150.905716 185.084323 
L 151.587491 186.497418 
L 152.009542 187.706375 
L 152.204335 187.86392 
L 152.2368 187.73922 
L 152.301731 187.867699 
L 152.334196 187.833089 
L 152.366662 188.117873 
L 152.431593 187.855228 
L 152.496524 187.870455 
L 152.528989 187.713304 
L 152.59392 187.872668 
L 152.821178 188.161864 
L 152.918575 188.200545 
L 153.145833 188.296611 
L 153.243229 188.378739 
L 153.762676 189.526756 
L 154.249658 190.829806 
L 154.314589 190.89347 
L 154.347055 191.180761 
L 154.444451 191.105218 
L 154.606778 191.582918 
L 154.834036 191.935905 
L 154.866502 192.163092 
L 154.931433 191.849522 
L 155.223622 191.306017 
L 155.256087 191.423691 
L 155.353484 191.359569 
L 155.418415 191.326924 
L 155.45088 191.431709 
L 155.515811 191.351414 
L 155.743069 190.875734 
L 157.431273 195.007004 
L 157.561135 194.837391 
L 157.788393 194.780982 
L 158.340305 195.311516 
L 159.02208 196.69493 
L 159.054545 196.539728 
L 159.119476 196.74876 
L 159.963578 199.644501 
L 160.385629 200.351167 
L 161.067404 201.337998 
L 161.424524 201.831452 
L 161.651782 202.324327 
L 162.138764 204.649946 
L 162.495884 206.043393 
L 162.917935 206.677187 
L 163.047796 206.706463 
L 163.080262 206.791257 
L 163.145193 206.685705 
L 163.437382 206.533582 
L 164.02176 207.734702 
L 164.346415 208.11295 
L 164.768465 208.629732 
L 164.898327 208.813323 
L 165.385309 210.263427 
L 165.80736 210.950664 
L 165.904756 210.908156 
L 166.067084 211.119004 
L 166.229411 210.891471 
L 166.261876 210.954689 
L 166.294342 210.931313 
L 166.424204 210.524759 
L 166.489135 210.563024 
L 166.716393 210.640444 
L 166.911185 211.023924 
L 167.625425 212.316193 
L 167.885149 212.723894 
L 168.3072 213.75003 
L 168.534458 214.190995 
L 168.891578 214.759532 
L 169.411025 215.147769 
L 169.995404 215.837759 
L 170.44992 216.163867 
L 170.579782 216.093821 
L 170.742109 216.16037 
L 171.066764 216.512384 
L 171.229091 216.75441 
L 172.819898 219.974144 
L 173.371811 220.397657 
L 173.599069 220.154624 
L 173.858793 219.745182 
L 174.02112 219.674985 
L 174.183447 219.793118 
L 174.540567 220.269101 
L 174.930153 220.627035 
L 176.16384 221.730857 
L 176.650822 221.865652 
L 176.87808 221.970216 
L 177.202735 222.169586 
L 177.332596 222.253043 
L 177.884509 222.891726 
L 178.014371 222.903993 
L 178.209164 222.806981 
L 178.501353 222.675737 
L 178.826007 222.556535 
L 178.923404 222.570342 
L 180.09216 223.753466 
L 180.319418 223.741638 
L 180.968727 223.673972 
L 181.553105 223.887601 
L 181.87776 224.238556 
L 182.202415 224.523144 
L 182.527069 224.569454 
L 182.819258 224.542342 
L 183.338705 224.687296 
L 183.728291 224.808793 
L 184.832116 225.443896 
L 185.286633 225.454254 
L 186.422924 225.467726 
L 186.844975 225.363745 
L 187.137164 225.483754 
L 187.656611 225.867784 
L 187.981265 225.801348 
L 188.435782 225.473346 
L 188.695505 225.322298 
L 189.052625 225.279869 
L 189.507142 225.641351 
L 189.961658 225.911483 
L 190.221382 225.809918 
L 191.033018 225.362648 
L 191.552465 225.220979 
L 191.909585 224.878371 
L 192.818618 224.095121 
L 193.760116 223.893848 
L 195.902836 223.20599 
L 198.792262 221.04206 
L 200.09088 219.965724 
L 201.681687 219.204792 
L 202.363462 218.750663 
L 202.525789 218.608585 
L 204.668509 216.151736 
L 205.220422 215.583265 
L 205.837265 214.691879 
L 206.616436 214.275378 
L 207.006022 213.571867 
L 207.460538 212.499845 
L 207.752727 212.243691 
L 208.044916 212.28523 
L 208.434502 212.213505 
L 209.798051 210.452289 
L 209.960378 210.437348 
L 210.252567 210.44704 
L 210.772015 210.102721 
L 210.999273 209.955972 
L 211.551185 209.582796 
L 211.745978 209.372736 
L 213.271855 206.767245 
L 214.083491 205.841218 
L 214.538007 204.972498 
L 214.895127 204.762306 
L 215.187316 204.7644 
L 215.44704 204.315565 
L 215.836625 203.526536 
L 215.998953 203.525306 
L 216.16128 203.517302 
L 216.5184 203.181568 
L 216.87552 202.82025 
L 217.135244 202.627071 
L 217.427433 202.188026 
L 217.849484 201.53329 
L 218.531258 201.098177 
L 218.823447 201.087013 
L 219.862342 200.158731 
L 220.057135 200.106458 
L 220.284393 200.021834 
L 220.479185 199.787561 
L 220.998633 199.049406 
L 221.615476 199.314595 
L 221.777804 199.153597 
L 222.427113 198.396173 
L 222.979025 197.567126 
L 223.173818 197.535416 
L 223.530938 197.811642 
L 224.537367 198.692413 
L 224.73216 198.585591 
L 225.673658 197.391996 
L 227.199535 196.576794 
L 227.783913 196.728907 
L 228.628015 196.309828 
L 228.790342 196.297376 
L 229.244858 196.107941 
L 229.37472 196.097091 
L 229.601978 196.120351 
L 229.959098 196.287037 
L 230.08896 196.203951 
L 230.316218 196.240802 
L 230.478545 196.248769 
L 230.705804 196.116707 
L 230.997993 195.79741 
L 231.290182 195.476528 
L 231.549905 195.251984 
L 231.939491 194.956585 
L 232.264145 194.960304 
L 232.556335 195.175249 
L 232.913455 195.537204 
L 233.108247 195.645937 
L 233.30304 195.685484 
L 233.530298 195.723293 
L 233.692625 195.767908 
L 233.952349 195.701059 
L 234.179607 195.32586 
L 234.601658 194.414186 
L 234.926313 193.776295 
L 235.186036 193.894286 
L 235.575622 194.391509 
L 235.900276 194.374847 
L 236.095069 194.421996 
L 236.289862 194.241488 
L 236.87424 193.416584 
L 237.23136 193.284775 
L 237.458618 193.29788 
L 238.042996 193.317646 
L 238.30272 193.138308 
L 238.854633 192.526529 
L 239.049425 192.411507 
L 239.698735 192.567512 
L 240.575302 191.69774 
L 240.932422 191.008032 
L 241.094749 190.955518 
L 241.322007 191.124297 
L 241.776524 191.217886 
L 242.58816 190.015843 
L 242.880349 189.974574 
L 243.010211 190.01912 
L 243.497193 189.49273 
L 243.789382 189.07897 
L 244.308829 189.079721 
L 244.503622 189.012971 
L 244.633484 188.90076 
L 246.354153 185.952736 
L 246.419084 186.007349 
L 246.646342 185.929235 
L 246.743738 185.851502 
L 247.295651 184.903729 
L 247.490444 184.521917 
L 247.652771 184.415194 
L 247.912495 184.312282 
L 248.529338 183.573853 
L 250.055215 180.758513 
L 250.477265 179.553924 
L 250.769455 179.130932 
L 250.931782 179.088156 
L 251.548625 177.770723 
L 252.327796 176.127406 
L 252.522589 176.091351 
L 252.684916 175.897359 
L 255.152291 169.02045 
L 255.963927 166.843897 
L 256.808029 165.435363 
L 257.619665 161.294192 
L 257.749527 161.365314 
L 258.041716 161.665666 
L 258.139113 161.57752 
L 258.65856 159.981553 
L 259.145542 158.420808 
L 260.574022 152.974748 
L 260.866211 152.176571 
L 261.255796 151.756734 
L 261.742778 150.841511 
L 261.905105 150.145279 
L 262.392087 147.965891 
L 262.814138 146.44383 
L 263.268655 144.940451 
L 263.398516 144.860598 
L 263.560844 145.108163 
L 263.788102 145.472037 
L 263.885498 145.37415 
L 264.112756 144.579331 
L 265.184116 139.912263 
L 265.44384 139.566145 
L 265.476305 139.759905 
L 265.573702 139.722637 
L 265.833425 139.371531 
L 266.320407 136.579024 
L 266.774924 134.39057 
L 266.807389 134.495386 
L 267.58656 137.640876 
L 267.651491 137.538118 
L 268.008611 136.428545 
L 268.528058 133.294338 
L 268.885178 132.113794 
L 269.112436 131.847219 
L 269.209833 131.878083 
L 269.274764 131.956694 
L 269.37216 131.792986 
L 269.404625 131.847849 
L 269.437091 131.743785 
L 269.72928 130.239495 
L 270.281193 127.963624 
L 270.346124 127.783183 
L 270.411055 127.853567 
L 270.898036 128.88463 
L 271.060364 128.671565 
L 271.092829 128.683141 
L 271.125295 128.57987 
L 271.222691 128.18387 
L 271.547345 127.026947 
L 271.612276 126.885286 
L 272.001862 125.591122 
L 272.099258 125.543578 
L 272.261585 125.314777 
L 272.294051 125.377596 
L 272.391447 125.408933 
L 272.58624 125.384174 
L 272.781033 125.135773 
L 272.94336 124.835459 
L 273.008291 124.878418 
L 273.170618 124.531917 
L 273.462807 123.750097 
L 273.884858 122.910511 
L 274.112116 123.052767 
L 274.339375 122.133567 
L 274.631564 121.165078 
L 274.826356 121.347132 
L 274.891287 121.775687 
L 275.08608 123.688487 
L 275.378269 124.756382 
L 275.4432 124.857669 
L 275.508131 124.784403 
L 275.605527 124.714163 
L 275.670458 124.629231 
L 276.060044 123.268469 
L 276.319767 122.432931 
L 276.449629 122.448318 
L 276.839215 122.478824 
L 277.2288 122.572569 
L 277.391127 122.647822 
L 277.780713 122.451932 
L 277.910575 122.382542 
L 277.94304 122.412863 
L 278.235229 122.888024 
L 278.267695 122.862149 
L 278.332625 122.80775 
L 278.592349 122.129087 
L 278.949469 121.160003 
L 279.111796 121.443958 
L 279.598778 123.212436 
L 279.663709 123.19028 
L 279.890967 122.496869 
L 280.118225 122.006715 
L 280.44288 121.731686 
L 280.767535 121.3855 
L 281.51424 121.402038 
L 281.773964 121.936709 
L 282.033687 122.470966 
L 282.293411 122.626612 
L 282.488204 122.752455 
L 282.812858 123.362146 
L 283.040116 123.446002 
L 283.169978 123.440493 
L 284.01408 124.46353 
L 284.046545 124.430225 
L 284.241338 124.112042 
L 284.468596 123.831796 
L 284.663389 123.862066 
L 284.825716 124.168717 
L 285.247767 125.565077 
L 285.539956 126.73179 
L 285.734749 126.574193 
L 285.994473 126.200213 
L 286.254196 126.491031 
L 286.351593 126.732135 
L 286.741178 128.607375 
L 286.903505 128.756417 
L 287.065833 128.52623 
L 287.422953 128.071216 
L 287.9424 128.465001 
L 288.072262 128.44802 
L 288.494313 129.083366 
L 288.559244 128.993071 
L 288.721571 129.008617 
L 288.883898 129.46835 
L 289.241018 132.027515 
L 289.500742 133.123799 
L 289.663069 133.044056 
L 289.825396 132.820499 
L 289.890327 132.87495 
L 289.987724 133.022813 
L 290.052655 132.965709 
L 290.247447 132.609138 
L 290.44224 132.286931 
L 290.572102 132.388377 
L 291.383738 133.925161 
L 291.546065 134.339632 
L 292.000582 134.144841 
L 292.22784 133.996973 
L 292.422633 133.947375 
L 292.747287 134.542751 
L 293.007011 135.474521 
L 293.104407 135.712043 
L 293.2992 135.838823 
L 293.493993 135.891409 
L 293.65632 136.102766 
L 293.883578 136.126307 
L 294.045905 135.910722 
L 294.305629 135.765121 
L 294.500422 135.82224 
L 294.857542 136.436904 
L 295.376989 138.087844 
L 295.669178 138.167815 
L 295.961367 137.649431 
L 296.123695 137.587584 
L 296.253556 137.863947 
L 296.448349 138.532368 
L 296.8704 141.04602 
L 297.195055 142.102659 
L 297.22752 142.159567 
L 297.292451 142.08511 
L 297.422313 141.563552 
L 298.169018 138.452063 
L 298.201484 138.469054 
L 298.29888 138.556273 
L 298.591069 139.896296 
L 299.565033 145.621902 
L 299.662429 145.440218 
L 299.889687 144.402931 
L 300.279273 142.607814 
L 300.636393 143.1913 
L 301.285702 146.033344 
L 301.350633 146.013037 
L 301.448029 145.966028 
L 301.805149 145.487418 
L 301.837615 145.514187 
L 301.999942 145.883799 
L 302.2272 146.751083 
L 302.454458 147.199816 
L 302.616785 147.158842 
L 302.844044 146.679098 
L 303.103767 146.186359 
L 303.493353 145.700999 
L 303.590749 145.856748 
L 303.882938 146.716536 
L 304.499782 148.683548 
L 304.856902 149.430539 
L 305.116625 149.210149 
L 305.538676 148.143749 
L 305.830865 148.204324 
L 306.415244 149.601529 
L 306.999622 151.007781 
L 307.032087 150.954884 
L 307.097018 150.908019 
L 307.129484 150.933684 
L 307.486604 151.782993 
L 307.713862 152.809796 
L 308.038516 154.198654 
L 308.557964 154.837448 
L 308.622895 154.83285 
L 308.752756 154.501683 
L 308.785222 154.581737 
L 308.915084 154.696392 
L 308.947549 154.572656 
L 309.01248 154.717485 
L 309.207273 154.919609 
L 309.239738 154.81969 
L 309.304669 154.963754 
L 309.72672 156.265311 
L 310.08384 158.059312 
L 310.473425 159.957048 
L 310.635753 159.690719 
L 311.122735 158.285303 
L 311.1552 158.36582 
L 311.577251 160.221237 
L 311.966836 162.324161 
L 312.453818 163.930506 
L 312.616145 164.000686 
L 312.713542 163.986622 
L 313.135593 163.059214 
L 313.492713 164.438646 
L 313.882298 165.867688 
L 314.044625 166.006047 
L 314.206953 166.037174 
L 314.336815 166.26633 
L 315.018589 168.06572 
L 315.473105 169.634503 
L 315.830225 170.046212 
L 315.992553 169.849866 
L 316.219811 169.600967 
L 316.382138 169.640085 
L 316.512 169.790909 
L 316.836655 170.840908 
L 317.680756 173.106679 
L 317.778153 173.055916 
L 318.070342 172.978117 
L 318.459927 173.431103 
L 319.044305 174.802837 
L 319.563753 176.139809 
L 320.148131 176.490507 
L 320.342924 176.668323 
L 320.862371 177.24247 
L 321.836335 178.677625 
L 322.193455 178.885383 
L 322.777833 179.599056 
L 323.167418 179.60638 
L 323.459607 179.822147 
L 323.6544 179.85918 
L 324.238778 179.65053 
L 324.855622 180.316943 
L 325.667258 181.023948 
L 325.991913 181.400621 
L 326.349033 181.084801 
L 326.900945 180.466624 
L 327.128204 180.547952 
L 327.907375 180.876448 
L 328.459287 180.52519 
L 328.913804 180.819307 
L 329.400785 180.357378 
L 329.595578 180.364117 
L 329.887767 180.410881 
L 330.115025 180.356843 
L 330.472145 179.994005 
L 330.894196 179.31858 
L 331.186385 178.757288 
L 331.673367 178.04132 
L 332.614865 177.754434 
L 332.809658 177.71817 
L 333.523898 176.931692 
L 333.783622 176.785593 
L 334.075811 176.469633 
L 334.432931 176.018835 
L 334.660189 176.086869 
L 334.822516 176.058023 
L 335.049775 175.87304 
L 336.186065 173.747236 
L 336.835375 173.563457 
L 337.192495 172.788175 
L 337.874269 171.39153 
L 339.237818 169.510921 
L 339.594938 169.270128 
L 339.887127 168.848235 
L 340.146851 168.019032 
L 340.568902 166.839404 
L 341.737658 165.141824 
L 342.776553 162.701264 
L 344.951738 158.228268 
L 345.308858 157.900744 
L 345.568582 157.377058 
L 345.925702 156.621549 
L 346.737338 154.593386 
L 347.354182 153.266413 
L 347.613905 152.937762 
L 347.971025 152.445584 
L 348.230749 151.815411 
L 348.555404 151.138476 
L 348.944989 150.536182 
L 350.860451 146.311723 
L 351.055244 146.246856 
L 351.412364 145.988067 
L 351.607156 145.708816 
L 351.801949 145.241481 
L 352.548655 143.519409 
L 353.262895 142.46427 
L 354.334255 139.399792 
L 354.951098 138.226017 
L 355.730269 137.250437 
L 356.022458 137.014208 
L 356.249716 136.262092 
L 357.028887 133.368192 
L 357.321076 133.078697 
L 357.548335 133.174995 
L 357.678196 133.153429 
L 357.905455 132.712128 
L 358.522298 131.389942 
L 358.976815 130.731356 
L 359.269004 129.352113 
L 359.626124 128.039633 
L 360.470225 125.886113 
L 361.022138 124.630937 
L 361.996102 122.759853 
L 362.061033 122.740809 
L 362.418153 121.551273 
L 363.132393 118.649411 
L 364.36608 114.93555 
L 364.853062 113.226285 
L 365.015389 113.060713 
L 365.047855 113.097148 
L 365.145251 113.24612 
L 365.177716 113.194868 
L 365.307578 113.309965 
L 365.340044 113.318127 
L 366.314007 109.750655 
L 367.612625 104.849334 
L 367.93728 104.548213 
L 368.034676 104.524931 
L 368.943709 101.59595 
L 369.203433 100.999327 
L 369.528087 100.488407 
L 369.820276 99.37184 
L 371.086429 93.046301 
L 371.281222 92.971716 
L 371.50848 92.945253 
L 371.735738 92.441089 
L 372.027927 91.198814 
L 372.417513 89.5893 
L 372.904495 88.679573 
L 374.073251 84.75433 
L 374.235578 84.371407 
L 375.047215 81.45494 
L 375.534196 79.007971 
L 376.053644 77.585201 
L 376.443229 76.733435 
L 376.702953 76.085376 
L 377.352262 73.35604 
L 377.709382 72.749261 
L 378.001571 72.202584 
L 378.228829 71.566983 
L 378.423622 71.358275 
L 378.618415 70.841262 
L 379.137862 69.230039 
L 379.332655 68.314975 
L 380.176756 64.704748 
L 380.43648 64.272666 
L 380.890996 63.112747 
L 381.183185 62.337067 
L 381.345513 62.193546 
L 381.572771 61.890964 
L 381.605236 61.908095 
L 381.735098 61.785148 
L 382.287011 60.337678 
L 382.481804 59.364917 
L 382.93632 57.164504 
L 383.488233 55.333469 
L 383.585629 55.387027 
L 383.975215 55.066873 
L 384.040145 55.084056 
L 384.429731 56.105211 
L 384.462196 56.079689 
L 384.72192 55.861202 
L 384.981644 55.686018 
L 385.338764 55.448807 
L 385.468625 55.5105 
L 385.695884 55.813389 
L 385.728349 55.756158 
L 386.377658 54.156854 
L 386.604916 53.788269 
L 386.767244 53.839302 
L 386.929571 53.76746 
L 387.124364 53.568 
L 387.416553 53.741456 
L 387.871069 54.846143 
L 388.228189 56.153966 
L 388.455447 56.349373 
L 388.487913 56.284837 
L 388.585309 56.149221 
L 388.65024 56.220304 
L 388.909964 56.429293 
L 388.942429 56.3833 
L 388.974895 56.313405 
L 389.039825 56.405751 
L 389.559273 57.014357 
L 389.851462 57.916193 
L 390.07872 58.241391 
L 390.241047 58.408219 
L 390.533236 59.744275 
L 390.760495 60.777284 
L 390.825425 60.750672 
L 390.955287 60.850642 
L 391.182545 61.263548 
L 391.896785 63.706704 
L 393.098007 69.729399 
L 393.487593 71.594157 
L 394.591418 79.260124 
L 394.851142 80.216153 
L 395.110865 81.490236 
L 395.467985 84.886943 
L 395.954967 89.378752 
L 396.279622 90.217381 
L 396.377018 90.302547 
L 396.571811 90.953871 
L 396.799069 93.030429 
L 397.57824 99.536204 
L 398.260015 105.758638 
L 398.487273 108.611272 
L 398.487273 108.611272 
" style="fill:none;stroke:#ff7f0e;stroke-linecap:square;stroke-width:1.5;"/>
   </g>
   <g id="line2d_16">
    <path clip-path="url(#pb07de384db)" d="M 73.832727 295.254582 
L 73.865193 295.488 
L 74.02752 280.679481 
L 74.319709 261.561136 
L 74.546967 292.988519 
L 74.579433 291.229468 
L 74.676829 277.605775 
L 74.74176 280.14351 
L 74.904087 286.018834 
L 75.09888 287.91219 
L 75.163811 287.607669 
L 75.391069 284.622032 
L 76.332567 268.416588 
L 77.468858 249.654877 
L 78.67008 233.99904 
L 79.806371 221.557047 
L 80.682938 214.265083 
L 81.494575 209.210088 
L 82.208815 206.028592 
L 82.825658 204.182134 
L 83.507433 202.815572 
L 84.156742 201.944641 
L 84.643724 201.625112 
L 84.935913 201.425682 
L 85.195636 201.363759 
L 85.552756 201.552176 
L 86.104669 202.13938 
L 86.948771 203.397959 
L 87.857804 205.177913 
L 88.117527 205.916988 
L 88.31232 206.485028 
L 88.831767 207.369012 
L 89.513542 209.027958 
L 94.513222 222.012269 
L 96.104029 225.405152 
L 98.344145 229.587217 
L 101.623156 235.85815 
L 104.415185 241.684086 
L 106.88256 247.400842 
L 111.719913 258.701819 
L 113.570444 262.490615 
L 114.609338 264.284259 
L 116.16768 266.592602 
L 117.23904 267.82079 
L 118.180538 268.588756 
L 118.992175 268.981192 
L 119.706415 269.091875 
L 120.355724 268.967991 
L 121.037498 268.606407 
L 121.816669 267.932308 
L 122.758167 266.807808 
L 123.017891 266.447455 
L 123.245149 267.349453 
L 124.316509 269.953224 
L 124.543767 270.326896 
L 124.576233 270.222254 
L 124.73856 270.058963 
L 125.063215 270.277952 
L 125.712524 270.699792 
L 126.459229 270.91918 
L 127.205935 270.905589 
L 128.017571 270.664592 
L 128.991535 270.121898 
L 130.322618 269.376439 
L 130.971927 269.078326 
L 131.88096 268.326967 
L 134.445731 265.899535 
L 136.101469 264.013598 
L 139.477876 260.143118 
L 141.036218 258.476407 
L 142.886749 256.796981 
L 144.607418 255.672823 
L 145.711244 254.964535 
L 146.750138 254.17787 
L 153.113367 248.817926 
L 154.639244 247.766082 
L 156.684567 246.570889 
L 159.119476 245.471151 
L 160.353164 245.161564 
L 160.612887 245.110988 
L 161.229731 244.964982 
L 161.489455 244.913902 
L 162.106298 244.771323 
L 162.366022 244.719149 
L 162.982865 244.575534 
L 163.242589 244.523767 
L 163.859433 244.382878 
L 164.119156 244.332272 
L 164.833396 244.180297 
L 165.222982 244.106362 
L 172.300451 242.410027 
L 183.143913 239.684797 
L 189.701935 238.132258 
L 198.013091 236.117975 
L 205.252887 234.706506 
L 211.583651 233.552252 
L 211.713513 233.896558 
L 211.843375 233.91907 
L 212.005702 233.668214 
L 212.038167 233.880537 
L 212.070633 233.655324 
L 212.103098 233.829466 
L 212.200495 233.563909 
L 212.23296 233.745817 
L 212.265425 233.521163 
L 212.297891 233.704828 
L 212.395287 233.441403 
L 212.427753 233.623191 
L 212.460218 233.4032 
L 212.492684 233.583432 
L 212.59008 233.329653 
L 212.622545 233.506497 
L 212.655011 233.296479 
L 212.687476 233.472126 
L 212.784873 233.237324 
L 212.817338 233.411409 
L 212.849804 233.211453 
L 212.882269 233.385067 
L 212.979665 233.166538 
L 213.012131 233.34073 
L 213.044596 233.147387 
L 213.077062 233.322872 
L 213.174458 233.11512 
L 213.239389 233.102316 
L 213.271855 233.285474 
L 213.369251 233.080164 
L 213.466647 233.26684 
L 213.564044 233.055016 
L 213.66144 233.260614 
L 213.758836 233.035583 
L 213.856233 233.261432 
L 213.953629 233.019396 
L 214.051025 233.254535 
L 214.148422 232.993649 
L 214.213353 232.982498 
L 214.245818 233.236074 
L 214.343215 232.965493 
L 214.37568 233.196245 
L 214.408145 232.949151 
L 214.440611 233.170234 
L 214.538007 232.898415 
L 214.570473 233.116178 
L 214.602938 232.867371 
L 214.635404 233.090698 
L 214.7328 232.807933 
L 214.765265 233.04823 
L 214.797731 232.790676 
L 214.830196 233.0271 
L 214.927593 232.756458 
L 214.960058 232.989367 
L 214.992524 232.74121 
L 215.024989 232.972791 
L 215.122385 232.715042 
L 215.154851 232.945224 
L 215.187316 232.704015 
L 215.219782 232.934254 
L 215.317178 232.685642 
L 215.414575 232.909255 
L 215.44704 232.802346 
L 215.511971 232.866772 
L 215.674298 232.864938 
L 215.966487 232.737249 
L 216.063884 232.814909 
L 216.096349 232.76913 
L 216.258676 232.802873 
L 216.421004 232.76223 
L 216.583331 232.793503 
L 216.745658 232.768096 
L 216.940451 232.770375 
L 217.297571 232.775347 
L 217.94688 232.785641 
L 219.635084 232.756181 
L 221.290822 232.45726 
L 222.297251 232.032459 
L 223.238749 231.345969 
L 224.667229 230.0333 
L 228.757876 226.013065 
L 234.049745 222.107067 
L 235.186036 221.412707 
L 236.939171 220.796306 
L 238.692305 220.782056 
L 240.120785 221.171249 
L 241.386938 221.760759 
L 242.94528 222.732628 
L 244.925673 224.251447 
L 247.457978 226.208908 
L 248.399476 226.575404 
L 252.165469 228.509909 
L 254.762705 229.656993 
L 257.035287 230.49573 
L 259.340335 231.119673 
L 262.197295 231.666924 
L 265.281513 232.036395 
L 268.755316 232.227049 
L 272.683636 232.267258 
L 272.94336 232.016372 
L 273.040756 231.954972 
L 273.397876 231.822231 
L 275.313338 231.530595 
L 279.144262 230.938551 
L 285.345164 229.642839 
L 286.87104 229.398536 
L 287.098298 229.359653 
L 287.780073 229.162495 
L 293.623855 228.348676 
L 298.266415 227.947455 
L 304.499782 227.669961 
L 320.148131 227.189435 
L 326.251636 226.645478 
L 331.121455 226.031649 
L 335.569222 225.23146 
L 340.861091 224.040423 
L 350.373469 221.853591 
L 353.587549 221.414635 
L 354.074531 221.449788 
L 354.301789 221.522569 
L 354.593978 221.224846 
L 354.951098 221.010746 
L 355.470545 221.010414 
L 356.736698 221.003583 
L 358.587229 221.010717 
L 358.944349 221.19662 
L 359.528727 221.219398 
L 361.801309 220.946575 
L 365.177716 221.123745 
L 370.956567 221.573307 
L 373.326545 221.925232 
L 373.488873 222.003479 
L 374.170647 221.814416 
L 375.4368 222.006789 
L 377.547055 222.195384 
L 380.404015 222.21741 
L 383.65056 222.03494 
L 386.410124 221.718597 
L 392.091578 221.003027 
L 395.370589 220.905479 
L 398.487273 220.919998 
L 398.487273 220.919998 
" style="fill:none;stroke:#bf00bf;stroke-linecap:square;stroke-width:1.5;"/>
   </g>
   <g id="patch_3">
    <path d="M 57.6 307.584 
L 57.6 41.472 
" style="fill:none;stroke:#000000;stroke-linecap:square;stroke-linejoin:miter;stroke-width:0.8;"/>
   </g>
   <g id="patch_4">
    <path d="M 414.72 307.584 
L 414.72 41.472 
" style="fill:none;stroke:#000000;stroke-linecap:square;stroke-linejoin:miter;stroke-width:0.8;"/>
   </g>
   <g id="patch_5">
    <path d="M 57.6 307.584 
L 414.72 307.584 
" style="fill:none;stroke:#000000;stroke-linecap:square;stroke-linejoin:miter;stroke-width:0.8;"/>
   </g>
   <g id="patch_6">
    <path d="M 57.6 41.472 
L 414.72 41.472 
" style="fill:none;stroke:#000000;stroke-linecap:square;stroke-linejoin:miter;stroke-width:0.8;"/>
   </g>
   <g id="text_16">
    <!-- Plot of Object pose error norm over a single episode  -->
    <g transform="translate(77.670938 8.59725)scale(0.12 -0.12)">
     <defs>
      <path d="M 19.671875 64.796875 
L 19.671875 37.40625 
L 32.078125 37.40625 
Q 38.96875 37.40625 42.71875 40.96875 
Q 46.484375 44.53125 46.484375 51.125 
Q 46.484375 57.671875 42.71875 61.234375 
Q 38.96875 64.796875 32.078125 64.796875 
z
M 9.8125 72.90625 
L 32.078125 72.90625 
Q 44.34375 72.90625 50.609375 67.359375 
Q 56.890625 61.8125 56.890625 51.125 
Q 56.890625 40.328125 50.609375 34.8125 
Q 44.34375 29.296875 32.078125 29.296875 
L 19.671875 29.296875 
L 19.671875 0 
L 9.8125 0 
z
" id="DejaVuSans-80"/>
      <path d="M 9.421875 75.984375 
L 18.40625 75.984375 
L 18.40625 0 
L 9.421875 0 
z
" id="DejaVuSans-108"/>
      <path id="DejaVuSans-32"/>
      <path d="M 37.109375 75.984375 
L 37.109375 68.5 
L 28.515625 68.5 
Q 23.6875 68.5 21.796875 66.546875 
Q 19.921875 64.59375 19.921875 59.515625 
L 19.921875 54.6875 
L 34.71875 54.6875 
L 34.71875 47.703125 
L 19.921875 47.703125 
L 19.921875 0 
L 10.890625 0 
L 10.890625 47.703125 
L 2.296875 47.703125 
L 2.296875 54.6875 
L 10.890625 54.6875 
L 10.890625 58.5 
Q 10.890625 67.625 15.140625 71.796875 
Q 19.390625 75.984375 28.609375 75.984375 
z
" id="DejaVuSans-102"/>
      <path d="M 48.78125 52.59375 
L 48.78125 44.1875 
Q 44.96875 46.296875 41.140625 47.34375 
Q 37.3125 48.390625 33.40625 48.390625 
Q 24.65625 48.390625 19.8125 42.84375 
Q 14.984375 37.3125 14.984375 27.296875 
Q 14.984375 17.28125 19.8125 11.734375 
Q 24.65625 6.203125 33.40625 6.203125 
Q 37.3125 6.203125 41.140625 7.25 
Q 44.96875 8.296875 48.78125 10.40625 
L 48.78125 2.09375 
Q 45.015625 0.34375 40.984375 -0.53125 
Q 36.96875 -1.421875 32.421875 -1.421875 
Q 20.0625 -1.421875 12.78125 6.34375 
Q 5.515625 14.109375 5.515625 27.296875 
Q 5.515625 40.671875 12.859375 48.328125 
Q 20.21875 56 33.015625 56 
Q 37.15625 56 41.109375 55.140625 
Q 45.0625 54.296875 48.78125 52.59375 
z
" id="DejaVuSans-99"/>
      <path d="M 2.984375 54.6875 
L 12.5 54.6875 
L 29.59375 8.796875 
L 46.6875 54.6875 
L 56.203125 54.6875 
L 35.6875 0 
L 23.484375 0 
z
" id="DejaVuSans-118"/>
      <path d="M 34.28125 27.484375 
Q 23.390625 27.484375 19.1875 25 
Q 14.984375 22.515625 14.984375 16.5 
Q 14.984375 11.71875 18.140625 8.90625 
Q 21.296875 6.109375 26.703125 6.109375 
Q 34.1875 6.109375 38.703125 11.40625 
Q 43.21875 16.703125 43.21875 25.484375 
L 43.21875 27.484375 
z
M 52.203125 31.203125 
L 52.203125 0 
L 43.21875 0 
L 43.21875 8.296875 
Q 40.140625 3.328125 35.546875 0.953125 
Q 30.953125 -1.421875 24.3125 -1.421875 
Q 15.921875 -1.421875 10.953125 3.296875 
Q 6 8.015625 6 15.921875 
Q 6 25.140625 12.171875 29.828125 
Q 18.359375 34.515625 30.609375 34.515625 
L 43.21875 34.515625 
L 43.21875 35.40625 
Q 43.21875 41.609375 39.140625 45 
Q 35.0625 48.390625 27.6875 48.390625 
Q 23 48.390625 18.546875 47.265625 
Q 14.109375 46.140625 10.015625 43.890625 
L 10.015625 52.203125 
Q 14.9375 54.109375 19.578125 55.046875 
Q 24.21875 56 28.609375 56 
Q 40.484375 56 46.34375 49.84375 
Q 52.203125 43.703125 52.203125 31.203125 
z
" id="DejaVuSans-97"/>
      <path d="M 45.40625 27.984375 
Q 45.40625 37.75 41.375 43.109375 
Q 37.359375 48.484375 30.078125 48.484375 
Q 22.859375 48.484375 18.828125 43.109375 
Q 14.796875 37.75 14.796875 27.984375 
Q 14.796875 18.265625 18.828125 12.890625 
Q 22.859375 7.515625 30.078125 7.515625 
Q 37.359375 7.515625 41.375 12.890625 
Q 45.40625 18.265625 45.40625 27.984375 
z
M 54.390625 6.78125 
Q 54.390625 -7.171875 48.1875 -13.984375 
Q 42 -20.796875 29.203125 -20.796875 
Q 24.46875 -20.796875 20.265625 -20.09375 
Q 16.0625 -19.390625 12.109375 -17.921875 
L 12.109375 -9.1875 
Q 16.0625 -11.328125 19.921875 -12.34375 
Q 23.78125 -13.375 27.78125 -13.375 
Q 36.625 -13.375 41.015625 -8.765625 
Q 45.40625 -4.15625 45.40625 5.171875 
L 45.40625 9.625 
Q 42.625 4.78125 38.28125 2.390625 
Q 33.9375 0 27.875 0 
Q 17.828125 0 11.671875 7.65625 
Q 5.515625 15.328125 5.515625 27.984375 
Q 5.515625 40.671875 11.671875 48.328125 
Q 17.828125 56 27.875 56 
Q 33.9375 56 38.28125 53.609375 
Q 42.625 51.21875 45.40625 46.390625 
L 45.40625 54.6875 
L 54.390625 54.6875 
z
" id="DejaVuSans-103"/>
      <path d="M 45.40625 46.390625 
L 45.40625 75.984375 
L 54.390625 75.984375 
L 54.390625 0 
L 45.40625 0 
L 45.40625 8.203125 
Q 42.578125 3.328125 38.25 0.953125 
Q 33.9375 -1.421875 27.875 -1.421875 
Q 17.96875 -1.421875 11.734375 6.484375 
Q 5.515625 14.40625 5.515625 27.296875 
Q 5.515625 40.1875 11.734375 48.09375 
Q 17.96875 56 27.875 56 
Q 33.9375 56 38.25 53.625 
Q 42.578125 51.265625 45.40625 46.390625 
z
M 14.796875 27.296875 
Q 14.796875 17.390625 18.875 11.75 
Q 22.953125 6.109375 30.078125 6.109375 
Q 37.203125 6.109375 41.296875 11.75 
Q 45.40625 17.390625 45.40625 27.296875 
Q 45.40625 37.203125 41.296875 42.84375 
Q 37.203125 48.484375 30.078125 48.484375 
Q 22.953125 48.484375 18.875 42.84375 
Q 14.796875 37.203125 14.796875 27.296875 
z
" id="DejaVuSans-100"/>
     </defs>
     <use xlink:href="#DejaVuSans-80"/>
     <use x="60.302734" xlink:href="#DejaVuSans-108"/>
     <use x="88.085938" xlink:href="#DejaVuSans-111"/>
     <use x="149.267578" xlink:href="#DejaVuSans-116"/>
     <use x="188.476562" xlink:href="#DejaVuSans-32"/>
     <use x="220.263672" xlink:href="#DejaVuSans-111"/>
     <use x="281.445312" xlink:href="#DejaVuSans-102"/>
     <use x="316.650391" xlink:href="#DejaVuSans-32"/>
     <use x="348.4375" xlink:href="#DejaVuSans-79"/>
     <use x="427.148438" xlink:href="#DejaVuSans-98"/>
     <use x="490.625" xlink:href="#DejaVuSans-106"/>
     <use x="518.408203" xlink:href="#DejaVuSans-101"/>
     <use x="579.931641" xlink:href="#DejaVuSans-99"/>
     <use x="634.912109" xlink:href="#DejaVuSans-116"/>
     <use x="674.121094" xlink:href="#DejaVuSans-32"/>
     <use x="705.908203" xlink:href="#DejaVuSans-112"/>
     <use x="769.384766" xlink:href="#DejaVuSans-111"/>
     <use x="830.566406" xlink:href="#DejaVuSans-115"/>
     <use x="882.666016" xlink:href="#DejaVuSans-101"/>
     <use x="944.189453" xlink:href="#DejaVuSans-32"/>
     <use x="975.976562" xlink:href="#DejaVuSans-101"/>
     <use x="1037.5" xlink:href="#DejaVuSans-114"/>
     <use x="1076.863281" xlink:href="#DejaVuSans-114"/>
     <use x="1115.726562" xlink:href="#DejaVuSans-111"/>
     <use x="1176.908203" xlink:href="#DejaVuSans-114"/>
     <use x="1218.021484" xlink:href="#DejaVuSans-32"/>
     <use x="1249.808594" xlink:href="#DejaVuSans-110"/>
     <use x="1313.1875" xlink:href="#DejaVuSans-111"/>
     <use x="1374.369141" xlink:href="#DejaVuSans-114"/>
     <use x="1413.732422" xlink:href="#DejaVuSans-109"/>
     <use x="1511.144531" xlink:href="#DejaVuSans-32"/>
     <use x="1542.931641" xlink:href="#DejaVuSans-111"/>
     <use x="1604.113281" xlink:href="#DejaVuSans-118"/>
     <use x="1663.292969" xlink:href="#DejaVuSans-101"/>
     <use x="1724.816406" xlink:href="#DejaVuSans-114"/>
     <use x="1765.929688" xlink:href="#DejaVuSans-32"/>
     <use x="1797.716797" xlink:href="#DejaVuSans-97"/>
     <use x="1858.996094" xlink:href="#DejaVuSans-32"/>
     <use x="1890.783203" xlink:href="#DejaVuSans-115"/>
     <use x="1942.882812" xlink:href="#DejaVuSans-105"/>
     <use x="1970.666016" xlink:href="#DejaVuSans-110"/>
     <use x="2034.044922" xlink:href="#DejaVuSans-103"/>
     <use x="2097.521484" xlink:href="#DejaVuSans-108"/>
     <use x="2125.304688" xlink:href="#DejaVuSans-101"/>
     <use x="2186.828125" xlink:href="#DejaVuSans-32"/>
     <use x="2218.615234" xlink:href="#DejaVuSans-101"/>
     <use x="2280.138672" xlink:href="#DejaVuSans-112"/>
     <use x="2343.615234" xlink:href="#DejaVuSans-105"/>
     <use x="2371.398438" xlink:href="#DejaVuSans-115"/>
     <use x="2423.498047" xlink:href="#DejaVuSans-111"/>
     <use x="2484.679688" xlink:href="#DejaVuSans-100"/>
     <use x="2548.15625" xlink:href="#DejaVuSans-101"/>
     <use x="2609.679688" xlink:href="#DejaVuSans-32"/>
    </g>
    <!--  Avg object pose error norm: Residual RL = 0.284, Standard = 0.344,  -->
    <g transform="translate(26.875313 22.034625)scale(0.12 -0.12)">
     <defs>
      <path d="M 34.1875 63.1875 
L 20.796875 26.90625 
L 47.609375 26.90625 
z
M 28.609375 72.90625 
L 39.796875 72.90625 
L 67.578125 0 
L 57.328125 0 
L 50.6875 18.703125 
L 17.828125 18.703125 
L 11.1875 0 
L 0.78125 0 
z
" id="DejaVuSans-65"/>
      <path d="M 11.71875 12.40625 
L 22.015625 12.40625 
L 22.015625 0 
L 11.71875 0 
z
M 11.71875 51.703125 
L 22.015625 51.703125 
L 22.015625 39.3125 
L 11.71875 39.3125 
z
" id="DejaVuSans-58"/>
      <path d="M 44.390625 34.1875 
Q 47.5625 33.109375 50.5625 29.59375 
Q 53.5625 26.078125 56.59375 19.921875 
L 66.609375 0 
L 56 0 
L 46.6875 18.703125 
Q 43.0625 26.03125 39.671875 28.421875 
Q 36.28125 30.8125 30.421875 30.8125 
L 19.671875 30.8125 
L 19.671875 0 
L 9.8125 0 
L 9.8125 72.90625 
L 32.078125 72.90625 
Q 44.578125 72.90625 50.734375 67.671875 
Q 56.890625 62.453125 56.890625 51.90625 
Q 56.890625 45.015625 53.6875 40.46875 
Q 50.484375 35.9375 44.390625 34.1875 
z
M 19.671875 64.796875 
L 19.671875 38.921875 
L 32.078125 38.921875 
Q 39.203125 38.921875 42.84375 42.21875 
Q 46.484375 45.515625 46.484375 51.90625 
Q 46.484375 58.296875 42.84375 61.546875 
Q 39.203125 64.796875 32.078125 64.796875 
z
" id="DejaVuSans-82"/>
      <path d="M 9.8125 72.90625 
L 19.671875 72.90625 
L 19.671875 8.296875 
L 55.171875 8.296875 
L 55.171875 0 
L 9.8125 0 
z
" id="DejaVuSans-76"/>
      <path d="M 10.59375 45.40625 
L 73.1875 45.40625 
L 73.1875 37.203125 
L 10.59375 37.203125 
z
M 10.59375 25.484375 
L 73.1875 25.484375 
L 73.1875 17.1875 
L 10.59375 17.1875 
z
" id="DejaVuSans-61"/>
      <path d="M 11.71875 12.40625 
L 22.015625 12.40625 
L 22.015625 4 
L 14.015625 -11.625 
L 7.71875 -11.625 
L 11.71875 4 
z
" id="DejaVuSans-44"/>
      <path d="M 53.515625 70.515625 
L 53.515625 60.890625 
Q 47.90625 63.578125 42.921875 64.890625 
Q 37.9375 66.21875 33.296875 66.21875 
Q 25.25 66.21875 20.875 63.09375 
Q 16.5 59.96875 16.5 54.203125 
Q 16.5 49.359375 19.40625 46.890625 
Q 22.3125 44.4375 30.421875 42.921875 
L 36.375 41.703125 
Q 47.40625 39.59375 52.65625 34.296875 
Q 57.90625 29 57.90625 20.125 
Q 57.90625 9.515625 50.796875 4.046875 
Q 43.703125 -1.421875 29.984375 -1.421875 
Q 24.8125 -1.421875 18.96875 -0.25 
Q 13.140625 0.921875 6.890625 3.21875 
L 6.890625 13.375 
Q 12.890625 10.015625 18.65625 8.296875 
Q 24.421875 6.59375 29.984375 6.59375 
Q 38.421875 6.59375 43.015625 9.90625 
Q 47.609375 13.234375 47.609375 19.390625 
Q 47.609375 24.75 44.3125 27.78125 
Q 41.015625 30.8125 33.5 32.328125 
L 27.484375 33.5 
Q 16.453125 35.6875 11.515625 40.375 
Q 6.59375 45.0625 6.59375 53.421875 
Q 6.59375 63.09375 13.40625 68.65625 
Q 20.21875 74.21875 32.171875 74.21875 
Q 37.3125 74.21875 42.625 73.28125 
Q 47.953125 72.359375 53.515625 70.515625 
z
" id="DejaVuSans-83"/>
     </defs>
     <use xlink:href="#DejaVuSans-32"/>
     <use x="31.787109" xlink:href="#DejaVuSans-65"/>
     <use x="94.320312" xlink:href="#DejaVuSans-118"/>
     <use x="153.5" xlink:href="#DejaVuSans-103"/>
     <use x="216.976562" xlink:href="#DejaVuSans-32"/>
     <use x="248.763672" xlink:href="#DejaVuSans-111"/>
     <use x="309.945312" xlink:href="#DejaVuSans-98"/>
     <use x="373.421875" xlink:href="#DejaVuSans-106"/>
     <use x="401.205078" xlink:href="#DejaVuSans-101"/>
     <use x="462.728516" xlink:href="#DejaVuSans-99"/>
     <use x="517.708984" xlink:href="#DejaVuSans-116"/>
     <use x="556.917969" xlink:href="#DejaVuSans-32"/>
     <use x="588.705078" xlink:href="#DejaVuSans-112"/>
     <use x="652.181641" xlink:href="#DejaVuSans-111"/>
     <use x="713.363281" xlink:href="#DejaVuSans-115"/>
     <use x="765.462891" xlink:href="#DejaVuSans-101"/>
     <use x="826.986328" xlink:href="#DejaVuSans-32"/>
     <use x="858.773438" xlink:href="#DejaVuSans-101"/>
     <use x="920.296875" xlink:href="#DejaVuSans-114"/>
     <use x="959.660156" xlink:href="#DejaVuSans-114"/>
     <use x="998.523438" xlink:href="#DejaVuSans-111"/>
     <use x="1059.705078" xlink:href="#DejaVuSans-114"/>
     <use x="1100.818359" xlink:href="#DejaVuSans-32"/>
     <use x="1132.605469" xlink:href="#DejaVuSans-110"/>
     <use x="1195.984375" xlink:href="#DejaVuSans-111"/>
     <use x="1257.166016" xlink:href="#DejaVuSans-114"/>
     <use x="1296.529297" xlink:href="#DejaVuSans-109"/>
     <use x="1393.941406" xlink:href="#DejaVuSans-58"/>
     <use x="1427.632812" xlink:href="#DejaVuSans-32"/>
     <use x="1459.419922" xlink:href="#DejaVuSans-82"/>
     <use x="1524.402344" xlink:href="#DejaVuSans-101"/>
     <use x="1585.925781" xlink:href="#DejaVuSans-115"/>
     <use x="1638.025391" xlink:href="#DejaVuSans-105"/>
     <use x="1665.808594" xlink:href="#DejaVuSans-100"/>
     <use x="1729.285156" xlink:href="#DejaVuSans-117"/>
     <use x="1792.664062" xlink:href="#DejaVuSans-97"/>
     <use x="1853.943359" xlink:href="#DejaVuSans-108"/>
     <use x="1881.726562" xlink:href="#DejaVuSans-32"/>
     <use x="1913.513672" xlink:href="#DejaVuSans-82"/>
     <use x="1982.996094" xlink:href="#DejaVuSans-76"/>
     <use x="2038.708984" xlink:href="#DejaVuSans-32"/>
     <use x="2070.496094" xlink:href="#DejaVuSans-61"/>
     <use x="2154.285156" xlink:href="#DejaVuSans-32"/>
     <use x="2186.072266" xlink:href="#DejaVuSans-48"/>
     <use x="2249.695312" xlink:href="#DejaVuSans-46"/>
     <use x="2281.482422" xlink:href="#DejaVuSans-50"/>
     <use x="2345.105469" xlink:href="#DejaVuSans-56"/>
     <use x="2408.728516" xlink:href="#DejaVuSans-52"/>
     <use x="2472.351562" xlink:href="#DejaVuSans-44"/>
     <use x="2504.138672" xlink:href="#DejaVuSans-32"/>
     <use x="2535.925781" xlink:href="#DejaVuSans-83"/>
     <use x="2599.402344" xlink:href="#DejaVuSans-116"/>
     <use x="2638.611328" xlink:href="#DejaVuSans-97"/>
     <use x="2699.890625" xlink:href="#DejaVuSans-110"/>
     <use x="2763.269531" xlink:href="#DejaVuSans-100"/>
     <use x="2826.746094" xlink:href="#DejaVuSans-97"/>
     <use x="2888.025391" xlink:href="#DejaVuSans-114"/>
     <use x="2927.388672" xlink:href="#DejaVuSans-100"/>
     <use x="2990.865234" xlink:href="#DejaVuSans-32"/>
     <use x="3022.652344" xlink:href="#DejaVuSans-61"/>
     <use x="3106.441406" xlink:href="#DejaVuSans-32"/>
     <use x="3138.228516" xlink:href="#DejaVuSans-48"/>
     <use x="3201.851562" xlink:href="#DejaVuSans-46"/>
     <use x="3233.638672" xlink:href="#DejaVuSans-51"/>
     <use x="3297.261719" xlink:href="#DejaVuSans-52"/>
     <use x="3360.884766" xlink:href="#DejaVuSans-52"/>
     <use x="3424.507812" xlink:href="#DejaVuSans-44"/>
     <use x="3456.294922" xlink:href="#DejaVuSans-32"/>
    </g>
    <!--  Baseline = 0.178 -->
    <g transform="translate(182.795625 35.472)scale(0.12 -0.12)">
     <defs>
      <path d="M 19.671875 34.8125 
L 19.671875 8.109375 
L 35.5 8.109375 
Q 43.453125 8.109375 47.28125 11.40625 
Q 51.125 14.703125 51.125 21.484375 
Q 51.125 28.328125 47.28125 31.5625 
Q 43.453125 34.8125 35.5 34.8125 
z
M 19.671875 64.796875 
L 19.671875 42.828125 
L 34.28125 42.828125 
Q 41.5 42.828125 45.03125 45.53125 
Q 48.578125 48.25 48.578125 53.8125 
Q 48.578125 59.328125 45.03125 62.0625 
Q 41.5 64.796875 34.28125 64.796875 
z
M 9.8125 72.90625 
L 35.015625 72.90625 
Q 46.296875 72.90625 52.390625 68.21875 
Q 58.5 63.53125 58.5 54.890625 
Q 58.5 48.1875 55.375 44.234375 
Q 52.25 40.28125 46.1875 39.3125 
Q 53.46875 37.75 57.5 32.78125 
Q 61.53125 27.828125 61.53125 20.40625 
Q 61.53125 10.640625 54.890625 5.3125 
Q 48.25 0 35.984375 0 
L 9.8125 0 
z
" id="DejaVuSans-66"/>
      <path d="M 8.203125 72.90625 
L 55.078125 72.90625 
L 55.078125 68.703125 
L 28.609375 0 
L 18.3125 0 
L 43.21875 64.59375 
L 8.203125 64.59375 
z
" id="DejaVuSans-55"/>
     </defs>
     <use xlink:href="#DejaVuSans-32"/>
     <use x="31.787109" xlink:href="#DejaVuSans-66"/>
     <use x="100.390625" xlink:href="#DejaVuSans-97"/>
     <use x="161.669922" xlink:href="#DejaVuSans-115"/>
     <use x="213.769531" xlink:href="#DejaVuSans-101"/>
     <use x="275.292969" xlink:href="#DejaVuSans-108"/>
     <use x="303.076172" xlink:href="#DejaVuSans-105"/>
     <use x="330.859375" xlink:href="#DejaVuSans-110"/>
     <use x="394.238281" xlink:href="#DejaVuSans-101"/>
     <use x="455.761719" xlink:href="#DejaVuSans-32"/>
     <use x="487.548828" xlink:href="#DejaVuSans-61"/>
     <use x="571.337891" xlink:href="#DejaVuSans-32"/>
     <use x="603.125" xlink:href="#DejaVuSans-48"/>
     <use x="666.748047" xlink:href="#DejaVuSans-46"/>
     <use x="698.535156" xlink:href="#DejaVuSans-49"/>
     <use x="762.158203" xlink:href="#DejaVuSans-55"/>
     <use x="825.78125" xlink:href="#DejaVuSans-56"/>
    </g>
   </g>
   <g id="legend_1">
    <g id="patch_7">
     <path d="M 64.6 93.506375 
L 154.529687 93.506375 
Q 156.529687 93.506375 156.529687 91.506375 
L 156.529687 48.472 
Q 156.529687 46.472 154.529687 46.472 
L 64.6 46.472 
Q 62.6 46.472 62.6 48.472 
L 62.6 91.506375 
Q 62.6 93.506375 64.6 93.506375 
z
" style="fill:#ffffff;opacity:0.8;stroke:#cccccc;stroke-linejoin:miter;"/>
    </g>
    <g id="line2d_17">
     <path d="M 66.6 54.570438 
L 86.6 54.570438 
" style="fill:none;stroke:#1f77b4;stroke-linecap:square;stroke-width:1.5;"/>
    </g>
    <g id="line2d_18"/>
    <g id="text_17">
     <!-- Residual RL -->
     <g transform="translate(94.6 58.070438)scale(0.1 -0.1)">
      <use xlink:href="#DejaVuSans-82"/>
      <use x="64.982422" xlink:href="#DejaVuSans-101"/>
      <use x="126.505859" xlink:href="#DejaVuSans-115"/>
      <use x="178.605469" xlink:href="#DejaVuSans-105"/>
      <use x="206.388672" xlink:href="#DejaVuSans-100"/>
      <use x="269.865234" xlink:href="#DejaVuSans-117"/>
      <use x="333.244141" xlink:href="#DejaVuSans-97"/>
      <use x="394.523438" xlink:href="#DejaVuSans-108"/>
      <use x="422.306641" xlink:href="#DejaVuSans-32"/>
      <use x="454.09375" xlink:href="#DejaVuSans-82"/>
      <use x="523.576172" xlink:href="#DejaVuSans-76"/>
     </g>
    </g>
    <g id="line2d_19">
     <path d="M 66.6 69.248563 
L 86.6 69.248563 
" style="fill:none;stroke:#ff7f0e;stroke-linecap:square;stroke-width:1.5;"/>
    </g>
    <g id="line2d_20"/>
    <g id="text_18">
     <!-- Standard -->
     <g transform="translate(94.6 72.748563)scale(0.1 -0.1)">
      <use xlink:href="#DejaVuSans-83"/>
      <use x="63.476562" xlink:href="#DejaVuSans-116"/>
      <use x="102.685547" xlink:href="#DejaVuSans-97"/>
      <use x="163.964844" xlink:href="#DejaVuSans-110"/>
      <use x="227.34375" xlink:href="#DejaVuSans-100"/>
      <use x="290.820312" xlink:href="#DejaVuSans-97"/>
      <use x="352.099609" xlink:href="#DejaVuSans-114"/>
      <use x="391.462891" xlink:href="#DejaVuSans-100"/>
     </g>
    </g>
    <g id="line2d_21">
     <path d="M 66.6 83.926688 
L 86.6 83.926688 
" style="fill:none;stroke:#bf00bf;stroke-linecap:square;stroke-width:1.5;"/>
    </g>
    <g id="line2d_22"/>
    <g id="text_19">
     <!-- Baseline -->
     <g transform="translate(94.6 87.426688)scale(0.1 -0.1)">
      <use xlink:href="#DejaVuSans-66"/>
      <use x="68.603516" xlink:href="#DejaVuSans-97"/>
      <use x="129.882812" xlink:href="#DejaVuSans-115"/>
      <use x="181.982422" xlink:href="#DejaVuSans-101"/>
      <use x="243.505859" xlink:href="#DejaVuSans-108"/>
      <use x="271.289062" xlink:href="#DejaVuSans-105"/>
      <use x="299.072266" xlink:href="#DejaVuSans-110"/>
      <use x="362.451172" xlink:href="#DejaVuSans-101"/>
     </g>
    </g>
   </g>
  </g>
 </g>
 <defs>
  <clipPath id="pb07de384db">
   <rect height="266.112" width="357.12" x="57.6" y="41.472"/>
  </clipPath>
 </defs>
</svg>
