<?xml version="1.0" encoding="utf-8" standalone="no"?>
<!DOCTYPE svg PUBLIC "-//W3C//DTD SVG 1.1//EN"
  "http://www.w3.org/Graphics/SVG/1.1/DTD/svg11.dtd">
<!-- Created with matplotlib (https://matplotlib.org/) -->
<svg height="345.6pt" version="1.1" viewBox="0 0 460.8 345.6" width="460.8pt" xmlns="http://www.w3.org/2000/svg" xmlns:xlink="http://www.w3.org/1999/xlink">
 <metadata>
  <rdf:RDF xmlns:cc="http://creativecommons.org/ns#" xmlns:dc="http://purl.org/dc/elements/1.1/" xmlns:rdf="http://www.w3.org/1999/02/22-rdf-syntax-ns#">
   <cc:Work>
    <dc:type rdf:resource="http://purl.org/dc/dcmitype/StillImage"/>
    <dc:date>2022-07-21T18:30:51.903250</dc:date>
    <dc:format>image/svg+xml</dc:format>
    <dc:creator>
     <cc:Agent>
      <dc:title>Matplotlib v3.3.4, https://matplotlib.org/</dc:title>
     </cc:Agent>
    </dc:creator>
   </cc:Work>
  </rdf:RDF>
 </metadata>
 <defs>
  <style type="text/css">*{stroke-linecap:butt;stroke-linejoin:round;}</style>
 </defs>
 <g id="figure_1">
  <g id="patch_1">
   <path d="M 0 345.6 
L 460.8 345.6 
L 460.8 0 
L 0 0 
z
" style="fill:#ffffff;"/>
  </g>
  <g id="axes_1">
   <g id="patch_2">
    <path d="M 57.6 307.584 
L 414.72 307.584 
L 414.72 41.472 
L 57.6 41.472 
z
" style="fill:#ffffff;"/>
   </g>
   <g id="matplotlib.axis_1">
    <g id="xtick_1">
     <g id="line2d_1">
      <defs>
       <path d="M 0 0 
L 0 3.5 
" id="m1c87c5e366" style="stroke:#000000;stroke-width:0.8;"/>
      </defs>
      <g>
       <use style="stroke:#000000;stroke-width:0.8;" x="73.832727" xlink:href="#m1c87c5e366" y="307.584"/>
      </g>
     </g>
     <g id="text_1">
      <!-- 0 -->
      <g transform="translate(70.651477 322.182437)scale(0.1 -0.1)">
       <defs>
        <path d="M 31.78125 66.40625 
Q 24.171875 66.40625 20.328125 58.90625 
Q 16.5 51.421875 16.5 36.375 
Q 16.5 21.390625 20.328125 13.890625 
Q 24.171875 6.390625 31.78125 6.390625 
Q 39.453125 6.390625 43.28125 13.890625 
Q 47.125 21.390625 47.125 36.375 
Q 47.125 51.421875 43.28125 58.90625 
Q 39.453125 66.40625 31.78125 66.40625 
z
M 31.78125 74.21875 
Q 44.046875 74.21875 50.515625 64.515625 
Q 56.984375 54.828125 56.984375 36.375 
Q 56.984375 17.96875 50.515625 8.265625 
Q 44.046875 -1.421875 31.78125 -1.421875 
Q 19.53125 -1.421875 13.0625 8.265625 
Q 6.59375 17.96875 6.59375 36.375 
Q 6.59375 54.828125 13.0625 64.515625 
Q 19.53125 74.21875 31.78125 74.21875 
z
" id="DejaVuSans-48"/>
       </defs>
       <use xlink:href="#DejaVuSans-48"/>
      </g>
     </g>
    </g>
    <g id="xtick_2">
     <g id="line2d_2">
      <g>
       <use style="stroke:#000000;stroke-width:0.8;" x="138.763636" xlink:href="#m1c87c5e366" y="307.584"/>
      </g>
     </g>
     <g id="text_2">
      <!-- 2000 -->
      <g transform="translate(126.038636 322.182437)scale(0.1 -0.1)">
       <defs>
        <path d="M 19.1875 8.296875 
L 53.609375 8.296875 
L 53.609375 0 
L 7.328125 0 
L 7.328125 8.296875 
Q 12.9375 14.109375 22.625 23.890625 
Q 32.328125 33.6875 34.8125 36.53125 
Q 39.546875 41.84375 41.421875 45.53125 
Q 43.3125 49.21875 43.3125 52.78125 
Q 43.3125 58.59375 39.234375 62.25 
Q 35.15625 65.921875 28.609375 65.921875 
Q 23.96875 65.921875 18.8125 64.3125 
Q 13.671875 62.703125 7.8125 59.421875 
L 7.8125 69.390625 
Q 13.765625 71.78125 18.9375 73 
Q 24.125 74.21875 28.421875 74.21875 
Q 39.75 74.21875 46.484375 68.546875 
Q 53.21875 62.890625 53.21875 53.421875 
Q 53.21875 48.921875 51.53125 44.890625 
Q 49.859375 40.875 45.40625 35.40625 
Q 44.1875 33.984375 37.640625 27.21875 
Q 31.109375 20.453125 19.1875 8.296875 
z
" id="DejaVuSans-50"/>
       </defs>
       <use xlink:href="#DejaVuSans-50"/>
       <use x="63.623047" xlink:href="#DejaVuSans-48"/>
       <use x="127.246094" xlink:href="#DejaVuSans-48"/>
       <use x="190.869141" xlink:href="#DejaVuSans-48"/>
      </g>
     </g>
    </g>
    <g id="xtick_3">
     <g id="line2d_3">
      <g>
       <use style="stroke:#000000;stroke-width:0.8;" x="203.694545" xlink:href="#m1c87c5e366" y="307.584"/>
      </g>
     </g>
     <g id="text_3">
      <!-- 4000 -->
      <g transform="translate(190.969545 322.182437)scale(0.1 -0.1)">
       <defs>
        <path d="M 37.796875 64.3125 
L 12.890625 25.390625 
L 37.796875 25.390625 
z
M 35.203125 72.90625 
L 47.609375 72.90625 
L 47.609375 25.390625 
L 58.015625 25.390625 
L 58.015625 17.1875 
L 47.609375 17.1875 
L 47.609375 0 
L 37.796875 0 
L 37.796875 17.1875 
L 4.890625 17.1875 
L 4.890625 26.703125 
z
" id="DejaVuSans-52"/>
       </defs>
       <use xlink:href="#DejaVuSans-52"/>
       <use x="63.623047" xlink:href="#DejaVuSans-48"/>
       <use x="127.246094" xlink:href="#DejaVuSans-48"/>
       <use x="190.869141" xlink:href="#DejaVuSans-48"/>
      </g>
     </g>
    </g>
    <g id="xtick_4">
     <g id="line2d_4">
      <g>
       <use style="stroke:#000000;stroke-width:0.8;" x="268.625455" xlink:href="#m1c87c5e366" y="307.584"/>
      </g>
     </g>
     <g id="text_4">
      <!-- 6000 -->
      <g transform="translate(255.900455 322.182437)scale(0.1 -0.1)">
       <defs>
        <path d="M 33.015625 40.375 
Q 26.375 40.375 22.484375 35.828125 
Q 18.609375 31.296875 18.609375 23.390625 
Q 18.609375 15.53125 22.484375 10.953125 
Q 26.375 6.390625 33.015625 6.390625 
Q 39.65625 6.390625 43.53125 10.953125 
Q 47.40625 15.53125 47.40625 23.390625 
Q 47.40625 31.296875 43.53125 35.828125 
Q 39.65625 40.375 33.015625 40.375 
z
M 52.59375 71.296875 
L 52.59375 62.3125 
Q 48.875 64.0625 45.09375 64.984375 
Q 41.3125 65.921875 37.59375 65.921875 
Q 27.828125 65.921875 22.671875 59.328125 
Q 17.53125 52.734375 16.796875 39.40625 
Q 19.671875 43.65625 24.015625 45.921875 
Q 28.375 48.1875 33.59375 48.1875 
Q 44.578125 48.1875 50.953125 41.515625 
Q 57.328125 34.859375 57.328125 23.390625 
Q 57.328125 12.15625 50.6875 5.359375 
Q 44.046875 -1.421875 33.015625 -1.421875 
Q 20.359375 -1.421875 13.671875 8.265625 
Q 6.984375 17.96875 6.984375 36.375 
Q 6.984375 53.65625 15.1875 63.9375 
Q 23.390625 74.21875 37.203125 74.21875 
Q 40.921875 74.21875 44.703125 73.484375 
Q 48.484375 72.75 52.59375 71.296875 
z
" id="DejaVuSans-54"/>
       </defs>
       <use xlink:href="#DejaVuSans-54"/>
       <use x="63.623047" xlink:href="#DejaVuSans-48"/>
       <use x="127.246094" xlink:href="#DejaVuSans-48"/>
       <use x="190.869141" xlink:href="#DejaVuSans-48"/>
      </g>
     </g>
    </g>
    <g id="xtick_5">
     <g id="line2d_5">
      <g>
       <use style="stroke:#000000;stroke-width:0.8;" x="333.556364" xlink:href="#m1c87c5e366" y="307.584"/>
      </g>
     </g>
     <g id="text_5">
      <!-- 8000 -->
      <g transform="translate(320.831364 322.182437)scale(0.1 -0.1)">
       <defs>
        <path d="M 31.78125 34.625 
Q 24.75 34.625 20.71875 30.859375 
Q 16.703125 27.09375 16.703125 20.515625 
Q 16.703125 13.921875 20.71875 10.15625 
Q 24.75 6.390625 31.78125 6.390625 
Q 38.8125 6.390625 42.859375 10.171875 
Q 46.921875 13.96875 46.921875 20.515625 
Q 46.921875 27.09375 42.890625 30.859375 
Q 38.875 34.625 31.78125 34.625 
z
M 21.921875 38.8125 
Q 15.578125 40.375 12.03125 44.71875 
Q 8.5 49.078125 8.5 55.328125 
Q 8.5 64.0625 14.71875 69.140625 
Q 20.953125 74.21875 31.78125 74.21875 
Q 42.671875 74.21875 48.875 69.140625 
Q 55.078125 64.0625 55.078125 55.328125 
Q 55.078125 49.078125 51.53125 44.71875 
Q 48 40.375 41.703125 38.8125 
Q 48.828125 37.15625 52.796875 32.3125 
Q 56.78125 27.484375 56.78125 20.515625 
Q 56.78125 9.90625 50.3125 4.234375 
Q 43.84375 -1.421875 31.78125 -1.421875 
Q 19.734375 -1.421875 13.25 4.234375 
Q 6.78125 9.90625 6.78125 20.515625 
Q 6.78125 27.484375 10.78125 32.3125 
Q 14.796875 37.15625 21.921875 38.8125 
z
M 18.3125 54.390625 
Q 18.3125 48.734375 21.84375 45.5625 
Q 25.390625 42.390625 31.78125 42.390625 
Q 38.140625 42.390625 41.71875 45.5625 
Q 45.3125 48.734375 45.3125 54.390625 
Q 45.3125 60.0625 41.71875 63.234375 
Q 38.140625 66.40625 31.78125 66.40625 
Q 25.390625 66.40625 21.84375 63.234375 
Q 18.3125 60.0625 18.3125 54.390625 
z
" id="DejaVuSans-56"/>
       </defs>
       <use xlink:href="#DejaVuSans-56"/>
       <use x="63.623047" xlink:href="#DejaVuSans-48"/>
       <use x="127.246094" xlink:href="#DejaVuSans-48"/>
       <use x="190.869141" xlink:href="#DejaVuSans-48"/>
      </g>
     </g>
    </g>
    <g id="xtick_6">
     <g id="line2d_6">
      <g>
       <use style="stroke:#000000;stroke-width:0.8;" x="398.487273" xlink:href="#m1c87c5e366" y="307.584"/>
      </g>
     </g>
     <g id="text_6">
      <!-- 10000 -->
      <g transform="translate(382.581023 322.182437)scale(0.1 -0.1)">
       <defs>
        <path d="M 12.40625 8.296875 
L 28.515625 8.296875 
L 28.515625 63.921875 
L 10.984375 60.40625 
L 10.984375 69.390625 
L 28.421875 72.90625 
L 38.28125 72.90625 
L 38.28125 8.296875 
L 54.390625 8.296875 
L 54.390625 0 
L 12.40625 0 
z
" id="DejaVuSans-49"/>
       </defs>
       <use xlink:href="#DejaVuSans-49"/>
       <use x="63.623047" xlink:href="#DejaVuSans-48"/>
       <use x="127.246094" xlink:href="#DejaVuSans-48"/>
       <use x="190.869141" xlink:href="#DejaVuSans-48"/>
       <use x="254.492188" xlink:href="#DejaVuSans-48"/>
      </g>
     </g>
    </g>
    <g id="text_7">
     <!-- Num-time-steps -->
     <g transform="translate(196.056094 335.860562)scale(0.1 -0.1)">
      <defs>
       <path d="M 9.8125 72.90625 
L 23.09375 72.90625 
L 55.421875 11.921875 
L 55.421875 72.90625 
L 64.984375 72.90625 
L 64.984375 0 
L 51.703125 0 
L 19.390625 60.984375 
L 19.390625 0 
L 9.8125 0 
z
" id="DejaVuSans-78"/>
       <path d="M 8.5 21.578125 
L 8.5 54.6875 
L 17.484375 54.6875 
L 17.484375 21.921875 
Q 17.484375 14.15625 20.5 10.265625 
Q 23.53125 6.390625 29.59375 6.390625 
Q 36.859375 6.390625 41.078125 11.03125 
Q 45.3125 15.671875 45.3125 23.6875 
L 45.3125 54.6875 
L 54.296875 54.6875 
L 54.296875 0 
L 45.3125 0 
L 45.3125 8.40625 
Q 42.046875 3.421875 37.71875 1 
Q 33.40625 -1.421875 27.6875 -1.421875 
Q 18.265625 -1.421875 13.375 4.4375 
Q 8.5 10.296875 8.5 21.578125 
z
M 31.109375 56 
z
" id="DejaVuSans-117"/>
       <path d="M 52 44.1875 
Q 55.375 50.25 60.0625 53.125 
Q 64.75 56 71.09375 56 
Q 79.640625 56 84.28125 50.015625 
Q 88.921875 44.046875 88.921875 33.015625 
L 88.921875 0 
L 79.890625 0 
L 79.890625 32.71875 
Q 79.890625 40.578125 77.09375 44.375 
Q 74.3125 48.1875 68.609375 48.1875 
Q 61.625 48.1875 57.5625 43.546875 
Q 53.515625 38.921875 53.515625 30.90625 
L 53.515625 0 
L 44.484375 0 
L 44.484375 32.71875 
Q 44.484375 40.625 41.703125 44.40625 
Q 38.921875 48.1875 33.109375 48.1875 
Q 26.21875 48.1875 22.15625 43.53125 
Q 18.109375 38.875 18.109375 30.90625 
L 18.109375 0 
L 9.078125 0 
L 9.078125 54.6875 
L 18.109375 54.6875 
L 18.109375 46.1875 
Q 21.1875 51.21875 25.484375 53.609375 
Q 29.78125 56 35.6875 56 
Q 41.65625 56 45.828125 52.96875 
Q 50 49.953125 52 44.1875 
z
" id="DejaVuSans-109"/>
       <path d="M 4.890625 31.390625 
L 31.203125 31.390625 
L 31.203125 23.390625 
L 4.890625 23.390625 
z
" id="DejaVuSans-45"/>
       <path d="M 18.3125 70.21875 
L 18.3125 54.6875 
L 36.8125 54.6875 
L 36.8125 47.703125 
L 18.3125 47.703125 
L 18.3125 18.015625 
Q 18.3125 11.328125 20.140625 9.421875 
Q 21.96875 7.515625 27.59375 7.515625 
L 36.8125 7.515625 
L 36.8125 0 
L 27.59375 0 
Q 17.1875 0 13.234375 3.875 
Q 9.28125 7.765625 9.28125 18.015625 
L 9.28125 47.703125 
L 2.6875 47.703125 
L 2.6875 54.6875 
L 9.28125 54.6875 
L 9.28125 70.21875 
z
" id="DejaVuSans-116"/>
       <path d="M 9.421875 54.6875 
L 18.40625 54.6875 
L 18.40625 0 
L 9.421875 0 
z
M 9.421875 75.984375 
L 18.40625 75.984375 
L 18.40625 64.59375 
L 9.421875 64.59375 
z
" id="DejaVuSans-105"/>
       <path d="M 56.203125 29.59375 
L 56.203125 25.203125 
L 14.890625 25.203125 
Q 15.484375 15.921875 20.484375 11.0625 
Q 25.484375 6.203125 34.421875 6.203125 
Q 39.59375 6.203125 44.453125 7.46875 
Q 49.3125 8.734375 54.109375 11.28125 
L 54.109375 2.78125 
Q 49.265625 0.734375 44.1875 -0.34375 
Q 39.109375 -1.421875 33.890625 -1.421875 
Q 20.796875 -1.421875 13.15625 6.1875 
Q 5.515625 13.8125 5.515625 26.8125 
Q 5.515625 40.234375 12.765625 48.109375 
Q 20.015625 56 32.328125 56 
Q 43.359375 56 49.78125 48.890625 
Q 56.203125 41.796875 56.203125 29.59375 
z
M 47.21875 32.234375 
Q 47.125 39.59375 43.09375 43.984375 
Q 39.0625 48.390625 32.421875 48.390625 
Q 24.90625 48.390625 20.390625 44.140625 
Q 15.875 39.890625 15.1875 32.171875 
z
" id="DejaVuSans-101"/>
       <path d="M 44.28125 53.078125 
L 44.28125 44.578125 
Q 40.484375 46.53125 36.375 47.5 
Q 32.28125 48.484375 27.875 48.484375 
Q 21.1875 48.484375 17.84375 46.4375 
Q 14.5 44.390625 14.5 40.28125 
Q 14.5 37.15625 16.890625 35.375 
Q 19.28125 33.59375 26.515625 31.984375 
L 29.59375 31.296875 
Q 39.15625 29.25 43.1875 25.515625 
Q 47.21875 21.78125 47.21875 15.09375 
Q 47.21875 7.46875 41.1875 3.015625 
Q 35.15625 -1.421875 24.609375 -1.421875 
Q 20.21875 -1.421875 15.453125 -0.5625 
Q 10.6875 0.296875 5.421875 2 
L 5.421875 11.28125 
Q 10.40625 8.6875 15.234375 7.390625 
Q 20.0625 6.109375 24.8125 6.109375 
Q 31.15625 6.109375 34.5625 8.28125 
Q 37.984375 10.453125 37.984375 14.40625 
Q 37.984375 18.0625 35.515625 20.015625 
Q 33.0625 21.96875 24.703125 23.78125 
L 21.578125 24.515625 
Q 13.234375 26.265625 9.515625 29.90625 
Q 5.8125 33.546875 5.8125 39.890625 
Q 5.8125 47.609375 11.28125 51.796875 
Q 16.75 56 26.8125 56 
Q 31.78125 56 36.171875 55.265625 
Q 40.578125 54.546875 44.28125 53.078125 
z
" id="DejaVuSans-115"/>
       <path d="M 18.109375 8.203125 
L 18.109375 -20.796875 
L 9.078125 -20.796875 
L 9.078125 54.6875 
L 18.109375 54.6875 
L 18.109375 46.390625 
Q 20.953125 51.265625 25.265625 53.625 
Q 29.59375 56 35.59375 56 
Q 45.5625 56 51.78125 48.09375 
Q 58.015625 40.1875 58.015625 27.296875 
Q 58.015625 14.40625 51.78125 6.484375 
Q 45.5625 -1.421875 35.59375 -1.421875 
Q 29.59375 -1.421875 25.265625 0.953125 
Q 20.953125 3.328125 18.109375 8.203125 
z
M 48.6875 27.296875 
Q 48.6875 37.203125 44.609375 42.84375 
Q 40.53125 48.484375 33.40625 48.484375 
Q 26.265625 48.484375 22.1875 42.84375 
Q 18.109375 37.203125 18.109375 27.296875 
Q 18.109375 17.390625 22.1875 11.75 
Q 26.265625 6.109375 33.40625 6.109375 
Q 40.53125 6.109375 44.609375 11.75 
Q 48.6875 17.390625 48.6875 27.296875 
z
" id="DejaVuSans-112"/>
      </defs>
      <use xlink:href="#DejaVuSans-78"/>
      <use x="74.804688" xlink:href="#DejaVuSans-117"/>
      <use x="138.183594" xlink:href="#DejaVuSans-109"/>
      <use x="235.595703" xlink:href="#DejaVuSans-45"/>
      <use x="271.679688" xlink:href="#DejaVuSans-116"/>
      <use x="310.888672" xlink:href="#DejaVuSans-105"/>
      <use x="338.671875" xlink:href="#DejaVuSans-109"/>
      <use x="436.083984" xlink:href="#DejaVuSans-101"/>
      <use x="497.607422" xlink:href="#DejaVuSans-45"/>
      <use x="533.691406" xlink:href="#DejaVuSans-115"/>
      <use x="585.791016" xlink:href="#DejaVuSans-116"/>
      <use x="625" xlink:href="#DejaVuSans-101"/>
      <use x="686.523438" xlink:href="#DejaVuSans-112"/>
      <use x="750" xlink:href="#DejaVuSans-115"/>
     </g>
    </g>
   </g>
   <g id="matplotlib.axis_2">
    <g id="ytick_1">
     <g id="line2d_7">
      <defs>
       <path d="M 0 0 
L -3.5 0 
" id="m947ed57b94" style="stroke:#000000;stroke-width:0.8;"/>
      </defs>
      <g>
       <use style="stroke:#000000;stroke-width:0.8;" x="57.6" xlink:href="#m947ed57b94" y="302.213236"/>
      </g>
     </g>
     <g id="text_8">
      <!-- 0.0 -->
      <g transform="translate(34.696875 306.012454)scale(0.1 -0.1)">
       <defs>
        <path d="M 10.6875 12.40625 
L 21 12.40625 
L 21 0 
L 10.6875 0 
z
" id="DejaVuSans-46"/>
       </defs>
       <use xlink:href="#DejaVuSans-48"/>
       <use x="63.623047" xlink:href="#DejaVuSans-46"/>
       <use x="95.410156" xlink:href="#DejaVuSans-48"/>
      </g>
     </g>
    </g>
    <g id="ytick_2">
     <g id="line2d_8">
      <g>
       <use style="stroke:#000000;stroke-width:0.8;" x="57.6" xlink:href="#m947ed57b94" y="268.635932"/>
      </g>
     </g>
     <g id="text_9">
      <!-- 0.1 -->
      <g transform="translate(34.696875 272.435151)scale(0.1 -0.1)">
       <use xlink:href="#DejaVuSans-48"/>
       <use x="63.623047" xlink:href="#DejaVuSans-46"/>
       <use x="95.410156" xlink:href="#DejaVuSans-49"/>
      </g>
     </g>
    </g>
    <g id="ytick_3">
     <g id="line2d_9">
      <g>
       <use style="stroke:#000000;stroke-width:0.8;" x="57.6" xlink:href="#m947ed57b94" y="235.058629"/>
      </g>
     </g>
     <g id="text_10">
      <!-- 0.2 -->
      <g transform="translate(34.696875 238.857848)scale(0.1 -0.1)">
       <use xlink:href="#DejaVuSans-48"/>
       <use x="63.623047" xlink:href="#DejaVuSans-46"/>
       <use x="95.410156" xlink:href="#DejaVuSans-50"/>
      </g>
     </g>
    </g>
    <g id="ytick_4">
     <g id="line2d_10">
      <g>
       <use style="stroke:#000000;stroke-width:0.8;" x="57.6" xlink:href="#m947ed57b94" y="201.481326"/>
      </g>
     </g>
     <g id="text_11">
      <!-- 0.3 -->
      <g transform="translate(34.696875 205.280545)scale(0.1 -0.1)">
       <defs>
        <path d="M 40.578125 39.3125 
Q 47.65625 37.796875 51.625 33 
Q 55.609375 28.21875 55.609375 21.1875 
Q 55.609375 10.40625 48.1875 4.484375 
Q 40.765625 -1.421875 27.09375 -1.421875 
Q 22.515625 -1.421875 17.65625 -0.515625 
Q 12.796875 0.390625 7.625 2.203125 
L 7.625 11.71875 
Q 11.71875 9.328125 16.59375 8.109375 
Q 21.484375 6.890625 26.8125 6.890625 
Q 36.078125 6.890625 40.9375 10.546875 
Q 45.796875 14.203125 45.796875 21.1875 
Q 45.796875 27.640625 41.28125 31.265625 
Q 36.765625 34.90625 28.71875 34.90625 
L 20.21875 34.90625 
L 20.21875 43.015625 
L 29.109375 43.015625 
Q 36.375 43.015625 40.234375 45.921875 
Q 44.09375 48.828125 44.09375 54.296875 
Q 44.09375 59.90625 40.109375 62.90625 
Q 36.140625 65.921875 28.71875 65.921875 
Q 24.65625 65.921875 20.015625 65.03125 
Q 15.375 64.15625 9.8125 62.3125 
L 9.8125 71.09375 
Q 15.4375 72.65625 20.34375 73.4375 
Q 25.25 74.21875 29.59375 74.21875 
Q 40.828125 74.21875 47.359375 69.109375 
Q 53.90625 64.015625 53.90625 55.328125 
Q 53.90625 49.265625 50.4375 45.09375 
Q 46.96875 40.921875 40.578125 39.3125 
z
" id="DejaVuSans-51"/>
       </defs>
       <use xlink:href="#DejaVuSans-48"/>
       <use x="63.623047" xlink:href="#DejaVuSans-46"/>
       <use x="95.410156" xlink:href="#DejaVuSans-51"/>
      </g>
     </g>
    </g>
    <g id="ytick_5">
     <g id="line2d_11">
      <g>
       <use style="stroke:#000000;stroke-width:0.8;" x="57.6" xlink:href="#m947ed57b94" y="167.904023"/>
      </g>
     </g>
     <g id="text_12">
      <!-- 0.4 -->
      <g transform="translate(34.696875 171.703241)scale(0.1 -0.1)">
       <use xlink:href="#DejaVuSans-48"/>
       <use x="63.623047" xlink:href="#DejaVuSans-46"/>
       <use x="95.410156" xlink:href="#DejaVuSans-52"/>
      </g>
     </g>
    </g>
    <g id="ytick_6">
     <g id="line2d_12">
      <g>
       <use style="stroke:#000000;stroke-width:0.8;" x="57.6" xlink:href="#m947ed57b94" y="134.326719"/>
      </g>
     </g>
     <g id="text_13">
      <!-- 0.5 -->
      <g transform="translate(34.696875 138.125938)scale(0.1 -0.1)">
       <defs>
        <path d="M 10.796875 72.90625 
L 49.515625 72.90625 
L 49.515625 64.59375 
L 19.828125 64.59375 
L 19.828125 46.734375 
Q 21.96875 47.46875 24.109375 47.828125 
Q 26.265625 48.1875 28.421875 48.1875 
Q 40.625 48.1875 47.75 41.5 
Q 54.890625 34.8125 54.890625 23.390625 
Q 54.890625 11.625 47.5625 5.09375 
Q 40.234375 -1.421875 26.90625 -1.421875 
Q 22.3125 -1.421875 17.546875 -0.640625 
Q 12.796875 0.140625 7.71875 1.703125 
L 7.71875 11.625 
Q 12.109375 9.234375 16.796875 8.0625 
Q 21.484375 6.890625 26.703125 6.890625 
Q 35.15625 6.890625 40.078125 11.328125 
Q 45.015625 15.765625 45.015625 23.390625 
Q 45.015625 31 40.078125 35.4375 
Q 35.15625 39.890625 26.703125 39.890625 
Q 22.75 39.890625 18.8125 39.015625 
Q 14.890625 38.140625 10.796875 36.28125 
z
" id="DejaVuSans-53"/>
       </defs>
       <use xlink:href="#DejaVuSans-48"/>
       <use x="63.623047" xlink:href="#DejaVuSans-46"/>
       <use x="95.410156" xlink:href="#DejaVuSans-53"/>
      </g>
     </g>
    </g>
    <g id="ytick_7">
     <g id="line2d_13">
      <g>
       <use style="stroke:#000000;stroke-width:0.8;" x="57.6" xlink:href="#m947ed57b94" y="100.749416"/>
      </g>
     </g>
     <g id="text_14">
      <!-- 0.6 -->
      <g transform="translate(34.696875 104.548635)scale(0.1 -0.1)">
       <use xlink:href="#DejaVuSans-48"/>
       <use x="63.623047" xlink:href="#DejaVuSans-46"/>
       <use x="95.410156" xlink:href="#DejaVuSans-54"/>
      </g>
     </g>
    </g>
    <g id="ytick_8">
     <g id="line2d_14">
      <g>
       <use style="stroke:#000000;stroke-width:0.8;" x="57.6" xlink:href="#m947ed57b94" y="67.172113"/>
      </g>
     </g>
     <g id="text_15">
      <!-- 0.7 -->
      <g transform="translate(34.696875 70.971331)scale(0.1 -0.1)">
       <defs>
        <path d="M 8.203125 72.90625 
L 55.078125 72.90625 
L 55.078125 68.703125 
L 28.609375 0 
L 18.3125 0 
L 43.21875 64.59375 
L 8.203125 64.59375 
z
" id="DejaVuSans-55"/>
       </defs>
       <use xlink:href="#DejaVuSans-48"/>
       <use x="63.623047" xlink:href="#DejaVuSans-46"/>
       <use x="95.410156" xlink:href="#DejaVuSans-55"/>
      </g>
     </g>
    </g>
    <g id="text_16">
     <!-- Obj-pose-error-norm -->
     <g transform="translate(28.617187 225.203781)rotate(-90)scale(0.1 -0.1)">
      <defs>
       <path d="M 39.40625 66.21875 
Q 28.65625 66.21875 22.328125 58.203125 
Q 16.015625 50.203125 16.015625 36.375 
Q 16.015625 22.609375 22.328125 14.59375 
Q 28.65625 6.59375 39.40625 6.59375 
Q 50.140625 6.59375 56.421875 14.59375 
Q 62.703125 22.609375 62.703125 36.375 
Q 62.703125 50.203125 56.421875 58.203125 
Q 50.140625 66.21875 39.40625 66.21875 
z
M 39.40625 74.21875 
Q 54.734375 74.21875 63.90625 63.9375 
Q 73.09375 53.65625 73.09375 36.375 
Q 73.09375 19.140625 63.90625 8.859375 
Q 54.734375 -1.421875 39.40625 -1.421875 
Q 24.03125 -1.421875 14.8125 8.828125 
Q 5.609375 19.09375 5.609375 36.375 
Q 5.609375 53.65625 14.8125 63.9375 
Q 24.03125 74.21875 39.40625 74.21875 
z
" id="DejaVuSans-79"/>
       <path d="M 48.6875 27.296875 
Q 48.6875 37.203125 44.609375 42.84375 
Q 40.53125 48.484375 33.40625 48.484375 
Q 26.265625 48.484375 22.1875 42.84375 
Q 18.109375 37.203125 18.109375 27.296875 
Q 18.109375 17.390625 22.1875 11.75 
Q 26.265625 6.109375 33.40625 6.109375 
Q 40.53125 6.109375 44.609375 11.75 
Q 48.6875 17.390625 48.6875 27.296875 
z
M 18.109375 46.390625 
Q 20.953125 51.265625 25.265625 53.625 
Q 29.59375 56 35.59375 56 
Q 45.5625 56 51.78125 48.09375 
Q 58.015625 40.1875 58.015625 27.296875 
Q 58.015625 14.40625 51.78125 6.484375 
Q 45.5625 -1.421875 35.59375 -1.421875 
Q 29.59375 -1.421875 25.265625 0.953125 
Q 20.953125 3.328125 18.109375 8.203125 
L 18.109375 0 
L 9.078125 0 
L 9.078125 75.984375 
L 18.109375 75.984375 
z
" id="DejaVuSans-98"/>
       <path d="M 9.421875 54.6875 
L 18.40625 54.6875 
L 18.40625 -0.984375 
Q 18.40625 -11.421875 14.421875 -16.109375 
Q 10.453125 -20.796875 1.609375 -20.796875 
L -1.8125 -20.796875 
L -1.8125 -13.1875 
L 0.59375 -13.1875 
Q 5.71875 -13.1875 7.5625 -10.8125 
Q 9.421875 -8.453125 9.421875 -0.984375 
z
M 9.421875 75.984375 
L 18.40625 75.984375 
L 18.40625 64.59375 
L 9.421875 64.59375 
z
" id="DejaVuSans-106"/>
       <path d="M 30.609375 48.390625 
Q 23.390625 48.390625 19.1875 42.75 
Q 14.984375 37.109375 14.984375 27.296875 
Q 14.984375 17.484375 19.15625 11.84375 
Q 23.34375 6.203125 30.609375 6.203125 
Q 37.796875 6.203125 41.984375 11.859375 
Q 46.1875 17.53125 46.1875 27.296875 
Q 46.1875 37.015625 41.984375 42.703125 
Q 37.796875 48.390625 30.609375 48.390625 
z
M 30.609375 56 
Q 42.328125 56 49.015625 48.375 
Q 55.71875 40.765625 55.71875 27.296875 
Q 55.71875 13.875 49.015625 6.21875 
Q 42.328125 -1.421875 30.609375 -1.421875 
Q 18.84375 -1.421875 12.171875 6.21875 
Q 5.515625 13.875 5.515625 27.296875 
Q 5.515625 40.765625 12.171875 48.375 
Q 18.84375 56 30.609375 56 
z
" id="DejaVuSans-111"/>
       <path d="M 41.109375 46.296875 
Q 39.59375 47.171875 37.8125 47.578125 
Q 36.03125 48 33.890625 48 
Q 26.265625 48 22.1875 43.046875 
Q 18.109375 38.09375 18.109375 28.8125 
L 18.109375 0 
L 9.078125 0 
L 9.078125 54.6875 
L 18.109375 54.6875 
L 18.109375 46.1875 
Q 20.953125 51.171875 25.484375 53.578125 
Q 30.03125 56 36.53125 56 
Q 37.453125 56 38.578125 55.875 
Q 39.703125 55.765625 41.0625 55.515625 
z
" id="DejaVuSans-114"/>
       <path d="M 54.890625 33.015625 
L 54.890625 0 
L 45.90625 0 
L 45.90625 32.71875 
Q 45.90625 40.484375 42.875 44.328125 
Q 39.84375 48.1875 33.796875 48.1875 
Q 26.515625 48.1875 22.3125 43.546875 
Q 18.109375 38.921875 18.109375 30.90625 
L 18.109375 0 
L 9.078125 0 
L 9.078125 54.6875 
L 18.109375 54.6875 
L 18.109375 46.1875 
Q 21.34375 51.125 25.703125 53.5625 
Q 30.078125 56 35.796875 56 
Q 45.21875 56 50.046875 50.171875 
Q 54.890625 44.34375 54.890625 33.015625 
z
" id="DejaVuSans-110"/>
      </defs>
      <use xlink:href="#DejaVuSans-79"/>
      <use x="78.710938" xlink:href="#DejaVuSans-98"/>
      <use x="142.1875" xlink:href="#DejaVuSans-106"/>
      <use x="169.970703" xlink:href="#DejaVuSans-45"/>
      <use x="206.054688" xlink:href="#DejaVuSans-112"/>
      <use x="269.53125" xlink:href="#DejaVuSans-111"/>
      <use x="330.712891" xlink:href="#DejaVuSans-115"/>
      <use x="382.8125" xlink:href="#DejaVuSans-101"/>
      <use x="444.335938" xlink:href="#DejaVuSans-45"/>
      <use x="480.419922" xlink:href="#DejaVuSans-101"/>
      <use x="541.943359" xlink:href="#DejaVuSans-114"/>
      <use x="581.306641" xlink:href="#DejaVuSans-114"/>
      <use x="620.169922" xlink:href="#DejaVuSans-111"/>
      <use x="681.351562" xlink:href="#DejaVuSans-114"/>
      <use x="716.089844" xlink:href="#DejaVuSans-45"/>
      <use x="752.173828" xlink:href="#DejaVuSans-110"/>
      <use x="815.552734" xlink:href="#DejaVuSans-111"/>
      <use x="876.734375" xlink:href="#DejaVuSans-114"/>
      <use x="916.097656" xlink:href="#DejaVuSans-109"/>
     </g>
    </g>
   </g>
   <g id="line2d_15">
    <path clip-path="url(#pd1bfd3a9ad)" d="M 73.832727 295.287165 
L 73.865193 295.487984 
L 74.02752 282.751527 
L 74.319709 260.557092 
L 74.546967 294.364254 
L 74.579433 293.765665 
L 74.644364 285.877339 
L 74.676829 291.409926 
L 74.74176 294.910026 
L 74.806691 294.405606 
L 75.066415 289.074024 
L 76.300102 263.506242 
L 77.306531 247.756409 
L 78.118167 237.290353 
L 80.715404 210.01251 
L 82.143884 203.107471 
L 83.117847 200.122403 
L 83.604829 199.755588 
L 84.124276 198.731377 
L 84.189207 198.786127 
L 84.254138 198.805392 
L 84.481396 198.2334 
L 84.611258 197.942387 
L 84.935913 197.219236 
L 85.260567 196.94174 
L 85.293033 196.975345 
L 85.520291 197.414432 
L 86.331927 199.129555 
L 86.396858 199.071467 
L 86.559185 198.89862 
L 86.786444 198.729864 
L 86.88384 198.762967 
L 86.916305 198.732619 
L 87.143564 198.476705 
L 87.435753 198.578483 
L 87.890269 199.123108 
L 89.091491 201.046131 
L 89.448611 201.166013 
L 90.09792 201.16365 
L 90.357644 201.175221 
L 91.461469 201.08733 
L 91.688727 200.815345 
L 91.948451 200.53372 
L 92.143244 200.386647 
L 92.565295 200.399531 
L 93.052276 200.432769 
L 94.091171 199.437316 
L 94.545687 198.862009 
L 94.708015 198.908318 
L 95.292393 199.569574 
L 95.681978 199.85771 
L 96.006633 199.422901 
L 96.623476 198.845279 
L 96.850735 198.914829 
L 97.370182 199.26284 
L 97.694836 199.066191 
L 98.051956 198.747098 
L 98.214284 198.798971 
L 98.571404 199.331247 
L 98.831127 199.586623 
L 99.090851 199.604797 
L 99.447971 199.411098 
L 99.934953 198.914787 
L 100.876451 198.175817 
L 101.201105 197.666079 
L 101.330967 197.576666 
L 101.558225 197.559365 
L 101.947811 197.698553 
L 102.175069 197.796373 
L 102.499724 197.759163 
L 102.726982 197.903093 
L 103.408756 198.975623 
L 104.0256 199.874184 
L 104.252858 200.033773 
L 104.869702 200.583839 
L 105.09696 200.647193 
L 106.038458 202.114348 
L 106.395578 202.628166 
L 107.044887 203.16594 
L 107.694196 203.560253 
L 108.635695 204.941667 
L 109.804451 206.769872 
L 110.031709 206.847656 
L 110.291433 207.319455 
L 110.778415 208.41627 
L 111.88224 210.642535 
L 112.109498 210.884916 
L 112.304291 211.071198 
L 112.661411 211.218681 
L 113.408116 212.047551 
L 113.570444 212.317491 
L 113.732771 212.321155 
L 113.960029 212.086351 
L 114.122356 212.209108 
L 114.641804 213.002392 
L 114.933993 213.55605 
L 114.998924 213.548784 
L 115.128785 213.622764 
L 117.044247 214.448938 
L 117.271505 214.286597 
L 117.498764 214.134991 
L 117.661091 214.169237 
L 117.758487 214.078506 
L 117.823418 214.12869 
L 117.920815 214.090635 
L 118.050676 214.107709 
L 118.797382 214.757463 
L 118.829847 214.655978 
L 119.511622 213.582553 
L 119.641484 213.581013 
L 119.868742 213.677103 
L 120.420655 213.640429 
L 120.45312 213.695415 
L 120.485585 213.607864 
L 120.680378 213.46266 
L 120.712844 213.479633 
L 120.745309 213.400159 
L 121.232291 212.632992 
L 121.589411 211.838841 
L 121.784204 211.604536 
L 122.725702 209.464542 
L 123.147753 209.333599 
L 123.31008 209.253076 
L 123.537338 209.219403 
L 123.634735 209.166731 
L 123.797062 209.205278 
L 124.056785 209.487096 
L 124.154182 209.434855 
L 124.316509 209.023061 
L 124.576233 207.770364 
L 125.063215 206.646511 
L 125.517731 206.287393 
L 125.712524 206.358139 
L 125.842385 206.27648 
L 125.874851 206.395459 
L 125.907316 206.293609 
L 126.16704 205.841904 
L 126.329367 205.642965 
L 126.654022 205.060383 
L 126.751418 205.010715 
L 126.783884 205.038842 
L 127.076073 205.365661 
L 127.335796 205.911406 
L 127.465658 206.113074 
L 127.660451 205.904765 
L 127.822778 205.918939 
L 128.082502 205.350923 
L 128.114967 205.389485 
L 128.147433 205.27003 
L 128.634415 204.311641 
L 129.283724 204.753676 
L 129.478516 204.342257 
L 130.030429 203.127716 
L 130.290153 202.456052 
L 130.614807 202.370077 
L 130.874531 202.083845 
L 131.004393 202.039487 
L 131.16672 201.971933 
L 131.199185 202.124505 
L 131.264116 202.068427 
L 131.393978 201.969092 
L 131.426444 202.211662 
L 131.52384 202.193532 
L 131.751098 202.242908 
L 132.108218 201.243399 
L 132.140684 201.275128 
L 132.173149 201.441784 
L 132.205615 201.234412 
L 132.432873 200.522036 
L 132.660131 200.525757 
L 133.439302 200.828653 
L 134.088611 201.765187 
L 134.153542 201.611733 
L 134.413265 201.147431 
L 134.543127 201.287733 
L 134.900247 201.339844 
L 135.744349 199.428773 
L 135.939142 199.321943 
L 136.231331 199.480665 
L 136.361193 199.470361 
L 136.588451 199.806077 
L 137.23776 200.126032 
L 137.659811 200.773593 
L 137.789673 200.687574 
L 138.438982 199.226615 
L 138.633775 199.352223 
L 138.990895 199.430475 
L 139.153222 199.447841 
L 139.315549 199.339905 
L 139.575273 199.434785 
L 139.7376 199.375608 
L 139.770065 199.495571 
L 139.834996 199.429736 
L 139.997324 199.082531 
L 140.224582 198.484877 
L 140.257047 198.525694 
L 140.386909 198.520867 
L 140.614167 198.54282 
L 140.906356 198.385005 
L 140.938822 198.34619 
L 140.971287 198.401757 
L 141.036218 198.478563 
L 141.068684 198.410734 
L 141.295942 198.267077 
L 141.360873 198.336079 
L 141.393338 198.262887 
L 141.588131 198.093372 
L 141.945251 198.211796 
L 142.010182 198.364591 
L 142.075113 198.286204 
L 142.302371 198.381077 
L 142.464698 198.639745 
L 142.627025 198.895648 
L 142.854284 198.947417 
L 143.049076 199.413656 
L 143.146473 199.330507 
L 143.341265 199.495249 
L 143.406196 199.602176 
L 143.438662 199.511783 
L 143.633455 199.331294 
L 143.66592 199.250439 
L 143.730851 199.365964 
L 143.763316 199.357171 
L 143.795782 199.473471 
L 143.828247 199.24328 
L 143.990575 198.899228 
L 144.152902 199.043635 
L 144.542487 200.04653 
L 144.867142 200.82393 
L 145.386589 201.655347 
L 146.035898 202.634917 
L 146.360553 203.561509 
L 147.074793 203.728707 
L 147.496844 204.558293 
L 148.243549 206.460203 
L 149.607098 208.170334 
L 150.386269 207.796051 
L 152.95104 211.240844 
L 153.080902 211.145503 
L 153.567884 210.796624 
L 154.0224 210.565527 
L 154.054865 210.654507 
L 154.509382 211.896185 
L 155.061295 211.688196 
L 155.223622 211.738298 
L 155.256087 211.688008 
L 155.321018 211.775645 
L 155.483345 211.768791 
L 155.678138 211.884435 
L 156.359913 213.203052 
L 156.554705 213.19596 
L 156.749498 213.494093 
L 157.009222 213.880199 
L 157.366342 213.930776 
L 157.626065 213.892471 
L 157.755927 214.077568 
L 158.145513 214.942671 
L 158.275375 214.938847 
L 158.567564 214.805062 
L 158.827287 214.591883 
L 159.216873 214.650763 
L 160.028509 213.986888 
L 160.288233 214.397326 
L 160.742749 215.288211 
L 160.970007 215.394467 
L 161.749178 216.171778 
L 162.430953 217.161957 
L 162.658211 217.06541 
L 163.080262 216.890209 
L 163.275055 217.483762 
L 163.794502 219.306415 
L 164.476276 220.046927 
L 165.222982 220.373721 
L 166.229411 220.003634 
L 166.489135 219.693885 
L 166.781324 219.451224 
L 167.105978 219.20394 
L 167.365702 218.970997 
L 167.885149 218.398598 
L 168.696785 218.699319 
L 168.924044 218.806761 
L 169.118836 218.858653 
L 169.281164 218.885283 
L 169.605818 218.86731 
L 170.027869 218.673144 
L 170.514851 218.285544 
L 171.229091 218.026422 
L 171.488815 218.176547 
L 171.781004 218.62074 
L 172.267985 219.355301 
L 172.852364 219.58492 
L 173.209484 219.596532 
L 174.313309 219.29615 
L 175.09248 218.861551 
L 175.644393 218.800325 
L 175.871651 218.784225 
L 176.650822 219.075161 
L 177.170269 219.06652 
L 177.59232 218.850274 
L 179.929833 217.027677 
L 180.709004 216.375807 
L 180.903796 216.184015 
L 182.884189 213.220366 
L 183.273775 212.704971 
L 183.630895 212.256703 
L 184.799651 211.376533 
L 186.974836 208.625575 
L 187.59168 208.472359 
L 188.143593 208.399851 
L 188.468247 208.227518 
L 189.279884 207.614088 
L 190.513571 206.818478 
L 191.195345 205.909271 
L 192.136844 205.115731 
L 192.59136 204.770286 
L 193.565324 204.916502 
L 193.889978 204.891836 
L 194.344495 204.474948 
L 194.73408 203.929849 
L 195.026269 203.755607 
L 195.383389 203.570751 
L 195.545716 203.526448 
L 196.032698 203.519662 
L 196.292422 203.323048 
L 196.811869 202.400068 
L 197.071593 202.029938 
L 198.013091 201.218315 
L 198.240349 201.028274 
L 198.402676 200.780784 
L 198.6624 199.953475 
L 199.084451 198.347945 
L 199.831156 194.604059 
L 200.415535 192.397279 
L 201.389498 189.108855 
L 201.811549 187.819808 
L 202.525789 185.751802 
L 203.045236 184.732164 
L 204.668509 180.685295 
L 205.480145 178.240901 
L 205.512611 178.276081 
L 205.545076 178.155256 
L 205.674938 177.674076 
L 205.999593 177.305629 
L 206.583971 176.49859 
L 207.557935 174.822736 
L 207.979985 173.833416 
L 209.148742 171.380487 
L 209.570793 170.74036 
L 209.603258 170.833455 
L 209.668189 170.741665 
L 209.895447 170.890163 
L 210.220102 169.553291 
L 210.544756 168.709249 
L 210.642153 168.056432 
L 210.674618 168.110992 
L 210.739549 168.051426 
L 211.129135 166.374922 
L 211.323927 165.443241 
L 211.843375 163.219862 
L 211.973236 162.403271 
L 212.23296 161.586433 
L 212.719942 159.476891 
L 213.012131 156.919909 
L 213.66144 154.114624 
L 215.057455 149.66876 
L 215.544436 148.734535 
L 215.80416 148.149918 
L 216.485935 146.541713 
L 219.37536 141.76128 
L 220.966167 136.211308 
L 221.583011 135.235705 
L 221.777804 125.232693 
L 221.842735 125.646085 
L 222.005062 125.814426 
L 222.167389 126.037506 
L 222.524509 126.441636 
L 223.238749 125.877233 
L 223.790662 124.888502 
L 224.602298 123.747347 
L 224.764625 123.812268 
L 225.121745 123.565271 
L 225.219142 123.667831 
L 225.349004 123.77072 
L 225.381469 123.748814 
L 225.641193 123.57887 
L 225.771055 123.552186 
L 225.965847 123.414142 
L 226.258036 123.372272 
L 226.582691 123.07971 
L 227.94624 123.730748 
L 228.628015 123.766485 
L 229.050065 124.12392 
L 229.342255 124.291301 
L 229.894167 125.24187 
L 230.218822 125.482041 
L 230.705804 126.939501 
L 230.965527 127.687533 
L 230.997993 127.66367 
L 231.225251 127.571013 
L 231.809629 127.917878 
L 233.30304 131.534392 
L 234.01728 133.5519 
L 235.575622 138.744496 
L 236.224931 141.53439 
L 236.711913 143.630088 
L 237.426153 147.63415 
L 238.919564 152.630931 
L 239.536407 154.888249 
L 239.763665 155.498141 
L 243.789382 166.179904 
L 244.503622 167.524915 
L 246.321687 172.519336 
L 246.743738 173.261901 
L 247.068393 174.091321 
L 247.685236 175.809978 
L 247.94496 176.272612 
L 248.237149 177.645155 
L 248.626735 179.356481 
L 248.983855 180.014184 
L 249.340975 180.666513 
L 250.80192 185.277541 
L 251.51616 187.007085 
L 252.295331 189.512338 
L 252.717382 190.762467 
L 253.431622 193.487919 
L 254.697775 197.20828 
L 255.152291 198.291901 
L 255.639273 199.87895 
L 256.093789 200.987616 
L 258.398836 206.563353 
L 258.853353 207.476342 
L 259.600058 209.276703 
L 260.216902 210.155884 
L 260.509091 210.390937 
L 260.574022 210.358146 
L 260.606487 210.437365 
L 260.703884 210.528628 
L 261.385658 211.636352 
L 261.51552 211.753714 
L 261.775244 212.226214 
L 262.067433 212.434852 
L 262.197295 212.545846 
L 262.651811 213.094852 
L 263.463447 213.43465 
L 264.210153 213.701879 
L 264.437411 213.819879 
L 264.664669 213.876828 
L 264.891927 214.037741 
L 265.021789 214.153854 
L 265.249047 214.226129 
L 265.44384 214.251482 
L 266.028218 214.223493 
L 266.352873 214.185715 
L 266.839855 214.096355 
L 267.813818 213.686063 
L 268.690385 213.609577 
L 268.820247 213.689525 
L 268.852713 213.643475 
L 268.950109 213.595148 
L 268.982575 213.653964 
L 269.177367 213.760344 
L 269.307229 213.722399 
L 269.631884 213.572498 
L 270.703244 213.081069 
L 270.865571 213.246208 
L 270.930502 213.124482 
L 270.995433 213.19461 
L 271.092829 213.222536 
L 271.125295 213.145641 
L 271.255156 213.007771 
L 271.449949 213.203088 
L 271.482415 213.239827 
L 271.51488 213.185365 
L 271.547345 213.145173 
L 271.579811 213.203425 
L 271.644742 213.268247 
L 271.677207 213.209039 
L 271.807069 213.148675 
L 272.001862 213.31509 
L 272.034327 213.241761 
L 272.099258 213.288349 
L 272.164189 213.219403 
L 272.22912 213.130722 
L 272.261585 213.188235 
L 272.488844 213.320464 
L 272.553775 213.250506 
L 272.618705 213.163629 
L 272.651171 213.22097 
L 272.683636 213.262945 
L 272.748567 213.195269 
L 273.30048 212.825395 
L 273.527738 212.864885 
L 273.852393 212.849019 
L 274.01472 213.031847 
L 274.079651 212.887432 
L 274.144582 212.94453 
L 274.37184 212.906088 
L 274.826356 212.768235 
L 275.08608 212.386473 
L 275.118545 212.422106 
L 275.280873 212.398397 
L 275.508131 212.170066 
L 275.605527 212.204368 
L 275.637993 212.125158 
L 275.832785 212.102708 
L 276.51456 211.674248 
L 277.520989 210.926398 
L 278.235229 210.455493 
L 281.319447 207.341467 
L 282.325876 206.081365 
L 282.812858 205.497174 
L 285.247767 202.100298 
L 288.072262 199.401154 
L 289.241018 197.940863 
L 290.44224 196.176314 
L 292.812218 191.579346 
L 299.565033 177.074029 
L 301.090909 173.550436 
L 301.448029 172.640878 
L 302.519389 169.714702 
L 304.045265 166.301639 
L 304.791971 164.567282 
L 305.116625 163.904853 
L 306.707433 160.316555 
L 307.356742 158.781722 
L 307.876189 157.033253 
L 309.499462 152.269493 
L 310.246167 150.254357 
L 311.934371 145.531183 
L 312.259025 144.923139 
L 315.018589 139.281709 
L 315.051055 139.340708 
L 315.08352 139.268063 
L 315.375709 138.381224 
L 315.960087 136.56727 
L 316.252276 135.617029 
L 317.972945 130.353982 
L 321.024698 119.494995 
L 321.901265 115.587541 
L 322.680436 111.807473 
L 323.232349 109.565992 
L 324.433571 104.049225 
L 324.693295 103.423941 
L 325.017949 102.222253 
L 326.51136 93.96442 
L 326.933411 92.792435 
L 328.134633 87.65332 
L 328.524218 86.115871 
L 328.621615 85.915179 
L 329.173527 83.639148 
L 329.563113 82.84911 
L 330.277353 79.251288 
L 330.666938 77.196155 
L 331.316247 75.017011 
L 331.51104 74.563611 
L 331.803229 73.578766 
L 332.160349 72.491279 
L 332.485004 71.832362 
L 333.686225 67.588021 
L 334.140742 65.558346 
L 334.432931 65.2567 
L 334.465396 65.286782 
L 334.757585 65.617428 
L 334.952378 65.372883 
L 335.893876 62.368664 
L 336.283462 61.13111 
L 336.802909 59.708999 
L 337.095098 59.351254 
L 337.322356 59.2171 
L 337.614545 58.758321 
L 337.679476 58.83824 
L 337.9392 59.190033 
L 338.231389 59.103513 
L 338.426182 58.847178 
L 338.783302 57.599409 
L 339.237818 55.764766 
L 339.627404 55.356363 
L 339.757265 55.457658 
L 339.919593 55.765541 
L 340.406575 56.618848 
L 340.536436 56.517267 
L 341.477935 54.480812 
L 341.672727 54.430586 
L 341.932451 54.561143 
L 342.516829 54.148916 
L 342.809018 54.252518 
L 343.490793 53.784824 
L 343.847913 53.637075 
L 343.912844 53.568 
L 343.945309 53.618795 
L 344.302429 54.579273 
L 345.503651 61.201965 
L 345.925702 63.135141 
L 346.737338 67.838504 
L 347.256785 70.690399 
L 348.29568 77.58409 
L 349.172247 84.334551 
L 351.087709 102.056444 
L 351.931811 111.762049 
L 352.808378 122.399945 
L 353.230429 127.005416 
L 354.951098 148.027113 
L 355.7952 156.808751 
L 356.704233 165.211277 
L 358.879418 184.801076 
L 359.950778 191.892547 
L 360.892276 197.080311 
L 361.541585 199.80784 
L 362.515549 202.405968 
L 363.716771 205.755656 
L 364.268684 206.695527 
L 364.853062 207.153286 
L 366.021818 207.726732 
L 366.281542 207.498085 
L 366.800989 206.508696 
L 367.417833 204.760467 
L 367.710022 204.051247 
L 368.359331 202.337164 
L 368.781382 200.765344 
L 369.235898 198.959726 
L 369.690415 197.808517 
L 370.242327 196.306251 
L 370.79424 193.499364 
L 371.800669 187.865157 
L 372.287651 185.360707 
L 372.677236 184.516384 
L 377.774313 173.70882 
L 378.001571 173.572311 
L 378.521018 172.814231 
L 379.072931 172.106416 
L 379.462516 171.455745 
L 380.144291 170.735767 
L 380.728669 170.325235 
L 381.540305 170.024591 
L 381.800029 170.066285 
L 381.994822 170.09442 
L 382.287011 169.917125 
L 383.001251 169.800249 
L 383.260975 169.819591 
L 384.234938 169.349371 
L 384.72192 169.428559 
L 385.273833 169.947263 
L 385.890676 170.61415 
L 386.1504 170.753329 
L 386.572451 171.044675 
L 386.799709 171.240814 
L 386.994502 171.565077 
L 387.351622 172.108933 
L 387.773673 172.279091 
L 387.936 172.334715 
L 388.195724 172.718933 
L 388.65024 173.230424 
L 389.624204 174.274199 
L 389.883927 174.255291 
L 390.760495 175.30608 
L 391.539665 176.549631 
L 391.799389 176.841518 
L 392.383767 177.347635 
L 392.708422 177.449393 
L 392.903215 177.554672 
L 393.390196 177.9887 
L 394.136902 178.625194 
L 394.36416 178.670417 
L 394.753745 179.046457 
L 395.143331 179.408883 
L 396.377018 180.585886 
L 396.766604 180.371485 
L 397.902895 179.755971 
L 398.487273 178.954897 
L 398.487273 178.954897 
" style="fill:none;stroke:#1f77b4;stroke-linecap:square;stroke-width:1.5;"/>
   </g>
   <g id="line2d_16">
    <path clip-path="url(#pd1bfd3a9ad)" d="M 73.832727 295.287165 
L 73.865193 295.487984 
L 74.02752 282.469855 
L 74.319709 259.63552 
L 74.579433 293.576393 
L 74.644364 285.132212 
L 74.676829 290.594005 
L 74.806691 294.180905 
L 74.871622 293.845497 
L 75.033949 290.867798 
L 75.845585 273.779498 
L 76.819549 255.949677 
L 77.761047 237.140335 
L 78.085702 234.411761 
L 78.572684 231.106835 
L 78.994735 225.977833 
L 79.579113 219.171001 
L 80.195956 214.859618 
L 81.754298 206.789849 
L 83.052916 203.780884 
L 83.345105 203.705564 
L 83.377571 203.939606 
L 83.442502 203.700241 
L 84.091811 201.767708 
L 84.124276 202.187756 
L 84.189207 201.835551 
L 84.416465 201.215677 
L 84.513862 201.170822 
L 85.09824 200.307548 
L 85.650153 200.90352 
L 85.780015 201.201661 
L 85.81248 201.549439 
L 85.909876 201.443093 
L 86.039738 201.464355 
L 86.266996 201.696354 
L 86.461789 201.659528 
L 86.786444 200.99949 
L 87.143564 200.1427 
L 87.176029 200.156408 
L 87.338356 200.225688 
L 87.565615 200.619109 
L 87.857804 201.351374 
L 87.890269 201.739192 
L 87.987665 201.659632 
L 89.156422 201.795841 
L 90.909556 201.100145 
L 91.786124 200.244979 
L 92.078313 199.959731 
L 92.435433 199.811258 
L 92.695156 199.779719 
L 92.922415 199.794903 
L 93.182138 199.582286 
L 93.474327 199.180317 
L 93.831447 198.755 
L 94.643084 197.989608 
L 95.032669 198.031334 
L 95.389789 198.22663 
L 95.746909 198.299083 
L 96.266356 198.135329 
L 96.8832 197.702305 
L 97.175389 197.838052 
L 97.987025 198.553414 
L 98.149353 198.41399 
L 98.31168 198.242273 
L 98.344145 198.300025 
L 98.376611 198.226112 
L 98.571404 198.074312 
L 98.798662 198.189151 
L 99.350575 198.942922 
L 99.805091 199.011239 
L 100.032349 198.622733 
L 100.421935 198.025033 
L 101.071244 197.61958 
L 101.395898 197.741312 
L 101.590691 197.766698 
L 101.817949 197.768707 
L 101.980276 197.768906 
L 102.272465 197.628236 
L 102.629585 197.955323 
L 103.246429 198.571951 
L 103.830807 199.628904 
L 104.187927 199.953305 
L 105.616407 201.617717 
L 106.88256 203.569018 
L 107.337076 203.860115 
L 107.564335 203.96729 
L 107.791593 203.940384 
L 107.986385 204.062015 
L 108.278575 204.648371 
L 109.187607 206.828665 
L 109.414865 207.112363 
L 109.609658 207.183514 
L 109.934313 207.120488 
L 110.194036 207.361829 
L 110.551156 208.257897 
L 111.297862 210.787571 
L 111.784844 211.025113 
L 112.077033 211.064517 
L 112.531549 211.715294 
L 112.921135 212.327515 
L 113.505513 213.236551 
L 113.537978 213.205516 
L 113.602909 213.281318 
L 113.765236 213.328442 
L 113.927564 213.162372 
L 114.414545 212.445619 
L 114.447011 212.489345 
L 114.641804 212.929811 
L 115.648233 215.874825 
L 115.843025 215.936056 
L 116.005353 215.733431 
L 116.394938 215.00797 
L 116.816989 215.168979 
L 117.498764 215.500426 
L 117.693556 215.277627 
L 118.180538 214.741543 
L 118.472727 215.003901 
L 118.927244 216.171647 
L 119.057105 216.250325 
L 119.089571 216.370576 
L 119.154502 216.274355 
L 119.251898 216.134241 
L 119.73888 214.892461 
L 119.771345 214.879824 
L 119.803811 214.979637 
L 120.160931 215.51892 
L 120.518051 215.608736 
L 120.777775 214.940763 
L 121.459549 213.496937 
L 121.816669 213.079986 
L 122.303651 212.197465 
L 122.855564 211.266709 
L 123.277615 211.259757 
L 123.375011 211.190513 
L 123.407476 211.259663 
L 123.569804 211.764508 
L 123.991855 212.928534 
L 124.154182 213.073292 
L 124.219113 213.260914 
L 124.284044 213.209815 
L 124.706095 212.532206 
L 125.030749 212.677405 
L 125.290473 212.591497 
L 125.420335 212.427504 
L 126.329367 210.602146 
L 126.718953 209.871815 
L 127.076073 210.158701 
L 127.563055 210.779339 
L 127.627985 210.719557 
L 127.95264 210.309328 
L 128.244829 209.688773 
L 128.66688 208.8939 
L 128.894138 208.879958 
L 129.121396 208.976423 
L 129.316189 209.057132 
L 129.608378 209.143958 
L 129.673309 209.170485 
L 129.705775 209.099296 
L 130.712204 205.97164 
L 131.264116 205.111704 
L 131.458909 205.306535 
L 131.88096 206.038091 
L 132.010822 205.999979 
L 132.205615 205.629579 
L 132.919855 203.793232 
L 133.114647 203.831359 
L 133.30944 204.102474 
L 133.66656 205.096258 
L 134.056145 206.030488 
L 134.218473 205.993046 
L 134.348335 205.814531 
L 135.679418 203.647705 
L 136.101469 203.63673 
L 136.296262 203.904166 
L 136.458589 203.991892 
L 136.620916 204.124644 
L 136.750778 204.227393 
L 136.913105 204.397361 
L 137.075433 204.327019 
L 137.205295 204.29296 
L 137.400087 204.355832 
L 137.497484 204.501281 
L 137.984465 205.121701 
L 138.016931 205.093645 
L 138.30912 204.447079 
L 138.633775 203.589272 
L 138.893498 203.234972 
L 139.153222 203.280933 
L 139.348015 203.53161 
L 139.7376 204.331928 
L 139.997324 204.200309 
L 140.354444 203.260571 
L 140.679098 202.474456 
L 140.906356 202.208926 
L 140.971287 202.296877 
L 141.555665 202.743593 
L 141.945251 203.130167 
L 142.010182 203.00848 
L 142.334836 202.719908 
L 142.464698 202.713439 
L 142.821818 203.143209 
L 142.886749 203.152531 
L 143.536058 204.328301 
L 143.568524 204.283709 
L 143.698385 204.254294 
L 144.152902 203.305699 
L 144.542487 204.139861 
L 144.997004 206.05386 
L 145.191796 206.47355 
L 145.224262 206.44689 
L 145.548916 206.068588 
L 145.743709 205.824419 
L 146.035898 206.221912 
L 146.620276 208.776711 
L 146.815069 208.958021 
L 146.88 208.978343 
L 146.912465 208.920287 
L 147.074793 208.54961 
L 147.399447 207.732619 
L 147.529309 207.844583 
L 147.724102 208.692713 
L 148.438342 211.951386 
L 148.633135 211.988898 
L 149.249978 211.381628 
L 149.412305 211.645868 
L 150.191476 213.294401 
L 150.581062 212.905304 
L 150.80832 212.525935 
L 150.840785 212.556795 
L 151.035578 212.654449 
L 151.100509 212.667191 
L 151.490095 213.64239 
L 151.587491 213.667945 
L 151.814749 213.988354 
L 151.977076 214.265911 
L 152.042007 214.295963 
L 152.204335 214.524055 
L 152.269265 214.623767 
L 152.464058 214.847882 
L 152.95104 215.92372 
L 153.178298 216.182282 
L 153.66528 215.764154 
L 153.925004 215.478586 
L 154.119796 215.621364 
L 154.217193 215.477837 
L 154.249658 215.549823 
L 154.639244 215.945257 
L 154.866502 216.657483 
L 154.898967 216.648379 
L 154.996364 216.73786 
L 155.158691 216.902211 
L 155.353484 216.767543 
L 155.678138 216.607221 
L 155.710604 216.705995 
L 155.775535 216.612081 
L 156.002793 216.544138 
L 156.16512 216.756172 
L 156.262516 216.942989 
L 156.424844 217.20401 
L 156.619636 217.841043 
L 156.911825 218.3865 
L 156.976756 218.523051 
L 157.171549 218.84142 
L 157.204015 218.807321 
L 157.301411 218.875619 
L 157.333876 218.838645 
L 157.431273 218.903899 
L 157.463738 218.99834 
L 157.528669 218.954877 
L 157.658531 218.765118 
L 157.690996 218.787341 
L 157.820858 218.838129 
L 157.885789 218.711074 
L 157.95072 218.780387 
L 158.048116 218.690798 
L 158.080582 218.636255 
L 158.113047 218.715896 
L 158.437702 219.297203 
L 158.567564 219.337157 
L 158.600029 219.296665 
L 158.66496 219.391525 
L 158.827287 219.553076 
L 159.087011 219.458644 
L 159.3792 219.219285 
L 159.476596 219.211466 
L 159.898647 218.697387 
L 160.190836 218.82231 
L 161.099869 220.723657 
L 161.1648 220.641623 
L 161.327127 220.571124 
L 161.456989 220.791309 
L 161.489455 220.780947 
L 161.976436 221.062327 
L 162.171229 221.402222 
L 162.203695 221.151083 
L 162.268625 221.367584 
L 162.917935 222.675538 
L 163.30752 222.727498 
L 163.729571 223.748378 
L 163.989295 224.407515 
L 164.346415 224.794951 
L 164.865862 225.282853 
L 164.963258 225.36763 
L 165.190516 225.56013 
L 165.677498 225.701766 
L 165.80736 225.731478 
L 166.294342 225.79143 
L 166.846255 225.364919 
L 167.008582 225.35177 
L 167.268305 225.172985 
L 167.300771 225.236709 
L 167.430633 225.266334 
L 167.59296 225.121078 
L 168.015011 225.016741 
L 168.3072 225.076264 
L 168.599389 225.225824 
L 169.151302 225.282343 
L 169.313629 225.498425 
L 169.346095 225.443706 
L 169.411025 225.501378 
L 169.768145 225.499318 
L 169.833076 225.426378 
L 169.865542 225.465334 
L 170.027869 225.46243 
L 170.125265 225.534309 
L 170.287593 225.546423 
L 170.44992 225.355482 
L 170.612247 225.468734 
L 171.099229 225.28997 
L 171.716073 225.77681 
L 172.462778 226.654908 
L 173.371811 227.253699 
L 174.053585 227.251448 
L 174.37824 227.20515 
L 174.73536 227.067937 
L 175.254807 227.023929 
L 175.546996 227.025799 
L 175.904116 227.119088 
L 176.228771 227.337257 
L 177.429993 228.119901 
L 177.722182 228.161298 
L 178.30656 227.933052 
L 178.826007 227.620637 
L 180.09216 227.266717 
L 180.254487 227.268607 
L 180.514211 227.240919 
L 181.001193 226.854097 
L 181.390778 226.452316 
L 182.040087 225.879631 
L 182.169949 225.815481 
L 182.332276 225.741382 
L 182.656931 225.533866 
L 182.884189 225.297186 
L 183.078982 225.303572 
L 183.403636 225.071499 
L 183.890618 225.649093 
L 184.539927 225.735586 
L 184.961978 225.680675 
L 185.09184 225.642346 
L 185.254167 225.63629 
L 185.741149 225.768184 
L 186.325527 225.43978 
L 186.422924 225.354072 
L 186.682647 225.131628 
L 186.844975 225.147797 
L 187.169629 225.453108 
L 187.331956 225.546825 
L 188.078662 226.140856 
L 189.117556 226.231441 
L 189.409745 226.48168 
L 190.156451 226.446084 
L 191.260276 225.233815 
L 191.52 225.125099 
L 191.649862 225.096768 
L 191.812189 225.064348 
L 192.006982 224.888909 
L 192.266705 224.83847 
L 193.110807 225.235015 
L 193.402996 225.266965 
L 194.01984 225.384598 
L 194.799011 225.205677 
L 195.123665 225.482885 
L 195.318458 225.489095 
L 196.097629 225.409895 
L 196.844335 225.439941 
L 197.006662 225.472593 
L 198.30528 226.903207 
L 198.500073 226.946305 
L 199.344175 226.703965 
L 199.636364 226.950893 
L 200.025949 227.411957 
L 200.707724 228.488869 
L 200.934982 228.693156 
L 201.16224 228.770446 
L 201.389498 228.988208 
L 201.649222 229.333709 
L 201.779084 229.524051 
L 202.006342 229.703909 
L 202.201135 229.846425 
L 202.94784 231.035661 
L 203.142633 231.216869 
L 203.921804 231.962654 
L 204.149062 231.892229 
L 204.246458 231.953952 
L 204.798371 232.088781 
L 204.863302 232.177726 
L 205.09056 232.419696 
L 205.220422 232.455129 
L 205.837265 233.36843 
L 205.967127 233.671301 
L 206.324247 234.424645 
L 206.713833 234.923014 
L 207.168349 235.543182 
L 207.850124 236.383395 
L 208.889018 237.046773 
L 209.311069 236.88163 
L 209.927913 237.263333 
L 210.057775 237.228389 
L 210.187636 237.253985 
L 210.707084 237.550274 
L 210.869411 237.403992 
L 211.064204 237.042571 
L 211.226531 236.728811 
L 212.492684 236.753872 
L 213.401716 235.142165 
L 213.564044 235.046927 
L 213.791302 234.929539 
L 214.083491 233.83204 
L 214.538007 230.981435 
L 215.057455 227.407803 
L 215.641833 224.677692 
L 216.063884 223.6519 
L 216.16128 223.481077 
L 216.291142 223.210543 
L 216.615796 222.486575 
L 216.778124 222.01137 
L 217.135244 220.132572 
L 217.492364 217.752854 
L 218.011811 213.627643 
L 218.693585 207.624023 
L 219.440291 201.457566 
L 219.700015 200.284347 
L 220.122065 199.324896 
L 220.349324 199.515193 
L 220.80384 199.775399 
L 221.096029 199.831738 
L 221.51808 200.021392 
L 221.907665 199.595741 
L 222.394647 198.520631 
L 223.888058 191.87543 
L 224.245178 188.348026 
L 224.602298 185.174361 
L 224.634764 185.129895 
L 224.667229 185.22921 
L 224.73216 185.258139 
L 224.764625 185.21911 
L 225.154211 184.231485 
L 225.219142 184.312534 
L 225.381469 184.411375 
L 225.965847 183.735495 
L 226.095709 183.699846 
L 226.258036 183.209922 
L 226.87488 180.638097 
L 227.004742 180.150118 
L 227.329396 179.120208 
L 227.556655 178.996461 
L 227.686516 179.191978 
L 228.076102 179.980777 
L 228.108567 179.967495 
L 228.205964 179.816185 
L 228.465687 179.094179 
L 228.530618 179.207714 
L 228.595549 179.070109 
L 228.822807 178.055437 
L 229.407185 175.537445 
L 229.439651 175.567296 
L 229.666909 176.253164 
L 229.764305 176.192532 
L 230.08896 175.494722 
L 230.251287 175.254209 
L 230.413615 175.310245 
L 230.608407 175.417425 
L 230.738269 175.509785 
L 231.582371 176.253754 
L 231.907025 175.984929 
L 232.134284 175.69778 
L 232.686196 175.637704 
L 232.94592 175.793317 
L 233.270575 175.683999 
L 233.822487 176.099325 
L 234.471796 177.862428 
L 234.504262 177.842117 
L 234.73152 177.344301 
L 234.991244 177.004157 
L 235.186036 176.976179 
L 235.413295 177.094203 
L 235.640553 177.556018 
L 236.095069 178.66564 
L 236.257396 178.588426 
L 236.906705 178.320416 
L 237.426153 179.13416 
L 237.556015 179.163531 
L 238.172858 178.238481 
L 239.503942 175.047518 
L 239.861062 174.761909 
L 240.218182 173.839535 
L 240.510371 173.210114 
L 241.289542 172.83726 
L 241.549265 172.795138 
L 241.679127 172.829234 
L 242.133644 173.310968 
L 242.23104 173.407286 
L 242.58816 174.049127 
L 242.977745 174.017662 
L 243.107607 173.998237 
L 243.529658 174.148523 
L 243.919244 173.999077 
L 244.146502 173.884171 
L 244.341295 173.949871 
L 244.73088 174.532008 
L 244.990604 174.831778 
L 245.380189 174.97505 
L 245.510051 175.094936 
L 245.542516 175.074295 
L 245.737309 175.247525 
L 246.029498 175.761579 
L 246.126895 175.833903 
L 246.451549 176.107771 
L 246.711273 175.934871 
L 247.068393 175.816302 
L 247.58784 176.598973 
L 247.620305 176.565194 
L 247.815098 176.423373 
L 247.94496 176.454229 
L 248.204684 177.057667 
L 248.594269 178.07483 
L 248.951389 178.563875 
L 249.211113 178.773398 
L 249.308509 178.800312 
L 249.535767 179.006861 
L 250.022749 178.947929 
L 250.347404 179.115393 
L 250.639593 179.491631 
L 251.061644 179.91446 
L 251.191505 179.956241 
L 251.710953 180.353417 
L 252.2304 180.915391 
L 252.295331 180.895704 
L 252.652451 180.349447 
L 253.756276 181.586505 
L 254.37312 183.411153 
L 254.73024 183.687696 
L 254.925033 183.38207 
L 255.152291 183.13959 
L 255.574342 183.459573 
L 255.606807 183.400925 
L 255.898996 183.106464 
L 256.028858 183.143591 
L 256.061324 183.102048 
L 256.418444 182.719804 
L 256.613236 182.644163 
L 256.808029 182.73194 
L 257.554735 183.736786 
L 257.781993 184.049582 
L 258.106647 184.426837 
L 258.528698 183.834982 
L 258.691025 183.327134 
L 258.918284 182.783692 
L 259.01568 182.893141 
L 260.022109 185.100804 
L 260.249367 185.395724 
L 260.379229 185.295523 
L 260.833745 184.241902 
L 261.190865 183.59212 
L 261.547985 183.55494 
L 261.645382 183.630145 
L 261.807709 183.766992 
L 261.87264 183.702123 
L 262.099898 183.396187 
L 262.327156 183.411113 
L 262.976465 183.747693 
L 263.138793 183.821648 
L 263.236189 183.922665 
L 263.268655 183.896476 
L 263.495913 183.884293 
L 263.65824 183.920479 
L 263.917964 183.825046 
L 264.112756 183.797584 
L 264.37248 183.849874 
L 264.534807 183.562006 
L 265.119185 181.761702 
L 265.898356 181.103226 
L 266.060684 181.316487 
L 266.547665 182.561933 
L 266.87232 183.438761 
L 267.067113 183.518372 
L 267.521629 183.12037 
L 268.3008 181.421444 
L 268.495593 181.310782 
L 269.144902 180.912543 
L 269.339695 180.921439 
L 269.502022 181.101892 
L 270.0864 182.245222 
L 270.281193 182.33175 
L 270.475985 182.125408 
L 271.092829 181.214561 
L 271.287622 181.07433 
L 271.449949 181.094811 
L 271.839535 181.343075 
L 272.034327 181.572683 
L 273.008291 180.206471 
L 273.268015 180.020503 
L 273.495273 180.02588 
L 273.852393 180.166742 
L 274.01472 179.850316 
L 274.436771 178.949619 
L 274.501702 178.987497 
L 274.72896 179.150601 
L 275.248407 179.67519 
L 275.508131 179.503756 
L 275.767855 178.936665 
L 276.644422 177.292926 
L 276.839215 177.324973 
L 277.683316 178.464194 
L 277.813178 178.31265 
L 278.689745 176.407711 
L 278.852073 176.50531 
L 279.436451 177.439612 
L 279.631244 177.083746 
L 279.923433 176.605786 
L 280.832465 175.782299 
L 281.189585 175.190281 
L 281.709033 174.674773 
L 281.903825 174.625256 
L 282.553135 174.769053 
L 283.819287 172.073383 
L 284.793251 171.417115 
L 284.955578 171.567827 
L 285.280233 172.112658 
L 285.410095 172.324971 
L 285.832145 173.364814 
L 285.994473 173.521469 
L 286.741178 172.282378 
L 286.806109 172.259229 
L 287.033367 172.068196 
L 288.29952 171.288431 
L 288.494313 171.314764 
L 288.754036 171.346241 
L 288.916364 171.568047 
L 289.305949 172.23348 
L 289.565673 172.230708 
L 289.857862 172.545141 
L 290.052655 172.458548 
L 290.214982 172.168259 
L 290.79936 170.538103 
L 290.896756 170.703183 
L 290.929222 170.672051 
L 291.318807 169.851457 
L 291.708393 168.945457 
L 291.838255 168.924703 
L 292.065513 169.066124 
L 292.649891 169.58122 
L 292.909615 169.546489 
L 293.071942 169.670816 
L 293.364131 169.585931 
L 293.65632 169.587858 
L 293.851113 169.628014 
L 294.143302 169.847083 
L 294.175767 169.801973 
L 294.37056 169.809408 
L 294.500422 169.762475 
L 294.72768 169.644427 
L 295.019869 169.72598 
L 295.247127 169.753762 
L 295.506851 169.690264 
L 295.863971 169.109435 
L 296.026298 169.139695 
L 296.448349 169.812174 
L 296.967796 171.110717 
L 297.844364 170.249895 
L 297.876829 170.293127 
L 298.104087 170.654465 
L 298.428742 170.554252 
L 298.623535 170.676002 
L 298.818327 170.703625 
L 299.37024 170.822268 
L 299.662429 170.628089 
L 299.987084 170.245957 
L 300.344204 170.036848 
L 300.79872 170.019641 
L 300.961047 170.308065 
L 301.448029 170.706338 
L 301.805149 170.175509 
L 302.129804 169.448657 
L 302.58432 168.787251 
L 302.811578 168.654468 
L 303.038836 168.718402 
L 303.395956 168.738594 
L 303.525818 168.749348 
L 303.882938 168.772016 
L 304.045265 168.829263 
L 304.759505 168.388461 
L 305.051695 168.503739 
L 305.668538 168.029092 
L 306.058124 167.370807 
L 306.382778 167.299277 
L 306.545105 167.357195 
L 306.804829 167.393748 
L 307.259345 167.961911 
L 307.681396 168.572197 
L 307.94112 168.619559 
L 308.070982 168.63703 
L 308.330705 168.874027 
L 308.622895 168.867337 
L 308.882618 168.931681 
L 308.980015 168.89062 
L 309.337135 168.641319 
L 309.531927 168.742956 
L 310.603287 170.055617 
L 310.927942 170.683981 
L 311.057804 170.663061 
L 312.031767 169.990524 
L 312.161629 169.958748 
L 312.356422 169.968902 
L 312.746007 170.457779 
L 312.843404 170.334341 
L 313.005731 170.318891 
L 313.135593 170.244576 
L 313.395316 170.202338 
L 313.590109 170.170136 
L 314.564073 169.798085 
L 314.921193 169.955283 
L 315.635433 171.130622 
L 316.122415 170.902185 
L 316.382138 170.562756 
L 316.934051 170.133555 
L 317.356102 170.40088 
L 318.135273 170.801802 
L 318.524858 170.512118 
L 318.881978 169.913064 
L 319.206633 169.725939 
L 319.433891 169.637031 
L 320.277993 170.196735 
L 320.667578 170.559583 
L 321.057164 170.369262 
L 321.187025 170.55242 
L 321.446749 170.71247 
L 321.933731 170.61161 
L 322.193455 170.004377 
L 322.388247 169.766735 
L 322.615505 169.689815 
L 322.875229 169.661373 
L 323.102487 169.62641 
L 324.238778 168.676153 
L 324.433571 168.916028 
L 325.115345 170.019959 
L 325.277673 169.980928 
L 325.44 169.955887 
L 325.602327 169.978876 
L 325.79712 169.735072 
L 326.15424 169.037643 
L 326.413964 168.732572 
L 326.576291 168.765179 
L 326.900945 168.872189 
L 327.030807 168.935849 
L 327.290531 169.010864 
L 327.58272 168.764841 
L 328.102167 168.619612 
L 328.491753 168.445999 
L 328.65408 168.616238 
L 328.686545 168.587508 
L 329.141062 168.406982 
L 329.952698 169.225494 
L 330.277353 168.78354 
L 330.569542 168.295987 
L 330.926662 167.747611 
L 331.186385 167.425495 
L 331.51104 167.559665 
L 331.705833 167.596291 
L 331.998022 167.334074 
L 332.257745 167.634128 
L 332.517469 167.865743 
L 333.199244 167.597393 
L 333.686225 167.350675 
L 334.01088 166.65345 
L 334.140742 166.587782 
L 334.173207 166.616178 
L 334.400465 166.768961 
L 335.049775 168.207771 
L 335.179636 168.087232 
L 335.471825 167.82219 
L 335.634153 167.880849 
L 335.991273 168.153803 
L 336.283462 167.728675 
L 336.640582 167.274308 
L 336.965236 166.943974 
L 337.095098 167.035651 
L 337.387287 167.227528 
L 337.58208 167.26919 
L 337.679476 167.506957 
L 338.133993 168.725617 
L 338.393716 169.012647 
L 338.685905 168.750251 
L 338.945629 167.97921 
L 339.205353 167.398723 
L 339.465076 167.327312 
L 339.627404 167.352292 
L 339.822196 167.595341 
L 340.601367 169.304766 
L 340.633833 169.285288 
L 340.79616 169.173741 
L 341.055884 169.005089 
L 341.15328 168.937301 
L 341.542865 168.398695 
L 341.672727 168.406132 
L 341.932451 168.452693 
L 342.484364 168.273476 
L 342.93888 168.441665 
L 343.880378 167.907654 
L 344.075171 167.539176 
L 344.334895 167.001164 
L 344.529687 167.053496 
L 344.72448 167.257342 
L 345.211462 168.528207 
L 345.406255 168.88409 
L 345.536116 168.811854 
L 345.79584 168.183935 
L 346.055564 167.837865 
L 346.769804 166.921869 
L 347.094458 166.321775 
L 347.159389 166.372976 
L 347.548975 166.333707 
L 347.711302 165.93489 
L 348.100887 164.841887 
L 348.425542 164.516877 
L 349.172247 164.653478 
L 349.854022 165.03127 
L 350.146211 164.573426 
L 350.633193 163.573535 
L 350.79552 163.492588 
L 351.607156 164.953022 
L 352.126604 166.630479 
L 352.288931 166.672584 
L 352.418793 166.499548 
L 352.710982 165.516511 
L 353.133033 164.13662 
L 353.230429 164.082331 
L 353.262895 164.115264 
L 354.0096 164.688893 
L 354.691375 165.178923 
L 354.853702 165.189134 
L 355.016029 165.150163 
L 355.243287 165.088274 
L 355.762735 165.624859 
L 356.801629 165.729791 
L 358.067782 164.51099 
L 358.230109 164.526223 
L 358.489833 164.385633 
L 359.3664 163.94779 
L 359.885847 163.297659 
L 360.307898 162.980157 
L 360.600087 163.263481 
L 361.119535 163.40114 
L 361.249396 163.541011 
L 361.50912 163.962474 
L 361.703913 163.778488 
L 362.710342 162.576392 
L 362.872669 162.51855 
L 363.197324 162.215113 
L 363.424582 162.288671 
L 363.619375 162.180548 
L 363.944029 161.993896 
L 364.333615 161.832587 
L 364.658269 161.853485 
L 365.177716 161.798972 
L 365.372509 161.743151 
L 365.632233 161.603179 
L 365.79456 161.516366 
L 366.314007 162.706901 
L 366.638662 163.236641 
L 366.995782 163.168985 
L 367.547695 162.78464 
L 368.002211 162.833728 
L 368.683985 162.493949 
L 368.911244 162.625731 
L 369.170967 162.472429 
L 369.950138 161.620888 
L 370.242327 162.032012 
L 370.502051 162.468928 
L 370.729309 162.740889 
L 370.956567 162.735712 
L 371.573411 162.292838 
L 371.800669 162.373891 
L 372.027927 162.561296 
L 372.157789 162.502039 
L 372.514909 161.8727 
L 372.839564 161.368282 
L 373.131753 161.747902 
L 373.326545 161.993019 
L 373.586269 161.783189 
L 374.430371 160.20708 
L 375.274473 159.641014 
L 375.534196 159.654364 
L 375.761455 159.564546 
L 375.923782 159.452288 
L 376.443229 158.835636 
L 376.767884 158.309564 
L 376.962676 158.274668 
L 377.189935 158.463868 
L 377.514589 158.709703 
L 377.547055 158.677586 
L 377.774313 158.155476 
L 378.131433 157.128821 
L 378.29376 156.987045 
L 378.326225 157.011279 
L 378.910604 157.129709 
L 379.105396 157.551449 
L 379.36512 157.94425 
L 379.592378 158.018755 
L 379.689775 157.953719 
L 380.566342 156.790577 
L 380.7936 156.796541 
L 381.085789 156.558283 
L 381.442909 156.30274 
L 381.735098 156.207777 
L 381.994822 155.973277 
L 382.287011 156.139717 
L 382.644131 156.172449 
L 382.871389 156.150413 
L 383.066182 155.881263 
L 383.29344 155.776007 
L 383.747956 155.969982 
L 384.040145 156.113169 
L 385.046575 156.385834 
L 385.273833 156.604902 
L 385.695884 156.229184 
L 385.923142 155.936981 
L 386.1504 155.832639 
L 386.539985 155.666991 
L 386.832175 155.711427 
L 387.026967 155.475574 
L 387.319156 155.091625 
L 387.676276 155.544077 
L 388.033396 156.069995 
L 388.520378 156.322468 
L 388.682705 156.365114 
L 388.974895 156.305176 
L 389.656669 156.048957 
L 390.176116 156.40921 
L 390.695564 156.682902 
L 390.987753 156.163823 
L 391.247476 155.865265 
L 391.604596 155.96566 
L 392.253905 156.336706 
L 392.513629 156.206917 
L 392.870749 156.343409 
L 393.065542 156.141951 
L 393.325265 155.837482 
L 393.942109 155.413514 
L 394.169367 155.472937 
L 394.786211 155.935388 
L 394.981004 155.970337 
L 395.175796 156.081245 
L 395.305658 155.942503 
L 396.182225 154.324938 
L 396.377018 154.419842 
L 396.864 154.982933 
L 397.091258 155.366131 
L 398.065222 154.264295 
L 398.260015 154.066443 
L 398.487273 153.972359 
L 398.487273 153.972359 
" style="fill:none;stroke:#ff7f0e;stroke-linecap:square;stroke-width:1.5;"/>
   </g>
   <g id="line2d_17">
    <path clip-path="url(#pd1bfd3a9ad)" d="M 73.832727 295.287165 
L 73.865193 295.488 
L 74.02752 282.746618 
L 74.319709 266.297024 
L 74.546967 293.337424 
L 74.579433 291.823921 
L 74.676829 280.101974 
L 74.74176 282.285464 
L 74.904087 287.340645 
L 75.09888 288.969706 
L 75.163811 288.707693 
L 75.391069 286.138824 
L 76.332567 272.195516 
L 77.468858 256.052772 
L 78.67008 242.582351 
L 79.806371 231.877149 
L 80.682938 225.603079 
L 81.52704 221.107265 
L 82.24128 218.413808 
L 82.858124 216.860579 
L 83.572364 215.660344 
L 84.221673 214.950461 
L 84.708655 214.710931 
L 84.935913 214.555944 
L 85.195636 214.502665 
L 85.585222 214.687648 
L 86.202065 215.278976 
L 87.078633 216.44767 
L 88.020131 218.091407 
L 88.117527 218.420304 
L 88.31232 218.90905 
L 88.831767 219.669638 
L 89.513542 221.09701 
L 94.545687 232.333258 
L 96.16896 235.298383 
L 98.571404 239.147334 
L 101.88288 244.629901 
L 104.642444 249.628467 
L 107.272145 254.917969 
L 111.52512 263.467812 
L 113.440582 266.878229 
L 114.966458 269.128231 
L 116.459869 270.945014 
L 117.531229 271.916097 
L 118.472727 272.491705 
L 119.284364 272.745057 
L 119.998604 272.752348 
L 120.712844 272.531295 
L 121.492015 272.047521 
L 122.401047 271.208632 
L 123.017891 270.501256 
L 123.245149 271.277344 
L 124.316509 273.517651 
L 124.543767 273.839162 
L 124.576233 273.749127 
L 124.73856 273.60863 
L 125.09568 273.821194 
L 125.777455 274.184714 
L 126.589091 274.361433 
L 127.400727 274.304353 
L 128.30976 274.0104 
L 129.510982 273.355594 
L 130.225222 273.04402 
L 130.971927 272.764881 
L 131.945891 272.068665 
L 134.543127 269.942047 
L 136.361193 268.143549 
L 139.640204 264.918486 
L 141.555665 263.212416 
L 143.536058 261.81361 
L 147.399447 259.496028 
L 150.516131 257.200255 
L 151.360233 256.564875 
L 153.66528 254.977936 
L 155.743069 253.837634 
L 157.723462 252.951042 
L 159.963578 252.247629 
L 160.288233 252.209443 
L 160.937542 252.073495 
L 161.262196 252.022952 
L 161.87904 251.899558 
L 162.59328 251.757234 
L 162.917935 251.706805 
L 163.469847 251.58985 
L 163.794502 251.540335 
L 164.346415 251.427236 
L 164.703535 251.367171 
L 166.067084 251.132617 
L 167.95008 250.805658 
L 170.514851 250.241975 
L 182.689396 247.560683 
L 190.546036 245.951333 
L 197.720902 244.458674 
L 205.382749 243.171105 
L 211.583651 242.197931 
L 211.713513 242.494175 
L 211.87584 242.474862 
L 211.973236 242.47724 
L 212.070633 242.286615 
L 212.103098 242.436448 
L 212.135564 242.243429 
L 212.168029 242.402165 
L 212.265425 242.171181 
L 212.297891 242.329208 
L 212.330356 242.136551 
L 212.362822 242.293793 
L 212.460218 242.069685 
L 212.492684 242.224759 
L 212.525149 242.037923 
L 212.557615 242.19011 
L 212.655011 241.977861 
L 212.687476 242.12899 
L 212.719942 241.951342 
L 212.752407 242.101689 
L 212.849804 241.904704 
L 212.882269 242.054083 
L 212.914735 241.88439 
L 212.9472 242.033819 
L 213.044596 241.849581 
L 213.109527 241.834783 
L 213.141993 241.987775 
L 213.239389 241.810802 
L 213.336785 241.961452 
L 213.434182 241.783689 
L 213.531578 241.949903 
L 213.628975 241.764386 
L 213.726371 241.946107 
L 213.823767 241.749242 
L 213.921164 241.946384 
L 214.01856 241.732985 
L 214.115956 241.938196 
L 214.213353 241.707709 
L 214.245818 241.925889 
L 214.278284 241.697582 
L 214.310749 241.912182 
L 214.408145 241.679017 
L 214.440611 241.869239 
L 214.473076 241.657335 
L 214.505542 241.846486 
L 214.602938 241.608653 
L 214.635404 241.800806 
L 214.667869 241.579599 
L 214.700335 241.781228 
L 214.797731 241.542664 
L 214.830196 241.746085 
L 214.862662 241.527296 
L 214.895127 241.729337 
L 214.992524 241.500103 
L 215.024989 241.699357 
L 215.057455 241.488203 
L 215.08992 241.686723 
L 215.187316 241.4681 
L 215.284713 241.658206 
L 215.317178 241.452292 
L 215.382109 241.46542 
L 215.479505 241.638818 
L 215.511971 241.608138 
L 215.674298 241.606559 
L 216.031418 241.52485 
L 216.193745 241.557055 
L 216.356073 241.517536 
L 216.5184 241.546073 
L 216.680727 241.522032 
L 216.87552 241.525238 
L 217.23264 241.530004 
L 217.914415 241.5371 
L 219.764945 241.500286 
L 221.355753 241.237941 
L 222.427113 240.820281 
L 223.693265 239.968579 
L 224.829556 238.963572 
L 225.251607 238.568829 
L 226.907345 237.167186 
L 229.342255 235.289401 
L 230.770735 234.327735 
L 233.173178 232.789732 
L 234.049745 232.350391 
L 235.250967 231.729693 
L 237.036567 231.215931 
L 238.594909 231.194965 
L 240.08832 231.534875 
L 241.451869 232.082946 
L 243.107607 232.987182 
L 245.282793 234.449746 
L 247.457978 235.879652 
L 248.464407 236.225712 
L 251.613556 237.621403 
L 254.405585 238.712641 
L 256.743098 239.484919 
L 259.080611 240.052065 
L 262.067433 240.558073 
L 265.346444 240.898507 
L 269.112436 241.064528 
L 272.748567 241.045942 
L 273.073222 240.802518 
L 273.462807 240.705254 
L 274.72896 240.573289 
L 275.670458 240.416899 
L 282.715462 239.374755 
L 283.364771 239.178229 
L 292.390167 237.840267 
L 298.233949 237.377259 
L 304.921833 237.1286 
L 319.693615 236.7504 
L 326.186705 236.261019 
L 331.413644 235.687801 
L 336.250996 234.917313 
L 342.322036 233.706768 
L 350.048815 232.18107 
L 353.555084 231.757581 
L 354.106996 231.81276 
L 354.36672 231.807368 
L 354.983564 231.401072 
L 355.632873 231.416861 
L 357.321076 231.384907 
L 358.65216 231.456129 
L 359.074211 231.586638 
L 359.72352 231.552351 
L 361.216931 231.35254 
L 363.424582 231.414113 
L 371.216291 231.916113 
L 373.359011 232.23607 
L 373.521338 232.24919 
L 374.105716 232.096466 
L 375.177076 232.230525 
L 377.417193 232.420987 
L 380.533876 232.44293 
L 383.683025 232.286257 
L 386.669847 231.983127 
L 391.961716 231.407718 
L 395.532916 231.315827 
L 398.487273 231.329027 
L 398.487273 231.329027 
" style="fill:none;stroke:#bf00bf;stroke-linecap:square;stroke-width:1.5;"/>
   </g>
   <g id="patch_3">
    <path d="M 57.6 307.584 
L 57.6 41.472 
" style="fill:none;stroke:#000000;stroke-linecap:square;stroke-linejoin:miter;stroke-width:0.8;"/>
   </g>
   <g id="patch_4">
    <path d="M 414.72 307.584 
L 414.72 41.472 
" style="fill:none;stroke:#000000;stroke-linecap:square;stroke-linejoin:miter;stroke-width:0.8;"/>
   </g>
   <g id="patch_5">
    <path d="M 57.6 307.584 
L 414.72 307.584 
" style="fill:none;stroke:#000000;stroke-linecap:square;stroke-linejoin:miter;stroke-width:0.8;"/>
   </g>
   <g id="patch_6">
    <path d="M 57.6 41.472 
L 414.72 41.472 
" style="fill:none;stroke:#000000;stroke-linecap:square;stroke-linejoin:miter;stroke-width:0.8;"/>
   </g>
   <g id="text_17">
    <!-- Plot of Object pose error norm over a single episode  -->
    <g transform="translate(77.670938 8.59725)scale(0.12 -0.12)">
     <defs>
      <path d="M 19.671875 64.796875 
L 19.671875 37.40625 
L 32.078125 37.40625 
Q 38.96875 37.40625 42.71875 40.96875 
Q 46.484375 44.53125 46.484375 51.125 
Q 46.484375 57.671875 42.71875 61.234375 
Q 38.96875 64.796875 32.078125 64.796875 
z
M 9.8125 72.90625 
L 32.078125 72.90625 
Q 44.34375 72.90625 50.609375 67.359375 
Q 56.890625 61.8125 56.890625 51.125 
Q 56.890625 40.328125 50.609375 34.8125 
Q 44.34375 29.296875 32.078125 29.296875 
L 19.671875 29.296875 
L 19.671875 0 
L 9.8125 0 
z
" id="DejaVuSans-80"/>
      <path d="M 9.421875 75.984375 
L 18.40625 75.984375 
L 18.40625 0 
L 9.421875 0 
z
" id="DejaVuSans-108"/>
      <path id="DejaVuSans-32"/>
      <path d="M 37.109375 75.984375 
L 37.109375 68.5 
L 28.515625 68.5 
Q 23.6875 68.5 21.796875 66.546875 
Q 19.921875 64.59375 19.921875 59.515625 
L 19.921875 54.6875 
L 34.71875 54.6875 
L 34.71875 47.703125 
L 19.921875 47.703125 
L 19.921875 0 
L 10.890625 0 
L 10.890625 47.703125 
L 2.296875 47.703125 
L 2.296875 54.6875 
L 10.890625 54.6875 
L 10.890625 58.5 
Q 10.890625 67.625 15.140625 71.796875 
Q 19.390625 75.984375 28.609375 75.984375 
z
" id="DejaVuSans-102"/>
      <path d="M 48.78125 52.59375 
L 48.78125 44.1875 
Q 44.96875 46.296875 41.140625 47.34375 
Q 37.3125 48.390625 33.40625 48.390625 
Q 24.65625 48.390625 19.8125 42.84375 
Q 14.984375 37.3125 14.984375 27.296875 
Q 14.984375 17.28125 19.8125 11.734375 
Q 24.65625 6.203125 33.40625 6.203125 
Q 37.3125 6.203125 41.140625 7.25 
Q 44.96875 8.296875 48.78125 10.40625 
L 48.78125 2.09375 
Q 45.015625 0.34375 40.984375 -0.53125 
Q 36.96875 -1.421875 32.421875 -1.421875 
Q 20.0625 -1.421875 12.78125 6.34375 
Q 5.515625 14.109375 5.515625 27.296875 
Q 5.515625 40.671875 12.859375 48.328125 
Q 20.21875 56 33.015625 56 
Q 37.15625 56 41.109375 55.140625 
Q 45.0625 54.296875 48.78125 52.59375 
z
" id="DejaVuSans-99"/>
      <path d="M 2.984375 54.6875 
L 12.5 54.6875 
L 29.59375 8.796875 
L 46.6875 54.6875 
L 56.203125 54.6875 
L 35.6875 0 
L 23.484375 0 
z
" id="DejaVuSans-118"/>
      <path d="M 34.28125 27.484375 
Q 23.390625 27.484375 19.1875 25 
Q 14.984375 22.515625 14.984375 16.5 
Q 14.984375 11.71875 18.140625 8.90625 
Q 21.296875 6.109375 26.703125 6.109375 
Q 34.1875 6.109375 38.703125 11.40625 
Q 43.21875 16.703125 43.21875 25.484375 
L 43.21875 27.484375 
z
M 52.203125 31.203125 
L 52.203125 0 
L 43.21875 0 
L 43.21875 8.296875 
Q 40.140625 3.328125 35.546875 0.953125 
Q 30.953125 -1.421875 24.3125 -1.421875 
Q 15.921875 -1.421875 10.953125 3.296875 
Q 6 8.015625 6 15.921875 
Q 6 25.140625 12.171875 29.828125 
Q 18.359375 34.515625 30.609375 34.515625 
L 43.21875 34.515625 
L 43.21875 35.40625 
Q 43.21875 41.609375 39.140625 45 
Q 35.0625 48.390625 27.6875 48.390625 
Q 23 48.390625 18.546875 47.265625 
Q 14.109375 46.140625 10.015625 43.890625 
L 10.015625 52.203125 
Q 14.9375 54.109375 19.578125 55.046875 
Q 24.21875 56 28.609375 56 
Q 40.484375 56 46.34375 49.84375 
Q 52.203125 43.703125 52.203125 31.203125 
z
" id="DejaVuSans-97"/>
      <path d="M 45.40625 27.984375 
Q 45.40625 37.75 41.375 43.109375 
Q 37.359375 48.484375 30.078125 48.484375 
Q 22.859375 48.484375 18.828125 43.109375 
Q 14.796875 37.75 14.796875 27.984375 
Q 14.796875 18.265625 18.828125 12.890625 
Q 22.859375 7.515625 30.078125 7.515625 
Q 37.359375 7.515625 41.375 12.890625 
Q 45.40625 18.265625 45.40625 27.984375 
z
M 54.390625 6.78125 
Q 54.390625 -7.171875 48.1875 -13.984375 
Q 42 -20.796875 29.203125 -20.796875 
Q 24.46875 -20.796875 20.265625 -20.09375 
Q 16.0625 -19.390625 12.109375 -17.921875 
L 12.109375 -9.1875 
Q 16.0625 -11.328125 19.921875 -12.34375 
Q 23.78125 -13.375 27.78125 -13.375 
Q 36.625 -13.375 41.015625 -8.765625 
Q 45.40625 -4.15625 45.40625 5.171875 
L 45.40625 9.625 
Q 42.625 4.78125 38.28125 2.390625 
Q 33.9375 0 27.875 0 
Q 17.828125 0 11.671875 7.65625 
Q 5.515625 15.328125 5.515625 27.984375 
Q 5.515625 40.671875 11.671875 48.328125 
Q 17.828125 56 27.875 56 
Q 33.9375 56 38.28125 53.609375 
Q 42.625 51.21875 45.40625 46.390625 
L 45.40625 54.6875 
L 54.390625 54.6875 
z
" id="DejaVuSans-103"/>
      <path d="M 45.40625 46.390625 
L 45.40625 75.984375 
L 54.390625 75.984375 
L 54.390625 0 
L 45.40625 0 
L 45.40625 8.203125 
Q 42.578125 3.328125 38.25 0.953125 
Q 33.9375 -1.421875 27.875 -1.421875 
Q 17.96875 -1.421875 11.734375 6.484375 
Q 5.515625 14.40625 5.515625 27.296875 
Q 5.515625 40.1875 11.734375 48.09375 
Q 17.96875 56 27.875 56 
Q 33.9375 56 38.25 53.625 
Q 42.578125 51.265625 45.40625 46.390625 
z
M 14.796875 27.296875 
Q 14.796875 17.390625 18.875 11.75 
Q 22.953125 6.109375 30.078125 6.109375 
Q 37.203125 6.109375 41.296875 11.75 
Q 45.40625 17.390625 45.40625 27.296875 
Q 45.40625 37.203125 41.296875 42.84375 
Q 37.203125 48.484375 30.078125 48.484375 
Q 22.953125 48.484375 18.875 42.84375 
Q 14.796875 37.203125 14.796875 27.296875 
z
" id="DejaVuSans-100"/>
     </defs>
     <use xlink:href="#DejaVuSans-80"/>
     <use x="60.302734" xlink:href="#DejaVuSans-108"/>
     <use x="88.085938" xlink:href="#DejaVuSans-111"/>
     <use x="149.267578" xlink:href="#DejaVuSans-116"/>
     <use x="188.476562" xlink:href="#DejaVuSans-32"/>
     <use x="220.263672" xlink:href="#DejaVuSans-111"/>
     <use x="281.445312" xlink:href="#DejaVuSans-102"/>
     <use x="316.650391" xlink:href="#DejaVuSans-32"/>
     <use x="348.4375" xlink:href="#DejaVuSans-79"/>
     <use x="427.148438" xlink:href="#DejaVuSans-98"/>
     <use x="490.625" xlink:href="#DejaVuSans-106"/>
     <use x="518.408203" xlink:href="#DejaVuSans-101"/>
     <use x="579.931641" xlink:href="#DejaVuSans-99"/>
     <use x="634.912109" xlink:href="#DejaVuSans-116"/>
     <use x="674.121094" xlink:href="#DejaVuSans-32"/>
     <use x="705.908203" xlink:href="#DejaVuSans-112"/>
     <use x="769.384766" xlink:href="#DejaVuSans-111"/>
     <use x="830.566406" xlink:href="#DejaVuSans-115"/>
     <use x="882.666016" xlink:href="#DejaVuSans-101"/>
     <use x="944.189453" xlink:href="#DejaVuSans-32"/>
     <use x="975.976562" xlink:href="#DejaVuSans-101"/>
     <use x="1037.5" xlink:href="#DejaVuSans-114"/>
     <use x="1076.863281" xlink:href="#DejaVuSans-114"/>
     <use x="1115.726562" xlink:href="#DejaVuSans-111"/>
     <use x="1176.908203" xlink:href="#DejaVuSans-114"/>
     <use x="1218.021484" xlink:href="#DejaVuSans-32"/>
     <use x="1249.808594" xlink:href="#DejaVuSans-110"/>
     <use x="1313.1875" xlink:href="#DejaVuSans-111"/>
     <use x="1374.369141" xlink:href="#DejaVuSans-114"/>
     <use x="1413.732422" xlink:href="#DejaVuSans-109"/>
     <use x="1511.144531" xlink:href="#DejaVuSans-32"/>
     <use x="1542.931641" xlink:href="#DejaVuSans-111"/>
     <use x="1604.113281" xlink:href="#DejaVuSans-118"/>
     <use x="1663.292969" xlink:href="#DejaVuSans-101"/>
     <use x="1724.816406" xlink:href="#DejaVuSans-114"/>
     <use x="1765.929688" xlink:href="#DejaVuSans-32"/>
     <use x="1797.716797" xlink:href="#DejaVuSans-97"/>
     <use x="1858.996094" xlink:href="#DejaVuSans-32"/>
     <use x="1890.783203" xlink:href="#DejaVuSans-115"/>
     <use x="1942.882812" xlink:href="#DejaVuSans-105"/>
     <use x="1970.666016" xlink:href="#DejaVuSans-110"/>
     <use x="2034.044922" xlink:href="#DejaVuSans-103"/>
     <use x="2097.521484" xlink:href="#DejaVuSans-108"/>
     <use x="2125.304688" xlink:href="#DejaVuSans-101"/>
     <use x="2186.828125" xlink:href="#DejaVuSans-32"/>
     <use x="2218.615234" xlink:href="#DejaVuSans-101"/>
     <use x="2280.138672" xlink:href="#DejaVuSans-112"/>
     <use x="2343.615234" xlink:href="#DejaVuSans-105"/>
     <use x="2371.398438" xlink:href="#DejaVuSans-115"/>
     <use x="2423.498047" xlink:href="#DejaVuSans-111"/>
     <use x="2484.679688" xlink:href="#DejaVuSans-100"/>
     <use x="2548.15625" xlink:href="#DejaVuSans-101"/>
     <use x="2609.679688" xlink:href="#DejaVuSans-32"/>
    </g>
    <!--  Avg object pose error norm: Residual RL = 0.367, Standard = 0.329,  -->
    <g transform="translate(26.875313 22.034625)scale(0.12 -0.12)">
     <defs>
      <path d="M 34.1875 63.1875 
L 20.796875 26.90625 
L 47.609375 26.90625 
z
M 28.609375 72.90625 
L 39.796875 72.90625 
L 67.578125 0 
L 57.328125 0 
L 50.6875 18.703125 
L 17.828125 18.703125 
L 11.1875 0 
L 0.78125 0 
z
" id="DejaVuSans-65"/>
      <path d="M 11.71875 12.40625 
L 22.015625 12.40625 
L 22.015625 0 
L 11.71875 0 
z
M 11.71875 51.703125 
L 22.015625 51.703125 
L 22.015625 39.3125 
L 11.71875 39.3125 
z
" id="DejaVuSans-58"/>
      <path d="M 44.390625 34.1875 
Q 47.5625 33.109375 50.5625 29.59375 
Q 53.5625 26.078125 56.59375 19.921875 
L 66.609375 0 
L 56 0 
L 46.6875 18.703125 
Q 43.0625 26.03125 39.671875 28.421875 
Q 36.28125 30.8125 30.421875 30.8125 
L 19.671875 30.8125 
L 19.671875 0 
L 9.8125 0 
L 9.8125 72.90625 
L 32.078125 72.90625 
Q 44.578125 72.90625 50.734375 67.671875 
Q 56.890625 62.453125 56.890625 51.90625 
Q 56.890625 45.015625 53.6875 40.46875 
Q 50.484375 35.9375 44.390625 34.1875 
z
M 19.671875 64.796875 
L 19.671875 38.921875 
L 32.078125 38.921875 
Q 39.203125 38.921875 42.84375 42.21875 
Q 46.484375 45.515625 46.484375 51.90625 
Q 46.484375 58.296875 42.84375 61.546875 
Q 39.203125 64.796875 32.078125 64.796875 
z
" id="DejaVuSans-82"/>
      <path d="M 9.8125 72.90625 
L 19.671875 72.90625 
L 19.671875 8.296875 
L 55.171875 8.296875 
L 55.171875 0 
L 9.8125 0 
z
" id="DejaVuSans-76"/>
      <path d="M 10.59375 45.40625 
L 73.1875 45.40625 
L 73.1875 37.203125 
L 10.59375 37.203125 
z
M 10.59375 25.484375 
L 73.1875 25.484375 
L 73.1875 17.1875 
L 10.59375 17.1875 
z
" id="DejaVuSans-61"/>
      <path d="M 11.71875 12.40625 
L 22.015625 12.40625 
L 22.015625 4 
L 14.015625 -11.625 
L 7.71875 -11.625 
L 11.71875 4 
z
" id="DejaVuSans-44"/>
      <path d="M 53.515625 70.515625 
L 53.515625 60.890625 
Q 47.90625 63.578125 42.921875 64.890625 
Q 37.9375 66.21875 33.296875 66.21875 
Q 25.25 66.21875 20.875 63.09375 
Q 16.5 59.96875 16.5 54.203125 
Q 16.5 49.359375 19.40625 46.890625 
Q 22.3125 44.4375 30.421875 42.921875 
L 36.375 41.703125 
Q 47.40625 39.59375 52.65625 34.296875 
Q 57.90625 29 57.90625 20.125 
Q 57.90625 9.515625 50.796875 4.046875 
Q 43.703125 -1.421875 29.984375 -1.421875 
Q 24.8125 -1.421875 18.96875 -0.25 
Q 13.140625 0.921875 6.890625 3.21875 
L 6.890625 13.375 
Q 12.890625 10.015625 18.65625 8.296875 
Q 24.421875 6.59375 29.984375 6.59375 
Q 38.421875 6.59375 43.015625 9.90625 
Q 47.609375 13.234375 47.609375 19.390625 
Q 47.609375 24.75 44.3125 27.78125 
Q 41.015625 30.8125 33.5 32.328125 
L 27.484375 33.5 
Q 16.453125 35.6875 11.515625 40.375 
Q 6.59375 45.0625 6.59375 53.421875 
Q 6.59375 63.09375 13.40625 68.65625 
Q 20.21875 74.21875 32.171875 74.21875 
Q 37.3125 74.21875 42.625 73.28125 
Q 47.953125 72.359375 53.515625 70.515625 
z
" id="DejaVuSans-83"/>
      <path d="M 10.984375 1.515625 
L 10.984375 10.5 
Q 14.703125 8.734375 18.5 7.8125 
Q 22.3125 6.890625 25.984375 6.890625 
Q 35.75 6.890625 40.890625 13.453125 
Q 46.046875 20.015625 46.78125 33.40625 
Q 43.953125 29.203125 39.59375 26.953125 
Q 35.25 24.703125 29.984375 24.703125 
Q 19.046875 24.703125 12.671875 31.3125 
Q 6.296875 37.9375 6.296875 49.421875 
Q 6.296875 60.640625 12.9375 67.421875 
Q 19.578125 74.21875 30.609375 74.21875 
Q 43.265625 74.21875 49.921875 64.515625 
Q 56.59375 54.828125 56.59375 36.375 
Q 56.59375 19.140625 48.40625 8.859375 
Q 40.234375 -1.421875 26.421875 -1.421875 
Q 22.703125 -1.421875 18.890625 -0.6875 
Q 15.09375 0.046875 10.984375 1.515625 
z
M 30.609375 32.421875 
Q 37.25 32.421875 41.125 36.953125 
Q 45.015625 41.5 45.015625 49.421875 
Q 45.015625 57.28125 41.125 61.84375 
Q 37.25 66.40625 30.609375 66.40625 
Q 23.96875 66.40625 20.09375 61.84375 
Q 16.21875 57.28125 16.21875 49.421875 
Q 16.21875 41.5 20.09375 36.953125 
Q 23.96875 32.421875 30.609375 32.421875 
z
" id="DejaVuSans-57"/>
     </defs>
     <use xlink:href="#DejaVuSans-32"/>
     <use x="31.787109" xlink:href="#DejaVuSans-65"/>
     <use x="94.320312" xlink:href="#DejaVuSans-118"/>
     <use x="153.5" xlink:href="#DejaVuSans-103"/>
     <use x="216.976562" xlink:href="#DejaVuSans-32"/>
     <use x="248.763672" xlink:href="#DejaVuSans-111"/>
     <use x="309.945312" xlink:href="#DejaVuSans-98"/>
     <use x="373.421875" xlink:href="#DejaVuSans-106"/>
     <use x="401.205078" xlink:href="#DejaVuSans-101"/>
     <use x="462.728516" xlink:href="#DejaVuSans-99"/>
     <use x="517.708984" xlink:href="#DejaVuSans-116"/>
     <use x="556.917969" xlink:href="#DejaVuSans-32"/>
     <use x="588.705078" xlink:href="#DejaVuSans-112"/>
     <use x="652.181641" xlink:href="#DejaVuSans-111"/>
     <use x="713.363281" xlink:href="#DejaVuSans-115"/>
     <use x="765.462891" xlink:href="#DejaVuSans-101"/>
     <use x="826.986328" xlink:href="#DejaVuSans-32"/>
     <use x="858.773438" xlink:href="#DejaVuSans-101"/>
     <use x="920.296875" xlink:href="#DejaVuSans-114"/>
     <use x="959.660156" xlink:href="#DejaVuSans-114"/>
     <use x="998.523438" xlink:href="#DejaVuSans-111"/>
     <use x="1059.705078" xlink:href="#DejaVuSans-114"/>
     <use x="1100.818359" xlink:href="#DejaVuSans-32"/>
     <use x="1132.605469" xlink:href="#DejaVuSans-110"/>
     <use x="1195.984375" xlink:href="#DejaVuSans-111"/>
     <use x="1257.166016" xlink:href="#DejaVuSans-114"/>
     <use x="1296.529297" xlink:href="#DejaVuSans-109"/>
     <use x="1393.941406" xlink:href="#DejaVuSans-58"/>
     <use x="1427.632812" xlink:href="#DejaVuSans-32"/>
     <use x="1459.419922" xlink:href="#DejaVuSans-82"/>
     <use x="1524.402344" xlink:href="#DejaVuSans-101"/>
     <use x="1585.925781" xlink:href="#DejaVuSans-115"/>
     <use x="1638.025391" xlink:href="#DejaVuSans-105"/>
     <use x="1665.808594" xlink:href="#DejaVuSans-100"/>
     <use x="1729.285156" xlink:href="#DejaVuSans-117"/>
     <use x="1792.664062" xlink:href="#DejaVuSans-97"/>
     <use x="1853.943359" xlink:href="#DejaVuSans-108"/>
     <use x="1881.726562" xlink:href="#DejaVuSans-32"/>
     <use x="1913.513672" xlink:href="#DejaVuSans-82"/>
     <use x="1982.996094" xlink:href="#DejaVuSans-76"/>
     <use x="2038.708984" xlink:href="#DejaVuSans-32"/>
     <use x="2070.496094" xlink:href="#DejaVuSans-61"/>
     <use x="2154.285156" xlink:href="#DejaVuSans-32"/>
     <use x="2186.072266" xlink:href="#DejaVuSans-48"/>
     <use x="2249.695312" xlink:href="#DejaVuSans-46"/>
     <use x="2281.482422" xlink:href="#DejaVuSans-51"/>
     <use x="2345.105469" xlink:href="#DejaVuSans-54"/>
     <use x="2408.728516" xlink:href="#DejaVuSans-55"/>
     <use x="2472.351562" xlink:href="#DejaVuSans-44"/>
     <use x="2504.138672" xlink:href="#DejaVuSans-32"/>
     <use x="2535.925781" xlink:href="#DejaVuSans-83"/>
     <use x="2599.402344" xlink:href="#DejaVuSans-116"/>
     <use x="2638.611328" xlink:href="#DejaVuSans-97"/>
     <use x="2699.890625" xlink:href="#DejaVuSans-110"/>
     <use x="2763.269531" xlink:href="#DejaVuSans-100"/>
     <use x="2826.746094" xlink:href="#DejaVuSans-97"/>
     <use x="2888.025391" xlink:href="#DejaVuSans-114"/>
     <use x="2927.388672" xlink:href="#DejaVuSans-100"/>
     <use x="2990.865234" xlink:href="#DejaVuSans-32"/>
     <use x="3022.652344" xlink:href="#DejaVuSans-61"/>
     <use x="3106.441406" xlink:href="#DejaVuSans-32"/>
     <use x="3138.228516" xlink:href="#DejaVuSans-48"/>
     <use x="3201.851562" xlink:href="#DejaVuSans-46"/>
     <use x="3233.638672" xlink:href="#DejaVuSans-51"/>
     <use x="3297.261719" xlink:href="#DejaVuSans-50"/>
     <use x="3360.884766" xlink:href="#DejaVuSans-57"/>
     <use x="3424.507812" xlink:href="#DejaVuSans-44"/>
     <use x="3456.294922" xlink:href="#DejaVuSans-32"/>
    </g>
    <!--  Baseline = 0.178 -->
    <g transform="translate(182.795625 35.472)scale(0.12 -0.12)">
     <defs>
      <path d="M 19.671875 34.8125 
L 19.671875 8.109375 
L 35.5 8.109375 
Q 43.453125 8.109375 47.28125 11.40625 
Q 51.125 14.703125 51.125 21.484375 
Q 51.125 28.328125 47.28125 31.5625 
Q 43.453125 34.8125 35.5 34.8125 
z
M 19.671875 64.796875 
L 19.671875 42.828125 
L 34.28125 42.828125 
Q 41.5 42.828125 45.03125 45.53125 
Q 48.578125 48.25 48.578125 53.8125 
Q 48.578125 59.328125 45.03125 62.0625 
Q 41.5 64.796875 34.28125 64.796875 
z
M 9.8125 72.90625 
L 35.015625 72.90625 
Q 46.296875 72.90625 52.390625 68.21875 
Q 58.5 63.53125 58.5 54.890625 
Q 58.5 48.1875 55.375 44.234375 
Q 52.25 40.28125 46.1875 39.3125 
Q 53.46875 37.75 57.5 32.78125 
Q 61.53125 27.828125 61.53125 20.40625 
Q 61.53125 10.640625 54.890625 5.3125 
Q 48.25 0 35.984375 0 
L 9.8125 0 
z
" id="DejaVuSans-66"/>
     </defs>
     <use xlink:href="#DejaVuSans-32"/>
     <use x="31.787109" xlink:href="#DejaVuSans-66"/>
     <use x="100.390625" xlink:href="#DejaVuSans-97"/>
     <use x="161.669922" xlink:href="#DejaVuSans-115"/>
     <use x="213.769531" xlink:href="#DejaVuSans-101"/>
     <use x="275.292969" xlink:href="#DejaVuSans-108"/>
     <use x="303.076172" xlink:href="#DejaVuSans-105"/>
     <use x="330.859375" xlink:href="#DejaVuSans-110"/>
     <use x="394.238281" xlink:href="#DejaVuSans-101"/>
     <use x="455.761719" xlink:href="#DejaVuSans-32"/>
     <use x="487.548828" xlink:href="#DejaVuSans-61"/>
     <use x="571.337891" xlink:href="#DejaVuSans-32"/>
     <use x="603.125" xlink:href="#DejaVuSans-48"/>
     <use x="666.748047" xlink:href="#DejaVuSans-46"/>
     <use x="698.535156" xlink:href="#DejaVuSans-49"/>
     <use x="762.158203" xlink:href="#DejaVuSans-55"/>
     <use x="825.78125" xlink:href="#DejaVuSans-56"/>
    </g>
   </g>
   <g id="legend_1">
    <g id="patch_7">
     <path d="M 64.6 93.506375 
L 154.529687 93.506375 
Q 156.529687 93.506375 156.529687 91.506375 
L 156.529687 48.472 
Q 156.529687 46.472 154.529687 46.472 
L 64.6 46.472 
Q 62.6 46.472 62.6 48.472 
L 62.6 91.506375 
Q 62.6 93.506375 64.6 93.506375 
z
" style="fill:#ffffff;opacity:0.8;stroke:#cccccc;stroke-linejoin:miter;"/>
    </g>
    <g id="line2d_18">
     <path d="M 66.6 54.570438 
L 86.6 54.570438 
" style="fill:none;stroke:#1f77b4;stroke-linecap:square;stroke-width:1.5;"/>
    </g>
    <g id="line2d_19"/>
    <g id="text_18">
     <!-- Residual RL -->
     <g transform="translate(94.6 58.070438)scale(0.1 -0.1)">
      <use xlink:href="#DejaVuSans-82"/>
      <use x="64.982422" xlink:href="#DejaVuSans-101"/>
      <use x="126.505859" xlink:href="#DejaVuSans-115"/>
      <use x="178.605469" xlink:href="#DejaVuSans-105"/>
      <use x="206.388672" xlink:href="#DejaVuSans-100"/>
      <use x="269.865234" xlink:href="#DejaVuSans-117"/>
      <use x="333.244141" xlink:href="#DejaVuSans-97"/>
      <use x="394.523438" xlink:href="#DejaVuSans-108"/>
      <use x="422.306641" xlink:href="#DejaVuSans-32"/>
      <use x="454.09375" xlink:href="#DejaVuSans-82"/>
      <use x="523.576172" xlink:href="#DejaVuSans-76"/>
     </g>
    </g>
    <g id="line2d_20">
     <path d="M 66.6 69.248563 
L 86.6 69.248563 
" style="fill:none;stroke:#ff7f0e;stroke-linecap:square;stroke-width:1.5;"/>
    </g>
    <g id="line2d_21"/>
    <g id="text_19">
     <!-- Standard -->
     <g transform="translate(94.6 72.748563)scale(0.1 -0.1)">
      <use xlink:href="#DejaVuSans-83"/>
      <use x="63.476562" xlink:href="#DejaVuSans-116"/>
      <use x="102.685547" xlink:href="#DejaVuSans-97"/>
      <use x="163.964844" xlink:href="#DejaVuSans-110"/>
      <use x="227.34375" xlink:href="#DejaVuSans-100"/>
      <use x="290.820312" xlink:href="#DejaVuSans-97"/>
      <use x="352.099609" xlink:href="#DejaVuSans-114"/>
      <use x="391.462891" xlink:href="#DejaVuSans-100"/>
     </g>
    </g>
    <g id="line2d_22">
     <path d="M 66.6 83.926688 
L 86.6 83.926688 
" style="fill:none;stroke:#bf00bf;stroke-linecap:square;stroke-width:1.5;"/>
    </g>
    <g id="line2d_23"/>
    <g id="text_20">
     <!-- Baseline -->
     <g transform="translate(94.6 87.426688)scale(0.1 -0.1)">
      <use xlink:href="#DejaVuSans-66"/>
      <use x="68.603516" xlink:href="#DejaVuSans-97"/>
      <use x="129.882812" xlink:href="#DejaVuSans-115"/>
      <use x="181.982422" xlink:href="#DejaVuSans-101"/>
      <use x="243.505859" xlink:href="#DejaVuSans-108"/>
      <use x="271.289062" xlink:href="#DejaVuSans-105"/>
      <use x="299.072266" xlink:href="#DejaVuSans-110"/>
      <use x="362.451172" xlink:href="#DejaVuSans-101"/>
     </g>
    </g>
   </g>
  </g>
 </g>
 <defs>
  <clipPath id="pd1bfd3a9ad">
   <rect height="266.112" width="357.12" x="57.6" y="41.472"/>
  </clipPath>
 </defs>
</svg>
