<?xml version="1.0" encoding="utf-8" standalone="no"?>
<!DOCTYPE svg PUBLIC "-//W3C//DTD SVG 1.1//EN"
  "http://www.w3.org/Graphics/SVG/1.1/DTD/svg11.dtd">
<!-- Created with matplotlib (https://matplotlib.org/) -->
<svg height="345.6pt" version="1.1" viewBox="0 0 460.8 345.6" width="460.8pt" xmlns="http://www.w3.org/2000/svg" xmlns:xlink="http://www.w3.org/1999/xlink">
 <metadata>
  <rdf:RDF xmlns:cc="http://creativecommons.org/ns#" xmlns:dc="http://purl.org/dc/elements/1.1/" xmlns:rdf="http://www.w3.org/1999/02/22-rdf-syntax-ns#">
   <cc:Work>
    <dc:type rdf:resource="http://purl.org/dc/dcmitype/StillImage"/>
    <dc:date>2022-07-21T16:45:28.290082</dc:date>
    <dc:format>image/svg+xml</dc:format>
    <dc:creator>
     <cc:Agent>
      <dc:title>Matplotlib v3.3.4, https://matplotlib.org/</dc:title>
     </cc:Agent>
    </dc:creator>
   </cc:Work>
  </rdf:RDF>
 </metadata>
 <defs>
  <style type="text/css">*{stroke-linecap:butt;stroke-linejoin:round;}</style>
 </defs>
 <g id="figure_1">
  <g id="patch_1">
   <path d="M 0 345.6 
L 460.8 345.6 
L 460.8 0 
L 0 0 
z
" style="fill:#ffffff;"/>
  </g>
  <g id="axes_1">
   <g id="patch_2">
    <path d="M 57.6 307.584 
L 414.72 307.584 
L 414.72 41.472 
L 57.6 41.472 
z
" style="fill:#ffffff;"/>
   </g>
   <g id="matplotlib.axis_1">
    <g id="xtick_1">
     <g id="line2d_1">
      <defs>
       <path d="M 0 0 
L 0 3.5 
" id="mbb07092b2e" style="stroke:#000000;stroke-width:0.8;"/>
      </defs>
      <g>
       <use style="stroke:#000000;stroke-width:0.8;" x="73.832727" xlink:href="#mbb07092b2e" y="307.584"/>
      </g>
     </g>
     <g id="text_1">
      <!-- 0 -->
      <g transform="translate(70.651477 322.182437)scale(0.1 -0.1)">
       <defs>
        <path d="M 31.78125 66.40625 
Q 24.171875 66.40625 20.328125 58.90625 
Q 16.5 51.421875 16.5 36.375 
Q 16.5 21.390625 20.328125 13.890625 
Q 24.171875 6.390625 31.78125 6.390625 
Q 39.453125 6.390625 43.28125 13.890625 
Q 47.125 21.390625 47.125 36.375 
Q 47.125 51.421875 43.28125 58.90625 
Q 39.453125 66.40625 31.78125 66.40625 
z
M 31.78125 74.21875 
Q 44.046875 74.21875 50.515625 64.515625 
Q 56.984375 54.828125 56.984375 36.375 
Q 56.984375 17.96875 50.515625 8.265625 
Q 44.046875 -1.421875 31.78125 -1.421875 
Q 19.53125 -1.421875 13.0625 8.265625 
Q 6.59375 17.96875 6.59375 36.375 
Q 6.59375 54.828125 13.0625 64.515625 
Q 19.53125 74.21875 31.78125 74.21875 
z
" id="DejaVuSans-48"/>
       </defs>
       <use xlink:href="#DejaVuSans-48"/>
      </g>
     </g>
    </g>
    <g id="xtick_2">
     <g id="line2d_2">
      <g>
       <use style="stroke:#000000;stroke-width:0.8;" x="138.763636" xlink:href="#mbb07092b2e" y="307.584"/>
      </g>
     </g>
     <g id="text_2">
      <!-- 2000 -->
      <g transform="translate(126.038636 322.182437)scale(0.1 -0.1)">
       <defs>
        <path d="M 19.1875 8.296875 
L 53.609375 8.296875 
L 53.609375 0 
L 7.328125 0 
L 7.328125 8.296875 
Q 12.9375 14.109375 22.625 23.890625 
Q 32.328125 33.6875 34.8125 36.53125 
Q 39.546875 41.84375 41.421875 45.53125 
Q 43.3125 49.21875 43.3125 52.78125 
Q 43.3125 58.59375 39.234375 62.25 
Q 35.15625 65.921875 28.609375 65.921875 
Q 23.96875 65.921875 18.8125 64.3125 
Q 13.671875 62.703125 7.8125 59.421875 
L 7.8125 69.390625 
Q 13.765625 71.78125 18.9375 73 
Q 24.125 74.21875 28.421875 74.21875 
Q 39.75 74.21875 46.484375 68.546875 
Q 53.21875 62.890625 53.21875 53.421875 
Q 53.21875 48.921875 51.53125 44.890625 
Q 49.859375 40.875 45.40625 35.40625 
Q 44.1875 33.984375 37.640625 27.21875 
Q 31.109375 20.453125 19.1875 8.296875 
z
" id="DejaVuSans-50"/>
       </defs>
       <use xlink:href="#DejaVuSans-50"/>
       <use x="63.623047" xlink:href="#DejaVuSans-48"/>
       <use x="127.246094" xlink:href="#DejaVuSans-48"/>
       <use x="190.869141" xlink:href="#DejaVuSans-48"/>
      </g>
     </g>
    </g>
    <g id="xtick_3">
     <g id="line2d_3">
      <g>
       <use style="stroke:#000000;stroke-width:0.8;" x="203.694545" xlink:href="#mbb07092b2e" y="307.584"/>
      </g>
     </g>
     <g id="text_3">
      <!-- 4000 -->
      <g transform="translate(190.969545 322.182437)scale(0.1 -0.1)">
       <defs>
        <path d="M 37.796875 64.3125 
L 12.890625 25.390625 
L 37.796875 25.390625 
z
M 35.203125 72.90625 
L 47.609375 72.90625 
L 47.609375 25.390625 
L 58.015625 25.390625 
L 58.015625 17.1875 
L 47.609375 17.1875 
L 47.609375 0 
L 37.796875 0 
L 37.796875 17.1875 
L 4.890625 17.1875 
L 4.890625 26.703125 
z
" id="DejaVuSans-52"/>
       </defs>
       <use xlink:href="#DejaVuSans-52"/>
       <use x="63.623047" xlink:href="#DejaVuSans-48"/>
       <use x="127.246094" xlink:href="#DejaVuSans-48"/>
       <use x="190.869141" xlink:href="#DejaVuSans-48"/>
      </g>
     </g>
    </g>
    <g id="xtick_4">
     <g id="line2d_4">
      <g>
       <use style="stroke:#000000;stroke-width:0.8;" x="268.625455" xlink:href="#mbb07092b2e" y="307.584"/>
      </g>
     </g>
     <g id="text_4">
      <!-- 6000 -->
      <g transform="translate(255.900455 322.182437)scale(0.1 -0.1)">
       <defs>
        <path d="M 33.015625 40.375 
Q 26.375 40.375 22.484375 35.828125 
Q 18.609375 31.296875 18.609375 23.390625 
Q 18.609375 15.53125 22.484375 10.953125 
Q 26.375 6.390625 33.015625 6.390625 
Q 39.65625 6.390625 43.53125 10.953125 
Q 47.40625 15.53125 47.40625 23.390625 
Q 47.40625 31.296875 43.53125 35.828125 
Q 39.65625 40.375 33.015625 40.375 
z
M 52.59375 71.296875 
L 52.59375 62.3125 
Q 48.875 64.0625 45.09375 64.984375 
Q 41.3125 65.921875 37.59375 65.921875 
Q 27.828125 65.921875 22.671875 59.328125 
Q 17.53125 52.734375 16.796875 39.40625 
Q 19.671875 43.65625 24.015625 45.921875 
Q 28.375 48.1875 33.59375 48.1875 
Q 44.578125 48.1875 50.953125 41.515625 
Q 57.328125 34.859375 57.328125 23.390625 
Q 57.328125 12.15625 50.6875 5.359375 
Q 44.046875 -1.421875 33.015625 -1.421875 
Q 20.359375 -1.421875 13.671875 8.265625 
Q 6.984375 17.96875 6.984375 36.375 
Q 6.984375 53.65625 15.1875 63.9375 
Q 23.390625 74.21875 37.203125 74.21875 
Q 40.921875 74.21875 44.703125 73.484375 
Q 48.484375 72.75 52.59375 71.296875 
z
" id="DejaVuSans-54"/>
       </defs>
       <use xlink:href="#DejaVuSans-54"/>
       <use x="63.623047" xlink:href="#DejaVuSans-48"/>
       <use x="127.246094" xlink:href="#DejaVuSans-48"/>
       <use x="190.869141" xlink:href="#DejaVuSans-48"/>
      </g>
     </g>
    </g>
    <g id="xtick_5">
     <g id="line2d_5">
      <g>
       <use style="stroke:#000000;stroke-width:0.8;" x="333.556364" xlink:href="#mbb07092b2e" y="307.584"/>
      </g>
     </g>
     <g id="text_5">
      <!-- 8000 -->
      <g transform="translate(320.831364 322.182437)scale(0.1 -0.1)">
       <defs>
        <path d="M 31.78125 34.625 
Q 24.75 34.625 20.71875 30.859375 
Q 16.703125 27.09375 16.703125 20.515625 
Q 16.703125 13.921875 20.71875 10.15625 
Q 24.75 6.390625 31.78125 6.390625 
Q 38.8125 6.390625 42.859375 10.171875 
Q 46.921875 13.96875 46.921875 20.515625 
Q 46.921875 27.09375 42.890625 30.859375 
Q 38.875 34.625 31.78125 34.625 
z
M 21.921875 38.8125 
Q 15.578125 40.375 12.03125 44.71875 
Q 8.5 49.078125 8.5 55.328125 
Q 8.5 64.0625 14.71875 69.140625 
Q 20.953125 74.21875 31.78125 74.21875 
Q 42.671875 74.21875 48.875 69.140625 
Q 55.078125 64.0625 55.078125 55.328125 
Q 55.078125 49.078125 51.53125 44.71875 
Q 48 40.375 41.703125 38.8125 
Q 48.828125 37.15625 52.796875 32.3125 
Q 56.78125 27.484375 56.78125 20.515625 
Q 56.78125 9.90625 50.3125 4.234375 
Q 43.84375 -1.421875 31.78125 -1.421875 
Q 19.734375 -1.421875 13.25 4.234375 
Q 6.78125 9.90625 6.78125 20.515625 
Q 6.78125 27.484375 10.78125 32.3125 
Q 14.796875 37.15625 21.921875 38.8125 
z
M 18.3125 54.390625 
Q 18.3125 48.734375 21.84375 45.5625 
Q 25.390625 42.390625 31.78125 42.390625 
Q 38.140625 42.390625 41.71875 45.5625 
Q 45.3125 48.734375 45.3125 54.390625 
Q 45.3125 60.0625 41.71875 63.234375 
Q 38.140625 66.40625 31.78125 66.40625 
Q 25.390625 66.40625 21.84375 63.234375 
Q 18.3125 60.0625 18.3125 54.390625 
z
" id="DejaVuSans-56"/>
       </defs>
       <use xlink:href="#DejaVuSans-56"/>
       <use x="63.623047" xlink:href="#DejaVuSans-48"/>
       <use x="127.246094" xlink:href="#DejaVuSans-48"/>
       <use x="190.869141" xlink:href="#DejaVuSans-48"/>
      </g>
     </g>
    </g>
    <g id="xtick_6">
     <g id="line2d_6">
      <g>
       <use style="stroke:#000000;stroke-width:0.8;" x="398.487273" xlink:href="#mbb07092b2e" y="307.584"/>
      </g>
     </g>
     <g id="text_6">
      <!-- 10000 -->
      <g transform="translate(382.581023 322.182437)scale(0.1 -0.1)">
       <defs>
        <path d="M 12.40625 8.296875 
L 28.515625 8.296875 
L 28.515625 63.921875 
L 10.984375 60.40625 
L 10.984375 69.390625 
L 28.421875 72.90625 
L 38.28125 72.90625 
L 38.28125 8.296875 
L 54.390625 8.296875 
L 54.390625 0 
L 12.40625 0 
z
" id="DejaVuSans-49"/>
       </defs>
       <use xlink:href="#DejaVuSans-49"/>
       <use x="63.623047" xlink:href="#DejaVuSans-48"/>
       <use x="127.246094" xlink:href="#DejaVuSans-48"/>
       <use x="190.869141" xlink:href="#DejaVuSans-48"/>
       <use x="254.492188" xlink:href="#DejaVuSans-48"/>
      </g>
     </g>
    </g>
    <g id="text_7">
     <!-- Num-time-steps -->
     <g transform="translate(196.056094 335.860562)scale(0.1 -0.1)">
      <defs>
       <path d="M 9.8125 72.90625 
L 23.09375 72.90625 
L 55.421875 11.921875 
L 55.421875 72.90625 
L 64.984375 72.90625 
L 64.984375 0 
L 51.703125 0 
L 19.390625 60.984375 
L 19.390625 0 
L 9.8125 0 
z
" id="DejaVuSans-78"/>
       <path d="M 8.5 21.578125 
L 8.5 54.6875 
L 17.484375 54.6875 
L 17.484375 21.921875 
Q 17.484375 14.15625 20.5 10.265625 
Q 23.53125 6.390625 29.59375 6.390625 
Q 36.859375 6.390625 41.078125 11.03125 
Q 45.3125 15.671875 45.3125 23.6875 
L 45.3125 54.6875 
L 54.296875 54.6875 
L 54.296875 0 
L 45.3125 0 
L 45.3125 8.40625 
Q 42.046875 3.421875 37.71875 1 
Q 33.40625 -1.421875 27.6875 -1.421875 
Q 18.265625 -1.421875 13.375 4.4375 
Q 8.5 10.296875 8.5 21.578125 
z
M 31.109375 56 
z
" id="DejaVuSans-117"/>
       <path d="M 52 44.1875 
Q 55.375 50.25 60.0625 53.125 
Q 64.75 56 71.09375 56 
Q 79.640625 56 84.28125 50.015625 
Q 88.921875 44.046875 88.921875 33.015625 
L 88.921875 0 
L 79.890625 0 
L 79.890625 32.71875 
Q 79.890625 40.578125 77.09375 44.375 
Q 74.3125 48.1875 68.609375 48.1875 
Q 61.625 48.1875 57.5625 43.546875 
Q 53.515625 38.921875 53.515625 30.90625 
L 53.515625 0 
L 44.484375 0 
L 44.484375 32.71875 
Q 44.484375 40.625 41.703125 44.40625 
Q 38.921875 48.1875 33.109375 48.1875 
Q 26.21875 48.1875 22.15625 43.53125 
Q 18.109375 38.875 18.109375 30.90625 
L 18.109375 0 
L 9.078125 0 
L 9.078125 54.6875 
L 18.109375 54.6875 
L 18.109375 46.1875 
Q 21.1875 51.21875 25.484375 53.609375 
Q 29.78125 56 35.6875 56 
Q 41.65625 56 45.828125 52.96875 
Q 50 49.953125 52 44.1875 
z
" id="DejaVuSans-109"/>
       <path d="M 4.890625 31.390625 
L 31.203125 31.390625 
L 31.203125 23.390625 
L 4.890625 23.390625 
z
" id="DejaVuSans-45"/>
       <path d="M 18.3125 70.21875 
L 18.3125 54.6875 
L 36.8125 54.6875 
L 36.8125 47.703125 
L 18.3125 47.703125 
L 18.3125 18.015625 
Q 18.3125 11.328125 20.140625 9.421875 
Q 21.96875 7.515625 27.59375 7.515625 
L 36.8125 7.515625 
L 36.8125 0 
L 27.59375 0 
Q 17.1875 0 13.234375 3.875 
Q 9.28125 7.765625 9.28125 18.015625 
L 9.28125 47.703125 
L 2.6875 47.703125 
L 2.6875 54.6875 
L 9.28125 54.6875 
L 9.28125 70.21875 
z
" id="DejaVuSans-116"/>
       <path d="M 9.421875 54.6875 
L 18.40625 54.6875 
L 18.40625 0 
L 9.421875 0 
z
M 9.421875 75.984375 
L 18.40625 75.984375 
L 18.40625 64.59375 
L 9.421875 64.59375 
z
" id="DejaVuSans-105"/>
       <path d="M 56.203125 29.59375 
L 56.203125 25.203125 
L 14.890625 25.203125 
Q 15.484375 15.921875 20.484375 11.0625 
Q 25.484375 6.203125 34.421875 6.203125 
Q 39.59375 6.203125 44.453125 7.46875 
Q 49.3125 8.734375 54.109375 11.28125 
L 54.109375 2.78125 
Q 49.265625 0.734375 44.1875 -0.34375 
Q 39.109375 -1.421875 33.890625 -1.421875 
Q 20.796875 -1.421875 13.15625 6.1875 
Q 5.515625 13.8125 5.515625 26.8125 
Q 5.515625 40.234375 12.765625 48.109375 
Q 20.015625 56 32.328125 56 
Q 43.359375 56 49.78125 48.890625 
Q 56.203125 41.796875 56.203125 29.59375 
z
M 47.21875 32.234375 
Q 47.125 39.59375 43.09375 43.984375 
Q 39.0625 48.390625 32.421875 48.390625 
Q 24.90625 48.390625 20.390625 44.140625 
Q 15.875 39.890625 15.1875 32.171875 
z
" id="DejaVuSans-101"/>
       <path d="M 44.28125 53.078125 
L 44.28125 44.578125 
Q 40.484375 46.53125 36.375 47.5 
Q 32.28125 48.484375 27.875 48.484375 
Q 21.1875 48.484375 17.84375 46.4375 
Q 14.5 44.390625 14.5 40.28125 
Q 14.5 37.15625 16.890625 35.375 
Q 19.28125 33.59375 26.515625 31.984375 
L 29.59375 31.296875 
Q 39.15625 29.25 43.1875 25.515625 
Q 47.21875 21.78125 47.21875 15.09375 
Q 47.21875 7.46875 41.1875 3.015625 
Q 35.15625 -1.421875 24.609375 -1.421875 
Q 20.21875 -1.421875 15.453125 -0.5625 
Q 10.6875 0.296875 5.421875 2 
L 5.421875 11.28125 
Q 10.40625 8.6875 15.234375 7.390625 
Q 20.0625 6.109375 24.8125 6.109375 
Q 31.15625 6.109375 34.5625 8.28125 
Q 37.984375 10.453125 37.984375 14.40625 
Q 37.984375 18.0625 35.515625 20.015625 
Q 33.0625 21.96875 24.703125 23.78125 
L 21.578125 24.515625 
Q 13.234375 26.265625 9.515625 29.90625 
Q 5.8125 33.546875 5.8125 39.890625 
Q 5.8125 47.609375 11.28125 51.796875 
Q 16.75 56 26.8125 56 
Q 31.78125 56 36.171875 55.265625 
Q 40.578125 54.546875 44.28125 53.078125 
z
" id="DejaVuSans-115"/>
       <path d="M 18.109375 8.203125 
L 18.109375 -20.796875 
L 9.078125 -20.796875 
L 9.078125 54.6875 
L 18.109375 54.6875 
L 18.109375 46.390625 
Q 20.953125 51.265625 25.265625 53.625 
Q 29.59375 56 35.59375 56 
Q 45.5625 56 51.78125 48.09375 
Q 58.015625 40.1875 58.015625 27.296875 
Q 58.015625 14.40625 51.78125 6.484375 
Q 45.5625 -1.421875 35.59375 -1.421875 
Q 29.59375 -1.421875 25.265625 0.953125 
Q 20.953125 3.328125 18.109375 8.203125 
z
M 48.6875 27.296875 
Q 48.6875 37.203125 44.609375 42.84375 
Q 40.53125 48.484375 33.40625 48.484375 
Q 26.265625 48.484375 22.1875 42.84375 
Q 18.109375 37.203125 18.109375 27.296875 
Q 18.109375 17.390625 22.1875 11.75 
Q 26.265625 6.109375 33.40625 6.109375 
Q 40.53125 6.109375 44.609375 11.75 
Q 48.6875 17.390625 48.6875 27.296875 
z
" id="DejaVuSans-112"/>
      </defs>
      <use xlink:href="#DejaVuSans-78"/>
      <use x="74.804688" xlink:href="#DejaVuSans-117"/>
      <use x="138.183594" xlink:href="#DejaVuSans-109"/>
      <use x="235.595703" xlink:href="#DejaVuSans-45"/>
      <use x="271.679688" xlink:href="#DejaVuSans-116"/>
      <use x="310.888672" xlink:href="#DejaVuSans-105"/>
      <use x="338.671875" xlink:href="#DejaVuSans-109"/>
      <use x="436.083984" xlink:href="#DejaVuSans-101"/>
      <use x="497.607422" xlink:href="#DejaVuSans-45"/>
      <use x="533.691406" xlink:href="#DejaVuSans-115"/>
      <use x="585.791016" xlink:href="#DejaVuSans-116"/>
      <use x="625" xlink:href="#DejaVuSans-101"/>
      <use x="686.523438" xlink:href="#DejaVuSans-112"/>
      <use x="750" xlink:href="#DejaVuSans-115"/>
     </g>
    </g>
   </g>
   <g id="matplotlib.axis_2">
    <g id="ytick_1">
     <g id="line2d_7">
      <defs>
       <path d="M 0 0 
L -3.5 0 
" id="ma9ed5ba932" style="stroke:#000000;stroke-width:0.8;"/>
      </defs>
      <g>
       <use style="stroke:#000000;stroke-width:0.8;" x="57.6" xlink:href="#ma9ed5ba932" y="300.763995"/>
      </g>
     </g>
     <g id="text_8">
      <!-- 0.0 -->
      <g transform="translate(34.696875 304.563213)scale(0.1 -0.1)">
       <defs>
        <path d="M 10.6875 12.40625 
L 21 12.40625 
L 21 0 
L 10.6875 0 
z
" id="DejaVuSans-46"/>
       </defs>
       <use xlink:href="#DejaVuSans-48"/>
       <use x="63.623047" xlink:href="#DejaVuSans-46"/>
       <use x="95.410156" xlink:href="#DejaVuSans-48"/>
      </g>
     </g>
    </g>
    <g id="ytick_2">
     <g id="line2d_8">
      <g>
       <use style="stroke:#000000;stroke-width:0.8;" x="57.6" xlink:href="#ma9ed5ba932" y="248.080735"/>
      </g>
     </g>
     <g id="text_9">
      <!-- 0.2 -->
      <g transform="translate(34.696875 251.879953)scale(0.1 -0.1)">
       <use xlink:href="#DejaVuSans-48"/>
       <use x="63.623047" xlink:href="#DejaVuSans-46"/>
       <use x="95.410156" xlink:href="#DejaVuSans-50"/>
      </g>
     </g>
    </g>
    <g id="ytick_3">
     <g id="line2d_9">
      <g>
       <use style="stroke:#000000;stroke-width:0.8;" x="57.6" xlink:href="#ma9ed5ba932" y="195.397475"/>
      </g>
     </g>
     <g id="text_10">
      <!-- 0.4 -->
      <g transform="translate(34.696875 199.196694)scale(0.1 -0.1)">
       <use xlink:href="#DejaVuSans-48"/>
       <use x="63.623047" xlink:href="#DejaVuSans-46"/>
       <use x="95.410156" xlink:href="#DejaVuSans-52"/>
      </g>
     </g>
    </g>
    <g id="ytick_4">
     <g id="line2d_10">
      <g>
       <use style="stroke:#000000;stroke-width:0.8;" x="57.6" xlink:href="#ma9ed5ba932" y="142.714215"/>
      </g>
     </g>
     <g id="text_11">
      <!-- 0.6 -->
      <g transform="translate(34.696875 146.513434)scale(0.1 -0.1)">
       <use xlink:href="#DejaVuSans-48"/>
       <use x="63.623047" xlink:href="#DejaVuSans-46"/>
       <use x="95.410156" xlink:href="#DejaVuSans-54"/>
      </g>
     </g>
    </g>
    <g id="ytick_5">
     <g id="line2d_11">
      <g>
       <use style="stroke:#000000;stroke-width:0.8;" x="57.6" xlink:href="#ma9ed5ba932" y="90.030955"/>
      </g>
     </g>
     <g id="text_12">
      <!-- 0.8 -->
      <g transform="translate(34.696875 93.830174)scale(0.1 -0.1)">
       <use xlink:href="#DejaVuSans-48"/>
       <use x="63.623047" xlink:href="#DejaVuSans-46"/>
       <use x="95.410156" xlink:href="#DejaVuSans-56"/>
      </g>
     </g>
    </g>
    <g id="text_13">
     <!-- Obj-pose-error-norm -->
     <g transform="translate(28.617187 225.203781)rotate(-90)scale(0.1 -0.1)">
      <defs>
       <path d="M 39.40625 66.21875 
Q 28.65625 66.21875 22.328125 58.203125 
Q 16.015625 50.203125 16.015625 36.375 
Q 16.015625 22.609375 22.328125 14.59375 
Q 28.65625 6.59375 39.40625 6.59375 
Q 50.140625 6.59375 56.421875 14.59375 
Q 62.703125 22.609375 62.703125 36.375 
Q 62.703125 50.203125 56.421875 58.203125 
Q 50.140625 66.21875 39.40625 66.21875 
z
M 39.40625 74.21875 
Q 54.734375 74.21875 63.90625 63.9375 
Q 73.09375 53.65625 73.09375 36.375 
Q 73.09375 19.140625 63.90625 8.859375 
Q 54.734375 -1.421875 39.40625 -1.421875 
Q 24.03125 -1.421875 14.8125 8.828125 
Q 5.609375 19.09375 5.609375 36.375 
Q 5.609375 53.65625 14.8125 63.9375 
Q 24.03125 74.21875 39.40625 74.21875 
z
" id="DejaVuSans-79"/>
       <path d="M 48.6875 27.296875 
Q 48.6875 37.203125 44.609375 42.84375 
Q 40.53125 48.484375 33.40625 48.484375 
Q 26.265625 48.484375 22.1875 42.84375 
Q 18.109375 37.203125 18.109375 27.296875 
Q 18.109375 17.390625 22.1875 11.75 
Q 26.265625 6.109375 33.40625 6.109375 
Q 40.53125 6.109375 44.609375 11.75 
Q 48.6875 17.390625 48.6875 27.296875 
z
M 18.109375 46.390625 
Q 20.953125 51.265625 25.265625 53.625 
Q 29.59375 56 35.59375 56 
Q 45.5625 56 51.78125 48.09375 
Q 58.015625 40.1875 58.015625 27.296875 
Q 58.015625 14.40625 51.78125 6.484375 
Q 45.5625 -1.421875 35.59375 -1.421875 
Q 29.59375 -1.421875 25.265625 0.953125 
Q 20.953125 3.328125 18.109375 8.203125 
L 18.109375 0 
L 9.078125 0 
L 9.078125 75.984375 
L 18.109375 75.984375 
z
" id="DejaVuSans-98"/>
       <path d="M 9.421875 54.6875 
L 18.40625 54.6875 
L 18.40625 -0.984375 
Q 18.40625 -11.421875 14.421875 -16.109375 
Q 10.453125 -20.796875 1.609375 -20.796875 
L -1.8125 -20.796875 
L -1.8125 -13.1875 
L 0.59375 -13.1875 
Q 5.71875 -13.1875 7.5625 -10.8125 
Q 9.421875 -8.453125 9.421875 -0.984375 
z
M 9.421875 75.984375 
L 18.40625 75.984375 
L 18.40625 64.59375 
L 9.421875 64.59375 
z
" id="DejaVuSans-106"/>
       <path d="M 30.609375 48.390625 
Q 23.390625 48.390625 19.1875 42.75 
Q 14.984375 37.109375 14.984375 27.296875 
Q 14.984375 17.484375 19.15625 11.84375 
Q 23.34375 6.203125 30.609375 6.203125 
Q 37.796875 6.203125 41.984375 11.859375 
Q 46.1875 17.53125 46.1875 27.296875 
Q 46.1875 37.015625 41.984375 42.703125 
Q 37.796875 48.390625 30.609375 48.390625 
z
M 30.609375 56 
Q 42.328125 56 49.015625 48.375 
Q 55.71875 40.765625 55.71875 27.296875 
Q 55.71875 13.875 49.015625 6.21875 
Q 42.328125 -1.421875 30.609375 -1.421875 
Q 18.84375 -1.421875 12.171875 6.21875 
Q 5.515625 13.875 5.515625 27.296875 
Q 5.515625 40.765625 12.171875 48.375 
Q 18.84375 56 30.609375 56 
z
" id="DejaVuSans-111"/>
       <path d="M 41.109375 46.296875 
Q 39.59375 47.171875 37.8125 47.578125 
Q 36.03125 48 33.890625 48 
Q 26.265625 48 22.1875 43.046875 
Q 18.109375 38.09375 18.109375 28.8125 
L 18.109375 0 
L 9.078125 0 
L 9.078125 54.6875 
L 18.109375 54.6875 
L 18.109375 46.1875 
Q 20.953125 51.171875 25.484375 53.578125 
Q 30.03125 56 36.53125 56 
Q 37.453125 56 38.578125 55.875 
Q 39.703125 55.765625 41.0625 55.515625 
z
" id="DejaVuSans-114"/>
       <path d="M 54.890625 33.015625 
L 54.890625 0 
L 45.90625 0 
L 45.90625 32.71875 
Q 45.90625 40.484375 42.875 44.328125 
Q 39.84375 48.1875 33.796875 48.1875 
Q 26.515625 48.1875 22.3125 43.546875 
Q 18.109375 38.921875 18.109375 30.90625 
L 18.109375 0 
L 9.078125 0 
L 9.078125 54.6875 
L 18.109375 54.6875 
L 18.109375 46.1875 
Q 21.34375 51.125 25.703125 53.5625 
Q 30.078125 56 35.796875 56 
Q 45.21875 56 50.046875 50.171875 
Q 54.890625 44.34375 54.890625 33.015625 
z
" id="DejaVuSans-110"/>
      </defs>
      <use xlink:href="#DejaVuSans-79"/>
      <use x="78.710938" xlink:href="#DejaVuSans-98"/>
      <use x="142.1875" xlink:href="#DejaVuSans-106"/>
      <use x="169.970703" xlink:href="#DejaVuSans-45"/>
      <use x="206.054688" xlink:href="#DejaVuSans-112"/>
      <use x="269.53125" xlink:href="#DejaVuSans-111"/>
      <use x="330.712891" xlink:href="#DejaVuSans-115"/>
      <use x="382.8125" xlink:href="#DejaVuSans-101"/>
      <use x="444.335938" xlink:href="#DejaVuSans-45"/>
      <use x="480.419922" xlink:href="#DejaVuSans-101"/>
      <use x="541.943359" xlink:href="#DejaVuSans-114"/>
      <use x="581.306641" xlink:href="#DejaVuSans-114"/>
      <use x="620.169922" xlink:href="#DejaVuSans-111"/>
      <use x="681.351562" xlink:href="#DejaVuSans-114"/>
      <use x="716.089844" xlink:href="#DejaVuSans-45"/>
      <use x="752.173828" xlink:href="#DejaVuSans-110"/>
      <use x="815.552734" xlink:href="#DejaVuSans-111"/>
      <use x="876.734375" xlink:href="#DejaVuSans-114"/>
      <use x="916.097656" xlink:href="#DejaVuSans-109"/>
     </g>
    </g>
   </g>
   <g id="line2d_12">
    <path clip-path="url(#p41b5b15f17)" d="M 73.832727 295.330444 
L 73.865193 295.484661 
L 74.02752 285.445363 
L 74.287244 270.055597 
L 74.546967 293.963579 
L 74.611898 291.894173 
L 74.676829 284.974581 
L 74.74176 289.842948 
L 74.936553 292.71993 
L 75.001484 292.606534 
L 75.163811 290.939218 
L 77.793513 256.785476 
L 79.611578 238.576885 
L 80.747869 230.895372 
L 82.143884 224.794877 
L 82.5984 223.933694 
L 83.085382 222.884553 
L 83.604829 221.864757 
L 84.806051 220.83352 
L 85.293033 221.123763 
L 85.585222 221.114535 
L 85.747549 221.11055 
L 86.007273 221.538991 
L 86.656582 222.654055 
L 87.338356 222.795316 
L 88.247389 223.691595 
L 88.636975 223.63409 
L 88.961629 223.670976 
L 89.188887 224.003775 
L 89.643404 224.807898 
L 89.935593 224.811486 
L 90.422575 224.744199 
L 90.909556 224.962669 
L 91.753658 225.059375 
L 92.922415 224.412086 
L 93.798982 224.206137 
L 94.38336 224.183863 
L 94.643084 223.955258 
L 95.779375 222.621408 
L 96.591011 222.020066 
L 98.344145 220.178007 
L 99.058385 220.150789 
L 100.779055 219.586623 
L 101.558225 220.018359 
L 102.110138 220.371229 
L 102.369862 220.2986 
L 102.662051 220.329473 
L 102.921775 220.332322 
L 103.863273 220.290097 
L 104.38272 220.262077 
L 105.226822 220.598968 
L 106.005993 220.500006 
L 107.012422 220.808393 
L 107.304611 220.972151 
L 107.921455 221.127674 
L 108.181178 221.2907 
L 108.570764 221.299409 
L 108.927884 221.354418 
L 109.220073 221.100731 
L 109.642124 220.615166 
L 110.09664 220.566792 
L 110.486225 220.610641 
L 111.103069 220.284143 
L 111.492655 219.611768 
L 112.693876 217.267859 
L 112.823738 217.310105 
L 113.343185 218.08828 
L 113.408116 218.019084 
L 113.570444 217.808448 
L 114.317149 216.428938 
L 114.609338 216.439614 
L 114.998924 216.297892 
L 115.550836 215.803866 
L 115.940422 215.950734 
L 116.265076 215.653676 
L 117.336436 213.693052 
L 118.440262 213.004208 
L 119.544087 211.107107 
L 120.258327 211.189735 
L 120.647913 210.769592 
L 121.102429 210.278968 
L 121.686807 210.03511 
L 122.563375 208.705212 
L 123.991855 206.979591 
L 124.089251 206.927266 
L 124.576233 206.390478 
L 125.063215 206.141495 
L 126.102109 206.942392 
L 126.231971 206.913829 
L 127.498124 206.102166 
L 128.050036 206.634945 
L 128.277295 206.600353 
L 128.537018 206.327543 
L 128.764276 206.175785 
L 129.056465 206.183343 
L 129.543447 206.337987 
L 129.965498 206.335073 
L 130.614807 206.409775 
L 130.939462 206.212019 
L 131.329047 205.829426 
L 131.361513 205.859798 
L 131.653702 206.235699 
L 132.108218 206.877315 
L 132.335476 206.659567 
L 133.276975 205.591819 
L 133.439302 205.67054 
L 133.828887 206.631234 
L 134.153542 207.114432 
L 134.283404 207.07406 
L 134.73792 206.583252 
L 135.582022 206.271742 
L 135.874211 206.165106 
L 137.107898 206.668666 
L 137.692276 207.121826 
L 138.049396 207.183776 
L 138.374051 206.796454 
L 138.601309 206.642006 
L 138.893498 206.537126 
L 139.185687 206.682618 
L 139.542807 206.748316 
L 139.770065 206.770637 
L 140.257047 206.758374 
L 140.614167 206.974225 
L 140.938822 207.20319 
L 141.360873 207.496948 
L 141.588131 207.500301 
L 141.912785 207.257577 
L 142.140044 207.128429 
L 142.562095 207.27196 
L 143.146473 207.3582 
L 144.185367 208.343187 
L 144.867142 208.165544 
L 145.386589 208.275903 
L 145.646313 208.753623 
L 146.16576 209.835636 
L 146.457949 210.0053 
L 146.587811 210.014549 
L 147.399447 210.599399 
L 147.983825 210.628524 
L 148.925324 211.919155 
L 149.152582 211.957227 
L 149.282444 211.992458 
L 149.509702 212.363294 
L 150.061615 213.145354 
L 150.775855 213.196038 
L 150.938182 213.178946 
L 151.295302 213.713123 
L 151.684887 214.443652 
L 151.912145 214.504627 
L 152.334196 214.38353 
L 152.691316 214.211572 
L 153.015971 214.70436 
L 154.054865 216.465908 
L 154.801571 217.26088 
L 155.353484 217.200678 
L 156.230051 217.946071 
L 156.489775 218.236422 
L 157.041687 218.900634 
L 157.23648 218.827906 
L 157.463738 218.77567 
L 157.723462 219.040079 
L 158.080582 219.914359 
L 158.372771 220.539318 
L 158.567564 220.624137 
L 158.762356 220.726369 
L 159.184407 221.235328 
L 159.3792 221.437166 
L 160.028509 221.928044 
L 160.483025 222.635858 
L 161.392058 224.027892 
L 161.651782 224.039311 
L 161.781644 224.100104 
L 162.203695 224.616094 
L 162.755607 225.251156 
L 163.015331 225.257451 
L 163.242589 225.6387 
L 163.956829 227.413422 
L 164.281484 227.596912 
L 164.573673 227.581899 
L 164.865862 227.892301 
L 165.255447 228.41282 
L 166.326807 229.341518 
L 167.008582 229.862615 
L 167.268305 230.680729 
L 167.690356 232.00751 
L 167.95008 232.235174 
L 168.3072 232.22503 
L 168.501993 232.362513 
L 169.313629 233.646087 
L 169.670749 234.099899 
L 170.287593 235.132013 
L 170.871971 235.781654 
L 171.131695 235.96015 
L 171.716073 236.154046 
L 172.040727 236.493688 
L 173.274415 237.682074 
L 173.728931 238.091171 
L 173.923724 238.190383 
L 174.767825 238.744994 
L 175.027549 238.916745 
L 175.482065 239.383374 
L 175.839185 239.603853 
L 176.715753 240.569142 
L 176.87808 240.455608 
L 177.332596 239.951468 
L 177.916975 240.086178 
L 178.274095 240.589171 
L 178.66368 241.334137 
L 179.053265 242.107847 
L 179.410385 242.299747 
L 179.767505 242.007871 
L 180.514211 241.2974 
L 180.676538 241.301072 
L 180.968727 241.801473 
L 181.488175 242.689793 
L 181.780364 242.748614 
L 183.436102 242.214792 
L 183.923084 243.040846 
L 184.507462 243.969924 
L 184.73472 244.021383 
L 184.961978 243.811391 
L 185.481425 243.14146 
L 185.676218 243.422329 
L 186.065804 244.461171 
L 186.52032 245.720194 
L 186.715113 245.824816 
L 186.909905 245.544463 
L 187.299491 244.706087 
L 187.331956 244.720005 
L 187.526749 244.969337 
L 188.078662 245.989468 
L 188.273455 246.018171 
L 188.66304 245.936539 
L 189.572073 246.16348 
L 190.026589 246.539654 
L 190.546036 247.353425 
L 190.773295 247.597241 
L 190.903156 247.525012 
L 191.584931 247.204097 
L 191.87712 247.156693 
L 192.656291 248.160318 
L 192.721222 248.096605 
L 193.143273 247.461423 
L 193.370531 247.205506 
L 194.247098 248.061255 
L 194.669149 248.139505 
L 195.026269 247.605134 
L 195.253527 247.317971 
L 195.740509 247.920582 
L 195.870371 248.305097 
L 196.292422 249.50787 
L 196.844335 249.321206 
L 197.266385 248.803638 
L 197.883229 249.862956 
L 198.272815 250.451472 
L 198.597469 250.275512 
L 198.857193 249.913219 
L 199.181847 249.677938 
L 199.474036 249.854209 
L 199.798691 250.345272 
L 200.220742 251.304029 
L 200.350604 251.223383 
L 200.577862 250.657502 
L 200.934982 249.792428 
L 201.097309 249.749175 
L 202.071273 250.83683 
L 202.2336 250.715455 
L 202.395927 250.479597 
L 203.012771 248.874952 
L 203.175098 248.95395 
L 203.369891 249.094075 
L 203.564684 249.284402 
L 204.051665 250.140624 
L 204.116596 250.102107 
L 204.473716 249.686371 
L 204.73344 248.982117 
L 205.09056 248.16067 
L 205.123025 248.180436 
L 205.610007 248.991285 
L 205.8048 249.036434 
L 206.16192 249.011771 
L 206.421644 248.73734 
L 207.103418 247.95968 
L 207.5904 247.73994 
L 207.915055 247.6647 
L 208.337105 247.532324 
L 208.791622 247.053122 
L 209.376 246.387971 
L 209.895447 246.07016 
L 210.414895 245.722291 
L 210.966807 245.134797 
L 211.258996 244.967043 
L 212.103098 245.034625 
L 212.492684 244.713546 
L 213.434182 243.804102 
L 214.115956 243.242624 
L 214.797731 242.640125 
L 215.869091 242.191185 
L 216.713193 241.412744 
L 219.635084 239.83969 
L 220.057135 239.501933 
L 221.615476 238.7475 
L 222.069993 238.434529 
L 223.952989 237.830862 
L 226.387898 236.422289 
L 226.745018 236.361004 
L 227.394327 236.260133 
L 228.368291 236.2881 
L 229.212393 236.18109 
L 229.504582 236.223196 
L 230.024029 236.27656 
L 230.575942 236.089521 
L 231.51744 235.842287 
L 231.907025 235.902407 
L 232.426473 235.87276 
L 232.913455 235.889616 
L 233.140713 235.881466 
L 234.01728 235.70491 
L 235.023709 235.593043 
L 235.283433 235.574073 
L 236.030138 235.228996 
L 236.51712 235.206795 
L 236.679447 235.190852 
L 237.004102 235.296188 
L 237.393687 235.223072 
L 238.367651 234.666822 
L 238.919564 235.051439 
L 239.179287 234.971689 
L 239.828596 234.487804 
L 239.990924 234.584596 
L 240.218182 234.58688 
L 240.705164 234.469918 
L 240.964887 234.308563 
L 241.354473 234.269412 
L 241.679127 234.344194 
L 241.841455 234.354297 
L 242.328436 234.469865 
L 242.718022 234.371524 
L 243.432262 234.184132 
L 243.789382 234.677245 
L 243.919244 234.673667 
L 244.211433 234.511639 
L 245.315258 234.55533 
L 245.574982 234.496591 
L 245.834705 234.764363 
L 246.126895 235.036852 
L 246.51648 234.892709 
L 246.743738 234.787114 
L 247.035927 234.535432 
L 247.23072 234.25155 
L 247.263185 234.274236 
L 247.522909 234.460363 
L 248.074822 234.966062 
L 248.431942 234.615918 
L 248.756596 234.510001 
L 248.951389 234.44965 
L 249.438371 234.522154 
L 249.600698 234.734805 
L 250.120145 235.030374 
L 250.4448 234.892822 
L 250.639593 234.808511 
L 250.866851 234.860462 
L 251.061644 235.096395 
L 251.191505 235.131309 
L 251.418764 235.244139 
L 251.775884 235.256757 
L 251.938211 235.274484 
L 252.814778 235.880435 
L 253.042036 235.925015 
L 253.399156 235.93474 
L 253.691345 235.961847 
L 253.918604 235.992001 
L 254.016 236.034472 
L 254.048465 235.981875 
L 254.827636 236.176508 
L 254.925033 236.252604 
L 254.957498 236.222256 
L 255.44448 236.032087 
L 255.8016 236.096084 
L 255.996393 236.181479 
L 256.256116 236.165856 
L 257.457338 236.01215 
L 257.749527 236.059438 
L 258.106647 236.026294 
L 258.268975 236.02826 
L 258.463767 235.967133 
L 258.755956 236.007949 
L 258.820887 235.983864 
L 258.853353 236.022377 
L 258.983215 236.017402 
L 260.541556 235.885241 
L 260.963607 235.825433 
L 261.1584 235.795412 
L 262.197295 235.534991 
L 262.521949 235.418851 
L 262.716742 235.46578 
L 262.911535 235.453899 
L 263.268655 235.373363 
L 263.398516 235.380339 
L 263.788102 235.333031 
L 264.210153 235.228892 
L 264.340015 235.184721 
L 264.826996 234.952283 
L 265.021789 234.852628 
L 268.203404 235.837385 
L 268.722851 235.81581 
L 269.37216 235.722003 
L 269.631884 235.576109 
L 271.060364 235.294337 
L 271.222691 235.281995 
L 271.352553 235.305788 
L 271.579811 235.333501 
L 272.391447 235.32764 
L 272.58624 235.272131 
L 274.047185 235.016984 
L 274.241978 235.014149 
L 274.404305 234.945234 
L 274.534167 234.88951 
L 274.631564 234.873482 
L 274.858822 234.845946 
L 275.08608 234.794267 
L 275.313338 234.633489 
L 275.897716 234.78165 
L 276.15744 234.702131 
L 276.352233 234.686735 
L 276.87168 234.751988 
L 277.066473 234.675914 
L 277.293731 234.651619 
L 277.423593 234.58045 
L 278.754676 234.058612 
L 279.274124 233.715333 
L 279.988364 233.2962 
L 280.150691 233.270055 
L 280.8 232.921648 
L 280.929862 232.881704 
L 281.15712 232.817989 
L 281.286982 232.78196 
L 281.51424 232.833693 
L 281.773964 232.581049 
L 282.131084 232.675732 
L 282.196015 232.70732 
L 282.22848 232.647816 
L 282.520669 232.502115 
L 282.747927 232.513752 
L 283.072582 232.445982 
L 283.202444 232.544378 
L 283.234909 232.518526 
L 283.527098 232.372888 
L 283.786822 232.228504 
L 284.01408 232.096888 
L 284.3712 232.145057 
L 284.955578 231.887799 
L 285.117905 231.923225 
L 285.312698 231.81722 
L 285.507491 231.77376 
L 286.059404 231.821965 
L 286.384058 231.971075 
L 286.773644 231.763819 
L 287.163229 231.681764 
L 287.325556 231.6775 
L 287.877469 231.549117 
L 288.169658 231.508653 
L 288.396916 231.454719 
L 288.591709 231.446949 
L 288.883898 231.358899 
L 289.176087 231.208518 
L 289.305949 231.231998 
L 289.857862 230.957904 
L 290.734429 229.742201 
L 291.059084 229.510871 
L 291.221411 229.497952 
L 291.740858 229.568816 
L 292.390167 229.979438 
L 293.721251 231.480309 
L 294.240698 231.708196 
L 294.338095 231.821023 
L 294.532887 232.077581 
L 294.922473 232.77775 
L 295.539316 234.308011 
L 295.734109 234.593219 
L 295.79904 234.757643 
L 295.928902 235.451037 
L 296.091229 235.778279 
L 296.318487 235.417659 
L 296.350953 235.452921 
L 296.610676 235.38449 
L 296.740538 235.36535 
L 297.000262 235.549089 
L 297.292451 235.811446 
L 297.422313 235.854179 
L 297.454778 235.815289 
L 299.142982 236.303625 
L 299.207913 236.346328 
L 299.240378 236.290069 
L 299.500102 236.236996 
L 300.214342 236.464744 
L 300.409135 236.409826 
L 300.538996 236.353358 
L 301.025978 236.586385 
L 301.058444 236.463972 
L 301.123375 236.549832 
L 301.902545 236.989492 
L 302.649251 237.609201 
L 302.876509 237.677504 
L 303.363491 237.861336 
L 303.493353 237.923305 
L 303.818007 238.21646 
L 304.434851 238.490758 
L 304.791971 238.620036 
L 305.08416 238.682879 
L 305.214022 238.689364 
L 305.603607 238.877496 
L 306.317847 238.889357 
L 307.454138 239.28447 
L 307.843724 239.551654 
L 308.070982 239.580348 
L 308.817687 239.813783 
L 309.077411 239.262631 
L 309.207273 239.274781 
L 309.759185 239.578331 
L 310.018909 239.651736 
L 310.116305 239.523494 
L 310.343564 239.358776 
L 310.603287 239.277922 
L 310.830545 239.019259 
L 311.025338 239.083353 
L 311.609716 238.910807 
L 312.843404 238.446429 
L 313.005731 238.373551 
L 313.427782 238.273009 
L 314.271884 237.918274 
L 314.434211 237.925394 
L 314.758865 238.050942 
L 314.986124 238.31913 
L 315.213382 238.244605 
L 315.505571 238.093872 
L 315.830225 237.97548 
L 316.349673 237.726671 
L 316.706793 237.823904 
L 316.771724 237.878237 
L 316.804189 237.839108 
L 317.096378 237.58692 
L 317.128844 237.63967 
L 317.258705 237.757222 
L 317.291171 237.567997 
L 317.356102 237.659403 
L 317.648291 237.817141 
L 317.810618 237.836819 
L 318.102807 237.718436 
L 318.622255 236.681243 
L 321.316887 230.685556 
L 321.51168 230.686322 
L 321.8688 230.991131 
L 322.160989 231.110532 
L 322.58304 230.991995 
L 323.264815 230.1432 
L 323.459607 229.947284 
L 323.492073 229.969902 
L 324.01152 230.309098 
L 324.498502 230.588968 
L 325.017949 230.609691 
L 325.342604 230.648471 
L 325.602327 230.743388 
L 325.862051 230.237291 
L 326.121775 229.908554 
L 327.2256 227.654487 
L 327.322996 227.589722 
L 327.972305 226.406769 
L 328.102167 226.345905 
L 328.329425 225.802154 
L 328.394356 225.677109 
L 328.556684 225.184536 
L 329.205993 223.759264 
L 329.660509 221.98924 
L 330.472145 217.09176 
L 331.575971 209.280794 
L 331.803229 207.154799 
L 332.127884 202.23271 
L 332.744727 191.647095 
L 333.264175 180.803979 
L 333.945949 167.061845 
L 334.595258 156.124556 
L 335.634153 142.176051 
L 336.478255 136.658007 
L 336.770444 135.614235 
L 338.101527 128.402496 
L 338.523578 124.831772 
L 339.36768 118.433149 
L 340.114385 114.114202 
L 341.15328 108.925378 
L 342.841484 101.126793 
L 344.075171 97.698633 
L 344.984204 95.247855 
L 345.828305 92.47438 
L 346.185425 91.748961 
L 346.217891 91.925458 
L 346.282822 91.891877 
L 346.445149 91.608259 
L 346.477615 91.717969 
L 346.51008 91.583529 
L 346.737338 91.057176 
L 346.834735 91.224488 
L 346.8672 91.124909 
L 346.932131 91.30592 
L 346.964596 91.108411 
L 348.6528 84.197026 
L 349.074851 83.543185 
L 349.464436 82.750929 
L 351.185105 78.944239 
L 351.379898 78.553914 
L 352.061673 75.882961 
L 353.068102 71.580727 
L 353.392756 71.040881 
L 353.65248 70.569226 
L 354.139462 69.508088 
L 354.529047 68.099522 
L 355.470545 64.239735 
L 356.379578 61.55423 
L 356.899025 59.922028 
L 357.645731 57.647225 
L 358.100247 56.572748 
L 358.554764 55.907003 
L 359.171607 54.858612 
L 359.398865 54.626098 
L 359.885847 54.186402 
L 360.340364 54.249825 
L 360.43776 54.284765 
L 360.567622 54.134609 
L 360.665018 54.085696 
L 360.859811 53.877233 
L 361.152 53.642989 
L 361.379258 53.63773 
L 361.931171 53.614142 
L 362.158429 53.591826 
L 362.288291 53.715909 
L 362.872669 54.625903 
L 363.814167 56.126675 
L 364.00896 56.275943 
L 364.593338 57.361613 
L 365.762095 61.970296 
L 366.833455 68.930975 
L 367.385367 71.971955 
L 368.197004 75.399437 
L 368.326865 75.408933 
L 368.456727 75.128693 
L 368.619055 74.26057 
L 368.683985 74.433619 
L 368.911244 75.579581 
L 369.852742 80.724084 
L 370.664378 84.937548 
L 371.183825 89.501448 
L 373.131753 109.406259 
L 374.657629 127.511089 
L 376.475695 156.891205 
L 376.735418 159.449414 
L 378.456087 182.251494 
L 378.845673 188.156932 
L 380.663738 207.061087 
L 380.988393 209.75855 
L 381.410444 212.5544 
L 381.637702 212.859505 
L 381.929891 212.971749 
L 382.157149 212.868781 
L 382.416873 213.215182 
L 382.546735 213.267239 
L 382.644131 213.328331 
L 382.676596 213.300872 
L 383.033716 213.280351 
L 383.163578 213.346555 
L 383.29344 213.209247 
L 384.624524 210.09727 
L 385.014109 209.175649 
L 385.955607 208.099427 
L 386.117935 208.222582 
L 386.475055 208.891711 
L 386.604916 208.028363 
L 387.546415 201.48559 
L 388.130793 198.974243 
L 388.780102 197.259049 
L 389.202153 196.629905 
L 389.754065 196.321989 
L 390.013789 196.381998 
L 390.241047 196.3749 
L 390.370909 196.382425 
L 391.377338 197.649452 
L 391.766924 197.928711 
L 392.22144 198.818103 
L 392.805818 200.235466 
L 393.2928 200.947411 
L 393.779782 201.168126 
L 394.429091 201.024469 
L 395.467985 199.78939 
L 396.377018 197.989796 
L 396.928931 196.827651 
L 397.123724 196.66798 
L 398.357411 194.478055 
L 398.487273 194.343803 
L 398.487273 194.343803 
" style="fill:none;stroke:#1f77b4;stroke-linecap:square;stroke-width:1.5;"/>
   </g>
   <g id="line2d_13">
    <path clip-path="url(#p41b5b15f17)" d="M 73.832727 289.555802 
L 73.930124 287.60122 
L 73.995055 288.58742 
L 74.02752 288.768485 
L 74.059985 288.547726 
L 74.092451 287.487906 
L 74.157382 287.89808 
L 74.482036 288.986925 
L 74.579433 288.913458 
L 74.709295 288.22098 
L 74.904087 285.653939 
L 75.81312 270.445138 
L 75.942982 269.916027 
L 76.007913 270.144572 
L 76.300102 273.110535 
L 76.559825 277.57693 
L 76.624756 277.085427 
L 78.507753 269.209967 
L 83.085382 245.456702 
L 83.31264 244.690363 
L 84.351535 241.385123 
L 84.513862 241.042701 
L 84.870982 240.390818 
L 85.585222 239.538045 
L 86.104669 238.194749 
L 86.429324 237.21946 
L 86.721513 236.84838 
L 87.24096 236.66321 
L 87.792873 235.630794 
L 87.922735 235.64209 
L 88.507113 234.751152 
L 88.799302 234.312248 
L 89.318749 233.71565 
L 89.38368 233.754728 
L 89.416145 233.699707 
L 89.546007 233.508365 
L 89.903127 232.951696 
L 90.552436 232.213223 
L 90.649833 232.133313 
L 90.81216 231.964404 
L 91.461469 231.802821 
L 92.402967 232.120595 
L 92.727622 232.03069 
L 93.052276 231.924932 
L 93.441862 231.829491 
L 93.604189 231.86315 
L 93.734051 231.833552 
L 93.928844 231.737904 
L 94.123636 231.699563 
L 94.350895 231.495325 
L 94.480756 231.426545 
L 94.708015 231.375839 
L 94.805411 231.414119 
L 94.967738 231.488652 
L 95.227462 231.363945 
L 95.389789 231.299841 
L 95.584582 231.1443 
L 95.617047 231.200296 
L 95.779375 231.293315 
L 96.493615 231.118315 
L 96.720873 231.354456 
L 97.110458 231.553828 
L 98.051956 231.38039 
L 98.214284 231.473512 
L 98.376611 231.426438 
L 99.090851 231.555896 
L 99.415505 231.429758 
L 99.675229 231.477211 
L 99.934953 231.305585 
L 100.292073 230.863872 
L 100.421935 230.747868 
L 100.551796 230.637608 
L 100.584262 230.66542 
L 100.681658 230.727201 
L 101.395898 231.093741 
L 101.915345 230.962943 
L 102.012742 231.068351 
L 102.045207 231.047857 
L 102.337396 231.206858 
L 102.629585 231.339876 
L 102.856844 231.276056 
L 102.95424 231.286748 
L 102.986705 231.231148 
L 103.246429 231.011082 
L 103.571084 230.771861 
L 103.765876 230.726718 
L 103.895738 230.74365 
L 104.155462 230.853155 
L 104.350255 230.880539 
L 104.577513 231.028904 
L 104.609978 230.995057 
L 104.804771 230.980356 
L 105.161891 231.074793 
L 105.551476 231.273313 
L 105.8112 231.303451 
L 105.973527 231.327644 
L 106.298182 231.046409 
L 106.850095 230.033661 
L 107.174749 229.80543 
L 107.402007 229.852928 
L 107.726662 230.103588 
L 107.888989 230.133193 
L 108.018851 230.088813 
L 108.181178 230.155378 
L 108.343505 230.108558 
L 108.538298 229.90142 
L 108.960349 229.135853 
L 109.187607 228.889213 
L 109.285004 228.879246 
L 109.609658 229.333638 
L 110.486225 230.812944 
L 110.648553 230.766897 
L 110.81088 230.550656 
L 111.427724 229.420587 
L 111.784844 229.721482 
L 112.59648 231.133654 
L 112.758807 231.049693 
L 113.115927 230.357591 
L 113.602909 229.06839 
L 113.765236 229.010131 
L 114.187287 229.900154 
L 114.609338 230.922096 
L 114.771665 230.947158 
L 114.966458 230.867435 
L 115.193716 230.739507 
L 115.323578 230.528992 
L 116.037818 228.970448 
L 116.102749 229.00509 
L 116.297542 229.203748 
L 116.784524 230.237451 
L 117.076713 230.782286 
L 117.368902 230.745342 
L 118.083142 229.943534 
L 118.245469 229.984008 
L 118.505193 230.164135 
L 118.862313 230.54525 
L 119.251898 230.858316 
L 119.576553 230.720358 
L 119.836276 229.942076 
L 120.258327 228.808805 
L 120.485585 228.704282 
L 120.81024 228.891205 
L 121.297222 229.059109 
L 121.556945 228.938561 
L 121.946531 228.34019 
L 122.368582 227.783511 
L 122.660771 227.721224 
L 123.439942 227.940511 
L 123.991855 227.811766 
L 124.284044 227.85123 
L 124.803491 227.670473 
L 125.225542 227.543173 
L 125.777455 226.92663 
L 126.102109 226.68278 
L 126.556625 226.881802 
L 127.205935 227.570727 
L 127.2384 227.541792 
L 127.465658 227.261288 
L 128.342225 225.804133 
L 128.731811 225.680131 
L 129.056465 225.64623 
L 129.316189 225.526237 
L 131.329047 224.545862 
L 132.562735 223.770589 
L 133.731491 223.280394 
L 134.121076 222.90828 
L 134.608058 222.327106 
L 134.835316 222.325238 
L 135.127505 222.28804 
L 136.1664 221.943632 
L 136.653382 221.214793 
L 137.172829 220.527861 
L 137.432553 220.450767 
L 138.471447 220.311653 
L 138.925964 219.964413 
L 139.348015 219.708772 
L 140.906356 219.17259 
L 142.919215 218.399146 
L 143.341265 218.129392 
L 143.828247 218.120495 
L 144.250298 218.221317 
L 144.574953 217.998869 
L 145.061935 217.620525 
L 145.80864 217.567044 
L 146.393018 217.699345 
L 147.269585 218.118481 
L 148.113687 217.759353 
L 148.503273 217.53598 
L 149.120116 217.033471 
L 149.412305 217.044192 
L 149.996684 217.128887 
L 150.905716 216.876369 
L 151.327767 216.983734 
L 151.977076 217.242127 
L 152.983505 217.171632 
L 153.600349 217.264082 
L 154.541847 217.600617 
L 155.158691 217.91699 
L 155.418415 217.996635 
L 156.424844 217.829456 
L 156.717033 217.901461 
L 157.788393 218.866158 
L 159.996044 219.429645 
L 160.742749 219.346632 
L 161.781644 219.818307 
L 162.398487 219.910043 
L 163.047796 219.896849 
L 163.567244 219.843778 
L 164.995724 219.917053 
L 165.677498 220.176294 
L 166.326807 220.087295 
L 167.105978 220.414327 
L 167.463098 220.678278 
L 168.209804 220.747508 
L 168.501993 220.970265 
L 169.118836 221.471453 
L 169.443491 221.587908 
L 169.898007 221.825331 
L 170.677178 221.801412 
L 171.651142 221.518165 
L 171.943331 221.60026 
L 172.267985 221.876298 
L 172.884829 222.559492 
L 175.189876 223.192936 
L 175.80672 223.592738 
L 176.845615 223.628041 
L 177.494924 223.879201 
L 177.884509 223.9323 
L 178.30656 224.378595 
L 178.631215 224.654613 
L 179.475316 224.854099 
L 180.286953 225.730612 
L 180.838865 225.819296 
L 181.423244 226.421218 
L 182.105018 227.116459 
L 183.241309 227.683985 
L 183.858153 228.065396 
L 184.280204 228.124711 
L 185.059375 228.795052 
L 185.546356 229.054219 
L 185.968407 229.311728 
L 187.364422 229.853716 
L 188.565644 230.797292 
L 189.539607 230.689756 
L 190.156451 230.930224 
L 190.610967 231.021722 
L 191.682327 230.935458 
L 192.039447 230.902379 
L 192.623825 231.531057 
L 193.110807 232.019631 
L 193.402996 232.07394 
L 193.695185 231.894651 
L 194.084771 231.567728 
L 194.279564 231.610595 
L 194.799011 231.957364 
L 195.123665 232.171908 
L 195.350924 232.092759 
L 196.097629 231.654164 
L 196.682007 231.524424 
L 196.909265 231.518586 
L 197.396247 231.776916 
L 197.720902 231.825642 
L 198.110487 231.762289 
L 198.759796 231.622028 
L 199.149382 231.609209 
L 199.798691 231.833962 
L 200.480465 231.826612 
L 200.934982 232.004887 
L 201.324567 232.202818 
L 202.006342 232.189377 
L 202.623185 232.104772 
L 203.337425 232.523169 
L 203.889338 232.625277 
L 204.571113 232.844625 
L 205.285353 233.221464 
L 206.389178 233.765025 
L 206.713833 233.811308 
L 207.135884 233.852064 
L 207.687796 233.790686 
L 208.207244 233.839358 
L 208.856553 234.031762 
L 209.376 233.841463 
L 211.129135 234.182775 
L 211.908305 234.303905 
L 212.492684 234.384267 
L 212.719942 234.43627 
L 213.044596 234.670431 
L 213.466647 234.964671 
L 214.115956 235.14853 
L 214.505542 235.513277 
L 214.667869 235.518262 
L 215.122385 235.410151 
L 215.349644 235.704289 
L 215.674298 236.368913 
L 216.063884 236.954724 
L 216.388538 237.146335 
L 216.810589 237.215491 
L 217.135244 237.783024 
L 217.492364 238.165085 
L 217.817018 238.232366 
L 218.271535 238.280852 
L 218.628655 238.271951 
L 218.790982 238.366762 
L 219.797411 239.558979 
L 220.251927 239.640848 
L 220.706444 239.867243 
L 221.355753 240.010975 
L 221.972596 240.576569 
L 222.329716 240.428888 
L 222.556975 240.330777 
L 222.881629 240.315525 
L 223.6608 240.631051 
L 224.082851 240.889559 
L 224.537367 240.839734 
L 225.121745 240.737271 
L 227.264465 241.016463 
L 227.881309 240.816836 
L 228.563084 240.841891 
L 228.887738 240.856126 
L 229.666909 241.037141 
L 229.991564 241.158837 
L 231.16032 241.168444 
L 231.907025 241.014556 
L 232.783593 241.26699 
L 233.173178 241.141644 
L 233.595229 240.695397 
L 233.790022 240.847317 
L 234.601658 242.090275 
L 234.763985 242.016144 
L 235.023709 241.580368 
L 235.315898 241.121616 
L 235.640553 241.112593 
L 235.965207 241.417197 
L 236.322327 241.679913 
L 236.582051 241.650914 
L 237.198895 241.369644 
L 237.815738 241.138018 
L 238.172858 241.137426 
L 238.822167 241.265637 
L 239.211753 241.535846 
L 239.503942 241.689103 
L 240.055855 241.658082 
L 240.315578 241.662376 
L 241.029818 241.972325 
L 241.451869 242.31022 
L 241.808989 242.396126 
L 242.94528 242.592521 
L 243.821847 243.085345 
L 245.80224 242.94385 
L 246.224291 243.042888 
L 246.808669 242.965184 
L 247.068393 242.938807 
L 247.360582 243.160247 
L 248.204684 243.823004 
L 248.983855 243.809736 
L 249.957818 244.688919 
L 250.217542 244.448531 
L 250.607127 244.234826 
L 250.899316 244.624426 
L 251.581091 245.695109 
L 251.87328 245.761902 
L 252.327796 245.730974 
L 252.977105 245.77957 
L 253.496553 245.755316 
L 254.178327 245.430408 
L 255.476945 244.373441 
L 255.704204 244.326648 
L 257.23008 244.701263 
L 257.619665 244.502003 
L 258.204044 244.170328 
L 259.145542 244.036391 
L 259.470196 244.023979 
L 259.827316 244.014012 
L 260.346764 244.068351 
L 260.541556 244.069797 
L 261.645382 244.19814 
L 261.970036 244.250478 
L 262.424553 244.137211 
L 263.106327 243.944016 
L 263.398516 243.938669 
L 263.950429 244.09614 
L 264.599738 243.940107 
L 265.08672 243.733681 
L 265.833425 243.770972 
L 266.645062 244.008734 
L 267.521629 244.115514 
L 268.592989 244.526478 
L 268.950109 244.544979 
L 269.794211 245.118165 
L 270.638313 245.256855 
L 271.027898 245.357961 
L 272.651171 245.182572 
L 273.268015 245.059733 
L 274.144582 245.053931 
L 275.280873 244.526527 
L 275.832785 244.542813 
L 276.222371 244.576587 
L 277.293731 244.267335 
L 278.65728 243.421449 
L 279.209193 243.143334 
L 279.468916 243.070356 
L 279.761105 242.922986 
L 280.150691 242.793161 
L 280.313018 242.80555 
L 280.572742 242.768059 
L 280.832465 242.676667 
L 281.189585 242.548671 
L 281.546705 242.507231 
L 282.5856 242.102375 
L 283.105047 241.960832 
L 283.819287 241.81956 
L 284.793251 241.471375 
L 285.117905 241.141024 
L 285.539956 240.743178 
L 285.929542 240.569226 
L 286.806109 240.073073 
L 287.22816 239.99278 
L 287.909935 239.910679 
L 288.234589 239.927615 
L 288.624175 239.847442 
L 289.630604 239.588761 
L 291.773324 239.270579 
L 292.877149 239.391775 
L 296.188625 240.053077 
L 297.097658 240.312676 
L 300.409135 241.1375 
L 302.389527 241.220132 
L 303.363491 241.239264 
L 304.110196 241.291778 
L 304.856902 241.189618 
L 305.473745 241.113045 
L 305.960727 241.188873 
L 306.967156 241.188634 
L 307.876189 241.139243 
L 308.687825 241.198401 
L 309.272204 241.088191 
L 310.635753 241.095793 
L 311.836975 240.979776 
L 312.194095 240.913312 
L 313.590109 240.861944 
L 314.044625 240.96067 
L 314.596538 240.947083 
L 320.375389 242.042441 
L 320.894836 242.5503 
L 321.284422 242.620047 
L 321.674007 242.604888 
L 321.998662 242.717753 
L 324.36864 244.416665 
L 325.277673 245.634709 
L 325.602327 246.741069 
L 325.829585 247.761629 
L 326.024378 247.893437 
L 326.056844 247.857943 
L 326.349033 244.482774 
L 326.608756 241.546238 
L 327.063273 237.863311 
L 327.2256 237.571534 
L 327.258065 237.604811 
L 327.712582 238.380255 
L 328.102167 238.916956 
L 328.29696 239.093939 
L 328.816407 239.451663 
L 329.141062 239.733422 
L 329.757905 239.837126 
L 330.115025 240.022923 
L 330.212422 239.923402 
L 330.602007 239.174414 
L 330.829265 239.115494 
L 330.861731 239.126836 
L 330.894196 238.829539 
L 330.959127 238.931232 
L 331.088989 238.937051 
L 331.381178 238.647035 
L 331.51104 238.459666 
L 331.738298 238.560019 
L 332.160349 238.90313 
L 332.485004 238.88754 
L 332.679796 238.220216 
L 332.712262 238.233473 
L 332.907055 238.05835 
L 333.199244 237.16274 
L 333.621295 235.640088 
L 333.751156 235.464194 
L 333.783622 235.510268 
L 333.881018 235.468557 
L 333.913484 235.436437 
L 333.978415 235.504696 
L 334.140742 235.590852 
L 334.238138 235.754666 
L 334.400465 236.041428 
L 334.530327 236.009355 
L 334.72512 236.061243 
L 334.790051 236.024481 
L 334.822516 236.076908 
L 335.179636 236.392271 
L 335.341964 236.396688 
L 335.764015 235.83488 
L 335.79648 235.881228 
L 335.991273 236.023463 
L 336.056204 235.91161 
L 336.543185 235.624183 
L 336.737978 235.445856 
L 337.127564 235.076534 
L 337.322356 234.436351 
L 337.354822 234.447575 
L 337.776873 234.577665 
L 337.874269 234.313322 
L 338.523578 230.949875 
L 338.718371 230.364827 
L 338.978095 229.523824 
L 339.205353 229.563924 
L 339.562473 230.164576 
L 339.692335 230.069395 
L 339.984524 229.825442 
L 340.016989 229.863465 
L 340.114385 230.044011 
L 340.146851 229.952065 
L 340.568902 229.473959 
L 340.861091 229.517704 
L 341.023418 229.825371 
L 341.899985 232.146567 
L 342.062313 232.414101 
L 342.614225 233.532719 
L 342.809018 233.528928 
L 343.003811 233.419918 
L 343.360931 233.270811 
L 343.458327 233.508438 
L 343.912844 235.345162 
L 345.308858 238.835893 
L 345.601047 239.339987 
L 345.893236 240.40146 
L 346.380218 242.544687 
L 346.704873 243.170605 
L 347.386647 245.218118 
L 347.58144 245.576955 
L 347.613905 245.551323 
L 347.808698 245.638466 
L 348.035956 246.458976 
L 348.977455 249.849298 
L 349.172247 250.111418 
L 349.399505 250.372756 
L 349.854022 250.947852 
L 350.308538 252.100838 
L 350.568262 252.492802 
L 351.055244 253.083011 
L 351.996742 255.422594 
L 352.159069 255.637123 
L 352.548655 256.624308 
L 353.29536 258.789427 
L 353.847273 259.511602 
L 355.600407 262.764724 
L 356.834095 265.041735 
L 357.093818 265.478442 
L 357.256145 265.649397 
L 357.743127 266.501728 
L 358.002851 266.647212 
L 358.262575 267.194461 
L 358.619695 268.117888 
L 359.691055 269.665766 
L 360.015709 270.297347 
L 360.567622 271.370357 
L 360.729949 271.411616 
L 360.859811 271.351663 
L 361.281862 271.222497 
L 361.541585 271.488704 
L 361.86624 271.18055 
L 362.22336 271.251288 
L 362.645411 271.763225 
L 362.905135 271.998116 
L 363.229789 272.302096 
L 364.041425 271.330422 
L 364.36608 270.629781 
L 364.755665 270.243003 
L 365.047855 270.230916 
L 365.340044 270.11825 
L 365.697164 269.515278 
L 366.703593 266.015288 
L 366.995782 265.525699 
L 367.060713 265.624315 
L 367.255505 265.751558 
L 367.482764 265.4069 
L 367.710022 264.421584 
L 368.586589 258.247584 
L 368.683985 257.633103 
L 369.333295 253.646328 
L 370.469585 247.579895 
L 370.534516 247.435075 
L 370.761775 246.707783 
L 370.891636 246.431227 
L 371.183825 245.211964 
L 371.346153 244.355588 
L 371.573411 243.486746 
L 371.8656 243.668634 
L 372.190255 244.610624 
L 372.320116 244.94514 
L 372.352582 244.914099 
L 372.709702 244.245489 
L 372.839564 244.371732 
L 372.93696 244.549868 
L 372.969425 244.446763 
L 373.196684 244.027921 
L 373.29408 243.974241 
L 373.748596 243.019182 
L 374.138182 241.170646 
L 374.170647 241.397942 
L 374.268044 241.314053 
L 374.300509 241.37532 
L 374.495302 241.541734 
L 374.982284 242.568991 
L 375.404335 243.387946 
L 375.761455 244.662092 
L 376.215971 245.028907 
L 376.410764 244.986947 
L 376.540625 244.995968 
L 376.832815 244.734438 
L 376.86528 244.764107 
L 377.417193 245.196757 
L 377.547055 245.186343 
L 377.741847 244.914119 
L 378.163898 243.910973 
L 378.391156 242.81457 
L 379.105396 241.325986 
L 379.397585 241.451088 
L 379.624844 241.414782 
L 379.787171 241.480421 
L 380.598807 241.080968 
L 380.988393 241.232943 
L 381.020858 241.234271 
L 381.183185 242.472487 
L 381.410444 242.835467 
L 381.637702 242.821166 
L 381.86496 242.741853 
L 382.092218 242.68507 
L 382.5792 242.566689 
L 382.741527 242.549865 
L 383.001251 242.493523 
L 383.325905 242.420335 
L 383.585629 242.254618 
L 383.780422 242.387422 
L 383.910284 242.483527 
L 384.072611 242.728097 
L 384.105076 242.712354 
L 384.234938 242.539956 
L 385.07904 241.226692 
L 385.890676 240.100549 
L 385.923142 240.041687 
L 386.182865 238.291628 
L 386.442589 238.106182 
L 386.637382 239.238988 
L 386.767244 239.224542 
L 386.962036 238.962691 
L 389.429411 235.470905 
L 389.656669 233.773207 
L 389.916393 233.141414 
L 390.07872 233.211855 
L 390.565702 232.872648 
L 390.825425 232.603329 
L 391.799389 231.319379 
L 391.929251 231.178421 
L 392.286371 230.537511 
L 393.909644 228.547093 
L 394.039505 228.480766 
L 395.43552 227.292566 
L 395.662778 226.913272 
L 395.987433 226.41612 
L 396.344553 225.681162 
L 396.377018 225.71256 
L 396.50688 225.73004 
L 396.766604 225.342662 
L 396.928931 225.161029 
L 398.162618 223.726996 
L 398.487273 223.225324 
L 398.487273 223.225324 
" style="fill:none;stroke:#ff7f0e;stroke-linecap:square;stroke-width:1.5;"/>
   </g>
   <g id="line2d_14">
    <path clip-path="url(#p41b5b15f17)" d="M 73.832727 295.330444 
L 73.865193 295.488 
L 74.02752 285.492297 
L 74.319709 272.587474 
L 74.546967 293.800858 
L 74.579433 292.613504 
L 74.676829 283.417555 
L 74.74176 285.130518 
L 74.904087 289.096343 
L 75.09888 290.374353 
L 75.163811 290.168802 
L 75.391069 288.153506 
L 76.332567 277.214883 
L 77.468858 264.550787 
L 78.702545 253.718703 
L 79.838836 245.377243 
L 80.715404 240.506284 
L 81.559505 237.02263 
L 82.273745 234.943732 
L 82.890589 233.752569 
L 83.604829 232.82772 
L 84.286604 232.268587 
L 85.09824 231.951091 
L 85.487825 232.04841 
L 86.104669 232.477978 
L 87.013702 233.403114 
L 87.987665 234.72128 
L 88.117527 235.027852 
L 88.31232 235.411277 
L 88.864233 236.053379 
L 89.610938 237.303103 
L 94.253498 245.481758 
L 95.909236 247.919982 
L 98.084422 250.683181 
L 101.590691 255.194285 
L 104.512582 259.315931 
L 107.174749 263.502449 
L 111.654982 270.561212 
L 113.602909 273.257761 
L 114.836596 274.670928 
L 116.427404 276.20692 
L 117.59616 277.033723 
L 118.602589 277.491411 
L 119.511622 277.666652 
L 120.323258 277.594813 
L 121.16736 277.279579 
L 122.108858 276.674635 
L 123.017891 275.885724 
L 123.050356 276.039385 
L 123.342545 276.66091 
L 123.569804 277.077232 
L 124.056785 277.919705 
L 124.543767 278.504335 
L 124.73856 278.323481 
L 125.193076 278.543902 
L 125.972247 278.825682 
L 126.88128 278.917351 
L 127.855244 278.776573 
L 128.959069 278.380279 
L 130.45248 277.836337 
L 131.16672 277.566295 
L 132.919855 276.52197 
L 135.192436 274.964944 
L 141.588131 270.147862 
L 143.698385 268.998289 
L 147.399447 267.252046 
L 151.490095 264.87632 
L 153.827607 263.630838 
L 155.288553 262.997695 
L 157.561135 262.166021 
L 159.768785 261.585696 
L 160.09344 261.559362 
L 161.034938 261.41419 
L 161.456989 261.360694 
L 162.203695 261.239714 
L 162.560815 261.189781 
L 163.469847 261.049593 
L 163.891898 260.996424 
L 164.638604 260.881567 
L 165.190516 260.814225 
L 166.067084 260.690891 
L 168.404596 260.368348 
L 170.742109 259.94918 
L 178.014371 258.598632 
L 183.695825 257.739355 
L 191.000553 256.546084 
L 198.207884 255.3858 
L 207.103418 254.240061 
L 211.583651 253.681567 
L 211.713513 253.913972 
L 211.908305 253.900664 
L 212.135564 253.717261 
L 212.168029 253.84179 
L 212.200495 253.689436 
L 212.23296 253.812222 
L 212.330356 253.633414 
L 212.362822 253.756772 
L 212.395287 253.606744 
L 212.427753 253.729451 
L 212.525149 253.55604 
L 212.557615 253.675431 
L 212.59008 253.531314 
L 212.622545 253.650682 
L 212.719942 253.488116 
L 212.752407 253.606065 
L 212.784873 253.468991 
L 212.817338 253.586499 
L 212.914735 253.435592 
L 213.012131 253.53879 
L 213.109527 253.396675 
L 213.206924 253.508382 
L 213.30432 253.369963 
L 213.401716 253.491887 
L 213.499113 253.350969 
L 213.596509 253.48613 
L 213.693905 253.336866 
L 213.791302 253.484459 
L 213.888698 253.326459 
L 213.986095 253.482838 
L 214.083491 253.310992 
L 214.180887 253.473744 
L 214.278284 253.28904 
L 214.310749 253.457395 
L 214.37568 253.441263 
L 214.473076 253.257466 
L 214.505542 253.405856 
L 214.538007 253.240229 
L 214.570473 253.387219 
L 214.667869 253.196481 
L 214.7328 253.179154 
L 214.765265 253.341354 
L 214.862662 253.155449 
L 214.960058 253.301621 
L 215.057455 253.124781 
L 215.154851 253.271825 
L 215.252247 253.102454 
L 215.349644 253.253036 
L 215.382109 253.106907 
L 215.44704 253.175383 
L 215.576902 253.221285 
L 215.869091 253.1898 
L 216.031418 253.15353 
L 216.193745 253.178795 
L 216.356073 253.147793 
L 216.5184 253.17018 
L 216.745658 253.152264 
L 217.037847 253.159634 
L 217.654691 253.157492 
L 220.349324 253.089499 
L 221.615476 252.862732 
L 222.816698 252.415132 
L 224.342575 251.524624 
L 230.056495 247.886674 
L 234.601658 245.690739 
L 236.224931 245.116262 
L 236.906705 245.072721 
L 238.919564 245.093234 
L 240.575302 245.450192 
L 242.295971 246.084876 
L 244.37376 247.101998 
L 246.548945 248.395289 
L 247.198255 248.680379 
L 248.6592 249.072002 
L 250.996713 249.888259 
L 256.321047 251.453588 
L 258.983215 251.982123 
L 262.327156 252.422551 
L 266.125615 252.703361 
L 270.44352 252.799452 
L 272.845964 252.703712 
L 273.203084 252.542194 
L 273.754996 252.518973 
L 274.566633 252.448093 
L 275.573062 252.294079 
L 282.650531 251.492377 
L 283.397236 251.3085 
L 294.175767 250.128743 
L 299.72736 249.840715 
L 307.032087 249.681945 
L 317.908015 249.482104 
L 325.017949 249.104392 
L 331.608436 248.553375 
L 337.127564 247.843325 
L 344.951738 246.581134 
L 350.568262 245.762739 
L 354.042065 245.456406 
L 354.204393 245.538123 
L 354.36672 245.530098 
L 355.016029 245.20764 
L 356.054924 245.228266 
L 358.749556 245.294862 
L 359.333935 245.368407 
L 360.242967 245.244783 
L 361.574051 245.170884 
L 365.275113 245.296227 
L 371.898065 245.668654 
L 377.676916 246.019729 
L 381.377978 246.020086 
L 384.754385 245.838192 
L 395.240727 245.145493 
L 398.487273 245.154835 
L 398.487273 245.154835 
" style="fill:none;stroke:#bf00bf;stroke-linecap:square;stroke-width:1.5;"/>
   </g>
   <g id="patch_3">
    <path d="M 57.6 307.584 
L 57.6 41.472 
" style="fill:none;stroke:#000000;stroke-linecap:square;stroke-linejoin:miter;stroke-width:0.8;"/>
   </g>
   <g id="patch_4">
    <path d="M 414.72 307.584 
L 414.72 41.472 
" style="fill:none;stroke:#000000;stroke-linecap:square;stroke-linejoin:miter;stroke-width:0.8;"/>
   </g>
   <g id="patch_5">
    <path d="M 57.6 307.584 
L 414.72 307.584 
" style="fill:none;stroke:#000000;stroke-linecap:square;stroke-linejoin:miter;stroke-width:0.8;"/>
   </g>
   <g id="patch_6">
    <path d="M 57.6 41.472 
L 414.72 41.472 
" style="fill:none;stroke:#000000;stroke-linecap:square;stroke-linejoin:miter;stroke-width:0.8;"/>
   </g>
   <g id="text_14">
    <!-- Plot of Object pose error norm over a single episode  -->
    <g transform="translate(77.670938 8.59725)scale(0.12 -0.12)">
     <defs>
      <path d="M 19.671875 64.796875 
L 19.671875 37.40625 
L 32.078125 37.40625 
Q 38.96875 37.40625 42.71875 40.96875 
Q 46.484375 44.53125 46.484375 51.125 
Q 46.484375 57.671875 42.71875 61.234375 
Q 38.96875 64.796875 32.078125 64.796875 
z
M 9.8125 72.90625 
L 32.078125 72.90625 
Q 44.34375 72.90625 50.609375 67.359375 
Q 56.890625 61.8125 56.890625 51.125 
Q 56.890625 40.328125 50.609375 34.8125 
Q 44.34375 29.296875 32.078125 29.296875 
L 19.671875 29.296875 
L 19.671875 0 
L 9.8125 0 
z
" id="DejaVuSans-80"/>
      <path d="M 9.421875 75.984375 
L 18.40625 75.984375 
L 18.40625 0 
L 9.421875 0 
z
" id="DejaVuSans-108"/>
      <path id="DejaVuSans-32"/>
      <path d="M 37.109375 75.984375 
L 37.109375 68.5 
L 28.515625 68.5 
Q 23.6875 68.5 21.796875 66.546875 
Q 19.921875 64.59375 19.921875 59.515625 
L 19.921875 54.6875 
L 34.71875 54.6875 
L 34.71875 47.703125 
L 19.921875 47.703125 
L 19.921875 0 
L 10.890625 0 
L 10.890625 47.703125 
L 2.296875 47.703125 
L 2.296875 54.6875 
L 10.890625 54.6875 
L 10.890625 58.5 
Q 10.890625 67.625 15.140625 71.796875 
Q 19.390625 75.984375 28.609375 75.984375 
z
" id="DejaVuSans-102"/>
      <path d="M 48.78125 52.59375 
L 48.78125 44.1875 
Q 44.96875 46.296875 41.140625 47.34375 
Q 37.3125 48.390625 33.40625 48.390625 
Q 24.65625 48.390625 19.8125 42.84375 
Q 14.984375 37.3125 14.984375 27.296875 
Q 14.984375 17.28125 19.8125 11.734375 
Q 24.65625 6.203125 33.40625 6.203125 
Q 37.3125 6.203125 41.140625 7.25 
Q 44.96875 8.296875 48.78125 10.40625 
L 48.78125 2.09375 
Q 45.015625 0.34375 40.984375 -0.53125 
Q 36.96875 -1.421875 32.421875 -1.421875 
Q 20.0625 -1.421875 12.78125 6.34375 
Q 5.515625 14.109375 5.515625 27.296875 
Q 5.515625 40.671875 12.859375 48.328125 
Q 20.21875 56 33.015625 56 
Q 37.15625 56 41.109375 55.140625 
Q 45.0625 54.296875 48.78125 52.59375 
z
" id="DejaVuSans-99"/>
      <path d="M 2.984375 54.6875 
L 12.5 54.6875 
L 29.59375 8.796875 
L 46.6875 54.6875 
L 56.203125 54.6875 
L 35.6875 0 
L 23.484375 0 
z
" id="DejaVuSans-118"/>
      <path d="M 34.28125 27.484375 
Q 23.390625 27.484375 19.1875 25 
Q 14.984375 22.515625 14.984375 16.5 
Q 14.984375 11.71875 18.140625 8.90625 
Q 21.296875 6.109375 26.703125 6.109375 
Q 34.1875 6.109375 38.703125 11.40625 
Q 43.21875 16.703125 43.21875 25.484375 
L 43.21875 27.484375 
z
M 52.203125 31.203125 
L 52.203125 0 
L 43.21875 0 
L 43.21875 8.296875 
Q 40.140625 3.328125 35.546875 0.953125 
Q 30.953125 -1.421875 24.3125 -1.421875 
Q 15.921875 -1.421875 10.953125 3.296875 
Q 6 8.015625 6 15.921875 
Q 6 25.140625 12.171875 29.828125 
Q 18.359375 34.515625 30.609375 34.515625 
L 43.21875 34.515625 
L 43.21875 35.40625 
Q 43.21875 41.609375 39.140625 45 
Q 35.0625 48.390625 27.6875 48.390625 
Q 23 48.390625 18.546875 47.265625 
Q 14.109375 46.140625 10.015625 43.890625 
L 10.015625 52.203125 
Q 14.9375 54.109375 19.578125 55.046875 
Q 24.21875 56 28.609375 56 
Q 40.484375 56 46.34375 49.84375 
Q 52.203125 43.703125 52.203125 31.203125 
z
" id="DejaVuSans-97"/>
      <path d="M 45.40625 27.984375 
Q 45.40625 37.75 41.375 43.109375 
Q 37.359375 48.484375 30.078125 48.484375 
Q 22.859375 48.484375 18.828125 43.109375 
Q 14.796875 37.75 14.796875 27.984375 
Q 14.796875 18.265625 18.828125 12.890625 
Q 22.859375 7.515625 30.078125 7.515625 
Q 37.359375 7.515625 41.375 12.890625 
Q 45.40625 18.265625 45.40625 27.984375 
z
M 54.390625 6.78125 
Q 54.390625 -7.171875 48.1875 -13.984375 
Q 42 -20.796875 29.203125 -20.796875 
Q 24.46875 -20.796875 20.265625 -20.09375 
Q 16.0625 -19.390625 12.109375 -17.921875 
L 12.109375 -9.1875 
Q 16.0625 -11.328125 19.921875 -12.34375 
Q 23.78125 -13.375 27.78125 -13.375 
Q 36.625 -13.375 41.015625 -8.765625 
Q 45.40625 -4.15625 45.40625 5.171875 
L 45.40625 9.625 
Q 42.625 4.78125 38.28125 2.390625 
Q 33.9375 0 27.875 0 
Q 17.828125 0 11.671875 7.65625 
Q 5.515625 15.328125 5.515625 27.984375 
Q 5.515625 40.671875 11.671875 48.328125 
Q 17.828125 56 27.875 56 
Q 33.9375 56 38.28125 53.609375 
Q 42.625 51.21875 45.40625 46.390625 
L 45.40625 54.6875 
L 54.390625 54.6875 
z
" id="DejaVuSans-103"/>
      <path d="M 45.40625 46.390625 
L 45.40625 75.984375 
L 54.390625 75.984375 
L 54.390625 0 
L 45.40625 0 
L 45.40625 8.203125 
Q 42.578125 3.328125 38.25 0.953125 
Q 33.9375 -1.421875 27.875 -1.421875 
Q 17.96875 -1.421875 11.734375 6.484375 
Q 5.515625 14.40625 5.515625 27.296875 
Q 5.515625 40.1875 11.734375 48.09375 
Q 17.96875 56 27.875 56 
Q 33.9375 56 38.25 53.625 
Q 42.578125 51.265625 45.40625 46.390625 
z
M 14.796875 27.296875 
Q 14.796875 17.390625 18.875 11.75 
Q 22.953125 6.109375 30.078125 6.109375 
Q 37.203125 6.109375 41.296875 11.75 
Q 45.40625 17.390625 45.40625 27.296875 
Q 45.40625 37.203125 41.296875 42.84375 
Q 37.203125 48.484375 30.078125 48.484375 
Q 22.953125 48.484375 18.875 42.84375 
Q 14.796875 37.203125 14.796875 27.296875 
z
" id="DejaVuSans-100"/>
     </defs>
     <use xlink:href="#DejaVuSans-80"/>
     <use x="60.302734" xlink:href="#DejaVuSans-108"/>
     <use x="88.085938" xlink:href="#DejaVuSans-111"/>
     <use x="149.267578" xlink:href="#DejaVuSans-116"/>
     <use x="188.476562" xlink:href="#DejaVuSans-32"/>
     <use x="220.263672" xlink:href="#DejaVuSans-111"/>
     <use x="281.445312" xlink:href="#DejaVuSans-102"/>
     <use x="316.650391" xlink:href="#DejaVuSans-32"/>
     <use x="348.4375" xlink:href="#DejaVuSans-79"/>
     <use x="427.148438" xlink:href="#DejaVuSans-98"/>
     <use x="490.625" xlink:href="#DejaVuSans-106"/>
     <use x="518.408203" xlink:href="#DejaVuSans-101"/>
     <use x="579.931641" xlink:href="#DejaVuSans-99"/>
     <use x="634.912109" xlink:href="#DejaVuSans-116"/>
     <use x="674.121094" xlink:href="#DejaVuSans-32"/>
     <use x="705.908203" xlink:href="#DejaVuSans-112"/>
     <use x="769.384766" xlink:href="#DejaVuSans-111"/>
     <use x="830.566406" xlink:href="#DejaVuSans-115"/>
     <use x="882.666016" xlink:href="#DejaVuSans-101"/>
     <use x="944.189453" xlink:href="#DejaVuSans-32"/>
     <use x="975.976562" xlink:href="#DejaVuSans-101"/>
     <use x="1037.5" xlink:href="#DejaVuSans-114"/>
     <use x="1076.863281" xlink:href="#DejaVuSans-114"/>
     <use x="1115.726562" xlink:href="#DejaVuSans-111"/>
     <use x="1176.908203" xlink:href="#DejaVuSans-114"/>
     <use x="1218.021484" xlink:href="#DejaVuSans-32"/>
     <use x="1249.808594" xlink:href="#DejaVuSans-110"/>
     <use x="1313.1875" xlink:href="#DejaVuSans-111"/>
     <use x="1374.369141" xlink:href="#DejaVuSans-114"/>
     <use x="1413.732422" xlink:href="#DejaVuSans-109"/>
     <use x="1511.144531" xlink:href="#DejaVuSans-32"/>
     <use x="1542.931641" xlink:href="#DejaVuSans-111"/>
     <use x="1604.113281" xlink:href="#DejaVuSans-118"/>
     <use x="1663.292969" xlink:href="#DejaVuSans-101"/>
     <use x="1724.816406" xlink:href="#DejaVuSans-114"/>
     <use x="1765.929688" xlink:href="#DejaVuSans-32"/>
     <use x="1797.716797" xlink:href="#DejaVuSans-97"/>
     <use x="1858.996094" xlink:href="#DejaVuSans-32"/>
     <use x="1890.783203" xlink:href="#DejaVuSans-115"/>
     <use x="1942.882812" xlink:href="#DejaVuSans-105"/>
     <use x="1970.666016" xlink:href="#DejaVuSans-110"/>
     <use x="2034.044922" xlink:href="#DejaVuSans-103"/>
     <use x="2097.521484" xlink:href="#DejaVuSans-108"/>
     <use x="2125.304688" xlink:href="#DejaVuSans-101"/>
     <use x="2186.828125" xlink:href="#DejaVuSans-32"/>
     <use x="2218.615234" xlink:href="#DejaVuSans-101"/>
     <use x="2280.138672" xlink:href="#DejaVuSans-112"/>
     <use x="2343.615234" xlink:href="#DejaVuSans-105"/>
     <use x="2371.398438" xlink:href="#DejaVuSans-115"/>
     <use x="2423.498047" xlink:href="#DejaVuSans-111"/>
     <use x="2484.679688" xlink:href="#DejaVuSans-100"/>
     <use x="2548.15625" xlink:href="#DejaVuSans-101"/>
     <use x="2609.679688" xlink:href="#DejaVuSans-32"/>
    </g>
    <!--  Avg object pose error norm: Residual RL = 0.344, Standard = 0.240,  -->
    <g transform="translate(26.875313 22.034625)scale(0.12 -0.12)">
     <defs>
      <path d="M 34.1875 63.1875 
L 20.796875 26.90625 
L 47.609375 26.90625 
z
M 28.609375 72.90625 
L 39.796875 72.90625 
L 67.578125 0 
L 57.328125 0 
L 50.6875 18.703125 
L 17.828125 18.703125 
L 11.1875 0 
L 0.78125 0 
z
" id="DejaVuSans-65"/>
      <path d="M 11.71875 12.40625 
L 22.015625 12.40625 
L 22.015625 0 
L 11.71875 0 
z
M 11.71875 51.703125 
L 22.015625 51.703125 
L 22.015625 39.3125 
L 11.71875 39.3125 
z
" id="DejaVuSans-58"/>
      <path d="M 44.390625 34.1875 
Q 47.5625 33.109375 50.5625 29.59375 
Q 53.5625 26.078125 56.59375 19.921875 
L 66.609375 0 
L 56 0 
L 46.6875 18.703125 
Q 43.0625 26.03125 39.671875 28.421875 
Q 36.28125 30.8125 30.421875 30.8125 
L 19.671875 30.8125 
L 19.671875 0 
L 9.8125 0 
L 9.8125 72.90625 
L 32.078125 72.90625 
Q 44.578125 72.90625 50.734375 67.671875 
Q 56.890625 62.453125 56.890625 51.90625 
Q 56.890625 45.015625 53.6875 40.46875 
Q 50.484375 35.9375 44.390625 34.1875 
z
M 19.671875 64.796875 
L 19.671875 38.921875 
L 32.078125 38.921875 
Q 39.203125 38.921875 42.84375 42.21875 
Q 46.484375 45.515625 46.484375 51.90625 
Q 46.484375 58.296875 42.84375 61.546875 
Q 39.203125 64.796875 32.078125 64.796875 
z
" id="DejaVuSans-82"/>
      <path d="M 9.8125 72.90625 
L 19.671875 72.90625 
L 19.671875 8.296875 
L 55.171875 8.296875 
L 55.171875 0 
L 9.8125 0 
z
" id="DejaVuSans-76"/>
      <path d="M 10.59375 45.40625 
L 73.1875 45.40625 
L 73.1875 37.203125 
L 10.59375 37.203125 
z
M 10.59375 25.484375 
L 73.1875 25.484375 
L 73.1875 17.1875 
L 10.59375 17.1875 
z
" id="DejaVuSans-61"/>
      <path d="M 40.578125 39.3125 
Q 47.65625 37.796875 51.625 33 
Q 55.609375 28.21875 55.609375 21.1875 
Q 55.609375 10.40625 48.1875 4.484375 
Q 40.765625 -1.421875 27.09375 -1.421875 
Q 22.515625 -1.421875 17.65625 -0.515625 
Q 12.796875 0.390625 7.625 2.203125 
L 7.625 11.71875 
Q 11.71875 9.328125 16.59375 8.109375 
Q 21.484375 6.890625 26.8125 6.890625 
Q 36.078125 6.890625 40.9375 10.546875 
Q 45.796875 14.203125 45.796875 21.1875 
Q 45.796875 27.640625 41.28125 31.265625 
Q 36.765625 34.90625 28.71875 34.90625 
L 20.21875 34.90625 
L 20.21875 43.015625 
L 29.109375 43.015625 
Q 36.375 43.015625 40.234375 45.921875 
Q 44.09375 48.828125 44.09375 54.296875 
Q 44.09375 59.90625 40.109375 62.90625 
Q 36.140625 65.921875 28.71875 65.921875 
Q 24.65625 65.921875 20.015625 65.03125 
Q 15.375 64.15625 9.8125 62.3125 
L 9.8125 71.09375 
Q 15.4375 72.65625 20.34375 73.4375 
Q 25.25 74.21875 29.59375 74.21875 
Q 40.828125 74.21875 47.359375 69.109375 
Q 53.90625 64.015625 53.90625 55.328125 
Q 53.90625 49.265625 50.4375 45.09375 
Q 46.96875 40.921875 40.578125 39.3125 
z
" id="DejaVuSans-51"/>
      <path d="M 11.71875 12.40625 
L 22.015625 12.40625 
L 22.015625 4 
L 14.015625 -11.625 
L 7.71875 -11.625 
L 11.71875 4 
z
" id="DejaVuSans-44"/>
      <path d="M 53.515625 70.515625 
L 53.515625 60.890625 
Q 47.90625 63.578125 42.921875 64.890625 
Q 37.9375 66.21875 33.296875 66.21875 
Q 25.25 66.21875 20.875 63.09375 
Q 16.5 59.96875 16.5 54.203125 
Q 16.5 49.359375 19.40625 46.890625 
Q 22.3125 44.4375 30.421875 42.921875 
L 36.375 41.703125 
Q 47.40625 39.59375 52.65625 34.296875 
Q 57.90625 29 57.90625 20.125 
Q 57.90625 9.515625 50.796875 4.046875 
Q 43.703125 -1.421875 29.984375 -1.421875 
Q 24.8125 -1.421875 18.96875 -0.25 
Q 13.140625 0.921875 6.890625 3.21875 
L 6.890625 13.375 
Q 12.890625 10.015625 18.65625 8.296875 
Q 24.421875 6.59375 29.984375 6.59375 
Q 38.421875 6.59375 43.015625 9.90625 
Q 47.609375 13.234375 47.609375 19.390625 
Q 47.609375 24.75 44.3125 27.78125 
Q 41.015625 30.8125 33.5 32.328125 
L 27.484375 33.5 
Q 16.453125 35.6875 11.515625 40.375 
Q 6.59375 45.0625 6.59375 53.421875 
Q 6.59375 63.09375 13.40625 68.65625 
Q 20.21875 74.21875 32.171875 74.21875 
Q 37.3125 74.21875 42.625 73.28125 
Q 47.953125 72.359375 53.515625 70.515625 
z
" id="DejaVuSans-83"/>
     </defs>
     <use xlink:href="#DejaVuSans-32"/>
     <use x="31.787109" xlink:href="#DejaVuSans-65"/>
     <use x="94.320312" xlink:href="#DejaVuSans-118"/>
     <use x="153.5" xlink:href="#DejaVuSans-103"/>
     <use x="216.976562" xlink:href="#DejaVuSans-32"/>
     <use x="248.763672" xlink:href="#DejaVuSans-111"/>
     <use x="309.945312" xlink:href="#DejaVuSans-98"/>
     <use x="373.421875" xlink:href="#DejaVuSans-106"/>
     <use x="401.205078" xlink:href="#DejaVuSans-101"/>
     <use x="462.728516" xlink:href="#DejaVuSans-99"/>
     <use x="517.708984" xlink:href="#DejaVuSans-116"/>
     <use x="556.917969" xlink:href="#DejaVuSans-32"/>
     <use x="588.705078" xlink:href="#DejaVuSans-112"/>
     <use x="652.181641" xlink:href="#DejaVuSans-111"/>
     <use x="713.363281" xlink:href="#DejaVuSans-115"/>
     <use x="765.462891" xlink:href="#DejaVuSans-101"/>
     <use x="826.986328" xlink:href="#DejaVuSans-32"/>
     <use x="858.773438" xlink:href="#DejaVuSans-101"/>
     <use x="920.296875" xlink:href="#DejaVuSans-114"/>
     <use x="959.660156" xlink:href="#DejaVuSans-114"/>
     <use x="998.523438" xlink:href="#DejaVuSans-111"/>
     <use x="1059.705078" xlink:href="#DejaVuSans-114"/>
     <use x="1100.818359" xlink:href="#DejaVuSans-32"/>
     <use x="1132.605469" xlink:href="#DejaVuSans-110"/>
     <use x="1195.984375" xlink:href="#DejaVuSans-111"/>
     <use x="1257.166016" xlink:href="#DejaVuSans-114"/>
     <use x="1296.529297" xlink:href="#DejaVuSans-109"/>
     <use x="1393.941406" xlink:href="#DejaVuSans-58"/>
     <use x="1427.632812" xlink:href="#DejaVuSans-32"/>
     <use x="1459.419922" xlink:href="#DejaVuSans-82"/>
     <use x="1524.402344" xlink:href="#DejaVuSans-101"/>
     <use x="1585.925781" xlink:href="#DejaVuSans-115"/>
     <use x="1638.025391" xlink:href="#DejaVuSans-105"/>
     <use x="1665.808594" xlink:href="#DejaVuSans-100"/>
     <use x="1729.285156" xlink:href="#DejaVuSans-117"/>
     <use x="1792.664062" xlink:href="#DejaVuSans-97"/>
     <use x="1853.943359" xlink:href="#DejaVuSans-108"/>
     <use x="1881.726562" xlink:href="#DejaVuSans-32"/>
     <use x="1913.513672" xlink:href="#DejaVuSans-82"/>
     <use x="1982.996094" xlink:href="#DejaVuSans-76"/>
     <use x="2038.708984" xlink:href="#DejaVuSans-32"/>
     <use x="2070.496094" xlink:href="#DejaVuSans-61"/>
     <use x="2154.285156" xlink:href="#DejaVuSans-32"/>
     <use x="2186.072266" xlink:href="#DejaVuSans-48"/>
     <use x="2249.695312" xlink:href="#DejaVuSans-46"/>
     <use x="2281.482422" xlink:href="#DejaVuSans-51"/>
     <use x="2345.105469" xlink:href="#DejaVuSans-52"/>
     <use x="2408.728516" xlink:href="#DejaVuSans-52"/>
     <use x="2472.351562" xlink:href="#DejaVuSans-44"/>
     <use x="2504.138672" xlink:href="#DejaVuSans-32"/>
     <use x="2535.925781" xlink:href="#DejaVuSans-83"/>
     <use x="2599.402344" xlink:href="#DejaVuSans-116"/>
     <use x="2638.611328" xlink:href="#DejaVuSans-97"/>
     <use x="2699.890625" xlink:href="#DejaVuSans-110"/>
     <use x="2763.269531" xlink:href="#DejaVuSans-100"/>
     <use x="2826.746094" xlink:href="#DejaVuSans-97"/>
     <use x="2888.025391" xlink:href="#DejaVuSans-114"/>
     <use x="2927.388672" xlink:href="#DejaVuSans-100"/>
     <use x="2990.865234" xlink:href="#DejaVuSans-32"/>
     <use x="3022.652344" xlink:href="#DejaVuSans-61"/>
     <use x="3106.441406" xlink:href="#DejaVuSans-32"/>
     <use x="3138.228516" xlink:href="#DejaVuSans-48"/>
     <use x="3201.851562" xlink:href="#DejaVuSans-46"/>
     <use x="3233.638672" xlink:href="#DejaVuSans-50"/>
     <use x="3297.261719" xlink:href="#DejaVuSans-52"/>
     <use x="3360.884766" xlink:href="#DejaVuSans-48"/>
     <use x="3424.507812" xlink:href="#DejaVuSans-44"/>
     <use x="3456.294922" xlink:href="#DejaVuSans-32"/>
    </g>
    <!--  Baseline = 0.178 -->
    <g transform="translate(182.795625 35.472)scale(0.12 -0.12)">
     <defs>
      <path d="M 19.671875 34.8125 
L 19.671875 8.109375 
L 35.5 8.109375 
Q 43.453125 8.109375 47.28125 11.40625 
Q 51.125 14.703125 51.125 21.484375 
Q 51.125 28.328125 47.28125 31.5625 
Q 43.453125 34.8125 35.5 34.8125 
z
M 19.671875 64.796875 
L 19.671875 42.828125 
L 34.28125 42.828125 
Q 41.5 42.828125 45.03125 45.53125 
Q 48.578125 48.25 48.578125 53.8125 
Q 48.578125 59.328125 45.03125 62.0625 
Q 41.5 64.796875 34.28125 64.796875 
z
M 9.8125 72.90625 
L 35.015625 72.90625 
Q 46.296875 72.90625 52.390625 68.21875 
Q 58.5 63.53125 58.5 54.890625 
Q 58.5 48.1875 55.375 44.234375 
Q 52.25 40.28125 46.1875 39.3125 
Q 53.46875 37.75 57.5 32.78125 
Q 61.53125 27.828125 61.53125 20.40625 
Q 61.53125 10.640625 54.890625 5.3125 
Q 48.25 0 35.984375 0 
L 9.8125 0 
z
" id="DejaVuSans-66"/>
      <path d="M 8.203125 72.90625 
L 55.078125 72.90625 
L 55.078125 68.703125 
L 28.609375 0 
L 18.3125 0 
L 43.21875 64.59375 
L 8.203125 64.59375 
z
" id="DejaVuSans-55"/>
     </defs>
     <use xlink:href="#DejaVuSans-32"/>
     <use x="31.787109" xlink:href="#DejaVuSans-66"/>
     <use x="100.390625" xlink:href="#DejaVuSans-97"/>
     <use x="161.669922" xlink:href="#DejaVuSans-115"/>
     <use x="213.769531" xlink:href="#DejaVuSans-101"/>
     <use x="275.292969" xlink:href="#DejaVuSans-108"/>
     <use x="303.076172" xlink:href="#DejaVuSans-105"/>
     <use x="330.859375" xlink:href="#DejaVuSans-110"/>
     <use x="394.238281" xlink:href="#DejaVuSans-101"/>
     <use x="455.761719" xlink:href="#DejaVuSans-32"/>
     <use x="487.548828" xlink:href="#DejaVuSans-61"/>
     <use x="571.337891" xlink:href="#DejaVuSans-32"/>
     <use x="603.125" xlink:href="#DejaVuSans-48"/>
     <use x="666.748047" xlink:href="#DejaVuSans-46"/>
     <use x="698.535156" xlink:href="#DejaVuSans-49"/>
     <use x="762.158203" xlink:href="#DejaVuSans-55"/>
     <use x="825.78125" xlink:href="#DejaVuSans-56"/>
    </g>
   </g>
   <g id="legend_1">
    <g id="patch_7">
     <path d="M 64.6 93.506375 
L 154.529687 93.506375 
Q 156.529687 93.506375 156.529687 91.506375 
L 156.529687 48.472 
Q 156.529687 46.472 154.529687 46.472 
L 64.6 46.472 
Q 62.6 46.472 62.6 48.472 
L 62.6 91.506375 
Q 62.6 93.506375 64.6 93.506375 
z
" style="fill:#ffffff;opacity:0.8;stroke:#cccccc;stroke-linejoin:miter;"/>
    </g>
    <g id="line2d_15">
     <path d="M 66.6 54.570438 
L 86.6 54.570438 
" style="fill:none;stroke:#1f77b4;stroke-linecap:square;stroke-width:1.5;"/>
    </g>
    <g id="line2d_16"/>
    <g id="text_15">
     <!-- Residual RL -->
     <g transform="translate(94.6 58.070438)scale(0.1 -0.1)">
      <use xlink:href="#DejaVuSans-82"/>
      <use x="64.982422" xlink:href="#DejaVuSans-101"/>
      <use x="126.505859" xlink:href="#DejaVuSans-115"/>
      <use x="178.605469" xlink:href="#DejaVuSans-105"/>
      <use x="206.388672" xlink:href="#DejaVuSans-100"/>
      <use x="269.865234" xlink:href="#DejaVuSans-117"/>
      <use x="333.244141" xlink:href="#DejaVuSans-97"/>
      <use x="394.523438" xlink:href="#DejaVuSans-108"/>
      <use x="422.306641" xlink:href="#DejaVuSans-32"/>
      <use x="454.09375" xlink:href="#DejaVuSans-82"/>
      <use x="523.576172" xlink:href="#DejaVuSans-76"/>
     </g>
    </g>
    <g id="line2d_17">
     <path d="M 66.6 69.248563 
L 86.6 69.248563 
" style="fill:none;stroke:#ff7f0e;stroke-linecap:square;stroke-width:1.5;"/>
    </g>
    <g id="line2d_18"/>
    <g id="text_16">
     <!-- Standard -->
     <g transform="translate(94.6 72.748563)scale(0.1 -0.1)">
      <use xlink:href="#DejaVuSans-83"/>
      <use x="63.476562" xlink:href="#DejaVuSans-116"/>
      <use x="102.685547" xlink:href="#DejaVuSans-97"/>
      <use x="163.964844" xlink:href="#DejaVuSans-110"/>
      <use x="227.34375" xlink:href="#DejaVuSans-100"/>
      <use x="290.820312" xlink:href="#DejaVuSans-97"/>
      <use x="352.099609" xlink:href="#DejaVuSans-114"/>
      <use x="391.462891" xlink:href="#DejaVuSans-100"/>
     </g>
    </g>
    <g id="line2d_19">
     <path d="M 66.6 83.926688 
L 86.6 83.926688 
" style="fill:none;stroke:#bf00bf;stroke-linecap:square;stroke-width:1.5;"/>
    </g>
    <g id="line2d_20"/>
    <g id="text_17">
     <!-- Baseline -->
     <g transform="translate(94.6 87.426688)scale(0.1 -0.1)">
      <use xlink:href="#DejaVuSans-66"/>
      <use x="68.603516" xlink:href="#DejaVuSans-97"/>
      <use x="129.882812" xlink:href="#DejaVuSans-115"/>
      <use x="181.982422" xlink:href="#DejaVuSans-101"/>
      <use x="243.505859" xlink:href="#DejaVuSans-108"/>
      <use x="271.289062" xlink:href="#DejaVuSans-105"/>
      <use x="299.072266" xlink:href="#DejaVuSans-110"/>
      <use x="362.451172" xlink:href="#DejaVuSans-101"/>
     </g>
    </g>
   </g>
  </g>
 </g>
 <defs>
  <clipPath id="p41b5b15f17">
   <rect height="266.112" width="357.12" x="57.6" y="41.472"/>
  </clipPath>
 </defs>
</svg>
