<?xml version="1.0" encoding="utf-8" standalone="no"?>
<!DOCTYPE svg PUBLIC "-//W3C//DTD SVG 1.1//EN"
  "http://www.w3.org/Graphics/SVG/1.1/DTD/svg11.dtd">
<!-- Created with matplotlib (https://matplotlib.org/) -->
<svg height="345.6pt" version="1.1" viewBox="0 0 460.8 345.6" width="460.8pt" xmlns="http://www.w3.org/2000/svg" xmlns:xlink="http://www.w3.org/1999/xlink">
 <metadata>
  <rdf:RDF xmlns:cc="http://creativecommons.org/ns#" xmlns:dc="http://purl.org/dc/elements/1.1/" xmlns:rdf="http://www.w3.org/1999/02/22-rdf-syntax-ns#">
   <cc:Work>
    <dc:type rdf:resource="http://purl.org/dc/dcmitype/StillImage"/>
    <dc:date>2022-07-23T12:16:40.846873</dc:date>
    <dc:format>image/svg+xml</dc:format>
    <dc:creator>
     <cc:Agent>
      <dc:title>Matplotlib v3.3.4, https://matplotlib.org/</dc:title>
     </cc:Agent>
    </dc:creator>
   </cc:Work>
  </rdf:RDF>
 </metadata>
 <defs>
  <style type="text/css">*{stroke-linecap:butt;stroke-linejoin:round;}</style>
 </defs>
 <g id="figure_1">
  <g id="patch_1">
   <path d="M 0 345.6 
L 460.8 345.6 
L 460.8 0 
L 0 0 
z
" style="fill:#ffffff;"/>
  </g>
  <g id="axes_1">
   <g id="patch_2">
    <path d="M 57.6 307.584 
L 414.72 307.584 
L 414.72 41.472 
L 57.6 41.472 
z
" style="fill:#ffffff;"/>
   </g>
   <g id="matplotlib.axis_1">
    <g id="xtick_1">
     <g id="line2d_1">
      <defs>
       <path d="M 0 0 
L 0 3.5 
" id="m915ecf8bf3" style="stroke:#000000;stroke-width:0.8;"/>
      </defs>
      <g>
       <use style="stroke:#000000;stroke-width:0.8;" x="73.832727" xlink:href="#m915ecf8bf3" y="307.584"/>
      </g>
     </g>
     <g id="text_1">
      <!-- 0 -->
      <g transform="translate(70.651477 322.182437)scale(0.1 -0.1)">
       <defs>
        <path d="M 31.78125 66.40625 
Q 24.171875 66.40625 20.328125 58.90625 
Q 16.5 51.421875 16.5 36.375 
Q 16.5 21.390625 20.328125 13.890625 
Q 24.171875 6.390625 31.78125 6.390625 
Q 39.453125 6.390625 43.28125 13.890625 
Q 47.125 21.390625 47.125 36.375 
Q 47.125 51.421875 43.28125 58.90625 
Q 39.453125 66.40625 31.78125 66.40625 
z
M 31.78125 74.21875 
Q 44.046875 74.21875 50.515625 64.515625 
Q 56.984375 54.828125 56.984375 36.375 
Q 56.984375 17.96875 50.515625 8.265625 
Q 44.046875 -1.421875 31.78125 -1.421875 
Q 19.53125 -1.421875 13.0625 8.265625 
Q 6.59375 17.96875 6.59375 36.375 
Q 6.59375 54.828125 13.0625 64.515625 
Q 19.53125 74.21875 31.78125 74.21875 
z
" id="DejaVuSans-48"/>
       </defs>
       <use xlink:href="#DejaVuSans-48"/>
      </g>
     </g>
    </g>
    <g id="xtick_2">
     <g id="line2d_2">
      <g>
       <use style="stroke:#000000;stroke-width:0.8;" x="138.763636" xlink:href="#m915ecf8bf3" y="307.584"/>
      </g>
     </g>
     <g id="text_2">
      <!-- 2000 -->
      <g transform="translate(126.038636 322.182437)scale(0.1 -0.1)">
       <defs>
        <path d="M 19.1875 8.296875 
L 53.609375 8.296875 
L 53.609375 0 
L 7.328125 0 
L 7.328125 8.296875 
Q 12.9375 14.109375 22.625 23.890625 
Q 32.328125 33.6875 34.8125 36.53125 
Q 39.546875 41.84375 41.421875 45.53125 
Q 43.3125 49.21875 43.3125 52.78125 
Q 43.3125 58.59375 39.234375 62.25 
Q 35.15625 65.921875 28.609375 65.921875 
Q 23.96875 65.921875 18.8125 64.3125 
Q 13.671875 62.703125 7.8125 59.421875 
L 7.8125 69.390625 
Q 13.765625 71.78125 18.9375 73 
Q 24.125 74.21875 28.421875 74.21875 
Q 39.75 74.21875 46.484375 68.546875 
Q 53.21875 62.890625 53.21875 53.421875 
Q 53.21875 48.921875 51.53125 44.890625 
Q 49.859375 40.875 45.40625 35.40625 
Q 44.1875 33.984375 37.640625 27.21875 
Q 31.109375 20.453125 19.1875 8.296875 
z
" id="DejaVuSans-50"/>
       </defs>
       <use xlink:href="#DejaVuSans-50"/>
       <use x="63.623047" xlink:href="#DejaVuSans-48"/>
       <use x="127.246094" xlink:href="#DejaVuSans-48"/>
       <use x="190.869141" xlink:href="#DejaVuSans-48"/>
      </g>
     </g>
    </g>
    <g id="xtick_3">
     <g id="line2d_3">
      <g>
       <use style="stroke:#000000;stroke-width:0.8;" x="203.694545" xlink:href="#m915ecf8bf3" y="307.584"/>
      </g>
     </g>
     <g id="text_3">
      <!-- 4000 -->
      <g transform="translate(190.969545 322.182437)scale(0.1 -0.1)">
       <defs>
        <path d="M 37.796875 64.3125 
L 12.890625 25.390625 
L 37.796875 25.390625 
z
M 35.203125 72.90625 
L 47.609375 72.90625 
L 47.609375 25.390625 
L 58.015625 25.390625 
L 58.015625 17.1875 
L 47.609375 17.1875 
L 47.609375 0 
L 37.796875 0 
L 37.796875 17.1875 
L 4.890625 17.1875 
L 4.890625 26.703125 
z
" id="DejaVuSans-52"/>
       </defs>
       <use xlink:href="#DejaVuSans-52"/>
       <use x="63.623047" xlink:href="#DejaVuSans-48"/>
       <use x="127.246094" xlink:href="#DejaVuSans-48"/>
       <use x="190.869141" xlink:href="#DejaVuSans-48"/>
      </g>
     </g>
    </g>
    <g id="xtick_4">
     <g id="line2d_4">
      <g>
       <use style="stroke:#000000;stroke-width:0.8;" x="268.625455" xlink:href="#m915ecf8bf3" y="307.584"/>
      </g>
     </g>
     <g id="text_4">
      <!-- 6000 -->
      <g transform="translate(255.900455 322.182437)scale(0.1 -0.1)">
       <defs>
        <path d="M 33.015625 40.375 
Q 26.375 40.375 22.484375 35.828125 
Q 18.609375 31.296875 18.609375 23.390625 
Q 18.609375 15.53125 22.484375 10.953125 
Q 26.375 6.390625 33.015625 6.390625 
Q 39.65625 6.390625 43.53125 10.953125 
Q 47.40625 15.53125 47.40625 23.390625 
Q 47.40625 31.296875 43.53125 35.828125 
Q 39.65625 40.375 33.015625 40.375 
z
M 52.59375 71.296875 
L 52.59375 62.3125 
Q 48.875 64.0625 45.09375 64.984375 
Q 41.3125 65.921875 37.59375 65.921875 
Q 27.828125 65.921875 22.671875 59.328125 
Q 17.53125 52.734375 16.796875 39.40625 
Q 19.671875 43.65625 24.015625 45.921875 
Q 28.375 48.1875 33.59375 48.1875 
Q 44.578125 48.1875 50.953125 41.515625 
Q 57.328125 34.859375 57.328125 23.390625 
Q 57.328125 12.15625 50.6875 5.359375 
Q 44.046875 -1.421875 33.015625 -1.421875 
Q 20.359375 -1.421875 13.671875 8.265625 
Q 6.984375 17.96875 6.984375 36.375 
Q 6.984375 53.65625 15.1875 63.9375 
Q 23.390625 74.21875 37.203125 74.21875 
Q 40.921875 74.21875 44.703125 73.484375 
Q 48.484375 72.75 52.59375 71.296875 
z
" id="DejaVuSans-54"/>
       </defs>
       <use xlink:href="#DejaVuSans-54"/>
       <use x="63.623047" xlink:href="#DejaVuSans-48"/>
       <use x="127.246094" xlink:href="#DejaVuSans-48"/>
       <use x="190.869141" xlink:href="#DejaVuSans-48"/>
      </g>
     </g>
    </g>
    <g id="xtick_5">
     <g id="line2d_5">
      <g>
       <use style="stroke:#000000;stroke-width:0.8;" x="333.556364" xlink:href="#m915ecf8bf3" y="307.584"/>
      </g>
     </g>
     <g id="text_5">
      <!-- 8000 -->
      <g transform="translate(320.831364 322.182437)scale(0.1 -0.1)">
       <defs>
        <path d="M 31.78125 34.625 
Q 24.75 34.625 20.71875 30.859375 
Q 16.703125 27.09375 16.703125 20.515625 
Q 16.703125 13.921875 20.71875 10.15625 
Q 24.75 6.390625 31.78125 6.390625 
Q 38.8125 6.390625 42.859375 10.171875 
Q 46.921875 13.96875 46.921875 20.515625 
Q 46.921875 27.09375 42.890625 30.859375 
Q 38.875 34.625 31.78125 34.625 
z
M 21.921875 38.8125 
Q 15.578125 40.375 12.03125 44.71875 
Q 8.5 49.078125 8.5 55.328125 
Q 8.5 64.0625 14.71875 69.140625 
Q 20.953125 74.21875 31.78125 74.21875 
Q 42.671875 74.21875 48.875 69.140625 
Q 55.078125 64.0625 55.078125 55.328125 
Q 55.078125 49.078125 51.53125 44.71875 
Q 48 40.375 41.703125 38.8125 
Q 48.828125 37.15625 52.796875 32.3125 
Q 56.78125 27.484375 56.78125 20.515625 
Q 56.78125 9.90625 50.3125 4.234375 
Q 43.84375 -1.421875 31.78125 -1.421875 
Q 19.734375 -1.421875 13.25 4.234375 
Q 6.78125 9.90625 6.78125 20.515625 
Q 6.78125 27.484375 10.78125 32.3125 
Q 14.796875 37.15625 21.921875 38.8125 
z
M 18.3125 54.390625 
Q 18.3125 48.734375 21.84375 45.5625 
Q 25.390625 42.390625 31.78125 42.390625 
Q 38.140625 42.390625 41.71875 45.5625 
Q 45.3125 48.734375 45.3125 54.390625 
Q 45.3125 60.0625 41.71875 63.234375 
Q 38.140625 66.40625 31.78125 66.40625 
Q 25.390625 66.40625 21.84375 63.234375 
Q 18.3125 60.0625 18.3125 54.390625 
z
" id="DejaVuSans-56"/>
       </defs>
       <use xlink:href="#DejaVuSans-56"/>
       <use x="63.623047" xlink:href="#DejaVuSans-48"/>
       <use x="127.246094" xlink:href="#DejaVuSans-48"/>
       <use x="190.869141" xlink:href="#DejaVuSans-48"/>
      </g>
     </g>
    </g>
    <g id="xtick_6">
     <g id="line2d_6">
      <g>
       <use style="stroke:#000000;stroke-width:0.8;" x="398.487273" xlink:href="#m915ecf8bf3" y="307.584"/>
      </g>
     </g>
     <g id="text_6">
      <!-- 10000 -->
      <g transform="translate(382.581023 322.182437)scale(0.1 -0.1)">
       <defs>
        <path d="M 12.40625 8.296875 
L 28.515625 8.296875 
L 28.515625 63.921875 
L 10.984375 60.40625 
L 10.984375 69.390625 
L 28.421875 72.90625 
L 38.28125 72.90625 
L 38.28125 8.296875 
L 54.390625 8.296875 
L 54.390625 0 
L 12.40625 0 
z
" id="DejaVuSans-49"/>
       </defs>
       <use xlink:href="#DejaVuSans-49"/>
       <use x="63.623047" xlink:href="#DejaVuSans-48"/>
       <use x="127.246094" xlink:href="#DejaVuSans-48"/>
       <use x="190.869141" xlink:href="#DejaVuSans-48"/>
       <use x="254.492188" xlink:href="#DejaVuSans-48"/>
      </g>
     </g>
    </g>
    <g id="text_7">
     <!-- Num-time-steps -->
     <g transform="translate(196.056094 335.860562)scale(0.1 -0.1)">
      <defs>
       <path d="M 9.8125 72.90625 
L 23.09375 72.90625 
L 55.421875 11.921875 
L 55.421875 72.90625 
L 64.984375 72.90625 
L 64.984375 0 
L 51.703125 0 
L 19.390625 60.984375 
L 19.390625 0 
L 9.8125 0 
z
" id="DejaVuSans-78"/>
       <path d="M 8.5 21.578125 
L 8.5 54.6875 
L 17.484375 54.6875 
L 17.484375 21.921875 
Q 17.484375 14.15625 20.5 10.265625 
Q 23.53125 6.390625 29.59375 6.390625 
Q 36.859375 6.390625 41.078125 11.03125 
Q 45.3125 15.671875 45.3125 23.6875 
L 45.3125 54.6875 
L 54.296875 54.6875 
L 54.296875 0 
L 45.3125 0 
L 45.3125 8.40625 
Q 42.046875 3.421875 37.71875 1 
Q 33.40625 -1.421875 27.6875 -1.421875 
Q 18.265625 -1.421875 13.375 4.4375 
Q 8.5 10.296875 8.5 21.578125 
z
M 31.109375 56 
z
" id="DejaVuSans-117"/>
       <path d="M 52 44.1875 
Q 55.375 50.25 60.0625 53.125 
Q 64.75 56 71.09375 56 
Q 79.640625 56 84.28125 50.015625 
Q 88.921875 44.046875 88.921875 33.015625 
L 88.921875 0 
L 79.890625 0 
L 79.890625 32.71875 
Q 79.890625 40.578125 77.09375 44.375 
Q 74.3125 48.1875 68.609375 48.1875 
Q 61.625 48.1875 57.5625 43.546875 
Q 53.515625 38.921875 53.515625 30.90625 
L 53.515625 0 
L 44.484375 0 
L 44.484375 32.71875 
Q 44.484375 40.625 41.703125 44.40625 
Q 38.921875 48.1875 33.109375 48.1875 
Q 26.21875 48.1875 22.15625 43.53125 
Q 18.109375 38.875 18.109375 30.90625 
L 18.109375 0 
L 9.078125 0 
L 9.078125 54.6875 
L 18.109375 54.6875 
L 18.109375 46.1875 
Q 21.1875 51.21875 25.484375 53.609375 
Q 29.78125 56 35.6875 56 
Q 41.65625 56 45.828125 52.96875 
Q 50 49.953125 52 44.1875 
z
" id="DejaVuSans-109"/>
       <path d="M 4.890625 31.390625 
L 31.203125 31.390625 
L 31.203125 23.390625 
L 4.890625 23.390625 
z
" id="DejaVuSans-45"/>
       <path d="M 18.3125 70.21875 
L 18.3125 54.6875 
L 36.8125 54.6875 
L 36.8125 47.703125 
L 18.3125 47.703125 
L 18.3125 18.015625 
Q 18.3125 11.328125 20.140625 9.421875 
Q 21.96875 7.515625 27.59375 7.515625 
L 36.8125 7.515625 
L 36.8125 0 
L 27.59375 0 
Q 17.1875 0 13.234375 3.875 
Q 9.28125 7.765625 9.28125 18.015625 
L 9.28125 47.703125 
L 2.6875 47.703125 
L 2.6875 54.6875 
L 9.28125 54.6875 
L 9.28125 70.21875 
z
" id="DejaVuSans-116"/>
       <path d="M 9.421875 54.6875 
L 18.40625 54.6875 
L 18.40625 0 
L 9.421875 0 
z
M 9.421875 75.984375 
L 18.40625 75.984375 
L 18.40625 64.59375 
L 9.421875 64.59375 
z
" id="DejaVuSans-105"/>
       <path d="M 56.203125 29.59375 
L 56.203125 25.203125 
L 14.890625 25.203125 
Q 15.484375 15.921875 20.484375 11.0625 
Q 25.484375 6.203125 34.421875 6.203125 
Q 39.59375 6.203125 44.453125 7.46875 
Q 49.3125 8.734375 54.109375 11.28125 
L 54.109375 2.78125 
Q 49.265625 0.734375 44.1875 -0.34375 
Q 39.109375 -1.421875 33.890625 -1.421875 
Q 20.796875 -1.421875 13.15625 6.1875 
Q 5.515625 13.8125 5.515625 26.8125 
Q 5.515625 40.234375 12.765625 48.109375 
Q 20.015625 56 32.328125 56 
Q 43.359375 56 49.78125 48.890625 
Q 56.203125 41.796875 56.203125 29.59375 
z
M 47.21875 32.234375 
Q 47.125 39.59375 43.09375 43.984375 
Q 39.0625 48.390625 32.421875 48.390625 
Q 24.90625 48.390625 20.390625 44.140625 
Q 15.875 39.890625 15.1875 32.171875 
z
" id="DejaVuSans-101"/>
       <path d="M 44.28125 53.078125 
L 44.28125 44.578125 
Q 40.484375 46.53125 36.375 47.5 
Q 32.28125 48.484375 27.875 48.484375 
Q 21.1875 48.484375 17.84375 46.4375 
Q 14.5 44.390625 14.5 40.28125 
Q 14.5 37.15625 16.890625 35.375 
Q 19.28125 33.59375 26.515625 31.984375 
L 29.59375 31.296875 
Q 39.15625 29.25 43.1875 25.515625 
Q 47.21875 21.78125 47.21875 15.09375 
Q 47.21875 7.46875 41.1875 3.015625 
Q 35.15625 -1.421875 24.609375 -1.421875 
Q 20.21875 -1.421875 15.453125 -0.5625 
Q 10.6875 0.296875 5.421875 2 
L 5.421875 11.28125 
Q 10.40625 8.6875 15.234375 7.390625 
Q 20.0625 6.109375 24.8125 6.109375 
Q 31.15625 6.109375 34.5625 8.28125 
Q 37.984375 10.453125 37.984375 14.40625 
Q 37.984375 18.0625 35.515625 20.015625 
Q 33.0625 21.96875 24.703125 23.78125 
L 21.578125 24.515625 
Q 13.234375 26.265625 9.515625 29.90625 
Q 5.8125 33.546875 5.8125 39.890625 
Q 5.8125 47.609375 11.28125 51.796875 
Q 16.75 56 26.8125 56 
Q 31.78125 56 36.171875 55.265625 
Q 40.578125 54.546875 44.28125 53.078125 
z
" id="DejaVuSans-115"/>
       <path d="M 18.109375 8.203125 
L 18.109375 -20.796875 
L 9.078125 -20.796875 
L 9.078125 54.6875 
L 18.109375 54.6875 
L 18.109375 46.390625 
Q 20.953125 51.265625 25.265625 53.625 
Q 29.59375 56 35.59375 56 
Q 45.5625 56 51.78125 48.09375 
Q 58.015625 40.1875 58.015625 27.296875 
Q 58.015625 14.40625 51.78125 6.484375 
Q 45.5625 -1.421875 35.59375 -1.421875 
Q 29.59375 -1.421875 25.265625 0.953125 
Q 20.953125 3.328125 18.109375 8.203125 
z
M 48.6875 27.296875 
Q 48.6875 37.203125 44.609375 42.84375 
Q 40.53125 48.484375 33.40625 48.484375 
Q 26.265625 48.484375 22.1875 42.84375 
Q 18.109375 37.203125 18.109375 27.296875 
Q 18.109375 17.390625 22.1875 11.75 
Q 26.265625 6.109375 33.40625 6.109375 
Q 40.53125 6.109375 44.609375 11.75 
Q 48.6875 17.390625 48.6875 27.296875 
z
" id="DejaVuSans-112"/>
      </defs>
      <use xlink:href="#DejaVuSans-78"/>
      <use x="74.804688" xlink:href="#DejaVuSans-117"/>
      <use x="138.183594" xlink:href="#DejaVuSans-109"/>
      <use x="235.595703" xlink:href="#DejaVuSans-45"/>
      <use x="271.679688" xlink:href="#DejaVuSans-116"/>
      <use x="310.888672" xlink:href="#DejaVuSans-105"/>
      <use x="338.671875" xlink:href="#DejaVuSans-109"/>
      <use x="436.083984" xlink:href="#DejaVuSans-101"/>
      <use x="497.607422" xlink:href="#DejaVuSans-45"/>
      <use x="533.691406" xlink:href="#DejaVuSans-115"/>
      <use x="585.791016" xlink:href="#DejaVuSans-116"/>
      <use x="625" xlink:href="#DejaVuSans-101"/>
      <use x="686.523438" xlink:href="#DejaVuSans-112"/>
      <use x="750" xlink:href="#DejaVuSans-115"/>
     </g>
    </g>
   </g>
   <g id="matplotlib.axis_2">
    <g id="ytick_1">
     <g id="line2d_7">
      <defs>
       <path d="M 0 0 
L -3.5 0 
" id="me4db92b9d1" style="stroke:#000000;stroke-width:0.8;"/>
      </defs>
      <g>
       <use style="stroke:#000000;stroke-width:0.8;" x="57.6" xlink:href="#me4db92b9d1" y="305.947025"/>
      </g>
     </g>
     <g id="text_8">
      <!-- 0.0 -->
      <g transform="translate(34.696875 309.746244)scale(0.1 -0.1)">
       <defs>
        <path d="M 10.6875 12.40625 
L 21 12.40625 
L 21 0 
L 10.6875 0 
z
" id="DejaVuSans-46"/>
       </defs>
       <use xlink:href="#DejaVuSans-48"/>
       <use x="63.623047" xlink:href="#DejaVuSans-46"/>
       <use x="95.410156" xlink:href="#DejaVuSans-48"/>
      </g>
     </g>
    </g>
    <g id="ytick_2">
     <g id="line2d_8">
      <g>
       <use style="stroke:#000000;stroke-width:0.8;" x="57.6" xlink:href="#me4db92b9d1" y="253.727909"/>
      </g>
     </g>
     <g id="text_9">
      <!-- 0.1 -->
      <g transform="translate(34.696875 257.527128)scale(0.1 -0.1)">
       <use xlink:href="#DejaVuSans-48"/>
       <use x="63.623047" xlink:href="#DejaVuSans-46"/>
       <use x="95.410156" xlink:href="#DejaVuSans-49"/>
      </g>
     </g>
    </g>
    <g id="ytick_3">
     <g id="line2d_9">
      <g>
       <use style="stroke:#000000;stroke-width:0.8;" x="57.6" xlink:href="#me4db92b9d1" y="201.508793"/>
      </g>
     </g>
     <g id="text_10">
      <!-- 0.2 -->
      <g transform="translate(34.696875 205.308012)scale(0.1 -0.1)">
       <use xlink:href="#DejaVuSans-48"/>
       <use x="63.623047" xlink:href="#DejaVuSans-46"/>
       <use x="95.410156" xlink:href="#DejaVuSans-50"/>
      </g>
     </g>
    </g>
    <g id="ytick_4">
     <g id="line2d_10">
      <g>
       <use style="stroke:#000000;stroke-width:0.8;" x="57.6" xlink:href="#me4db92b9d1" y="149.289677"/>
      </g>
     </g>
     <g id="text_11">
      <!-- 0.3 -->
      <g transform="translate(34.696875 153.088896)scale(0.1 -0.1)">
       <defs>
        <path d="M 40.578125 39.3125 
Q 47.65625 37.796875 51.625 33 
Q 55.609375 28.21875 55.609375 21.1875 
Q 55.609375 10.40625 48.1875 4.484375 
Q 40.765625 -1.421875 27.09375 -1.421875 
Q 22.515625 -1.421875 17.65625 -0.515625 
Q 12.796875 0.390625 7.625 2.203125 
L 7.625 11.71875 
Q 11.71875 9.328125 16.59375 8.109375 
Q 21.484375 6.890625 26.8125 6.890625 
Q 36.078125 6.890625 40.9375 10.546875 
Q 45.796875 14.203125 45.796875 21.1875 
Q 45.796875 27.640625 41.28125 31.265625 
Q 36.765625 34.90625 28.71875 34.90625 
L 20.21875 34.90625 
L 20.21875 43.015625 
L 29.109375 43.015625 
Q 36.375 43.015625 40.234375 45.921875 
Q 44.09375 48.828125 44.09375 54.296875 
Q 44.09375 59.90625 40.109375 62.90625 
Q 36.140625 65.921875 28.71875 65.921875 
Q 24.65625 65.921875 20.015625 65.03125 
Q 15.375 64.15625 9.8125 62.3125 
L 9.8125 71.09375 
Q 15.4375 72.65625 20.34375 73.4375 
Q 25.25 74.21875 29.59375 74.21875 
Q 40.828125 74.21875 47.359375 69.109375 
Q 53.90625 64.015625 53.90625 55.328125 
Q 53.90625 49.265625 50.4375 45.09375 
Q 46.96875 40.921875 40.578125 39.3125 
z
" id="DejaVuSans-51"/>
       </defs>
       <use xlink:href="#DejaVuSans-48"/>
       <use x="63.623047" xlink:href="#DejaVuSans-46"/>
       <use x="95.410156" xlink:href="#DejaVuSans-51"/>
      </g>
     </g>
    </g>
    <g id="ytick_5">
     <g id="line2d_11">
      <g>
       <use style="stroke:#000000;stroke-width:0.8;" x="57.6" xlink:href="#me4db92b9d1" y="97.070561"/>
      </g>
     </g>
     <g id="text_12">
      <!-- 0.4 -->
      <g transform="translate(34.696875 100.86978)scale(0.1 -0.1)">
       <use xlink:href="#DejaVuSans-48"/>
       <use x="63.623047" xlink:href="#DejaVuSans-46"/>
       <use x="95.410156" xlink:href="#DejaVuSans-52"/>
      </g>
     </g>
    </g>
    <g id="ytick_6">
     <g id="line2d_12">
      <g>
       <use style="stroke:#000000;stroke-width:0.8;" x="57.6" xlink:href="#me4db92b9d1" y="44.851445"/>
      </g>
     </g>
     <g id="text_13">
      <!-- 0.5 -->
      <g transform="translate(34.696875 48.650664)scale(0.1 -0.1)">
       <defs>
        <path d="M 10.796875 72.90625 
L 49.515625 72.90625 
L 49.515625 64.59375 
L 19.828125 64.59375 
L 19.828125 46.734375 
Q 21.96875 47.46875 24.109375 47.828125 
Q 26.265625 48.1875 28.421875 48.1875 
Q 40.625 48.1875 47.75 41.5 
Q 54.890625 34.8125 54.890625 23.390625 
Q 54.890625 11.625 47.5625 5.09375 
Q 40.234375 -1.421875 26.90625 -1.421875 
Q 22.3125 -1.421875 17.546875 -0.640625 
Q 12.796875 0.140625 7.71875 1.703125 
L 7.71875 11.625 
Q 12.109375 9.234375 16.796875 8.0625 
Q 21.484375 6.890625 26.703125 6.890625 
Q 35.15625 6.890625 40.078125 11.328125 
Q 45.015625 15.765625 45.015625 23.390625 
Q 45.015625 31 40.078125 35.4375 
Q 35.15625 39.890625 26.703125 39.890625 
Q 22.75 39.890625 18.8125 39.015625 
Q 14.890625 38.140625 10.796875 36.28125 
z
" id="DejaVuSans-53"/>
       </defs>
       <use xlink:href="#DejaVuSans-48"/>
       <use x="63.623047" xlink:href="#DejaVuSans-46"/>
       <use x="95.410156" xlink:href="#DejaVuSans-53"/>
      </g>
     </g>
    </g>
    <g id="text_14">
     <!-- Obj-pose-error-norm -->
     <g transform="translate(28.617187 225.203781)rotate(-90)scale(0.1 -0.1)">
      <defs>
       <path d="M 39.40625 66.21875 
Q 28.65625 66.21875 22.328125 58.203125 
Q 16.015625 50.203125 16.015625 36.375 
Q 16.015625 22.609375 22.328125 14.59375 
Q 28.65625 6.59375 39.40625 6.59375 
Q 50.140625 6.59375 56.421875 14.59375 
Q 62.703125 22.609375 62.703125 36.375 
Q 62.703125 50.203125 56.421875 58.203125 
Q 50.140625 66.21875 39.40625 66.21875 
z
M 39.40625 74.21875 
Q 54.734375 74.21875 63.90625 63.9375 
Q 73.09375 53.65625 73.09375 36.375 
Q 73.09375 19.140625 63.90625 8.859375 
Q 54.734375 -1.421875 39.40625 -1.421875 
Q 24.03125 -1.421875 14.8125 8.828125 
Q 5.609375 19.09375 5.609375 36.375 
Q 5.609375 53.65625 14.8125 63.9375 
Q 24.03125 74.21875 39.40625 74.21875 
z
" id="DejaVuSans-79"/>
       <path d="M 48.6875 27.296875 
Q 48.6875 37.203125 44.609375 42.84375 
Q 40.53125 48.484375 33.40625 48.484375 
Q 26.265625 48.484375 22.1875 42.84375 
Q 18.109375 37.203125 18.109375 27.296875 
Q 18.109375 17.390625 22.1875 11.75 
Q 26.265625 6.109375 33.40625 6.109375 
Q 40.53125 6.109375 44.609375 11.75 
Q 48.6875 17.390625 48.6875 27.296875 
z
M 18.109375 46.390625 
Q 20.953125 51.265625 25.265625 53.625 
Q 29.59375 56 35.59375 56 
Q 45.5625 56 51.78125 48.09375 
Q 58.015625 40.1875 58.015625 27.296875 
Q 58.015625 14.40625 51.78125 6.484375 
Q 45.5625 -1.421875 35.59375 -1.421875 
Q 29.59375 -1.421875 25.265625 0.953125 
Q 20.953125 3.328125 18.109375 8.203125 
L 18.109375 0 
L 9.078125 0 
L 9.078125 75.984375 
L 18.109375 75.984375 
z
" id="DejaVuSans-98"/>
       <path d="M 9.421875 54.6875 
L 18.40625 54.6875 
L 18.40625 -0.984375 
Q 18.40625 -11.421875 14.421875 -16.109375 
Q 10.453125 -20.796875 1.609375 -20.796875 
L -1.8125 -20.796875 
L -1.8125 -13.1875 
L 0.59375 -13.1875 
Q 5.71875 -13.1875 7.5625 -10.8125 
Q 9.421875 -8.453125 9.421875 -0.984375 
z
M 9.421875 75.984375 
L 18.40625 75.984375 
L 18.40625 64.59375 
L 9.421875 64.59375 
z
" id="DejaVuSans-106"/>
       <path d="M 30.609375 48.390625 
Q 23.390625 48.390625 19.1875 42.75 
Q 14.984375 37.109375 14.984375 27.296875 
Q 14.984375 17.484375 19.15625 11.84375 
Q 23.34375 6.203125 30.609375 6.203125 
Q 37.796875 6.203125 41.984375 11.859375 
Q 46.1875 17.53125 46.1875 27.296875 
Q 46.1875 37.015625 41.984375 42.703125 
Q 37.796875 48.390625 30.609375 48.390625 
z
M 30.609375 56 
Q 42.328125 56 49.015625 48.375 
Q 55.71875 40.765625 55.71875 27.296875 
Q 55.71875 13.875 49.015625 6.21875 
Q 42.328125 -1.421875 30.609375 -1.421875 
Q 18.84375 -1.421875 12.171875 6.21875 
Q 5.515625 13.875 5.515625 27.296875 
Q 5.515625 40.765625 12.171875 48.375 
Q 18.84375 56 30.609375 56 
z
" id="DejaVuSans-111"/>
       <path d="M 41.109375 46.296875 
Q 39.59375 47.171875 37.8125 47.578125 
Q 36.03125 48 33.890625 48 
Q 26.265625 48 22.1875 43.046875 
Q 18.109375 38.09375 18.109375 28.8125 
L 18.109375 0 
L 9.078125 0 
L 9.078125 54.6875 
L 18.109375 54.6875 
L 18.109375 46.1875 
Q 20.953125 51.171875 25.484375 53.578125 
Q 30.03125 56 36.53125 56 
Q 37.453125 56 38.578125 55.875 
Q 39.703125 55.765625 41.0625 55.515625 
z
" id="DejaVuSans-114"/>
       <path d="M 54.890625 33.015625 
L 54.890625 0 
L 45.90625 0 
L 45.90625 32.71875 
Q 45.90625 40.484375 42.875 44.328125 
Q 39.84375 48.1875 33.796875 48.1875 
Q 26.515625 48.1875 22.3125 43.546875 
Q 18.109375 38.921875 18.109375 30.90625 
L 18.109375 0 
L 9.078125 0 
L 9.078125 54.6875 
L 18.109375 54.6875 
L 18.109375 46.1875 
Q 21.34375 51.125 25.703125 53.5625 
Q 30.078125 56 35.796875 56 
Q 45.21875 56 50.046875 50.171875 
Q 54.890625 44.34375 54.890625 33.015625 
z
" id="DejaVuSans-110"/>
      </defs>
      <use xlink:href="#DejaVuSans-79"/>
      <use x="78.710938" xlink:href="#DejaVuSans-98"/>
      <use x="142.1875" xlink:href="#DejaVuSans-106"/>
      <use x="169.970703" xlink:href="#DejaVuSans-45"/>
      <use x="206.054688" xlink:href="#DejaVuSans-112"/>
      <use x="269.53125" xlink:href="#DejaVuSans-111"/>
      <use x="330.712891" xlink:href="#DejaVuSans-115"/>
      <use x="382.8125" xlink:href="#DejaVuSans-101"/>
      <use x="444.335938" xlink:href="#DejaVuSans-45"/>
      <use x="480.419922" xlink:href="#DejaVuSans-101"/>
      <use x="541.943359" xlink:href="#DejaVuSans-114"/>
      <use x="581.306641" xlink:href="#DejaVuSans-114"/>
      <use x="620.169922" xlink:href="#DejaVuSans-111"/>
      <use x="681.351562" xlink:href="#DejaVuSans-114"/>
      <use x="716.089844" xlink:href="#DejaVuSans-45"/>
      <use x="752.173828" xlink:href="#DejaVuSans-110"/>
      <use x="815.552734" xlink:href="#DejaVuSans-111"/>
      <use x="876.734375" xlink:href="#DejaVuSans-114"/>
      <use x="916.097656" xlink:href="#DejaVuSans-109"/>
     </g>
    </g>
   </g>
   <g id="line2d_13">
    <path clip-path="url(#pbea9f5099f)" d="M 73.832727 295.175663 
L 73.865193 295.485423 
L 74.02752 275.000889 
L 74.319709 243.351464 
L 74.514502 293.505602 
L 74.546967 287.242591 
L 74.611898 256.73589 
L 74.676829 266.662604 
L 74.839156 282.211795 
L 75.066415 287.489356 
L 75.131345 286.679105 
L 75.391069 276.096684 
L 75.942982 254.596339 
L 76.624756 241.872938 
L 76.787084 234.929024 
L 77.144204 221.161039 
L 77.923375 192.039376 
L 78.31296 185.884 
L 79.286924 175.389545 
L 80.325818 158.368347 
L 80.390749 158.342152 
L 80.423215 158.390222 
L 80.877731 159.496531 
L 80.910196 159.482694 
L 81.007593 159.281313 
L 81.16992 158.158391 
L 82.046487 152.691623 
L 82.338676 152.297557 
L 82.630865 152.311039 
L 83.085382 151.927074 
L 83.31264 151.989565 
L 83.897018 151.777524 
L 84.546327 150.816976 
L 84.838516 150.516155 
L 85.000844 150.511416 
L 85.163171 150.840317 
L 85.45536 152.057564 
L 85.715084 152.699172 
L 86.072204 153.211896 
L 86.494255 153.897134 
L 87.273425 155.376814 
L 87.9552 157.201255 
L 88.247389 157.750669 
L 88.701905 158.431995 
L 88.929164 158.456562 
L 89.156422 158.281476 
L 89.318749 158.488014 
L 90.357644 160.686694 
L 90.747229 160.484896 
L 90.974487 160.895828 
L 92.013382 163.643948 
L 92.273105 163.849115 
L 93.019811 165.539722 
L 93.376931 165.308444 
L 93.539258 165.437135 
L 94.123636 166.521333 
L 94.578153 167.652941 
L 94.805411 168.057316 
L 95.714444 169.862717 
L 96.493615 170.623127 
L 96.915665 171.401904 
L 97.824698 172.593916 
L 98.701265 174.728164 
L 99.155782 175.05223 
L 99.675229 176.501761 
L 100.129745 177.617489 
L 100.714124 178.493021 
L 103.376291 186.650095 
L 104.220393 189.339412 
L 104.642444 190.304382 
L 106.590371 196.784667 
L 106.915025 197.680833 
L 107.337076 199.472547 
L 108.31104 204.112183 
L 108.700625 204.917954 
L 109.02528 205.608069 
L 109.414865 206.996384 
L 110.616087 211.519527 
L 111.265396 213.262647 
L 111.784844 215.070121 
L 112.304291 217.363132 
L 112.661411 218.958749 
L 113.180858 222.469254 
L 113.213324 222.471846 
L 113.343185 223.300886 
L 113.927564 227.585924 
L 114.38208 230.250943 
L 114.836596 231.435299 
L 115.193716 231.853034 
L 115.388509 231.972229 
L 115.778095 232.424117 
L 116.005353 232.964494 
L 116.232611 233.929464 
L 116.979316 237.296756 
L 117.044247 237.409517 
L 117.271505 238.207296 
L 117.498764 238.777258 
L 117.59616 238.743941 
L 117.726022 238.349059 
L 118.277935 236.366298 
L 118.537658 236.50467 
L 118.992175 237.583154 
L 119.446691 238.433288 
L 119.609018 238.501462 
L 119.771345 237.831738 
L 119.901207 237.823345 
L 120.031069 237.866832 
L 120.45312 237.201481 
L 120.712844 236.714706 
L 121.005033 236.588793 
L 121.232291 237.24268 
L 121.654342 238.723329 
L 121.946531 239.133748 
L 122.108858 238.994296 
L 122.271185 238.654865 
L 123.082822 235.93612 
L 123.180218 236.043089 
L 123.504873 236.734621 
L 123.732131 237.324201 
L 124.186647 237.287341 
L 124.868422 235.888351 
L 125.258007 235.21963 
L 125.517731 234.982075 
L 125.680058 234.693561 
L 125.874851 234.536732 
L 126.069644 234.441739 
L 126.394298 234.068578 
L 126.491695 234.209567 
L 126.621556 234.602031 
L 127.108538 236.739172 
L 127.530589 238.396716 
L 127.725382 239.217187 
L 128.244829 242.151582 
L 128.634415 244.623247 
L 128.764276 245.06873 
L 128.991535 246.820877 
L 129.218793 248.206659 
L 129.478516 248.42378 
L 129.575913 248.30569 
L 129.933033 247.730644 
L 130.160291 247.756153 
L 130.257687 247.847624 
L 130.290153 247.828563 
L 130.517411 247.840239 
L 130.712204 247.853986 
L 131.329047 246.84281 
L 131.718633 246.777585 
L 132.075753 246.171139 
L 132.5952 245.177807 
L 132.725062 245.291312 
L 133.179578 245.950783 
L 133.341905 245.973849 
L 133.699025 245.54227 
L 134.283404 244.265007 
L 134.705455 243.453246 
L 134.997644 243.232263 
L 135.257367 243.434356 
L 135.582022 244.391007 
L 135.776815 244.783635 
L 136.036538 244.685675 
L 136.1664 244.631816 
L 136.718313 243.939841 
L 137.562415 241.652001 
L 138.179258 241.016036 
L 138.601309 241.33144 
L 138.828567 241.049967 
L 139.02336 240.514047 
L 139.964858 237.558682 
L 140.09472 237.514353 
L 140.679098 236.967578 
L 142.302371 234.641043 
L 142.919215 234.093112 
L 143.243869 233.529508 
L 143.600989 233.265353 
L 144.120436 232.788417 
L 144.445091 232.867739 
L 144.672349 232.987311 
L 144.932073 232.778823 
L 145.483985 231.871644 
L 146.295622 229.706917 
L 146.555345 230.104811 
L 146.912465 230.429802 
L 147.074793 230.314373 
L 147.366982 229.553397 
L 147.691636 228.717083 
L 148.146153 228.282738 
L 148.827927 228.544415 
L 149.282444 228.51359 
L 149.899287 227.277576 
L 150.191476 227.022281 
L 150.353804 226.998222 
L 150.710924 226.812861 
L 151.100509 226.603227 
L 151.327767 226.485448 
L 151.977076 226.489917 
L 153.178298 224.838744 
L 153.405556 224.890098 
L 154.119796 225.499056 
L 154.509382 225.245194 
L 154.834036 225.51378 
L 155.223622 225.132466 
L 156.262516 223.744575 
L 156.424844 223.821089 
L 156.976756 224.443379 
L 157.268945 224.653948 
L 157.398807 224.625943 
L 157.658531 224.185065 
L 158.177978 223.014434 
L 158.957149 222.359066 
L 159.281804 221.951943 
L 159.638924 222.131756 
L 160.288233 221.526521 
L 160.515491 221.361007 
L 160.742749 221.206465 
L 161.846575 219.517715 
L 161.976436 219.557369 
L 162.495884 219.886637 
L 162.723142 219.753138 
L 163.242589 219.201234 
L 163.534778 218.721728 
L 163.697105 218.737282 
L 164.086691 219.041525 
L 164.411345 218.871632 
L 164.995724 218.097781 
L 165.028189 218.120113 
L 165.80736 218.212734 
L 166.87872 216.943371 
L 167.268305 216.889495 
L 167.560495 216.39462 
L 167.852684 215.888356 
L 168.144873 215.70482 
L 169.02144 214.916106 
L 169.37856 214.490493 
L 169.605818 214.406495 
L 169.833076 214.333212 
L 170.320058 213.870865 
L 170.80704 213.216591 
L 171.099229 212.907031 
L 171.52128 212.229055 
L 172.138124 211.551014 
L 172.59264 211.103569 
L 173.241949 210.068966 
L 174.865222 207.155798 
L 176.261236 203.37049 
L 178.696145 197.299711 
L 179.0208 196.687493 
L 179.410385 195.616539 
L 179.864902 194.360047 
L 182.819258 187.617347 
L 183.630895 186.145644 
L 184.280204 184.846339 
L 184.669789 184.353145 
L 184.702255 184.387869 
L 184.73472 184.297341 
L 184.961978 184.006048 
L 185.156771 183.591608 
L 185.546356 182.511226 
L 185.611287 183.084094 
L 185.643753 182.819019 
L 185.80608 181.995316 
L 185.838545 182.159167 
L 185.903476 181.96719 
L 186.065804 179.440936 
L 186.228131 177.880031 
L 186.487855 175.654608 
L 186.585251 172.976674 
L 186.682647 173.346023 
L 186.844975 173.640508 
L 187.104698 174.579292 
L 187.137164 174.143526 
L 187.202095 174.444839 
L 188.143593 180.175749 
L 188.338385 180.296666 
L 188.500713 180.000227 
L 189.02016 178.033042 
L 189.409745 176.919257 
L 189.701935 176.538829 
L 189.831796 176.468945 
L 190.123985 176.117662 
L 191.033018 175.043044 
L 192.071913 173.328513 
L 192.396567 173.461422 
L 192.623825 173.555047 
L 192.980945 173.295826 
L 193.3056 172.694453 
L 193.954909 171.581715 
L 194.247098 171.488338 
L 194.474356 171.444113 
L 195.740509 169.895397 
L 196.454749 169.275916 
L 197.168989 169.104148 
L 197.461178 169.18498 
L 198.175418 168.75467 
L 198.727331 168.599675 
L 199.344175 168.772904 
L 199.701295 168.678517 
L 199.961018 168.91444 
L 200.350604 169.389045 
L 200.545396 169.048325 
L 200.577862 169.104559 
L 200.610327 169.073721 
L 200.80512 168.787661 
L 201.194705 168.734405 
L 204.051665 171.924668 
L 204.278924 172.246039 
L 204.506182 172.894943 
L 204.700975 173.905687 
L 205.285353 175.396989 
L 205.869731 175.7856 
L 205.967127 176.108187 
L 205.999593 176.223671 
L 206.064524 176.173983 
L 206.16192 176.200757 
L 206.389178 176.595421 
L 206.454109 177.129112 
L 206.551505 177.101233 
L 207.135884 177.644959 
L 207.557935 177.998649 
L 207.94752 179.434318 
L 208.109847 179.780753 
L 208.369571 180.81767 
L 208.402036 181.041937 
L 208.466967 180.927626 
L 208.629295 180.948578 
L 209.700655 182.269446 
L 209.830516 182.610183 
L 209.992844 182.812322 
L 210.057775 183.429634 
L 210.122705 183.211101 
L 210.155171 183.14838 
L 210.187636 183.196418 
L 210.220102 183.530973 
L 210.285033 183.316979 
L 210.414895 183.271683 
L 210.512291 183.342558 
L 210.642153 183.482259 
L 210.80448 184.181562 
L 210.901876 183.950214 
L 210.999273 184.016387 
L 211.031738 184.482088 
L 211.129135 184.321996 
L 211.258996 184.404425 
L 211.323927 184.449113 
L 211.453789 185.927246 
L 211.486255 185.709318 
L 211.648582 185.355387 
L 211.681047 185.379036 
L 211.745978 185.478105 
L 211.778444 185.936924 
L 211.87584 185.859456 
L 212.038167 186.151072 
L 212.135564 186.535145 
L 212.265425 187.98379 
L 212.297891 187.816171 
L 212.427753 187.618534 
L 212.460218 187.63452 
L 212.752407 188.373286 
L 213.109527 189.842057 
L 213.206924 190.43415 
L 213.239389 190.234602 
L 213.336785 189.999259 
L 213.369251 190.054921 
L 213.401716 190.131827 
L 213.564044 191.257196 
L 213.66144 191.231443 
L 213.888698 190.624905 
L 213.921164 190.845731 
L 213.986095 190.688946 
L 214.278284 190.459911 
L 214.473076 190.460534 
L 214.635404 190.876947 
L 214.830196 191.327469 
L 214.992524 191.526634 
L 215.284713 191.971644 
L 215.609367 192.115964 
L 215.80416 192.391534 
L 216.031418 193.229534 
L 216.356073 194.258422 
L 216.5184 194.383824 
L 216.940451 194.244727 
L 217.362502 194.392424 
L 217.654691 194.593033 
L 218.141673 195.521611 
L 218.368931 196.068708 
L 218.790982 196.653901 
L 218.823447 196.607527 
L 218.985775 196.700395 
L 219.635084 197.617158 
L 219.927273 198.280948 
L 220.284393 198.583492 
L 220.511651 198.456565 
L 220.738909 198.419396 
L 221.031098 198.641164 
L 222.037527 200.157041 
L 222.459578 200.388746 
L 222.881629 200.292599 
L 223.043956 200.43358 
L 223.30368 201.005333 
L 224.082851 202.624909 
L 225.478865 203.875162 
L 231.647302 211.939396 
L 231.939491 212.289768 
L 232.394007 212.653756 
L 232.556335 212.634071 
L 232.751127 212.591255 
L 233.692625 212.8511 
L 233.919884 213.001445 
L 234.3744 213.539688 
L 234.699055 213.663251 
L 234.861382 213.677385 
L 235.478225 212.985461 
L 235.932742 212.79201 
L 239.081891 209.551983 
L 239.861062 207.248416 
L 240.640233 206.089862 
L 240.770095 206.12148 
L 240.80256 206.059119 
L 241.646662 204.215241 
L 242.198575 203.391885 
L 242.847884 202.135767 
L 243.107607 201.478618 
L 243.367331 201.172949 
L 243.821847 200.593126 
L 244.37376 199.342905 
L 244.698415 199.041598 
L 244.828276 198.977724 
L 244.925673 198.895125 
L 245.250327 198.572993 
L 245.704844 198.372155 
L 245.834705 198.347515 
L 246.094429 198.149078 
L 246.15936 198.205285 
L 246.191825 198.179247 
L 246.321687 197.842533 
L 246.581411 197.258689 
L 246.646342 197.199028 
L 246.678807 197.246767 
L 247.068393 197.579946 
L 247.263185 197.237806 
L 247.555375 196.594991 
L 247.782633 196.157263 
L 248.399476 195.210101 
L 248.496873 195.209337 
L 248.886458 194.690309 
L 249.048785 194.45627 
L 249.535767 193.60722 
L 249.763025 193.191442 
L 250.08768 192.791564 
L 250.250007 192.963511 
L 250.282473 192.911926 
L 250.639593 192.740247 
L 250.736989 192.650686 
L 251.256436 191.429933 
L 251.418764 191.19224 
L 251.87328 190.277182 
L 252.295331 189.368321 
L 252.360262 189.290099 
L 252.749847 188.191159 
L 253.009571 188.070831 
L 253.139433 188.132176 
L 253.269295 188.155727 
L 253.496553 187.845047 
L 253.918604 186.690383 
L 254.145862 186.332827 
L 254.697775 185.591913 
L 254.957498 185.376496 
L 255.022429 185.320542 
L 256.093789 182.930148 
L 256.385978 182.385623 
L 256.808029 181.493308 
L 256.840495 181.536263 
L 257.035287 181.741064 
L 257.23008 181.701743 
L 257.359942 181.446359 
L 257.684596 180.17124 
L 258.30144 177.792524 
L 258.528698 177.541323 
L 258.626095 177.586877 
L 258.788422 177.675325 
L 258.918284 177.515774 
L 259.113076 177.417265 
L 259.242938 177.355685 
L 260.08704 176.481897 
L 260.314298 175.879978 
L 260.638953 175.026122 
L 260.866211 174.349875 
L 261.51552 172.867617 
L 261.807709 172.451026 
L 262.067433 172.92468 
L 262.294691 173.081649 
L 262.457018 172.897665 
L 262.684276 172.672303 
L 262.944 172.423117 
L 263.528378 171.484107 
L 263.820567 170.64394 
L 264.112756 170.455922 
L 264.404945 170.417119 
L 264.502342 170.458044 
L 264.794531 170.832556 
L 265.054255 170.726827 
L 265.736029 169.948858 
L 266.060684 170.559868 
L 266.417804 171.536401 
L 266.612596 171.633208 
L 266.807389 171.382288 
L 267.002182 171.047293 
L 267.781353 170.469708 
L 268.008611 170.829292 
L 268.333265 171.694144 
L 268.65792 172.229905 
L 268.917644 172.315982 
L 269.437091 172.291744 
L 270.378589 173.103576 
L 270.898036 172.586883 
L 271.482415 172.938479 
L 271.677207 172.953738 
L 272.034327 173.446463 
L 272.58624 173.853026 
L 272.813498 173.838537 
L 272.94336 173.937253 
L 272.975825 173.913526 
L 273.235549 174.079483 
L 273.430342 174.123631 
L 273.690065 173.959721 
L 273.787462 173.938544 
L 274.144582 173.391731 
L 274.177047 173.418352 
L 274.696495 173.912311 
L 274.956218 173.666899 
L 275.183476 173.331694 
L 275.540596 173.197045 
L 275.80032 173.358726 
L 276.287302 174.072094 
L 276.676887 173.660052 
L 276.774284 172.712163 
L 276.87168 173.00217 
L 277.780713 174.372729 
L 277.910575 174.415723 
L 278.105367 173.919361 
L 278.267695 173.656062 
L 278.559884 173.651535 
L 278.819607 174.327331 
L 279.046865 174.570114 
L 279.306589 174.061267 
L 279.566313 173.517083 
L 279.631244 173.463948 
L 279.663709 173.508997 
L 280.08576 173.994244 
L 280.313018 173.909299 
L 280.670138 173.705797 
L 281.027258 173.410847 
L 281.222051 173.358472 
L 281.676567 173.326354 
L 281.968756 172.92443 
L 282.390807 172.175674 
L 282.488204 171.989358 
L 282.812858 171.534597 
L 283.007651 171.36069 
L 283.592029 170.534559 
L 283.981615 169.936748 
L 284.176407 169.85522 
L 284.338735 169.91283 
L 284.695855 169.492793 
L 285.247767 167.92375 
L 285.669818 166.888877 
L 286.026938 166.575318 
L 286.254196 166.198933 
L 288.559244 160.929432 
L 288.818967 160.236634 
L 289.305949 158.725618 
L 289.890327 157.50469 
L 290.539636 155.460407 
L 291.805789 151.308235 
L 295.604247 136.030594 
L 296.902865 130.220824 
L 297.617105 127.013569 
L 298.428742 123.56266 
L 299.402705 119.745563 
L 300.766255 113.657036 
L 303.071302 104.475002 
L 303.850473 101.501169 
L 304.499782 99.352759 
L 305.246487 96.631864 
L 305.993193 94.05399 
L 306.51264 92.676177 
L 308.428102 86.360044 
L 309.499462 82.261002 
L 310.051375 81.108415 
L 310.473425 80.415429 
L 310.765615 79.050379 
L 311.544785 75.934513 
L 312.486284 73.305796 
L 313.038196 71.376998 
L 313.427782 70.136311 
L 313.947229 69.031635 
L 314.564073 67.506686 
L 315.310778 65.928934 
L 316.86912 61.437536 
L 317.161309 61.067386 
L 317.258705 60.980047 
L 317.810618 59.998027 
L 318.752116 57.29436 
L 319.044305 56.985276 
L 319.076771 57.015073 
L 319.693615 57.418583 
L 320.018269 56.796736 
L 320.537716 55.514751 
L 320.862371 54.875496 
L 321.122095 54.780212 
L 321.414284 55.143588 
L 321.674007 55.472441 
L 321.706473 55.443605 
L 322.58304 54.828897 
L 322.777833 54.560992 
L 323.199884 54.019709 
L 323.816727 54.010298 
L 324.076451 53.796318 
L 324.466036 53.854628 
L 324.628364 53.821551 
L 325.050415 53.579866 
L 325.699724 53.997373 
L 326.121775 54.606787 
L 326.284102 54.586695 
L 326.51136 54.317414 
L 326.803549 54.005935 
L 327.030807 53.94152 
L 327.485324 54.325976 
L 327.680116 54.753246 
L 329.628044 57.948008 
L 330.7968 61.661564 
L 331.088989 62.676728 
L 332.387607 69.656142 
L 332.971985 74.27088 
L 333.816087 78.95257 
L 335.926342 91.40953 
L 336.380858 93.866616 
L 337.289891 99.414796 
L 338.101527 104.330653 
L 339.302749 113.864385 
L 340.244247 120.186046 
L 341.5104 129.524961 
L 342.289571 135.086106 
L 343.101207 141.193179 
L 344.205033 149.312106 
L 346.607476 164.632357 
L 346.997062 166.832566 
L 348.717731 176.448773 
L 348.944989 177.478643 
L 349.302109 179.352511 
L 352.061673 191.290627 
L 352.094138 191.304481 
L 352.451258 192.34744 
L 353.977135 197.540038 
L 354.626444 199.217742 
L 355.567942 201.542091 
L 356.15232 202.688442 
L 357.450938 204.330852 
L 358.197644 204.798045 
L 358.814487 204.682725 
L 359.139142 204.76296 
L 359.788451 204.254427 
L 360.372829 203.981194 
L 360.502691 203.814841 
L 360.535156 203.847609 
L 360.665018 203.845016 
L 360.827345 203.57382 
L 361.152 203.078641 
L 361.184465 203.128504 
L 361.249396 203.094065 
L 361.444189 202.728305 
L 361.476655 202.764767 
L 361.736378 202.139118 
L 361.768844 202.089183 
L 361.833775 202.185855 
L 361.898705 202.157222 
L 362.190895 201.40484 
L 362.22336 201.442435 
L 362.450618 200.786041 
L 362.58048 200.535943 
L 362.710342 199.988432 
L 362.742807 200.01519 
L 362.840204 199.861186 
L 363.034996 199.637367 
L 363.197324 199.544965 
L 363.554444 198.753468 
L 363.749236 198.699473 
L 363.976495 198.162146 
L 364.268684 197.812277 
L 364.301149 197.847494 
L 364.398545 197.769987 
L 364.593338 197.370596 
L 364.625804 197.471575 
L 364.658269 197.356026 
L 364.950458 196.508285 
L 367.190575 189.204616 
L 367.547695 188.431564 
L 368.683985 184.776622 
L 369.755345 180.636014 
L 369.885207 180.326099 
L 370.015069 179.031071 
L 370.08 179.3596 
L 370.112465 179.4387 
L 370.144931 178.710738 
L 370.209862 178.899838 
L 370.339724 179.304273 
L 370.469585 178.330305 
L 370.502051 178.491187 
L 370.599447 178.790517 
L 370.664378 178.032584 
L 370.729309 178.372929 
L 370.79424 178.534584 
L 370.826705 178.362718 
L 370.891636 178.103795 
L 370.924102 177.190466 
L 370.989033 177.515617 
L 371.053964 177.830133 
L 371.086429 177.615844 
L 371.443549 176.143684 
L 371.50848 176.273424 
L 371.605876 176.386809 
L 371.638342 176.361679 
L 371.703273 176.110058 
L 371.8656 174.838551 
L 371.962996 175.023646 
L 372.092858 175.144662 
L 372.514909 173.64679 
L 372.677236 173.286431 
L 372.872029 172.510788 
L 373.034356 172.135201 
L 373.196684 171.010861 
L 373.326545 170.741662 
L 373.488873 170.031653 
L 373.683665 169.572188 
L 373.813527 168.88288 
L 374.00832 168.151656 
L 374.268044 167.69732 
L 374.397905 166.628956 
L 374.462836 166.839499 
L 374.560233 166.770179 
L 374.657629 165.872278 
L 374.690095 165.928739 
L 374.819956 166.07121 
L 374.917353 164.964869 
L 374.949818 165.183738 
L 375.144611 165.760671 
L 375.339404 164.476933 
L 375.404335 164.785467 
L 375.501731 164.996918 
L 375.566662 164.722691 
L 375.631593 164.742527 
L 375.79392 164.274412 
L 375.826385 163.410551 
L 375.923782 163.758455 
L 376.053644 163.913601 
L 376.15104 163.430972 
L 376.183505 163.472151 
L 376.313367 163.513094 
L 376.378298 163.352795 
L 376.443229 162.36099 
L 376.50816 162.548986 
L 376.540625 162.39044 
L 376.605556 162.625363 
L 376.735418 163.003551 
L 376.767884 162.894431 
L 376.832815 162.815023 
L 376.897745 162.897604 
L 376.930211 162.968224 
L 376.962676 162.466446 
L 377.027607 163.043372 
L 377.125004 163.466832 
L 377.189935 163.718137 
L 377.254865 163.619308 
L 377.384727 163.407126 
L 377.417193 163.557477 
L 377.449658 163.414833 
L 377.611985 163.010748 
L 377.644451 163.080158 
L 377.709382 163.14561 
L 377.871709 161.945395 
L 377.904175 161.901075 
L 377.93664 161.994171 
L 377.969105 161.993719 
L 378.066502 162.033704 
L 378.456087 160.597847 
L 378.553484 160.529965 
L 378.683345 160.397431 
L 378.748276 160.506089 
L 378.780742 160.437973 
L 378.845673 159.569824 
L 378.910604 159.637117 
L 378.975535 159.603979 
L 379.008 159.640126 
L 379.137862 159.712223 
L 379.202793 159.515315 
L 379.235258 159.627825 
L 379.267724 159.660172 
L 379.300189 159.593421 
L 379.332655 159.024139 
L 379.397585 159.397072 
L 379.819636 160.428714 
L 380.014429 160.43843 
L 380.07936 160.339635 
L 380.306618 159.895649 
L 380.404015 159.595272 
L 380.468945 158.996213 
L 380.566342 159.09129 
L 380.598807 159.047005 
L 380.663738 158.514616 
L 380.728669 158.693557 
L 380.761135 158.741151 
L 380.826065 158.679993 
L 380.955927 158.435643 
L 381.442909 157.126344 
L 381.475375 157.140374 
L 381.50784 157.13737 
L 381.605236 156.832623 
L 381.670167 156.887782 
L 382.124684 157.182773 
L 382.189615 156.986844 
L 382.254545 157.035133 
L 382.481804 157.147121 
L 382.644131 157.415196 
L 382.806458 157.107361 
L 382.871389 157.204877 
L 382.93632 157.249074 
L 382.968785 157.194014 
L 383.066182 157.155158 
L 383.098647 157.235433 
L 383.163578 157.188063 
L 383.423302 156.876932 
L 383.455767 156.882122 
L 383.585629 156.554536 
L 383.618095 156.583705 
L 383.65056 156.628494 
L 383.683025 156.581204 
L 383.877818 156.325719 
L 384.040145 156.159219 
L 384.234938 155.844969 
L 384.267404 155.849262 
L 384.332335 155.5039 
L 384.397265 155.612711 
L 384.592058 155.672049 
L 384.754385 155.812687 
L 384.786851 155.670984 
L 384.851782 155.86939 
L 385.111505 156.266324 
L 385.208902 156.522489 
L 385.273833 156.422935 
L 385.403695 156.386274 
L 385.501091 155.763584 
L 385.566022 155.80193 
L 385.663418 155.825496 
L 385.695884 155.761396 
L 385.760815 155.813439 
L 385.988073 155.884426 
L 386.117935 155.908767 
L 386.247796 156.012181 
L 386.410124 156.157131 
L 386.572451 156.132818 
L 386.702313 156.152303 
L 386.832175 155.877465 
L 386.897105 156.030859 
L 386.962036 155.921358 
L 386.994502 155.99224 
L 387.091898 155.941104 
L 387.319156 155.495875 
L 387.481484 155.153031 
L 387.546415 155.184655 
L 387.676276 155.31131 
L 387.936 154.72758 
L 388.000931 154.809693 
L 388.130793 154.880943 
L 388.163258 154.82713 
L 388.29312 154.485672 
L 388.358051 154.670149 
L 388.390516 154.539911 
L 388.422982 154.350454 
L 388.487913 154.546348 
L 388.617775 154.609475 
L 388.780102 154.629402 
L 388.877498 154.683485 
L 388.909964 154.59062 
L 389.039825 154.799032 
L 389.072291 154.774867 
L 389.104756 154.667554 
L 389.169687 154.697917 
L 389.396945 155.177667 
L 389.591738 155.137908 
L 389.883927 154.679611 
L 389.916393 154.786032 
L 389.981324 154.714675 
L 390.046255 154.804925 
L 390.07872 154.6973 
L 390.143651 154.91418 
L 390.176116 154.892034 
L 390.273513 154.652501 
L 390.305978 154.670664 
L 390.370909 154.623343 
L 390.533236 154.309739 
L 390.695564 154.608446 
L 390.760495 154.728315 
L 390.987753 155.242415 
L 391.085149 155.035873 
L 391.117615 155.139449 
L 391.15008 155.158537 
L 391.215011 155.023584 
L 391.247476 155.035366 
L 391.442269 155.229174 
L 391.539665 155.225565 
L 391.701993 155.335287 
L 391.734458 155.302136 
L 392.026647 155.085614 
L 392.156509 155.238654 
L 392.351302 155.272585 
L 392.611025 155.70042 
L 392.740887 155.770279 
L 392.805818 155.214385 
L 392.870749 155.448805 
L 393.033076 155.573335 
L 393.065542 155.479203 
L 393.195404 155.32561 
L 393.260335 155.445165 
L 393.2928 155.409901 
L 393.422662 155.228686 
L 393.455127 155.2862 
L 393.520058 155.211595 
L 393.552524 155.164471 
L 393.617455 155.238049 
L 393.682385 155.169769 
L 393.747316 155.227789 
L 393.974575 154.851763 
L 394.00704 154.905689 
L 394.331695 154.596562 
L 394.429091 154.644842 
L 394.461556 154.576188 
L 394.558953 154.326757 
L 394.591418 154.432557 
L 394.623884 154.464679 
L 394.656349 154.405006 
L 394.688815 154.275219 
L 394.753745 154.305332 
L 395.013469 154.829686 
L 395.175796 154.949645 
L 395.240727 154.921843 
L 395.403055 154.13799 
L 395.43552 154.282293 
L 395.630313 154.273634 
L 395.662778 153.945731 
L 395.727709 154.120667 
L 396.312087 155.099512 
L 396.571811 155.705119 
L 396.669207 155.517595 
L 396.864 154.925776 
L 396.896465 154.956469 
L 397.286051 155.141347 
L 397.480844 155.046913 
L 397.708102 155.089874 
L 397.902895 154.941115 
L 398.097687 154.659486 
L 398.357411 153.909928 
L 398.487273 153.582228 
L 398.487273 153.582228 
" style="fill:none;stroke:#1f77b4;stroke-linecap:square;stroke-width:1.5;"/>
   </g>
   <g id="line2d_14">
    <path clip-path="url(#pbea9f5099f)" d="M 73.832727 284.426074 
L 73.897658 283.919384 
L 73.962589 282.315209 
L 74.02752 282.349744 
L 74.059985 282.216383 
L 74.157382 284.413237 
L 74.222313 284.158291 
L 74.319709 283.342138 
L 74.546967 289.266889 
L 74.579433 288.906789 
L 74.871622 286.654296 
L 75.033949 288.597067 
L 75.131345 288.162732 
L 75.391069 285.369789 
L 76.007913 278.848971 
L 76.624756 274.866215 
L 76.722153 274.39688 
L 77.144204 270.368937 
L 77.533789 266.157617 
L 77.728582 264.447003 
L 79.644044 248.375302 
L 80.033629 246.172144 
L 81.040058 235.830521 
L 81.462109 231.057597 
L 82.793193 222.00956 
L 83.442502 215.525951 
L 83.66976 214.835822 
L 83.929484 214.525364 
L 84.091811 213.779154 
L 84.351535 211.455851 
L 85.09824 203.295475 
L 85.163171 203.327628 
L 85.650153 204.324101 
L 85.780015 204.039058 
L 85.942342 203.224475 
L 86.202065 200.425603 
L 86.88384 191.828178 
L 86.981236 191.777127 
L 87.111098 192.409384 
L 87.663011 195.507546 
L 87.760407 195.385401 
L 87.922735 194.466248 
L 88.182458 191.150405 
L 88.734371 183.431296 
L 88.831767 183.137217 
L 88.896698 183.163385 
L 88.994095 183.448878 
L 89.188887 184.913574 
L 89.513542 187.15384 
L 89.578473 187.201321 
L 89.610938 187.159346 
L 89.773265 186.413743 
L 90.000524 183.80013 
L 90.617367 174.821851 
L 90.747229 174.636494 
L 90.81216 174.740031 
L 90.942022 175.534848 
L 91.753658 182.319424 
L 91.786124 182.312846 
L 91.88352 182.161853 
L 92.078313 181.199086 
L 92.370502 178.479474 
L 92.825018 174.298829 
L 92.889949 174.428868 
L 93.117207 176.081886 
L 93.66912 180.997891 
L 93.734051 181.038764 
L 93.766516 180.995678 
L 93.896378 180.477666 
L 94.123636 178.166288 
L 94.610618 173.420287 
L 94.772945 173.019717 
L 94.805411 173.04558 
L 94.935273 173.889844 
L 95.259927 178.412354 
L 95.617047 182.587612 
L 95.746909 182.820788 
L 95.779375 182.800707 
L 95.909236 182.490375 
L 96.558545 180.083144 
L 96.818269 179.81665 
L 96.8832 179.914413 
L 96.980596 180.228428 
L 97.402647 181.723821 
L 97.59744 181.777189 
L 98.214284 181.347364 
L 98.246749 181.396791 
L 99.155782 184.183243 
L 99.415505 183.892614 
L 99.772625 182.933937 
L 99.902487 182.863023 
L 100.032349 182.861855 
L 100.227142 183.458168 
L 100.584262 185.552461 
L 101.038778 188.14751 
L 101.266036 188.387663 
L 101.330967 188.309201 
L 101.52576 187.355775 
L 101.980276 185.151024 
L 102.045207 185.221947 
L 102.304931 186.155181 
L 103.149033 191.115118 
L 103.181498 191.08467 
L 103.31136 190.997186 
L 103.571084 189.895975 
L 103.960669 188.347802 
L 104.220393 188.70157 
L 104.999564 190.65677 
L 105.389149 191.051488 
L 106.005993 191.066494 
L 106.492975 191.97429 
L 106.655302 191.999779 
L 107.012422 191.678757 
L 107.499404 192.096153 
L 107.791593 191.900001 
L 107.986385 191.277946 
L 108.375971 190.060438 
L 108.505833 190.086062 
L 108.765556 190.914401 
L 109.479796 194.949062 
L 109.642124 195.331887 
L 109.674589 195.309211 
L 109.771985 195.121859 
L 109.934313 194.395328 
L 110.323898 192.517561 
L 110.486225 192.257059 
L 110.551156 192.357776 
L 111.297862 194.37228 
L 111.719913 195.841598 
L 111.817309 195.847246 
L 111.979636 195.436732 
L 112.531549 193.436485 
L 112.59648 193.50911 
L 112.758807 193.809269 
L 113.018531 194.906558 
L 113.66784 197.75513 
L 113.862633 197.761673 
L 114.02496 197.453107 
L 114.284684 195.948884 
L 114.706735 193.604267 
L 114.901527 193.392702 
L 115.161251 193.544584 
L 115.420975 194.831923 
L 115.713164 196.04054 
L 115.81056 196.02697 
L 116.16768 195.604978 
L 116.88192 193.627487 
L 117.336436 191.981415 
L 117.433833 191.855544 
L 117.466298 191.891459 
L 117.726022 192.566107 
L 118.537658 195.65498 
L 118.635055 195.528171 
L 118.862313 194.750204 
L 119.284364 193.268077 
L 119.414225 193.12497 
L 119.576553 193.399102 
L 119.771345 194.229704 
L 120.323258 196.487315 
L 120.582982 197.106748 
L 120.81024 196.510621 
L 121.069964 195.622606 
L 121.8816 192.948268 
L 121.914065 192.979318 
L 122.303651 193.684323 
L 122.498444 194.845669 
L 123.017891 198.1468 
L 123.147753 198.05025 
L 123.277615 197.563604 
L 123.732131 194.455519 
L 123.991855 192.460007 
L 124.121716 192.359307 
L 124.284044 192.767878 
L 124.576233 194.301765 
L 124.835956 196.527204 
L 125.063215 198.053318 
L 125.160611 198.177985 
L 125.193076 198.163941 
L 125.355404 197.730217 
L 125.582662 195.773508 
L 125.939782 192.586787 
L 126.134575 192.205094 
L 126.231971 192.237224 
L 126.394298 192.731587 
L 126.718953 194.566381 
L 127.205935 197.191205 
L 127.270865 197.279603 
L 127.303331 197.17553 
L 128.30976 193.624346 
L 128.569484 193.348176 
L 128.601949 193.391509 
L 128.991535 194.402365 
L 129.348655 195.393069 
L 129.413585 195.409028 
L 129.673309 196.420909 
L 129.73824 196.513909 
L 130.09536 194.019627 
L 130.484945 191.441422 
L 130.582342 191.452835 
L 130.712204 191.837404 
L 131.231651 193.42729 
L 131.816029 195.132602 
L 131.88096 194.8849 
L 132.303011 193.883867 
L 132.530269 193.517818 
L 132.5952 193.583032 
L 132.789993 194.12593 
L 133.082182 194.809748 
L 133.179578 194.713871 
L 133.536698 193.903318 
L 134.088611 192.308639 
L 134.218473 192.385226 
L 134.705455 193.263346 
L 134.932713 193.55569 
L 134.965178 193.523047 
L 135.062575 193.351688 
L 135.45216 192.387337 
L 135.679418 192.049743 
L 136.133935 192.417744 
L 137.140364 194.735556 
L 137.205295 194.749029 
L 137.23776 195.13503 
L 137.302691 194.830894 
L 137.627345 194.070933 
L 137.919535 193.429389 
L 138.471447 191.825206 
L 138.503913 191.91646 
L 138.633775 192.326682 
L 138.861033 193.985079 
L 139.088291 196.354532 
L 139.153222 196.872125 
L 139.315549 198.018238 
L 139.348015 197.925573 
L 139.575273 198.870271 
L 139.607738 198.842397 
L 139.802531 198.315547 
L 140.516771 196.054936 
L 141.328407 194.925865 
L 141.425804 195.079925 
L 142.010182 196.55179 
L 142.23744 196.818611 
L 142.269905 197.13605 
L 142.367302 197.06327 
L 142.432233 197.057634 
L 142.464698 197.31628 
L 142.562095 197.207674 
L 142.627025 197.145372 
L 142.789353 196.94003 
L 142.821818 197.163423 
L 142.886749 196.894789 
L 143.146473 196.419699 
L 143.568524 195.987955 
L 143.958109 195.996121 
L 144.120436 195.996218 
L 144.477556 195.693885 
L 144.73728 195.362195 
L 144.997004 195.117865 
L 145.191796 195.027774 
L 145.548916 195.244649 
L 145.906036 195.190026 
L 146.328087 195.448371 
L 146.490415 196.412391 
L 146.555345 196.549207 
L 146.652742 196.184219 
L 146.847535 196.02734 
L 147.042327 195.950915 
L 147.074793 195.967407 
L 147.204655 196.574663 
L 147.918895 194.177011 
L 148.340945 193.845748 
L 148.405876 193.815448 
L 148.438342 193.868259 
L 148.730531 194.160633 
L 148.957789 194.22927 
L 149.152582 194.341315 
L 149.444771 194.336384 
L 149.704495 194.789136 
L 149.834356 195.364015 
L 150.223942 194.416998 
L 150.516131 194.051732 
L 150.775855 194.046556 
L 150.970647 194.110532 
L 151.587491 193.862411 
L 152.139404 192.482012 
L 152.723782 192.962412 
L 152.918575 193.223154 
L 153.30816 193.443396 
L 153.373091 193.446614 
L 153.405556 193.718287 
L 153.470487 193.584552 
L 154.37952 192.448181 
L 154.704175 192.493812 
L 155.256087 191.7627 
L 155.580742 191.454954 
L 156.619636 189.576644 
L 157.106618 188.943356 
L 157.333876 188.748951 
L 157.983185 188.204982 
L 158.600029 187.389377 
L 159.119476 186.817408 
L 159.314269 186.92407 
L 159.768785 186.77645 
L 161.749178 184.448761 
L 162.008902 184.236529 
L 162.041367 184.4984 
L 162.106298 184.371866 
L 162.59328 183.754685 
L 163.210124 183.064985 
L 163.762036 182.148659 
L 164.086691 181.612164 
L 164.184087 181.473964 
L 164.573673 180.938038 
L 165.385309 179.610275 
L 165.742429 179.019055 
L 166.261876 178.038412 
L 167.105978 176.204261 
L 167.430633 175.551949 
L 170.774575 168.597634 
L 171.488815 167.119294 
L 173.144553 164.389821 
L 173.566604 163.702687 
L 175.774255 160.710528 
L 176.326167 159.973323 
L 176.748218 159.253873 
L 177.202735 158.278144 
L 177.884509 157.503847 
L 178.30656 157.213606 
L 178.566284 156.802879 
L 178.955869 155.905552 
L 179.183127 155.606162 
L 179.994764 155.569574 
L 181.650502 153.094476 
L 182.884189 151.021381 
L 183.403636 150.909744 
L 183.793222 150.138604 
L 184.539927 148.767124 
L 184.832116 148.442606 
L 185.09184 148.346039 
L 185.416495 148.135882 
L 186.293062 147.171195 
L 186.812509 146.461546 
L 187.429353 145.773627 
L 187.754007 145.699626 
L 187.9488 145.696788 
L 188.435782 145.246242 
L 188.857833 144.581796 
L 190.09152 143.442854 
L 190.351244 143.181533 
L 190.643433 143.131929 
L 191.065484 143.24656 
L 191.617396 142.436308 
L 191.909585 142.175846 
L 192.396567 142.024693 
L 192.59136 141.982488 
L 193.045876 142.232566 
L 194.052305 141.361898 
L 194.37696 141.177907 
L 195.675578 141.520681 
L 195.935302 141.317291 
L 196.259956 141.224121 
L 196.746938 141.615765 
L 197.266385 142.044093 
L 197.428713 141.883713 
L 197.915695 141.293857 
L 198.110487 141.287125 
L 198.337745 141.569781 
L 198.792262 142.310983 
L 199.181847 142.606767 
L 199.603898 142.630412 
L 199.798691 142.872577 
L 200.155811 143.213201 
L 200.318138 143.191252 
L 200.577862 143.194881 
L 200.80512 143.200369 
L 201.227171 142.837253 
L 201.551825 143.133391 
L 202.103738 143.684752 
L 202.59072 143.623258 
L 202.850444 143.605387 
L 203.175098 143.700364 
L 203.434822 143.779519 
L 204.213993 143.757709 
L 204.37632 143.986206 
L 204.863302 144.613157 
L 204.993164 144.489321 
L 205.642473 143.54553 
L 206.551505 143.826205 
L 207.038487 144.025546 
L 207.687796 144.164482 
L 208.337105 144.253848 
L 208.499433 144.208971 
L 209.116276 144.209593 
L 209.895447 144.567228 
L 210.122705 145.277122 
L 210.577222 146.678976 
L 210.739549 146.64474 
L 210.966807 146.234946 
L 211.356393 145.342429 
L 211.681047 145.036643 
L 211.908305 144.902318 
L 211.940771 144.947199 
L 213.239389 146.336375 
L 213.986095 148.147364 
L 214.408145 148.798782 
L 214.602938 148.807387 
L 214.862662 148.857825 
L 215.284713 149.136648 
L 215.739229 150.23788 
L 216.453469 151.646531 
L 216.550865 151.715631 
L 217.200175 152.791673 
L 217.330036 152.796762 
L 217.557295 152.900614 
L 217.58976 152.854264 
L 217.719622 152.853053 
L 217.849484 152.946616 
L 218.174138 153.819189 
L 218.466327 154.545208 
L 218.66112 154.674942 
L 219.115636 154.211803 
L 219.310429 154.141485 
L 219.440291 154.27521 
L 220.511651 155.97151 
L 220.673978 155.934497 
L 220.933702 155.726196 
L 221.193425 155.514428 
L 221.615476 155.586837 
L 221.907665 155.731695 
L 222.167389 155.562637 
L 222.459578 155.342225 
L 222.816698 155.217881 
L 223.595869 155.081178 
L 223.888058 154.802855 
L 224.115316 154.600743 
L 224.277644 154.60529 
L 224.407505 154.57964 
L 225.08928 153.976869 
L 225.4464 153.86839 
L 226.193105 153.595952 
L 226.51776 153.06988 
L 226.842415 152.660892 
L 227.004742 152.506125 
L 227.296931 152.160848 
L 227.848844 152.062747 
L 228.043636 152.15962 
L 228.270895 152.114985 
L 228.465687 151.965905 
L 229.407185 150.74751 
L 229.569513 150.689878 
L 229.829236 150.400919 
L 230.316218 149.675453 
L 230.543476 149.324369 
L 230.933062 149.096611 
L 231.192785 149.026288 
L 231.647302 148.604127 
L 232.491404 147.160251 
L 232.653731 147.108972 
L 233.30304 146.857648 
L 234.049745 145.647234 
L 234.763985 144.63735 
L 235.900276 143.604055 
L 236.030138 143.575969 
L 236.289862 143.266952 
L 237.198895 141.885188 
L 237.685876 141.476916 
L 238.270255 141.221722 
L 238.854633 140.762863 
L 239.146822 140.404976 
L 239.666269 139.587183 
L 239.861062 139.562468 
L 240.218182 139.460978 
L 240.283113 139.491065 
L 240.315578 139.453917 
L 240.640233 139.122223 
L 240.932422 138.637898 
L 241.744058 137.013035 
L 242.101178 136.413612 
L 242.880349 135.565288 
L 243.010211 135.555952 
L 243.432262 135.12898 
L 243.724451 134.748141 
L 244.114036 134.473579 
L 245.152931 133.649461 
L 245.510051 133.11207 
L 245.574982 133.058051 
L 245.867171 132.650895 
L 246.386618 132.291508 
L 246.451549 132.237573 
L 246.646342 131.953845 
L 246.841135 131.852148 
L 247.750167 131.353944 
L 248.074822 130.983904 
L 248.367011 130.510628 
L 248.464407 130.436591 
L 248.918924 130.060638 
L 249.081251 129.915961 
L 250.931782 127.470486 
L 251.223971 127.249396 
L 251.483695 127.232329 
L 251.710953 127.212361 
L 251.840815 127.185636 
L 252.133004 126.897772 
L 252.847244 125.703483 
L 253.204364 125.028282 
L 255.184756 122.745852 
L 255.282153 122.617715 
L 255.736669 122.134812 
L 255.769135 122.13836 
L 255.963927 121.840777 
L 256.15872 121.617217 
L 256.256116 121.624409 
L 256.450909 121.376608 
L 256.548305 121.314252 
L 256.905425 120.926733 
L 257.067753 120.879844 
L 257.165149 120.73603 
L 257.295011 120.50141 
L 257.327476 120.515907 
L 257.392407 120.51859 
L 257.5872 120.176449 
L 257.619665 120.195495 
L 257.652131 120.119851 
L 257.781993 120.14162 
L 258.009251 120.052756 
L 258.236509 119.882753 
L 258.593629 119.556003 
L 258.788422 119.273174 
L 258.950749 119.169193 
L 259.437731 118.830496 
L 259.632524 118.632022 
L 259.664989 118.622576 
L 259.827316 118.290662 
L 259.859782 118.33152 
L 259.892247 118.246776 
L 261.580451 116.736556 
L 261.612916 116.76522 
L 261.645382 116.656441 
L 261.742778 116.548007 
L 261.87264 116.444986 
L 261.905105 116.503112 
L 261.970036 116.4221 
L 262.164829 116.226956 
L 262.22976 116.296206 
L 262.262225 116.212737 
L 262.392087 116.10344 
L 262.521949 116.111797 
L 262.684276 116.078916 
L 263.495913 115.216121 
L 263.690705 114.916091 
L 263.755636 114.907302 
L 263.982895 114.461509 
L 264.080291 114.305983 
L 264.599738 113.769619 
L 264.826996 113.737007 
L 264.956858 113.831118 
L 265.054255 113.76627 
L 265.08672 113.798806 
L 265.184116 113.810029 
L 265.281513 113.852053 
L 265.313978 113.804376 
L 265.638633 113.786577 
L 265.930822 113.412036 
L 266.060684 113.238515 
L 267.196975 111.571227 
L 267.22944 111.61119 
L 267.391767 111.698052 
L 267.521629 111.808615 
L 267.683956 111.828225 
L 267.911215 111.712431 
L 268.041076 111.737262 
L 268.235869 111.322606 
L 268.625455 110.680884 
L 268.820247 110.50591 
L 268.982575 110.278758 
L 269.01504 110.295675 
L 269.047505 110.220218 
L 269.502022 109.707615 
L 269.664349 109.394524 
L 269.696815 109.469874 
L 269.72928 109.333335 
L 269.826676 109.153397 
L 269.956538 108.961005 
L 269.989004 108.983339 
L 270.021469 108.937992 
L 270.0864 109.031332 
L 270.216262 109.020452 
L 270.281193 108.950402 
L 270.313658 109.004895 
L 270.638313 109.071092 
L 270.962967 108.707415 
L 271.060364 108.656282 
L 271.190225 108.463756 
L 272.034327 107.582888 
L 272.196655 107.376158 
L 272.358982 107.162012 
L 272.521309 106.872164 
L 272.553775 106.883785 
L 272.748567 106.506285 
L 272.910895 106.542422 
L 273.268015 106.840506 
L 273.495273 106.803689 
L 273.592669 106.770146 
L 273.754996 106.596545 
L 273.949789 106.276599 
L 274.047185 106.186259 
L 274.209513 105.838433 
L 274.404305 105.428197 
L 274.631564 104.787054 
L 274.858822 104.199116 
L 275.053615 104.077964 
L 275.183476 103.84632 
L 275.215942 103.85842 
L 275.767855 104.57316 
L 275.897716 104.680353 
L 275.930182 104.630976 
L 276.417164 104.206738 
L 276.676887 103.883677 
L 276.741818 103.833939 
L 276.936611 103.472441 
L 277.066473 103.330874 
L 277.2288 103.207296 
L 277.358662 103.229086 
L 277.780713 102.757269 
L 278.007971 102.514647 
L 278.137833 102.469248 
L 278.462487 101.849777 
L 278.624815 101.614041 
L 278.787142 101.433565 
L 278.819607 101.457263 
L 278.981935 101.23341 
L 279.0144 101.229357 
L 279.176727 100.988269 
L 279.436451 101.007778 
L 279.923433 100.96322 
L 280.08576 100.822898 
L 280.377949 100.520983 
L 280.605207 100.185213 
L 280.702604 100.142948 
L 281.124655 99.564125 
L 281.222051 99.491592 
L 281.384378 99.383162 
L 281.481775 99.442879 
L 281.644102 99.499367 
L 281.838895 99.355175 
L 282.131084 99.0282 
L 282.325876 98.844964 
L 282.455738 98.709715 
L 282.650531 98.384191 
L 282.715462 98.308185 
L 282.877789 98.120228 
L 282.910255 98.138801 
L 283.072582 98.090248 
L 283.527098 97.792426 
L 283.689425 97.677017 
L 284.338735 97.654348 
L 284.695855 97.951577 
L 285.020509 97.712731 
L 285.345164 97.461506 
L 285.539956 97.313061 
L 285.962007 97.14944 
L 286.254196 97.219812 
L 286.741178 97.175418 
L 287.000902 97.204558 
L 287.390487 97.298214 
L 288.039796 97.164382 
L 288.396916 96.917429 
L 289.176087 97.201922 
L 289.500742 97.247866 
L 289.663069 97.178939 
L 289.825396 97.358091 
L 290.572102 98.277788 
L 290.961687 97.902636 
L 291.351273 97.492408 
L 291.935651 97.500923 
L 292.357702 97.5867 
L 292.844684 97.598352 
L 293.201804 97.806682 
L 293.461527 97.886574 
L 293.688785 97.751998 
L 294.01344 97.49379 
L 294.273164 97.478711 
L 294.954938 97.90208 
L 295.79904 98.456718 
L 296.643142 98.868468 
L 297.195055 98.676696 
L 297.389847 98.65692 
L 298.266415 98.763128 
L 298.493673 98.445289 
L 298.720931 98.27495 
L 298.915724 98.428789 
L 299.37024 98.62842 
L 299.889687 98.740216 
L 300.08448 98.908761 
L 300.79872 99.714016 
L 301.350633 99.640311 
L 301.967476 98.983129 
L 302.649251 99.380346 
L 302.973905 99.616779 
L 303.850473 99.475816 
L 304.597178 98.634697 
L 305.116625 98.71371 
L 305.311418 98.721298 
L 305.7984 98.470352 
L 306.285382 98.074138 
L 306.545105 98.045866 
L 307.389207 98.438101 
L 307.584 98.288861 
L 308.038516 97.837239 
L 308.557964 97.567708 
L 308.882618 97.140396 
L 309.142342 97.021647 
L 309.239738 97.042039 
L 309.72672 97.51617 
L 309.856582 97.427311 
L 310.44096 96.248566 
L 310.733149 95.849007 
L 311.447389 95.897895 
L 311.642182 95.904929 
L 311.901905 95.695639 
L 312.908335 94.458947 
L 313.590109 94.189065 
L 313.817367 94.39473 
L 314.564073 95.400276 
L 314.629004 95.338817 
L 314.888727 95.309938 
L 315.115985 94.753644 
L 315.960087 92.57035 
L 316.284742 92.286778 
L 316.479535 92.323497 
L 316.576931 92.478678 
L 316.966516 93.845351 
L 317.22624 94.466267 
L 317.421033 94.546569 
L 317.745687 94.567889 
L 318.330065 94.864554 
L 318.687185 94.5478 
L 318.946909 94.525681 
L 319.141702 94.474613 
L 319.433891 94.348625 
L 320.472785 95.298426 
L 321.609076 94.160236 
L 321.803869 94.055356 
L 322.193455 94.327909 
L 322.875229 95.571201 
L 323.102487 95.665761 
L 323.492073 95.550075 
L 323.751796 95.35806 
L 324.076451 95.216821 
L 324.790691 94.920806 
L 325.472465 95.008856 
L 325.894516 94.985943 
L 326.413964 95.473551 
L 326.738618 95.098534 
L 327.258065 94.332373 
L 327.58272 94.193052 
L 327.842444 94.301866 
L 328.069702 94.235374 
L 328.589149 94.222739 
L 328.816407 94.197821 
L 328.946269 94.232217 
L 329.205993 94.304928 
L 329.433251 94.134501 
L 330.407215 93.049716 
L 332.744727 91.39589 
L 333.264175 90.802618 
L 333.458967 90.679568 
L 334.173207 90.331328 
L 334.335535 90.21692 
L 334.984844 89.515876 
L 335.666618 88.460719 
L 335.893876 88.475811 
L 336.088669 88.639365 
L 336.283462 88.811313 
L 336.673047 88.586366 
L 336.997702 88.195172 
L 337.744407 86.934354 
L 338.328785 86.406616 
L 338.750836 86.369737 
L 340.08192 85.316713 
L 340.503971 85.276304 
L 340.990953 84.427047 
L 341.250676 84.2118 
L 341.770124 83.877404 
L 342.029847 83.635407 
L 342.386967 83.50811 
L 343.198604 82.581202 
L 343.555724 82.203408 
L 343.945309 82.171941 
L 344.172567 82.29929 
L 344.821876 81.519583 
L 345.308858 80.078946 
L 345.990633 78.610192 
L 346.412684 78.693071 
L 346.737338 78.811846 
L 347.029527 78.598073 
L 347.126924 78.567132 
L 347.841164 77.372748 
L 348.522938 76.133243 
L 348.944989 75.694242 
L 349.139782 75.633992 
L 349.626764 74.638151 
L 350.048815 73.552146 
L 350.373469 73.490715 
L 350.698124 73.596823 
L 350.925382 73.51824 
L 351.120175 73.256702 
L 351.477295 72.66317 
L 351.931811 72.247507 
L 352.256465 71.831104 
L 352.743447 71.53031 
L 353.165498 70.959116 
L 353.65248 70.156445 
L 354.301789 68.52073 
L 354.431651 68.42632 
L 354.464116 68.457444 
L 354.853702 68.791306 
L 354.983564 68.797209 
L 355.567942 67.90647 
L 356.249716 65.917717 
L 357.028887 65.372265 
L 357.288611 65.454114 
L 358.197644 65.075649 
L 358.327505 65.164976 
L 358.619695 65.119716 
L 359.171607 64.695089 
L 360.178036 64.223386 
L 360.43776 64.255403 
L 363.002531 63.061968 
L 363.229789 62.879553 
L 363.392116 62.844552 
L 363.489513 62.818051 
L 363.586909 62.745862 
L 363.619375 62.777413 
L 363.846633 62.853536 
L 364.398545 62.846803 
L 364.528407 62.815545 
L 364.853062 63.058676 
L 365.015389 63.120287 
L 365.242647 63.209776 
L 365.859491 63.155483 
L 366.378938 62.899005 
L 366.573731 62.940005 
L 366.930851 62.855182 
L 367.190575 62.633545 
L 367.612625 62.342395 
L 367.969745 62.262032 
L 368.229469 62.157326 
L 368.521658 62.19966 
L 368.683985 62.185465 
L 369.333295 62.442001 
L 369.430691 62.295617 
L 369.625484 62.196584 
L 369.852742 62.209088 
L 370.08 62.129202 
L 370.599447 61.643253 
L 371.216291 61.309839 
L 371.443549 61.087478 
L 372.157789 60.517415 
L 372.449978 60.546168 
L 372.969425 60.344518 
L 373.391476 60.143731 
L 373.618735 60.04262 
L 375.4368 59.724485 
L 375.728989 59.364076 
L 375.923782 59.264276 
L 376.183505 59.363882 
L 376.930211 59.310427 
L 378.163898 58.277309 
L 378.618415 58.469506 
L 378.845673 58.436398 
L 379.105396 58.336336 
L 379.397585 58.246332 
L 379.787171 58.160298 
L 380.241687 57.932059 
L 380.43648 57.816343 
L 380.696204 57.985882 
L 380.988393 58.072213 
L 381.767564 58.103047 
L 381.929891 58.050824 
L 382.157149 58.102476 
L 382.5792 58.133613 
L 382.93632 58.025067 
L 383.163578 58.05794 
L 383.65056 57.805598 
L 384.105076 57.644245 
L 384.234938 57.570861 
L 384.624524 57.200171 
L 384.689455 57.141228 
L 384.949178 56.763634 
L 385.143971 56.793264 
L 385.241367 56.800279 
L 385.468625 56.580776 
L 385.501091 56.616965 
L 385.598487 56.564038 
L 386.247796 56.061094 
L 387.059433 56.137223 
L 387.286691 56.109369 
L 387.611345 56.273167 
L 387.838604 56.485372 
L 388.033396 56.548339 
L 388.325585 56.343651 
L 388.520378 56.320513 
L 388.780102 56.513734 
L 388.812567 56.535885 
L 388.942429 56.765262 
L 389.202153 56.899387 
L 389.559273 56.978343 
L 389.981324 56.833994 
L 390.273513 56.589822 
L 390.695564 56.56759 
L 390.825425 56.716068 
L 390.857891 56.669738 
L 391.15008 56.255543 
L 391.377338 56.20874 
L 392.059113 56.366052 
L 392.351302 56.053735 
L 392.643491 56.135838 
L 392.870749 56.419699 
L 393.162938 56.791302 
L 393.422662 56.993958 
L 393.942109 57.073455 
L 394.72128 56.572683 
L 395.175796 56.732909 
L 395.370589 56.824156 
L 396.084829 57.5031 
L 396.604276 57.807712 
L 397.610705 58.223626 
L 398.195084 58.859551 
L 398.422342 59.058427 
L 398.487273 59.112439 
L 398.487273 59.112439 
" style="fill:none;stroke:#ff7f0e;stroke-linecap:square;stroke-width:1.5;"/>
   </g>
   <g id="line2d_15">
    <path clip-path="url(#pbea9f5099f)" d="M 73.832727 295.175663 
L 73.865193 295.488 
L 74.02752 275.67272 
L 74.319709 250.09046 
L 74.546967 292.143444 
L 74.579433 289.789658 
L 74.676829 271.559793 
L 74.74176 274.955536 
L 74.904087 282.817308 
L 75.09888 285.350808 
L 75.163811 284.943329 
L 75.391069 280.948247 
L 76.332567 259.263741 
L 77.468858 234.158693 
L 78.67008 213.209618 
L 79.806371 196.560985 
L 80.682938 186.803608 
L 81.494575 180.039518 
L 82.208815 175.782358 
L 82.793193 173.417691 
L 83.474967 171.555997 
L 84.124276 170.360729 
L 84.578793 169.923105 
L 84.968378 169.59246 
L 85.195636 169.540345 
L 85.487825 169.726636 
L 85.942342 170.313106 
L 86.689047 171.693128 
L 87.533149 173.727551 
L 88.117527 175.633021 
L 88.31232 176.393115 
L 88.799302 177.487836 
L 89.448611 179.566078 
L 94.772945 197.9623 
L 96.363753 202.391078 
L 99.155782 209.322515 
L 102.142604 217.095234 
L 104.73984 224.459105 
L 107.337076 232.602937 
L 111.395258 245.305407 
L 113.343185 250.748299 
L 114.804131 254.151868 
L 116.265076 256.992154 
L 117.303971 258.550356 
L 118.180538 259.494119 
L 118.927244 259.990464 
L 119.576553 260.164856 
L 120.128465 260.093523 
L 120.712844 259.785942 
L 121.362153 259.184333 
L 122.141324 258.143187 
L 123.017891 256.628844 
L 123.050356 256.933458 
L 123.342545 258.165556 
L 123.537338 258.836917 
L 123.991855 260.465862 
L 124.543767 261.819925 
L 124.73856 261.461403 
L 125.030749 261.716751 
L 125.647593 262.277731 
L 126.296902 262.575206 
L 126.946211 262.633424 
L 127.660451 262.44963 
L 128.407156 262.01741 
L 129.446051 261.129275 
L 130.160291 260.606597 
L 130.874531 260.23294 
L 131.556305 259.527469 
L 133.958749 256.555315 
L 135.45216 254.400493 
L 140.354444 246.932443 
L 141.88032 244.902481 
L 143.3088 243.320325 
L 147.464378 239.438445 
L 154.152262 232.043669 
L 157.074153 229.769535 
L 158.827287 228.710666 
L 159.768785 228.280757 
L 159.931113 228.256718 
L 160.45056 228.119039 
L 160.677818 228.068224 
L 161.132335 227.911813 
L 161.359593 227.863148 
L 161.814109 227.711137 
L 162.041367 227.661902 
L 162.495884 227.507453 
L 162.723142 227.458058 
L 163.145193 227.321615 
L 163.66464 227.160943 
L 163.891898 227.112594 
L 164.346415 226.965101 
L 164.573673 226.916819 
L 165.028189 226.782744 
L 165.385309 226.69165 
L 169.930473 225.343598 
L 172.138124 224.523145 
L 179.215593 221.973953 
L 191.325207 218.17665 
L 196.487215 216.485509 
L 201.973876 214.97543 
L 209.148742 213.230441 
L 211.583651 212.61177 
L 211.713513 213.072486 
L 211.843375 213.10261 
L 212.005702 212.766939 
L 212.038167 213.051049 
L 212.070633 212.749691 
L 212.103098 212.982711 
L 212.200495 212.627369 
L 212.23296 212.870779 
L 212.265425 212.57017 
L 212.297891 212.815932 
L 212.395287 212.463443 
L 212.427753 212.706694 
L 212.460218 212.412323 
L 212.492684 212.653493 
L 212.59008 212.313911 
L 212.622545 212.550545 
L 212.655011 212.26952 
L 212.687476 212.504554 
L 212.784873 212.190365 
L 212.817338 212.423309 
L 212.849804 212.155746 
L 212.882269 212.388059 
L 212.979665 212.095646 
L 213.012131 212.328733 
L 213.044596 212.07002 
L 213.077062 212.304837 
L 213.174458 212.026844 
L 213.206924 212.268451 
L 213.239389 212.00971 
L 213.271855 212.254794 
L 213.369251 211.98007 
L 213.434182 211.967545 
L 213.466647 212.229861 
L 213.564044 211.946419 
L 213.628975 211.937525 
L 213.66144 212.22153 
L 213.758836 211.920415 
L 213.856233 212.222623 
L 213.953629 211.898755 
L 214.01856 211.88869 
L 214.051025 212.213395 
L 214.148422 211.864304 
L 214.180887 212.199785 
L 214.213353 211.849382 
L 214.245818 212.188693 
L 214.343215 211.826627 
L 214.37568 212.135397 
L 214.408145 211.80476 
L 214.440611 212.100591 
L 214.538007 211.736871 
L 214.570473 212.02826 
L 214.602938 211.69533 
L 214.635404 211.994165 
L 214.7328 211.615797 
L 214.765265 211.937338 
L 214.797731 211.592705 
L 214.830196 211.909064 
L 214.927593 211.546919 
L 214.960058 211.858574 
L 214.992524 211.526515 
L 215.024989 211.836393 
L 215.122385 211.491499 
L 215.154851 211.799506 
L 215.187316 211.476744 
L 215.219782 211.784826 
L 215.317178 211.452159 
L 215.349644 211.762258 
L 215.414575 211.751376 
L 215.44704 211.608321 
L 215.511971 211.69453 
L 215.641833 211.687011 
L 215.869091 211.636901 
L 215.966487 211.521214 
L 216.063884 211.625131 
L 216.226211 211.55593 
L 216.323607 211.605289 
L 216.421004 211.554642 
L 216.453469 211.599915 
L 216.615796 211.558788 
L 216.778124 211.590201 
L 216.940451 211.56554 
L 217.23264 211.573016 
L 217.687156 211.573878 
L 219.700015 211.536653 
L 221.128495 211.208072 
L 222.037527 210.739748 
L 222.719302 210.197119 
L 223.920524 208.870239 
L 224.829556 207.581725 
L 225.219142 207.006179 
L 226.485295 205.338606 
L 228.692945 202.597547 
L 233.497833 197.757723 
L 234.341935 197.009518 
L 235.121105 196.405035 
L 235.867811 195.848958 
L 236.452189 195.571737 
L 238.432582 195.46529 
L 239.536407 195.790808 
L 240.607767 196.313503 
L 241.87392 197.204072 
L 243.334865 198.506519 
L 245.282793 200.561863 
L 246.581411 202.172397 
L 247.133324 202.669794 
L 248.6592 203.473862 
L 250.477265 204.776748 
L 256.613236 208.332924 
L 258.463767 209.066714 
L 260.768815 209.755101 
L 263.398516 210.313694 
L 266.255476 210.684715 
L 269.307229 210.853775 
L 272.748567 210.820208 
L 273.040756 210.47445 
L 273.365411 210.302823 
L 273.884858 210.315991 
L 274.469236 210.21602 
L 275.345804 209.90113 
L 278.462487 209.30286 
L 282.293411 208.368805 
L 282.455738 208.411307 
L 283.754356 207.83409 
L 285.052975 207.471819 
L 286.806109 206.969841 
L 286.968436 207.065905 
L 289.500742 206.314178 
L 292.390167 205.834771 
L 297.292451 205.198518 
L 302.324596 204.832131 
L 307.356742 204.677819 
L 315.473105 204.441347 
L 320.537716 204.060063 
L 325.829585 203.428341 
L 330.537076 202.666733 
L 334.368 201.795275 
L 338.620975 200.591223 
L 345.178996 198.461566 
L 349.464436 197.177745 
L 352.321396 196.56602 
L 354.042065 196.306377 
L 354.171927 196.482182 
L 354.204393 196.468372 
L 354.301789 196.51485 
L 354.334255 196.488815 
L 355.08096 195.80385 
L 355.892596 195.855728 
L 358.717091 195.96329 
L 359.106676 196.114427 
L 359.626124 196.085157 
L 361.184465 195.746395 
L 362.775273 195.793024 
L 369.106036 196.333847 
L 373.001891 196.906777 
L 373.326545 197.053654 
L 373.488873 197.158356 
L 374.138182 196.903282 
L 374.982284 197.068032 
L 376.767884 197.355244 
L 379.527447 197.521729 
L 380.533876 197.440882 
L 383.033716 197.273139 
L 391.669527 195.857873 
L 394.494022 195.698971 
L 398.487273 195.708549 
L 398.487273 195.708549 
" style="fill:none;stroke:#bf00bf;stroke-linecap:square;stroke-width:1.5;"/>
   </g>
   <g id="patch_3">
    <path d="M 57.6 307.584 
L 57.6 41.472 
" style="fill:none;stroke:#000000;stroke-linecap:square;stroke-linejoin:miter;stroke-width:0.8;"/>
   </g>
   <g id="patch_4">
    <path d="M 414.72 307.584 
L 414.72 41.472 
" style="fill:none;stroke:#000000;stroke-linecap:square;stroke-linejoin:miter;stroke-width:0.8;"/>
   </g>
   <g id="patch_5">
    <path d="M 57.6 307.584 
L 414.72 307.584 
" style="fill:none;stroke:#000000;stroke-linecap:square;stroke-linejoin:miter;stroke-width:0.8;"/>
   </g>
   <g id="patch_6">
    <path d="M 57.6 41.472 
L 414.72 41.472 
" style="fill:none;stroke:#000000;stroke-linecap:square;stroke-linejoin:miter;stroke-width:0.8;"/>
   </g>
   <g id="text_15">
    <!-- Plot of Object pose error norm over a single episode  -->
    <g transform="translate(77.670938 8.59725)scale(0.12 -0.12)">
     <defs>
      <path d="M 19.671875 64.796875 
L 19.671875 37.40625 
L 32.078125 37.40625 
Q 38.96875 37.40625 42.71875 40.96875 
Q 46.484375 44.53125 46.484375 51.125 
Q 46.484375 57.671875 42.71875 61.234375 
Q 38.96875 64.796875 32.078125 64.796875 
z
M 9.8125 72.90625 
L 32.078125 72.90625 
Q 44.34375 72.90625 50.609375 67.359375 
Q 56.890625 61.8125 56.890625 51.125 
Q 56.890625 40.328125 50.609375 34.8125 
Q 44.34375 29.296875 32.078125 29.296875 
L 19.671875 29.296875 
L 19.671875 0 
L 9.8125 0 
z
" id="DejaVuSans-80"/>
      <path d="M 9.421875 75.984375 
L 18.40625 75.984375 
L 18.40625 0 
L 9.421875 0 
z
" id="DejaVuSans-108"/>
      <path id="DejaVuSans-32"/>
      <path d="M 37.109375 75.984375 
L 37.109375 68.5 
L 28.515625 68.5 
Q 23.6875 68.5 21.796875 66.546875 
Q 19.921875 64.59375 19.921875 59.515625 
L 19.921875 54.6875 
L 34.71875 54.6875 
L 34.71875 47.703125 
L 19.921875 47.703125 
L 19.921875 0 
L 10.890625 0 
L 10.890625 47.703125 
L 2.296875 47.703125 
L 2.296875 54.6875 
L 10.890625 54.6875 
L 10.890625 58.5 
Q 10.890625 67.625 15.140625 71.796875 
Q 19.390625 75.984375 28.609375 75.984375 
z
" id="DejaVuSans-102"/>
      <path d="M 48.78125 52.59375 
L 48.78125 44.1875 
Q 44.96875 46.296875 41.140625 47.34375 
Q 37.3125 48.390625 33.40625 48.390625 
Q 24.65625 48.390625 19.8125 42.84375 
Q 14.984375 37.3125 14.984375 27.296875 
Q 14.984375 17.28125 19.8125 11.734375 
Q 24.65625 6.203125 33.40625 6.203125 
Q 37.3125 6.203125 41.140625 7.25 
Q 44.96875 8.296875 48.78125 10.40625 
L 48.78125 2.09375 
Q 45.015625 0.34375 40.984375 -0.53125 
Q 36.96875 -1.421875 32.421875 -1.421875 
Q 20.0625 -1.421875 12.78125 6.34375 
Q 5.515625 14.109375 5.515625 27.296875 
Q 5.515625 40.671875 12.859375 48.328125 
Q 20.21875 56 33.015625 56 
Q 37.15625 56 41.109375 55.140625 
Q 45.0625 54.296875 48.78125 52.59375 
z
" id="DejaVuSans-99"/>
      <path d="M 2.984375 54.6875 
L 12.5 54.6875 
L 29.59375 8.796875 
L 46.6875 54.6875 
L 56.203125 54.6875 
L 35.6875 0 
L 23.484375 0 
z
" id="DejaVuSans-118"/>
      <path d="M 34.28125 27.484375 
Q 23.390625 27.484375 19.1875 25 
Q 14.984375 22.515625 14.984375 16.5 
Q 14.984375 11.71875 18.140625 8.90625 
Q 21.296875 6.109375 26.703125 6.109375 
Q 34.1875 6.109375 38.703125 11.40625 
Q 43.21875 16.703125 43.21875 25.484375 
L 43.21875 27.484375 
z
M 52.203125 31.203125 
L 52.203125 0 
L 43.21875 0 
L 43.21875 8.296875 
Q 40.140625 3.328125 35.546875 0.953125 
Q 30.953125 -1.421875 24.3125 -1.421875 
Q 15.921875 -1.421875 10.953125 3.296875 
Q 6 8.015625 6 15.921875 
Q 6 25.140625 12.171875 29.828125 
Q 18.359375 34.515625 30.609375 34.515625 
L 43.21875 34.515625 
L 43.21875 35.40625 
Q 43.21875 41.609375 39.140625 45 
Q 35.0625 48.390625 27.6875 48.390625 
Q 23 48.390625 18.546875 47.265625 
Q 14.109375 46.140625 10.015625 43.890625 
L 10.015625 52.203125 
Q 14.9375 54.109375 19.578125 55.046875 
Q 24.21875 56 28.609375 56 
Q 40.484375 56 46.34375 49.84375 
Q 52.203125 43.703125 52.203125 31.203125 
z
" id="DejaVuSans-97"/>
      <path d="M 45.40625 27.984375 
Q 45.40625 37.75 41.375 43.109375 
Q 37.359375 48.484375 30.078125 48.484375 
Q 22.859375 48.484375 18.828125 43.109375 
Q 14.796875 37.75 14.796875 27.984375 
Q 14.796875 18.265625 18.828125 12.890625 
Q 22.859375 7.515625 30.078125 7.515625 
Q 37.359375 7.515625 41.375 12.890625 
Q 45.40625 18.265625 45.40625 27.984375 
z
M 54.390625 6.78125 
Q 54.390625 -7.171875 48.1875 -13.984375 
Q 42 -20.796875 29.203125 -20.796875 
Q 24.46875 -20.796875 20.265625 -20.09375 
Q 16.0625 -19.390625 12.109375 -17.921875 
L 12.109375 -9.1875 
Q 16.0625 -11.328125 19.921875 -12.34375 
Q 23.78125 -13.375 27.78125 -13.375 
Q 36.625 -13.375 41.015625 -8.765625 
Q 45.40625 -4.15625 45.40625 5.171875 
L 45.40625 9.625 
Q 42.625 4.78125 38.28125 2.390625 
Q 33.9375 0 27.875 0 
Q 17.828125 0 11.671875 7.65625 
Q 5.515625 15.328125 5.515625 27.984375 
Q 5.515625 40.671875 11.671875 48.328125 
Q 17.828125 56 27.875 56 
Q 33.9375 56 38.28125 53.609375 
Q 42.625 51.21875 45.40625 46.390625 
L 45.40625 54.6875 
L 54.390625 54.6875 
z
" id="DejaVuSans-103"/>
      <path d="M 45.40625 46.390625 
L 45.40625 75.984375 
L 54.390625 75.984375 
L 54.390625 0 
L 45.40625 0 
L 45.40625 8.203125 
Q 42.578125 3.328125 38.25 0.953125 
Q 33.9375 -1.421875 27.875 -1.421875 
Q 17.96875 -1.421875 11.734375 6.484375 
Q 5.515625 14.40625 5.515625 27.296875 
Q 5.515625 40.1875 11.734375 48.09375 
Q 17.96875 56 27.875 56 
Q 33.9375 56 38.25 53.625 
Q 42.578125 51.265625 45.40625 46.390625 
z
M 14.796875 27.296875 
Q 14.796875 17.390625 18.875 11.75 
Q 22.953125 6.109375 30.078125 6.109375 
Q 37.203125 6.109375 41.296875 11.75 
Q 45.40625 17.390625 45.40625 27.296875 
Q 45.40625 37.203125 41.296875 42.84375 
Q 37.203125 48.484375 30.078125 48.484375 
Q 22.953125 48.484375 18.875 42.84375 
Q 14.796875 37.203125 14.796875 27.296875 
z
" id="DejaVuSans-100"/>
     </defs>
     <use xlink:href="#DejaVuSans-80"/>
     <use x="60.302734" xlink:href="#DejaVuSans-108"/>
     <use x="88.085938" xlink:href="#DejaVuSans-111"/>
     <use x="149.267578" xlink:href="#DejaVuSans-116"/>
     <use x="188.476562" xlink:href="#DejaVuSans-32"/>
     <use x="220.263672" xlink:href="#DejaVuSans-111"/>
     <use x="281.445312" xlink:href="#DejaVuSans-102"/>
     <use x="316.650391" xlink:href="#DejaVuSans-32"/>
     <use x="348.4375" xlink:href="#DejaVuSans-79"/>
     <use x="427.148438" xlink:href="#DejaVuSans-98"/>
     <use x="490.625" xlink:href="#DejaVuSans-106"/>
     <use x="518.408203" xlink:href="#DejaVuSans-101"/>
     <use x="579.931641" xlink:href="#DejaVuSans-99"/>
     <use x="634.912109" xlink:href="#DejaVuSans-116"/>
     <use x="674.121094" xlink:href="#DejaVuSans-32"/>
     <use x="705.908203" xlink:href="#DejaVuSans-112"/>
     <use x="769.384766" xlink:href="#DejaVuSans-111"/>
     <use x="830.566406" xlink:href="#DejaVuSans-115"/>
     <use x="882.666016" xlink:href="#DejaVuSans-101"/>
     <use x="944.189453" xlink:href="#DejaVuSans-32"/>
     <use x="975.976562" xlink:href="#DejaVuSans-101"/>
     <use x="1037.5" xlink:href="#DejaVuSans-114"/>
     <use x="1076.863281" xlink:href="#DejaVuSans-114"/>
     <use x="1115.726562" xlink:href="#DejaVuSans-111"/>
     <use x="1176.908203" xlink:href="#DejaVuSans-114"/>
     <use x="1218.021484" xlink:href="#DejaVuSans-32"/>
     <use x="1249.808594" xlink:href="#DejaVuSans-110"/>
     <use x="1313.1875" xlink:href="#DejaVuSans-111"/>
     <use x="1374.369141" xlink:href="#DejaVuSans-114"/>
     <use x="1413.732422" xlink:href="#DejaVuSans-109"/>
     <use x="1511.144531" xlink:href="#DejaVuSans-32"/>
     <use x="1542.931641" xlink:href="#DejaVuSans-111"/>
     <use x="1604.113281" xlink:href="#DejaVuSans-118"/>
     <use x="1663.292969" xlink:href="#DejaVuSans-101"/>
     <use x="1724.816406" xlink:href="#DejaVuSans-114"/>
     <use x="1765.929688" xlink:href="#DejaVuSans-32"/>
     <use x="1797.716797" xlink:href="#DejaVuSans-97"/>
     <use x="1858.996094" xlink:href="#DejaVuSans-32"/>
     <use x="1890.783203" xlink:href="#DejaVuSans-115"/>
     <use x="1942.882812" xlink:href="#DejaVuSans-105"/>
     <use x="1970.666016" xlink:href="#DejaVuSans-110"/>
     <use x="2034.044922" xlink:href="#DejaVuSans-103"/>
     <use x="2097.521484" xlink:href="#DejaVuSans-108"/>
     <use x="2125.304688" xlink:href="#DejaVuSans-101"/>
     <use x="2186.828125" xlink:href="#DejaVuSans-32"/>
     <use x="2218.615234" xlink:href="#DejaVuSans-101"/>
     <use x="2280.138672" xlink:href="#DejaVuSans-112"/>
     <use x="2343.615234" xlink:href="#DejaVuSans-105"/>
     <use x="2371.398438" xlink:href="#DejaVuSans-115"/>
     <use x="2423.498047" xlink:href="#DejaVuSans-111"/>
     <use x="2484.679688" xlink:href="#DejaVuSans-100"/>
     <use x="2548.15625" xlink:href="#DejaVuSans-101"/>
     <use x="2609.679688" xlink:href="#DejaVuSans-32"/>
    </g>
    <!--  Avg object pose error norm: Residual RL = 0.248, Standard = 0.328,  -->
    <g transform="translate(26.875313 22.034625)scale(0.12 -0.12)">
     <defs>
      <path d="M 34.1875 63.1875 
L 20.796875 26.90625 
L 47.609375 26.90625 
z
M 28.609375 72.90625 
L 39.796875 72.90625 
L 67.578125 0 
L 57.328125 0 
L 50.6875 18.703125 
L 17.828125 18.703125 
L 11.1875 0 
L 0.78125 0 
z
" id="DejaVuSans-65"/>
      <path d="M 11.71875 12.40625 
L 22.015625 12.40625 
L 22.015625 0 
L 11.71875 0 
z
M 11.71875 51.703125 
L 22.015625 51.703125 
L 22.015625 39.3125 
L 11.71875 39.3125 
z
" id="DejaVuSans-58"/>
      <path d="M 44.390625 34.1875 
Q 47.5625 33.109375 50.5625 29.59375 
Q 53.5625 26.078125 56.59375 19.921875 
L 66.609375 0 
L 56 0 
L 46.6875 18.703125 
Q 43.0625 26.03125 39.671875 28.421875 
Q 36.28125 30.8125 30.421875 30.8125 
L 19.671875 30.8125 
L 19.671875 0 
L 9.8125 0 
L 9.8125 72.90625 
L 32.078125 72.90625 
Q 44.578125 72.90625 50.734375 67.671875 
Q 56.890625 62.453125 56.890625 51.90625 
Q 56.890625 45.015625 53.6875 40.46875 
Q 50.484375 35.9375 44.390625 34.1875 
z
M 19.671875 64.796875 
L 19.671875 38.921875 
L 32.078125 38.921875 
Q 39.203125 38.921875 42.84375 42.21875 
Q 46.484375 45.515625 46.484375 51.90625 
Q 46.484375 58.296875 42.84375 61.546875 
Q 39.203125 64.796875 32.078125 64.796875 
z
" id="DejaVuSans-82"/>
      <path d="M 9.8125 72.90625 
L 19.671875 72.90625 
L 19.671875 8.296875 
L 55.171875 8.296875 
L 55.171875 0 
L 9.8125 0 
z
" id="DejaVuSans-76"/>
      <path d="M 10.59375 45.40625 
L 73.1875 45.40625 
L 73.1875 37.203125 
L 10.59375 37.203125 
z
M 10.59375 25.484375 
L 73.1875 25.484375 
L 73.1875 17.1875 
L 10.59375 17.1875 
z
" id="DejaVuSans-61"/>
      <path d="M 11.71875 12.40625 
L 22.015625 12.40625 
L 22.015625 4 
L 14.015625 -11.625 
L 7.71875 -11.625 
L 11.71875 4 
z
" id="DejaVuSans-44"/>
      <path d="M 53.515625 70.515625 
L 53.515625 60.890625 
Q 47.90625 63.578125 42.921875 64.890625 
Q 37.9375 66.21875 33.296875 66.21875 
Q 25.25 66.21875 20.875 63.09375 
Q 16.5 59.96875 16.5 54.203125 
Q 16.5 49.359375 19.40625 46.890625 
Q 22.3125 44.4375 30.421875 42.921875 
L 36.375 41.703125 
Q 47.40625 39.59375 52.65625 34.296875 
Q 57.90625 29 57.90625 20.125 
Q 57.90625 9.515625 50.796875 4.046875 
Q 43.703125 -1.421875 29.984375 -1.421875 
Q 24.8125 -1.421875 18.96875 -0.25 
Q 13.140625 0.921875 6.890625 3.21875 
L 6.890625 13.375 
Q 12.890625 10.015625 18.65625 8.296875 
Q 24.421875 6.59375 29.984375 6.59375 
Q 38.421875 6.59375 43.015625 9.90625 
Q 47.609375 13.234375 47.609375 19.390625 
Q 47.609375 24.75 44.3125 27.78125 
Q 41.015625 30.8125 33.5 32.328125 
L 27.484375 33.5 
Q 16.453125 35.6875 11.515625 40.375 
Q 6.59375 45.0625 6.59375 53.421875 
Q 6.59375 63.09375 13.40625 68.65625 
Q 20.21875 74.21875 32.171875 74.21875 
Q 37.3125 74.21875 42.625 73.28125 
Q 47.953125 72.359375 53.515625 70.515625 
z
" id="DejaVuSans-83"/>
     </defs>
     <use xlink:href="#DejaVuSans-32"/>
     <use x="31.787109" xlink:href="#DejaVuSans-65"/>
     <use x="94.320312" xlink:href="#DejaVuSans-118"/>
     <use x="153.5" xlink:href="#DejaVuSans-103"/>
     <use x="216.976562" xlink:href="#DejaVuSans-32"/>
     <use x="248.763672" xlink:href="#DejaVuSans-111"/>
     <use x="309.945312" xlink:href="#DejaVuSans-98"/>
     <use x="373.421875" xlink:href="#DejaVuSans-106"/>
     <use x="401.205078" xlink:href="#DejaVuSans-101"/>
     <use x="462.728516" xlink:href="#DejaVuSans-99"/>
     <use x="517.708984" xlink:href="#DejaVuSans-116"/>
     <use x="556.917969" xlink:href="#DejaVuSans-32"/>
     <use x="588.705078" xlink:href="#DejaVuSans-112"/>
     <use x="652.181641" xlink:href="#DejaVuSans-111"/>
     <use x="713.363281" xlink:href="#DejaVuSans-115"/>
     <use x="765.462891" xlink:href="#DejaVuSans-101"/>
     <use x="826.986328" xlink:href="#DejaVuSans-32"/>
     <use x="858.773438" xlink:href="#DejaVuSans-101"/>
     <use x="920.296875" xlink:href="#DejaVuSans-114"/>
     <use x="959.660156" xlink:href="#DejaVuSans-114"/>
     <use x="998.523438" xlink:href="#DejaVuSans-111"/>
     <use x="1059.705078" xlink:href="#DejaVuSans-114"/>
     <use x="1100.818359" xlink:href="#DejaVuSans-32"/>
     <use x="1132.605469" xlink:href="#DejaVuSans-110"/>
     <use x="1195.984375" xlink:href="#DejaVuSans-111"/>
     <use x="1257.166016" xlink:href="#DejaVuSans-114"/>
     <use x="1296.529297" xlink:href="#DejaVuSans-109"/>
     <use x="1393.941406" xlink:href="#DejaVuSans-58"/>
     <use x="1427.632812" xlink:href="#DejaVuSans-32"/>
     <use x="1459.419922" xlink:href="#DejaVuSans-82"/>
     <use x="1524.402344" xlink:href="#DejaVuSans-101"/>
     <use x="1585.925781" xlink:href="#DejaVuSans-115"/>
     <use x="1638.025391" xlink:href="#DejaVuSans-105"/>
     <use x="1665.808594" xlink:href="#DejaVuSans-100"/>
     <use x="1729.285156" xlink:href="#DejaVuSans-117"/>
     <use x="1792.664062" xlink:href="#DejaVuSans-97"/>
     <use x="1853.943359" xlink:href="#DejaVuSans-108"/>
     <use x="1881.726562" xlink:href="#DejaVuSans-32"/>
     <use x="1913.513672" xlink:href="#DejaVuSans-82"/>
     <use x="1982.996094" xlink:href="#DejaVuSans-76"/>
     <use x="2038.708984" xlink:href="#DejaVuSans-32"/>
     <use x="2070.496094" xlink:href="#DejaVuSans-61"/>
     <use x="2154.285156" xlink:href="#DejaVuSans-32"/>
     <use x="2186.072266" xlink:href="#DejaVuSans-48"/>
     <use x="2249.695312" xlink:href="#DejaVuSans-46"/>
     <use x="2281.482422" xlink:href="#DejaVuSans-50"/>
     <use x="2345.105469" xlink:href="#DejaVuSans-52"/>
     <use x="2408.728516" xlink:href="#DejaVuSans-56"/>
     <use x="2472.351562" xlink:href="#DejaVuSans-44"/>
     <use x="2504.138672" xlink:href="#DejaVuSans-32"/>
     <use x="2535.925781" xlink:href="#DejaVuSans-83"/>
     <use x="2599.402344" xlink:href="#DejaVuSans-116"/>
     <use x="2638.611328" xlink:href="#DejaVuSans-97"/>
     <use x="2699.890625" xlink:href="#DejaVuSans-110"/>
     <use x="2763.269531" xlink:href="#DejaVuSans-100"/>
     <use x="2826.746094" xlink:href="#DejaVuSans-97"/>
     <use x="2888.025391" xlink:href="#DejaVuSans-114"/>
     <use x="2927.388672" xlink:href="#DejaVuSans-100"/>
     <use x="2990.865234" xlink:href="#DejaVuSans-32"/>
     <use x="3022.652344" xlink:href="#DejaVuSans-61"/>
     <use x="3106.441406" xlink:href="#DejaVuSans-32"/>
     <use x="3138.228516" xlink:href="#DejaVuSans-48"/>
     <use x="3201.851562" xlink:href="#DejaVuSans-46"/>
     <use x="3233.638672" xlink:href="#DejaVuSans-51"/>
     <use x="3297.261719" xlink:href="#DejaVuSans-50"/>
     <use x="3360.884766" xlink:href="#DejaVuSans-56"/>
     <use x="3424.507812" xlink:href="#DejaVuSans-44"/>
     <use x="3456.294922" xlink:href="#DejaVuSans-32"/>
    </g>
    <!--  Baseline = 0.178 -->
    <g transform="translate(182.795625 35.472)scale(0.12 -0.12)">
     <defs>
      <path d="M 19.671875 34.8125 
L 19.671875 8.109375 
L 35.5 8.109375 
Q 43.453125 8.109375 47.28125 11.40625 
Q 51.125 14.703125 51.125 21.484375 
Q 51.125 28.328125 47.28125 31.5625 
Q 43.453125 34.8125 35.5 34.8125 
z
M 19.671875 64.796875 
L 19.671875 42.828125 
L 34.28125 42.828125 
Q 41.5 42.828125 45.03125 45.53125 
Q 48.578125 48.25 48.578125 53.8125 
Q 48.578125 59.328125 45.03125 62.0625 
Q 41.5 64.796875 34.28125 64.796875 
z
M 9.8125 72.90625 
L 35.015625 72.90625 
Q 46.296875 72.90625 52.390625 68.21875 
Q 58.5 63.53125 58.5 54.890625 
Q 58.5 48.1875 55.375 44.234375 
Q 52.25 40.28125 46.1875 39.3125 
Q 53.46875 37.75 57.5 32.78125 
Q 61.53125 27.828125 61.53125 20.40625 
Q 61.53125 10.640625 54.890625 5.3125 
Q 48.25 0 35.984375 0 
L 9.8125 0 
z
" id="DejaVuSans-66"/>
      <path d="M 8.203125 72.90625 
L 55.078125 72.90625 
L 55.078125 68.703125 
L 28.609375 0 
L 18.3125 0 
L 43.21875 64.59375 
L 8.203125 64.59375 
z
" id="DejaVuSans-55"/>
     </defs>
     <use xlink:href="#DejaVuSans-32"/>
     <use x="31.787109" xlink:href="#DejaVuSans-66"/>
     <use x="100.390625" xlink:href="#DejaVuSans-97"/>
     <use x="161.669922" xlink:href="#DejaVuSans-115"/>
     <use x="213.769531" xlink:href="#DejaVuSans-101"/>
     <use x="275.292969" xlink:href="#DejaVuSans-108"/>
     <use x="303.076172" xlink:href="#DejaVuSans-105"/>
     <use x="330.859375" xlink:href="#DejaVuSans-110"/>
     <use x="394.238281" xlink:href="#DejaVuSans-101"/>
     <use x="455.761719" xlink:href="#DejaVuSans-32"/>
     <use x="487.548828" xlink:href="#DejaVuSans-61"/>
     <use x="571.337891" xlink:href="#DejaVuSans-32"/>
     <use x="603.125" xlink:href="#DejaVuSans-48"/>
     <use x="666.748047" xlink:href="#DejaVuSans-46"/>
     <use x="698.535156" xlink:href="#DejaVuSans-49"/>
     <use x="762.158203" xlink:href="#DejaVuSans-55"/>
     <use x="825.78125" xlink:href="#DejaVuSans-56"/>
    </g>
   </g>
   <g id="legend_1">
    <g id="patch_7">
     <path d="M 64.6 93.506375 
L 154.529687 93.506375 
Q 156.529687 93.506375 156.529687 91.506375 
L 156.529687 48.472 
Q 156.529687 46.472 154.529687 46.472 
L 64.6 46.472 
Q 62.6 46.472 62.6 48.472 
L 62.6 91.506375 
Q 62.6 93.506375 64.6 93.506375 
z
" style="fill:#ffffff;opacity:0.8;stroke:#cccccc;stroke-linejoin:miter;"/>
    </g>
    <g id="line2d_16">
     <path d="M 66.6 54.570438 
L 86.6 54.570438 
" style="fill:none;stroke:#1f77b4;stroke-linecap:square;stroke-width:1.5;"/>
    </g>
    <g id="line2d_17"/>
    <g id="text_16">
     <!-- Residual RL -->
     <g transform="translate(94.6 58.070438)scale(0.1 -0.1)">
      <use xlink:href="#DejaVuSans-82"/>
      <use x="64.982422" xlink:href="#DejaVuSans-101"/>
      <use x="126.505859" xlink:href="#DejaVuSans-115"/>
      <use x="178.605469" xlink:href="#DejaVuSans-105"/>
      <use x="206.388672" xlink:href="#DejaVuSans-100"/>
      <use x="269.865234" xlink:href="#DejaVuSans-117"/>
      <use x="333.244141" xlink:href="#DejaVuSans-97"/>
      <use x="394.523438" xlink:href="#DejaVuSans-108"/>
      <use x="422.306641" xlink:href="#DejaVuSans-32"/>
      <use x="454.09375" xlink:href="#DejaVuSans-82"/>
      <use x="523.576172" xlink:href="#DejaVuSans-76"/>
     </g>
    </g>
    <g id="line2d_18">
     <path d="M 66.6 69.248563 
L 86.6 69.248563 
" style="fill:none;stroke:#ff7f0e;stroke-linecap:square;stroke-width:1.5;"/>
    </g>
    <g id="line2d_19"/>
    <g id="text_17">
     <!-- Standard -->
     <g transform="translate(94.6 72.748563)scale(0.1 -0.1)">
      <use xlink:href="#DejaVuSans-83"/>
      <use x="63.476562" xlink:href="#DejaVuSans-116"/>
      <use x="102.685547" xlink:href="#DejaVuSans-97"/>
      <use x="163.964844" xlink:href="#DejaVuSans-110"/>
      <use x="227.34375" xlink:href="#DejaVuSans-100"/>
      <use x="290.820312" xlink:href="#DejaVuSans-97"/>
      <use x="352.099609" xlink:href="#DejaVuSans-114"/>
      <use x="391.462891" xlink:href="#DejaVuSans-100"/>
     </g>
    </g>
    <g id="line2d_20">
     <path d="M 66.6 83.926688 
L 86.6 83.926688 
" style="fill:none;stroke:#bf00bf;stroke-linecap:square;stroke-width:1.5;"/>
    </g>
    <g id="line2d_21"/>
    <g id="text_18">
     <!-- Baseline -->
     <g transform="translate(94.6 87.426688)scale(0.1 -0.1)">
      <use xlink:href="#DejaVuSans-66"/>
      <use x="68.603516" xlink:href="#DejaVuSans-97"/>
      <use x="129.882812" xlink:href="#DejaVuSans-115"/>
      <use x="181.982422" xlink:href="#DejaVuSans-101"/>
      <use x="243.505859" xlink:href="#DejaVuSans-108"/>
      <use x="271.289062" xlink:href="#DejaVuSans-105"/>
      <use x="299.072266" xlink:href="#DejaVuSans-110"/>
      <use x="362.451172" xlink:href="#DejaVuSans-101"/>
     </g>
    </g>
   </g>
  </g>
 </g>
 <defs>
  <clipPath id="pbea9f5099f">
   <rect height="266.112" width="357.12" x="57.6" y="41.472"/>
  </clipPath>
 </defs>
</svg>
