<?xml version="1.0" encoding="utf-8" standalone="no"?>
<!DOCTYPE svg PUBLIC "-//W3C//DTD SVG 1.1//EN"
  "http://www.w3.org/Graphics/SVG/1.1/DTD/svg11.dtd">
<!-- Created with matplotlib (https://matplotlib.org/) -->
<svg height="345.6pt" version="1.1" viewBox="0 0 460.8 345.6" width="460.8pt" xmlns="http://www.w3.org/2000/svg" xmlns:xlink="http://www.w3.org/1999/xlink">
 <metadata>
  <rdf:RDF xmlns:cc="http://creativecommons.org/ns#" xmlns:dc="http://purl.org/dc/elements/1.1/" xmlns:rdf="http://www.w3.org/1999/02/22-rdf-syntax-ns#">
   <cc:Work>
    <dc:type rdf:resource="http://purl.org/dc/dcmitype/StillImage"/>
    <dc:date>2022-07-23T12:17:03.977962</dc:date>
    <dc:format>image/svg+xml</dc:format>
    <dc:creator>
     <cc:Agent>
      <dc:title>Matplotlib v3.3.4, https://matplotlib.org/</dc:title>
     </cc:Agent>
    </dc:creator>
   </cc:Work>
  </rdf:RDF>
 </metadata>
 <defs>
  <style type="text/css">*{stroke-linecap:butt;stroke-linejoin:round;}</style>
 </defs>
 <g id="figure_1">
  <g id="patch_1">
   <path d="M 0 345.6 
L 460.8 345.6 
L 460.8 0 
L 0 0 
z
" style="fill:#ffffff;"/>
  </g>
  <g id="axes_1">
   <g id="patch_2">
    <path d="M 57.6 307.584 
L 414.72 307.584 
L 414.72 41.472 
L 57.6 41.472 
z
" style="fill:#ffffff;"/>
   </g>
   <g id="matplotlib.axis_1">
    <g id="xtick_1">
     <g id="line2d_1">
      <defs>
       <path d="M 0 0 
L 0 3.5 
" id="m84d252657a" style="stroke:#000000;stroke-width:0.8;"/>
      </defs>
      <g>
       <use style="stroke:#000000;stroke-width:0.8;" x="73.832727" xlink:href="#m84d252657a" y="307.584"/>
      </g>
     </g>
     <g id="text_1">
      <!-- 0 -->
      <g transform="translate(70.651477 322.182437)scale(0.1 -0.1)">
       <defs>
        <path d="M 31.78125 66.40625 
Q 24.171875 66.40625 20.328125 58.90625 
Q 16.5 51.421875 16.5 36.375 
Q 16.5 21.390625 20.328125 13.890625 
Q 24.171875 6.390625 31.78125 6.390625 
Q 39.453125 6.390625 43.28125 13.890625 
Q 47.125 21.390625 47.125 36.375 
Q 47.125 51.421875 43.28125 58.90625 
Q 39.453125 66.40625 31.78125 66.40625 
z
M 31.78125 74.21875 
Q 44.046875 74.21875 50.515625 64.515625 
Q 56.984375 54.828125 56.984375 36.375 
Q 56.984375 17.96875 50.515625 8.265625 
Q 44.046875 -1.421875 31.78125 -1.421875 
Q 19.53125 -1.421875 13.0625 8.265625 
Q 6.59375 17.96875 6.59375 36.375 
Q 6.59375 54.828125 13.0625 64.515625 
Q 19.53125 74.21875 31.78125 74.21875 
z
" id="DejaVuSans-48"/>
       </defs>
       <use xlink:href="#DejaVuSans-48"/>
      </g>
     </g>
    </g>
    <g id="xtick_2">
     <g id="line2d_2">
      <g>
       <use style="stroke:#000000;stroke-width:0.8;" x="138.763636" xlink:href="#m84d252657a" y="307.584"/>
      </g>
     </g>
     <g id="text_2">
      <!-- 2000 -->
      <g transform="translate(126.038636 322.182437)scale(0.1 -0.1)">
       <defs>
        <path d="M 19.1875 8.296875 
L 53.609375 8.296875 
L 53.609375 0 
L 7.328125 0 
L 7.328125 8.296875 
Q 12.9375 14.109375 22.625 23.890625 
Q 32.328125 33.6875 34.8125 36.53125 
Q 39.546875 41.84375 41.421875 45.53125 
Q 43.3125 49.21875 43.3125 52.78125 
Q 43.3125 58.59375 39.234375 62.25 
Q 35.15625 65.921875 28.609375 65.921875 
Q 23.96875 65.921875 18.8125 64.3125 
Q 13.671875 62.703125 7.8125 59.421875 
L 7.8125 69.390625 
Q 13.765625 71.78125 18.9375 73 
Q 24.125 74.21875 28.421875 74.21875 
Q 39.75 74.21875 46.484375 68.546875 
Q 53.21875 62.890625 53.21875 53.421875 
Q 53.21875 48.921875 51.53125 44.890625 
Q 49.859375 40.875 45.40625 35.40625 
Q 44.1875 33.984375 37.640625 27.21875 
Q 31.109375 20.453125 19.1875 8.296875 
z
" id="DejaVuSans-50"/>
       </defs>
       <use xlink:href="#DejaVuSans-50"/>
       <use x="63.623047" xlink:href="#DejaVuSans-48"/>
       <use x="127.246094" xlink:href="#DejaVuSans-48"/>
       <use x="190.869141" xlink:href="#DejaVuSans-48"/>
      </g>
     </g>
    </g>
    <g id="xtick_3">
     <g id="line2d_3">
      <g>
       <use style="stroke:#000000;stroke-width:0.8;" x="203.694545" xlink:href="#m84d252657a" y="307.584"/>
      </g>
     </g>
     <g id="text_3">
      <!-- 4000 -->
      <g transform="translate(190.969545 322.182437)scale(0.1 -0.1)">
       <defs>
        <path d="M 37.796875 64.3125 
L 12.890625 25.390625 
L 37.796875 25.390625 
z
M 35.203125 72.90625 
L 47.609375 72.90625 
L 47.609375 25.390625 
L 58.015625 25.390625 
L 58.015625 17.1875 
L 47.609375 17.1875 
L 47.609375 0 
L 37.796875 0 
L 37.796875 17.1875 
L 4.890625 17.1875 
L 4.890625 26.703125 
z
" id="DejaVuSans-52"/>
       </defs>
       <use xlink:href="#DejaVuSans-52"/>
       <use x="63.623047" xlink:href="#DejaVuSans-48"/>
       <use x="127.246094" xlink:href="#DejaVuSans-48"/>
       <use x="190.869141" xlink:href="#DejaVuSans-48"/>
      </g>
     </g>
    </g>
    <g id="xtick_4">
     <g id="line2d_4">
      <g>
       <use style="stroke:#000000;stroke-width:0.8;" x="268.625455" xlink:href="#m84d252657a" y="307.584"/>
      </g>
     </g>
     <g id="text_4">
      <!-- 6000 -->
      <g transform="translate(255.900455 322.182437)scale(0.1 -0.1)">
       <defs>
        <path d="M 33.015625 40.375 
Q 26.375 40.375 22.484375 35.828125 
Q 18.609375 31.296875 18.609375 23.390625 
Q 18.609375 15.53125 22.484375 10.953125 
Q 26.375 6.390625 33.015625 6.390625 
Q 39.65625 6.390625 43.53125 10.953125 
Q 47.40625 15.53125 47.40625 23.390625 
Q 47.40625 31.296875 43.53125 35.828125 
Q 39.65625 40.375 33.015625 40.375 
z
M 52.59375 71.296875 
L 52.59375 62.3125 
Q 48.875 64.0625 45.09375 64.984375 
Q 41.3125 65.921875 37.59375 65.921875 
Q 27.828125 65.921875 22.671875 59.328125 
Q 17.53125 52.734375 16.796875 39.40625 
Q 19.671875 43.65625 24.015625 45.921875 
Q 28.375 48.1875 33.59375 48.1875 
Q 44.578125 48.1875 50.953125 41.515625 
Q 57.328125 34.859375 57.328125 23.390625 
Q 57.328125 12.15625 50.6875 5.359375 
Q 44.046875 -1.421875 33.015625 -1.421875 
Q 20.359375 -1.421875 13.671875 8.265625 
Q 6.984375 17.96875 6.984375 36.375 
Q 6.984375 53.65625 15.1875 63.9375 
Q 23.390625 74.21875 37.203125 74.21875 
Q 40.921875 74.21875 44.703125 73.484375 
Q 48.484375 72.75 52.59375 71.296875 
z
" id="DejaVuSans-54"/>
       </defs>
       <use xlink:href="#DejaVuSans-54"/>
       <use x="63.623047" xlink:href="#DejaVuSans-48"/>
       <use x="127.246094" xlink:href="#DejaVuSans-48"/>
       <use x="190.869141" xlink:href="#DejaVuSans-48"/>
      </g>
     </g>
    </g>
    <g id="xtick_5">
     <g id="line2d_5">
      <g>
       <use style="stroke:#000000;stroke-width:0.8;" x="333.556364" xlink:href="#m84d252657a" y="307.584"/>
      </g>
     </g>
     <g id="text_5">
      <!-- 8000 -->
      <g transform="translate(320.831364 322.182437)scale(0.1 -0.1)">
       <defs>
        <path d="M 31.78125 34.625 
Q 24.75 34.625 20.71875 30.859375 
Q 16.703125 27.09375 16.703125 20.515625 
Q 16.703125 13.921875 20.71875 10.15625 
Q 24.75 6.390625 31.78125 6.390625 
Q 38.8125 6.390625 42.859375 10.171875 
Q 46.921875 13.96875 46.921875 20.515625 
Q 46.921875 27.09375 42.890625 30.859375 
Q 38.875 34.625 31.78125 34.625 
z
M 21.921875 38.8125 
Q 15.578125 40.375 12.03125 44.71875 
Q 8.5 49.078125 8.5 55.328125 
Q 8.5 64.0625 14.71875 69.140625 
Q 20.953125 74.21875 31.78125 74.21875 
Q 42.671875 74.21875 48.875 69.140625 
Q 55.078125 64.0625 55.078125 55.328125 
Q 55.078125 49.078125 51.53125 44.71875 
Q 48 40.375 41.703125 38.8125 
Q 48.828125 37.15625 52.796875 32.3125 
Q 56.78125 27.484375 56.78125 20.515625 
Q 56.78125 9.90625 50.3125 4.234375 
Q 43.84375 -1.421875 31.78125 -1.421875 
Q 19.734375 -1.421875 13.25 4.234375 
Q 6.78125 9.90625 6.78125 20.515625 
Q 6.78125 27.484375 10.78125 32.3125 
Q 14.796875 37.15625 21.921875 38.8125 
z
M 18.3125 54.390625 
Q 18.3125 48.734375 21.84375 45.5625 
Q 25.390625 42.390625 31.78125 42.390625 
Q 38.140625 42.390625 41.71875 45.5625 
Q 45.3125 48.734375 45.3125 54.390625 
Q 45.3125 60.0625 41.71875 63.234375 
Q 38.140625 66.40625 31.78125 66.40625 
Q 25.390625 66.40625 21.84375 63.234375 
Q 18.3125 60.0625 18.3125 54.390625 
z
" id="DejaVuSans-56"/>
       </defs>
       <use xlink:href="#DejaVuSans-56"/>
       <use x="63.623047" xlink:href="#DejaVuSans-48"/>
       <use x="127.246094" xlink:href="#DejaVuSans-48"/>
       <use x="190.869141" xlink:href="#DejaVuSans-48"/>
      </g>
     </g>
    </g>
    <g id="xtick_6">
     <g id="line2d_6">
      <g>
       <use style="stroke:#000000;stroke-width:0.8;" x="398.487273" xlink:href="#m84d252657a" y="307.584"/>
      </g>
     </g>
     <g id="text_6">
      <!-- 10000 -->
      <g transform="translate(382.581023 322.182437)scale(0.1 -0.1)">
       <defs>
        <path d="M 12.40625 8.296875 
L 28.515625 8.296875 
L 28.515625 63.921875 
L 10.984375 60.40625 
L 10.984375 69.390625 
L 28.421875 72.90625 
L 38.28125 72.90625 
L 38.28125 8.296875 
L 54.390625 8.296875 
L 54.390625 0 
L 12.40625 0 
z
" id="DejaVuSans-49"/>
       </defs>
       <use xlink:href="#DejaVuSans-49"/>
       <use x="63.623047" xlink:href="#DejaVuSans-48"/>
       <use x="127.246094" xlink:href="#DejaVuSans-48"/>
       <use x="190.869141" xlink:href="#DejaVuSans-48"/>
       <use x="254.492188" xlink:href="#DejaVuSans-48"/>
      </g>
     </g>
    </g>
    <g id="text_7">
     <!-- Num-time-steps -->
     <g transform="translate(196.056094 335.860562)scale(0.1 -0.1)">
      <defs>
       <path d="M 9.8125 72.90625 
L 23.09375 72.90625 
L 55.421875 11.921875 
L 55.421875 72.90625 
L 64.984375 72.90625 
L 64.984375 0 
L 51.703125 0 
L 19.390625 60.984375 
L 19.390625 0 
L 9.8125 0 
z
" id="DejaVuSans-78"/>
       <path d="M 8.5 21.578125 
L 8.5 54.6875 
L 17.484375 54.6875 
L 17.484375 21.921875 
Q 17.484375 14.15625 20.5 10.265625 
Q 23.53125 6.390625 29.59375 6.390625 
Q 36.859375 6.390625 41.078125 11.03125 
Q 45.3125 15.671875 45.3125 23.6875 
L 45.3125 54.6875 
L 54.296875 54.6875 
L 54.296875 0 
L 45.3125 0 
L 45.3125 8.40625 
Q 42.046875 3.421875 37.71875 1 
Q 33.40625 -1.421875 27.6875 -1.421875 
Q 18.265625 -1.421875 13.375 4.4375 
Q 8.5 10.296875 8.5 21.578125 
z
M 31.109375 56 
z
" id="DejaVuSans-117"/>
       <path d="M 52 44.1875 
Q 55.375 50.25 60.0625 53.125 
Q 64.75 56 71.09375 56 
Q 79.640625 56 84.28125 50.015625 
Q 88.921875 44.046875 88.921875 33.015625 
L 88.921875 0 
L 79.890625 0 
L 79.890625 32.71875 
Q 79.890625 40.578125 77.09375 44.375 
Q 74.3125 48.1875 68.609375 48.1875 
Q 61.625 48.1875 57.5625 43.546875 
Q 53.515625 38.921875 53.515625 30.90625 
L 53.515625 0 
L 44.484375 0 
L 44.484375 32.71875 
Q 44.484375 40.625 41.703125 44.40625 
Q 38.921875 48.1875 33.109375 48.1875 
Q 26.21875 48.1875 22.15625 43.53125 
Q 18.109375 38.875 18.109375 30.90625 
L 18.109375 0 
L 9.078125 0 
L 9.078125 54.6875 
L 18.109375 54.6875 
L 18.109375 46.1875 
Q 21.1875 51.21875 25.484375 53.609375 
Q 29.78125 56 35.6875 56 
Q 41.65625 56 45.828125 52.96875 
Q 50 49.953125 52 44.1875 
z
" id="DejaVuSans-109"/>
       <path d="M 4.890625 31.390625 
L 31.203125 31.390625 
L 31.203125 23.390625 
L 4.890625 23.390625 
z
" id="DejaVuSans-45"/>
       <path d="M 18.3125 70.21875 
L 18.3125 54.6875 
L 36.8125 54.6875 
L 36.8125 47.703125 
L 18.3125 47.703125 
L 18.3125 18.015625 
Q 18.3125 11.328125 20.140625 9.421875 
Q 21.96875 7.515625 27.59375 7.515625 
L 36.8125 7.515625 
L 36.8125 0 
L 27.59375 0 
Q 17.1875 0 13.234375 3.875 
Q 9.28125 7.765625 9.28125 18.015625 
L 9.28125 47.703125 
L 2.6875 47.703125 
L 2.6875 54.6875 
L 9.28125 54.6875 
L 9.28125 70.21875 
z
" id="DejaVuSans-116"/>
       <path d="M 9.421875 54.6875 
L 18.40625 54.6875 
L 18.40625 0 
L 9.421875 0 
z
M 9.421875 75.984375 
L 18.40625 75.984375 
L 18.40625 64.59375 
L 9.421875 64.59375 
z
" id="DejaVuSans-105"/>
       <path d="M 56.203125 29.59375 
L 56.203125 25.203125 
L 14.890625 25.203125 
Q 15.484375 15.921875 20.484375 11.0625 
Q 25.484375 6.203125 34.421875 6.203125 
Q 39.59375 6.203125 44.453125 7.46875 
Q 49.3125 8.734375 54.109375 11.28125 
L 54.109375 2.78125 
Q 49.265625 0.734375 44.1875 -0.34375 
Q 39.109375 -1.421875 33.890625 -1.421875 
Q 20.796875 -1.421875 13.15625 6.1875 
Q 5.515625 13.8125 5.515625 26.8125 
Q 5.515625 40.234375 12.765625 48.109375 
Q 20.015625 56 32.328125 56 
Q 43.359375 56 49.78125 48.890625 
Q 56.203125 41.796875 56.203125 29.59375 
z
M 47.21875 32.234375 
Q 47.125 39.59375 43.09375 43.984375 
Q 39.0625 48.390625 32.421875 48.390625 
Q 24.90625 48.390625 20.390625 44.140625 
Q 15.875 39.890625 15.1875 32.171875 
z
" id="DejaVuSans-101"/>
       <path d="M 44.28125 53.078125 
L 44.28125 44.578125 
Q 40.484375 46.53125 36.375 47.5 
Q 32.28125 48.484375 27.875 48.484375 
Q 21.1875 48.484375 17.84375 46.4375 
Q 14.5 44.390625 14.5 40.28125 
Q 14.5 37.15625 16.890625 35.375 
Q 19.28125 33.59375 26.515625 31.984375 
L 29.59375 31.296875 
Q 39.15625 29.25 43.1875 25.515625 
Q 47.21875 21.78125 47.21875 15.09375 
Q 47.21875 7.46875 41.1875 3.015625 
Q 35.15625 -1.421875 24.609375 -1.421875 
Q 20.21875 -1.421875 15.453125 -0.5625 
Q 10.6875 0.296875 5.421875 2 
L 5.421875 11.28125 
Q 10.40625 8.6875 15.234375 7.390625 
Q 20.0625 6.109375 24.8125 6.109375 
Q 31.15625 6.109375 34.5625 8.28125 
Q 37.984375 10.453125 37.984375 14.40625 
Q 37.984375 18.0625 35.515625 20.015625 
Q 33.0625 21.96875 24.703125 23.78125 
L 21.578125 24.515625 
Q 13.234375 26.265625 9.515625 29.90625 
Q 5.8125 33.546875 5.8125 39.890625 
Q 5.8125 47.609375 11.28125 51.796875 
Q 16.75 56 26.8125 56 
Q 31.78125 56 36.171875 55.265625 
Q 40.578125 54.546875 44.28125 53.078125 
z
" id="DejaVuSans-115"/>
       <path d="M 18.109375 8.203125 
L 18.109375 -20.796875 
L 9.078125 -20.796875 
L 9.078125 54.6875 
L 18.109375 54.6875 
L 18.109375 46.390625 
Q 20.953125 51.265625 25.265625 53.625 
Q 29.59375 56 35.59375 56 
Q 45.5625 56 51.78125 48.09375 
Q 58.015625 40.1875 58.015625 27.296875 
Q 58.015625 14.40625 51.78125 6.484375 
Q 45.5625 -1.421875 35.59375 -1.421875 
Q 29.59375 -1.421875 25.265625 0.953125 
Q 20.953125 3.328125 18.109375 8.203125 
z
M 48.6875 27.296875 
Q 48.6875 37.203125 44.609375 42.84375 
Q 40.53125 48.484375 33.40625 48.484375 
Q 26.265625 48.484375 22.1875 42.84375 
Q 18.109375 37.203125 18.109375 27.296875 
Q 18.109375 17.390625 22.1875 11.75 
Q 26.265625 6.109375 33.40625 6.109375 
Q 40.53125 6.109375 44.609375 11.75 
Q 48.6875 17.390625 48.6875 27.296875 
z
" id="DejaVuSans-112"/>
      </defs>
      <use xlink:href="#DejaVuSans-78"/>
      <use x="74.804688" xlink:href="#DejaVuSans-117"/>
      <use x="138.183594" xlink:href="#DejaVuSans-109"/>
      <use x="235.595703" xlink:href="#DejaVuSans-45"/>
      <use x="271.679688" xlink:href="#DejaVuSans-116"/>
      <use x="310.888672" xlink:href="#DejaVuSans-105"/>
      <use x="338.671875" xlink:href="#DejaVuSans-109"/>
      <use x="436.083984" xlink:href="#DejaVuSans-101"/>
      <use x="497.607422" xlink:href="#DejaVuSans-45"/>
      <use x="533.691406" xlink:href="#DejaVuSans-115"/>
      <use x="585.791016" xlink:href="#DejaVuSans-116"/>
      <use x="625" xlink:href="#DejaVuSans-101"/>
      <use x="686.523438" xlink:href="#DejaVuSans-112"/>
      <use x="750" xlink:href="#DejaVuSans-115"/>
     </g>
    </g>
   </g>
   <g id="matplotlib.axis_2">
    <g id="ytick_1">
     <g id="line2d_7">
      <defs>
       <path d="M 0 0 
L -3.5 0 
" id="m076c95900d" style="stroke:#000000;stroke-width:0.8;"/>
      </defs>
      <g>
       <use style="stroke:#000000;stroke-width:0.8;" x="57.6" xlink:href="#m076c95900d" y="306.050414"/>
      </g>
     </g>
     <g id="text_8">
      <!-- 0.0 -->
      <g transform="translate(34.696875 309.849633)scale(0.1 -0.1)">
       <defs>
        <path d="M 10.6875 12.40625 
L 21 12.40625 
L 21 0 
L 10.6875 0 
z
" id="DejaVuSans-46"/>
       </defs>
       <use xlink:href="#DejaVuSans-48"/>
       <use x="63.623047" xlink:href="#DejaVuSans-46"/>
       <use x="95.410156" xlink:href="#DejaVuSans-48"/>
      </g>
     </g>
    </g>
    <g id="ytick_2">
     <g id="line2d_8">
      <g>
       <use style="stroke:#000000;stroke-width:0.8;" x="57.6" xlink:href="#m076c95900d" y="253.315106"/>
      </g>
     </g>
     <g id="text_9">
      <!-- 0.1 -->
      <g transform="translate(34.696875 257.114324)scale(0.1 -0.1)">
       <use xlink:href="#DejaVuSans-48"/>
       <use x="63.623047" xlink:href="#DejaVuSans-46"/>
       <use x="95.410156" xlink:href="#DejaVuSans-49"/>
      </g>
     </g>
    </g>
    <g id="ytick_3">
     <g id="line2d_9">
      <g>
       <use style="stroke:#000000;stroke-width:0.8;" x="57.6" xlink:href="#m076c95900d" y="200.579797"/>
      </g>
     </g>
     <g id="text_10">
      <!-- 0.2 -->
      <g transform="translate(34.696875 204.379016)scale(0.1 -0.1)">
       <use xlink:href="#DejaVuSans-48"/>
       <use x="63.623047" xlink:href="#DejaVuSans-46"/>
       <use x="95.410156" xlink:href="#DejaVuSans-50"/>
      </g>
     </g>
    </g>
    <g id="ytick_4">
     <g id="line2d_10">
      <g>
       <use style="stroke:#000000;stroke-width:0.8;" x="57.6" xlink:href="#m076c95900d" y="147.844489"/>
      </g>
     </g>
     <g id="text_11">
      <!-- 0.3 -->
      <g transform="translate(34.696875 151.643708)scale(0.1 -0.1)">
       <defs>
        <path d="M 40.578125 39.3125 
Q 47.65625 37.796875 51.625 33 
Q 55.609375 28.21875 55.609375 21.1875 
Q 55.609375 10.40625 48.1875 4.484375 
Q 40.765625 -1.421875 27.09375 -1.421875 
Q 22.515625 -1.421875 17.65625 -0.515625 
Q 12.796875 0.390625 7.625 2.203125 
L 7.625 11.71875 
Q 11.71875 9.328125 16.59375 8.109375 
Q 21.484375 6.890625 26.8125 6.890625 
Q 36.078125 6.890625 40.9375 10.546875 
Q 45.796875 14.203125 45.796875 21.1875 
Q 45.796875 27.640625 41.28125 31.265625 
Q 36.765625 34.90625 28.71875 34.90625 
L 20.21875 34.90625 
L 20.21875 43.015625 
L 29.109375 43.015625 
Q 36.375 43.015625 40.234375 45.921875 
Q 44.09375 48.828125 44.09375 54.296875 
Q 44.09375 59.90625 40.109375 62.90625 
Q 36.140625 65.921875 28.71875 65.921875 
Q 24.65625 65.921875 20.015625 65.03125 
Q 15.375 64.15625 9.8125 62.3125 
L 9.8125 71.09375 
Q 15.4375 72.65625 20.34375 73.4375 
Q 25.25 74.21875 29.59375 74.21875 
Q 40.828125 74.21875 47.359375 69.109375 
Q 53.90625 64.015625 53.90625 55.328125 
Q 53.90625 49.265625 50.4375 45.09375 
Q 46.96875 40.921875 40.578125 39.3125 
z
" id="DejaVuSans-51"/>
       </defs>
       <use xlink:href="#DejaVuSans-48"/>
       <use x="63.623047" xlink:href="#DejaVuSans-46"/>
       <use x="95.410156" xlink:href="#DejaVuSans-51"/>
      </g>
     </g>
    </g>
    <g id="ytick_5">
     <g id="line2d_11">
      <g>
       <use style="stroke:#000000;stroke-width:0.8;" x="57.6" xlink:href="#m076c95900d" y="95.109181"/>
      </g>
     </g>
     <g id="text_12">
      <!-- 0.4 -->
      <g transform="translate(34.696875 98.9084)scale(0.1 -0.1)">
       <use xlink:href="#DejaVuSans-48"/>
       <use x="63.623047" xlink:href="#DejaVuSans-46"/>
       <use x="95.410156" xlink:href="#DejaVuSans-52"/>
      </g>
     </g>
    </g>
    <g id="ytick_6">
     <g id="line2d_12">
      <g>
       <use style="stroke:#000000;stroke-width:0.8;" x="57.6" xlink:href="#m076c95900d" y="42.373873"/>
      </g>
     </g>
     <g id="text_13">
      <!-- 0.5 -->
      <g transform="translate(34.696875 46.173092)scale(0.1 -0.1)">
       <defs>
        <path d="M 10.796875 72.90625 
L 49.515625 72.90625 
L 49.515625 64.59375 
L 19.828125 64.59375 
L 19.828125 46.734375 
Q 21.96875 47.46875 24.109375 47.828125 
Q 26.265625 48.1875 28.421875 48.1875 
Q 40.625 48.1875 47.75 41.5 
Q 54.890625 34.8125 54.890625 23.390625 
Q 54.890625 11.625 47.5625 5.09375 
Q 40.234375 -1.421875 26.90625 -1.421875 
Q 22.3125 -1.421875 17.546875 -0.640625 
Q 12.796875 0.140625 7.71875 1.703125 
L 7.71875 11.625 
Q 12.109375 9.234375 16.796875 8.0625 
Q 21.484375 6.890625 26.703125 6.890625 
Q 35.15625 6.890625 40.078125 11.328125 
Q 45.015625 15.765625 45.015625 23.390625 
Q 45.015625 31 40.078125 35.4375 
Q 35.15625 39.890625 26.703125 39.890625 
Q 22.75 39.890625 18.8125 39.015625 
Q 14.890625 38.140625 10.796875 36.28125 
z
" id="DejaVuSans-53"/>
       </defs>
       <use xlink:href="#DejaVuSans-48"/>
       <use x="63.623047" xlink:href="#DejaVuSans-46"/>
       <use x="95.410156" xlink:href="#DejaVuSans-53"/>
      </g>
     </g>
    </g>
    <g id="text_14">
     <!-- Obj-pose-error-norm -->
     <g transform="translate(28.617187 225.203781)rotate(-90)scale(0.1 -0.1)">
      <defs>
       <path d="M 39.40625 66.21875 
Q 28.65625 66.21875 22.328125 58.203125 
Q 16.015625 50.203125 16.015625 36.375 
Q 16.015625 22.609375 22.328125 14.59375 
Q 28.65625 6.59375 39.40625 6.59375 
Q 50.140625 6.59375 56.421875 14.59375 
Q 62.703125 22.609375 62.703125 36.375 
Q 62.703125 50.203125 56.421875 58.203125 
Q 50.140625 66.21875 39.40625 66.21875 
z
M 39.40625 74.21875 
Q 54.734375 74.21875 63.90625 63.9375 
Q 73.09375 53.65625 73.09375 36.375 
Q 73.09375 19.140625 63.90625 8.859375 
Q 54.734375 -1.421875 39.40625 -1.421875 
Q 24.03125 -1.421875 14.8125 8.828125 
Q 5.609375 19.09375 5.609375 36.375 
Q 5.609375 53.65625 14.8125 63.9375 
Q 24.03125 74.21875 39.40625 74.21875 
z
" id="DejaVuSans-79"/>
       <path d="M 48.6875 27.296875 
Q 48.6875 37.203125 44.609375 42.84375 
Q 40.53125 48.484375 33.40625 48.484375 
Q 26.265625 48.484375 22.1875 42.84375 
Q 18.109375 37.203125 18.109375 27.296875 
Q 18.109375 17.390625 22.1875 11.75 
Q 26.265625 6.109375 33.40625 6.109375 
Q 40.53125 6.109375 44.609375 11.75 
Q 48.6875 17.390625 48.6875 27.296875 
z
M 18.109375 46.390625 
Q 20.953125 51.265625 25.265625 53.625 
Q 29.59375 56 35.59375 56 
Q 45.5625 56 51.78125 48.09375 
Q 58.015625 40.1875 58.015625 27.296875 
Q 58.015625 14.40625 51.78125 6.484375 
Q 45.5625 -1.421875 35.59375 -1.421875 
Q 29.59375 -1.421875 25.265625 0.953125 
Q 20.953125 3.328125 18.109375 8.203125 
L 18.109375 0 
L 9.078125 0 
L 9.078125 75.984375 
L 18.109375 75.984375 
z
" id="DejaVuSans-98"/>
       <path d="M 9.421875 54.6875 
L 18.40625 54.6875 
L 18.40625 -0.984375 
Q 18.40625 -11.421875 14.421875 -16.109375 
Q 10.453125 -20.796875 1.609375 -20.796875 
L -1.8125 -20.796875 
L -1.8125 -13.1875 
L 0.59375 -13.1875 
Q 5.71875 -13.1875 7.5625 -10.8125 
Q 9.421875 -8.453125 9.421875 -0.984375 
z
M 9.421875 75.984375 
L 18.40625 75.984375 
L 18.40625 64.59375 
L 9.421875 64.59375 
z
" id="DejaVuSans-106"/>
       <path d="M 30.609375 48.390625 
Q 23.390625 48.390625 19.1875 42.75 
Q 14.984375 37.109375 14.984375 27.296875 
Q 14.984375 17.484375 19.15625 11.84375 
Q 23.34375 6.203125 30.609375 6.203125 
Q 37.796875 6.203125 41.984375 11.859375 
Q 46.1875 17.53125 46.1875 27.296875 
Q 46.1875 37.015625 41.984375 42.703125 
Q 37.796875 48.390625 30.609375 48.390625 
z
M 30.609375 56 
Q 42.328125 56 49.015625 48.375 
Q 55.71875 40.765625 55.71875 27.296875 
Q 55.71875 13.875 49.015625 6.21875 
Q 42.328125 -1.421875 30.609375 -1.421875 
Q 18.84375 -1.421875 12.171875 6.21875 
Q 5.515625 13.875 5.515625 27.296875 
Q 5.515625 40.765625 12.171875 48.375 
Q 18.84375 56 30.609375 56 
z
" id="DejaVuSans-111"/>
       <path d="M 41.109375 46.296875 
Q 39.59375 47.171875 37.8125 47.578125 
Q 36.03125 48 33.890625 48 
Q 26.265625 48 22.1875 43.046875 
Q 18.109375 38.09375 18.109375 28.8125 
L 18.109375 0 
L 9.078125 0 
L 9.078125 54.6875 
L 18.109375 54.6875 
L 18.109375 46.1875 
Q 20.953125 51.171875 25.484375 53.578125 
Q 30.03125 56 36.53125 56 
Q 37.453125 56 38.578125 55.875 
Q 39.703125 55.765625 41.0625 55.515625 
z
" id="DejaVuSans-114"/>
       <path d="M 54.890625 33.015625 
L 54.890625 0 
L 45.90625 0 
L 45.90625 32.71875 
Q 45.90625 40.484375 42.875 44.328125 
Q 39.84375 48.1875 33.796875 48.1875 
Q 26.515625 48.1875 22.3125 43.546875 
Q 18.109375 38.921875 18.109375 30.90625 
L 18.109375 0 
L 9.078125 0 
L 9.078125 54.6875 
L 18.109375 54.6875 
L 18.109375 46.1875 
Q 21.34375 51.125 25.703125 53.5625 
Q 30.078125 56 35.796875 56 
Q 45.21875 56 50.046875 50.171875 
Q 54.890625 44.34375 54.890625 33.015625 
z
" id="DejaVuSans-110"/>
      </defs>
      <use xlink:href="#DejaVuSans-79"/>
      <use x="78.710938" xlink:href="#DejaVuSans-98"/>
      <use x="142.1875" xlink:href="#DejaVuSans-106"/>
      <use x="169.970703" xlink:href="#DejaVuSans-45"/>
      <use x="206.054688" xlink:href="#DejaVuSans-112"/>
      <use x="269.53125" xlink:href="#DejaVuSans-111"/>
      <use x="330.712891" xlink:href="#DejaVuSans-115"/>
      <use x="382.8125" xlink:href="#DejaVuSans-101"/>
      <use x="444.335938" xlink:href="#DejaVuSans-45"/>
      <use x="480.419922" xlink:href="#DejaVuSans-101"/>
      <use x="541.943359" xlink:href="#DejaVuSans-114"/>
      <use x="581.306641" xlink:href="#DejaVuSans-114"/>
      <use x="620.169922" xlink:href="#DejaVuSans-111"/>
      <use x="681.351562" xlink:href="#DejaVuSans-114"/>
      <use x="716.089844" xlink:href="#DejaVuSans-45"/>
      <use x="752.173828" xlink:href="#DejaVuSans-110"/>
      <use x="815.552734" xlink:href="#DejaVuSans-111"/>
      <use x="876.734375" xlink:href="#DejaVuSans-114"/>
      <use x="916.097656" xlink:href="#DejaVuSans-109"/>
     </g>
    </g>
   </g>
   <g id="line2d_13">
    <path clip-path="url(#p83f5ed1a83)" d="M 73.832727 284.106851 
L 73.995055 284.124056 
L 74.157382 283.194745 
L 74.546967 288.042721 
L 74.839156 291.882848 
L 74.871622 291.633803 
L 74.936553 291.096491 
L 74.969018 291.453607 
L 75.066415 292.168028 
L 75.09888 292.122052 
L 75.326138 286.826024 
L 75.423535 286.985789 
L 75.520931 286.333821 
L 75.780655 279.557961 
L 75.845585 279.155995 
L 75.910516 279.483465 
L 76.072844 277.065604 
L 77.014342 269.63419 
L 77.890909 263.648693 
L 78.702545 255.404362 
L 79.416785 249.137357 
L 80.358284 240.176034 
L 80.975127 234.625013 
L 81.689367 227.232709 
L 82.371142 220.2996 
L 82.890589 218.303482 
L 83.182778 216.916344 
L 83.734691 212.624815 
L 85.780015 196.043633 
L 86.007273 196.005692 
L 86.396858 196.151466 
L 86.591651 195.645254 
L 86.88384 193.443345 
L 87.59808 187.545112 
L 87.9552 186.177394 
L 88.636975 185.348804 
L 89.059025 184.364144 
L 90.292713 179.52786 
L 90.617367 179.38513 
L 91.16928 180.009602 
L 91.558865 179.736285 
L 91.721193 179.668855 
L 91.980916 179.692318 
L 92.338036 179.697944 
L 92.500364 179.662232 
L 92.987345 179.830876 
L 93.149673 179.806406 
L 93.214604 179.816755 
L 93.247069 179.865861 
L 93.571724 180.489189 
L 93.831447 181.025991 
L 93.961309 181.018698 
L 94.350895 180.556766 
L 94.610618 180.76867 
L 94.805411 180.879444 
L 94.967738 180.81955 
L 95.227462 181.183818 
L 95.487185 181.530836 
L 95.941702 182.703295 
L 96.16896 182.654202 
L 96.623476 181.764014 
L 96.785804 181.910056 
L 96.948131 182.095596 
L 96.980596 182.06214 
L 97.337716 182.216378 
L 97.564975 182.187201 
L 97.792233 182.427228 
L 97.857164 182.535118 
L 98.149353 182.940908 
L 98.214284 182.96573 
L 98.896058 184.563484 
L 99.123316 185.166209 
L 99.220713 185.38315 
L 99.38304 185.48948 
L 99.512902 185.560307 
L 99.934953 186.553251 
L 99.967418 186.536017 
L 100.129745 186.705317 
L 100.259607 186.828038 
L 100.486865 186.618005 
L 100.779055 186.418773 
L 101.038778 186.709742 
L 101.493295 187.732171 
L 101.915345 188.581645 
L 102.467258 189.673553 
L 102.499724 189.64285 
L 103.181498 188.216374 
L 103.213964 188.236549 
L 103.506153 188.555242 
L 103.960669 189.77059 
L 104.220393 190.308433 
L 104.38272 190.264687 
L 104.73984 190.246215 
L 104.999564 190.983078 
L 105.226822 191.409435 
L 105.356684 191.292594 
L 105.519011 191.184127 
L 105.876131 191.721887 
L 105.941062 191.674755 
L 105.973527 191.745534 
L 106.135855 191.825822 
L 106.460509 191.489468 
L 106.655302 191.139277 
L 106.915025 191.070273 
L 107.174749 191.423711 
L 107.5968 193.24249 
L 107.986385 195.982291 
L 108.148713 196.42292 
L 108.246109 196.703493 
L 108.31104 196.669902 
L 108.375971 196.602121 
L 108.440902 196.939474 
L 108.505833 196.904288 
L 108.538298 196.776781 
L 108.635695 196.80756 
L 108.700625 196.887615 
L 108.733091 196.767458 
L 108.798022 196.62688 
L 108.862953 196.677105 
L 109.122676 196.454293 
L 109.836916 194.016861 
L 109.934313 194.09641 
L 110.161571 194.454039 
L 110.388829 194.715798 
L 110.713484 195.772299 
L 111.005673 196.705604 
L 111.200465 196.915745 
L 111.492655 196.729041 
L 111.654982 196.656623 
L 111.849775 196.5187 
L 112.564015 195.718596 
L 113.148393 195.098016 
L 113.180858 195.128133 
L 113.537978 195.476042 
L 113.765236 195.79896 
L 113.960029 195.772609 
L 114.284684 195.9846 
L 114.479476 195.939449 
L 114.576873 195.828249 
L 114.771665 195.579835 
L 115.031389 195.306981 
L 115.45344 193.972732 
L 115.745629 193.210211 
L 115.843025 193.226704 
L 116.037818 193.709696 
L 116.784524 196.507133 
L 117.011782 196.472112 
L 117.076713 196.402981 
L 117.563695 194.825253 
L 117.985745 192.774795 
L 118.342865 191.884464 
L 118.505193 191.934489 
L 118.66752 192.590684 
L 119.186967 195.011286 
L 119.511622 195.180737 
L 119.966138 194.778583 
L 120.096 194.748212 
L 120.290793 194.67344 
L 120.81024 195.201722 
L 120.875171 195.193156 
L 120.907636 195.228194 
L 121.037498 195.194878 
L 121.297222 194.840512 
L 121.329687 194.806144 
L 121.362153 194.840023 
L 121.784204 195.479841 
L 122.303651 195.435837 
L 122.530909 195.369982 
L 122.758167 195.268694 
L 122.95296 195.140059 
L 123.31008 195.161883 
L 123.732131 195.110418 
L 124.251578 194.356815 
L 124.543767 193.821816 
L 124.673629 193.6518 
L 124.706095 193.702066 
L 125.128145 194.305976 
L 125.322938 193.983067 
L 125.777455 193.346297 
L 126.134575 193.303894 
L 126.296902 193.31973 
L 127.205935 192.472355 
L 127.335796 192.569599 
L 127.920175 194.137533 
L 127.985105 194.09752 
L 128.407156 193.964371 
L 128.926604 194.276266 
L 129.153862 194.098914 
L 129.316189 194.009361 
L 129.803171 193.456559 
L 130.062895 193.085 
L 130.160291 192.991807 
L 130.192756 193.021565 
L 130.679738 193.260263 
L 130.971927 192.802184 
L 131.393978 192.161904 
L 131.751098 192.204613 
L 132.043287 192.486973 
L 132.367942 192.946274 
L 132.627665 193.088862 
L 132.822458 193.298873 
L 132.984785 193.20272 
L 133.276975 192.887495 
L 133.374371 192.966659 
L 133.569164 193.23671 
L 133.731491 193.300349 
L 133.828887 193.231605 
L 133.861353 193.257685 
L 134.056145 193.326778 
L 134.218473 193.330236 
L 134.348335 193.295222 
L 134.510662 193.238655 
L 135.030109 193.821975 
L 135.517091 194.285654 
L 136.004073 194.561649 
L 136.036538 194.512356 
L 136.069004 194.601425 
L 136.328727 195.014725 
L 136.491055 194.926703 
L 136.848175 194.959238 
L 137.010502 194.823255 
L 137.562415 193.638292 
L 137.59488 193.659711 
L 137.692276 193.902666 
L 138.341585 196.686078 
L 138.471447 196.547374 
L 138.796102 195.707455 
L 138.828567 195.728854 
L 138.990895 195.756312 
L 139.315549 196.183199 
L 139.542807 196.55293 
L 139.7376 196.765271 
L 139.899927 196.740909 
L 140.549236 197.058378 
L 140.744029 197.120573 
L 141.360873 196.362913 
L 141.393338 196.396789 
L 141.653062 196.524937 
L 141.815389 196.628417 
L 142.107578 196.894957 
L 142.140044 196.979776 
L 142.172509 196.879248 
L 142.432233 196.442517 
L 142.854284 196.046532 
L 142.984145 196.047673 
L 143.114007 196.031072 
L 143.211404 195.978346 
L 143.373731 195.920566 
L 143.66592 195.803942 
L 143.893178 195.486063 
L 144.412625 194.621214 
L 144.73728 194.198244 
L 144.964538 194.006187 
L 145.419055 193.121921 
L 145.711244 192.516464 
L 145.906036 192.435608 
L 146.230691 192.429875 
L 146.457949 192.259107 
L 146.52288 192.2892 
L 146.555345 192.225676 
L 146.620276 192.148969 
L 147.334516 190.419881 
L 147.724102 189.833519 
L 147.886429 189.913205 
L 148.276015 190.586738 
L 148.30848 190.555812 
L 148.827927 188.700434 
L 148.990255 188.658542 
L 149.37984 188.956701 
L 149.574633 189.179133 
L 149.639564 189.124884 
L 149.931753 188.856971 
L 150.418735 188.150486 
L 150.80832 187.814547 
L 151.16544 187.667536 
L 151.230371 187.724184 
L 151.392698 187.973924 
L 151.457629 187.834062 
L 152.788713 184.687419 
L 153.015971 184.601793 
L 153.178298 184.725076 
L 153.502953 185.429247 
L 153.567884 185.641196 
L 153.600349 185.607919 
L 153.860073 184.900597 
L 154.087331 184.713213 
L 154.37952 184.772187 
L 154.444451 184.883405 
L 154.606778 184.45808 
L 154.671709 184.37984 
L 154.704175 184.548251 
L 154.769105 184.476502 
L 155.158691 183.975587 
L 155.223622 184.065669 
L 155.288553 184.037869 
L 155.321018 184.044872 
L 155.353484 184.222007 
L 155.418415 184.109514 
L 155.645673 183.731863 
L 155.905396 183.320348 
L 156.359913 183.064524 
L 156.424844 183.016479 
L 156.587171 182.71387 
L 156.619636 182.725625 
L 156.846895 182.581405 
L 157.204015 182.135669 
L 157.723462 181.47749 
L 157.918255 181.484624 
L 158.470167 181.226349 
L 158.66496 180.973467 
L 158.827287 180.893021 
L 159.087011 181.113973 
L 159.216873 181.209042 
L 159.249338 181.040556 
L 159.314269 181.157126 
L 159.509062 181.247894 
L 159.671389 181.182982 
L 160.288233 180.473982 
L 160.872611 181.062339 
L 161.002473 181.725993 
L 161.034938 181.546532 
L 161.132335 181.310018 
L 161.1648 181.562499 
L 161.229731 181.332834 
L 161.52192 180.649076 
L 161.911505 180.652557 
L 162.528349 181.194712 
L 162.560815 181.478639 
L 162.658211 181.430976 
L 162.820538 181.403979 
L 162.982865 181.343562 
L 163.112727 181.182298 
L 163.30752 181.078873 
L 163.502313 181.280049 
L 163.632175 181.79714 
L 163.697105 181.833787 
L 163.794502 181.579469 
L 163.826967 181.867986 
L 163.891898 181.793428 
L 163.956829 181.370597 
L 164.02176 181.632847 
L 164.054225 181.650148 
L 164.184087 181.164933 
L 164.216553 181.236453 
L 164.281484 181.554745 
L 164.346415 181.397918 
L 164.541207 181.173372 
L 164.573673 181.252132 
L 164.638604 181.301365 
L 164.736 181.185208 
L 164.768465 181.23872 
L 164.833396 181.522633 
L 164.898327 181.470491 
L 165.09312 181.3547 
L 165.580102 181.55501 
L 165.612567 181.993832 
L 165.677498 181.729424 
L 165.904756 181.378975 
L 165.969687 181.495431 
L 166.002153 181.457455 
L 166.034618 181.406887 
L 166.067084 181.14289 
L 166.16448 181.178458 
L 166.359273 181.246564 
L 166.748858 181.422662 
L 166.813789 181.404968 
L 166.846255 181.204618 
L 166.87872 181.495221 
L 166.911185 181.448318 
L 166.943651 181.408448 
L 167.008582 180.959058 
L 167.041047 181.012713 
L 167.073513 181.276836 
L 167.170909 181.188916 
L 167.982545 180.502933 
L 168.112407 180.46801 
L 168.3072 180.383602 
L 168.339665 180.382315 
L 168.469527 180.858625 
L 168.501993 180.823402 
L 168.696785 179.3968 
L 168.729251 179.416727 
L 168.794182 179.627436 
L 168.859113 179.521095 
L 168.956509 179.52949 
L 169.086371 179.663729 
L 169.183767 179.544449 
L 169.248698 179.6126 
L 169.508422 179.557591 
L 169.605818 179.748486 
L 169.670749 179.70234 
L 169.962938 179.595332 
L 170.060335 179.506695 
L 170.0928 179.748213 
L 170.190196 179.654324 
L 170.904436 178.670351 
L 171.066764 178.124306 
L 171.16416 178.040379 
L 171.683607 177.631311 
L 172.23552 177.144373 
L 173.047156 176.240694 
L 173.664 175.172467 
L 173.696465 175.503919 
L 173.761396 175.160484 
L 173.793862 175.350386 
L 173.826327 174.957556 
L 174.02112 173.905988 
L 174.215913 173.906754 
L 174.410705 173.855122 
L 174.637964 174.009509 
L 175.09248 173.738865 
L 175.709324 172.502234 
L 175.969047 171.252045 
L 176.16384 170.962647 
L 176.196305 170.981568 
L 176.261236 171.000431 
L 176.293702 170.924121 
L 176.488495 170.767255 
L 176.618356 170.671093 
L 176.715753 170.503993 
L 176.943011 170.11452 
L 177.202735 169.482991 
L 177.300131 169.640757 
L 177.462458 169.666747 
L 177.657251 169.418483 
L 178.890938 166.123793 
L 178.988335 165.845097 
L 179.0208 165.908924 
L 179.832436 164.77479 
L 180.416815 163.222913 
L 181.131055 161.718884 
L 182.916655 158.413233 
L 183.66336 157.423612 
L 184.410065 155.857649 
L 184.572393 155.426091 
L 184.929513 154.861463 
L 185.059375 154.719066 
L 186.390458 152.195397 
L 186.812509 151.226978 
L 186.942371 151.599844 
L 187.104698 151.013407 
L 187.137164 151.289816 
L 187.202095 151.08998 
L 187.429353 150.874078 
L 187.754007 150.508887 
L 188.111127 149.944803 
L 188.240989 149.876705 
L 190.513571 146.791653 
L 191.097949 145.947566 
L 191.16288 146.046812 
L 191.292742 145.779043 
L 191.812189 145.290412 
L 192.006982 145.202613 
L 192.786153 144.192749 
L 193.240669 143.649261 
L 193.435462 143.659164 
L 193.565324 143.634632 
L 194.247098 142.586887 
L 194.73408 142.25668 
L 195.415855 140.99986 
L 196.16256 141.271209 
L 196.552145 140.516629 
L 196.941731 139.794757 
L 197.526109 138.901745 
L 197.720902 138.651402 
L 198.110487 137.76042 
L 198.6624 137.155301 
L 199.214313 136.941117 
L 199.636364 137.11432 
L 200.675258 135.609421 
L 200.80512 135.595624 
L 201.389498 135.10466 
L 201.649222 135.096391 
L 201.973876 135.437262 
L 202.006342 135.474469 
L 202.071273 135.406196 
L 202.395927 135.083027 
L 202.753047 134.467529 
L 202.785513 134.448029 
L 202.882909 134.719332 
L 202.915375 134.689868 
L 203.142633 134.605326 
L 203.467287 134.795702 
L 203.694545 134.806226 
L 204.084131 135.114011 
L 204.116596 135.045618 
L 204.246458 135.025095 
L 204.408785 134.986336 
L 205.220422 134.414156 
L 205.415215 134.561421 
L 205.8048 135.01072 
L 205.837265 134.986807 
L 206.096989 134.876609 
L 206.16192 134.922613 
L 206.324247 135.073797 
L 207.006022 135.285212 
L 207.428073 134.888563 
L 207.752727 134.927062 
L 207.94752 134.8719 
L 208.402036 135.277699 
L 208.596829 135.513529 
L 209.181207 135.718309 
L 209.311069 135.793189 
L 209.440931 135.86107 
L 209.668189 135.886676 
L 209.927913 135.865727 
L 210.187636 135.81499 
L 210.707084 135.831157 
L 211.031738 135.589634 
L 211.453789 135.525163 
L 211.908305 135.331541 
L 212.330356 135.647585 
L 212.914735 136.086125 
L 213.434182 135.835652 
L 213.791302 135.331204 
L 213.953629 135.365269 
L 214.213353 136.009523 
L 214.505542 136.754591 
L 214.700335 136.839231 
L 215.187316 135.940807 
L 215.674298 134.925113 
L 215.771695 134.935806 
L 216.193745 135.310396 
L 216.388538 135.312969 
L 216.550865 135.407054 
L 217.265105 135.519468 
L 217.557295 135.362346 
L 217.817018 135.028597 
L 218.433862 134.590904 
L 218.596189 134.663985 
L 219.310429 135.846397 
L 219.73248 135.425301 
L 220.219462 134.904936 
L 220.511651 134.806433 
L 220.771375 134.762836 
L 221.388218 134.865966 
L 221.51808 135.017501 
L 221.907665 134.890326 
L 222.037527 134.855513 
L 222.362182 135.037467 
L 222.58944 135.018863 
L 222.881629 135.056817 
L 223.043956 135.057807 
L 223.238749 135.024921 
L 223.725731 135.300228 
L 224.602298 135.22206 
L 224.797091 135.245232 
L 226.030778 135.059325 
L 226.745018 135.486486 
L 227.232 135.26305 
L 228.205964 136.194172 
L 228.465687 136.103939 
L 228.790342 135.837726 
L 229.212393 136.0719 
L 229.634444 136.456602 
L 229.861702 136.438891 
L 230.673338 135.998419 
L 231.062924 136.217586 
L 231.452509 136.667966 
L 231.679767 136.831545 
L 232.166749 136.862971 
L 232.880989 136.760868 
L 233.790022 136.28793 
L 234.082211 136.194296 
L 234.926313 135.490917 
L 235.08864 135.468801 
L 235.380829 135.034225 
L 235.705484 134.730228 
L 236.257396 134.601942 
L 236.452189 134.766228 
L 237.069033 135.259804 
L 237.296291 135.140745 
L 237.750807 134.613984 
L 238.140393 134.249332 
L 238.854633 133.455727 
L 239.146822 133.43402 
L 239.439011 133.35238 
L 239.666269 133.345007 
L 239.925993 133.236206 
L 240.542836 133.257919 
L 240.899956 132.918162 
L 241.419404 132.8141 
L 241.744058 132.961707 
L 242.847884 132.705883 
L 243.724451 131.970427 
L 244.01664 131.994539 
L 244.276364 131.8824 
L 244.73088 131.902676 
L 245.899636 130.75739 
L 246.711273 130.732727 
L 247.165789 130.214445 
L 247.490444 130.114903 
L 247.815098 130.066056 
L 250.477265 128.757839 
L 251.581091 128.010538 
L 251.775884 127.979431 
L 252.068073 127.968372 
L 252.555055 127.849846 
L 253.431622 127.155113 
L 253.853673 127.127375 
L 254.243258 126.86095 
L 254.502982 126.617704 
L 255.022429 126.004691 
L 255.509411 125.611259 
L 257.846924 124.648273 
L 258.398836 123.951469 
L 258.853353 123.480145 
L 261.093469 122.323732 
L 261.353193 122.279188 
L 261.775244 122.072898 
L 262.164829 121.710749 
L 262.554415 121.513687 
L 262.781673 121.328211 
L 263.333585 120.565393 
L 263.560844 120.265919 
L 263.853033 119.961117 
L 264.340015 119.690337 
L 264.924393 119.124603 
L 266.580131 116.562003 
L 266.904785 116.426874 
L 268.333265 115.571005 
L 268.592989 115.487344 
L 269.047505 115.082682 
L 269.177367 115.028045 
L 269.566953 114.565224 
L 270.248727 113.933419 
L 270.378589 113.877131 
L 271.51488 112.375363 
L 272.164189 111.42323 
L 272.651171 111.081076 
L 273.008291 110.923338 
L 273.30048 110.52169 
L 275.021149 108.456964 
L 275.215942 108.334354 
L 275.735389 107.874268 
L 275.930182 107.723285 
L 276.352233 107.419734 
L 276.936611 107.310002 
L 277.098938 107.29474 
L 278.105367 106.872658 
L 278.527418 107.130406 
L 279.079331 107.247482 
L 279.339055 107.229027 
L 280.118225 107.118296 
L 280.345484 107.033038 
L 281.092189 106.919149 
L 281.416844 106.930229 
L 281.741498 106.854015 
L 281.903825 106.804434 
L 282.196015 106.801573 
L 282.325876 106.727152 
L 282.650531 106.552065 
L 282.780393 106.504178 
L 283.072582 106.349268 
L 283.202444 106.328255 
L 283.65696 106.030294 
L 284.3712 105.474556 
L 284.565993 105.549383 
L 284.858182 105.453602 
L 286.481455 104.594626 
L 287.000902 104.715673 
L 287.455418 104.445051 
L 287.877469 104.321947 
L 288.267055 104.128109 
L 288.624175 104.18927 
L 288.916364 104.288651 
L 289.241018 104.372234 
L 289.792931 103.866938 
L 290.117585 103.690507 
L 290.831825 103.578894 
L 291.091549 103.424671 
L 291.221411 103.383444 
L 291.578531 103.28314 
L 292.130444 103.249979 
L 293.818647 102.922202 
L 294.273164 102.661385 
L 294.435491 102.664896 
L 294.792611 102.662689 
L 294.922473 102.594161 
L 295.279593 102.383883 
L 295.734109 102.35137 
L 296.026298 102.39423 
L 296.253556 102.424276 
L 296.837935 102.346135 
L 297.259985 102.424635 
L 297.422313 102.411106 
L 298.591069 102.43453 
L 299.078051 102.543689 
L 299.792291 102.475307 
L 300.019549 102.543395 
L 300.181876 102.44926 
L 300.4416 102.475489 
L 301.188305 102.461618 
L 301.675287 102.683866 
L 302.032407 102.548738 
L 302.2272 102.467749 
L 302.551855 102.295366 
L 302.681716 102.289465 
L 302.844044 102.278139 
L 303.233629 102.375386 
L 303.460887 102.312152 
L 303.65568 102.317036 
L 304.142662 102.427229 
L 304.467316 102.346603 
L 304.597178 102.368943 
L 304.986764 102.478166 
L 305.214022 102.437241 
L 305.376349 102.484117 
L 305.571142 102.435853 
L 305.765935 102.519971 
L 305.993193 102.549652 
L 306.252916 102.375593 
L 306.382778 102.443601 
L 306.577571 102.333858 
L 308.103447 102.238551 
L 308.817687 101.769162 
L 309.077411 101.814564 
L 309.304669 101.647047 
L 310.570822 101.085018 
L 310.668218 101.033206 
L 310.863011 101.021542 
L 310.960407 100.987764 
L 311.544785 100.560065 
L 311.804509 100.531097 
L 312.161629 100.648925 
L 312.518749 100.571825 
L 313.135593 100.366429 
L 313.557644 100.149012 
L 313.65504 100.08302 
L 313.687505 100.108379 
L 315.375709 99.841878 
L 315.538036 99.699684 
L 315.732829 99.560843 
L 315.79776 99.577675 
L 315.830225 99.509212 
L 316.15488 99.428844 
L 316.349673 99.474316 
L 316.576931 99.40316 
L 316.804189 99.487584 
L 316.966516 99.532936 
L 317.258705 99.454545 
L 318.719651 99.468766 
L 318.849513 99.518897 
L 318.881978 99.480663 
L 319.304029 99.533761 
L 319.628684 99.630655 
L 320.018269 99.622469 
L 320.213062 99.7331 
L 320.505251 99.74644 
L 320.79744 99.554544 
L 321.446749 99.056888 
L 321.771404 98.868641 
L 321.998662 98.86125 
L 323.102487 98.60767 
L 323.621935 98.695523 
L 324.173847 98.452483 
L 324.433571 98.552322 
L 324.693295 98.683262 
L 325.407535 98.450066 
L 325.959447 98.638128 
L 326.186705 98.542255 
L 326.381498 98.461035 
L 326.608756 98.510761 
L 326.803549 98.652419 
L 327.128204 98.917067 
L 327.485324 98.942752 
L 327.680116 98.94438 
L 327.842444 98.995349 
L 328.361891 99.059004 
L 328.556684 98.871072 
L 328.783942 98.695346 
L 329.692975 98.785218 
L 329.887767 98.803503 
L 330.017629 98.741896 
L 330.407215 98.301769 
L 330.504611 98.261434 
L 330.764335 97.924495 
L 331.024058 97.790696 
L 331.121455 97.753493 
L 331.933091 97.209949 
L 332.095418 97.068631 
L 332.777193 96.926041 
L 332.874589 96.859012 
L 333.134313 96.646763 
L 333.29664 96.566301 
L 333.458967 96.551354 
L 333.621295 96.499092 
L 334.173207 96.251561 
L 334.790051 95.312265 
L 335.504291 94.843806 
L 335.828945 94.688822 
L 335.991273 94.635799 
L 336.673047 93.964324 
L 337.452218 93.418328 
L 337.744407 93.344317 
L 337.971665 93.127887 
L 338.29632 92.727161 
L 338.328785 92.773799 
L 338.783302 92.41878 
L 339.172887 92.144204 
L 339.530007 92.14467 
L 339.887127 91.984943 
L 340.08192 91.907965 
L 340.374109 91.716123 
L 340.503971 91.654374 
L 340.926022 91.5305 
L 341.640262 91.338795 
L 343.036276 90.681105 
L 343.166138 90.703396 
L 343.393396 90.63884 
L 344.172567 90.334469 
L 344.72448 89.855864 
L 344.984204 89.785821 
L 345.341324 89.612732 
L 345.828305 89.55839 
L 346.120495 89.519966 
L 346.575011 89.206677 
L 347.094458 88.677899 
L 348.328145 88.363394 
L 348.880058 87.728974 
L 348.912524 87.782145 
L 349.821556 87.192399 
L 350.763055 87.300278 
L 350.957847 87.129605 
L 351.120175 87.183336 
L 351.50976 86.986234 
L 351.607156 86.969495 
L 351.834415 86.775519 
L 352.061673 86.552855 
L 352.386327 86.106341 
L 352.646051 85.988784 
L 353.197964 85.777843 
L 353.425222 85.513251 
L 354.334255 84.88181 
L 355.145891 84.350653 
L 355.275753 84.301158 
L 355.470545 84.455636 
L 355.697804 84.68043 
L 356.574371 84.3412 
L 356.671767 84.308998 
L 357.5808 83.277729 
L 358.002851 83.190646 
L 358.262575 83.236584 
L 358.814487 82.303879 
L 359.431331 81.578211 
L 359.626124 81.585742 
L 359.691055 81.531588 
L 359.72352 81.607151 
L 359.853382 81.70203 
L 360.113105 81.813028 
L 360.275433 81.946874 
L 360.762415 81.476498 
L 361.054604 81.119268 
L 361.541585 80.400199 
L 361.86624 80.398209 
L 362.22336 80.095893 
L 362.612945 79.606474 
L 362.677876 79.624629 
L 362.710342 79.589838 
L 363.002531 79.139476 
L 363.229789 78.752708 
L 363.262255 78.774888 
L 363.29472 78.716077 
L 363.586909 78.519628 
L 364.301149 78.294978 
L 365.08032 77.427191 
L 365.502371 77.455664 
L 365.599767 77.384594 
L 365.632233 77.271557 
L 365.729629 77.326339 
L 366.184145 77.496888 
L 366.314007 77.222424 
L 366.736058 76.549863 
L 367.320436 76.331093 
L 367.677556 76.306054 
L 367.839884 76.182765 
L 368.067142 76.05352 
L 368.2944 75.79002 
L 369.690415 74.626077 
L 369.917673 74.655241 
L 370.502051 74.28055 
L 370.599447 74.225288 
L 370.79424 74.113415 
L 371.346153 74.198854 
L 371.476015 74.112263 
L 371.670807 74.166801 
L 371.898065 73.809296 
L 371.930531 73.711602 
L 371.995462 73.771892 
L 372.190255 74.047539 
L 372.352582 73.625385 
L 373.066822 73.900773 
L 373.521338 73.603895 
L 375.631593 71.992856 
L 375.923782 71.671797 
L 376.443229 71.416211 
L 376.573091 71.34831 
L 377.611985 69.703772 
L 377.774313 69.637427 
L 378.001571 69.477845 
L 378.326225 69.359058 
L 378.391156 69.383091 
L 378.423622 69.337904 
L 378.715811 69.086959 
L 378.943069 68.918278 
L 379.170327 68.735583 
L 379.430051 68.63179 
L 379.787171 68.528346 
L 380.339084 68.122243 
L 380.371549 68.449944 
L 380.43648 68.250253 
L 380.696204 67.857798 
L 381.15072 67.590343 
L 381.183185 68.095791 
L 381.248116 67.844176 
L 381.410444 67.36168 
L 381.702633 67.213225 
L 381.832495 67.113225 
L 382.092218 67.012452 
L 382.351942 66.893772 
L 382.514269 66.84204 
L 382.611665 66.72444 
L 383.098647 66.231678 
L 383.228509 66.051669 
L 383.260975 66.656192 
L 383.325905 66.354641 
L 383.553164 65.945216 
L 383.747956 65.88303 
L 384.00768 65.66918 
L 384.072611 65.722713 
L 384.105076 65.681596 
L 384.137542 65.653502 
L 384.202473 66.222141 
L 384.267404 65.936542 
L 384.462196 65.604608 
L 384.559593 65.552328 
L 384.786851 65.277242 
L 385.241367 64.7788 
L 385.695884 64.732184 
L 385.858211 64.713198 
L 386.475055 64.498141 
L 386.734778 64.421061 
L 386.832175 64.32827 
L 386.86464 64.141554 
L 386.929571 64.294879 
L 387.384087 64.112917 
L 387.513949 64.009366 
L 387.676276 64.071172 
L 388.000931 63.945818 
L 388.098327 63.863106 
L 388.358051 63.599614 
L 389.494342 62.883024 
L 389.883927 62.300656 
L 390.176116 61.71479 
L 391.442269 60.465514 
L 391.669527 60.366805 
L 392.188975 59.837575 
L 392.740887 59.132708 
L 393.357731 58.497716 
L 393.487593 58.341424 
L 393.877178 57.657516 
L 395.370589 56.562862 
L 395.662778 56.283501 
L 396.247156 55.783443 
L 396.344553 55.749564 
L 397.058793 55.181539 
L 397.091258 55.080757 
L 397.188655 55.138711 
L 397.415913 54.915302 
L 397.675636 54.821409 
L 398.065222 54.579691 
L 398.29248 53.905278 
L 398.454807 53.593883 
L 398.487273 53.568 
L 398.487273 53.568 
" style="fill:none;stroke:#1f77b4;stroke-linecap:square;stroke-width:1.5;"/>
   </g>
   <g id="line2d_14">
    <path clip-path="url(#p83f5ed1a83)" d="M 73.832727 295.172576 
L 73.865193 295.483427 
L 74.02752 275.275559 
L 74.319709 244.219456 
L 74.546967 292.520832 
L 74.579433 284.874692 
L 74.611898 286.539096 
L 74.644364 276.579895 
L 74.709295 280.210716 
L 74.871622 287.399592 
L 75.033949 288.869782 
L 75.066415 288.588814 
L 75.293673 283.141684 
L 77.371462 228.633057 
L 78.150633 213.318706 
L 79.416785 190.241815 
L 80.260887 179.501195 
L 81.754298 164.167081 
L 82.338676 159.727589 
L 82.533469 158.861975 
L 82.987985 157.17591 
L 83.117847 156.647296 
L 83.572364 155.603497 
L 83.832087 155.228562 
L 84.448931 153.607734 
L 84.676189 153.373842 
L 84.708655 153.394904 
L 85.357964 153.870953 
L 85.909876 154.090524 
L 86.072204 154.522049 
L 87.208495 157.445017 
L 87.435753 157.9681 
L 88.052596 159.503605 
L 88.539578 160.266102 
L 88.929164 160.960728 
L 89.286284 162.457767 
L 89.805731 164.414136 
L 90.974487 167.349677 
L 91.818589 169.633859 
L 92.110778 170.333039 
L 94.902807 176.887922 
L 95.876771 178.350867 
L 96.52608 179.307312 
L 97.175389 179.893439 
L 97.694836 180.215616 
L 98.603869 181.368208 
L 99.545367 182.722455 
L 99.999884 183.174112 
L 100.876451 184.303945 
L 101.623156 186.163846 
L 102.175069 187.510358 
L 103.66848 190.277805 
L 104.187927 191.315446 
L 106.233251 196.592873 
L 107.661731 200.926601 
L 109.122676 204.837277 
L 109.707055 205.982046 
L 110.226502 207.112222 
L 110.713484 208.026639 
L 111.297862 208.850492 
L 111.557585 209.000015 
L 111.914705 208.952173 
L 112.499084 208.989315 
L 112.856204 209.706787 
L 113.440582 211.846307 
L 113.895098 212.562639 
L 114.154822 212.673299 
L 114.544407 213.163534 
L 114.7392 213.31467 
L 115.356044 213.994078 
L 115.615767 214.689989 
L 115.972887 215.504104 
L 116.16768 215.551867 
L 116.362473 215.319917 
L 116.622196 215.061401 
L 116.914385 215.033959 
L 117.109178 214.941703 
L 117.336436 214.826732 
L 117.628625 214.835517 
L 117.823418 214.697403 
L 118.3104 214.95787 
L 118.505193 214.679404 
L 118.992175 213.887756 
L 119.349295 213.482623 
L 119.641484 213.485787 
L 120.063535 213.67813 
L 120.193396 213.615042 
L 120.550516 213.322786 
L 121.686807 211.2541 
L 122.141324 209.873614 
L 122.95296 207.892247 
L 123.115287 208.070403 
L 124.121716 209.617043 
L 124.576233 210.193456 
L 124.835956 210.56061 
L 125.225542 210.625323 
L 125.680058 210.982696 
L 125.939782 210.753939 
L 126.296902 211.213148 
L 126.329367 211.180663 
L 126.426764 211.201099 
L 126.654022 211.347796 
L 126.816349 211.204293 
L 127.141004 210.85099 
L 127.433193 210.838777 
L 127.95264 211.211217 
L 128.179898 211.166162 
L 128.374691 210.894545 
L 128.991535 209.855136 
L 129.218793 209.87747 
L 129.510982 209.954456 
L 129.835636 209.822094 
L 129.933033 209.837444 
L 130.127825 210.005767 
L 130.160291 210.069605 
L 130.225222 209.993365 
L 130.517411 210.090366 
L 131.004393 209.687886 
L 131.458909 208.914614 
L 131.783564 208.941418 
L 131.945891 208.948853 
L 132.205615 208.532425 
L 132.497804 207.992872 
L 132.692596 207.806343 
L 132.919855 207.211917 
L 133.374371 207.182134 
L 133.504233 207.342057 
L 133.731491 207.651973 
L 133.763956 207.595244 
L 133.991215 207.310807 
L 134.02368 207.30239 
L 134.056145 207.429518 
L 134.121076 207.247902 
L 134.348335 206.622262 
L 134.640524 206.103278 
L 134.900247 205.829284 
L 135.127505 205.049813 
L 135.906676 202.999063 
L 136.133935 202.965051 
L 136.361193 202.838931 
L 136.685847 202.684689 
L 137.042967 202.58957 
L 137.205295 202.584604 
L 137.367622 202.377253 
L 137.627345 202.081053 
L 138.081862 201.294027 
L 138.633775 199.945098 
L 138.861033 199.548227 
L 138.893498 199.561847 
L 139.02336 199.466853 
L 139.218153 199.170377 
L 139.542807 198.776502 
L 139.672669 198.702733 
L 140.192116 198.093183 
L 140.581702 198.077594 
L 140.776495 197.945413 
L 141.328407 197.828042 
L 141.912785 197.282983 
L 142.140044 197.175843 
L 142.204975 197.258109 
L 142.302371 197.392568 
L 142.334836 197.326606 
L 142.562095 196.683034 
L 142.919215 196.5103 
L 143.471127 196.81796 
L 143.763316 196.753758 
L 143.958109 196.988436 
L 144.055505 197.082795 
L 144.087971 197.065206 
L 144.510022 196.586282 
L 145.0944 195.913251 
L 145.548916 196.493492 
L 145.873571 197.116705 
L 146.068364 197.201391 
L 146.425484 197.200804 
L 146.587811 197.160926 
L 146.912465 197.759816 
L 147.107258 197.797944 
L 147.23712 197.773186 
L 147.724102 197.146297 
L 147.918895 196.853316 
L 148.016291 196.896099 
L 148.276015 197.183817 
L 148.30848 197.129257 
L 148.503273 197.034463 
L 148.6656 197.065974 
L 148.795462 197.001717 
L 148.957789 196.916873 
L 149.120116 196.723955 
L 149.282444 196.634744 
L 149.477236 196.999538 
L 149.73696 197.458805 
L 149.769425 197.429395 
L 150.159011 197.175349 
L 150.418735 196.972791 
L 150.678458 196.990766 
L 150.905716 196.512157 
L 150.938182 196.531981 
L 151.262836 196.827516 
L 151.457629 197.133359 
L 151.652422 197.21295 
L 151.782284 197.118411 
L 152.171869 196.851361 
L 152.301731 196.796336 
L 152.658851 196.420785 
L 152.691316 196.466587 
L 153.405556 197.594836 
L 153.438022 197.556473 
L 153.860073 197.245405 
L 154.184727 197.256704 
L 154.671709 197.650878 
L 155.353484 196.931675 
L 155.613207 196.603891 
L 156.100189 195.875669 
L 156.132655 195.941548 
L 156.327447 196.025117 
L 156.424844 196.100175 
L 156.976756 196.837328 
L 157.398807 196.31542 
L 157.431273 196.428799 
L 157.528669 196.601584 
L 157.561135 196.423719 
L 157.626065 196.60578 
L 158.015651 197.338 
L 158.048116 197.298881 
L 158.080582 197.415958 
L 158.30784 197.653475 
L 158.632495 197.6126 
L 159.411665 198.397131 
L 160.028509 198.110858 
L 160.060975 198.203123 
L 160.353164 198.555915 
L 161.262196 200.120055 
L 161.619316 200.311547 
L 161.814109 200.378888 
L 162.106298 200.419654 
L 162.398487 200.611816 
L 162.658211 200.697231 
L 162.982865 200.484203 
L 163.891898 202.394603 
L 164.249018 202.604972 
L 165.482705 202.758647 
L 165.969687 203.027545 
L 166.456669 203.07263 
L 166.748858 203.150838 
L 167.170909 203.579586 
L 167.722822 204.416265 
L 168.729251 204.883381 
L 169.281164 205.323791 
L 169.638284 205.636825 
L 170.157731 206.195735 
L 170.352524 206.300164 
L 170.677178 206.44929 
L 170.774575 206.494633 
L 171.001833 206.541385 
L 171.229091 206.482969 
L 171.618676 206.537659 
L 172.332916 206.465133 
L 173.371811 206.233364 
L 173.631535 206.233297 
L 173.826327 206.171738 
L 174.183447 206.135217 
L 174.410705 206.052719 
L 174.930153 205.869893 
L 175.157411 205.734224 
L 175.741789 205.367258 
L 176.326167 204.867994 
L 177.59232 203.833883 
L 178.079302 203.528242 
L 178.826007 202.640312 
L 179.085731 202.256534 
L 179.929833 201.425034 
L 180.384349 201.22162 
L 180.644073 201.11993 
L 181.131055 200.344765 
L 181.455709 199.940925 
L 182.23488 199.219984 
L 183.078982 198.817095 
L 183.403636 198.732094 
L 183.793222 198.278543 
L 184.604858 197.082571 
L 184.864582 197.094028 
L 185.059375 197.28758 
L 185.578822 197.819692 
L 185.968407 197.709353 
L 186.293062 197.191975 
L 186.942371 196.058068 
L 187.169629 195.910307 
L 187.396887 195.604473 
L 187.624145 195.319701 
L 187.721542 195.266632 
L 187.9488 195.090882 
L 188.273455 195.134431 
L 188.338385 195.014263 
L 188.370851 195.11498 
L 188.533178 195.232605 
L 189.052625 195.126905 
L 189.117556 195.127222 
L 189.150022 195.064393 
L 189.312349 194.848192 
L 190.935622 192.35783 
L 191.130415 192.342952 
L 191.422604 192.098953 
L 191.552465 192.070493 
L 191.942051 191.773385 
L 192.688756 190.12806 
L 192.916015 190.119963 
L 193.175738 190.155772 
L 195.578182 186.692937 
L 196.130095 185.253638 
L 196.487215 184.871015 
L 196.584611 184.905137 
L 196.779404 185.108851 
L 196.941731 185.385769 
L 197.136524 185.715663 
L 197.168989 185.695724 
L 197.363782 185.42836 
L 197.59104 184.917442 
L 197.850764 184.238038 
L 198.078022 184.149148 
L 198.30528 184.213106 
L 199.051985 184.974965 
L 199.246778 184.84528 
L 199.474036 184.556027 
L 199.798691 183.657439 
L 200.350604 181.71075 
L 200.512931 181.91839 
L 201.194705 182.921596 
L 201.421964 182.833306 
L 201.551825 182.69887 
L 202.038807 181.508176 
L 202.330996 181.119765 
L 202.493324 181.121738 
L 202.785513 181.208068 
L 203.045236 181.187453 
L 203.467287 180.754034 
L 203.66208 180.174801 
L 204.051665 178.958682 
L 204.603578 178.731227 
L 204.993164 179.168643 
L 205.09056 179.069756 
L 205.480145 177.875903 
L 205.739869 177.443944 
L 205.934662 176.945452 
L 206.226851 176.424053 
L 206.421644 176.28315 
L 206.843695 176.57374 
L 206.973556 176.47228 
L 207.265745 176.191172 
L 207.622865 176.316401 
L 207.752727 176.212447 
L 208.077382 175.296475 
L 208.337105 174.823246 
L 208.66176 174.679498 
L 208.986415 174.684295 
L 209.408465 174.499444 
L 209.830516 174.386235 
L 210.349964 173.88913 
L 210.609687 174.078178 
L 211.1616 174.966743 
L 211.258996 174.926857 
L 211.51872 174.599627 
L 211.745978 174.353758 
L 211.973236 174.20781 
L 212.103098 174.204433 
L 212.265425 174.057626 
L 212.9472 173.629642 
L 213.174458 173.645663 
L 213.564044 173.175101 
L 213.693905 173.155821 
L 213.856233 173.10302 
L 214.37568 174.230208 
L 214.602938 174.536261 
L 214.830196 174.592027 
L 215.024989 174.546443 
L 215.122385 174.422029 
L 215.349644 174.058955 
L 215.641833 174.023418 
L 216.128815 174.110428 
L 216.583331 174.383913 
L 217.005382 174.265889 
L 217.297571 174.171673 
L 218.336465 175.394432 
L 218.466327 175.139847 
L 219.213033 173.509476 
L 219.245498 173.526762 
L 219.635084 174.21209 
L 220.057135 175.163706 
L 220.381789 175.419572 
L 220.544116 175.129688 
L 221.096029 174.091107 
L 221.51808 174.197348 
L 221.810269 174.465483 
L 222.069993 174.80884 
L 222.23232 174.88192 
L 222.427113 174.850797 
L 222.556975 175.054726 
L 222.751767 175.269823 
L 222.94656 175.514949 
L 223.336145 175.899455 
L 223.693265 175.795398 
L 224.180247 175.125014 
L 225.024349 174.327643 
L 225.186676 174.482155 
L 225.511331 174.6887 
L 225.998313 174.601314 
L 226.128175 174.73573 
L 226.907345 175.383919 
L 227.069673 175.516398 
L 228.011171 177.691646 
L 228.692945 178.250222 
L 229.212393 178.993719 
L 229.634444 179.135616 
L 230.997993 178.024206 
L 231.939491 178.738141 
L 232.199215 179.121036 
L 232.621265 179.510929 
L 232.816058 179.539551 
L 233.432902 179.095136 
L 233.790022 179.082451 
L 233.984815 179.412841 
L 234.309469 179.92454 
L 234.763985 180.484177 
L 234.926313 180.382814 
L 235.413295 180.306695 
L 235.608087 180.383404 
L 235.80288 180.403789 
L 236.387258 180.26809 
L 236.646982 180.25217 
L 237.523549 179.234594 
L 237.685876 179.330278 
L 238.30272 180.513934 
L 238.335185 180.491483 
L 238.627375 180.151955 
L 238.919564 179.652432 
L 239.114356 179.58956 
L 239.7312 179.907821 
L 240.185716 179.573889 
L 240.737629 179.775081 
L 241.289542 180.146667 
L 241.841455 179.903747 
L 242.133644 179.599606 
L 242.555695 179.501716 
L 243.399796 180.344003 
L 243.951709 179.894427 
L 244.406225 179.476915 
L 244.698415 179.033202 
L 244.893207 178.935262 
L 245.088 179.160205 
L 245.672378 179.861084 
L 245.867171 179.499591 
L 246.256756 178.60281 
L 246.419084 178.480085 
L 246.776204 178.694644 
L 246.970996 178.929599 
L 247.620305 179.673553 
L 247.815098 179.589915 
L 248.204684 179.308997 
L 248.561804 179.178786 
L 248.821527 179.131562 
L 249.048785 179.124983 
L 249.340975 179.069001 
L 249.470836 179.031646 
L 249.665629 178.914825 
L 249.892887 178.868014 
L 250.185076 178.839859 
L 250.607127 179.085079 
L 250.866851 179.035182 
L 251.581091 178.997081 
L 251.87328 179.324219 
L 251.905745 179.295933 
L 253.042036 178.039284 
L 253.204364 178.038006 
L 253.431622 178.054841 
L 253.626415 178.067356 
L 254.632844 178.553641 
L 254.892567 178.393767 
L 255.152291 178.597235 
L 255.44448 178.570811 
L 255.639273 178.465453 
L 255.736669 178.351566 
L 256.061324 177.760247 
L 256.645702 177.546699 
L 257.100218 177.729182 
L 258.009251 176.99603 
L 259.113076 176.662456 
L 259.3728 176.504241 
L 259.989644 176.600779 
L 260.606487 176.774768 
L 260.963607 176.571771 
L 261.385658 176.460545 
L 261.742778 176.611794 
L 262.262225 176.313939 
L 262.554415 176.445785 
L 262.814138 176.445103 
L 263.268655 176.585781 
L 263.723171 176.211118 
L 263.950429 176.097514 
L 264.145222 176.04491 
L 264.469876 176.334318 
L 264.956858 176.801366 
L 265.508771 176.034007 
L 265.768495 175.975058 
L 265.865891 175.934746 
L 266.287942 175.290494 
L 266.839855 175.142608 
L 267.294371 175.247477 
L 267.456698 175.254684 
L 267.619025 175.284644 
L 267.813818 175.283033 
L 268.008611 175.267453 
L 268.430662 175.429394 
L 269.209833 174.997485 
L 269.339695 175.11827 
L 269.599418 175.237942 
L 271.287622 174.129691 
L 271.51488 173.896712 
L 272.066793 173.594255 
L 273.268015 172.744224 
L 273.527738 172.956136 
L 275.118545 171.765331 
L 275.4432 171.755636 
L 275.605527 171.470721 
L 275.930182 171.078815 
L 276.384698 171.033903 
L 276.644422 170.814975 
L 277.326196 170.638509 
L 277.456058 170.634614 
L 277.683316 170.533162 
L 278.267695 170.573562 
L 278.852073 170.024169 
L 279.0144 170.018852 
L 279.176727 170.013596 
L 279.955898 169.68262 
L 280.507811 169.624813 
L 280.637673 169.648265 
L 280.832465 169.416771 
L 280.994793 169.129811 
L 281.449309 168.387823 
L 281.87136 168.496375 
L 282.22848 168.277654 
L 282.618065 168.479069 
L 282.780393 168.269473 
L 283.559564 167.215341 
L 283.949149 167.259439 
L 284.079011 167.011175 
L 284.436131 166.480971 
L 284.72832 166.394061 
L 284.858182 166.160029 
L 285.150371 165.588996 
L 285.79968 165.527681 
L 285.929542 165.469286 
L 286.319127 164.831689 
L 286.838575 164.074724 
L 288.007331 163.339952 
L 288.202124 163.283143 
L 288.754036 162.85793 
L 288.981295 162.816084 
L 289.857862 161.446121 
L 290.117585 161.044503 
L 290.344844 160.812597 
L 291.5136 159.823253 
L 292.097978 159.240255 
L 292.357702 158.839381 
L 292.617425 158.780054 
L 293.2992 158.734302 
L 293.916044 157.658301 
L 294.208233 157.19579 
L 294.435491 157.047902 
L 295.214662 157.117057 
L 296.026298 155.806214 
L 296.188625 155.829705 
L 296.318487 155.850883 
L 296.480815 155.867935 
L 296.740538 155.675238 
L 297.065193 155.8208 
L 297.162589 155.832176 
L 297.195055 155.785696 
L 297.811898 154.990948 
L 297.974225 154.941587 
L 298.266415 154.715192 
L 299.435171 154.040517 
L 299.662429 154.157558 
L 300.019549 154.505133 
L 300.214342 154.535681 
L 300.4416 154.239096 
L 300.636393 153.94801 
L 300.863651 153.841952 
L 301.090909 153.846613 
L 301.188305 153.731455 
L 301.383098 153.56558 
L 301.740218 153.608569 
L 301.902545 153.675808 
L 302.064873 153.655556 
L 302.389527 153.664827 
L 302.58432 153.67907 
L 303.29856 153.946559 
L 303.493353 153.77119 
L 304.142662 153.052885 
L 304.662109 152.986433 
L 304.921833 152.97918 
L 305.376349 153.421643 
L 305.538676 153.411557 
L 306.220451 152.790742 
L 306.382778 152.705648 
L 306.610036 152.547798 
L 307.876189 152.46231 
L 308.070982 152.534171 
L 308.233309 152.434972 
L 308.428102 152.3298 
L 308.947549 152.100528 
L 309.596858 151.664792 
L 309.986444 151.953728 
L 310.278633 152.277672 
L 310.408495 152.474499 
L 310.668218 152.849287 
L 310.765615 152.713894 
L 311.349993 151.688233 
L 311.544785 151.862308 
L 311.739578 152.077705 
L 311.86944 152.000094 
L 312.096698 151.754535 
L 312.22656 151.685375 
L 312.453818 151.789656 
L 312.648611 151.913219 
L 312.843404 151.743849 
L 313.232989 151.348172 
L 313.427782 151.465903 
L 313.784902 151.461704 
L 313.914764 151.563071 
L 314.109556 151.615048 
L 314.693935 151.115435 
L 315.148451 150.250748 
L 315.635433 150.597864 
L 315.765295 150.616178 
L 316.025018 150.826172 
L 316.447069 150.617701 
L 317.031447 149.905899 
L 317.258705 149.876366 
L 317.485964 149.72894 
L 317.713222 149.841342 
L 317.972945 149.857054 
L 318.102807 149.68812 
L 318.2976 149.361245 
L 318.427462 149.356146 
L 318.719651 149.847807 
L 318.752116 149.813796 
L 319.044305 149.362055 
L 319.596218 148.326008 
L 320.018269 147.814558 
L 320.213062 147.84029 
L 320.732509 148.177832 
L 320.927302 148.031804 
L 321.089629 148.105647 
L 321.414284 148.803863 
L 321.544145 148.782812 
L 321.706473 148.453593 
L 322.258385 146.898262 
L 322.842764 146.355758 
L 322.875229 146.396461 
L 323.134953 146.575841 
L 323.329745 146.708047 
L 323.621935 147.206224 
L 324.043985 147.390714 
L 324.401105 146.627884 
L 324.660829 146.105439 
L 325.08288 145.975852 
L 325.375069 145.783007 
L 326.089309 145.376237 
L 326.641222 145.534058 
L 327.193135 144.985207 
L 327.420393 144.871781 
L 327.647651 144.762222 
L 327.777513 144.824994 
L 328.232029 145.145044 
L 328.361891 144.914013 
L 328.556684 144.67231 
L 328.848873 144.581637 
L 329.0112 144.420595 
L 329.335855 144.080349 
L 329.855302 144.012665 
L 330.050095 143.856158 
L 330.699404 144.494158 
L 330.861731 144.511095 
L 331.86816 143.595121 
L 332.452538 142.792088 
L 332.874589 142.939113 
L 333.264175 142.720091 
L 333.458967 142.389567 
L 333.491433 142.424006 
L 334.043345 142.973002 
L 334.400465 142.824 
L 334.562793 142.68519 
L 334.984844 142.205816 
L 335.471825 141.798637 
L 335.601687 141.801721 
L 335.991273 142.176935 
L 336.186065 142.123648 
L 336.575651 141.93675 
L 336.900305 141.782897 
L 337.192495 141.763825 
L 337.484684 142.077909 
L 338.069062 141.712063 
L 338.393716 140.844924 
L 338.65344 140.206965 
L 339.205353 139.851994 
L 339.400145 139.797271 
L 339.627404 139.776751 
L 339.887127 139.842714 
L 340.179316 139.554774 
L 340.536436 139.527274 
L 340.861091 139.307561 
L 341.120815 138.968931 
L 341.15328 138.991704 
L 341.5104 139.007213 
L 341.640262 138.821898 
L 342.192175 137.666419 
L 343.003811 137.527208 
L 343.231069 137.803433 
L 343.263535 137.780685 
L 343.490793 137.511788 
L 343.815447 137.230243 
L 344.302429 137.183713 
L 344.594618 136.776359 
L 345.146531 135.636059 
L 345.341324 135.670431 
L 345.893236 136.16692 
L 346.088029 136.076291 
L 346.282822 135.853099 
L 346.315287 135.872291 
L 346.51008 135.788711 
L 346.672407 135.654448 
L 346.704873 135.675632 
L 346.899665 135.668935 
L 347.159389 135.495826 
L 347.256785 135.567868 
L 347.386647 135.711513 
L 347.419113 135.689077 
L 347.548975 135.626377 
L 347.58144 135.665509 
L 347.711302 135.585737 
L 348.29568 134.493578 
L 348.393076 134.563474 
L 348.555404 134.573641 
L 349.00992 134.435262 
L 349.529367 134.296726 
L 349.983884 133.564068 
L 350.048815 133.609784 
L 350.178676 133.863791 
L 350.373469 134.195086 
L 350.892916 133.887326 
L 351.087709 133.822679 
L 351.444829 133.473814 
L 351.996742 132.699874 
L 352.321396 132.533796 
L 352.905775 132.076263 
L 353.035636 132.019035 
L 353.230429 132.219615 
L 353.555084 132.838105 
L 353.944669 132.678516 
L 354.853702 131.505135 
L 354.951098 131.574888 
L 355.145891 131.64709 
L 355.405615 131.408437 
L 355.567942 131.259625 
L 356.087389 130.996482 
L 356.282182 131.11951 
L 356.444509 130.963682 
L 356.736698 130.546683 
L 357.158749 130.197523 
L 357.483404 130.253226 
L 357.5808 130.104524 
L 357.743127 129.680352 
L 357.93792 129.326709 
L 358.457367 129.161553 
L 358.587229 129.007282 
L 358.684625 128.885501 
L 359.041745 128.054304 
L 359.755985 128.229367 
L 359.885847 128.197268 
L 360.015709 128.273889 
L 360.178036 128.416107 
L 360.567622 128.157889 
L 361.087069 126.961685 
L 361.184465 126.977189 
L 361.541585 127.618291 
L 361.638982 127.528119 
L 361.898705 127.138971 
L 362.093498 127.119179 
L 362.385687 127.364103 
L 363.099927 127.896308 
L 363.132393 127.851961 
L 363.684305 127.219142 
L 364.00896 126.704755 
L 364.138822 126.567409 
L 364.36608 126.386487 
L 364.917993 126.406188 
L 365.145251 126.165095 
L 365.275113 126.141092 
L 365.79456 125.635208 
L 365.827025 125.666977 
L 367.060713 124.737875 
L 367.385367 124.127432 
L 367.547695 124.033131 
L 367.742487 124.099852 
L 368.326865 123.732225 
L 368.554124 123.500216 
L 368.813847 123.581125 
L 369.073571 123.867876 
L 369.138502 123.805551 
L 369.36576 123.437683 
L 369.820276 122.47615 
L 370.729309 121.94085 
L 370.924102 121.918207 
L 371.443549 121.649587 
L 371.638342 121.644469 
L 372.287651 121.069126 
L 372.612305 120.637273 
L 372.774633 120.613892 
L 372.93696 120.644053 
L 373.034356 120.672624 
L 373.131753 120.68848 
L 373.326545 120.230902 
L 373.586269 119.850681 
L 374.040785 119.448493 
L 374.397905 118.86017 
L 374.657629 118.722464 
L 375.07968 118.572981 
L 375.339404 118.296151 
L 375.566662 118.450467 
L 375.761455 118.532631 
L 375.956247 118.008955 
L 376.475695 116.697868 
L 376.573091 116.492372 
L 376.638022 116.547969 
L 376.767884 116.572298 
L 378.001571 115.71445 
L 378.131433 115.880791 
L 378.29376 115.962076 
L 378.553484 115.810111 
L 378.813207 115.465777 
L 379.689775 114.043606 
L 380.046895 114.106656 
L 380.209222 114.187732 
L 380.501411 113.955563 
L 380.631273 114.069241 
L 380.761135 114.136734 
L 380.988393 113.985868 
L 381.280582 113.865446 
L 381.962356 112.047658 
L 382.124684 111.728349 
L 382.287011 111.957218 
L 383.325905 113.648861 
L 383.423302 113.577182 
L 383.618095 113.549975 
L 383.812887 113.607636 
L 384.040145 113.536335 
L 384.3648 113.544477 
L 384.689455 112.285895 
L 385.046575 111.23657 
L 385.273833 110.9553 
L 385.43616 110.981857 
L 385.955607 110.535596 
L 386.020538 110.633687 
L 386.377658 111.135416 
L 386.702313 111.731295 
L 386.734778 111.70451 
L 387.481484 110.929631 
L 387.611345 110.975974 
L 387.871069 111.362181 
L 388.033396 111.46628 
L 389.461876 110.032929 
L 389.656669 109.846453 
L 390.143651 108.966604 
L 390.208582 109.067466 
L 390.338444 109.175852 
L 390.370909 109.125599 
L 390.922822 108.177473 
L 391.052684 108.198474 
L 391.377338 108.665463 
L 391.701993 109.215077 
L 391.799389 109.159703 
L 392.091578 108.50029 
L 392.383767 107.34508 
L 392.57856 106.855917 
L 393.2928 107.050291 
L 393.584989 107.327421 
L 393.877178 107.347438 
L 394.00704 107.237963 
L 394.331695 106.967357 
L 394.883607 107.110546 
L 395.305658 106.261792 
L 395.532916 106.125181 
L 395.662778 106.124782 
L 395.922502 105.865236 
L 396.182225 105.589071 
L 396.701673 105.958924 
L 396.961396 105.701053 
L 397.318516 105.064817 
L 397.610705 104.620215 
L 397.870429 104.40424 
L 398.389876 104.069223 
L 398.487273 104.026579 
L 398.487273 104.026579 
" style="fill:none;stroke:#ff7f0e;stroke-linecap:square;stroke-width:1.5;"/>
   </g>
   <g id="line2d_15">
    <path clip-path="url(#p83f5ed1a83)" d="M 73.832727 295.172576 
L 73.865193 295.488 
L 74.02752 275.476843 
L 74.319709 249.6417 
L 74.546967 292.110383 
L 74.579433 289.733329 
L 74.676829 271.32326 
L 74.74176 274.75257 
L 74.904087 282.692057 
L 75.09888 285.250601 
L 75.163811 284.839093 
L 75.391069 280.80452 
L 76.332567 258.90566 
L 77.468858 233.552446 
L 78.67008 212.396286 
L 79.806371 195.583079 
L 80.682938 185.729249 
L 81.494575 178.898296 
L 82.208815 174.599053 
L 82.793193 172.211011 
L 83.474967 170.330914 
L 84.124276 169.123831 
L 84.578793 168.681881 
L 84.968378 168.347968 
L 85.195636 168.295337 
L 85.487825 168.483469 
L 85.942342 169.075738 
L 86.689047 170.4694 
L 87.533149 172.523934 
L 88.117527 174.44824 
L 88.31232 175.215848 
L 88.799302 176.32139 
L 89.448611 178.420176 
L 94.772945 196.998247 
L 96.363753 201.470803 
L 99.155782 208.470759 
L 102.142604 216.320312 
L 104.73984 223.756976 
L 107.337076 231.981311 
L 111.395258 244.809346 
L 113.343185 250.306042 
L 114.804131 253.743256 
L 116.265076 256.611618 
L 117.303971 258.185223 
L 118.180538 259.138315 
L 118.927244 259.639567 
L 119.576553 259.815682 
L 120.128465 259.743644 
L 120.712844 259.433023 
L 121.362153 258.825467 
L 122.141324 257.774029 
L 123.017891 256.244716 
L 123.050356 256.552341 
L 123.342545 257.796619 
L 123.537338 258.474617 
L 123.991855 260.119664 
L 124.543767 261.487112 
L 124.73856 261.125046 
L 125.030749 261.382918 
L 125.647593 261.949443 
L 126.296902 262.249859 
L 126.913745 262.311572 
L 127.627985 262.136545 
L 128.374691 261.710083 
L 129.413585 260.820557 
L 130.160291 260.26179 
L 130.874531 259.884439 
L 131.556305 259.171995 
L 133.958749 256.17046 
L 135.45216 253.994338 
L 140.354444 246.452465 
L 141.847855 244.4428 
L 143.276335 242.834235 
L 147.529309 238.814764 
L 150.029149 235.922562 
L 150.353804 235.552062 
L 151.847215 233.788998 
L 153.697745 231.833216 
L 155.483345 230.281833 
L 157.171549 229.053005 
L 158.729891 228.107733 
L 159.768785 227.616405 
L 159.931113 227.592128 
L 160.45056 227.453089 
L 160.677818 227.401771 
L 161.132335 227.243814 
L 161.359593 227.194668 
L 161.814109 227.041154 
L 162.041367 226.991433 
L 162.463418 226.853226 
L 162.982865 226.688591 
L 163.210124 226.639058 
L 163.632175 226.502814 
L 164.151622 226.343314 
L 164.37888 226.294375 
L 164.833396 226.154497 
L 165.125585 226.080757 
L 166.294342 225.761045 
L 166.651462 225.675266 
L 167.203375 225.519173 
L 168.209804 225.239558 
L 169.086371 224.952465 
L 170.417455 224.463741 
L 174.540567 222.950998 
L 176.910545 222.037448 
L 179.410385 221.187617 
L 190.838225 217.584555 
L 196.552145 215.685147 
L 202.038807 214.162564 
L 209.246138 212.393248 
L 211.583651 211.792529 
L 211.713513 212.257799 
L 211.843375 212.28822 
L 212.005702 211.949231 
L 212.038167 212.23615 
L 212.070633 211.931813 
L 212.103098 212.167136 
L 212.200495 211.808281 
L 212.23296 212.054098 
L 212.265425 211.750517 
L 212.297891 211.998708 
L 212.395287 211.642735 
L 212.427753 211.888391 
L 212.460218 211.59111 
L 212.492684 211.834664 
L 212.59008 211.491725 
L 212.622545 211.730699 
L 212.655011 211.446895 
L 212.687476 211.684253 
L 212.784873 211.366958 
L 212.817338 211.602204 
L 212.849804 211.331997 
L 212.882269 211.566607 
L 212.979665 211.271302 
L 213.012131 211.506693 
L 213.044596 211.245423 
L 213.077062 211.482561 
L 213.174458 211.20182 
L 213.206924 211.445816 
L 213.239389 211.184517 
L 213.271855 211.432024 
L 213.369251 211.154584 
L 213.434182 211.141935 
L 213.466647 211.406844 
L 213.564044 211.1206 
L 213.628975 211.111618 
L 213.66144 211.398431 
L 213.758836 211.094339 
L 213.856233 211.399535 
L 213.953629 211.072465 
L 214.01856 211.062301 
L 214.051025 211.390215 
L 214.148422 211.037674 
L 214.180887 211.376471 
L 214.213353 211.022604 
L 214.245818 211.365269 
L 214.343215 210.999624 
L 214.37568 211.311447 
L 214.408145 210.977541 
L 214.440611 211.276297 
L 214.538007 210.908981 
L 214.570473 211.20325 
L 214.602938 210.86703 
L 214.635404 211.168819 
L 214.7328 210.78671 
L 214.765265 211.11143 
L 214.797731 210.76339 
L 214.830196 211.082876 
L 214.927593 210.717151 
L 214.960058 211.031887 
L 214.992524 210.696546 
L 215.024989 211.009487 
L 215.122385 210.661184 
L 215.154851 210.972236 
L 215.187316 210.646282 
L 215.219782 210.95741 
L 215.317178 210.621454 
L 215.349644 210.934619 
L 215.414575 210.923629 
L 215.44704 210.779161 
L 215.511971 210.866221 
L 215.641833 210.858628 
L 215.869091 210.808023 
L 215.966487 210.691192 
L 216.063884 210.796136 
L 216.16128 210.723268 
L 216.193745 210.785992 
L 216.291142 210.724737 
L 216.323607 210.776098 
L 216.421004 210.72495 
L 216.453469 210.770671 
L 216.615796 210.729137 
L 216.778124 210.760861 
L 216.940451 210.735956 
L 217.23264 210.743506 
L 217.687156 210.744377 
L 219.700015 210.706784 
L 221.096029 210.388169 
L 222.102458 209.861552 
L 222.751767 209.322003 
L 223.952989 207.973653 
L 224.829556 206.712761 
L 225.219142 206.131525 
L 226.452829 204.490898 
L 228.692945 201.679314 
L 233.497833 196.791648 
L 234.309469 196.068024 
L 235.08864 195.444843 
L 236.776844 194.565559 
L 238.854633 194.580049 
L 240.08832 195.045516 
L 241.192145 195.718203 
L 242.58816 196.841929 
L 244.276364 198.516044 
L 246.15936 200.691195 
L 247.003462 201.676074 
L 247.522909 201.894066 
L 248.464407 202.412776 
L 251.029178 204.218922 
L 255.476945 206.912607 
L 257.781993 207.9639 
L 260.151971 208.742791 
L 262.879069 209.3794 
L 265.736029 209.794897 
L 268.755316 210.001745 
L 270.962967 209.966697 
L 271.774604 210.004908 
L 272.58624 210.07726 
L 272.845964 209.834886 
L 273.138153 209.54884 
L 273.495273 209.447266 
L 274.534167 209.340083 
L 275.280873 209.066514 
L 279.274124 208.227689 
L 282.910255 207.228677 
L 283.494633 207.019327 
L 285.312698 206.519586 
L 286.838575 206.149381 
L 287.000902 206.180624 
L 288.007331 205.810738 
L 291.838255 205.034092 
L 297.130124 204.321766 
L 302.032407 203.952 
L 306.967156 203.786461 
L 315.667898 203.530702 
L 320.667578 203.143316 
L 325.959447 202.500172 
L 330.569542 201.742691 
L 334.368 200.869112 
L 338.588509 199.663213 
L 345.016669 197.556121 
L 349.36704 196.231118 
L 352.191535 195.610946 
L 354.042065 195.325955 
L 354.171927 195.503498 
L 354.204393 195.489551 
L 354.301789 195.536489 
L 354.334255 195.510196 
L 355.08096 194.81846 
L 355.892596 194.870852 
L 358.717091 194.979477 
L 359.106676 195.132108 
L 359.626124 195.102548 
L 361.184465 194.760437 
L 362.775273 194.807527 
L 369.073571 195.349825 
L 372.93696 195.921298 
L 373.326545 196.080619 
L 373.488873 196.186356 
L 374.138182 195.928761 
L 374.949818 196.087736 
L 376.735418 196.381889 
L 379.494982 196.553352 
L 381.702633 196.440608 
L 383.358371 196.2584 
L 386.1504 195.851282 
L 392.156509 194.828893 
L 394.948538 194.705387 
L 398.487273 194.722218 
L 398.487273 194.722218 
" style="fill:none;stroke:#bf00bf;stroke-linecap:square;stroke-width:1.5;"/>
   </g>
   <g id="patch_3">
    <path d="M 57.6 307.584 
L 57.6 41.472 
" style="fill:none;stroke:#000000;stroke-linecap:square;stroke-linejoin:miter;stroke-width:0.8;"/>
   </g>
   <g id="patch_4">
    <path d="M 414.72 307.584 
L 414.72 41.472 
" style="fill:none;stroke:#000000;stroke-linecap:square;stroke-linejoin:miter;stroke-width:0.8;"/>
   </g>
   <g id="patch_5">
    <path d="M 57.6 307.584 
L 414.72 307.584 
" style="fill:none;stroke:#000000;stroke-linecap:square;stroke-linejoin:miter;stroke-width:0.8;"/>
   </g>
   <g id="patch_6">
    <path d="M 57.6 41.472 
L 414.72 41.472 
" style="fill:none;stroke:#000000;stroke-linecap:square;stroke-linejoin:miter;stroke-width:0.8;"/>
   </g>
   <g id="text_15">
    <!-- Plot of Object pose error norm over a single episode  -->
    <g transform="translate(77.670938 8.59725)scale(0.12 -0.12)">
     <defs>
      <path d="M 19.671875 64.796875 
L 19.671875 37.40625 
L 32.078125 37.40625 
Q 38.96875 37.40625 42.71875 40.96875 
Q 46.484375 44.53125 46.484375 51.125 
Q 46.484375 57.671875 42.71875 61.234375 
Q 38.96875 64.796875 32.078125 64.796875 
z
M 9.8125 72.90625 
L 32.078125 72.90625 
Q 44.34375 72.90625 50.609375 67.359375 
Q 56.890625 61.8125 56.890625 51.125 
Q 56.890625 40.328125 50.609375 34.8125 
Q 44.34375 29.296875 32.078125 29.296875 
L 19.671875 29.296875 
L 19.671875 0 
L 9.8125 0 
z
" id="DejaVuSans-80"/>
      <path d="M 9.421875 75.984375 
L 18.40625 75.984375 
L 18.40625 0 
L 9.421875 0 
z
" id="DejaVuSans-108"/>
      <path id="DejaVuSans-32"/>
      <path d="M 37.109375 75.984375 
L 37.109375 68.5 
L 28.515625 68.5 
Q 23.6875 68.5 21.796875 66.546875 
Q 19.921875 64.59375 19.921875 59.515625 
L 19.921875 54.6875 
L 34.71875 54.6875 
L 34.71875 47.703125 
L 19.921875 47.703125 
L 19.921875 0 
L 10.890625 0 
L 10.890625 47.703125 
L 2.296875 47.703125 
L 2.296875 54.6875 
L 10.890625 54.6875 
L 10.890625 58.5 
Q 10.890625 67.625 15.140625 71.796875 
Q 19.390625 75.984375 28.609375 75.984375 
z
" id="DejaVuSans-102"/>
      <path d="M 48.78125 52.59375 
L 48.78125 44.1875 
Q 44.96875 46.296875 41.140625 47.34375 
Q 37.3125 48.390625 33.40625 48.390625 
Q 24.65625 48.390625 19.8125 42.84375 
Q 14.984375 37.3125 14.984375 27.296875 
Q 14.984375 17.28125 19.8125 11.734375 
Q 24.65625 6.203125 33.40625 6.203125 
Q 37.3125 6.203125 41.140625 7.25 
Q 44.96875 8.296875 48.78125 10.40625 
L 48.78125 2.09375 
Q 45.015625 0.34375 40.984375 -0.53125 
Q 36.96875 -1.421875 32.421875 -1.421875 
Q 20.0625 -1.421875 12.78125 6.34375 
Q 5.515625 14.109375 5.515625 27.296875 
Q 5.515625 40.671875 12.859375 48.328125 
Q 20.21875 56 33.015625 56 
Q 37.15625 56 41.109375 55.140625 
Q 45.0625 54.296875 48.78125 52.59375 
z
" id="DejaVuSans-99"/>
      <path d="M 2.984375 54.6875 
L 12.5 54.6875 
L 29.59375 8.796875 
L 46.6875 54.6875 
L 56.203125 54.6875 
L 35.6875 0 
L 23.484375 0 
z
" id="DejaVuSans-118"/>
      <path d="M 34.28125 27.484375 
Q 23.390625 27.484375 19.1875 25 
Q 14.984375 22.515625 14.984375 16.5 
Q 14.984375 11.71875 18.140625 8.90625 
Q 21.296875 6.109375 26.703125 6.109375 
Q 34.1875 6.109375 38.703125 11.40625 
Q 43.21875 16.703125 43.21875 25.484375 
L 43.21875 27.484375 
z
M 52.203125 31.203125 
L 52.203125 0 
L 43.21875 0 
L 43.21875 8.296875 
Q 40.140625 3.328125 35.546875 0.953125 
Q 30.953125 -1.421875 24.3125 -1.421875 
Q 15.921875 -1.421875 10.953125 3.296875 
Q 6 8.015625 6 15.921875 
Q 6 25.140625 12.171875 29.828125 
Q 18.359375 34.515625 30.609375 34.515625 
L 43.21875 34.515625 
L 43.21875 35.40625 
Q 43.21875 41.609375 39.140625 45 
Q 35.0625 48.390625 27.6875 48.390625 
Q 23 48.390625 18.546875 47.265625 
Q 14.109375 46.140625 10.015625 43.890625 
L 10.015625 52.203125 
Q 14.9375 54.109375 19.578125 55.046875 
Q 24.21875 56 28.609375 56 
Q 40.484375 56 46.34375 49.84375 
Q 52.203125 43.703125 52.203125 31.203125 
z
" id="DejaVuSans-97"/>
      <path d="M 45.40625 27.984375 
Q 45.40625 37.75 41.375 43.109375 
Q 37.359375 48.484375 30.078125 48.484375 
Q 22.859375 48.484375 18.828125 43.109375 
Q 14.796875 37.75 14.796875 27.984375 
Q 14.796875 18.265625 18.828125 12.890625 
Q 22.859375 7.515625 30.078125 7.515625 
Q 37.359375 7.515625 41.375 12.890625 
Q 45.40625 18.265625 45.40625 27.984375 
z
M 54.390625 6.78125 
Q 54.390625 -7.171875 48.1875 -13.984375 
Q 42 -20.796875 29.203125 -20.796875 
Q 24.46875 -20.796875 20.265625 -20.09375 
Q 16.0625 -19.390625 12.109375 -17.921875 
L 12.109375 -9.1875 
Q 16.0625 -11.328125 19.921875 -12.34375 
Q 23.78125 -13.375 27.78125 -13.375 
Q 36.625 -13.375 41.015625 -8.765625 
Q 45.40625 -4.15625 45.40625 5.171875 
L 45.40625 9.625 
Q 42.625 4.78125 38.28125 2.390625 
Q 33.9375 0 27.875 0 
Q 17.828125 0 11.671875 7.65625 
Q 5.515625 15.328125 5.515625 27.984375 
Q 5.515625 40.671875 11.671875 48.328125 
Q 17.828125 56 27.875 56 
Q 33.9375 56 38.28125 53.609375 
Q 42.625 51.21875 45.40625 46.390625 
L 45.40625 54.6875 
L 54.390625 54.6875 
z
" id="DejaVuSans-103"/>
      <path d="M 45.40625 46.390625 
L 45.40625 75.984375 
L 54.390625 75.984375 
L 54.390625 0 
L 45.40625 0 
L 45.40625 8.203125 
Q 42.578125 3.328125 38.25 0.953125 
Q 33.9375 -1.421875 27.875 -1.421875 
Q 17.96875 -1.421875 11.734375 6.484375 
Q 5.515625 14.40625 5.515625 27.296875 
Q 5.515625 40.1875 11.734375 48.09375 
Q 17.96875 56 27.875 56 
Q 33.9375 56 38.25 53.625 
Q 42.578125 51.265625 45.40625 46.390625 
z
M 14.796875 27.296875 
Q 14.796875 17.390625 18.875 11.75 
Q 22.953125 6.109375 30.078125 6.109375 
Q 37.203125 6.109375 41.296875 11.75 
Q 45.40625 17.390625 45.40625 27.296875 
Q 45.40625 37.203125 41.296875 42.84375 
Q 37.203125 48.484375 30.078125 48.484375 
Q 22.953125 48.484375 18.875 42.84375 
Q 14.796875 37.203125 14.796875 27.296875 
z
" id="DejaVuSans-100"/>
     </defs>
     <use xlink:href="#DejaVuSans-80"/>
     <use x="60.302734" xlink:href="#DejaVuSans-108"/>
     <use x="88.085938" xlink:href="#DejaVuSans-111"/>
     <use x="149.267578" xlink:href="#DejaVuSans-116"/>
     <use x="188.476562" xlink:href="#DejaVuSans-32"/>
     <use x="220.263672" xlink:href="#DejaVuSans-111"/>
     <use x="281.445312" xlink:href="#DejaVuSans-102"/>
     <use x="316.650391" xlink:href="#DejaVuSans-32"/>
     <use x="348.4375" xlink:href="#DejaVuSans-79"/>
     <use x="427.148438" xlink:href="#DejaVuSans-98"/>
     <use x="490.625" xlink:href="#DejaVuSans-106"/>
     <use x="518.408203" xlink:href="#DejaVuSans-101"/>
     <use x="579.931641" xlink:href="#DejaVuSans-99"/>
     <use x="634.912109" xlink:href="#DejaVuSans-116"/>
     <use x="674.121094" xlink:href="#DejaVuSans-32"/>
     <use x="705.908203" xlink:href="#DejaVuSans-112"/>
     <use x="769.384766" xlink:href="#DejaVuSans-111"/>
     <use x="830.566406" xlink:href="#DejaVuSans-115"/>
     <use x="882.666016" xlink:href="#DejaVuSans-101"/>
     <use x="944.189453" xlink:href="#DejaVuSans-32"/>
     <use x="975.976562" xlink:href="#DejaVuSans-101"/>
     <use x="1037.5" xlink:href="#DejaVuSans-114"/>
     <use x="1076.863281" xlink:href="#DejaVuSans-114"/>
     <use x="1115.726562" xlink:href="#DejaVuSans-111"/>
     <use x="1176.908203" xlink:href="#DejaVuSans-114"/>
     <use x="1218.021484" xlink:href="#DejaVuSans-32"/>
     <use x="1249.808594" xlink:href="#DejaVuSans-110"/>
     <use x="1313.1875" xlink:href="#DejaVuSans-111"/>
     <use x="1374.369141" xlink:href="#DejaVuSans-114"/>
     <use x="1413.732422" xlink:href="#DejaVuSans-109"/>
     <use x="1511.144531" xlink:href="#DejaVuSans-32"/>
     <use x="1542.931641" xlink:href="#DejaVuSans-111"/>
     <use x="1604.113281" xlink:href="#DejaVuSans-118"/>
     <use x="1663.292969" xlink:href="#DejaVuSans-101"/>
     <use x="1724.816406" xlink:href="#DejaVuSans-114"/>
     <use x="1765.929688" xlink:href="#DejaVuSans-32"/>
     <use x="1797.716797" xlink:href="#DejaVuSans-97"/>
     <use x="1858.996094" xlink:href="#DejaVuSans-32"/>
     <use x="1890.783203" xlink:href="#DejaVuSans-115"/>
     <use x="1942.882812" xlink:href="#DejaVuSans-105"/>
     <use x="1970.666016" xlink:href="#DejaVuSans-110"/>
     <use x="2034.044922" xlink:href="#DejaVuSans-103"/>
     <use x="2097.521484" xlink:href="#DejaVuSans-108"/>
     <use x="2125.304688" xlink:href="#DejaVuSans-101"/>
     <use x="2186.828125" xlink:href="#DejaVuSans-32"/>
     <use x="2218.615234" xlink:href="#DejaVuSans-101"/>
     <use x="2280.138672" xlink:href="#DejaVuSans-112"/>
     <use x="2343.615234" xlink:href="#DejaVuSans-105"/>
     <use x="2371.398438" xlink:href="#DejaVuSans-115"/>
     <use x="2423.498047" xlink:href="#DejaVuSans-111"/>
     <use x="2484.679688" xlink:href="#DejaVuSans-100"/>
     <use x="2548.15625" xlink:href="#DejaVuSans-101"/>
     <use x="2609.679688" xlink:href="#DejaVuSans-32"/>
    </g>
    <!--  Avg object pose error norm: Residual RL = 0.322, Standard = 0.257,  -->
    <g transform="translate(26.875313 22.034625)scale(0.12 -0.12)">
     <defs>
      <path d="M 34.1875 63.1875 
L 20.796875 26.90625 
L 47.609375 26.90625 
z
M 28.609375 72.90625 
L 39.796875 72.90625 
L 67.578125 0 
L 57.328125 0 
L 50.6875 18.703125 
L 17.828125 18.703125 
L 11.1875 0 
L 0.78125 0 
z
" id="DejaVuSans-65"/>
      <path d="M 11.71875 12.40625 
L 22.015625 12.40625 
L 22.015625 0 
L 11.71875 0 
z
M 11.71875 51.703125 
L 22.015625 51.703125 
L 22.015625 39.3125 
L 11.71875 39.3125 
z
" id="DejaVuSans-58"/>
      <path d="M 44.390625 34.1875 
Q 47.5625 33.109375 50.5625 29.59375 
Q 53.5625 26.078125 56.59375 19.921875 
L 66.609375 0 
L 56 0 
L 46.6875 18.703125 
Q 43.0625 26.03125 39.671875 28.421875 
Q 36.28125 30.8125 30.421875 30.8125 
L 19.671875 30.8125 
L 19.671875 0 
L 9.8125 0 
L 9.8125 72.90625 
L 32.078125 72.90625 
Q 44.578125 72.90625 50.734375 67.671875 
Q 56.890625 62.453125 56.890625 51.90625 
Q 56.890625 45.015625 53.6875 40.46875 
Q 50.484375 35.9375 44.390625 34.1875 
z
M 19.671875 64.796875 
L 19.671875 38.921875 
L 32.078125 38.921875 
Q 39.203125 38.921875 42.84375 42.21875 
Q 46.484375 45.515625 46.484375 51.90625 
Q 46.484375 58.296875 42.84375 61.546875 
Q 39.203125 64.796875 32.078125 64.796875 
z
" id="DejaVuSans-82"/>
      <path d="M 9.8125 72.90625 
L 19.671875 72.90625 
L 19.671875 8.296875 
L 55.171875 8.296875 
L 55.171875 0 
L 9.8125 0 
z
" id="DejaVuSans-76"/>
      <path d="M 10.59375 45.40625 
L 73.1875 45.40625 
L 73.1875 37.203125 
L 10.59375 37.203125 
z
M 10.59375 25.484375 
L 73.1875 25.484375 
L 73.1875 17.1875 
L 10.59375 17.1875 
z
" id="DejaVuSans-61"/>
      <path d="M 11.71875 12.40625 
L 22.015625 12.40625 
L 22.015625 4 
L 14.015625 -11.625 
L 7.71875 -11.625 
L 11.71875 4 
z
" id="DejaVuSans-44"/>
      <path d="M 53.515625 70.515625 
L 53.515625 60.890625 
Q 47.90625 63.578125 42.921875 64.890625 
Q 37.9375 66.21875 33.296875 66.21875 
Q 25.25 66.21875 20.875 63.09375 
Q 16.5 59.96875 16.5 54.203125 
Q 16.5 49.359375 19.40625 46.890625 
Q 22.3125 44.4375 30.421875 42.921875 
L 36.375 41.703125 
Q 47.40625 39.59375 52.65625 34.296875 
Q 57.90625 29 57.90625 20.125 
Q 57.90625 9.515625 50.796875 4.046875 
Q 43.703125 -1.421875 29.984375 -1.421875 
Q 24.8125 -1.421875 18.96875 -0.25 
Q 13.140625 0.921875 6.890625 3.21875 
L 6.890625 13.375 
Q 12.890625 10.015625 18.65625 8.296875 
Q 24.421875 6.59375 29.984375 6.59375 
Q 38.421875 6.59375 43.015625 9.90625 
Q 47.609375 13.234375 47.609375 19.390625 
Q 47.609375 24.75 44.3125 27.78125 
Q 41.015625 30.8125 33.5 32.328125 
L 27.484375 33.5 
Q 16.453125 35.6875 11.515625 40.375 
Q 6.59375 45.0625 6.59375 53.421875 
Q 6.59375 63.09375 13.40625 68.65625 
Q 20.21875 74.21875 32.171875 74.21875 
Q 37.3125 74.21875 42.625 73.28125 
Q 47.953125 72.359375 53.515625 70.515625 
z
" id="DejaVuSans-83"/>
      <path d="M 8.203125 72.90625 
L 55.078125 72.90625 
L 55.078125 68.703125 
L 28.609375 0 
L 18.3125 0 
L 43.21875 64.59375 
L 8.203125 64.59375 
z
" id="DejaVuSans-55"/>
     </defs>
     <use xlink:href="#DejaVuSans-32"/>
     <use x="31.787109" xlink:href="#DejaVuSans-65"/>
     <use x="94.320312" xlink:href="#DejaVuSans-118"/>
     <use x="153.5" xlink:href="#DejaVuSans-103"/>
     <use x="216.976562" xlink:href="#DejaVuSans-32"/>
     <use x="248.763672" xlink:href="#DejaVuSans-111"/>
     <use x="309.945312" xlink:href="#DejaVuSans-98"/>
     <use x="373.421875" xlink:href="#DejaVuSans-106"/>
     <use x="401.205078" xlink:href="#DejaVuSans-101"/>
     <use x="462.728516" xlink:href="#DejaVuSans-99"/>
     <use x="517.708984" xlink:href="#DejaVuSans-116"/>
     <use x="556.917969" xlink:href="#DejaVuSans-32"/>
     <use x="588.705078" xlink:href="#DejaVuSans-112"/>
     <use x="652.181641" xlink:href="#DejaVuSans-111"/>
     <use x="713.363281" xlink:href="#DejaVuSans-115"/>
     <use x="765.462891" xlink:href="#DejaVuSans-101"/>
     <use x="826.986328" xlink:href="#DejaVuSans-32"/>
     <use x="858.773438" xlink:href="#DejaVuSans-101"/>
     <use x="920.296875" xlink:href="#DejaVuSans-114"/>
     <use x="959.660156" xlink:href="#DejaVuSans-114"/>
     <use x="998.523438" xlink:href="#DejaVuSans-111"/>
     <use x="1059.705078" xlink:href="#DejaVuSans-114"/>
     <use x="1100.818359" xlink:href="#DejaVuSans-32"/>
     <use x="1132.605469" xlink:href="#DejaVuSans-110"/>
     <use x="1195.984375" xlink:href="#DejaVuSans-111"/>
     <use x="1257.166016" xlink:href="#DejaVuSans-114"/>
     <use x="1296.529297" xlink:href="#DejaVuSans-109"/>
     <use x="1393.941406" xlink:href="#DejaVuSans-58"/>
     <use x="1427.632812" xlink:href="#DejaVuSans-32"/>
     <use x="1459.419922" xlink:href="#DejaVuSans-82"/>
     <use x="1524.402344" xlink:href="#DejaVuSans-101"/>
     <use x="1585.925781" xlink:href="#DejaVuSans-115"/>
     <use x="1638.025391" xlink:href="#DejaVuSans-105"/>
     <use x="1665.808594" xlink:href="#DejaVuSans-100"/>
     <use x="1729.285156" xlink:href="#DejaVuSans-117"/>
     <use x="1792.664062" xlink:href="#DejaVuSans-97"/>
     <use x="1853.943359" xlink:href="#DejaVuSans-108"/>
     <use x="1881.726562" xlink:href="#DejaVuSans-32"/>
     <use x="1913.513672" xlink:href="#DejaVuSans-82"/>
     <use x="1982.996094" xlink:href="#DejaVuSans-76"/>
     <use x="2038.708984" xlink:href="#DejaVuSans-32"/>
     <use x="2070.496094" xlink:href="#DejaVuSans-61"/>
     <use x="2154.285156" xlink:href="#DejaVuSans-32"/>
     <use x="2186.072266" xlink:href="#DejaVuSans-48"/>
     <use x="2249.695312" xlink:href="#DejaVuSans-46"/>
     <use x="2281.482422" xlink:href="#DejaVuSans-51"/>
     <use x="2345.105469" xlink:href="#DejaVuSans-50"/>
     <use x="2408.728516" xlink:href="#DejaVuSans-50"/>
     <use x="2472.351562" xlink:href="#DejaVuSans-44"/>
     <use x="2504.138672" xlink:href="#DejaVuSans-32"/>
     <use x="2535.925781" xlink:href="#DejaVuSans-83"/>
     <use x="2599.402344" xlink:href="#DejaVuSans-116"/>
     <use x="2638.611328" xlink:href="#DejaVuSans-97"/>
     <use x="2699.890625" xlink:href="#DejaVuSans-110"/>
     <use x="2763.269531" xlink:href="#DejaVuSans-100"/>
     <use x="2826.746094" xlink:href="#DejaVuSans-97"/>
     <use x="2888.025391" xlink:href="#DejaVuSans-114"/>
     <use x="2927.388672" xlink:href="#DejaVuSans-100"/>
     <use x="2990.865234" xlink:href="#DejaVuSans-32"/>
     <use x="3022.652344" xlink:href="#DejaVuSans-61"/>
     <use x="3106.441406" xlink:href="#DejaVuSans-32"/>
     <use x="3138.228516" xlink:href="#DejaVuSans-48"/>
     <use x="3201.851562" xlink:href="#DejaVuSans-46"/>
     <use x="3233.638672" xlink:href="#DejaVuSans-50"/>
     <use x="3297.261719" xlink:href="#DejaVuSans-53"/>
     <use x="3360.884766" xlink:href="#DejaVuSans-55"/>
     <use x="3424.507812" xlink:href="#DejaVuSans-44"/>
     <use x="3456.294922" xlink:href="#DejaVuSans-32"/>
    </g>
    <!--  Baseline = 0.178 -->
    <g transform="translate(182.795625 35.472)scale(0.12 -0.12)">
     <defs>
      <path d="M 19.671875 34.8125 
L 19.671875 8.109375 
L 35.5 8.109375 
Q 43.453125 8.109375 47.28125 11.40625 
Q 51.125 14.703125 51.125 21.484375 
Q 51.125 28.328125 47.28125 31.5625 
Q 43.453125 34.8125 35.5 34.8125 
z
M 19.671875 64.796875 
L 19.671875 42.828125 
L 34.28125 42.828125 
Q 41.5 42.828125 45.03125 45.53125 
Q 48.578125 48.25 48.578125 53.8125 
Q 48.578125 59.328125 45.03125 62.0625 
Q 41.5 64.796875 34.28125 64.796875 
z
M 9.8125 72.90625 
L 35.015625 72.90625 
Q 46.296875 72.90625 52.390625 68.21875 
Q 58.5 63.53125 58.5 54.890625 
Q 58.5 48.1875 55.375 44.234375 
Q 52.25 40.28125 46.1875 39.3125 
Q 53.46875 37.75 57.5 32.78125 
Q 61.53125 27.828125 61.53125 20.40625 
Q 61.53125 10.640625 54.890625 5.3125 
Q 48.25 0 35.984375 0 
L 9.8125 0 
z
" id="DejaVuSans-66"/>
     </defs>
     <use xlink:href="#DejaVuSans-32"/>
     <use x="31.787109" xlink:href="#DejaVuSans-66"/>
     <use x="100.390625" xlink:href="#DejaVuSans-97"/>
     <use x="161.669922" xlink:href="#DejaVuSans-115"/>
     <use x="213.769531" xlink:href="#DejaVuSans-101"/>
     <use x="275.292969" xlink:href="#DejaVuSans-108"/>
     <use x="303.076172" xlink:href="#DejaVuSans-105"/>
     <use x="330.859375" xlink:href="#DejaVuSans-110"/>
     <use x="394.238281" xlink:href="#DejaVuSans-101"/>
     <use x="455.761719" xlink:href="#DejaVuSans-32"/>
     <use x="487.548828" xlink:href="#DejaVuSans-61"/>
     <use x="571.337891" xlink:href="#DejaVuSans-32"/>
     <use x="603.125" xlink:href="#DejaVuSans-48"/>
     <use x="666.748047" xlink:href="#DejaVuSans-46"/>
     <use x="698.535156" xlink:href="#DejaVuSans-49"/>
     <use x="762.158203" xlink:href="#DejaVuSans-55"/>
     <use x="825.78125" xlink:href="#DejaVuSans-56"/>
    </g>
   </g>
   <g id="legend_1">
    <g id="patch_7">
     <path d="M 64.6 93.506375 
L 154.529687 93.506375 
Q 156.529687 93.506375 156.529687 91.506375 
L 156.529687 48.472 
Q 156.529687 46.472 154.529687 46.472 
L 64.6 46.472 
Q 62.6 46.472 62.6 48.472 
L 62.6 91.506375 
Q 62.6 93.506375 64.6 93.506375 
z
" style="fill:#ffffff;opacity:0.8;stroke:#cccccc;stroke-linejoin:miter;"/>
    </g>
    <g id="line2d_16">
     <path d="M 66.6 54.570438 
L 86.6 54.570438 
" style="fill:none;stroke:#1f77b4;stroke-linecap:square;stroke-width:1.5;"/>
    </g>
    <g id="line2d_17"/>
    <g id="text_16">
     <!-- Residual RL -->
     <g transform="translate(94.6 58.070438)scale(0.1 -0.1)">
      <use xlink:href="#DejaVuSans-82"/>
      <use x="64.982422" xlink:href="#DejaVuSans-101"/>
      <use x="126.505859" xlink:href="#DejaVuSans-115"/>
      <use x="178.605469" xlink:href="#DejaVuSans-105"/>
      <use x="206.388672" xlink:href="#DejaVuSans-100"/>
      <use x="269.865234" xlink:href="#DejaVuSans-117"/>
      <use x="333.244141" xlink:href="#DejaVuSans-97"/>
      <use x="394.523438" xlink:href="#DejaVuSans-108"/>
      <use x="422.306641" xlink:href="#DejaVuSans-32"/>
      <use x="454.09375" xlink:href="#DejaVuSans-82"/>
      <use x="523.576172" xlink:href="#DejaVuSans-76"/>
     </g>
    </g>
    <g id="line2d_18">
     <path d="M 66.6 69.248563 
L 86.6 69.248563 
" style="fill:none;stroke:#ff7f0e;stroke-linecap:square;stroke-width:1.5;"/>
    </g>
    <g id="line2d_19"/>
    <g id="text_17">
     <!-- Standard -->
     <g transform="translate(94.6 72.748563)scale(0.1 -0.1)">
      <use xlink:href="#DejaVuSans-83"/>
      <use x="63.476562" xlink:href="#DejaVuSans-116"/>
      <use x="102.685547" xlink:href="#DejaVuSans-97"/>
      <use x="163.964844" xlink:href="#DejaVuSans-110"/>
      <use x="227.34375" xlink:href="#DejaVuSans-100"/>
      <use x="290.820312" xlink:href="#DejaVuSans-97"/>
      <use x="352.099609" xlink:href="#DejaVuSans-114"/>
      <use x="391.462891" xlink:href="#DejaVuSans-100"/>
     </g>
    </g>
    <g id="line2d_20">
     <path d="M 66.6 83.926688 
L 86.6 83.926688 
" style="fill:none;stroke:#bf00bf;stroke-linecap:square;stroke-width:1.5;"/>
    </g>
    <g id="line2d_21"/>
    <g id="text_18">
     <!-- Baseline -->
     <g transform="translate(94.6 87.426688)scale(0.1 -0.1)">
      <use xlink:href="#DejaVuSans-66"/>
      <use x="68.603516" xlink:href="#DejaVuSans-97"/>
      <use x="129.882812" xlink:href="#DejaVuSans-115"/>
      <use x="181.982422" xlink:href="#DejaVuSans-101"/>
      <use x="243.505859" xlink:href="#DejaVuSans-108"/>
      <use x="271.289062" xlink:href="#DejaVuSans-105"/>
      <use x="299.072266" xlink:href="#DejaVuSans-110"/>
      <use x="362.451172" xlink:href="#DejaVuSans-101"/>
     </g>
    </g>
   </g>
  </g>
 </g>
 <defs>
  <clipPath id="p83f5ed1a83">
   <rect height="266.112" width="357.12" x="57.6" y="41.472"/>
  </clipPath>
 </defs>
</svg>
