<?xml version="1.0" encoding="utf-8" standalone="no"?>
<!DOCTYPE svg PUBLIC "-//W3C//DTD SVG 1.1//EN"
  "http://www.w3.org/Graphics/SVG/1.1/DTD/svg11.dtd">
<!-- Created with matplotlib (https://matplotlib.org/) -->
<svg height="345.6pt" version="1.1" viewBox="0 0 460.8 345.6" width="460.8pt" xmlns="http://www.w3.org/2000/svg" xmlns:xlink="http://www.w3.org/1999/xlink">
 <metadata>
  <rdf:RDF xmlns:cc="http://creativecommons.org/ns#" xmlns:dc="http://purl.org/dc/elements/1.1/" xmlns:rdf="http://www.w3.org/1999/02/22-rdf-syntax-ns#">
   <cc:Work>
    <dc:type rdf:resource="http://purl.org/dc/dcmitype/StillImage"/>
    <dc:date>2022-07-22T12:23:41.223704</dc:date>
    <dc:format>image/svg+xml</dc:format>
    <dc:creator>
     <cc:Agent>
      <dc:title>Matplotlib v3.3.4, https://matplotlib.org/</dc:title>
     </cc:Agent>
    </dc:creator>
   </cc:Work>
  </rdf:RDF>
 </metadata>
 <defs>
  <style type="text/css">*{stroke-linecap:butt;stroke-linejoin:round;}</style>
 </defs>
 <g id="figure_1">
  <g id="patch_1">
   <path d="M 0 345.6 
L 460.8 345.6 
L 460.8 0 
L 0 0 
z
" style="fill:#ffffff;"/>
  </g>
  <g id="axes_1">
   <g id="patch_2">
    <path d="M 57.6 307.584 
L 414.72 307.584 
L 414.72 41.472 
L 57.6 41.472 
z
" style="fill:#ffffff;"/>
   </g>
   <g id="matplotlib.axis_1">
    <g id="xtick_1">
     <g id="line2d_1">
      <defs>
       <path d="M 0 0 
L 0 3.5 
" id="m61f5e60396" style="stroke:#000000;stroke-width:0.8;"/>
      </defs>
      <g>
       <use style="stroke:#000000;stroke-width:0.8;" x="73.832727" xlink:href="#m61f5e60396" y="307.584"/>
      </g>
     </g>
     <g id="text_1">
      <!-- 0 -->
      <g transform="translate(70.651477 322.182437)scale(0.1 -0.1)">
       <defs>
        <path d="M 31.78125 66.40625 
Q 24.171875 66.40625 20.328125 58.90625 
Q 16.5 51.421875 16.5 36.375 
Q 16.5 21.390625 20.328125 13.890625 
Q 24.171875 6.390625 31.78125 6.390625 
Q 39.453125 6.390625 43.28125 13.890625 
Q 47.125 21.390625 47.125 36.375 
Q 47.125 51.421875 43.28125 58.90625 
Q 39.453125 66.40625 31.78125 66.40625 
z
M 31.78125 74.21875 
Q 44.046875 74.21875 50.515625 64.515625 
Q 56.984375 54.828125 56.984375 36.375 
Q 56.984375 17.96875 50.515625 8.265625 
Q 44.046875 -1.421875 31.78125 -1.421875 
Q 19.53125 -1.421875 13.0625 8.265625 
Q 6.59375 17.96875 6.59375 36.375 
Q 6.59375 54.828125 13.0625 64.515625 
Q 19.53125 74.21875 31.78125 74.21875 
z
" id="DejaVuSans-48"/>
       </defs>
       <use xlink:href="#DejaVuSans-48"/>
      </g>
     </g>
    </g>
    <g id="xtick_2">
     <g id="line2d_2">
      <g>
       <use style="stroke:#000000;stroke-width:0.8;" x="138.763636" xlink:href="#m61f5e60396" y="307.584"/>
      </g>
     </g>
     <g id="text_2">
      <!-- 2000 -->
      <g transform="translate(126.038636 322.182437)scale(0.1 -0.1)">
       <defs>
        <path d="M 19.1875 8.296875 
L 53.609375 8.296875 
L 53.609375 0 
L 7.328125 0 
L 7.328125 8.296875 
Q 12.9375 14.109375 22.625 23.890625 
Q 32.328125 33.6875 34.8125 36.53125 
Q 39.546875 41.84375 41.421875 45.53125 
Q 43.3125 49.21875 43.3125 52.78125 
Q 43.3125 58.59375 39.234375 62.25 
Q 35.15625 65.921875 28.609375 65.921875 
Q 23.96875 65.921875 18.8125 64.3125 
Q 13.671875 62.703125 7.8125 59.421875 
L 7.8125 69.390625 
Q 13.765625 71.78125 18.9375 73 
Q 24.125 74.21875 28.421875 74.21875 
Q 39.75 74.21875 46.484375 68.546875 
Q 53.21875 62.890625 53.21875 53.421875 
Q 53.21875 48.921875 51.53125 44.890625 
Q 49.859375 40.875 45.40625 35.40625 
Q 44.1875 33.984375 37.640625 27.21875 
Q 31.109375 20.453125 19.1875 8.296875 
z
" id="DejaVuSans-50"/>
       </defs>
       <use xlink:href="#DejaVuSans-50"/>
       <use x="63.623047" xlink:href="#DejaVuSans-48"/>
       <use x="127.246094" xlink:href="#DejaVuSans-48"/>
       <use x="190.869141" xlink:href="#DejaVuSans-48"/>
      </g>
     </g>
    </g>
    <g id="xtick_3">
     <g id="line2d_3">
      <g>
       <use style="stroke:#000000;stroke-width:0.8;" x="203.694545" xlink:href="#m61f5e60396" y="307.584"/>
      </g>
     </g>
     <g id="text_3">
      <!-- 4000 -->
      <g transform="translate(190.969545 322.182437)scale(0.1 -0.1)">
       <defs>
        <path d="M 37.796875 64.3125 
L 12.890625 25.390625 
L 37.796875 25.390625 
z
M 35.203125 72.90625 
L 47.609375 72.90625 
L 47.609375 25.390625 
L 58.015625 25.390625 
L 58.015625 17.1875 
L 47.609375 17.1875 
L 47.609375 0 
L 37.796875 0 
L 37.796875 17.1875 
L 4.890625 17.1875 
L 4.890625 26.703125 
z
" id="DejaVuSans-52"/>
       </defs>
       <use xlink:href="#DejaVuSans-52"/>
       <use x="63.623047" xlink:href="#DejaVuSans-48"/>
       <use x="127.246094" xlink:href="#DejaVuSans-48"/>
       <use x="190.869141" xlink:href="#DejaVuSans-48"/>
      </g>
     </g>
    </g>
    <g id="xtick_4">
     <g id="line2d_4">
      <g>
       <use style="stroke:#000000;stroke-width:0.8;" x="268.625455" xlink:href="#m61f5e60396" y="307.584"/>
      </g>
     </g>
     <g id="text_4">
      <!-- 6000 -->
      <g transform="translate(255.900455 322.182437)scale(0.1 -0.1)">
       <defs>
        <path d="M 33.015625 40.375 
Q 26.375 40.375 22.484375 35.828125 
Q 18.609375 31.296875 18.609375 23.390625 
Q 18.609375 15.53125 22.484375 10.953125 
Q 26.375 6.390625 33.015625 6.390625 
Q 39.65625 6.390625 43.53125 10.953125 
Q 47.40625 15.53125 47.40625 23.390625 
Q 47.40625 31.296875 43.53125 35.828125 
Q 39.65625 40.375 33.015625 40.375 
z
M 52.59375 71.296875 
L 52.59375 62.3125 
Q 48.875 64.0625 45.09375 64.984375 
Q 41.3125 65.921875 37.59375 65.921875 
Q 27.828125 65.921875 22.671875 59.328125 
Q 17.53125 52.734375 16.796875 39.40625 
Q 19.671875 43.65625 24.015625 45.921875 
Q 28.375 48.1875 33.59375 48.1875 
Q 44.578125 48.1875 50.953125 41.515625 
Q 57.328125 34.859375 57.328125 23.390625 
Q 57.328125 12.15625 50.6875 5.359375 
Q 44.046875 -1.421875 33.015625 -1.421875 
Q 20.359375 -1.421875 13.671875 8.265625 
Q 6.984375 17.96875 6.984375 36.375 
Q 6.984375 53.65625 15.1875 63.9375 
Q 23.390625 74.21875 37.203125 74.21875 
Q 40.921875 74.21875 44.703125 73.484375 
Q 48.484375 72.75 52.59375 71.296875 
z
" id="DejaVuSans-54"/>
       </defs>
       <use xlink:href="#DejaVuSans-54"/>
       <use x="63.623047" xlink:href="#DejaVuSans-48"/>
       <use x="127.246094" xlink:href="#DejaVuSans-48"/>
       <use x="190.869141" xlink:href="#DejaVuSans-48"/>
      </g>
     </g>
    </g>
    <g id="xtick_5">
     <g id="line2d_5">
      <g>
       <use style="stroke:#000000;stroke-width:0.8;" x="333.556364" xlink:href="#m61f5e60396" y="307.584"/>
      </g>
     </g>
     <g id="text_5">
      <!-- 8000 -->
      <g transform="translate(320.831364 322.182437)scale(0.1 -0.1)">
       <defs>
        <path d="M 31.78125 34.625 
Q 24.75 34.625 20.71875 30.859375 
Q 16.703125 27.09375 16.703125 20.515625 
Q 16.703125 13.921875 20.71875 10.15625 
Q 24.75 6.390625 31.78125 6.390625 
Q 38.8125 6.390625 42.859375 10.171875 
Q 46.921875 13.96875 46.921875 20.515625 
Q 46.921875 27.09375 42.890625 30.859375 
Q 38.875 34.625 31.78125 34.625 
z
M 21.921875 38.8125 
Q 15.578125 40.375 12.03125 44.71875 
Q 8.5 49.078125 8.5 55.328125 
Q 8.5 64.0625 14.71875 69.140625 
Q 20.953125 74.21875 31.78125 74.21875 
Q 42.671875 74.21875 48.875 69.140625 
Q 55.078125 64.0625 55.078125 55.328125 
Q 55.078125 49.078125 51.53125 44.71875 
Q 48 40.375 41.703125 38.8125 
Q 48.828125 37.15625 52.796875 32.3125 
Q 56.78125 27.484375 56.78125 20.515625 
Q 56.78125 9.90625 50.3125 4.234375 
Q 43.84375 -1.421875 31.78125 -1.421875 
Q 19.734375 -1.421875 13.25 4.234375 
Q 6.78125 9.90625 6.78125 20.515625 
Q 6.78125 27.484375 10.78125 32.3125 
Q 14.796875 37.15625 21.921875 38.8125 
z
M 18.3125 54.390625 
Q 18.3125 48.734375 21.84375 45.5625 
Q 25.390625 42.390625 31.78125 42.390625 
Q 38.140625 42.390625 41.71875 45.5625 
Q 45.3125 48.734375 45.3125 54.390625 
Q 45.3125 60.0625 41.71875 63.234375 
Q 38.140625 66.40625 31.78125 66.40625 
Q 25.390625 66.40625 21.84375 63.234375 
Q 18.3125 60.0625 18.3125 54.390625 
z
" id="DejaVuSans-56"/>
       </defs>
       <use xlink:href="#DejaVuSans-56"/>
       <use x="63.623047" xlink:href="#DejaVuSans-48"/>
       <use x="127.246094" xlink:href="#DejaVuSans-48"/>
       <use x="190.869141" xlink:href="#DejaVuSans-48"/>
      </g>
     </g>
    </g>
    <g id="xtick_6">
     <g id="line2d_6">
      <g>
       <use style="stroke:#000000;stroke-width:0.8;" x="398.487273" xlink:href="#m61f5e60396" y="307.584"/>
      </g>
     </g>
     <g id="text_6">
      <!-- 10000 -->
      <g transform="translate(382.581023 322.182437)scale(0.1 -0.1)">
       <defs>
        <path d="M 12.40625 8.296875 
L 28.515625 8.296875 
L 28.515625 63.921875 
L 10.984375 60.40625 
L 10.984375 69.390625 
L 28.421875 72.90625 
L 38.28125 72.90625 
L 38.28125 8.296875 
L 54.390625 8.296875 
L 54.390625 0 
L 12.40625 0 
z
" id="DejaVuSans-49"/>
       </defs>
       <use xlink:href="#DejaVuSans-49"/>
       <use x="63.623047" xlink:href="#DejaVuSans-48"/>
       <use x="127.246094" xlink:href="#DejaVuSans-48"/>
       <use x="190.869141" xlink:href="#DejaVuSans-48"/>
       <use x="254.492188" xlink:href="#DejaVuSans-48"/>
      </g>
     </g>
    </g>
    <g id="text_7">
     <!-- Num-time-steps -->
     <g transform="translate(196.056094 335.860562)scale(0.1 -0.1)">
      <defs>
       <path d="M 9.8125 72.90625 
L 23.09375 72.90625 
L 55.421875 11.921875 
L 55.421875 72.90625 
L 64.984375 72.90625 
L 64.984375 0 
L 51.703125 0 
L 19.390625 60.984375 
L 19.390625 0 
L 9.8125 0 
z
" id="DejaVuSans-78"/>
       <path d="M 8.5 21.578125 
L 8.5 54.6875 
L 17.484375 54.6875 
L 17.484375 21.921875 
Q 17.484375 14.15625 20.5 10.265625 
Q 23.53125 6.390625 29.59375 6.390625 
Q 36.859375 6.390625 41.078125 11.03125 
Q 45.3125 15.671875 45.3125 23.6875 
L 45.3125 54.6875 
L 54.296875 54.6875 
L 54.296875 0 
L 45.3125 0 
L 45.3125 8.40625 
Q 42.046875 3.421875 37.71875 1 
Q 33.40625 -1.421875 27.6875 -1.421875 
Q 18.265625 -1.421875 13.375 4.4375 
Q 8.5 10.296875 8.5 21.578125 
z
M 31.109375 56 
z
" id="DejaVuSans-117"/>
       <path d="M 52 44.1875 
Q 55.375 50.25 60.0625 53.125 
Q 64.75 56 71.09375 56 
Q 79.640625 56 84.28125 50.015625 
Q 88.921875 44.046875 88.921875 33.015625 
L 88.921875 0 
L 79.890625 0 
L 79.890625 32.71875 
Q 79.890625 40.578125 77.09375 44.375 
Q 74.3125 48.1875 68.609375 48.1875 
Q 61.625 48.1875 57.5625 43.546875 
Q 53.515625 38.921875 53.515625 30.90625 
L 53.515625 0 
L 44.484375 0 
L 44.484375 32.71875 
Q 44.484375 40.625 41.703125 44.40625 
Q 38.921875 48.1875 33.109375 48.1875 
Q 26.21875 48.1875 22.15625 43.53125 
Q 18.109375 38.875 18.109375 30.90625 
L 18.109375 0 
L 9.078125 0 
L 9.078125 54.6875 
L 18.109375 54.6875 
L 18.109375 46.1875 
Q 21.1875 51.21875 25.484375 53.609375 
Q 29.78125 56 35.6875 56 
Q 41.65625 56 45.828125 52.96875 
Q 50 49.953125 52 44.1875 
z
" id="DejaVuSans-109"/>
       <path d="M 4.890625 31.390625 
L 31.203125 31.390625 
L 31.203125 23.390625 
L 4.890625 23.390625 
z
" id="DejaVuSans-45"/>
       <path d="M 18.3125 70.21875 
L 18.3125 54.6875 
L 36.8125 54.6875 
L 36.8125 47.703125 
L 18.3125 47.703125 
L 18.3125 18.015625 
Q 18.3125 11.328125 20.140625 9.421875 
Q 21.96875 7.515625 27.59375 7.515625 
L 36.8125 7.515625 
L 36.8125 0 
L 27.59375 0 
Q 17.1875 0 13.234375 3.875 
Q 9.28125 7.765625 9.28125 18.015625 
L 9.28125 47.703125 
L 2.6875 47.703125 
L 2.6875 54.6875 
L 9.28125 54.6875 
L 9.28125 70.21875 
z
" id="DejaVuSans-116"/>
       <path d="M 9.421875 54.6875 
L 18.40625 54.6875 
L 18.40625 0 
L 9.421875 0 
z
M 9.421875 75.984375 
L 18.40625 75.984375 
L 18.40625 64.59375 
L 9.421875 64.59375 
z
" id="DejaVuSans-105"/>
       <path d="M 56.203125 29.59375 
L 56.203125 25.203125 
L 14.890625 25.203125 
Q 15.484375 15.921875 20.484375 11.0625 
Q 25.484375 6.203125 34.421875 6.203125 
Q 39.59375 6.203125 44.453125 7.46875 
Q 49.3125 8.734375 54.109375 11.28125 
L 54.109375 2.78125 
Q 49.265625 0.734375 44.1875 -0.34375 
Q 39.109375 -1.421875 33.890625 -1.421875 
Q 20.796875 -1.421875 13.15625 6.1875 
Q 5.515625 13.8125 5.515625 26.8125 
Q 5.515625 40.234375 12.765625 48.109375 
Q 20.015625 56 32.328125 56 
Q 43.359375 56 49.78125 48.890625 
Q 56.203125 41.796875 56.203125 29.59375 
z
M 47.21875 32.234375 
Q 47.125 39.59375 43.09375 43.984375 
Q 39.0625 48.390625 32.421875 48.390625 
Q 24.90625 48.390625 20.390625 44.140625 
Q 15.875 39.890625 15.1875 32.171875 
z
" id="DejaVuSans-101"/>
       <path d="M 44.28125 53.078125 
L 44.28125 44.578125 
Q 40.484375 46.53125 36.375 47.5 
Q 32.28125 48.484375 27.875 48.484375 
Q 21.1875 48.484375 17.84375 46.4375 
Q 14.5 44.390625 14.5 40.28125 
Q 14.5 37.15625 16.890625 35.375 
Q 19.28125 33.59375 26.515625 31.984375 
L 29.59375 31.296875 
Q 39.15625 29.25 43.1875 25.515625 
Q 47.21875 21.78125 47.21875 15.09375 
Q 47.21875 7.46875 41.1875 3.015625 
Q 35.15625 -1.421875 24.609375 -1.421875 
Q 20.21875 -1.421875 15.453125 -0.5625 
Q 10.6875 0.296875 5.421875 2 
L 5.421875 11.28125 
Q 10.40625 8.6875 15.234375 7.390625 
Q 20.0625 6.109375 24.8125 6.109375 
Q 31.15625 6.109375 34.5625 8.28125 
Q 37.984375 10.453125 37.984375 14.40625 
Q 37.984375 18.0625 35.515625 20.015625 
Q 33.0625 21.96875 24.703125 23.78125 
L 21.578125 24.515625 
Q 13.234375 26.265625 9.515625 29.90625 
Q 5.8125 33.546875 5.8125 39.890625 
Q 5.8125 47.609375 11.28125 51.796875 
Q 16.75 56 26.8125 56 
Q 31.78125 56 36.171875 55.265625 
Q 40.578125 54.546875 44.28125 53.078125 
z
" id="DejaVuSans-115"/>
       <path d="M 18.109375 8.203125 
L 18.109375 -20.796875 
L 9.078125 -20.796875 
L 9.078125 54.6875 
L 18.109375 54.6875 
L 18.109375 46.390625 
Q 20.953125 51.265625 25.265625 53.625 
Q 29.59375 56 35.59375 56 
Q 45.5625 56 51.78125 48.09375 
Q 58.015625 40.1875 58.015625 27.296875 
Q 58.015625 14.40625 51.78125 6.484375 
Q 45.5625 -1.421875 35.59375 -1.421875 
Q 29.59375 -1.421875 25.265625 0.953125 
Q 20.953125 3.328125 18.109375 8.203125 
z
M 48.6875 27.296875 
Q 48.6875 37.203125 44.609375 42.84375 
Q 40.53125 48.484375 33.40625 48.484375 
Q 26.265625 48.484375 22.1875 42.84375 
Q 18.109375 37.203125 18.109375 27.296875 
Q 18.109375 17.390625 22.1875 11.75 
Q 26.265625 6.109375 33.40625 6.109375 
Q 40.53125 6.109375 44.609375 11.75 
Q 48.6875 17.390625 48.6875 27.296875 
z
" id="DejaVuSans-112"/>
      </defs>
      <use xlink:href="#DejaVuSans-78"/>
      <use x="74.804688" xlink:href="#DejaVuSans-117"/>
      <use x="138.183594" xlink:href="#DejaVuSans-109"/>
      <use x="235.595703" xlink:href="#DejaVuSans-45"/>
      <use x="271.679688" xlink:href="#DejaVuSans-116"/>
      <use x="310.888672" xlink:href="#DejaVuSans-105"/>
      <use x="338.671875" xlink:href="#DejaVuSans-109"/>
      <use x="436.083984" xlink:href="#DejaVuSans-101"/>
      <use x="497.607422" xlink:href="#DejaVuSans-45"/>
      <use x="533.691406" xlink:href="#DejaVuSans-115"/>
      <use x="585.791016" xlink:href="#DejaVuSans-116"/>
      <use x="625" xlink:href="#DejaVuSans-101"/>
      <use x="686.523438" xlink:href="#DejaVuSans-112"/>
      <use x="750" xlink:href="#DejaVuSans-115"/>
     </g>
    </g>
   </g>
   <g id="matplotlib.axis_2">
    <g id="ytick_1">
     <g id="line2d_7">
      <defs>
       <path d="M 0 0 
L -3.5 0 
" id="m0e8eccad09" style="stroke:#000000;stroke-width:0.8;"/>
      </defs>
      <g>
       <use style="stroke:#000000;stroke-width:0.8;" x="57.6" xlink:href="#m0e8eccad09" y="302.416193"/>
      </g>
     </g>
     <g id="text_8">
      <!-- 0.0 -->
      <g transform="translate(34.696875 306.215412)scale(0.1 -0.1)">
       <defs>
        <path d="M 10.6875 12.40625 
L 21 12.40625 
L 21 0 
L 10.6875 0 
z
" id="DejaVuSans-46"/>
       </defs>
       <use xlink:href="#DejaVuSans-48"/>
       <use x="63.623047" xlink:href="#DejaVuSans-46"/>
       <use x="95.410156" xlink:href="#DejaVuSans-48"/>
      </g>
     </g>
    </g>
    <g id="ytick_2">
     <g id="line2d_8">
      <g>
       <use style="stroke:#000000;stroke-width:0.8;" x="57.6" xlink:href="#m0e8eccad09" y="267.825577"/>
      </g>
     </g>
     <g id="text_9">
      <!-- 0.1 -->
      <g transform="translate(34.696875 271.624796)scale(0.1 -0.1)">
       <use xlink:href="#DejaVuSans-48"/>
       <use x="63.623047" xlink:href="#DejaVuSans-46"/>
       <use x="95.410156" xlink:href="#DejaVuSans-49"/>
      </g>
     </g>
    </g>
    <g id="ytick_3">
     <g id="line2d_9">
      <g>
       <use style="stroke:#000000;stroke-width:0.8;" x="57.6" xlink:href="#m0e8eccad09" y="233.234961"/>
      </g>
     </g>
     <g id="text_10">
      <!-- 0.2 -->
      <g transform="translate(34.696875 237.03418)scale(0.1 -0.1)">
       <use xlink:href="#DejaVuSans-48"/>
       <use x="63.623047" xlink:href="#DejaVuSans-46"/>
       <use x="95.410156" xlink:href="#DejaVuSans-50"/>
      </g>
     </g>
    </g>
    <g id="ytick_4">
     <g id="line2d_10">
      <g>
       <use style="stroke:#000000;stroke-width:0.8;" x="57.6" xlink:href="#m0e8eccad09" y="198.644345"/>
      </g>
     </g>
     <g id="text_11">
      <!-- 0.3 -->
      <g transform="translate(34.696875 202.443563)scale(0.1 -0.1)">
       <defs>
        <path d="M 40.578125 39.3125 
Q 47.65625 37.796875 51.625 33 
Q 55.609375 28.21875 55.609375 21.1875 
Q 55.609375 10.40625 48.1875 4.484375 
Q 40.765625 -1.421875 27.09375 -1.421875 
Q 22.515625 -1.421875 17.65625 -0.515625 
Q 12.796875 0.390625 7.625 2.203125 
L 7.625 11.71875 
Q 11.71875 9.328125 16.59375 8.109375 
Q 21.484375 6.890625 26.8125 6.890625 
Q 36.078125 6.890625 40.9375 10.546875 
Q 45.796875 14.203125 45.796875 21.1875 
Q 45.796875 27.640625 41.28125 31.265625 
Q 36.765625 34.90625 28.71875 34.90625 
L 20.21875 34.90625 
L 20.21875 43.015625 
L 29.109375 43.015625 
Q 36.375 43.015625 40.234375 45.921875 
Q 44.09375 48.828125 44.09375 54.296875 
Q 44.09375 59.90625 40.109375 62.90625 
Q 36.140625 65.921875 28.71875 65.921875 
Q 24.65625 65.921875 20.015625 65.03125 
Q 15.375 64.15625 9.8125 62.3125 
L 9.8125 71.09375 
Q 15.4375 72.65625 20.34375 73.4375 
Q 25.25 74.21875 29.59375 74.21875 
Q 40.828125 74.21875 47.359375 69.109375 
Q 53.90625 64.015625 53.90625 55.328125 
Q 53.90625 49.265625 50.4375 45.09375 
Q 46.96875 40.921875 40.578125 39.3125 
z
" id="DejaVuSans-51"/>
       </defs>
       <use xlink:href="#DejaVuSans-48"/>
       <use x="63.623047" xlink:href="#DejaVuSans-46"/>
       <use x="95.410156" xlink:href="#DejaVuSans-51"/>
      </g>
     </g>
    </g>
    <g id="ytick_5">
     <g id="line2d_11">
      <g>
       <use style="stroke:#000000;stroke-width:0.8;" x="57.6" xlink:href="#m0e8eccad09" y="164.053728"/>
      </g>
     </g>
     <g id="text_12">
      <!-- 0.4 -->
      <g transform="translate(34.696875 167.852947)scale(0.1 -0.1)">
       <use xlink:href="#DejaVuSans-48"/>
       <use x="63.623047" xlink:href="#DejaVuSans-46"/>
       <use x="95.410156" xlink:href="#DejaVuSans-52"/>
      </g>
     </g>
    </g>
    <g id="ytick_6">
     <g id="line2d_12">
      <g>
       <use style="stroke:#000000;stroke-width:0.8;" x="57.6" xlink:href="#m0e8eccad09" y="129.463112"/>
      </g>
     </g>
     <g id="text_13">
      <!-- 0.5 -->
      <g transform="translate(34.696875 133.262331)scale(0.1 -0.1)">
       <defs>
        <path d="M 10.796875 72.90625 
L 49.515625 72.90625 
L 49.515625 64.59375 
L 19.828125 64.59375 
L 19.828125 46.734375 
Q 21.96875 47.46875 24.109375 47.828125 
Q 26.265625 48.1875 28.421875 48.1875 
Q 40.625 48.1875 47.75 41.5 
Q 54.890625 34.8125 54.890625 23.390625 
Q 54.890625 11.625 47.5625 5.09375 
Q 40.234375 -1.421875 26.90625 -1.421875 
Q 22.3125 -1.421875 17.546875 -0.640625 
Q 12.796875 0.140625 7.71875 1.703125 
L 7.71875 11.625 
Q 12.109375 9.234375 16.796875 8.0625 
Q 21.484375 6.890625 26.703125 6.890625 
Q 35.15625 6.890625 40.078125 11.328125 
Q 45.015625 15.765625 45.015625 23.390625 
Q 45.015625 31 40.078125 35.4375 
Q 35.15625 39.890625 26.703125 39.890625 
Q 22.75 39.890625 18.8125 39.015625 
Q 14.890625 38.140625 10.796875 36.28125 
z
" id="DejaVuSans-53"/>
       </defs>
       <use xlink:href="#DejaVuSans-48"/>
       <use x="63.623047" xlink:href="#DejaVuSans-46"/>
       <use x="95.410156" xlink:href="#DejaVuSans-53"/>
      </g>
     </g>
    </g>
    <g id="ytick_7">
     <g id="line2d_13">
      <g>
       <use style="stroke:#000000;stroke-width:0.8;" x="57.6" xlink:href="#m0e8eccad09" y="94.872496"/>
      </g>
     </g>
     <g id="text_14">
      <!-- 0.6 -->
      <g transform="translate(34.696875 98.671715)scale(0.1 -0.1)">
       <use xlink:href="#DejaVuSans-48"/>
       <use x="63.623047" xlink:href="#DejaVuSans-46"/>
       <use x="95.410156" xlink:href="#DejaVuSans-54"/>
      </g>
     </g>
    </g>
    <g id="ytick_8">
     <g id="line2d_14">
      <g>
       <use style="stroke:#000000;stroke-width:0.8;" x="57.6" xlink:href="#m0e8eccad09" y="60.28188"/>
      </g>
     </g>
     <g id="text_15">
      <!-- 0.7 -->
      <g transform="translate(34.696875 64.081099)scale(0.1 -0.1)">
       <defs>
        <path d="M 8.203125 72.90625 
L 55.078125 72.90625 
L 55.078125 68.703125 
L 28.609375 0 
L 18.3125 0 
L 43.21875 64.59375 
L 8.203125 64.59375 
z
" id="DejaVuSans-55"/>
       </defs>
       <use xlink:href="#DejaVuSans-48"/>
       <use x="63.623047" xlink:href="#DejaVuSans-46"/>
       <use x="95.410156" xlink:href="#DejaVuSans-55"/>
      </g>
     </g>
    </g>
    <g id="text_16">
     <!-- Obj-pose-error-norm -->
     <g transform="translate(28.617187 225.203781)rotate(-90)scale(0.1 -0.1)">
      <defs>
       <path d="M 39.40625 66.21875 
Q 28.65625 66.21875 22.328125 58.203125 
Q 16.015625 50.203125 16.015625 36.375 
Q 16.015625 22.609375 22.328125 14.59375 
Q 28.65625 6.59375 39.40625 6.59375 
Q 50.140625 6.59375 56.421875 14.59375 
Q 62.703125 22.609375 62.703125 36.375 
Q 62.703125 50.203125 56.421875 58.203125 
Q 50.140625 66.21875 39.40625 66.21875 
z
M 39.40625 74.21875 
Q 54.734375 74.21875 63.90625 63.9375 
Q 73.09375 53.65625 73.09375 36.375 
Q 73.09375 19.140625 63.90625 8.859375 
Q 54.734375 -1.421875 39.40625 -1.421875 
Q 24.03125 -1.421875 14.8125 8.828125 
Q 5.609375 19.09375 5.609375 36.375 
Q 5.609375 53.65625 14.8125 63.9375 
Q 24.03125 74.21875 39.40625 74.21875 
z
" id="DejaVuSans-79"/>
       <path d="M 48.6875 27.296875 
Q 48.6875 37.203125 44.609375 42.84375 
Q 40.53125 48.484375 33.40625 48.484375 
Q 26.265625 48.484375 22.1875 42.84375 
Q 18.109375 37.203125 18.109375 27.296875 
Q 18.109375 17.390625 22.1875 11.75 
Q 26.265625 6.109375 33.40625 6.109375 
Q 40.53125 6.109375 44.609375 11.75 
Q 48.6875 17.390625 48.6875 27.296875 
z
M 18.109375 46.390625 
Q 20.953125 51.265625 25.265625 53.625 
Q 29.59375 56 35.59375 56 
Q 45.5625 56 51.78125 48.09375 
Q 58.015625 40.1875 58.015625 27.296875 
Q 58.015625 14.40625 51.78125 6.484375 
Q 45.5625 -1.421875 35.59375 -1.421875 
Q 29.59375 -1.421875 25.265625 0.953125 
Q 20.953125 3.328125 18.109375 8.203125 
L 18.109375 0 
L 9.078125 0 
L 9.078125 75.984375 
L 18.109375 75.984375 
z
" id="DejaVuSans-98"/>
       <path d="M 9.421875 54.6875 
L 18.40625 54.6875 
L 18.40625 -0.984375 
Q 18.40625 -11.421875 14.421875 -16.109375 
Q 10.453125 -20.796875 1.609375 -20.796875 
L -1.8125 -20.796875 
L -1.8125 -13.1875 
L 0.59375 -13.1875 
Q 5.71875 -13.1875 7.5625 -10.8125 
Q 9.421875 -8.453125 9.421875 -0.984375 
z
M 9.421875 75.984375 
L 18.40625 75.984375 
L 18.40625 64.59375 
L 9.421875 64.59375 
z
" id="DejaVuSans-106"/>
       <path d="M 30.609375 48.390625 
Q 23.390625 48.390625 19.1875 42.75 
Q 14.984375 37.109375 14.984375 27.296875 
Q 14.984375 17.484375 19.15625 11.84375 
Q 23.34375 6.203125 30.609375 6.203125 
Q 37.796875 6.203125 41.984375 11.859375 
Q 46.1875 17.53125 46.1875 27.296875 
Q 46.1875 37.015625 41.984375 42.703125 
Q 37.796875 48.390625 30.609375 48.390625 
z
M 30.609375 56 
Q 42.328125 56 49.015625 48.375 
Q 55.71875 40.765625 55.71875 27.296875 
Q 55.71875 13.875 49.015625 6.21875 
Q 42.328125 -1.421875 30.609375 -1.421875 
Q 18.84375 -1.421875 12.171875 6.21875 
Q 5.515625 13.875 5.515625 27.296875 
Q 5.515625 40.765625 12.171875 48.375 
Q 18.84375 56 30.609375 56 
z
" id="DejaVuSans-111"/>
       <path d="M 41.109375 46.296875 
Q 39.59375 47.171875 37.8125 47.578125 
Q 36.03125 48 33.890625 48 
Q 26.265625 48 22.1875 43.046875 
Q 18.109375 38.09375 18.109375 28.8125 
L 18.109375 0 
L 9.078125 0 
L 9.078125 54.6875 
L 18.109375 54.6875 
L 18.109375 46.1875 
Q 20.953125 51.171875 25.484375 53.578125 
Q 30.03125 56 36.53125 56 
Q 37.453125 56 38.578125 55.875 
Q 39.703125 55.765625 41.0625 55.515625 
z
" id="DejaVuSans-114"/>
       <path d="M 54.890625 33.015625 
L 54.890625 0 
L 45.90625 0 
L 45.90625 32.71875 
Q 45.90625 40.484375 42.875 44.328125 
Q 39.84375 48.1875 33.796875 48.1875 
Q 26.515625 48.1875 22.3125 43.546875 
Q 18.109375 38.921875 18.109375 30.90625 
L 18.109375 0 
L 9.078125 0 
L 9.078125 54.6875 
L 18.109375 54.6875 
L 18.109375 46.1875 
Q 21.34375 51.125 25.703125 53.5625 
Q 30.078125 56 35.796875 56 
Q 45.21875 56 50.046875 50.171875 
Q 54.890625 44.34375 54.890625 33.015625 
z
" id="DejaVuSans-110"/>
      </defs>
      <use xlink:href="#DejaVuSans-79"/>
      <use x="78.710938" xlink:href="#DejaVuSans-98"/>
      <use x="142.1875" xlink:href="#DejaVuSans-106"/>
      <use x="169.970703" xlink:href="#DejaVuSans-45"/>
      <use x="206.054688" xlink:href="#DejaVuSans-112"/>
      <use x="269.53125" xlink:href="#DejaVuSans-111"/>
      <use x="330.712891" xlink:href="#DejaVuSans-115"/>
      <use x="382.8125" xlink:href="#DejaVuSans-101"/>
      <use x="444.335938" xlink:href="#DejaVuSans-45"/>
      <use x="480.419922" xlink:href="#DejaVuSans-101"/>
      <use x="541.943359" xlink:href="#DejaVuSans-114"/>
      <use x="581.306641" xlink:href="#DejaVuSans-114"/>
      <use x="620.169922" xlink:href="#DejaVuSans-111"/>
      <use x="681.351562" xlink:href="#DejaVuSans-114"/>
      <use x="716.089844" xlink:href="#DejaVuSans-45"/>
      <use x="752.173828" xlink:href="#DejaVuSans-110"/>
      <use x="815.552734" xlink:href="#DejaVuSans-111"/>
      <use x="876.734375" xlink:href="#DejaVuSans-114"/>
      <use x="916.097656" xlink:href="#DejaVuSans-109"/>
     </g>
    </g>
   </g>
   <g id="line2d_15">
    <path clip-path="url(#p9bec06967e)" d="M 73.832727 295.281104 
L 73.865193 295.48587 
L 74.02752 281.912461 
L 74.319709 260.177469 
L 74.514502 294.535404 
L 74.546967 293.371454 
L 74.611898 276.842898 
L 74.676829 279.623761 
L 74.839156 288.298626 
L 75.033949 291.273452 
L 75.066415 291.268329 
L 75.163811 289.806777 
L 75.650793 273.248824 
L 75.975447 264.462316 
L 76.235171 262.195542 
L 76.592291 258.787138 
L 76.787084 256.045139 
L 76.819549 231.616343 
L 76.916945 235.385874 
L 77.111738 239.405295 
L 77.176669 239.224017 
L 77.371462 236.499864 
L 77.631185 229.761378 
L 77.95584 221.34292 
L 78.183098 219.681475 
L 78.280495 219.707529 
L 78.442822 220.244247 
L 78.605149 220.718515 
L 78.637615 220.648539 
L 78.67008 220.664881 
L 78.864873 221.503282 
L 78.994735 221.114735 
L 79.157062 221.504163 
L 79.189527 221.47975 
L 79.514182 220.071793 
L 79.773905 218.839307 
L 80.131025 216.474346 
L 81.007593 209.604027 
L 81.397178 208.140558 
L 81.786764 207.070807 
L 82.923055 202.111217 
L 83.247709 201.498943 
L 83.474967 201.38005 
L 83.702225 201.13513 
L 83.929484 200.602222 
L 84.513862 199.076069 
L 84.870982 198.543484 
L 85.163171 198.482789 
L 85.293033 198.651261 
L 85.650153 199.090077 
L 85.942342 198.77889 
L 87.111098 197.801049 
L 87.338356 197.717895 
L 88.507113 196.299975 
L 89.643404 194.691937 
L 89.935593 194.180279 
L 90.844625 192.627731 
L 91.039418 192.569684 
L 91.266676 192.554185 
L 91.786124 192.82366 
L 92.370502 191.655221 
L 93.247069 189.711464 
L 93.571724 189.08753 
L 93.896378 188.747974 
L 94.350895 188.632104 
L 94.513222 188.496408 
L 95.357324 187.681005 
L 96.006633 186.608232 
L 96.493615 185.869482 
L 97.824698 184.50559 
L 98.019491 184.459809 
L 98.409076 184.200991 
L 99.253178 182.789978 
L 99.415505 182.760611 
L 99.675229 183.074257 
L 100.227142 183.819317 
L 100.714124 183.891517 
L 102.304931 185.288427 
L 102.59712 185.367619 
L 103.116567 185.762121 
L 103.765876 186.189223 
L 103.960669 185.967635 
L 104.545047 185.01675 
L 104.707375 185.034657 
L 104.967098 185.383936 
L 105.583942 186.217752 
L 105.746269 186.196422 
L 106.330647 185.557196 
L 106.687767 185.411969 
L 106.817629 185.510697 
L 107.304611 186.538044 
L 107.726662 187.474797 
L 108.051316 187.758262 
L 108.408436 187.884648 
L 109.122676 187.456047 
L 109.512262 188.056467 
L 110.194036 189.008454 
L 110.940742 188.961851 
L 111.492655 189.029983 
L 111.719913 189.097076 
L 112.304291 189.338263 
L 112.564015 189.147478 
L 112.888669 188.79249 
L 113.375651 188.498572 
L 114.057425 188.925442 
L 114.447011 189.722464 
L 114.836596 190.501576 
L 114.998924 190.466197 
L 115.193716 190.095383 
L 115.648233 188.860355 
L 115.843025 188.808823 
L 115.940422 188.889524 
L 116.16768 189.470345 
L 116.946851 192.090782 
L 117.888349 190.209189 
L 118.018211 190.34517 
L 118.570124 191.000307 
L 118.66752 190.94142 
L 119.544087 190.152868 
L 119.576553 190.213924 
L 119.641484 190.151701 
L 119.901207 189.782054 
L 120.550516 188.604793 
L 121.102429 188.917292 
L 121.654342 189.54209 
L 121.914065 189.415726 
L 122.23872 189.029971 
L 122.693236 188.400651 
L 122.855564 188.288943 
L 123.115287 188.156348 
L 123.439942 188.488696 
L 123.732131 188.819084 
L 123.764596 188.766773 
L 124.154182 188.49394 
L 124.284044 188.44081 
L 124.511302 188.340185 
L 124.868422 188.324664 
L 125.160611 188.388875 
L 125.193076 188.418949 
L 125.225542 188.347457 
L 125.322938 188.296825 
L 125.355404 188.332353 
L 125.517731 188.727115 
L 126.231971 191.50485 
L 126.783884 192.370754 
L 126.848815 192.281228 
L 126.913745 192.324233 
L 127.108538 192.509897 
L 127.368262 192.747051 
L 127.660451 192.688646 
L 127.790313 192.518644 
L 127.822778 192.549106 
L 127.855244 192.481942 
L 127.887709 192.570114 
L 127.95264 192.505826 
L 128.30976 193.286231 
L 128.731811 194.095045 
L 128.991535 194.136344 
L 129.121396 194.088064 
L 129.575913 193.315867 
L 129.705775 192.929949 
L 129.73824 192.98635 
L 129.770705 193.023544 
L 129.803171 192.907856 
L 129.835636 192.952315 
L 129.900567 192.872037 
L 129.933033 192.938402 
L 130.192756 193.964588 
L 130.355084 194.236582 
L 130.387549 194.183849 
L 130.582342 194.725776 
L 131.036858 194.386967 
L 131.101789 194.456651 
L 131.134255 194.393938 
L 131.296582 194.474757 
L 131.458909 194.801538 
L 131.653702 195.29525 
L 131.751098 195.377679 
L 131.783564 195.348368 
L 131.848495 195.371231 
L 131.913425 195.228727 
L 132.043287 195.231648 
L 132.303011 195.136619 
L 132.497804 195.386902 
L 132.725062 196.343163 
L 132.984785 196.923034 
L 133.114647 196.892829 
L 133.276975 197.009474 
L 133.406836 196.929416 
L 133.601629 197.175856 
L 133.731491 197.140043 
L 133.796422 197.249493 
L 133.958749 197.48186 
L 134.283404 197.219024 
L 134.315869 197.291034 
L 134.575593 197.117518 
L 134.640524 197.067045 
L 134.672989 197.149674 
L 134.802851 197.306359 
L 134.835316 197.266161 
L 134.867782 197.248603 
L 134.900247 197.35198 
L 135.224902 197.966723 
L 135.517091 198.643113 
L 135.874211 199.248146 
L 135.971607 199.178238 
L 136.004073 199.153555 
L 136.036538 199.19853 
L 136.069004 199.469836 
L 136.1664 199.400394 
L 136.393658 199.425582 
L 136.620916 200.124273 
L 136.653382 200.114316 
L 137.042967 201.113336 
L 137.789673 202.918123 
L 137.952 202.997381 
L 138.211724 203.124456 
L 138.244189 203.094804 
L 138.276655 203.155515 
L 139.02336 203.920388 
L 139.120756 203.790534 
L 139.185687 203.860871 
L 139.250618 204.011055 
L 139.315549 203.965463 
L 139.412945 203.898564 
L 139.445411 203.840212 
L 139.607738 204.212911 
L 139.834996 204.660374 
L 140.289513 206.072011 
L 140.549236 206.60787 
L 140.581702 206.569289 
L 140.614167 206.605694 
L 140.80896 206.756801 
L 140.906356 206.781435 
L 140.938822 206.732699 
L 140.971287 206.700587 
L 141.133615 207.0431 
L 141.198545 207.159023 
L 141.263476 207.103199 
L 141.295942 207.083196 
L 141.328407 207.165346 
L 141.555665 207.428935 
L 142.172509 208.775737 
L 142.334836 209.123423 
L 142.529629 209.379419 
L 142.562095 209.348412 
L 142.59456 209.416038 
L 142.659491 209.49773 
L 142.724422 209.437602 
L 142.821818 209.527629 
L 142.854284 209.446865 
L 143.243869 209.378603 
L 143.438662 209.658047 
L 143.471127 209.636719 
L 143.503593 209.71907 
L 143.66592 209.891127 
L 143.698385 209.83195 
L 143.730851 209.810296 
L 143.763316 209.914411 
L 144.217833 211.284816 
L 144.282764 211.37123 
L 144.445091 211.819282 
L 144.704815 212.645049 
L 144.899607 212.951205 
L 145.191796 212.748341 
L 145.711244 211.393076 
L 145.743709 211.369317 
L 145.776175 211.454559 
L 145.938502 211.657774 
L 146.133295 212.546337 
L 146.587811 215.508627 
L 146.944931 216.417178 
L 147.074793 216.584125 
L 147.464378 215.123049 
L 147.626705 214.782873 
L 147.789033 215.017298 
L 148.016291 216.029673 
L 148.373411 218.441838 
L 148.405876 218.405799 
L 148.698065 219.178473 
L 148.860393 219.065169 
L 149.120116 219.188045 
L 149.217513 219.183379 
L 149.477236 218.821623 
L 149.834356 219.304621 
L 150.418735 220.96424 
L 150.548596 221.050325 
L 150.710924 221.344095 
L 151.035578 222.013415 
L 151.132975 222.187542 
L 151.52256 223.20838 
L 151.944611 224.557797 
L 152.106938 224.574252 
L 152.528989 223.711332 
L 152.59392 223.753641 
L 152.983505 224.154655 
L 153.178298 224.505578 
L 153.925004 226.682388 
L 154.217193 226.632046 
L 155.710604 224.49632 
L 156.002793 224.708167 
L 156.067724 224.709303 
L 156.619636 225.55026 
L 156.944291 225.691567 
L 157.333876 225.500559 
L 157.690996 225.194992 
L 157.853324 225.167365 
L 158.113047 225.036715 
L 158.275375 225.041432 
L 158.405236 225.150294 
L 158.892218 225.665351 
L 159.281804 225.647041 
L 159.509062 225.600553 
L 160.028509 225.704971 
L 160.580422 225.428509 
L 161.392058 224.607712 
L 161.846575 224.49781 
L 162.333556 224.62152 
L 162.495884 224.440145 
L 163.080262 223.223559 
L 164.411345 220.179205 
L 164.865862 219.347106 
L 165.937222 216.991713 
L 166.359273 216.025413 
L 167.495564 214.089949 
L 168.015011 213.39166 
L 169.086371 211.556804 
L 169.475956 210.943042 
L 169.833076 210.248308 
L 170.384989 209.218489 
L 171.131695 208.565679 
L 171.910865 208.18838 
L 172.267985 207.76722 
L 172.982225 206.305191 
L 173.469207 205.762176 
L 173.664 205.667823 
L 173.923724 205.521955 
L 174.053585 205.413582 
L 174.995084 204.278806 
L 175.352204 204.128959 
L 176.261236 203.126502 
L 176.715753 202.929123 
L 176.910545 202.85807 
L 177.365062 202.849111 
L 177.527389 202.68249 
L 178.176698 201.903768 
L 178.468887 202.010451 
L 179.085731 202.301842 
L 179.897367 201.926232 
L 180.611607 202.02267 
L 181.066124 202.307155 
L 181.358313 202.587495 
L 181.715433 202.709728 
L 181.845295 202.588825 
L 182.23488 202.136633 
L 182.397207 202.256029 
L 182.689396 202.565009 
L 182.851724 202.597656 
L 182.981585 202.632342 
L 183.143913 202.789151 
L 183.533498 203.112939 
L 183.66336 203.200798 
L 183.955549 203.330666 
L 184.410065 203.460008 
L 184.572393 203.40926 
L 184.73472 203.432193 
L 185.059375 203.76894 
L 185.351564 203.991296 
L 185.611287 203.819969 
L 186.1632 203.225687 
L 186.390458 203.567488 
L 186.87744 204.451434 
L 187.267025 204.506 
L 187.461818 204.282785 
L 188.208524 203.168329 
L 188.370851 203.428497 
L 188.598109 204.004278 
L 189.085091 205.743628 
L 189.37728 205.570633 
L 189.799331 204.466551 
L 190.059055 203.915212 
L 190.286313 203.735898 
L 190.318778 203.777869 
L 190.481105 204.146737 
L 190.838225 205.006049 
L 191.033018 205.017424 
L 191.292742 204.344933 
L 191.87712 202.312427 
L 191.942051 202.27015 
L 191.974516 202.315433 
L 192.136844 202.510111 
L 192.299171 202.828746 
L 192.721222 203.558769 
L 192.916015 203.698414 
L 192.94848 203.62939 
L 193.240669 202.805229 
L 193.792582 201.290819 
L 193.954909 201.300486 
L 194.084771 201.35752 
L 194.474356 202.110692 
L 194.506822 202.091934 
L 194.799011 201.979681 
L 195.026269 201.816668 
L 195.772975 200.327172 
L 196.357353 198.602317 
L 196.584611 198.089899 
L 197.104058 196.935512 
L 197.331316 197.146439 
L 197.396247 197.196584 
L 197.428713 197.150202 
L 197.94816 196.189795 
L 198.30528 194.621266 
L 198.987055 192.061196 
L 199.474036 191.469591 
L 199.668829 190.897736 
L 199.766225 190.827257 
L 200.350604 191.661715 
L 200.415535 191.675975 
L 200.448 191.611047 
L 202.038807 187.558039 
L 202.363462 187.458027 
L 202.655651 187.082219 
L 202.915375 186.184483 
L 204.278924 177.970157 
L 204.408785 177.780593 
L 204.700975 177.444119 
L 205.058095 177.337142 
L 205.350284 176.008863 
L 206.064524 171.790385 
L 206.16192 171.466195 
L 206.226851 171.591759 
L 206.356713 171.639729 
L 206.583971 171.829624 
L 206.681367 171.743322 
L 206.973556 170.951494 
L 207.5904 168.132168 
L 207.817658 167.716465 
L 208.109847 167.702104 
L 208.337105 167.827865 
L 208.369571 167.760784 
L 209.311069 165.388613 
L 209.473396 165.278421 
L 209.700655 165.454505 
L 209.73312 165.505235 
L 209.798051 165.423205 
L 209.862982 165.472137 
L 210.252567 166.085834 
L 210.285033 165.966748 
L 210.836945 164.947451 
L 211.258996 164.48175 
L 211.810909 164.358046 
L 212.297891 163.499615 
L 213.174458 160.993112 
L 213.499113 160.940467 
L 213.758836 161.404285 
L 213.791302 161.381827 
L 213.953629 160.536687 
L 214.538007 158.723504 
L 214.570473 158.738929 
L 214.7328 159.010557 
L 214.960058 159.907365 
L 215.057455 159.067134 
L 215.122385 159.385058 
L 215.349644 159.863184 
L 215.44704 159.817523 
L 215.771695 159.34888 
L 215.901556 159.430438 
L 216.421004 160.050401 
L 216.615796 159.601927 
L 216.778124 159.331035 
L 216.810589 159.348533 
L 217.200175 159.587053 
L 217.687156 160.117079 
L 218.076742 160.408104 
L 218.141673 159.810781 
L 218.206604 160.12808 
L 218.531258 161.139274 
L 218.563724 160.929019 
L 218.66112 160.533861 
L 218.693585 160.794662 
L 219.01824 162.184141 
L 219.310429 162.621918 
L 219.570153 162.6946 
L 220.219462 163.341068 
L 220.251927 163.220372 
L 220.284393 163.054675 
L 220.349324 163.177097 
L 220.901236 164.095605 
L 221.420684 165.722912 
L 221.453149 165.620853 
L 221.550545 165.575859 
L 222.362182 168.55185 
L 222.427113 168.52256 
L 222.654371 168.316774 
L 222.94656 168.214893 
L 223.173818 168.653352 
L 223.498473 169.968287 
L 223.888058 171.858837 
L 223.920524 171.826551 
L 223.985455 171.909641 
L 224.245178 172.781737 
L 224.73216 174.851545 
L 224.862022 174.842522 
L 225.024349 174.414997 
L 225.284073 173.962288 
L 225.511331 174.205879 
L 225.933382 175.35999 
L 226.290502 176.286546 
L 227.361862 177.96591 
L 227.783913 178.820789 
L 228.335825 179.497097 
L 229.0176 180.773869 
L 229.666909 181.443408 
L 230.738269 183.354343 
L 231.225251 183.62759 
L 231.614836 184.057635 
L 232.523869 185.831006 
L 232.848524 186.709845 
L 233.335505 187.009055 
L 233.562764 187.344025 
L 233.952349 187.880159 
L 234.114676 187.784462 
L 234.439331 187.272081 
L 234.828916 186.738526 
L 234.861382 186.78948 
L 235.08864 187.816057 
L 235.705484 191.301594 
L 235.737949 191.28657 
L 236.127535 191.210831 
L 236.484655 190.938911 
L 236.776844 191.132717 
L 237.036567 191.8644 
L 237.458618 193.15018 
L 237.653411 193.201969 
L 238.30272 192.906633 
L 238.497513 193.004695 
L 238.692305 193.461888 
L 239.439011 196.341489 
L 239.666269 196.943096 
L 239.990924 196.585292 
L 240.575302 195.811764 
L 240.867491 195.86714 
L 241.062284 196.506935 
L 241.711593 199.370803 
L 241.808989 199.300954 
L 242.036247 198.657798 
L 242.393367 197.927111 
L 242.523229 198.048293 
L 242.718022 198.639751 
L 243.464727 201.983991 
L 243.562124 201.823708 
L 244.049105 200.78709 
L 244.211433 200.940437 
L 244.471156 201.824413 
L 245.023069 204.011984 
L 245.217862 204.194364 
L 245.412655 204.185761 
L 245.932102 203.913818 
L 246.094429 204.060945 
L 246.321687 204.507113 
L 246.8736 205.860676 
L 247.620305 206.575505 
L 248.464407 207.850338 
L 248.594269 208.019172 
L 249.308509 208.827949 
L 250.412335 210.023538 
L 252.619985 212.602985 
L 252.847244 212.866015 
L 253.269295 213.014774 
L 253.626415 213.055776 
L 254.210793 213.799452 
L 254.405585 213.936201 
L 255.249687 214.48463 
L 255.963927 214.941892 
L 256.223651 215.090524 
L 256.840495 215.289636 
L 257.035287 215.179782 
L 257.5872 214.85832 
L 258.139113 215.094152 
L 258.561164 215.155679 
L 258.950749 214.947369 
L 259.437731 214.784343 
L 259.762385 214.739367 
L 260.996073 214.26258 
L 261.353193 214.115942 
L 262.22976 214.087246 
L 262.521949 213.890751 
L 263.528378 213.529096 
L 263.917964 213.266875 
L 265.346444 212.939756 
L 265.541236 212.817339 
L 266.612596 212.989824 
L 267.22944 212.674832 
L 268.592989 212.86129 
L 269.37216 212.643449 
L 270.053935 212.52017 
L 270.898036 212.117591 
L 271.15776 212.060156 
L 271.644742 211.970985 
L 273.722531 211.763544 
L 273.884858 211.642844 
L 273.917324 211.669403 
L 274.177047 211.619689 
L 274.501702 211.598961 
L 275.410735 211.440266 
L 275.540596 211.424027 
L 276.87168 211.104727 
L 277.58592 210.735571 
L 280.248087 208.98063 
L 281.027258 208.277822 
L 281.611636 207.564498 
L 282.325876 206.72081 
L 283.429702 205.261252 
L 284.046545 204.272484 
L 285.410095 202.059891 
L 285.604887 201.791677 
L 286.643782 199.661142 
L 287.000902 198.93451 
L 288.981295 194.559727 
L 289.565673 194.223633 
L 291.026618 190.922115 
L 292.747287 185.880829 
L 293.201804 184.825224 
L 293.948509 182.273485 
L 294.500422 180.339466 
L 295.474385 178.579486 
L 296.740538 174.643396 
L 297.065193 174.055322 
L 297.519709 172.243495 
L 298.201484 169.43439 
L 298.720931 168.19595 
L 299.078051 167.309449 
L 299.662429 164.986648 
L 300.571462 161.082741 
L 301.253236 158.287623 
L 301.902545 154.959154 
L 302.649251 152.288316 
L 303.395956 147.888773 
L 303.915404 145.653065 
L 304.110196 144.777255 
L 305.116625 139.64638 
L 305.765935 135.773254 
L 306.252916 133.501376 
L 307.032087 129.250183 
L 307.519069 126.55426 
L 308.29824 123.15186 
L 310.08384 113.78937 
L 310.408495 112.841561 
L 310.700684 110.730496 
L 311.187665 107.612167 
L 311.804509 104.938146 
L 312.9408 99.998255 
L 313.330385 97.805588 
L 313.460247 97.449526 
L 313.882298 95.741194 
L 314.888727 91.10834 
L 315.635433 88.250358 
L 317.096378 81.437978 
L 317.648291 79.297326 
L 318.687185 74.391322 
L 319.076771 73.575898 
L 319.563753 73.21852 
L 319.920873 72.076581 
L 321.024698 67.935028 
L 321.381818 67.501398 
L 321.576611 67.354624 
L 322.485644 65.376275 
L 322.745367 64.955161 
L 323.459607 63.186736 
L 325.180276 59.482952 
L 325.634793 59.158221 
L 325.959447 59.333154 
L 326.219171 59.038896 
L 327.258065 56.83643 
L 327.712582 56.245552 
L 328.037236 55.671754 
L 328.491753 55.395175 
L 328.881338 55.421211 
L 329.433251 54.64393 
L 329.72544 54.714896 
L 330.017629 54.68497 
L 330.569542 54.186428 
L 330.861731 53.655915 
L 331.024058 53.568 
L 331.251316 53.864875 
L 332.874589 58.81501 
L 333.264175 59.359727 
L 333.426502 59.791276 
L 333.816087 60.888265 
L 334.108276 61.411124 
L 334.497862 62.530249 
L 335.536756 66.694967 
L 336.250996 68.606315 
L 336.997702 71.985145 
L 337.354822 72.590457 
L 337.517149 72.8243 
L 337.776873 73.72894 
L 338.263855 76.029678 
L 338.880698 79.434094 
L 339.400145 82.286601 
L 339.822196 84.091888 
L 340.08192 84.596823 
L 340.374109 84.992443 
L 340.763695 87.005362 
L 341.737658 92.365563 
L 342.094778 93.601971 
L 342.841484 97.137939 
L 343.620655 101.886451 
L 344.269964 104.657709 
L 344.529687 105.743458 
L 346.575011 118.816686 
L 347.029527 121.023878 
L 347.613905 125.127425 
L 348.133353 128.789779 
L 348.620335 131.118717 
L 349.594298 137.466005 
L 350.79552 143.57167 
L 351.931811 152.310098 
L 353.068102 158.061757 
L 353.749876 161.908679 
L 354.431651 163.586878 
L 354.788771 164.275139 
L 355.08096 165.884327 
L 355.600407 169.828032 
L 356.314647 175.59575 
L 356.347113 175.57706 
L 356.444509 175.313851 
L 357.321076 170.870663 
L 357.386007 170.983644 
L 357.548335 171.994812 
L 358.587229 180.748924 
L 359.139142 183.659259 
L 359.626124 184.319085 
L 359.918313 184.481624 
L 360.210502 184.729833 
L 360.405295 185.158909 
L 361.281862 188.271064 
L 361.574051 188.872239 
L 362.061033 189.610965 
L 362.450618 190.325389 
L 363.164858 190.963908 
L 363.619375 191.769385 
L 363.846633 191.888775 
L 364.041425 191.637284 
L 364.917993 190.658126 
L 365.047855 190.90469 
L 365.599767 192.554727 
L 365.891956 192.694456 
L 366.054284 192.562651 
L 366.736058 191.285169 
L 366.995782 191.222808 
L 367.22304 191.09116 
L 367.417833 190.77841 
L 367.774953 190.349343 
L 368.002211 190.226435 
L 368.2944 189.697065 
L 368.716451 189.059813 
L 369.170967 188.515987 
L 369.463156 188.813136 
L 369.690415 188.872294 
L 369.917673 188.610898 
L 370.339724 187.605988 
L 370.826705 186.30518 
L 371.281222 185.503677 
L 371.703273 184.921911 
L 372.027927 184.016487 
L 372.482444 182.781345 
L 374.527767 179.130632 
L 377.644451 172.374314 
L 378.813207 170.891459 
L 379.884567 168.619123 
L 381.929891 165.178573 
L 383.260975 162.147988 
L 383.65056 161.631088 
L 384.170007 160.873637 
L 384.559593 159.980799 
L 385.371229 157.843082 
L 386.053004 156.676415 
L 387.513949 153.006431 
L 388.195724 151.636159 
L 389.656669 147.358388 
L 390.305978 145.805196 
L 391.052684 143.53248 
L 391.669527 141.648793 
L 392.286371 140.255527 
L 393.000611 137.9793 
L 393.552524 136.40563 
L 394.169367 135.100309 
L 394.656349 133.181236 
L 395.208262 131.067539 
L 396.182225 128.71649 
L 396.831535 126.281817 
L 397.643171 124.197497 
L 398.260015 122.201982 
L 398.487273 121.724248 
L 398.487273 121.724248 
" style="fill:none;stroke:#1f77b4;stroke-linecap:square;stroke-width:1.5;"/>
   </g>
   <g id="line2d_16">
    <path clip-path="url(#p9bec06967e)" d="M 73.832727 295.281104 
L 73.865193 295.48587 
L 74.02752 281.617444 
L 74.319709 259.387112 
L 74.546967 294.480872 
L 74.579433 293.01825 
L 74.644364 284.53764 
L 74.676829 289.848951 
L 74.806691 294.2099 
L 74.871622 293.842208 
L 75.066415 289.468025 
L 75.780655 272.154646 
L 77.890909 235.614512 
L 78.605149 229.821921 
L 79.157062 222.336145 
L 79.903767 213.916078 
L 80.358284 211.192589 
L 81.104989 207.780183 
L 82.078953 202.689339 
L 82.858124 200.235011 
L 83.182778 199.546104 
L 83.637295 198.793055 
L 84.74112 196.735699 
L 85.033309 196.72303 
L 85.260567 197.115903 
L 85.650153 197.781683 
L 85.909876 197.697568 
L 86.916305 197.706085 
L 87.338356 197.932667 
L 87.565615 197.890724 
L 87.727942 197.931754 
L 88.247389 197.661262 
L 89.02656 197.405426 
L 89.188887 197.383258 
L 89.675869 197.520259 
L 90.065455 197.140613 
L 90.325178 196.829028 
L 90.552436 196.495748 
L 91.136815 196.759179 
L 91.461469 197.076786 
L 91.818589 197.463862 
L 92.045847 197.345046 
L 92.760087 196.73941 
L 93.052276 196.038613 
L 93.409396 195.395853 
L 93.636655 195.290822 
L 94.285964 195.427902 
L 95.194996 195.635366 
L 95.422255 195.499732 
L 95.649513 195.256888 
L 96.071564 194.878149 
L 96.558545 194.457747 
L 96.8832 194.345001 
L 97.337716 194.153527 
L 97.889629 194.070107 
L 98.084422 194.075493 
L 98.376611 193.849251 
L 99.058385 193.259442 
L 99.285644 193.346665 
L 99.318109 193.287999 
L 99.350575 193.402682 
L 99.480436 193.508478 
L 100.032349 194.094854 
L 100.162211 194.041439 
L 100.584262 194.125133 
L 100.843985 194.506794 
L 101.266036 195.01909 
L 102.142604 195.979639 
L 102.726982 196.359964 
L 103.084102 196.703472 
L 103.66848 197.019069 
L 103.960669 196.90873 
L 104.447651 196.562878 
L 104.609978 196.615658 
L 105.583942 197.480209 
L 105.876131 197.573598 
L 106.590371 197.554137 
L 106.752698 197.560866 
L 107.109818 197.926342 
L 107.369542 198.388389 
L 107.661731 198.814352 
L 107.694196 198.790825 
L 107.726662 198.883263 
L 107.986385 199.251832 
L 108.538298 199.740962 
L 108.765556 199.640213 
L 109.122676 199.399552 
L 109.414865 199.610645 
L 109.934313 200.17686 
L 110.226502 200.472547 
L 112.109498 200.682155 
L 112.336756 200.766361 
L 112.564015 200.367371 
L 112.856204 199.965642 
L 113.408116 199.525167 
L 113.830167 199.510936 
L 113.862633 199.375879 
L 113.927564 199.485939 
L 114.609338 200.7213 
L 114.7392 200.848893 
L 114.998924 200.797327 
L 115.258647 200.240561 
L 115.745629 199.095868 
L 115.907956 198.967434 
L 116.135215 199.243336 
L 116.687127 200.232863 
L 116.849455 200.20323 
L 117.044247 200.013256 
L 117.466298 199.400222 
L 117.823418 199.20922 
L 118.018211 199.166209 
L 118.3104 199.249734 
L 118.505193 199.058734 
L 119.057105 198.445105 
L 119.771345 198.112774 
L 120.128465 197.158838 
L 120.420655 196.408189 
L 121.16736 195.668705 
L 121.52448 195.989925 
L 121.784204 195.939317 
L 121.978996 195.887554 
L 122.303651 195.591387 
L 123.342545 194.14137 
L 123.602269 194.201013 
L 123.959389 194.742469 
L 124.056785 194.79228 
L 124.089251 194.92226 
L 124.186647 194.86111 
L 124.348975 194.864406 
L 124.478836 194.96258 
L 124.511302 194.915346 
L 124.641164 194.971006 
L 124.965818 195.174724 
L 125.355404 195.049938 
L 125.842385 194.658656 
L 125.874851 194.701652 
L 126.134575 194.87767 
L 126.329367 194.911287 
L 126.686487 195.227814 
L 126.718953 195.303497 
L 126.783884 195.246137 
L 126.946211 195.340979 
L 127.173469 195.603959 
L 127.433193 195.853393 
L 127.887709 195.855664 
L 128.439622 196.387063 
L 128.699345 196.394358 
L 129.088931 196.133241 
L 129.251258 195.875227 
L 129.868102 194.690937 
L 130.484945 195.164925 
L 130.712204 195.138057 
L 131.134255 194.521193 
L 131.16672 194.556967 
L 131.393978 194.740981 
L 131.783564 195.016902 
L 132.5952 194.54194 
L 133.341905 195.157874 
L 134.121076 195.005248 
L 134.73792 194.298601 
L 134.997644 194.249813 
L 135.322298 194.470781 
L 135.45216 194.601134 
L 135.484625 194.569318 
L 135.776815 194.491112 
L 135.80928 194.724243 
L 135.874211 194.448413 
L 135.906676 194.587303 
L 135.939142 194.383569 
L 136.069004 194.013821 
L 136.101469 194.206412 
L 136.1664 193.929121 
L 136.198865 194.028392 
L 136.231331 193.853197 
L 136.296262 193.696594 
L 136.52352 193.204017 
L 136.815709 192.852662 
L 137.59488 192.350915 
L 138.276655 192.681506 
L 138.731171 193.202025 
L 139.02336 193.066486 
L 139.802531 191.977796 
L 139.964858 192.037302 
L 140.257047 192.350396 
L 140.549236 192.511728 
L 140.744029 192.436977 
L 141.16608 192.518424 
L 141.328407 192.546244 
L 141.782924 192.663268 
L 142.204975 192.791323 
L 142.367302 192.845727 
L 142.724422 193.340415 
L 142.756887 193.202213 
L 143.016611 192.762635 
L 143.178938 192.773014 
L 143.406196 192.874184 
L 143.568524 192.8547 
L 143.828247 192.493301 
L 143.860713 192.299283 
L 143.925644 192.408401 
L 144.510022 193.260718 
L 144.964538 193.877419 
L 145.191796 193.964591 
L 145.224262 194.110933 
L 145.256727 193.964284 
L 145.419055 193.618565 
L 145.45152 193.843987 
L 145.516451 193.625796 
L 145.841105 193.074342 
L 146.16576 192.784389 
L 147.074793 194.639667 
L 147.366982 194.676941 
L 147.464378 194.506045 
L 147.496844 194.703533 
L 147.561775 194.548164 
L 147.691636 194.585906 
L 148.178618 195.10673 
L 148.535738 195.640016 
L 148.990255 196.125352 
L 149.282444 196.570074 
L 149.314909 196.549335 
L 149.444771 196.281065 
L 149.607098 196.480753 
L 149.639564 196.388111 
L 149.704495 196.475153 
L 149.964218 196.71316 
L 150.09408 196.760474 
L 151.230371 198.072417 
L 151.52256 198.727725 
L 151.944611 199.862772 
L 152.204335 200.092731 
L 152.2368 199.9822 
L 152.301731 200.096081 
L 152.334196 200.065404 
L 152.366662 200.317829 
L 152.431593 200.085027 
L 152.496524 200.098524 
L 152.528989 199.95923 
L 152.59392 200.100486 
L 152.821178 200.356822 
L 152.918575 200.391107 
L 153.145833 200.476258 
L 153.275695 200.602226 
L 153.567884 201.099614 
L 154.249658 202.721618 
L 154.314589 202.778048 
L 154.347055 203.032696 
L 154.444451 202.965737 
L 154.606778 203.389157 
L 154.834036 203.702036 
L 154.866502 203.903409 
L 154.931433 203.625469 
L 155.223622 203.143719 
L 155.256087 203.248022 
L 155.353484 203.191186 
L 155.678138 202.999026 
L 155.743069 202.762327 
L 155.808 202.887388 
L 156.359913 203.850754 
L 156.619636 204.446234 
L 156.976756 205.283259 
L 157.431273 206.424181 
L 157.5936 206.253601 
L 158.145513 206.353111 
L 158.372771 206.764944 
L 159.02208 207.920316 
L 159.054545 207.782749 
L 159.119476 207.968029 
L 159.963578 210.534741 
L 160.385629 211.161112 
L 161.099869 212.095559 
L 161.716713 213.115174 
L 162.171229 215.131783 
L 162.528349 216.264084 
L 162.885469 216.759018 
L 163.177658 216.74776 
L 163.437382 216.641049 
L 164.02176 217.705691 
L 164.443811 218.126297 
L 165.028189 219.063241 
L 165.580102 220.310255 
L 166.067084 220.705451 
L 166.099549 220.63413 
L 166.229411 220.503772 
L 166.261876 220.559806 
L 166.326807 220.416274 
L 166.424204 220.178727 
L 166.489135 220.212645 
L 166.716393 220.281268 
L 166.943651 220.68309 
L 167.463098 221.584872 
L 167.852684 222.077377 
L 168.209804 222.820531 
L 168.696785 223.696975 
L 169.053905 223.99106 
L 169.248698 224.107505 
L 170.027869 224.915843 
L 170.547316 225.103164 
L 170.969367 225.336059 
L 171.229091 225.700533 
L 172.819898 228.554423 
L 173.371811 228.929815 
L 173.599069 228.714396 
L 173.858793 228.351477 
L 174.02112 228.289257 
L 174.215913 228.420473 
L 174.767825 228.998493 
L 176.553425 230.185817 
L 177.170269 230.47366 
L 178.111767 231.124545 
L 178.923404 230.855629 
L 180.09216 231.90432 
L 180.351884 231.885787 
L 180.838865 231.835725 
L 181.131055 231.868585 
L 181.780364 232.23938 
L 182.202415 232.586543 
L 182.527069 232.627591 
L 182.819258 232.603559 
L 183.338705 232.732043 
L 183.760756 232.859177 
L 185.09184 233.409196 
L 186.390458 233.441735 
L 186.812509 233.33528 
L 187.104698 233.407775 
L 187.656611 233.778397 
L 188.013731 233.705467 
L 188.760436 233.271473 
L 189.182487 233.330887 
L 190.026589 233.811215 
L 190.383709 233.621812 
L 190.968087 233.337304 
L 191.649862 233.139219 
L 192.786153 232.209066 
L 193.695185 232.050386 
L 194.831476 231.724766 
L 195.967767 231.388781 
L 196.811869 230.761399 
L 197.363782 230.455076 
L 198.240349 229.960701 
L 198.467607 229.772973 
L 199.506502 228.797713 
L 199.831156 228.615783 
L 201.551825 227.943261 
L 203.272495 226.596699 
L 204.37632 225.339799 
L 205.123025 224.803185 
L 205.967127 223.821771 
L 206.389178 223.661211 
L 206.648902 223.463655 
L 207.103418 222.630756 
L 207.557935 221.817871 
L 207.752727 221.702345 
L 208.077382 221.741049 
L 208.402036 221.71458 
L 209.895447 220.086169 
L 210.317498 220.06318 
L 211.940771 218.881282 
L 212.492684 218.090696 
L 212.849804 217.456423 
L 213.434182 216.746438 
L 213.856233 216.41147 
L 214.830196 215.083544 
L 214.992524 215.10772 
L 215.154851 215.102721 
L 215.414575 214.752112 
L 215.869091 213.957243 
L 216.031418 213.993865 
L 216.226211 213.932649 
L 216.453469 213.753041 
L 216.907985 213.340807 
L 217.23264 213.061311 
L 218.109207 212.082165 
L 218.368931 211.88832 
L 218.596189 211.840548 
L 218.823447 211.813347 
L 219.894807 210.965681 
L 220.0896 210.947085 
L 220.414255 210.764309 
L 220.998633 210.007264 
L 221.615476 210.242321 
L 221.810269 210.0723 
L 222.362182 209.551625 
L 222.914095 208.732335 
L 223.173818 208.665302 
L 223.563404 208.939567 
L 224.667229 209.637899 
L 224.894487 209.396662 
L 225.316538 208.840737 
L 225.868451 208.492698 
L 226.258036 208.173955 
L 226.907345 207.862784 
L 227.264465 207.834331 
L 227.978705 207.786404 
L 228.205964 207.625477 
L 228.595549 207.567413 
L 228.822807 207.547782 
L 229.050065 207.500126 
L 229.179927 207.411071 
L 229.472116 207.398924 
L 229.73184 207.487068 
L 229.926633 207.548294 
L 230.08896 207.485124 
L 230.316218 207.517788 
L 230.478545 207.52485 
L 230.705804 207.407794 
L 230.997993 207.124777 
L 231.322647 206.792164 
L 231.971956 206.370878 
L 232.523869 206.514627 
L 232.848524 206.897072 
L 233.919884 207.083934 
L 234.341935 206.332475 
L 234.926313 205.333311 
L 235.186036 205.437896 
L 235.575622 205.878622 
L 235.900276 205.863853 
L 236.127535 205.892861 
L 236.549585 205.443393 
L 236.87424 205.014472 
L 237.23136 204.89764 
L 237.523549 204.929859 
L 237.685876 204.884155 
L 237.848204 204.904001 
L 238.107927 204.914247 
L 239.114356 204.161373 
L 239.37408 204.269431 
L 239.568873 204.349988 
L 240.08832 204.061771 
L 241.062284 202.809509 
L 241.679127 203.138642 
L 241.808989 203.015682 
L 242.393367 202.141116 
L 242.815418 201.890439 
L 243.042676 201.980213 
L 243.594589 201.341859 
L 243.789382 201.169721 
L 244.698415 200.907222 
L 244.958138 200.516957 
L 245.964567 199.01244 
L 246.451549 198.419452 
L 246.743738 198.308975 
L 247.295651 197.468893 
L 247.490444 197.130464 
L 247.652771 197.035868 
L 247.912495 196.944649 
L 248.561804 196.240411 
L 249.600698 194.546102 
L 249.957818 193.941194 
L 250.185076 193.427313 
L 250.412335 192.855284 
L 250.736989 192.374198 
L 251.191505 191.961165 
L 251.775884 190.706965 
L 252.425193 189.65813 
L 252.619985 189.619354 
L 253.593949 187.334175 
L 253.886138 186.676661 
L 254.016 186.45218 
L 254.308189 185.712033 
L 254.795171 184.56589 
L 255.866531 181.567097 
L 256.15872 181.292557 
L 256.418444 180.999646 
L 256.710633 180.570002 
L 256.937891 179.51906 
L 257.554735 176.586266 
L 257.749527 176.605036 
L 258.041716 176.871261 
L 258.171578 176.720004 
L 258.723491 175.141617 
L 259.048145 174.270359 
L 259.470196 173.024388 
L 260.281833 170.369807 
L 260.411695 169.890257 
L 260.866211 168.460366 
L 261.288262 168.044461 
L 261.612916 167.594813 
L 261.840175 166.950795 
L 262.619345 164.152105 
L 263.30112 161.998044 
L 263.430982 161.997833 
L 263.593309 162.288195 
L 263.820567 162.512545 
L 263.982895 162.211343 
L 264.534807 160.028213 
L 265.054255 157.869476 
L 265.378909 157.287 
L 265.638633 157.444198 
L 266.093149 155.995785 
L 266.482735 154.041457 
L 266.774924 152.695304 
L 266.839855 152.902779 
L 267.067113 153.670819 
L 267.132044 153.823927 
L 267.58656 155.576293 
L 267.911215 154.906685 
L 268.008611 154.501713 
L 268.528058 151.723631 
L 268.885178 150.677227 
L 269.112436 150.440941 
L 269.307229 150.512117 
L 269.534487 149.998313 
L 270.216262 147.175761 
L 270.346124 146.838682 
L 270.411055 146.901069 
L 270.898036 147.814977 
L 271.060364 147.626122 
L 271.125295 147.544846 
L 271.222691 147.193841 
L 271.547345 146.168374 
L 271.612276 146.042809 
L 272.001862 144.895695 
L 272.099258 144.853553 
L 272.326516 144.686164 
L 272.553775 144.731218 
L 272.781033 144.492085 
L 272.94336 144.225895 
L 273.008291 144.263972 
L 273.170618 143.956842 
L 273.462807 143.263857 
L 273.884858 142.519669 
L 274.112116 142.645761 
L 274.339375 141.831006 
L 274.631564 140.972561 
L 274.826356 141.13393 
L 274.891287 141.513789 
L 275.08608 143.209247 
L 275.378269 144.155802 
L 275.4432 144.24558 
L 275.508131 144.180639 
L 275.605527 144.11838 
L 275.670458 144.043099 
L 276.060044 142.836954 
L 276.319767 142.096354 
L 276.482095 142.120566 
L 276.839215 142.137032 
L 277.2288 142.220126 
L 277.391127 142.286828 
L 277.780713 142.113196 
L 277.94304 142.078567 
L 278.235229 142.499737 
L 278.267695 142.476802 
L 278.332625 142.428584 
L 278.592349 141.827035 
L 278.949469 140.968062 
L 278.981935 140.994401 
L 279.111796 141.219753 
L 279.631244 142.779506 
L 279.663709 142.767649 
L 279.890967 142.153027 
L 280.118225 141.718567 
L 280.44288 141.474788 
L 280.767535 141.167938 
L 281.51424 141.182597 
L 281.806429 141.759435 
L 282.22848 142.253423 
L 282.488204 142.379572 
L 282.812858 142.919987 
L 283.040116 142.994314 
L 283.202444 143.026152 
L 283.332305 143.163509 
L 283.754356 143.716023 
L 283.949149 143.913823 
L 284.176407 143.726712 
L 284.501062 143.328318 
L 284.695855 143.391685 
L 284.825716 143.634911 
L 285.247767 144.87261 
L 285.539956 145.906754 
L 285.734749 145.767064 
L 285.994473 145.435578 
L 286.254196 145.693351 
L 286.351593 145.90706 
L 286.741178 147.569226 
L 286.903505 147.701333 
L 287.065833 147.497301 
L 287.422953 147.093988 
L 287.9424 147.443029 
L 288.072262 147.427977 
L 288.494313 147.991132 
L 288.559244 147.911097 
L 288.721571 147.924876 
L 288.883898 148.332372 
L 289.273484 150.797285 
L 289.500742 151.57247 
L 289.663069 151.501787 
L 289.825396 151.303632 
L 289.890327 151.351896 
L 289.987724 151.482958 
L 290.052655 151.432343 
L 290.247447 151.116287 
L 290.44224 150.830691 
L 290.572102 150.92061 
L 291.383738 152.282777 
L 291.546065 152.650154 
L 292.033047 152.433843 
L 292.422633 152.302467 
L 292.747287 152.830193 
L 293.007011 153.65609 
L 293.104407 153.866624 
L 293.2992 153.978998 
L 293.493993 154.025609 
L 293.65632 154.21295 
L 293.883578 154.233817 
L 294.078371 154.008228 
L 294.305629 153.91367 
L 294.500422 153.9643 
L 294.857542 154.509122 
L 295.376989 155.972474 
L 295.669178 156.043358 
L 295.961367 155.583876 
L 296.15616 155.557881 
L 296.350953 156.076694 
L 297.097658 159.487788 
L 297.259985 159.562509 
L 297.292451 159.51555 
L 297.422313 159.053254 
L 298.169018 156.295308 
L 298.201484 156.310369 
L 298.29888 156.387678 
L 298.591069 157.57544 
L 299.565033 162.650473 
L 299.662429 162.489432 
L 299.889687 161.570008 
L 300.279273 159.978861 
L 300.636393 160.496049 
L 301.285702 163.015165 
L 301.350633 162.997165 
L 301.448029 162.955497 
L 301.805149 162.53127 
L 301.837615 162.554997 
L 301.999942 162.882611 
L 302.2272 163.65135 
L 302.454458 164.049096 
L 302.616785 164.012778 
L 302.844044 163.587545 
L 303.103767 163.150794 
L 303.493353 162.720582 
L 303.590749 162.858634 
L 303.882938 163.620729 
L 304.499782 165.364239 
L 304.856902 166.026353 
L 305.116625 165.831004 
L 305.538676 164.885774 
L 305.863331 164.996486 
L 306.123055 165.40096 
L 306.967156 167.427988 
L 307.194415 167.469482 
L 307.454138 168.028851 
L 307.681396 168.846499 
L 308.038516 170.252689 
L 308.557964 170.8189 
L 308.622895 170.814825 
L 308.752756 170.521286 
L 308.785222 170.592244 
L 308.915084 170.693872 
L 308.947549 170.584195 
L 309.01248 170.712568 
L 309.207273 170.891726 
L 309.239738 170.80316 
L 309.304669 170.930854 
L 309.72672 172.084521 
L 310.08384 173.674679 
L 310.473425 175.356785 
L 310.635753 175.120717 
L 311.122735 173.874992 
L 311.1552 173.94636 
L 311.577251 175.590955 
L 311.966836 177.454934 
L 312.453818 178.878757 
L 312.616145 178.940963 
L 312.778473 178.879376 
L 313.070662 178.170646 
L 313.232989 178.315557 
L 313.590109 179.766532 
L 313.947229 180.68482 
L 314.077091 180.702078 
L 314.564073 181.391113 
L 315.765295 184.262239 
L 315.927622 184.220121 
L 316.252276 183.893118 
L 316.447069 183.979032 
L 316.609396 184.298269 
L 317.615825 186.941886 
L 317.713222 187.025253 
L 317.745687 186.990459 
L 318.037876 186.890698 
L 318.232669 187.049744 
L 318.524858 187.419326 
L 319.076771 188.609739 
L 319.563753 189.700776 
L 320.148131 190.011625 
L 320.375389 190.194121 
L 320.862371 190.678147 
L 321.836335 191.950232 
L 322.22592 192.179463 
L 322.712902 192.756951 
L 322.972625 192.742136 
L 323.232349 192.829543 
L 323.6544 192.997532 
L 324.238778 192.81259 
L 324.855622 193.403281 
L 325.699724 194.077247 
L 326.024378 194.347616 
L 326.186705 194.27287 
L 326.608756 193.718554 
L 326.900945 193.535955 
L 327.193135 193.586033 
L 327.452858 193.814692 
L 327.809978 193.967026 
L 328.037236 193.806203 
L 328.459287 193.587867 
L 328.913804 193.848564 
L 329.433251 193.422479 
L 329.692975 193.454205 
L 329.952698 193.503481 
L 330.179956 193.394144 
L 330.959127 192.407489 
L 331.251316 191.915934 
L 331.575971 191.415501 
L 332.647331 191.14071 
L 332.809658 191.099795 
L 333.556364 190.398587 
L 333.881018 190.227714 
L 334.238138 189.77143 
L 334.530327 189.597636 
L 334.952378 189.575974 
L 335.179636 189.232329 
L 336.186065 187.580059 
L 336.835375 187.417162 
L 337.22496 186.65934 
L 337.874269 185.492021 
L 339.237818 183.825096 
L 339.627404 183.583832 
L 339.822196 183.349903 
L 340.049455 182.829838 
L 340.568902 181.457131 
L 341.770124 179.876135 
L 343.068742 177.282711 
L 343.685585 176.271428 
L 344.399825 174.664264 
L 344.692015 174.135911 
L 345.406255 173.404792 
L 346.315287 171.681948 
L 347.58144 169.145997 
L 347.743767 168.988839 
L 348.100887 168.456723 
L 348.587869 167.506498 
L 348.977455 166.939136 
L 350.308538 164.129205 
L 350.633193 163.425071 
L 350.925382 163.26617 
L 351.120175 163.138268 
L 351.704553 162.553106 
L 352.548655 160.786876 
L 353.262895 159.851627 
L 354.36672 157.068559 
L 355.113425 155.891406 
L 355.860131 155.185996 
L 356.054924 154.955743 
L 356.347113 153.974902 
L 356.931491 151.984858 
L 357.22368 151.555751 
L 357.418473 151.56375 
L 357.678196 151.598733 
L 357.905455 151.207575 
L 358.522298 150.035622 
L 358.976815 149.451869 
L 359.269004 148.229343 
L 359.626124 147.065993 
L 360.470225 145.157168 
L 361.022138 144.044611 
L 361.996102 142.38613 
L 362.061033 142.369249 
L 362.418153 141.314875 
L 363.132393 138.742737 
L 364.36608 135.450865 
L 364.853062 133.935815 
L 365.015389 133.789056 
L 365.047855 133.821352 
L 365.145251 133.953397 
L 365.177716 133.907969 
L 365.469905 133.828884 
L 365.664698 133.369261 
L 366.086749 131.830547 
L 366.443869 130.446701 
L 367.742487 126.387749 
L 368.197004 125.776668 
L 368.65152 124.48996 
L 368.846313 123.969896 
L 369.203433 123.098149 
L 369.528087 122.645282 
L 369.820276 121.655585 
L 371.086429 116.048787 
L 371.281222 115.982677 
L 371.50848 115.959221 
L 371.735738 115.512342 
L 372.027927 114.411221 
L 372.417513 112.984589 
L 372.904495 112.17823 
L 374.073251 108.698993 
L 374.268044 108.268368 
L 374.755025 106.982408 
L 375.728989 103.096832 
L 375.923782 102.683317 
L 376.962676 100.014091 
L 377.449658 98.391555 
L 378.034036 97.431083 
L 378.228829 97.010062 
L 378.423622 96.825068 
L 378.618415 96.3668 
L 379.137862 94.938653 
L 379.332655 94.127563 
L 380.176756 90.927549 
L 380.43648 90.544563 
L 380.890996 89.51644 
L 381.183185 88.828896 
L 381.345513 88.701684 
L 381.605236 88.448667 
L 381.735098 88.33969 
L 382.287011 87.056688 
L 382.481804 86.194458 
L 382.93632 84.244068 
L 383.488233 82.621084 
L 383.585629 82.668557 
L 383.975215 82.38478 
L 384.072611 82.492915 
L 384.397265 83.276849 
L 384.462196 83.282515 
L 384.494662 83.239286 
L 384.689455 83.114401 
L 385.371229 82.718503 
L 385.468625 82.778001 
L 385.695884 83.046473 
L 385.760815 82.935276 
L 386.604916 81.251458 
L 386.637382 81.285627 
L 386.897105 81.274888 
L 387.189295 81.068095 
L 387.351622 81.143642 
L 387.481484 81.399029 
L 388.000931 82.899356 
L 388.228189 83.348352 
L 388.455447 83.521556 
L 388.520378 83.414235 
L 388.585309 83.344146 
L 388.65024 83.407152 
L 388.909964 83.592395 
L 388.942429 83.551628 
L 388.974895 83.489675 
L 389.039825 83.571528 
L 389.559273 84.110981 
L 389.851462 84.910345 
L 390.07872 85.198593 
L 390.273513 85.443599 
L 390.565702 86.679758 
L 390.760495 87.446345 
L 390.79296 87.42071 
L 390.955287 87.511367 
L 391.182545 87.877357 
L 391.896785 90.042909 
L 393.098007 95.381273 
L 393.487593 97.034147 
L 394.591418 103.829067 
L 394.851142 104.676467 
L 395.110865 105.805783 
L 395.467985 108.816538 
L 395.954967 112.797964 
L 396.279622 113.541304 
L 396.377018 113.616793 
L 396.571811 114.19411 
L 396.799069 116.034719 
L 397.57824 121.801273 
L 398.260015 127.316681 
L 398.487273 129.845184 
L 398.487273 129.845184 
" style="fill:none;stroke:#ff7f0e;stroke-linecap:square;stroke-width:1.5;"/>
   </g>
   <g id="line2d_17">
    <path clip-path="url(#p9bec06967e)" d="M 73.832727 295.281104 
L 73.865193 295.488 
L 74.02752 282.362103 
L 74.319709 265.416084 
L 74.546967 293.272523 
L 74.579433 291.713345 
L 74.676829 279.637647 
L 74.74176 281.887031 
L 74.904087 287.09477 
L 75.09888 288.772994 
L 75.163811 288.503074 
L 75.391069 285.85668 
L 76.332567 271.492584 
L 77.468858 254.862676 
L 78.67008 240.985738 
L 79.806371 229.957469 
L 80.682938 223.494056 
L 81.52704 218.862566 
L 82.24128 216.087824 
L 82.858124 214.487721 
L 83.572364 213.251264 
L 84.221673 212.519958 
L 84.708655 212.2732 
L 84.935913 212.113535 
L 85.195636 212.058648 
L 85.585222 212.249214 
L 86.1696 212.82044 
L 87.046167 214.011404 
L 87.987665 215.69194 
L 88.117527 216.094516 
L 88.31232 216.598012 
L 88.831767 217.381553 
L 89.513542 218.852001 
L 94.545687 230.427343 
L 96.136495 233.425214 
L 98.474007 237.287471 
L 101.785484 242.921657 
L 104.545047 248.05235 
L 107.109818 253.34778 
L 111.590051 262.62856 
L 113.473047 266.068707 
L 114.998924 268.377545 
L 116.459869 270.204343 
L 117.531229 271.204732 
L 118.472727 271.797711 
L 119.284364 272.058709 
L 119.998604 272.06622 
L 120.712844 271.838496 
L 121.492015 271.340122 
L 122.401047 270.475917 
L 123.017891 269.747194 
L 123.245149 270.546702 
L 124.316509 272.854619 
L 124.543767 273.185833 
L 124.576233 273.09308 
L 124.73856 272.948343 
L 125.09568 273.167322 
L 125.777455 273.541813 
L 126.556625 273.721148 
L 127.335796 273.677586 
L 128.212364 273.405615 
L 129.348655 272.789019 
L 130.225222 272.366694 
L 130.971927 272.079132 
L 131.945891 271.361904 
L 134.543127 269.171109 
L 136.361193 267.318335 
L 139.575273 264.06042 
L 142.075113 261.820295 
L 143.178938 261.009662 
L 148.113687 257.886768 
L 150.029149 256.417304 
L 150.4512 256.099929 
L 152.139404 254.798433 
L 154.054865 253.518678 
L 156.846895 252.056974 
L 159.184407 251.135436 
L 160.742749 250.803125 
L 161.067404 250.749151 
L 161.619316 250.629951 
L 161.943971 250.578344 
L 162.495884 250.456808 
L 162.820538 250.40481 
L 163.372451 250.284049 
L 163.697105 250.232923 
L 164.249018 250.115704 
L 164.573673 250.065565 
L 165.158051 249.953956 
L 165.612567 249.879027 
L 166.391738 249.736402 
L 168.047476 249.438458 
L 170.579782 248.860144 
L 176.391098 247.441498 
L 179.442851 246.745726 
L 191.974516 244.125576 
L 197.558575 242.949323 
L 205.058095 241.643805 
L 211.583651 240.589716 
L 211.713513 240.8949 
L 211.843375 240.914855 
L 212.005702 240.692502 
L 212.038167 240.8807 
L 212.070633 240.681076 
L 212.103098 240.835432 
L 212.200495 240.600049 
L 212.23296 240.761287 
L 212.265425 240.562159 
L 212.297891 240.724955 
L 212.395287 240.491462 
L 212.427753 240.652595 
L 212.460218 240.4576 
L 212.492684 240.617353 
L 212.59008 240.39241 
L 212.622545 240.54916 
L 212.655011 240.363005 
L 212.687476 240.518695 
L 212.784873 240.310572 
L 212.817338 240.464877 
L 212.849804 240.28764 
L 212.882269 240.441527 
L 212.979665 240.247828 
L 213.012131 240.402228 
L 213.044596 240.230853 
L 213.077062 240.386399 
L 213.174458 240.202253 
L 213.271855 240.353251 
L 213.369251 240.171269 
L 213.466647 240.336734 
L 213.564044 240.148979 
L 213.66144 240.331216 
L 213.758836 240.131753 
L 213.856233 240.33194 
L 213.953629 240.117406 
L 214.051025 240.325827 
L 214.148422 240.094585 
L 214.213353 240.0847 
L 214.245818 240.309464 
L 214.343215 240.069627 
L 214.37568 240.27416 
L 214.408145 240.055142 
L 214.440611 240.251105 
L 214.538007 240.010172 
L 214.570473 240.203191 
L 214.602938 239.982654 
L 214.635404 240.180607 
L 214.7328 239.929971 
L 214.765265 240.142964 
L 214.797731 239.914674 
L 214.830196 240.124235 
L 214.927593 239.884345 
L 214.960058 240.090789 
L 214.992524 239.870829 
L 215.024989 240.076096 
L 215.122385 239.847634 
L 215.219782 240.041938 
L 215.317178 239.821575 
L 215.414575 240.01978 
L 215.44704 239.925019 
L 215.511971 239.982124 
L 215.674298 239.980498 
L 215.966487 239.867317 
L 216.063884 239.936153 
L 216.096349 239.895577 
L 216.258676 239.925486 
L 216.421004 239.88946 
L 216.583331 239.91718 
L 216.745658 239.89466 
L 216.972916 239.90573 
L 217.394967 239.897282 
L 218.888378 239.934949 
L 220.544116 239.785649 
L 221.647942 239.502524 
L 222.719302 238.99022 
L 224.082851 237.977661 
L 224.926953 237.133477 
L 225.673658 236.498045 
L 228.757876 233.907171 
L 234.406865 230.213248 
L 235.283433 229.79377 
L 237.036567 229.276296 
L 238.594909 229.254698 
L 240.055855 229.594382 
L 241.386938 230.138034 
L 243.042676 231.060161 
L 245.185396 232.535942 
L 247.457978 234.080761 
L 248.464407 234.437264 
L 251.548625 235.846116 
L 254.405585 236.999245 
L 256.710633 237.785035 
L 259.01568 238.365121 
L 261.937571 238.881729 
L 265.151651 239.235913 
L 268.820247 239.416496 
L 272.748567 239.402962 
L 273.073222 239.152192 
L 273.462807 239.051993 
L 274.696495 238.926102 
L 275.573062 238.76773 
L 282.033687 237.82308 
L 283.137513 237.525507 
L 284.72832 237.254862 
L 286.838575 236.888212 
L 287.033367 236.898408 
L 287.9424 236.675714 
L 293.104407 236.028764 
L 298.331345 235.618187 
L 304.921833 235.3674 
L 319.596218 234.983603 
L 325.959447 234.49459 
L 331.446109 233.878563 
L 336.218531 233.09542 
L 342.159709 231.877736 
L 350.016349 230.275691 
L 353.457687 229.843502 
L 354.106996 229.891136 
L 354.36672 229.885582 
L 354.983564 229.467024 
L 355.600407 229.481553 
L 357.158749 229.454122 
L 358.65216 229.523743 
L 359.074211 229.65819 
L 359.72352 229.622869 
L 361.184465 229.417874 
L 363.29472 229.473802 
L 371.021498 229.978257 
L 373.326545 230.283819 
L 373.488873 230.353175 
L 374.203113 230.187491 
L 380.566342 230.53983 
L 383.488233 230.391656 
L 386.572451 230.079553 
L 392.026647 229.4701 
L 395.532916 229.379207 
L 398.487273 229.392805 
L 398.487273 229.392805 
" style="fill:none;stroke:#bf00bf;stroke-linecap:square;stroke-width:1.5;"/>
   </g>
   <g id="patch_3">
    <path d="M 57.6 307.584 
L 57.6 41.472 
" style="fill:none;stroke:#000000;stroke-linecap:square;stroke-linejoin:miter;stroke-width:0.8;"/>
   </g>
   <g id="patch_4">
    <path d="M 414.72 307.584 
L 414.72 41.472 
" style="fill:none;stroke:#000000;stroke-linecap:square;stroke-linejoin:miter;stroke-width:0.8;"/>
   </g>
   <g id="patch_5">
    <path d="M 57.6 307.584 
L 414.72 307.584 
" style="fill:none;stroke:#000000;stroke-linecap:square;stroke-linejoin:miter;stroke-width:0.8;"/>
   </g>
   <g id="patch_6">
    <path d="M 57.6 41.472 
L 414.72 41.472 
" style="fill:none;stroke:#000000;stroke-linecap:square;stroke-linejoin:miter;stroke-width:0.8;"/>
   </g>
   <g id="text_17">
    <!-- Plot of Object pose error norm over a single episode  -->
    <g transform="translate(77.670938 8.59725)scale(0.12 -0.12)">
     <defs>
      <path d="M 19.671875 64.796875 
L 19.671875 37.40625 
L 32.078125 37.40625 
Q 38.96875 37.40625 42.71875 40.96875 
Q 46.484375 44.53125 46.484375 51.125 
Q 46.484375 57.671875 42.71875 61.234375 
Q 38.96875 64.796875 32.078125 64.796875 
z
M 9.8125 72.90625 
L 32.078125 72.90625 
Q 44.34375 72.90625 50.609375 67.359375 
Q 56.890625 61.8125 56.890625 51.125 
Q 56.890625 40.328125 50.609375 34.8125 
Q 44.34375 29.296875 32.078125 29.296875 
L 19.671875 29.296875 
L 19.671875 0 
L 9.8125 0 
z
" id="DejaVuSans-80"/>
      <path d="M 9.421875 75.984375 
L 18.40625 75.984375 
L 18.40625 0 
L 9.421875 0 
z
" id="DejaVuSans-108"/>
      <path id="DejaVuSans-32"/>
      <path d="M 37.109375 75.984375 
L 37.109375 68.5 
L 28.515625 68.5 
Q 23.6875 68.5 21.796875 66.546875 
Q 19.921875 64.59375 19.921875 59.515625 
L 19.921875 54.6875 
L 34.71875 54.6875 
L 34.71875 47.703125 
L 19.921875 47.703125 
L 19.921875 0 
L 10.890625 0 
L 10.890625 47.703125 
L 2.296875 47.703125 
L 2.296875 54.6875 
L 10.890625 54.6875 
L 10.890625 58.5 
Q 10.890625 67.625 15.140625 71.796875 
Q 19.390625 75.984375 28.609375 75.984375 
z
" id="DejaVuSans-102"/>
      <path d="M 48.78125 52.59375 
L 48.78125 44.1875 
Q 44.96875 46.296875 41.140625 47.34375 
Q 37.3125 48.390625 33.40625 48.390625 
Q 24.65625 48.390625 19.8125 42.84375 
Q 14.984375 37.3125 14.984375 27.296875 
Q 14.984375 17.28125 19.8125 11.734375 
Q 24.65625 6.203125 33.40625 6.203125 
Q 37.3125 6.203125 41.140625 7.25 
Q 44.96875 8.296875 48.78125 10.40625 
L 48.78125 2.09375 
Q 45.015625 0.34375 40.984375 -0.53125 
Q 36.96875 -1.421875 32.421875 -1.421875 
Q 20.0625 -1.421875 12.78125 6.34375 
Q 5.515625 14.109375 5.515625 27.296875 
Q 5.515625 40.671875 12.859375 48.328125 
Q 20.21875 56 33.015625 56 
Q 37.15625 56 41.109375 55.140625 
Q 45.0625 54.296875 48.78125 52.59375 
z
" id="DejaVuSans-99"/>
      <path d="M 2.984375 54.6875 
L 12.5 54.6875 
L 29.59375 8.796875 
L 46.6875 54.6875 
L 56.203125 54.6875 
L 35.6875 0 
L 23.484375 0 
z
" id="DejaVuSans-118"/>
      <path d="M 34.28125 27.484375 
Q 23.390625 27.484375 19.1875 25 
Q 14.984375 22.515625 14.984375 16.5 
Q 14.984375 11.71875 18.140625 8.90625 
Q 21.296875 6.109375 26.703125 6.109375 
Q 34.1875 6.109375 38.703125 11.40625 
Q 43.21875 16.703125 43.21875 25.484375 
L 43.21875 27.484375 
z
M 52.203125 31.203125 
L 52.203125 0 
L 43.21875 0 
L 43.21875 8.296875 
Q 40.140625 3.328125 35.546875 0.953125 
Q 30.953125 -1.421875 24.3125 -1.421875 
Q 15.921875 -1.421875 10.953125 3.296875 
Q 6 8.015625 6 15.921875 
Q 6 25.140625 12.171875 29.828125 
Q 18.359375 34.515625 30.609375 34.515625 
L 43.21875 34.515625 
L 43.21875 35.40625 
Q 43.21875 41.609375 39.140625 45 
Q 35.0625 48.390625 27.6875 48.390625 
Q 23 48.390625 18.546875 47.265625 
Q 14.109375 46.140625 10.015625 43.890625 
L 10.015625 52.203125 
Q 14.9375 54.109375 19.578125 55.046875 
Q 24.21875 56 28.609375 56 
Q 40.484375 56 46.34375 49.84375 
Q 52.203125 43.703125 52.203125 31.203125 
z
" id="DejaVuSans-97"/>
      <path d="M 45.40625 27.984375 
Q 45.40625 37.75 41.375 43.109375 
Q 37.359375 48.484375 30.078125 48.484375 
Q 22.859375 48.484375 18.828125 43.109375 
Q 14.796875 37.75 14.796875 27.984375 
Q 14.796875 18.265625 18.828125 12.890625 
Q 22.859375 7.515625 30.078125 7.515625 
Q 37.359375 7.515625 41.375 12.890625 
Q 45.40625 18.265625 45.40625 27.984375 
z
M 54.390625 6.78125 
Q 54.390625 -7.171875 48.1875 -13.984375 
Q 42 -20.796875 29.203125 -20.796875 
Q 24.46875 -20.796875 20.265625 -20.09375 
Q 16.0625 -19.390625 12.109375 -17.921875 
L 12.109375 -9.1875 
Q 16.0625 -11.328125 19.921875 -12.34375 
Q 23.78125 -13.375 27.78125 -13.375 
Q 36.625 -13.375 41.015625 -8.765625 
Q 45.40625 -4.15625 45.40625 5.171875 
L 45.40625 9.625 
Q 42.625 4.78125 38.28125 2.390625 
Q 33.9375 0 27.875 0 
Q 17.828125 0 11.671875 7.65625 
Q 5.515625 15.328125 5.515625 27.984375 
Q 5.515625 40.671875 11.671875 48.328125 
Q 17.828125 56 27.875 56 
Q 33.9375 56 38.28125 53.609375 
Q 42.625 51.21875 45.40625 46.390625 
L 45.40625 54.6875 
L 54.390625 54.6875 
z
" id="DejaVuSans-103"/>
      <path d="M 45.40625 46.390625 
L 45.40625 75.984375 
L 54.390625 75.984375 
L 54.390625 0 
L 45.40625 0 
L 45.40625 8.203125 
Q 42.578125 3.328125 38.25 0.953125 
Q 33.9375 -1.421875 27.875 -1.421875 
Q 17.96875 -1.421875 11.734375 6.484375 
Q 5.515625 14.40625 5.515625 27.296875 
Q 5.515625 40.1875 11.734375 48.09375 
Q 17.96875 56 27.875 56 
Q 33.9375 56 38.25 53.625 
Q 42.578125 51.265625 45.40625 46.390625 
z
M 14.796875 27.296875 
Q 14.796875 17.390625 18.875 11.75 
Q 22.953125 6.109375 30.078125 6.109375 
Q 37.203125 6.109375 41.296875 11.75 
Q 45.40625 17.390625 45.40625 27.296875 
Q 45.40625 37.203125 41.296875 42.84375 
Q 37.203125 48.484375 30.078125 48.484375 
Q 22.953125 48.484375 18.875 42.84375 
Q 14.796875 37.203125 14.796875 27.296875 
z
" id="DejaVuSans-100"/>
     </defs>
     <use xlink:href="#DejaVuSans-80"/>
     <use x="60.302734" xlink:href="#DejaVuSans-108"/>
     <use x="88.085938" xlink:href="#DejaVuSans-111"/>
     <use x="149.267578" xlink:href="#DejaVuSans-116"/>
     <use x="188.476562" xlink:href="#DejaVuSans-32"/>
     <use x="220.263672" xlink:href="#DejaVuSans-111"/>
     <use x="281.445312" xlink:href="#DejaVuSans-102"/>
     <use x="316.650391" xlink:href="#DejaVuSans-32"/>
     <use x="348.4375" xlink:href="#DejaVuSans-79"/>
     <use x="427.148438" xlink:href="#DejaVuSans-98"/>
     <use x="490.625" xlink:href="#DejaVuSans-106"/>
     <use x="518.408203" xlink:href="#DejaVuSans-101"/>
     <use x="579.931641" xlink:href="#DejaVuSans-99"/>
     <use x="634.912109" xlink:href="#DejaVuSans-116"/>
     <use x="674.121094" xlink:href="#DejaVuSans-32"/>
     <use x="705.908203" xlink:href="#DejaVuSans-112"/>
     <use x="769.384766" xlink:href="#DejaVuSans-111"/>
     <use x="830.566406" xlink:href="#DejaVuSans-115"/>
     <use x="882.666016" xlink:href="#DejaVuSans-101"/>
     <use x="944.189453" xlink:href="#DejaVuSans-32"/>
     <use x="975.976562" xlink:href="#DejaVuSans-101"/>
     <use x="1037.5" xlink:href="#DejaVuSans-114"/>
     <use x="1076.863281" xlink:href="#DejaVuSans-114"/>
     <use x="1115.726562" xlink:href="#DejaVuSans-111"/>
     <use x="1176.908203" xlink:href="#DejaVuSans-114"/>
     <use x="1218.021484" xlink:href="#DejaVuSans-32"/>
     <use x="1249.808594" xlink:href="#DejaVuSans-110"/>
     <use x="1313.1875" xlink:href="#DejaVuSans-111"/>
     <use x="1374.369141" xlink:href="#DejaVuSans-114"/>
     <use x="1413.732422" xlink:href="#DejaVuSans-109"/>
     <use x="1511.144531" xlink:href="#DejaVuSans-32"/>
     <use x="1542.931641" xlink:href="#DejaVuSans-111"/>
     <use x="1604.113281" xlink:href="#DejaVuSans-118"/>
     <use x="1663.292969" xlink:href="#DejaVuSans-101"/>
     <use x="1724.816406" xlink:href="#DejaVuSans-114"/>
     <use x="1765.929688" xlink:href="#DejaVuSans-32"/>
     <use x="1797.716797" xlink:href="#DejaVuSans-97"/>
     <use x="1858.996094" xlink:href="#DejaVuSans-32"/>
     <use x="1890.783203" xlink:href="#DejaVuSans-115"/>
     <use x="1942.882812" xlink:href="#DejaVuSans-105"/>
     <use x="1970.666016" xlink:href="#DejaVuSans-110"/>
     <use x="2034.044922" xlink:href="#DejaVuSans-103"/>
     <use x="2097.521484" xlink:href="#DejaVuSans-108"/>
     <use x="2125.304688" xlink:href="#DejaVuSans-101"/>
     <use x="2186.828125" xlink:href="#DejaVuSans-32"/>
     <use x="2218.615234" xlink:href="#DejaVuSans-101"/>
     <use x="2280.138672" xlink:href="#DejaVuSans-112"/>
     <use x="2343.615234" xlink:href="#DejaVuSans-105"/>
     <use x="2371.398438" xlink:href="#DejaVuSans-115"/>
     <use x="2423.498047" xlink:href="#DejaVuSans-111"/>
     <use x="2484.679688" xlink:href="#DejaVuSans-100"/>
     <use x="2548.15625" xlink:href="#DejaVuSans-101"/>
     <use x="2609.679688" xlink:href="#DejaVuSans-32"/>
    </g>
    <!--  Avg object pose error norm: Residual RL = 0.361, Standard = 0.344,  -->
    <g transform="translate(26.875313 22.034625)scale(0.12 -0.12)">
     <defs>
      <path d="M 34.1875 63.1875 
L 20.796875 26.90625 
L 47.609375 26.90625 
z
M 28.609375 72.90625 
L 39.796875 72.90625 
L 67.578125 0 
L 57.328125 0 
L 50.6875 18.703125 
L 17.828125 18.703125 
L 11.1875 0 
L 0.78125 0 
z
" id="DejaVuSans-65"/>
      <path d="M 11.71875 12.40625 
L 22.015625 12.40625 
L 22.015625 0 
L 11.71875 0 
z
M 11.71875 51.703125 
L 22.015625 51.703125 
L 22.015625 39.3125 
L 11.71875 39.3125 
z
" id="DejaVuSans-58"/>
      <path d="M 44.390625 34.1875 
Q 47.5625 33.109375 50.5625 29.59375 
Q 53.5625 26.078125 56.59375 19.921875 
L 66.609375 0 
L 56 0 
L 46.6875 18.703125 
Q 43.0625 26.03125 39.671875 28.421875 
Q 36.28125 30.8125 30.421875 30.8125 
L 19.671875 30.8125 
L 19.671875 0 
L 9.8125 0 
L 9.8125 72.90625 
L 32.078125 72.90625 
Q 44.578125 72.90625 50.734375 67.671875 
Q 56.890625 62.453125 56.890625 51.90625 
Q 56.890625 45.015625 53.6875 40.46875 
Q 50.484375 35.9375 44.390625 34.1875 
z
M 19.671875 64.796875 
L 19.671875 38.921875 
L 32.078125 38.921875 
Q 39.203125 38.921875 42.84375 42.21875 
Q 46.484375 45.515625 46.484375 51.90625 
Q 46.484375 58.296875 42.84375 61.546875 
Q 39.203125 64.796875 32.078125 64.796875 
z
" id="DejaVuSans-82"/>
      <path d="M 9.8125 72.90625 
L 19.671875 72.90625 
L 19.671875 8.296875 
L 55.171875 8.296875 
L 55.171875 0 
L 9.8125 0 
z
" id="DejaVuSans-76"/>
      <path d="M 10.59375 45.40625 
L 73.1875 45.40625 
L 73.1875 37.203125 
L 10.59375 37.203125 
z
M 10.59375 25.484375 
L 73.1875 25.484375 
L 73.1875 17.1875 
L 10.59375 17.1875 
z
" id="DejaVuSans-61"/>
      <path d="M 11.71875 12.40625 
L 22.015625 12.40625 
L 22.015625 4 
L 14.015625 -11.625 
L 7.71875 -11.625 
L 11.71875 4 
z
" id="DejaVuSans-44"/>
      <path d="M 53.515625 70.515625 
L 53.515625 60.890625 
Q 47.90625 63.578125 42.921875 64.890625 
Q 37.9375 66.21875 33.296875 66.21875 
Q 25.25 66.21875 20.875 63.09375 
Q 16.5 59.96875 16.5 54.203125 
Q 16.5 49.359375 19.40625 46.890625 
Q 22.3125 44.4375 30.421875 42.921875 
L 36.375 41.703125 
Q 47.40625 39.59375 52.65625 34.296875 
Q 57.90625 29 57.90625 20.125 
Q 57.90625 9.515625 50.796875 4.046875 
Q 43.703125 -1.421875 29.984375 -1.421875 
Q 24.8125 -1.421875 18.96875 -0.25 
Q 13.140625 0.921875 6.890625 3.21875 
L 6.890625 13.375 
Q 12.890625 10.015625 18.65625 8.296875 
Q 24.421875 6.59375 29.984375 6.59375 
Q 38.421875 6.59375 43.015625 9.90625 
Q 47.609375 13.234375 47.609375 19.390625 
Q 47.609375 24.75 44.3125 27.78125 
Q 41.015625 30.8125 33.5 32.328125 
L 27.484375 33.5 
Q 16.453125 35.6875 11.515625 40.375 
Q 6.59375 45.0625 6.59375 53.421875 
Q 6.59375 63.09375 13.40625 68.65625 
Q 20.21875 74.21875 32.171875 74.21875 
Q 37.3125 74.21875 42.625 73.28125 
Q 47.953125 72.359375 53.515625 70.515625 
z
" id="DejaVuSans-83"/>
     </defs>
     <use xlink:href="#DejaVuSans-32"/>
     <use x="31.787109" xlink:href="#DejaVuSans-65"/>
     <use x="94.320312" xlink:href="#DejaVuSans-118"/>
     <use x="153.5" xlink:href="#DejaVuSans-103"/>
     <use x="216.976562" xlink:href="#DejaVuSans-32"/>
     <use x="248.763672" xlink:href="#DejaVuSans-111"/>
     <use x="309.945312" xlink:href="#DejaVuSans-98"/>
     <use x="373.421875" xlink:href="#DejaVuSans-106"/>
     <use x="401.205078" xlink:href="#DejaVuSans-101"/>
     <use x="462.728516" xlink:href="#DejaVuSans-99"/>
     <use x="517.708984" xlink:href="#DejaVuSans-116"/>
     <use x="556.917969" xlink:href="#DejaVuSans-32"/>
     <use x="588.705078" xlink:href="#DejaVuSans-112"/>
     <use x="652.181641" xlink:href="#DejaVuSans-111"/>
     <use x="713.363281" xlink:href="#DejaVuSans-115"/>
     <use x="765.462891" xlink:href="#DejaVuSans-101"/>
     <use x="826.986328" xlink:href="#DejaVuSans-32"/>
     <use x="858.773438" xlink:href="#DejaVuSans-101"/>
     <use x="920.296875" xlink:href="#DejaVuSans-114"/>
     <use x="959.660156" xlink:href="#DejaVuSans-114"/>
     <use x="998.523438" xlink:href="#DejaVuSans-111"/>
     <use x="1059.705078" xlink:href="#DejaVuSans-114"/>
     <use x="1100.818359" xlink:href="#DejaVuSans-32"/>
     <use x="1132.605469" xlink:href="#DejaVuSans-110"/>
     <use x="1195.984375" xlink:href="#DejaVuSans-111"/>
     <use x="1257.166016" xlink:href="#DejaVuSans-114"/>
     <use x="1296.529297" xlink:href="#DejaVuSans-109"/>
     <use x="1393.941406" xlink:href="#DejaVuSans-58"/>
     <use x="1427.632812" xlink:href="#DejaVuSans-32"/>
     <use x="1459.419922" xlink:href="#DejaVuSans-82"/>
     <use x="1524.402344" xlink:href="#DejaVuSans-101"/>
     <use x="1585.925781" xlink:href="#DejaVuSans-115"/>
     <use x="1638.025391" xlink:href="#DejaVuSans-105"/>
     <use x="1665.808594" xlink:href="#DejaVuSans-100"/>
     <use x="1729.285156" xlink:href="#DejaVuSans-117"/>
     <use x="1792.664062" xlink:href="#DejaVuSans-97"/>
     <use x="1853.943359" xlink:href="#DejaVuSans-108"/>
     <use x="1881.726562" xlink:href="#DejaVuSans-32"/>
     <use x="1913.513672" xlink:href="#DejaVuSans-82"/>
     <use x="1982.996094" xlink:href="#DejaVuSans-76"/>
     <use x="2038.708984" xlink:href="#DejaVuSans-32"/>
     <use x="2070.496094" xlink:href="#DejaVuSans-61"/>
     <use x="2154.285156" xlink:href="#DejaVuSans-32"/>
     <use x="2186.072266" xlink:href="#DejaVuSans-48"/>
     <use x="2249.695312" xlink:href="#DejaVuSans-46"/>
     <use x="2281.482422" xlink:href="#DejaVuSans-51"/>
     <use x="2345.105469" xlink:href="#DejaVuSans-54"/>
     <use x="2408.728516" xlink:href="#DejaVuSans-49"/>
     <use x="2472.351562" xlink:href="#DejaVuSans-44"/>
     <use x="2504.138672" xlink:href="#DejaVuSans-32"/>
     <use x="2535.925781" xlink:href="#DejaVuSans-83"/>
     <use x="2599.402344" xlink:href="#DejaVuSans-116"/>
     <use x="2638.611328" xlink:href="#DejaVuSans-97"/>
     <use x="2699.890625" xlink:href="#DejaVuSans-110"/>
     <use x="2763.269531" xlink:href="#DejaVuSans-100"/>
     <use x="2826.746094" xlink:href="#DejaVuSans-97"/>
     <use x="2888.025391" xlink:href="#DejaVuSans-114"/>
     <use x="2927.388672" xlink:href="#DejaVuSans-100"/>
     <use x="2990.865234" xlink:href="#DejaVuSans-32"/>
     <use x="3022.652344" xlink:href="#DejaVuSans-61"/>
     <use x="3106.441406" xlink:href="#DejaVuSans-32"/>
     <use x="3138.228516" xlink:href="#DejaVuSans-48"/>
     <use x="3201.851562" xlink:href="#DejaVuSans-46"/>
     <use x="3233.638672" xlink:href="#DejaVuSans-51"/>
     <use x="3297.261719" xlink:href="#DejaVuSans-52"/>
     <use x="3360.884766" xlink:href="#DejaVuSans-52"/>
     <use x="3424.507812" xlink:href="#DejaVuSans-44"/>
     <use x="3456.294922" xlink:href="#DejaVuSans-32"/>
    </g>
    <!--  Baseline = 0.178 -->
    <g transform="translate(182.795625 35.472)scale(0.12 -0.12)">
     <defs>
      <path d="M 19.671875 34.8125 
L 19.671875 8.109375 
L 35.5 8.109375 
Q 43.453125 8.109375 47.28125 11.40625 
Q 51.125 14.703125 51.125 21.484375 
Q 51.125 28.328125 47.28125 31.5625 
Q 43.453125 34.8125 35.5 34.8125 
z
M 19.671875 64.796875 
L 19.671875 42.828125 
L 34.28125 42.828125 
Q 41.5 42.828125 45.03125 45.53125 
Q 48.578125 48.25 48.578125 53.8125 
Q 48.578125 59.328125 45.03125 62.0625 
Q 41.5 64.796875 34.28125 64.796875 
z
M 9.8125 72.90625 
L 35.015625 72.90625 
Q 46.296875 72.90625 52.390625 68.21875 
Q 58.5 63.53125 58.5 54.890625 
Q 58.5 48.1875 55.375 44.234375 
Q 52.25 40.28125 46.1875 39.3125 
Q 53.46875 37.75 57.5 32.78125 
Q 61.53125 27.828125 61.53125 20.40625 
Q 61.53125 10.640625 54.890625 5.3125 
Q 48.25 0 35.984375 0 
L 9.8125 0 
z
" id="DejaVuSans-66"/>
     </defs>
     <use xlink:href="#DejaVuSans-32"/>
     <use x="31.787109" xlink:href="#DejaVuSans-66"/>
     <use x="100.390625" xlink:href="#DejaVuSans-97"/>
     <use x="161.669922" xlink:href="#DejaVuSans-115"/>
     <use x="213.769531" xlink:href="#DejaVuSans-101"/>
     <use x="275.292969" xlink:href="#DejaVuSans-108"/>
     <use x="303.076172" xlink:href="#DejaVuSans-105"/>
     <use x="330.859375" xlink:href="#DejaVuSans-110"/>
     <use x="394.238281" xlink:href="#DejaVuSans-101"/>
     <use x="455.761719" xlink:href="#DejaVuSans-32"/>
     <use x="487.548828" xlink:href="#DejaVuSans-61"/>
     <use x="571.337891" xlink:href="#DejaVuSans-32"/>
     <use x="603.125" xlink:href="#DejaVuSans-48"/>
     <use x="666.748047" xlink:href="#DejaVuSans-46"/>
     <use x="698.535156" xlink:href="#DejaVuSans-49"/>
     <use x="762.158203" xlink:href="#DejaVuSans-55"/>
     <use x="825.78125" xlink:href="#DejaVuSans-56"/>
    </g>
   </g>
   <g id="legend_1">
    <g id="patch_7">
     <path d="M 64.6 93.506375 
L 154.529687 93.506375 
Q 156.529687 93.506375 156.529687 91.506375 
L 156.529687 48.472 
Q 156.529687 46.472 154.529687 46.472 
L 64.6 46.472 
Q 62.6 46.472 62.6 48.472 
L 62.6 91.506375 
Q 62.6 93.506375 64.6 93.506375 
z
" style="fill:#ffffff;opacity:0.8;stroke:#cccccc;stroke-linejoin:miter;"/>
    </g>
    <g id="line2d_18">
     <path d="M 66.6 54.570438 
L 86.6 54.570438 
" style="fill:none;stroke:#1f77b4;stroke-linecap:square;stroke-width:1.5;"/>
    </g>
    <g id="line2d_19"/>
    <g id="text_18">
     <!-- Residual RL -->
     <g transform="translate(94.6 58.070438)scale(0.1 -0.1)">
      <use xlink:href="#DejaVuSans-82"/>
      <use x="64.982422" xlink:href="#DejaVuSans-101"/>
      <use x="126.505859" xlink:href="#DejaVuSans-115"/>
      <use x="178.605469" xlink:href="#DejaVuSans-105"/>
      <use x="206.388672" xlink:href="#DejaVuSans-100"/>
      <use x="269.865234" xlink:href="#DejaVuSans-117"/>
      <use x="333.244141" xlink:href="#DejaVuSans-97"/>
      <use x="394.523438" xlink:href="#DejaVuSans-108"/>
      <use x="422.306641" xlink:href="#DejaVuSans-32"/>
      <use x="454.09375" xlink:href="#DejaVuSans-82"/>
      <use x="523.576172" xlink:href="#DejaVuSans-76"/>
     </g>
    </g>
    <g id="line2d_20">
     <path d="M 66.6 69.248563 
L 86.6 69.248563 
" style="fill:none;stroke:#ff7f0e;stroke-linecap:square;stroke-width:1.5;"/>
    </g>
    <g id="line2d_21"/>
    <g id="text_19">
     <!-- Standard -->
     <g transform="translate(94.6 72.748563)scale(0.1 -0.1)">
      <use xlink:href="#DejaVuSans-83"/>
      <use x="63.476562" xlink:href="#DejaVuSans-116"/>
      <use x="102.685547" xlink:href="#DejaVuSans-97"/>
      <use x="163.964844" xlink:href="#DejaVuSans-110"/>
      <use x="227.34375" xlink:href="#DejaVuSans-100"/>
      <use x="290.820312" xlink:href="#DejaVuSans-97"/>
      <use x="352.099609" xlink:href="#DejaVuSans-114"/>
      <use x="391.462891" xlink:href="#DejaVuSans-100"/>
     </g>
    </g>
    <g id="line2d_22">
     <path d="M 66.6 83.926688 
L 86.6 83.926688 
" style="fill:none;stroke:#bf00bf;stroke-linecap:square;stroke-width:1.5;"/>
    </g>
    <g id="line2d_23"/>
    <g id="text_20">
     <!-- Baseline -->
     <g transform="translate(94.6 87.426688)scale(0.1 -0.1)">
      <use xlink:href="#DejaVuSans-66"/>
      <use x="68.603516" xlink:href="#DejaVuSans-97"/>
      <use x="129.882812" xlink:href="#DejaVuSans-115"/>
      <use x="181.982422" xlink:href="#DejaVuSans-101"/>
      <use x="243.505859" xlink:href="#DejaVuSans-108"/>
      <use x="271.289062" xlink:href="#DejaVuSans-105"/>
      <use x="299.072266" xlink:href="#DejaVuSans-110"/>
      <use x="362.451172" xlink:href="#DejaVuSans-101"/>
     </g>
    </g>
   </g>
  </g>
 </g>
 <defs>
  <clipPath id="p9bec06967e">
   <rect height="266.112" width="357.12" x="57.6" y="41.472"/>
  </clipPath>
 </defs>
</svg>
